# deckhand: hat.  Loom axes -- metres, Y up, forward -Z.
# Generated by build_deckhand.py; never edit this file.
# Blender 5.2.0 LTS
# www.blender.org
v 0.000000 0.135000 0.000000
v 0.000000 0.135000 0.000000
v 0.000000 0.135000 0.000000
v 0.000000 0.135000 0.000000
v 0.000000 0.135000 0.000000
v 0.000000 0.135000 0.000000
v 0.000000 0.135000 0.000000
v 0.000000 0.135000 0.000000
v 0.000000 0.135000 0.000000
v 0.000000 0.135000 0.000000
v 0.000000 0.135000 0.000000
v 0.000000 0.135000 0.000000
v 0.000000 0.135000 0.000000
v 0.000000 0.135000 0.000000
v 0.000000 0.135000 0.000000
v 0.000000 0.135000 0.000000
v 0.000000 0.135000 0.000000
v 0.000000 0.135000 0.000000
v 0.000000 0.135000 0.000000
v 0.000000 0.126000 0.070000
v 0.021631 0.126000 0.066574
v 0.041145 0.126000 0.056631
v 0.056631 0.126000 0.041145
v 0.066574 0.126000 0.021631
v 0.070000 0.126000 0.000000
v 0.066574 0.126000 -0.021631
v 0.056631 0.126000 -0.041145
v 0.041145 0.126000 -0.056631
v 0.021631 0.126000 -0.066574
v 0.000000 0.126000 -0.070000
v -0.021631 0.126000 -0.066574
v -0.041145 0.126000 -0.056631
v -0.056631 0.126000 -0.041145
v -0.066574 0.126000 -0.021631
v -0.070000 0.126000 -0.000000
v -0.066574 0.126000 0.021631
v -0.056631 0.126000 0.041145
v -0.041145 0.126000 0.056631
v -0.021631 0.126000 0.066574
v 0.000000 0.094000 0.126000
v 0.038936 0.094000 0.119833
v 0.074061 0.094000 0.101936
v 0.101936 0.094000 0.074061
v 0.119833 0.094000 0.038936
v 0.126000 0.094000 0.000000
v 0.119833 0.094000 -0.038936
v 0.101936 0.094000 -0.074061
v 0.074061 0.094000 -0.101936
v 0.038936 0.094000 -0.119833
v 0.000000 0.094000 -0.126000
v -0.038936 0.094000 -0.119833
v -0.074061 0.094000 -0.101936
v -0.101936 0.094000 -0.074061
v -0.119833 0.094000 -0.038936
v -0.126000 0.094000 -0.000000
v -0.119833 0.094000 0.038936
v -0.101936 0.094000 0.074061
v -0.074061 0.094000 0.101936
v -0.038936 0.094000 0.119833
v 0.000000 0.043000 0.158000
v 0.048825 0.043000 0.150267
v 0.092870 0.043000 0.127825
v 0.127825 0.043000 0.092870
v 0.150267 0.043000 0.048825
v 0.158000 0.043000 0.000000
v 0.150267 0.043000 -0.048825
v 0.127825 0.043000 -0.092870
v 0.092870 0.043000 -0.127825
v 0.048825 0.043000 -0.150267
v 0.000000 0.043000 -0.158000
v -0.048825 0.043000 -0.150267
v -0.092870 0.043000 -0.127825
v -0.127825 0.043000 -0.092870
v -0.150267 0.043000 -0.048825
v -0.158000 0.043000 -0.000000
v -0.150267 0.043000 0.048825
v -0.127825 0.043000 0.092870
v -0.092870 0.043000 0.127825
v -0.048825 0.043000 0.150267
v 0.000000 -0.012000 0.170000
v 0.052533 -0.012000 0.161680
v 0.099923 -0.012000 0.137533
v 0.137533 -0.012000 0.099923
v 0.161680 -0.012000 0.052533
v 0.170000 -0.012000 0.000000
v 0.161680 -0.012000 -0.052533
v 0.137533 -0.012000 -0.099923
v 0.099923 -0.012000 -0.137533
v 0.052533 -0.012000 -0.161680
v 0.000000 -0.012000 -0.170000
v -0.052533 -0.012000 -0.161680
v -0.099923 -0.012000 -0.137533
v -0.137533 -0.012000 -0.099923
v -0.161680 -0.012000 -0.052533
v -0.170000 -0.012000 -0.000000
v -0.161680 -0.012000 0.052533
v -0.137533 -0.012000 0.099923
v -0.099923 -0.012000 0.137533
v -0.052533 -0.012000 0.161680
v 0.000000 -0.030000 0.170000
v 0.052533 -0.030000 0.161680
v 0.099923 -0.030000 0.137533
v 0.137533 -0.030000 0.099923
v 0.161680 -0.030000 0.052533
v 0.170000 -0.030000 0.000000
v 0.161680 -0.030000 -0.052533
v 0.137533 -0.030000 -0.099923
v 0.099923 -0.030000 -0.137533
v 0.052533 -0.030000 -0.161680
v 0.000000 -0.030000 -0.170000
v -0.052533 -0.030000 -0.161680
v -0.099923 -0.030000 -0.137533
v -0.137533 -0.030000 -0.099923
v -0.161680 -0.030000 -0.052533
v -0.170000 -0.030000 -0.000000
v -0.161680 -0.030000 0.052533
v -0.137533 -0.030000 0.099923
v -0.099923 -0.030000 0.137533
v -0.052533 -0.030000 0.161680
v 0.000000 -0.036202 0.301600
v 0.091640 -0.036936 0.282039
v 0.166135 -0.038660 0.228665
v 0.213066 -0.040325 0.154802
v 0.232016 -0.041255 0.075387
v 0.232000 -0.042458 0.000000
v 0.220645 -0.044607 -0.071692
v 0.187692 -0.046580 -0.136366
v 0.136366 -0.048172 -0.187692
v 0.071692 -0.049207 -0.220645
v 0.000000 -0.049566 -0.232000
v -0.071692 -0.049207 -0.220645
v -0.136366 -0.048172 -0.187692
v -0.187692 -0.046580 -0.136366
v -0.220645 -0.044607 -0.071692
v -0.232000 -0.042458 -0.000000
v -0.232016 -0.041255 0.075387
v -0.213066 -0.040325 0.154802
v -0.166135 -0.038660 0.228665
v -0.091640 -0.036936 0.282039
v 0.000000 -0.047748 0.309400
v 0.094010 -0.048539 0.289333
v 0.170432 -0.050417 0.234579
v 0.218577 -0.052297 0.158805
v 0.238016 -0.053471 0.077336
v 0.238000 -0.054954 0.000000
v 0.226351 -0.057311 -0.073546
v 0.192546 -0.059475 -0.139893
v 0.139893 -0.061221 -0.192546
v 0.073546 -0.062356 -0.226351
v 0.000000 -0.062750 -0.238000
v -0.073546 -0.062356 -0.226351
v -0.139893 -0.061221 -0.192546
v -0.192546 -0.059475 -0.139893
v -0.226351 -0.057311 -0.073546
v -0.238000 -0.054954 -0.000000
v -0.238016 -0.053471 0.077336
v -0.218577 -0.052297 0.158805
v -0.170432 -0.050417 0.234579
v -0.094010 -0.048539 0.289333
v 0.000000 -0.055839 0.296400
v 0.090060 -0.056535 0.277176
v 0.163271 -0.058156 0.224723
v 0.209393 -0.059677 0.152133
v 0.228016 -0.060444 0.074087
v 0.228000 -0.061461 0.000000
v 0.216841 -0.063472 -0.070456
v 0.184456 -0.065317 -0.134015
v 0.134015 -0.066806 -0.184456
v 0.070456 -0.067774 -0.216841
v 0.000000 -0.068110 -0.228000
v -0.070456 -0.067774 -0.216841
v -0.134015 -0.066806 -0.184456
v -0.184456 -0.065317 -0.134015
v -0.216841 -0.063472 -0.070456
v -0.228000 -0.061461 -0.000000
v -0.228016 -0.060444 0.074087
v -0.209393 -0.059677 0.152133
v -0.163271 -0.058156 0.224723
v -0.090060 -0.056535 0.277176
v 0.000000 -0.053566 0.221000
v 0.067150 -0.053714 0.206666
v 0.121737 -0.053842 0.167557
v 0.156126 -0.053280 0.113432
v 0.170012 -0.051689 0.055240
v 0.170000 -0.050000 0.000000
v 0.161680 -0.050000 -0.052533
v 0.137533 -0.050000 -0.099923
v 0.099923 -0.050000 -0.137533
v 0.052533 -0.050000 -0.161680
v 0.000000 -0.050000 -0.170000
v -0.052533 -0.050000 -0.161680
v -0.099923 -0.050000 -0.137533
v -0.137533 -0.050000 -0.099923
v -0.161680 -0.050000 -0.052533
v -0.170000 -0.050000 -0.000000
v -0.170012 -0.051689 0.055240
v -0.156126 -0.053280 0.113432
v -0.121737 -0.053842 0.167557
v -0.067150 -0.053714 0.206666
v 0.000000 -0.088000 0.152000
v 0.046971 -0.088000 0.144561
v 0.089343 -0.088000 0.122971
v 0.122971 -0.088000 0.089343
v 0.144561 -0.088000 0.046971
v 0.152000 -0.088000 0.000000
v 0.144561 -0.088000 -0.046971
v 0.122971 -0.088000 -0.089343
v 0.089343 -0.088000 -0.122971
v 0.046971 -0.088000 -0.144561
v 0.000000 -0.088000 -0.152000
v -0.046971 -0.088000 -0.144561
v -0.089343 -0.088000 -0.122971
v -0.122971 -0.088000 -0.089343
v -0.144561 -0.088000 -0.046971
v -0.152000 -0.088000 -0.000000
v -0.144561 -0.088000 0.046971
v -0.122971 -0.088000 0.089343
v -0.089343 -0.088000 0.122971
v -0.046971 -0.088000 0.144561
v 0.000000 -0.124000 0.122000
v 0.037700 -0.124000 0.116029
v 0.071710 -0.124000 0.098700
v 0.098700 -0.124000 0.071710
v 0.116029 -0.124000 0.037700
v 0.122000 -0.124000 0.000000
v 0.116029 -0.124000 -0.037700
v 0.098700 -0.124000 -0.071710
v 0.071710 -0.124000 -0.098700
v 0.037700 -0.124000 -0.116029
v 0.000000 -0.124000 -0.122000
v -0.037700 -0.124000 -0.116029
v -0.071710 -0.124000 -0.098700
v -0.098700 -0.124000 -0.071710
v -0.116029 -0.124000 -0.037700
v -0.122000 -0.124000 -0.000000
v -0.116029 -0.124000 0.037700
v -0.098700 -0.124000 0.071710
v -0.071710 -0.124000 0.098700
v -0.037700 -0.124000 0.116029
v 0.000000 -0.135000 0.100000
v 0.030902 -0.135000 0.095106
v 0.058779 -0.135000 0.080902
v 0.080902 -0.135000 0.058779
v 0.095106 -0.135000 0.030902
v 0.100000 -0.135000 0.000000
v 0.095106 -0.135000 -0.030902
v 0.080902 -0.135000 -0.058779
v 0.058779 -0.135000 -0.080902
v 0.030902 -0.135000 -0.095106
v 0.000000 -0.135000 -0.100000
v -0.030902 -0.135000 -0.095106
v -0.058779 -0.135000 -0.080902
v -0.080902 -0.135000 -0.058779
v -0.095106 -0.135000 -0.030902
v -0.100000 -0.135000 -0.000000
v -0.095106 -0.135000 0.030902
v -0.080902 -0.135000 0.058779
v -0.058779 -0.135000 0.080902
v -0.030902 -0.135000 0.095106
v 0.000000 -0.135000 0.000000
v 0.000000 -0.135000 0.000000
v 0.000000 -0.135000 0.000000
v 0.000000 -0.135000 0.000000
v 0.000000 -0.135000 0.000000
v 0.000000 -0.135000 0.000000
v 0.000000 -0.135000 0.000000
v 0.000000 -0.135000 0.000000
v 0.000000 -0.135000 0.000000
v 0.000000 -0.135000 0.000000
v 0.000000 -0.135000 0.000000
v 0.000000 -0.135000 0.000000
v 0.000000 -0.135000 0.000000
v 0.000000 -0.135000 0.000000
v 0.000000 -0.135000 0.000000
v 0.000000 -0.135000 0.000000
v 0.000000 -0.135000 0.000000
v 0.000000 -0.135000 0.000000
v 0.000000 -0.135000 0.000000
v 0.000000 -0.135000 0.000000
vn 0.0202 0.9916 0.1275
vn 0.0586 0.9916 0.1150
vn 0.0913 0.9916 0.0913
vn 0.1150 0.9916 0.0586
vn 0.1275 0.9916 0.0202
vn 0.1275 0.9916 -0.0202
vn 0.1150 0.9916 -0.0586
vn 0.0913 0.9916 -0.0913
vn 0.0586 0.9916 -0.1150
vn 0.0202 0.9916 -0.1275
vn -0.0202 0.9916 -0.1275
vn -0.0586 0.9916 -0.1150
vn -0.0913 0.9916 -0.0913
vn -0.1150 0.9916 -0.0586
vn -0.1275 0.9916 -0.0202
vn -0.1275 0.9916 0.0202
vn -0.1150 0.9916 0.0586
vn -0.0913 0.9916 0.0913
vn -0.0586 0.9916 0.1150
vn -0.0202 0.9916 0.1275
vn 0.0783 0.8656 0.4946
vn 0.2273 0.8656 0.4462
vn 0.3541 0.8656 0.3541
vn 0.4462 0.8656 0.2273
vn 0.4946 0.8656 0.0783
vn 0.4946 0.8656 -0.0783
vn 0.4462 0.8656 -0.2273
vn 0.3541 0.8656 -0.3541
vn 0.2273 0.8656 -0.4462
vn 0.0783 0.8656 -0.4946
vn -0.0783 0.8656 -0.4946
vn -0.2273 0.8656 -0.4462
vn -0.3541 0.8656 -0.3541
vn -0.4462 0.8656 -0.2273
vn -0.4946 0.8656 -0.0783
vn -0.4946 0.8656 0.0783
vn -0.4462 0.8656 0.2273
vn -0.3541 0.8656 0.3541
vn -0.2273 0.8656 0.4462
vn -0.0783 0.8656 0.4946
vn 0.1330 0.5268 0.8395
vn 0.3859 0.5268 0.7574
vn 0.6010 0.5268 0.6010
vn 0.7574 0.5268 0.3859
vn 0.8395 0.5268 0.1330
vn 0.8395 0.5268 -0.1330
vn 0.7574 0.5268 -0.3859
vn 0.6010 0.5268 -0.6010
vn 0.3859 0.5268 -0.7574
vn 0.1330 0.5268 -0.8395
vn -0.1330 0.5268 -0.8395
vn -0.3859 0.5268 -0.7574
vn -0.6010 0.5268 -0.6010
vn -0.7574 0.5268 -0.3859
vn -0.8395 0.5268 -0.1330
vn -0.8395 0.5268 0.1330
vn -0.7574 0.5268 0.3859
vn -0.6010 0.5268 0.6010
vn -0.3859 0.5268 0.7574
vn -0.1330 0.5268 0.8395
vn 0.1529 0.2107 0.9655
vn 0.4438 0.2107 0.8710
vn 0.6912 0.2107 0.6912
vn 0.8710 0.2107 0.4438
vn 0.9655 0.2107 0.1529
vn 0.9655 0.2107 -0.1529
vn 0.8710 0.2107 -0.4438
vn 0.6912 0.2107 -0.6912
vn 0.4438 0.2107 -0.8710
vn 0.1529 0.2107 -0.9655
vn -0.1529 0.2107 -0.9655
vn -0.4438 0.2107 -0.8710
vn -0.6912 0.2107 -0.6912
vn -0.8710 0.2107 -0.4438
vn -0.9655 0.2107 -0.1529
vn -0.9655 0.2107 0.1529
vn -0.8710 0.2107 0.4438
vn -0.6912 0.2107 0.6912
vn -0.4438 0.2107 0.8710
vn -0.1529 0.2107 0.9655
vn 0.1564 -0.0000 0.9877
vn 0.4540 -0.0000 0.8910
vn 0.7071 -0.0000 0.7071
vn 0.8910 -0.0000 0.4540
vn 0.9877 -0.0000 0.1564
vn 0.9877 -0.0000 -0.1564
vn 0.8910 -0.0000 -0.4540
vn 0.7071 -0.0000 -0.7071
vn 0.4540 -0.0000 -0.8910
vn 0.1564 -0.0000 -0.9877
vn -0.1564 -0.0000 -0.9877
vn -0.4540 -0.0000 -0.8910
vn -0.7071 -0.0000 -0.7071
vn -0.8910 -0.0000 -0.4540
vn -0.9877 -0.0000 -0.1564
vn -0.9877 -0.0000 0.1564
vn -0.8910 -0.0000 0.4540
vn -0.7071 -0.0000 0.7071
vn -0.4540 -0.0000 0.8910
vn -0.1564 -0.0000 0.9877
vn 0.0087 0.9985 0.0547
vn 0.0352 0.9970 0.0691
vn 0.0787 0.9938 0.0787
vn 0.1357 0.9883 0.0691
vn 0.1969 0.9799 0.0312
vn 0.1969 0.9799 -0.0312
vn 0.2067 0.9727 -0.1053
vn 0.1848 0.9652 -0.1848
vn 0.1292 0.9587 -0.2535
vn 0.0468 0.9542 -0.2956
vn -0.0468 0.9542 -0.2956
vn -0.1292 0.9587 -0.2535
vn -0.1848 0.9652 -0.1848
vn -0.2067 0.9727 -0.1053
vn -0.1969 0.9799 -0.0312
vn -0.1969 0.9799 0.0312
vn -0.1357 0.9883 0.0691
vn -0.0787 0.9938 0.0787
vn -0.0352 0.9970 0.0691
vn -0.0087 0.9985 0.0547
vn 0.1786 0.5496 0.8161
vn 0.5026 0.5280 0.6845
vn 0.7391 0.4935 0.4585
vn 0.8661 0.4575 0.2013
vn 0.9014 0.4328 -0.0071
vn 0.8907 0.4277 -0.1539
vn 0.8025 0.4220 -0.4218
vn 0.6362 0.4170 -0.6491
vn 0.4082 0.4131 -0.8141
vn 0.1406 0.4108 -0.9008
vn -0.1406 0.4108 -0.9008
vn -0.4082 0.4131 -0.8141
vn -0.6362 0.4170 -0.6491
vn -0.8025 0.4220 -0.4218
vn -0.8907 0.4277 -0.1539
vn -0.9014 0.4328 -0.0071
vn -0.8661 0.4575 0.2013
vn -0.7391 0.4935 0.4585
vn -0.5026 0.5280 0.6845
vn -0.1786 0.5496 0.8161
vn 0.1051 -0.8443 0.5255
vn 0.3038 -0.8383 0.4527
vn 0.4627 -0.8288 0.3146
vn 0.5542 -0.8199 0.1440
vn 0.5685 -0.8226 0.0157
vn 0.5444 -0.8367 -0.0594
vn 0.4801 -0.8500 -0.2169
vn 0.3725 -0.8619 -0.3439
vn 0.2346 -0.8713 -0.4311
vn 0.0797 -0.8770 -0.4737
vn -0.0797 -0.8770 -0.4738
vn -0.2346 -0.8713 -0.4311
vn -0.3725 -0.8619 -0.3439
vn -0.4801 -0.8500 -0.2169
vn -0.5444 -0.8367 -0.0594
vn -0.5685 -0.8226 0.0157
vn -0.5542 -0.8199 0.1440
vn -0.4627 -0.8288 0.3146
vn -0.3038 -0.8383 0.4527
vn -0.1051 -0.8443 0.5255
vn -0.0142 -0.9994 -0.0301
vn -0.0412 -0.9988 -0.0266
vn -0.0706 -0.9972 -0.0240
vn -0.1078 -0.9940 -0.0159
vn -0.1536 -0.9880 0.0136
vn -0.2176 -0.9740 0.0623
vn -0.2154 -0.9667 0.1378
vn -0.1828 -0.9602 0.2111
vn -0.1221 -0.9556 0.2682
vn -0.0426 -0.9537 0.2978
vn 0.0426 -0.9537 0.2978
vn 0.1221 -0.9556 0.2682
vn 0.1828 -0.9602 0.2111
vn 0.2154 -0.9667 0.1378
vn 0.2176 -0.9740 0.0623
vn 0.1536 -0.9880 0.0136
vn 0.1078 -0.9940 -0.0159
vn 0.0706 -0.9972 -0.0240
vn 0.0412 -0.9988 -0.0266
vn 0.0142 -0.9994 -0.0301
vn 0.0929 -0.8909 0.4446
vn 0.2794 -0.8761 0.3929
vn 0.4737 -0.8308 0.2923
vn 0.6663 -0.7327 0.1389
vn 0.8206 -0.5712 -0.0176
vn 0.8946 -0.4238 -0.1417
vn 0.8070 -0.4238 -0.4112
vn 0.6405 -0.4238 -0.6405
vn 0.4112 -0.4238 -0.8070
vn 0.1417 -0.4238 -0.8946
vn -0.1417 -0.4238 -0.8946
vn -0.4112 -0.4238 -0.8070
vn -0.6405 -0.4238 -0.6405
vn -0.8070 -0.4238 -0.4112
vn -0.8946 -0.4238 -0.1417
vn -0.8206 -0.5712 -0.0176
vn -0.6663 -0.7327 0.1389
vn -0.4737 -0.8308 0.2923
vn -0.2794 -0.8761 0.3929
vn -0.0929 -0.8909 0.4446
vn 0.1208 -0.6355 0.7626
vn 0.3505 -0.6355 0.6879
vn 0.5460 -0.6355 0.5460
vn 0.6879 -0.6355 0.3505
vn 0.7626 -0.6355 0.1208
vn 0.7626 -0.6355 -0.1208
vn 0.6879 -0.6355 -0.3505
vn 0.5460 -0.6355 -0.5460
vn 0.3505 -0.6355 -0.6879
vn 0.1208 -0.6355 -0.7626
vn -0.1208 -0.6355 -0.7626
vn -0.3505 -0.6355 -0.6879
vn -0.5460 -0.6355 -0.5460
vn -0.6879 -0.6355 -0.3505
vn -0.7626 -0.6355 -0.1208
vn -0.7626 -0.6355 0.1208
vn -0.6879 -0.6355 0.3505
vn -0.5460 -0.6355 0.5460
vn -0.3505 -0.6355 0.6879
vn -0.1208 -0.6355 0.7626
vn 0.0707 -0.8922 0.4461
vn 0.2050 -0.8922 0.4024
vn 0.3194 -0.8922 0.3194
vn 0.4024 -0.8922 0.2050
vn 0.4461 -0.8922 0.0707
vn 0.4461 -0.8922 -0.0707
vn 0.4024 -0.8922 -0.2050
vn 0.3194 -0.8922 -0.3194
vn 0.2050 -0.8922 -0.4024
vn 0.0707 -0.8922 -0.4461
vn -0.0707 -0.8922 -0.4461
vn -0.2050 -0.8922 -0.4024
vn -0.3194 -0.8922 -0.3194
vn -0.4024 -0.8922 -0.2050
vn -0.4461 -0.8922 -0.0707
vn -0.4461 -0.8922 0.0707
vn -0.4024 -0.8922 0.2050
vn -0.3194 -0.8922 0.3194
vn -0.2050 -0.8922 0.4024
vn -0.0707 -0.8922 0.4461
vn -0.0000 -1.0000 -0.0000
vn 0.0180 0.9987 0.0471
vn 0.0522 0.9978 0.0406
vn 0.0860 0.9958 0.0322
vn 0.1228 0.9923 0.0177
vn 0.1630 0.9865 -0.0158
vn 0.2203 0.9733 -0.0641
vn 0.2174 0.9660 -0.1402
vn 0.1841 0.9594 -0.2138
vn 0.1228 0.9547 -0.2711
vn 0.0428 0.9528 -0.3007
vn -0.0428 0.9528 -0.3007
vn -0.1228 0.9547 -0.2711
vn -0.1841 0.9594 -0.2138
vn -0.2174 0.9660 -0.1402
vn -0.2203 0.9733 -0.0641
vn -0.1630 0.9865 -0.0158
vn -0.1228 0.9923 0.0177
vn -0.0860 0.9958 0.0322
vn -0.0522 0.9978 0.0406
vn -0.0180 0.9987 0.0471
vn 0.1787 0.5508 0.8153
vn 0.5019 0.5315 0.6823
vn 0.7371 0.4987 0.4560
vn 0.8632 0.4639 0.1993
vn 0.8981 0.4398 -0.0086
vn 0.8925 0.4235 -0.1549
vn 0.8037 0.4183 -0.4232
vn 0.6367 0.4141 -0.6505
vn 0.4082 0.4113 -0.8150
vn 0.1405 0.4101 -0.9011
vn -0.1405 0.4101 -0.9011
vn -0.4082 0.4113 -0.8150
vn -0.6367 0.4141 -0.6505
vn -0.8037 0.4183 -0.4232
vn -0.8925 0.4235 -0.1549
vn -0.8981 0.4398 -0.0086
vn -0.8632 0.4639 0.1993
vn -0.7371 0.4987 0.4560
vn -0.5019 0.5315 0.6823
vn -0.1787 0.5508 0.8153
vn 0.1050 -0.8462 0.5225
vn 0.2999 -0.8440 0.4447
vn 0.4521 -0.8383 0.3048
vn 0.5365 -0.8329 0.1362
vn 0.5453 -0.8381 0.0114
vn 0.5290 -0.8466 -0.0596
vn 0.4659 -0.8590 -0.2124
vn 0.3624 -0.8691 -0.3367
vn 0.2296 -0.8759 -0.4244
vn 0.0788 -0.8786 -0.4710
vn -0.0788 -0.8786 -0.4710
vn -0.2296 -0.8759 -0.4244
vn -0.3624 -0.8691 -0.3367
vn -0.4659 -0.8590 -0.2124
vn -0.5289 -0.8466 -0.0596
vn -0.5453 -0.8381 0.0114
vn -0.5365 -0.8329 0.1362
vn -0.4521 -0.8383 0.3048
vn -0.2999 -0.8440 0.4447
vn -0.1050 -0.8462 0.5225
vn -0.0100 -0.9993 -0.0367
vn -0.0370 -0.9981 -0.0484
vn -0.0766 -0.9953 -0.0590
vn -0.1305 -0.9897 -0.0582
vn -0.1938 -0.9806 -0.0299
vn -0.1938 -0.9806 0.0307
vn -0.2040 -0.9734 0.1039
vn -0.1826 -0.9661 0.1826
vn -0.1278 -0.9596 0.2508
vn -0.0464 -0.9551 0.2927
vn 0.0464 -0.9551 0.2927
vn 0.1278 -0.9596 0.2508
vn 0.1826 -0.9661 0.1826
vn 0.2040 -0.9734 0.1039
vn 0.1938 -0.9806 0.0307
vn 0.1938 -0.9806 -0.0299
vn 0.1305 -0.9897 -0.0582
vn 0.0766 -0.9953 -0.0590
vn 0.0370 -0.9981 -0.0484
vn 0.0100 -0.9993 -0.0367
vn 0.0734 -0.8830 0.4636
vn 0.2413 -0.8470 0.4736
vn 0.4604 -0.7590 0.4604
vn 0.7204 -0.5885 0.3670
vn 0.8946 -0.4238 0.1417
vn -0.8946 -0.4238 0.1417
vn -0.7204 -0.5885 0.3670
vn -0.4604 -0.7590 0.4604
vn -0.2413 -0.8470 0.4736
vn -0.0734 -0.8830 0.4636
f 1//1 20//1 21//1
f 1//2 21//2 22//2
f 1//3 22//3 23//3
f 1//4 23//4 24//4
f 1//5 24//5 25//5
f 1//6 25//6 26//6
f 1//7 26//7 27//7
f 1//8 27//8 28//8
f 1//9 28//9 29//9
f 1//10 29//10 30//10
f 1//11 30//11 31//11
f 1//12 31//12 32//12
f 1//13 32//13 33//13
f 1//14 33//14 34//14
f 1//15 34//15 35//15
f 1//16 35//16 36//16
f 1//17 36//17 37//17
f 1//18 37//18 38//18
f 1//19 38//19 39//19
f 1//20 39//20 20//20
f 40//21 21//21 20//21
f 41//22 22//22 21//22
f 42//23 23//23 22//23
f 23//24 44//24 24//24
f 24//25 45//25 25//25
f 45//26 26//26 25//26
f 46//27 27//27 26//27
f 27//28 48//28 28//28
f 48//29 29//29 28//29
f 49//30 30//30 29//30
f 50//31 31//31 30//31
f 51//32 32//32 31//32
f 52//33 33//33 32//33
f 33//34 54//34 34//34
f 34//35 55//35 35//35
f 55//36 36//36 35//36
f 56//37 37//37 36//37
f 37//38 58//38 38//38
f 58//39 39//39 38//39
f 59//40 20//40 39//40
f 40//41 61//41 41//41
f 61//42 42//42 41//42
f 62//43 43//43 42//43
f 63//44 44//44 43//44
f 64//45 45//45 44//45
f 65//46 46//46 45//46
f 46//47 67//47 47//47
f 67//48 48//48 47//48
f 68//49 49//49 48//49
f 69//50 50//50 49//50
f 50//51 71//51 51//51
f 71//52 52//52 51//52
f 72//53 53//53 52//53
f 73//54 54//54 53//54
f 74//55 55//55 54//55
f 75//56 56//56 55//56
f 56//57 77//57 57//57
f 77//58 58//58 57//58
f 78//59 59//59 58//59
f 79//60 40//60 59//60
f 80//61 61//61 60//61
f 81//62 62//62 61//62
f 82//63 63//63 62//63
f 83//64 64//64 63//64
f 84//65 65//65 64//65
f 85//66 66//66 65//66
f 66//67 87//67 67//67
f 87//68 68//68 67//68
f 88//69 69//69 68//69
f 89//70 70//70 69//70
f 90//71 71//71 70//71
f 91//72 72//72 71//72
f 92//73 73//73 72//73
f 93//74 74//74 73//74
f 94//75 75//75 74//75
f 95//76 76//76 75//76
f 76//77 97//77 77//77
f 97//78 78//78 77//78
f 98//79 79//79 78//79
f 99//80 60//80 79//80
f 100//81 81//81 80//81
f 101//82 82//82 81//82
f 102//83 83//83 82//83
f 103//84 84//84 83//84
f 104//85 85//85 84//85
f 105//86 86//86 85//86
f 106//87 87//87 86//87
f 107//88 88//88 87//88
f 108//89 89//89 88//89
f 109//90 90//90 89//90
f 110//91 91//91 90//91
f 111//92 92//92 91//92
f 112//93 93//93 92//93
f 113//94 94//94 93//94
f 114//95 95//95 94//95
f 115//96 96//96 95//96
f 116//97 97//97 96//97
f 117//98 98//98 97//98
f 118//99 99//99 98//99
f 119//100 80//100 99//100
f 100//101 121//101 101//101
f 101//102 122//102 102//102
f 102//103 123//103 103//103
f 103//104 124//104 104//104
f 104//105 125//105 105//105
f 125//106 106//106 105//106
f 126//107 107//107 106//107
f 127//108 108//108 107//108
f 128//109 109//109 108//109
f 129//110 110//110 109//110
f 110//111 131//111 111//111
f 111//112 132//112 112//112
f 112//113 133//113 113//113
f 113//114 134//114 114//114
f 114//115 135//115 115//115
f 135//116 116//116 115//116
f 136//117 117//117 116//117
f 137//118 118//118 117//118
f 138//119 119//119 118//119
f 139//120 100//120 119//120
f 120//121 141//121 121//121
f 121//122 142//122 122//122
f 122//123 143//123 123//123
f 123//124 144//124 124//124
f 124//125 145//125 125//125
f 145//126 126//126 125//126
f 146//127 127//127 126//127
f 147//128 128//128 127//128
f 148//129 129//129 128//129
f 149//130 130//130 129//130
f 130//131 151//131 131//131
f 131//132 152//132 132//132
f 132//133 153//133 133//133
f 133//134 154//134 134//134
f 134//135 155//135 135//135
f 155//136 136//136 135//136
f 156//137 137//137 136//137
f 157//138 138//138 137//138
f 158//139 139//139 138//139
f 159//140 120//140 139//140
f 160//141 141//141 140//141
f 161//142 142//142 141//142
f 162//143 143//143 142//143
f 163//144 144//144 143//144
f 164//145 145//145 144//145
f 165//146 146//146 145//146
f 166//147 147//147 146//147
f 167//148 148//148 147//148
f 168//149 149//149 148//149
f 169//150 150//150 149//150
f 150//151 171//151 151//151
f 151//152 172//152 152//152
f 152//153 173//153 153//153
f 153//154 174//154 154//154
f 154//155 175//155 155//155
f 155//156 176//156 156//156
f 156//157 177//157 157//157
f 157//158 178//158 158//158
f 158//159 179//159 159//159
f 159//160 160//160 140//160
f 180//161 161//161 160//161
f 181//162 162//162 161//162
f 182//163 163//163 162//163
f 183//164 164//164 163//164
f 184//165 165//165 164//165
f 165//166 186//166 166//166
f 166//167 187//167 167//167
f 167//168 188//168 168//168
f 168//169 189//169 169//169
f 169//170 190//170 170//170
f 190//171 171//171 170//171
f 191//172 172//172 171//172
f 192//173 173//173 172//173
f 193//174 174//174 173//174
f 194//175 175//175 174//175
f 175//176 196//176 176//176
f 176//177 197//177 177//177
f 177//178 198//178 178//178
f 178//179 199//179 179//179
f 179//180 180//180 160//180
f 200//181 181//181 180//181
f 201//182 182//182 181//182
f 202//183 183//183 182//183
f 203//184 184//184 183//184
f 204//185 185//185 184//185
f 185//186 206//186 186//186
f 206//187 187//187 186//187
f 187//188 208//188 188//188
f 208//189 189//189 188//189
f 209//190 190//190 189//190
f 210//191 191//191 190//191
f 191//192 212//192 192//192
f 212//193 193//193 192//193
f 213//194 194//194 193//194
f 214//195 195//195 194//195
f 195//196 216//196 196//196
f 196//197 217//197 197//197
f 197//198 218//198 198//198
f 198//199 219//199 199//199
f 199//200 200//200 180//200
f 200//201 221//201 201//201
f 201//202 222//202 202//202
f 222//203 203//203 202//203
f 203//204 224//204 204//204
f 224//205 205//205 204//205
f 205//206 226//206 206//206
f 226//207 207//207 206//207
f 227//208 208//208 207//208
f 228//209 209//209 208//209
f 229//210 210//210 209//210
f 210//211 231//211 211//211
f 211//212 232//212 212//212
f 232//213 213//213 212//213
f 213//214 234//214 214//214
f 234//215 215//215 214//215
f 215//216 236//216 216//216
f 236//217 217//217 216//217
f 237//218 218//218 217//218
f 238//219 219//219 218//219
f 239//220 200//220 219//220
f 240//221 221//221 220//221
f 241//222 222//222 221//222
f 242//223 223//223 222//223
f 243//224 224//224 223//224
f 244//225 225//225 224//225
f 245//226 226//226 225//226
f 246//227 227//227 226//227
f 247//228 228//228 227//228
f 228//229 249//229 229//229
f 229//230 250//230 230//230
f 250//231 231//231 230//231
f 251//232 232//232 231//232
f 252//233 233//233 232//233
f 253//234 234//234 233//234
f 254//235 235//235 234//235
f 255//236 236//236 235//236
f 256//237 237//237 236//237
f 257//238 238//238 237//238
f 238//239 259//239 239//239
f 239//240 240//240 220//240
f 240//241 260//241 241//241
f 241//241 260//241 242//241
f 242//241 260//241 243//241
f 243//241 260//241 244//241
f 244//241 260//241 245//241
f 245//241 260//241 246//241
f 246//241 260//241 247//241
f 247//241 260//241 248//241
f 248//241 260//241 249//241
f 249//241 260//241 250//241
f 250//241 260//241 251//241
f 251//241 260//241 252//241
f 252//241 260//241 253//241
f 253//241 260//241 254//241
f 254//241 260//241 255//241
f 255//241 260//241 256//241
f 256//241 260//241 257//241
f 257//241 260//241 258//241
f 258//241 260//241 259//241
f 259//241 260//241 240//241
f 40//21 41//21 21//21
f 41//22 42//22 22//22
f 42//23 43//23 23//23
f 23//24 43//24 44//24
f 24//25 44//25 45//25
f 45//26 46//26 26//26
f 46//27 47//27 27//27
f 27//28 47//28 48//28
f 48//29 49//29 29//29
f 49//30 50//30 30//30
f 50//31 51//31 31//31
f 51//32 52//32 32//32
f 52//33 53//33 33//33
f 33//34 53//34 54//34
f 34//35 54//35 55//35
f 55//36 56//36 36//36
f 56//37 57//37 37//37
f 37//38 57//38 58//38
f 58//39 59//39 39//39
f 59//40 40//40 20//40
f 40//41 60//41 61//41
f 61//42 62//42 42//42
f 62//43 63//43 43//43
f 63//44 64//44 44//44
f 64//45 65//45 45//45
f 65//46 66//46 46//46
f 46//47 66//47 67//47
f 67//48 68//48 48//48
f 68//49 69//49 49//49
f 69//50 70//50 50//50
f 50//51 70//51 71//51
f 71//52 72//52 52//52
f 72//53 73//53 53//53
f 73//54 74//54 54//54
f 74//55 75//55 55//55
f 75//56 76//56 56//56
f 56//57 76//57 77//57
f 77//58 78//58 58//58
f 78//59 79//59 59//59
f 79//60 60//60 40//60
f 80//61 81//61 61//61
f 81//62 82//62 62//62
f 82//63 83//63 63//63
f 83//64 84//64 64//64
f 84//65 85//65 65//65
f 85//66 86//66 66//66
f 66//67 86//67 87//67
f 87//68 88//68 68//68
f 88//69 89//69 69//69
f 89//70 90//70 70//70
f 90//71 91//71 71//71
f 91//72 92//72 72//72
f 92//73 93//73 73//73
f 93//74 94//74 74//74
f 94//75 95//75 75//75
f 95//76 96//76 76//76
f 76//77 96//77 97//77
f 97//78 98//78 78//78
f 98//79 99//79 79//79
f 99//80 80//80 60//80
f 100//81 101//81 81//81
f 101//82 102//82 82//82
f 102//83 103//83 83//83
f 103//84 104//84 84//84
f 104//85 105//85 85//85
f 105//86 106//86 86//86
f 106//87 107//87 87//87
f 107//88 108//88 88//88
f 108//89 109//89 89//89
f 109//90 110//90 90//90
f 110//91 111//91 91//91
f 111//92 112//92 92//92
f 112//93 113//93 93//93
f 113//94 114//94 94//94
f 114//95 115//95 95//95
f 115//96 116//96 96//96
f 116//97 117//97 97//97
f 117//98 118//98 98//98
f 118//99 119//99 99//99
f 119//100 100//100 80//100
f 100//242 120//242 121//242
f 101//243 121//243 122//243
f 102//244 122//244 123//244
f 103//245 123//245 124//245
f 104//246 124//246 125//246
f 125//247 126//247 106//247
f 126//248 127//248 107//248
f 127//249 128//249 108//249
f 128//250 129//250 109//250
f 129//251 130//251 110//251
f 110//252 130//252 131//252
f 111//253 131//253 132//253
f 112//254 132//254 133//254
f 113//255 133//255 134//255
f 114//256 134//256 135//256
f 135//257 136//257 116//257
f 136//258 137//258 117//258
f 137//259 138//259 118//259
f 138//260 139//260 119//260
f 139//261 120//261 100//261
f 120//262 140//262 141//262
f 121//263 141//263 142//263
f 122//264 142//264 143//264
f 123//265 143//265 144//265
f 124//266 144//266 145//266
f 145//267 146//267 126//267
f 146//268 147//268 127//268
f 147//269 148//269 128//269
f 148//270 149//270 129//270
f 149//271 150//271 130//271
f 130//272 150//272 151//272
f 131//273 151//273 152//273
f 132//274 152//274 153//274
f 133//275 153//275 154//275
f 134//276 154//276 155//276
f 155//277 156//277 136//277
f 156//278 157//278 137//278
f 157//279 158//279 138//279
f 158//280 159//280 139//280
f 159//281 140//281 120//281
f 160//282 161//282 141//282
f 161//283 162//283 142//283
f 162//284 163//284 143//284
f 163//285 164//285 144//285
f 164//286 165//286 145//286
f 165//287 166//287 146//287
f 166//288 167//288 147//288
f 167//289 168//289 148//289
f 168//290 169//290 149//290
f 169//291 170//291 150//291
f 150//292 170//292 171//292
f 151//293 171//293 172//293
f 152//294 172//294 173//294
f 153//295 173//295 174//295
f 154//296 174//296 175//296
f 155//297 175//297 176//297
f 156//298 176//298 177//298
f 157//299 177//299 178//299
f 158//300 178//300 179//300
f 159//301 179//301 160//301
f 180//302 181//302 161//302
f 181//303 182//303 162//303
f 182//304 183//304 163//304
f 183//305 184//305 164//305
f 184//306 185//306 165//306
f 165//307 185//307 186//307
f 166//308 186//308 187//308
f 167//309 187//309 188//309
f 168//310 188//310 189//310
f 169//311 189//311 190//311
f 190//312 191//312 171//312
f 191//313 192//313 172//313
f 192//314 193//314 173//314
f 193//315 194//315 174//315
f 194//316 195//316 175//316
f 175//317 195//317 196//317
f 176//318 196//318 197//318
f 177//319 197//319 198//319
f 178//320 198//320 199//320
f 179//321 199//321 180//321
f 200//322 201//322 181//322
f 201//323 202//323 182//323
f 202//324 203//324 183//324
f 203//325 204//325 184//325
f 204//326 205//326 185//326
f 185//186 205//186 206//186
f 206//187 207//187 187//187
f 187//188 207//188 208//188
f 208//189 209//189 189//189
f 209//190 210//190 190//190
f 210//191 211//191 191//191
f 191//192 211//192 212//192
f 212//193 213//193 193//193
f 213//194 214//194 194//194
f 214//195 215//195 195//195
f 195//327 215//327 216//327
f 196//328 216//328 217//328
f 197//329 217//329 218//329
f 198//330 218//330 219//330
f 199//331 219//331 200//331
f 200//201 220//201 221//201
f 201//202 221//202 222//202
f 222//203 223//203 203//203
f 203//204 223//204 224//204
f 224//205 225//205 205//205
f 205//206 225//206 226//206
f 226//207 227//207 207//207
f 227//208 228//208 208//208
f 228//209 229//209 209//209
f 229//210 230//210 210//210
f 210//211 230//211 231//211
f 211//212 231//212 232//212
f 232//213 233//213 213//213
f 213//214 233//214 234//214
f 234//215 235//215 215//215
f 215//216 235//216 236//216
f 236//217 237//217 217//217
f 237//218 238//218 218//218
f 238//219 239//219 219//219
f 239//220 220//220 200//220
f 240//221 241//221 221//221
f 241//222 242//222 222//222
f 242//223 243//223 223//223
f 243//224 244//224 224//224
f 244//225 245//225 225//225
f 245//226 246//226 226//226
f 246//227 247//227 227//227
f 247//228 248//228 228//228
f 228//229 248//229 249//229
f 229//230 249//230 250//230
f 250//231 251//231 231//231
f 251//232 252//232 232//232
f 252//233 253//233 233//233
f 253//234 254//234 234//234
f 254//235 255//235 235//235
f 255//236 256//236 236//236
f 256//237 257//237 237//237
f 257//238 258//238 238//238
f 238//239 258//239 259//239
f 239//240 259//240 240//240
