# deckhand: creel.  Loom axes -- metres, Y up, forward -Z.
# Generated by build_deckhand.py; never edit this file.
# Blender 5.2.0 LTS
# www.blender.org
v 0.120400 -0.115000 0.000000
v 0.111153 -0.115000 0.053833
v 0.081920 -0.115000 0.073043
v 0.000000 -0.115000 0.079120
v -0.081920 -0.115000 0.073043
v -0.111153 -0.115000 0.053833
v -0.120400 -0.115000 0.000000
v -0.111153 -0.115000 -0.053833
v -0.081920 -0.115000 -0.073043
v -0.000000 -0.115000 -0.079120
v 0.081920 -0.115000 -0.073043
v 0.111153 -0.115000 -0.053833
v 0.140000 -0.040250 0.000000
v 0.129248 -0.040250 0.062596
v 0.095255 -0.040250 0.084934
v 0.000000 -0.040250 0.092000
v -0.095255 -0.040250 0.084934
v -0.129248 -0.040250 0.062596
v -0.140000 -0.040250 0.000000
v -0.129248 -0.040250 -0.062596
v -0.095255 -0.040250 -0.084934
v -0.000000 -0.040250 -0.092000
v 0.095255 -0.040250 -0.084934
v 0.129248 -0.040250 -0.062596
v 0.140000 0.071300 0.000000
v 0.129248 0.071300 0.062596
v 0.095255 0.071300 0.084934
v 0.000000 0.071300 0.092000
v -0.095255 0.071300 0.084934
v -0.129248 0.071300 0.062596
v -0.140000 0.071300 0.000000
v -0.129248 0.071300 -0.062596
v -0.095255 0.071300 -0.084934
v -0.000000 0.071300 -0.092000
v 0.095255 0.071300 -0.084934
v 0.129248 0.071300 -0.062596
v 0.148400 0.071300 0.000000
v 0.135641 0.071300 0.063234
v 0.096225 0.071300 0.089135
v 0.000000 0.071300 0.097520
v -0.096225 0.071300 0.089135
v -0.135641 0.071300 0.063234
v -0.148400 0.071300 0.000000
v -0.135641 0.071300 -0.063234
v -0.096225 0.071300 -0.089135
v -0.000000 0.071300 -0.097520
v 0.096225 0.071300 -0.089135
v 0.135641 0.071300 -0.063234
v 0.148400 0.096600 0.000000
v 0.135641 0.096600 0.063234
v 0.096225 0.096600 0.089135
v 0.000000 0.096600 0.097520
v -0.096225 0.096600 0.089135
v -0.135641 0.096600 0.063234
v -0.148400 0.096600 0.000000
v -0.135641 0.096600 -0.063234
v -0.096225 0.096600 -0.089135
v -0.000000 0.096600 -0.097520
v 0.096225 0.096600 -0.089135
v 0.135641 0.096600 -0.063234
v 0.128800 0.115000 0.000000
v 0.117726 0.115000 0.053689
v 0.083516 0.115000 0.075681
v 0.000000 0.115000 0.082800
v -0.083516 0.115000 0.075681
v -0.117726 0.115000 0.053689
v -0.128800 0.115000 0.000000
v -0.117726 0.115000 -0.053689
v -0.083516 0.115000 -0.075681
v -0.000000 0.115000 -0.082800
v 0.083516 0.115000 -0.075681
v 0.117726 0.115000 -0.053689
v 0.026000 -0.023000 0.000000
v 0.000052 -0.023000 0.109200
v -0.026000 -0.023000 0.000243
v -0.000062 -0.023000 -0.109200
v 0.026000 0.109250 0.000000
v 0.000052 0.109250 0.109200
v -0.026000 0.109250 0.000243
v -0.000062 0.109250 -0.109200
vn 0.9542 -0.2502 0.1639
vn 0.5351 -0.2250 0.8143
vn 0.0729 -0.1694 0.9829
vn -0.0729 -0.1694 0.9829
vn -0.5351 -0.2250 0.8143
vn -0.9542 -0.2502 0.1639
vn -0.9542 -0.2502 -0.1639
vn -0.5351 -0.2250 -0.8143
vn -0.0729 -0.1694 -0.9829
vn 0.0729 -0.1694 -0.9829
vn 0.5351 -0.2250 -0.8143
vn 0.9542 -0.2502 -0.1639
vn 0.9856 -0.0000 0.1693
vn 0.5492 -0.0000 0.8357
vn 0.0740 -0.0000 0.9973
vn -0.0740 -0.0000 0.9973
vn -0.5492 -0.0000 0.8357
vn -0.9856 -0.0000 0.1693
vn -0.9856 -0.0000 -0.1693
vn -0.5492 -0.0000 -0.8357
vn -0.0740 -0.0000 -0.9973
vn 0.0740 -0.0000 -0.9973
vn 0.5492 -0.0000 -0.8357
vn 0.9856 -0.0000 -0.1693
vn -0.0000 -1.0000 -0.0000
vn -0.0000 1.0000 -0.0000
vn 0.9802 -0.0000 0.1978
vn 0.0868 -0.0000 0.9962
vn -0.0868 -0.0000 0.9962
vn -0.9802 -0.0000 0.1978
vn -0.9802 -0.0000 -0.1978
vn -0.0868 -0.0000 -0.9962
vn 0.0868 -0.0000 -0.9962
vn 0.9802 -0.0000 -0.1978
vn 0.6737 0.7264 0.1359
vn 0.3945 0.6956 0.6004
vn 0.0682 0.6191 0.7823
vn -0.0682 0.6191 0.7823
vn -0.3945 0.6956 0.6004
vn -0.6737 0.7264 0.1359
vn -0.6737 0.7264 -0.1359
vn -0.3945 0.6956 -0.6004
vn -0.0682 0.6191 -0.7823
vn 0.0682 0.6191 -0.7823
vn 0.3945 0.6956 -0.6004
vn 0.6737 0.7264 -0.1359
vn 0.9729 -0.0000 0.2312
vn -0.9726 -0.0000 0.2325
vn -0.9730 -0.0000 -0.2306
vn 0.9727 -0.0000 -0.2321
vn 0.6777 0.7219 0.1398
vn 0.3846 0.7030 0.5982
vn 0.0664 0.6233 0.7791
vn -0.0664 0.6233 0.7791
vn -0.3846 0.7030 0.5982
vn -0.6777 0.7219 0.1398
vn -0.6777 0.7219 -0.1398
vn -0.3846 0.7030 -0.5982
vn -0.0664 0.6233 -0.7791
vn 0.0664 0.6233 -0.7791
vn 0.3846 0.7030 -0.5982
vn 0.6777 0.7219 -0.1398
f 13//1 2//1 1//1
f 2//2 15//2 3//2
f 3//3 16//3 4//3
f 16//4 5//4 4//4
f 17//5 6//5 5//5
f 6//6 19//6 7//6
f 19//7 8//7 7//7
f 8//8 21//8 9//8
f 9//9 22//9 10//9
f 22//10 11//10 10//10
f 23//11 12//11 11//11
f 12//12 13//12 1//12
f 25//13 14//13 13//13
f 26//14 15//14 14//14
f 27//15 16//15 15//15
f 28//16 17//16 16//16
f 29//17 18//17 17//17
f 30//18 19//18 18//18
f 31//19 20//19 19//19
f 32//20 21//20 20//20
f 33//21 22//21 21//21
f 34//22 23//22 22//22
f 35//23 24//23 23//23
f 36//24 13//24 24//24
f 1//25 4//25 10//25
f 25//26 34//26 28//26
f 49//27 38//27 37//27
f 50//14 39//14 38//14
f 51//28 40//28 39//28
f 52//29 41//29 40//29
f 53//17 42//17 41//17
f 54//30 43//30 42//30
f 55//31 44//31 43//31
f 56//20 45//20 44//20
f 57//32 46//32 45//32
f 58//33 47//33 46//33
f 59//23 48//23 47//23
f 60//34 37//34 48//34
f 49//35 62//35 50//35
f 62//36 51//36 50//36
f 63//37 52//37 51//37
f 52//38 65//38 53//38
f 53//39 66//39 54//39
f 66//40 55//40 54//40
f 55//41 68//41 56//41
f 68//42 57//42 56//42
f 69//43 58//43 57//43
f 58//44 71//44 59//44
f 59//45 72//45 60//45
f 72//46 49//46 60//46
f 41//25 43//25 45//25
f 61//26 71//26 63//26
f 77//47 74//47 73//47
f 78//48 75//48 74//48
f 79//49 76//49 75//49
f 80//50 73//50 76//50
f 73//25 75//25 76//25
f 77//26 79//26 78//26
f 13//1 14//1 2//1
f 2//2 14//2 15//2
f 3//3 15//3 16//3
f 16//4 17//4 5//4
f 17//5 18//5 6//5
f 6//6 18//6 19//6
f 19//7 20//7 8//7
f 8//8 20//8 21//8
f 9//9 21//9 22//9
f 22//10 23//10 11//10
f 23//11 24//11 12//11
f 12//12 24//12 13//12
f 25//13 26//13 14//13
f 26//14 27//14 15//14
f 27//15 28//15 16//15
f 28//16 29//16 17//16
f 29//17 30//17 18//17
f 30//18 31//18 19//18
f 31//19 32//19 20//19
f 32//20 33//20 21//20
f 33//21 34//21 22//21
f 34//22 35//22 23//22
f 35//23 36//23 24//23
f 36//24 25//24 13//24
f 12//25 1//25 11//25
f 1//25 2//25 3//25
f 4//25 1//25 3//25
f 4//25 5//25 7//25
f 5//25 6//25 7//25
f 7//25 8//25 9//25
f 4//25 7//25 10//25
f 9//25 10//25 7//25
f 10//25 11//25 1//25
f 26//26 25//26 27//26
f 25//26 36//26 35//26
f 34//26 25//26 35//26
f 34//26 33//26 31//26
f 33//26 32//26 31//26
f 31//26 30//26 29//26
f 34//26 31//26 28//26
f 29//26 28//26 31//26
f 28//26 27//26 25//26
f 49//27 50//27 38//27
f 50//14 51//14 39//14
f 51//28 52//28 40//28
f 52//29 53//29 41//29
f 53//17 54//17 42//17
f 54//30 55//30 43//30
f 55//31 56//31 44//31
f 56//20 57//20 45//20
f 57//32 58//32 46//32
f 58//33 59//33 47//33
f 59//23 60//23 48//23
f 60//34 49//34 37//34
f 49//51 61//51 62//51
f 62//52 63//52 51//52
f 63//53 64//53 52//53
f 52//54 64//54 65//54
f 53//55 65//55 66//55
f 66//56 67//56 55//56
f 55//57 67//57 68//57
f 68//58 69//58 57//58
f 69//59 70//59 58//59
f 58//60 70//60 71//60
f 59//61 71//61 72//61
f 72//62 61//62 49//62
f 48//25 37//25 47//25
f 37//25 38//25 39//25
f 47//25 39//25 40//25
f 37//25 39//25 47//25
f 40//25 41//25 45//25
f 41//25 42//25 43//25
f 43//25 44//25 45//25
f 45//25 46//25 40//25
f 46//25 47//25 40//25
f 62//26 61//26 63//26
f 61//26 72//26 71//26
f 71//26 70//26 63//26
f 70//26 69//26 65//26
f 69//26 68//26 67//26
f 65//26 67//26 66//26
f 69//26 67//26 65//26
f 65//26 64//26 70//26
f 64//26 63//26 70//26
f 77//47 78//47 74//47
f 78//48 79//48 75//48
f 79//49 80//49 76//49
f 80//50 77//50 73//50
f 73//25 74//25 75//25
f 77//26 80//26 79//26
