# deckhand: hand.  Loom axes -- metres, Y up, forward -Z.
# Generated by build_deckhand.py; never edit this file.
# Blender 5.2.0 LTS
# www.blender.org
v 0.038000 0.063000 0.000000
v 0.032993 0.063000 0.023857
v 0.017369 0.063000 0.032881
v -0.017369 0.063000 0.032881
v -0.032993 0.063000 0.023857
v -0.038000 0.063000 0.000000
v -0.032993 0.063000 -0.023857
v -0.017369 0.063000 -0.032881
v 0.017369 0.063000 -0.032881
v 0.032993 0.063000 -0.023857
v 0.052000 0.030000 0.000000
v 0.045148 0.030000 0.028769
v 0.023768 0.030000 0.039651
v -0.023768 0.030000 0.039651
v -0.045148 0.030000 0.028769
v -0.052000 0.030000 0.000000
v -0.045148 0.030000 -0.028769
v -0.023768 0.030000 -0.039651
v 0.023768 0.030000 -0.039651
v 0.045148 0.030000 -0.028769
v 0.055000 -0.010000 0.000000
v 0.047753 -0.010000 0.030173
v 0.025139 -0.010000 0.041585
v -0.025139 -0.010000 0.041585
v -0.047753 -0.010000 0.030173
v -0.055000 -0.010000 0.000000
v -0.047753 -0.010000 -0.030173
v -0.025139 -0.010000 -0.041585
v 0.025139 -0.010000 -0.041585
v 0.047753 -0.010000 -0.030173
v 0.048000 -0.045000 0.000000
v 0.041675 -0.045000 0.026664
v 0.021940 -0.045000 0.036750
v -0.021940 -0.045000 0.036750
v -0.041675 -0.045000 0.026664
v -0.048000 -0.045000 0.000000
v -0.041675 -0.045000 -0.026664
v -0.021940 -0.045000 -0.036750
v 0.021940 -0.045000 -0.036750
v 0.041675 -0.045000 -0.026664
v 0.026000 -0.063000 0.000000
v 0.022574 -0.063000 0.016841
v 0.011884 -0.063000 0.023210
v -0.011884 -0.063000 0.023210
v -0.022574 -0.063000 0.016841
v -0.026000 -0.063000 0.000000
v -0.022574 -0.063000 -0.016841
v -0.011884 -0.063000 -0.023210
v 0.011884 -0.063000 -0.023210
v 0.022574 -0.063000 -0.016841
v 0.014000 0.004000 -0.014000
v 0.009899 0.013899 -0.014000
v 0.000000 0.018000 -0.014000
v -0.009899 0.013899 -0.014000
v -0.014000 0.004000 -0.014000
v -0.009899 -0.005899 -0.014000
v -0.000000 -0.010000 -0.014000
v 0.009899 -0.005899 -0.014000
v 0.019000 0.004000 -0.038000
v 0.013435 0.017435 -0.038000
v 0.000000 0.023000 -0.038000
v -0.013435 0.017435 -0.038000
v -0.019000 0.004000 -0.038000
v -0.013435 -0.009435 -0.038000
v -0.000000 -0.015000 -0.038000
v 0.013435 -0.009435 -0.038000
v 0.013000 0.004000 -0.058000
v 0.009192 0.013192 -0.058000
v 0.000000 0.017000 -0.058000
v -0.009192 0.013192 -0.058000
v -0.013000 0.004000 -0.058000
v -0.009192 -0.005192 -0.058000
v -0.000000 -0.009000 -0.058000
v 0.009192 -0.005192 -0.058000
vn 0.8992 0.3815 0.2142
vn 0.4345 0.2871 0.8537
vn -0.0000 0.2010 0.9796
vn -0.4823 0.2648 0.8350
vn -0.9115 0.3642 0.1913
vn -0.8992 0.3815 -0.2142
vn -0.4345 0.2871 -0.8537
vn -0.0000 0.2010 -0.9796
vn 0.4823 0.2648 -0.8350
vn 0.9115 0.3642 -0.1913
vn 0.9702 0.0728 0.2311
vn 0.4497 0.0605 0.8911
vn -0.0000 0.0483 0.9988
vn -0.4528 0.0585 0.8897
vn -0.9699 0.0713 0.2329
vn -0.9702 0.0728 -0.2311
vn -0.4497 0.0605 -0.8911
vn -0.0000 0.0483 -0.9988
vn 0.4528 0.0585 -0.8897
vn 0.9699 0.0713 -0.2329
vn 0.9551 -0.1910 0.2265
vn 0.4443 -0.1654 0.8805
vn -0.0000 -0.1369 0.9906
vn -0.4490 -0.1624 0.8786
vn -0.9549 -0.1888 0.2293
vn -0.9551 -0.1910 -0.2265
vn -0.4443 -0.1654 -0.8805
vn -0.0000 -0.1369 -0.9906
vn 0.4490 -0.1624 -0.8786
vn 0.9549 -0.1888 -0.2293
vn 0.6280 -0.7676 0.1278
vn 0.3268 -0.6958 0.6395
vn -0.0000 -0.6011 0.7992
vn -0.3744 -0.6818 0.6284
vn -0.6358 -0.7570 0.1508
vn -0.6280 -0.7676 -0.1278
vn -0.3268 -0.6958 -0.6395
vn -0.0000 -0.6011 -0.7992
vn 0.3744 -0.6818 -0.6284
vn 0.6358 -0.7570 -0.1508
vn -0.0000 1.0000 -0.0000
vn -0.0000 -1.0000 -0.0000
vn 0.9072 0.3758 0.1890
vn 0.3758 0.9072 0.1890
vn -0.3758 0.9072 0.1890
vn -0.9072 0.3758 0.1890
vn -0.9072 -0.3758 0.1890
vn -0.3758 -0.9072 0.1890
vn 0.3758 -0.9072 0.1890
vn 0.9072 -0.3758 0.1890
vn 0.8903 0.3688 -0.2671
vn 0.3688 0.8903 -0.2671
vn -0.3688 0.8903 -0.2671
vn -0.8903 0.3688 -0.2671
vn -0.8903 -0.3688 -0.2671
vn -0.3688 -0.8903 -0.2671
vn 0.3688 -0.8903 -0.2671
vn 0.8903 -0.3688 -0.2671
vn -0.0000 -0.0000 1.0000
vn -0.0000 -0.0000 -1.0000
vn 0.9115 0.3642 0.1913
vn 0.4823 0.2648 0.8350
vn -0.4345 0.2871 0.8537
vn -0.8992 0.3815 0.2142
vn -0.9115 0.3642 -0.1913
vn -0.4823 0.2648 -0.8350
vn 0.4345 0.2871 -0.8537
vn 0.8992 0.3815 -0.2142
vn 0.9699 0.0713 0.2329
vn 0.4528 0.0585 0.8897
vn -0.4497 0.0605 0.8911
vn -0.9702 0.0728 0.2311
vn -0.9699 0.0713 -0.2329
vn -0.4528 0.0585 -0.8897
vn 0.4497 0.0605 -0.8911
vn 0.9702 0.0728 -0.2311
vn 0.9549 -0.1888 0.2293
vn 0.4490 -0.1624 0.8786
vn -0.4443 -0.1654 0.8805
vn -0.9551 -0.1910 0.2265
vn -0.9549 -0.1888 -0.2293
vn -0.4490 -0.1624 -0.8786
vn 0.4443 -0.1654 -0.8805
vn 0.9551 -0.1910 -0.2265
vn 0.6358 -0.7570 0.1508
vn 0.3744 -0.6818 0.6284
vn -0.3268 -0.6958 0.6395
vn -0.6280 -0.7676 0.1278
vn -0.6358 -0.7570 -0.1508
vn -0.3744 -0.6818 -0.6284
vn 0.3268 -0.6958 -0.6395
vn 0.6280 -0.7676 -0.1278
f 1//1 12//1 11//1
f 2//2 13//2 12//2
f 4//3 13//3 3//3
f 5//4 14//4 4//4
f 6//5 15//5 5//5
f 6//6 17//6 16//6
f 7//7 18//7 17//7
f 9//8 18//8 8//8
f 10//9 19//9 9//9
f 1//10 20//10 10//10
f 12//11 21//11 11//11
f 12//12 23//12 22//12
f 14//13 23//13 13//13
f 15//14 24//14 14//14
f 15//15 26//15 25//15
f 17//16 26//16 16//16
f 17//17 28//17 27//17
f 19//18 28//18 18//18
f 20//19 29//19 19//19
f 20//20 21//20 30//20
f 21//21 32//21 31//21
f 23//22 32//22 22//22
f 24//23 33//23 23//23
f 24//24 35//24 34//24
f 26//25 35//25 25//25
f 26//26 37//26 36//26
f 28//27 37//27 27//27
f 29//28 38//28 28//28
f 29//29 40//29 39//29
f 21//30 40//30 30//30
f 31//31 42//31 41//31
f 33//32 42//32 32//32
f 34//33 43//33 33//33
f 34//34 45//34 44//34
f 36//35 45//35 35//35
f 36//36 47//36 46//36
f 38//37 47//37 37//37
f 39//38 48//38 38//38
f 39//39 50//39 49//39
f 31//40 50//40 40//40
f 8//41 6//41 4//41
f 48//42 41//42 46//42
f 59//43 52//43 51//43
f 60//44 53//44 52//44
f 61//45 54//45 53//45
f 62//46 55//46 54//46
f 63//47 56//47 55//47
f 64//48 57//48 56//48
f 65//49 58//49 57//49
f 66//50 51//50 58//50
f 67//51 60//51 59//51
f 68//52 61//52 60//52
f 69//53 62//53 61//53
f 70//54 63//54 62//54
f 71//55 64//55 63//55
f 72//56 65//56 64//56
f 73//57 66//57 65//57
f 74//58 59//58 66//58
f 57//59 58//59 54//59
f 72//60 70//60 68//60
f 1//61 2//61 12//61
f 2//62 3//62 13//62
f 4//3 14//3 13//3
f 5//63 15//63 14//63
f 6//64 16//64 15//64
f 6//65 7//65 17//65
f 7//66 8//66 18//66
f 9//8 19//8 18//8
f 10//67 20//67 19//67
f 1//68 11//68 20//68
f 12//69 22//69 21//69
f 12//70 13//70 23//70
f 14//13 24//13 23//13
f 15//71 25//71 24//71
f 15//72 16//72 26//72
f 17//73 27//73 26//73
f 17//74 18//74 28//74
f 19//18 29//18 28//18
f 20//75 30//75 29//75
f 20//76 11//76 21//76
f 21//77 22//77 32//77
f 23//78 33//78 32//78
f 24//23 34//23 33//23
f 24//79 25//79 35//79
f 26//80 36//80 35//80
f 26//81 27//81 37//81
f 28//82 38//82 37//82
f 29//28 39//28 38//28
f 29//83 30//83 40//83
f 21//84 31//84 40//84
f 31//85 32//85 42//85
f 33//86 43//86 42//86
f 34//33 44//33 43//33
f 34//87 35//87 45//87
f 36//88 46//88 45//88
f 36//89 37//89 47//89
f 38//90 48//90 47//90
f 39//38 49//38 48//38
f 39//91 40//91 50//91
f 31//92 41//92 50//92
f 2//41 1//41 3//41
f 1//41 10//41 9//41
f 3//41 9//41 8//41
f 1//41 9//41 3//41
f 8//41 7//41 6//41
f 6//41 5//41 4//41
f 4//41 3//41 8//41
f 50//42 41//42 49//42
f 41//42 42//42 43//42
f 44//42 41//42 43//42
f 44//42 45//42 46//42
f 46//42 47//42 48//42
f 48//42 49//42 41//42
f 41//42 44//42 46//42
f 59//43 60//43 52//43
f 60//44 61//44 53//44
f 61//45 62//45 54//45
f 62//46 63//46 55//46
f 63//47 64//47 56//47
f 64//48 65//48 57//48
f 65//49 66//49 58//49
f 66//50 59//50 51//50
f 67//51 68//51 60//51
f 68//52 69//52 61//52
f 69//53 70//53 62//53
f 70//54 71//54 63//54
f 71//55 72//55 64//55
f 72//56 73//56 65//56
f 73//57 74//57 66//57
f 74//58 67//58 59//58
f 58//59 51//59 54//59
f 51//59 52//59 54//59
f 52//59 53//59 54//59
f 54//59 55//59 56//59
f 56//59 57//59 54//59
f 68//60 67//60 74//60
f 74//60 73//60 68//60
f 73//60 72//60 68//60
f 72//60 71//60 70//60
f 70//60 69//60 68//60
