# deckhand: boot.  Loom axes -- metres, Y up, forward -Z.
# Generated by build_deckhand.py; never edit this file.
# Blender 5.2.0 LTS
# www.blender.org
v 0.055000 0.013000 0.115000
v 0.048891 0.042030 0.115000
v 0.028643 0.050928 0.115000
v -0.028643 0.050928 0.115000
v -0.048891 0.042030 0.115000
v -0.055000 0.013000 0.115000
v -0.048891 -0.016030 0.115000
v -0.028643 -0.024928 0.115000
v 0.028643 -0.024928 0.115000
v 0.048891 -0.016030 0.115000
v 0.078000 0.019000 0.070000
v 0.069336 0.056963 0.070000
v 0.040621 0.068598 0.070000
v -0.040621 0.068598 0.070000
v -0.069336 0.056963 0.070000
v -0.078000 0.019000 0.070000
v -0.069336 -0.018963 0.070000
v -0.040621 -0.030598 0.070000
v 0.040621 -0.030598 0.070000
v 0.069336 -0.018963 0.070000
v 0.084000 0.022000 0.020000
v 0.074670 0.063685 0.020000
v 0.043746 0.076460 0.020000
v -0.043746 0.076460 0.020000
v -0.074670 0.063685 0.020000
v -0.084000 0.022000 0.020000
v -0.074670 -0.019685 0.020000
v -0.043746 -0.032460 0.020000
v 0.043746 -0.032460 0.020000
v 0.074670 -0.019685 0.020000
v 0.082000 0.009000 -0.040000
v 0.072892 0.041008 -0.040000
v 0.042704 0.050818 -0.040000
v -0.042704 0.050818 -0.040000
v -0.072892 0.041008 -0.040000
v -0.082000 0.009000 -0.040000
v -0.072892 -0.023008 -0.040000
v -0.042704 -0.032818 -0.040000
v 0.042704 -0.032818 -0.040000
v 0.072892 -0.023008 -0.040000
v 0.072000 -0.013000 -0.095000
v 0.064003 0.001143 -0.095000
v 0.037496 0.005478 -0.095000
v -0.037496 0.005478 -0.095000
v -0.064003 0.001143 -0.095000
v -0.072000 -0.013000 -0.095000
v -0.064003 -0.027143 -0.095000
v -0.037496 -0.031478 -0.095000
v 0.037496 -0.031478 -0.095000
v 0.064003 -0.027143 -0.095000
v 0.046000 -0.018000 -0.135000
v 0.040891 -0.012045 -0.135000
v 0.023956 -0.010220 -0.135000
v -0.023956 -0.010220 -0.135000
v -0.040891 -0.012045 -0.135000
v -0.046000 -0.018000 -0.135000
v -0.040891 -0.023955 -0.135000
v -0.023956 -0.025780 -0.135000
v 0.023956 -0.025780 -0.135000
v 0.040891 -0.023955 -0.135000
v 0.061000 -0.034000 0.115000
v 0.055517 -0.029262 0.115000
v 0.036196 -0.028132 0.115000
v -0.036196 -0.028132 0.115000
v -0.055517 -0.029262 0.115000
v -0.061000 -0.034000 0.115000
v -0.055517 -0.038738 0.115000
v -0.036196 -0.039868 0.115000
v 0.036196 -0.039868 0.115000
v 0.055517 -0.038738 0.115000
v 0.084000 -0.034000 0.070000
v 0.076449 -0.029262 0.070000
v 0.049843 -0.028132 0.070000
v -0.049843 -0.028132 0.070000
v -0.076449 -0.029262 0.070000
v -0.084000 -0.034000 0.070000
v -0.076449 -0.038738 0.070000
v -0.049843 -0.039868 0.070000
v 0.049843 -0.039868 0.070000
v 0.076449 -0.038738 0.070000
v 0.090000 -0.034000 0.020000
v 0.081910 -0.029262 0.020000
v 0.053403 -0.028132 0.020000
v -0.053403 -0.028132 0.020000
v -0.081910 -0.029262 0.020000
v -0.090000 -0.034000 0.020000
v -0.081910 -0.038738 0.020000
v -0.053403 -0.039868 0.020000
v 0.053403 -0.039868 0.020000
v 0.081910 -0.038738 0.020000
v 0.088000 -0.034000 -0.040000
v 0.080089 -0.029262 -0.040000
v 0.052217 -0.028132 -0.040000
v -0.052217 -0.028132 -0.040000
v -0.080089 -0.029262 -0.040000
v -0.088000 -0.034000 -0.040000
v -0.080089 -0.038738 -0.040000
v -0.052217 -0.039868 -0.040000
v 0.052217 -0.039868 -0.040000
v 0.080089 -0.038738 -0.040000
v 0.078000 -0.034000 -0.095000
v 0.070988 -0.029262 -0.095000
v 0.046283 -0.028132 -0.095000
v -0.046283 -0.028132 -0.095000
v -0.070988 -0.029262 -0.095000
v -0.078000 -0.034000 -0.095000
v -0.070988 -0.038738 -0.095000
v -0.046283 -0.039868 -0.095000
v 0.046283 -0.039868 -0.095000
v 0.070988 -0.038738 -0.095000
v 0.052000 -0.034000 -0.135000
v 0.047326 -0.029262 -0.135000
v 0.030855 -0.028132 -0.135000
v -0.030855 -0.028132 -0.135000
v -0.047326 -0.029262 -0.135000
v -0.052000 -0.034000 -0.135000
v -0.047326 -0.038738 -0.135000
v -0.030855 -0.039868 -0.135000
v 0.030855 -0.039868 -0.135000
v 0.047326 -0.038738 -0.135000
v 0.084000 0.045000 0.012000
v 0.071364 0.045000 0.067816
v 0.034038 0.045000 0.092819
v -0.034038 0.045000 0.092819
v -0.071364 0.045000 0.067816
v -0.084000 0.045000 0.012000
v -0.071364 0.045000 -0.043816
v -0.034038 0.045000 -0.068819
v 0.034038 0.045000 -0.068819
v 0.071364 0.045000 -0.043816
v 0.090000 0.080000 0.022000
v 0.076461 0.080000 0.081802
v 0.036469 0.080000 0.108592
v -0.036469 0.080000 0.108592
v -0.076461 0.080000 0.081802
v -0.090000 0.080000 0.022000
v -0.076461 0.080000 -0.037802
v -0.036469 0.080000 -0.064592
v 0.036469 0.080000 -0.064592
v 0.076461 0.080000 -0.037802
v 0.104000 0.120000 0.032000
v 0.088355 0.120000 0.101105
v 0.042142 0.120000 0.132062
v -0.042142 0.120000 0.132062
v -0.088355 0.120000 0.101105
v -0.104000 0.120000 0.032000
v -0.088355 0.120000 -0.037105
v -0.042142 0.120000 -0.068062
v 0.042142 0.120000 -0.068062
v 0.088355 0.120000 -0.037105
v 0.120000 0.155000 0.038000
v 0.101948 0.155000 0.117736
v 0.048625 0.155000 0.153456
v -0.048625 0.155000 0.153456
v -0.101948 0.155000 0.117736
v -0.120000 0.155000 0.038000
v -0.101948 0.155000 -0.041736
v -0.048625 0.155000 -0.077456
v 0.048625 0.155000 -0.077456
v 0.101948 0.155000 -0.041736
vn 0.8655 0.1821 0.4666
vn 0.3646 0.8296 0.4228
vn -0.0000 0.9308 0.3655
vn -0.3646 0.8296 0.4228
vn -0.8655 0.1821 0.4666
vn -0.8897 -0.1872 0.4164
vn -0.3927 -0.8937 0.2171
vn -0.0000 -0.9922 0.1250
vn 0.3927 -0.8937 0.2171
vn 0.8897 -0.1872 0.4164
vn 0.9668 0.2206 0.1292
vn 0.3703 0.9138 0.1668
vn -0.0000 0.9879 0.1553
vn -0.3703 0.9138 0.1668
vn -0.9668 0.2206 0.1292
vn -0.9694 -0.2212 0.1066
vn -0.3749 -0.9253 0.0579
vn -0.0000 -0.9993 0.0372
vn 0.3749 -0.9253 0.0579
vn 0.9694 -0.2212 0.1066
vn 0.9698 0.2171 -0.1108
vn 0.3543 0.8576 -0.3727
vn -0.0000 0.9195 -0.3930
vn -0.3543 0.8576 -0.3727
vn -0.9698 0.2171 -0.1108
vn -0.9757 -0.2184 0.0148
vn -0.3815 -0.9235 0.0398
vn -0.0000 -1.0000 0.0060
vn 0.3815 -0.9235 0.0398
vn 0.9757 -0.2184 0.0148
vn 0.9067 0.2580 -0.3336
vn 0.2398 0.7378 -0.6310
vn -0.0000 0.7716 -0.6361
vn -0.2398 0.7378 -0.6310
vn -0.9067 0.2580 -0.3336
vn -0.9598 -0.2731 -0.0653
vn -0.3090 -0.9508 0.0215
vn -0.0000 -0.9997 -0.0244
vn 0.3090 -0.9508 0.0215
vn 0.9598 -0.2731 -0.0653
vn 0.7374 0.4170 -0.5314
vn 0.1489 0.9103 -0.3862
vn -0.0000 0.9309 -0.3653
vn -0.1489 0.9103 -0.3862
vn -0.7374 0.4170 -0.5314
vn -0.7772 -0.4395 -0.4503
vn -0.1591 -0.9726 -0.1694
vn -0.0000 -0.9900 -0.1410
vn 0.1591 -0.9726 -0.1694
vn 0.7772 -0.4395 -0.4503
vn -0.0000 -0.0000 1.0000
vn -0.0000 -0.0000 -1.0000
vn 0.6255 0.7239 0.2910
vn 0.0584 0.9981 0.0177
vn -0.0000 1.0000 -0.0000
vn -0.0584 0.9981 0.0177
vn -0.6255 0.7239 0.2910
vn -0.6255 -0.7239 0.2910
vn -0.0584 -0.9981 0.0177
vn -0.0000 -1.0000 -0.0000
vn 0.0584 -0.9981 0.0177
vn 0.6255 -0.7239 0.2910
vn 0.5306 0.8456 0.0579
vn 0.0424 0.9991 0.0030
vn -0.0424 0.9991 0.0030
vn -0.5306 0.8456 0.0579
vn -0.5306 -0.8456 0.0579
vn -0.0424 -0.9991 0.0030
vn 0.0424 -0.9991 0.0030
vn 0.5306 -0.8456 0.0579
vn 0.5053 0.8628 -0.0168
vn 0.0396 0.9992 -0.0012
vn -0.0396 0.9992 -0.0012
vn -0.5053 0.8628 -0.0168
vn -0.5053 -0.8628 -0.0168
vn -0.0396 -0.9992 -0.0012
vn 0.0396 -0.9992 -0.0012
vn 0.5053 -0.8628 -0.0168
vn 0.5116 0.8542 -0.0930
vn 0.0405 0.9992 -0.0067
vn -0.0405 0.9992 -0.0067
vn -0.5116 0.8542 -0.0930
vn -0.5116 -0.8542 -0.0930
vn -0.0405 -0.9992 -0.0067
vn 0.0405 -0.9992 -0.0067
vn 0.5116 -0.8542 -0.0930
vn 0.5261 0.7786 -0.3420
vn 0.0457 0.9986 -0.0270
vn -0.0457 0.9986 -0.0270
vn -0.5261 0.7786 -0.3420
vn -0.5261 -0.7786 -0.3420
vn -0.0457 -0.9986 -0.0270
vn 0.0457 -0.9986 -0.0270
vn 0.5261 -0.7786 -0.3420
vn 0.9504 -0.2244 0.2152
vn 0.5144 -0.3818 0.7679
vn -0.0000 -0.4109 0.9117
vn -0.5144 -0.3818 0.7679
vn -0.9504 -0.2244 0.2152
vn -0.9701 -0.1036 -0.2196
vn -0.5555 0.0616 -0.8292
vn -0.0000 0.1199 -0.9928
vn 0.5555 0.0616 -0.8292
vn 0.9701 -0.1036 -0.2196
vn 0.9066 -0.3686 0.2053
vn 0.4843 -0.4928 0.7229
vn -0.0000 -0.5061 0.8625
vn -0.4843 -0.4928 0.7229
vn -0.9066 -0.3686 0.2053
vn -0.9377 -0.2751 -0.2123
vn -0.5503 -0.1493 -0.8215
vn -0.0000 -0.0864 -0.9963
vn 0.5503 -0.1493 -0.8215
vn 0.9377 -0.2751 -0.2123
vn 0.8780 -0.4354 0.1988
vn 0.4749 -0.5213 0.7090
vn -0.0000 -0.5215 0.8532
vn -0.4749 -0.5213 0.7090
vn -0.8780 -0.4354 0.1988
vn -0.9030 -0.3778 -0.2044
vn -0.5291 -0.3100 -0.7899
vn -0.0000 -0.2592 -0.9658
vn 0.5291 -0.3100 -0.7899
vn 0.9030 -0.3778 -0.2044
vn 0.8661 0.1977 0.4591
vn 0.3388 0.8361 0.4314
vn -0.3388 0.8361 0.4314
vn -0.8661 0.1977 0.4591
vn -0.8828 -0.2015 0.4243
vn -0.3659 -0.9030 0.2251
vn 0.3659 -0.9030 0.2251
vn 0.8828 -0.2015 0.4243
vn 0.9673 0.2165 0.1323
vn 0.3767 0.9119 0.1628
vn -0.3767 0.9119 0.1628
vn -0.9673 0.2165 0.1323
vn -0.9706 -0.2173 0.1034
vn -0.3813 -0.9229 0.0540
vn 0.3813 -0.9229 0.0540
vn 0.9706 -0.2173 0.1034
vn 0.9578 0.2726 -0.0910
vn 0.2900 0.8924 -0.3459
vn -0.2900 0.8924 -0.3459
vn -0.9578 0.2726 -0.0910
vn -0.9617 -0.2737 -0.0133
vn -0.3091 -0.9510 0.0003
vn 0.3091 -0.9510 0.0003
vn 0.9617 -0.2737 -0.0133
vn 0.8203 0.4638 -0.3347
vn 0.1296 0.7928 -0.5956
vn -0.1296 0.7928 -0.5956
vn -0.8203 0.4638 -0.3347
vn -0.8658 -0.4896 -0.1031
vn -0.1613 -0.9861 -0.0393
vn 0.1613 -0.9861 -0.0393
vn 0.8658 -0.4896 -0.1031
vn 0.6354 0.5452 -0.5469
vn 0.0986 0.9146 -0.3923
vn -0.0986 0.9146 -0.3923
vn -0.6354 0.5452 -0.5469
vn -0.6814 -0.5847 -0.4403
vn -0.1055 -0.9789 -0.1751
vn 0.1055 -0.9789 -0.1751
vn 0.6814 -0.5847 -0.4403
vn 0.5129 0.8174 0.2621
vn 0.0424 0.9989 0.0197
vn -0.0424 0.9989 0.0197
vn -0.5129 0.8174 0.2621
vn -0.5129 -0.8174 0.2621
vn -0.0424 -0.9989 0.0197
vn 0.0424 -0.9989 0.0197
vn 0.5129 -0.8174 0.2621
vn 0.5044 0.8613 0.0605
vn 0.0396 0.9992 0.0043
vn -0.0396 0.9992 0.0043
vn -0.5044 0.8613 0.0605
vn -0.5044 -0.8613 0.0605
vn -0.0396 -0.9992 0.0043
vn 0.0396 -0.9992 0.0043
vn 0.5044 -0.8613 0.0605
vn 0.5138 0.8578 -0.0156
vn 0.0405 0.9992 -0.0008
vn -0.0405 0.9992 -0.0008
vn -0.5138 0.8578 -0.0156
vn -0.5138 -0.8578 -0.0156
vn -0.0405 -0.9992 -0.0008
vn 0.0405 -0.9992 -0.0008
vn 0.5138 -0.8578 -0.0156
vn 0.5575 0.8250 -0.0923
vn 0.0457 0.9989 -0.0049
vn -0.0457 0.9989 -0.0049
vn -0.5575 0.8250 -0.0922
vn -0.5575 -0.8250 -0.0922
vn -0.0457 -0.9989 -0.0049
vn 0.0457 -0.9989 -0.0049
vn 0.5575 -0.8250 -0.0922
vn 0.6561 0.6473 -0.3881
vn 0.0684 0.9973 -0.0264
vn -0.0684 0.9973 -0.0264
vn -0.6561 0.6473 -0.3881
vn -0.6561 -0.6473 -0.3881
vn -0.0684 -0.9973 -0.0264
vn 0.0684 -0.9973 -0.0264
vn 0.6561 -0.6473 -0.3881
f 11//1 2//1 1//1
f 2//2 13//2 3//2
f 13//3 4//3 3//3
f 14//4 5//4 4//4
f 5//5 16//5 6//5
f 6//6 17//6 7//6
f 7//7 18//7 8//7
f 18//8 9//8 8//8
f 19//9 10//9 9//9
f 20//10 1//10 10//10
f 21//11 12//11 11//11
f 12//12 23//12 13//12
f 23//13 14//13 13//13
f 24//14 15//14 14//14
f 15//15 26//15 16//15
f 16//16 27//16 17//16
f 17//17 28//17 18//17
f 28//18 19//18 18//18
f 29//19 20//19 19//19
f 30//20 11//20 20//20
f 21//21 32//21 22//21
f 22//22 33//22 23//22
f 33//23 24//23 23//23
f 34//24 25//24 24//24
f 35//25 26//25 25//25
f 36//26 27//26 26//26
f 37//27 28//27 27//27
f 38//28 29//28 28//28
f 29//29 40//29 30//29
f 30//30 31//30 21//30
f 31//31 42//31 32//31
f 32//32 43//32 33//32
f 33//33 44//33 34//33
f 44//34 35//34 34//34
f 45//35 36//35 35//35
f 46//36 37//36 36//36
f 47//37 38//37 37//37
f 48//38 39//38 38//38
f 39//39 50//39 40//39
f 40//40 41//40 31//40
f 51//41 42//41 41//41
f 52//42 43//42 42//42
f 53//43 44//43 43//43
f 44//44 55//44 45//44
f 45//45 56//45 46//45
f 56//46 47//46 46//46
f 57//47 48//47 47//47
f 58//48 49//48 48//48
f 49//49 60//49 50//49
f 50//50 51//50 41//50
f 4//51 6//51 8//51
f 54//52 53//52 58//52
f 61//53 72//53 62//53
f 62//54 73//54 63//54
f 73//55 64//55 63//55
f 74//56 65//56 64//56
f 75//57 66//57 65//57
f 66//58 77//58 67//58
f 67//59 78//59 68//59
f 78//60 69//60 68//60
f 79//61 70//61 69//61
f 80//62 61//62 70//62
f 71//63 82//63 72//63
f 72//64 83//64 73//64
f 73//55 84//55 74//55
f 84//65 75//65 74//65
f 85//66 76//66 75//66
f 76//67 87//67 77//67
f 77//68 88//68 78//68
f 78//60 89//60 79//60
f 89//69 80//69 79//69
f 90//70 71//70 80//70
f 91//71 82//71 81//71
f 92//72 83//72 82//72
f 93//55 84//55 83//55
f 84//73 95//73 85//73
f 85//74 96//74 86//74
f 96//75 87//75 86//75
f 97//76 88//76 87//76
f 98//60 89//60 88//60
f 89//77 100//77 90//77
f 90//78 91//78 81//78
f 101//79 92//79 91//79
f 102//80 93//80 92//80
f 103//55 94//55 93//55
f 94//81 105//81 95//81
f 95//82 106//82 96//82
f 106//83 97//83 96//83
f 107//84 98//84 97//84
f 108//60 99//60 98//60
f 99//85 110//85 100//85
f 100//86 101//86 91//86
f 111//87 102//87 101//87
f 112//88 103//88 102//88
f 113//55 104//55 103//55
f 104//89 115//89 105//89
f 105//90 116//90 106//90
f 116//91 107//91 106//91
f 117//92 108//92 107//92
f 118//60 109//60 108//60
f 109//93 120//93 110//93
f 110//94 111//94 101//94
f 68//51 69//51 64//51
f 114//52 113//52 118//52
f 131//95 122//95 121//95
f 132//96 123//96 122//96
f 133//97 124//97 123//97
f 124//98 135//98 125//98
f 125//99 136//99 126//99
f 126//100 137//100 127//100
f 127//101 138//101 128//101
f 138//102 129//102 128//102
f 139//103 130//103 129//103
f 140//104 121//104 130//104
f 141//105 132//105 131//105
f 142//106 133//106 132//106
f 143//107 134//107 133//107
f 134//108 145//108 135//108
f 135//109 146//109 136//109
f 136//110 147//110 137//110
f 137//111 148//111 138//111
f 148//112 139//112 138//112
f 149//113 140//113 139//113
f 150//114 131//114 140//114
f 151//115 142//115 141//115
f 152//116 143//116 142//116
f 153//117 144//117 143//117
f 144//118 155//118 145//118
f 145//119 156//119 146//119
f 146//120 157//120 147//120
f 147//121 158//121 148//121
f 158//122 149//122 148//122
f 159//123 150//123 149//123
f 160//124 141//124 150//124
f 128//60 121//60 126//60
f 154//55 151//55 156//55
f 11//125 12//125 2//125
f 2//126 12//126 13//126
f 13//3 14//3 4//3
f 14//127 15//127 5//127
f 5//128 15//128 16//128
f 6//129 16//129 17//129
f 7//130 17//130 18//130
f 18//8 19//8 9//8
f 19//131 20//131 10//131
f 20//132 11//132 1//132
f 21//133 22//133 12//133
f 12//134 22//134 23//134
f 23//13 24//13 14//13
f 24//135 25//135 15//135
f 15//136 25//136 26//136
f 16//137 26//137 27//137
f 17//138 27//138 28//138
f 28//18 29//18 19//18
f 29//139 30//139 20//139
f 30//140 21//140 11//140
f 21//141 31//141 32//141
f 22//142 32//142 33//142
f 33//23 34//23 24//23
f 34//143 35//143 25//143
f 35//144 36//144 26//144
f 36//145 37//145 27//145
f 37//146 38//146 28//146
f 38//28 39//28 29//28
f 29//147 39//147 40//147
f 30//148 40//148 31//148
f 31//149 41//149 42//149
f 32//150 42//150 43//150
f 33//33 43//33 44//33
f 44//151 45//151 35//151
f 45//152 46//152 36//152
f 46//153 47//153 37//153
f 47//154 48//154 38//154
f 48//38 49//38 39//38
f 39//155 49//155 50//155
f 40//156 50//156 41//156
f 51//157 52//157 42//157
f 52//158 53//158 43//158
f 53//43 54//43 44//43
f 44//159 54//159 55//159
f 45//160 55//160 56//160
f 56//161 57//161 47//161
f 57//162 58//162 48//162
f 58//48 59//48 49//48
f 49//163 59//163 60//163
f 50//164 60//164 51//164
f 10//51 1//51 9//51
f 1//51 2//51 3//51
f 3//51 4//51 9//51
f 4//51 5//51 6//51
f 6//51 7//51 8//51
f 8//51 9//51 4//51
f 1//51 3//51 9//51
f 52//52 51//52 60//52
f 60//52 59//52 52//52
f 59//52 58//52 53//52
f 52//52 59//52 53//52
f 58//52 57//52 55//52
f 57//52 56//52 55//52
f 55//52 54//52 58//52
f 61//165 71//165 72//165
f 62//166 72//166 73//166
f 73//55 74//55 64//55
f 74//167 75//167 65//167
f 75//168 76//168 66//168
f 66//169 76//169 77//169
f 67//170 77//170 78//170
f 78//60 79//60 69//60
f 79//171 80//171 70//171
f 80//172 71//172 61//172
f 71//173 81//173 82//173
f 72//174 82//174 83//174
f 73//55 83//55 84//55
f 84//175 85//175 75//175
f 85//176 86//176 76//176
f 76//177 86//177 87//177
f 77//178 87//178 88//178
f 78//60 88//60 89//60
f 89//179 90//179 80//179
f 90//180 81//180 71//180
f 91//181 92//181 82//181
f 92//182 93//182 83//182
f 93//55 94//55 84//55
f 84//183 94//183 95//183
f 85//184 95//184 96//184
f 96//185 97//185 87//185
f 97//186 98//186 88//186
f 98//60 99//60 89//60
f 89//187 99//187 100//187
f 90//188 100//188 91//188
f 101//189 102//189 92//189
f 102//190 103//190 93//190
f 103//55 104//55 94//55
f 94//191 104//191 105//191
f 95//192 105//192 106//192
f 106//193 107//193 97//193
f 107//194 108//194 98//194
f 108//60 109//60 99//60
f 99//195 109//195 110//195
f 100//196 110//196 101//196
f 111//197 112//197 102//197
f 112//198 113//198 103//198
f 113//55 114//55 104//55
f 104//199 114//199 115//199
f 105//200 115//200 116//200
f 116//201 117//201 107//201
f 117//202 118//202 108//202
f 118//60 119//60 109//60
f 109//203 119//203 120//203
f 110//204 120//204 111//204
f 70//51 61//51 62//51
f 62//51 63//51 70//51
f 63//51 64//51 69//51
f 70//51 63//51 69//51
f 64//51 65//51 67//51
f 65//51 66//51 67//51
f 67//51 68//51 64//51
f 112//52 111//52 120//52
f 120//52 119//52 112//52
f 119//52 118//52 113//52
f 112//52 119//52 113//52
f 118//52 117//52 115//52
f 117//52 116//52 115//52
f 115//52 114//52 118//52
f 131//95 132//95 122//95
f 132//96 133//96 123//96
f 133//97 134//97 124//97
f 124//98 134//98 135//98
f 125//99 135//99 136//99
f 126//100 136//100 137//100
f 127//101 137//101 138//101
f 138//102 139//102 129//102
f 139//103 140//103 130//103
f 140//104 131//104 121//104
f 141//105 142//105 132//105
f 142//106 143//106 133//106
f 143//107 144//107 134//107
f 134//108 144//108 145//108
f 135//109 145//109 146//109
f 136//110 146//110 147//110
f 137//111 147//111 148//111
f 148//112 149//112 139//112
f 149//113 150//113 140//113
f 150//114 141//114 131//114
f 151//115 152//115 142//115
f 152//116 153//116 143//116
f 153//117 154//117 144//117
f 144//118 154//118 155//118
f 145//119 155//119 156//119
f 146//120 156//120 157//120
f 147//121 157//121 158//121
f 158//122 159//122 149//122
f 159//123 160//123 150//123
f 160//124 151//124 141//124
f 130//60 121//60 129//60
f 121//60 122//60 123//60
f 124//60 121//60 123//60
f 124//60 125//60 126//60
f 126//60 127//60 128//60
f 128//60 129//60 121//60
f 121//60 124//60 126//60
f 152//55 151//55 153//55
f 151//55 160//55 159//55
f 158//55 151//55 159//55
f 158//55 157//55 156//55
f 156//55 155//55 154//55
f 154//55 153//55 151//55
f 151//55 158//55 156//55
