# deckhand: pelvis.  Loom axes -- metres, Y up, forward -Z.
# Generated by build_deckhand.py; never edit this file.
# Blender 5.2.0 LTS
# www.blender.org
v 0.183000 0.123000 0.000000
v 0.175531 0.123000 0.070571
v 0.152487 0.123000 0.097492
v 0.110381 0.123000 0.112225
v 0.000000 0.123000 0.117000
v -0.110381 0.123000 0.112225
v -0.152487 0.123000 0.097492
v -0.175531 0.123000 0.070571
v -0.183000 0.123000 0.000000
v -0.175531 0.123000 -0.070571
v -0.152487 0.123000 -0.097492
v -0.110381 0.123000 -0.112225
v -0.000000 0.123000 -0.117000
v 0.110381 0.123000 -0.112225
v 0.152487 0.123000 -0.097492
v 0.175531 0.123000 -0.070571
v 0.180000 0.020000 0.000000
v 0.172653 0.020000 0.069365
v 0.149987 0.020000 0.095825
v 0.108571 0.020000 0.110306
v 0.000000 0.020000 0.115000
v -0.108571 0.020000 0.110306
v -0.149987 0.020000 0.095825
v -0.172653 0.020000 0.069365
v -0.180000 0.020000 0.000000
v -0.172653 0.020000 -0.069365
v -0.149987 0.020000 -0.095825
v -0.108571 0.020000 -0.110306
v -0.000000 0.020000 -0.115000
v 0.108571 0.020000 -0.110306
v 0.149987 0.020000 -0.095825
v 0.172653 0.020000 -0.069365
v 0.166000 -0.070000 0.000000
v 0.159225 -0.070000 0.067555
v 0.138321 -0.070000 0.093325
v 0.100127 -0.070000 0.107429
v 0.000000 -0.070000 0.112000
v -0.100127 -0.070000 0.107429
v -0.138321 -0.070000 0.093325
v -0.159225 -0.070000 0.067555
v -0.166000 -0.070000 0.000000
v -0.159225 -0.070000 -0.067555
v -0.138321 -0.070000 -0.093325
v -0.100127 -0.070000 -0.107429
v -0.000000 -0.070000 -0.112000
v 0.100127 -0.070000 -0.107429
v 0.138321 -0.070000 -0.093325
v 0.159225 -0.070000 -0.067555
v 0.128000 -0.123000 0.000000
v 0.122492 -0.123000 0.058647
v 0.105582 -0.123000 0.082486
v 0.075068 -0.123000 0.095697
v 0.000000 -0.123000 0.100000
v -0.075068 -0.123000 0.095697
v -0.105582 -0.123000 0.082486
v -0.122492 -0.123000 0.058647
v -0.128000 -0.123000 0.000000
v -0.122492 -0.123000 -0.058647
v -0.105582 -0.123000 -0.082486
v -0.075068 -0.123000 -0.095697
v -0.000000 -0.123000 -0.100000
v 0.075068 -0.123000 -0.095697
v 0.105582 -0.123000 -0.082486
v 0.122492 -0.123000 -0.058647
vn 0.9940 -0.0290 0.1053
vn 0.7594 -0.0288 0.6500
vn 0.3302 -0.0233 0.9436
vn 0.0432 -0.0194 0.9989
vn -0.0432 -0.0194 0.9989
vn -0.3300 -0.0234 0.9437
vn -0.7591 -0.0289 0.6503
vn -0.9940 -0.0290 0.1052
vn -0.9940 -0.0290 -0.1053
vn -0.7594 -0.0288 -0.6500
vn -0.3302 -0.0233 -0.9436
vn -0.0432 -0.0194 -0.9989
vn 0.0432 -0.0194 -0.9989
vn 0.3300 -0.0234 -0.9437
vn 0.7591 -0.0289 -0.6503
vn 0.9940 -0.0290 -0.1052
vn 0.9827 -0.1529 0.1041
vn 0.7535 -0.1254 0.6454
vn 0.3293 -0.0688 0.9417
vn 0.0432 -0.0360 0.9984
vn -0.0456 -0.0333 0.9984
vn -0.3457 -0.0624 0.9363
vn -0.7713 -0.1173 0.6256
vn -0.9839 -0.1488 0.0987
vn -0.9827 -0.1529 -0.1041
vn -0.7535 -0.1254 -0.6454
vn -0.3293 -0.0688 -0.9417
vn -0.0432 -0.0360 -0.9984
vn 0.0456 -0.0333 -0.9984
vn 0.3457 -0.0624 -0.9363
vn 0.7713 -0.1173 -0.6256
vn 0.9839 -0.1488 -0.0987
vn 0.8103 -0.5810 0.0761
vn 0.6529 -0.5415 0.5296
vn 0.3210 -0.3760 0.8692
vn 0.0443 -0.2358 0.9708
vn -0.0558 -0.2205 0.9738
vn -0.3700 -0.3641 0.8547
vn -0.6925 -0.5283 0.4912
vn -0.8127 -0.5770 0.0815
vn -0.8103 -0.5810 -0.0761
vn -0.6529 -0.5415 -0.5296
vn -0.3210 -0.3760 -0.8692
vn -0.0443 -0.2358 -0.9708
vn 0.0558 -0.2205 -0.9738
vn 0.3700 -0.3641 -0.8547
vn 0.6925 -0.5283 -0.4912
vn 0.8127 -0.5770 -0.0815
vn -0.0000 1.0000 -0.0000
vn -0.0000 -1.0000 -0.0000
vn 0.9940 -0.0290 0.1052
vn 0.7591 -0.0289 0.6503
vn 0.3300 -0.0234 0.9437
vn -0.3302 -0.0233 0.9436
vn -0.7594 -0.0288 0.6500
vn -0.9940 -0.0290 0.1053
vn -0.9940 -0.0290 -0.1052
vn -0.7591 -0.0289 -0.6503
vn -0.3300 -0.0234 -0.9437
vn 0.3302 -0.0233 -0.9436
vn 0.7594 -0.0288 -0.6500
vn 0.9940 -0.0290 -0.1053
vn 0.9839 -0.1488 0.0987
vn 0.7713 -0.1173 0.6256
vn 0.3457 -0.0624 0.9363
vn 0.0456 -0.0333 0.9984
vn -0.0432 -0.0360 0.9984
vn -0.3293 -0.0688 0.9417
vn -0.7535 -0.1254 0.6454
vn -0.9827 -0.1529 0.1041
vn -0.9839 -0.1488 -0.0987
vn -0.7713 -0.1173 -0.6256
vn -0.3457 -0.0624 -0.9363
vn -0.0456 -0.0333 -0.9984
vn 0.0432 -0.0360 -0.9984
vn 0.3293 -0.0688 -0.9417
vn 0.7535 -0.1254 -0.6454
vn 0.9827 -0.1529 -0.1041
vn 0.8127 -0.5770 0.0815
vn 0.6925 -0.5283 0.4912
vn 0.3700 -0.3641 0.8547
vn 0.0558 -0.2205 0.9738
vn -0.0443 -0.2358 0.9708
vn -0.3210 -0.3760 0.8692
vn -0.6529 -0.5415 0.5296
vn -0.8103 -0.5810 0.0761
vn -0.8127 -0.5770 -0.0815
vn -0.6925 -0.5283 -0.4912
vn -0.3700 -0.3641 -0.8547
vn -0.0558 -0.2205 -0.9738
vn 0.0443 -0.2358 -0.9708
vn 0.3210 -0.3760 -0.8692
vn 0.6529 -0.5415 -0.5296
vn 0.8103 -0.5810 -0.0761
f 1//1 18//1 17//1
f 3//2 18//2 2//2
f 4//3 19//3 3//3
f 5//4 20//4 4//4
f 5//5 22//5 21//5
f 6//6 23//6 22//6
f 7//7 24//7 23//7
f 9//8 24//8 8//8
f 9//9 26//9 25//9
f 11//10 26//10 10//10
f 12//11 27//11 11//11
f 13//12 28//12 12//12
f 13//13 30//13 29//13
f 14//14 31//14 30//14
f 15//15 32//15 31//15
f 1//16 32//16 16//16
f 18//17 33//17 17//17
f 19//18 34//18 18//18
f 20//19 35//19 19//19
f 21//20 36//20 20//20
f 21//21 38//21 37//21
f 22//22 39//22 38//22
f 23//23 40//23 39//23
f 24//24 41//24 40//24
f 26//25 41//25 25//25
f 27//26 42//26 26//26
f 28//27 43//27 27//27
f 29//28 44//28 28//28
f 29//29 46//29 45//29
f 30//30 47//30 46//30
f 31//31 48//31 47//31
f 32//32 33//32 48//32
f 33//33 50//33 49//33
f 35//34 50//34 34//34
f 36//35 51//35 35//35
f 37//36 52//36 36//36
f 37//37 54//37 53//37
f 38//38 55//38 54//38
f 39//39 56//39 55//39
f 41//40 56//40 40//40
f 41//41 58//41 57//41
f 43//42 58//42 42//42
f 44//43 59//43 43//43
f 45//44 60//44 44//44
f 45//45 62//45 61//45
f 46//46 63//46 62//46
f 47//47 64//47 63//47
f 33//48 64//48 48//48
f 6//49 12//49 9//49
f 49//50 53//50 61//50
f 1//51 2//51 18//51
f 3//52 19//52 18//52
f 4//53 20//53 19//53
f 5//4 21//4 20//4
f 5//5 6//5 22//5
f 6//54 7//54 23//54
f 7//55 8//55 24//55
f 9//56 25//56 24//56
f 9//57 10//57 26//57
f 11//58 27//58 26//58
f 12//59 28//59 27//59
f 13//12 29//12 28//12
f 13//13 14//13 30//13
f 14//60 15//60 31//60
f 15//61 16//61 32//61
f 1//62 17//62 32//62
f 18//63 34//63 33//63
f 19//64 35//64 34//64
f 20//65 36//65 35//65
f 21//66 37//66 36//66
f 21//67 22//67 38//67
f 22//68 23//68 39//68
f 23//69 24//69 40//69
f 24//70 25//70 41//70
f 26//71 42//71 41//71
f 27//72 43//72 42//72
f 28//73 44//73 43//73
f 29//74 45//74 44//74
f 29//75 30//75 46//75
f 30//76 31//76 47//76
f 31//77 32//77 48//77
f 32//78 17//78 33//78
f 33//79 34//79 50//79
f 35//80 51//80 50//80
f 36//81 52//81 51//81
f 37//82 53//82 52//82
f 37//83 38//83 54//83
f 38//84 39//84 55//84
f 39//85 40//85 56//85
f 41//86 57//86 56//86
f 41//87 42//87 58//87
f 43//88 59//88 58//88
f 44//89 60//89 59//89
f 45//90 61//90 60//90
f 45//91 46//91 62//91
f 46//92 47//92 63//92
f 47//93 48//93 64//93
f 33//94 49//94 64//94
f 2//49 1//49 4//49
f 1//49 16//49 14//49
f 16//49 15//49 14//49
f 14//49 13//49 5//49
f 13//49 12//49 6//49
f 12//49 11//49 10//49
f 10//49 9//49 12//49
f 9//49 8//49 6//49
f 8//49 7//49 6//49
f 6//49 5//49 13//49
f 5//49 4//49 14//49
f 4//49 3//49 2//49
f 1//49 14//49 4//49
f 64//50 49//50 62//50
f 49//50 50//50 52//50
f 50//50 51//50 52//50
f 52//50 53//50 49//50
f 53//50 54//50 57//50
f 61//50 57//50 60//50
f 54//50 55//50 56//50
f 56//50 57//50 54//50
f 57//50 58//50 60//50
f 58//50 59//50 60//50
f 61//50 62//50 49//50
f 62//50 63//50 64//50
f 57//50 61//50 53//50
