# deckhand: limb.  Loom axes -- metres, Y up, forward -Z.
# Generated by build_deckhand.py; never edit this file.
# Blender 5.2.0 LTS
# www.blender.org
v 1.000000 1.000000 0.000000
v 0.809017 1.000000 0.587785
v 0.309017 1.000000 0.951057
v -0.309017 1.000000 0.951057
v -0.809017 1.000000 0.587785
v -1.000000 1.000000 0.000000
v -0.809017 1.000000 -0.587785
v -0.309017 1.000000 -0.951057
v 0.309017 1.000000 -0.951057
v 0.809017 1.000000 -0.587785
v 1.060000 0.400000 0.000000
v 0.857558 0.400000 0.623052
v 0.327558 0.400000 1.008120
v -0.327558 0.400000 1.008120
v -0.857558 0.400000 0.623052
v -1.060000 0.400000 0.000000
v -0.857558 0.400000 -0.623052
v -0.327558 0.400000 -1.008120
v 0.327558 0.400000 -1.008120
v 0.857558 0.400000 -0.623052
v 0.960000 -0.350000 0.000000
v 0.776656 -0.350000 0.564274
v 0.296656 -0.350000 0.913014
v -0.296656 -0.350000 0.913014
v -0.776656 -0.350000 0.564274
v -0.960000 -0.350000 0.000000
v -0.776656 -0.350000 -0.564274
v -0.296656 -0.350000 -0.913014
v 0.296656 -0.350000 -0.913014
v 0.776656 -0.350000 -0.564274
v 0.840000 -1.000000 0.000000
v 0.679574 -1.000000 0.493740
v 0.259574 -1.000000 0.798887
v -0.259574 -1.000000 0.798887
v -0.679574 -1.000000 0.493740
v -0.840000 -1.000000 0.000000
v -0.679574 -1.000000 -0.493740
v -0.259574 -1.000000 -0.798887
v 0.259574 -1.000000 -0.798887
v 0.679574 -1.000000 -0.493740
vn 0.9468 0.0947 0.3076
vn 0.5851 0.0947 0.8054
vn -0.0000 0.0947 0.9955
vn -0.5851 0.0947 0.8054
vn -0.9468 0.0947 0.3076
vn -0.9468 0.0947 -0.3076
vn -0.5851 0.0947 -0.8054
vn -0.0000 0.0947 -0.9955
vn 0.5851 0.0947 -0.8054
vn 0.9468 0.0947 -0.3076
vn 0.9435 -0.1258 0.3066
vn 0.5831 -0.1258 0.8026
vn -0.0000 -0.1258 0.9921
vn -0.5831 -0.1258 0.8026
vn -0.9435 -0.1258 0.3066
vn -0.9435 -0.1258 -0.3066
vn -0.5831 -0.1258 -0.8026
vn -0.0000 -0.1258 -0.9921
vn 0.5831 -0.1258 -0.8026
vn 0.9435 -0.1258 -0.3066
vn 0.9367 -0.1729 0.3044
vn 0.5789 -0.1729 0.7968
vn -0.0000 -0.1729 0.9849
vn -0.5789 -0.1729 0.7968
vn -0.9367 -0.1729 0.3044
vn -0.9367 -0.1729 -0.3044
vn -0.5789 -0.1729 -0.7968
vn -0.0000 -0.1729 -0.9849
vn 0.5789 -0.1729 -0.7968
vn 0.9367 -0.1729 -0.3044
vn -0.0000 1.0000 -0.0000
vn -0.0000 -1.0000 -0.0000
f 1//1 12//1 11//1
f 3//2 12//2 2//2
f 4//3 13//3 3//3
f 5//4 14//4 4//4
f 6//5 15//5 5//5
f 6//6 17//6 16//6
f 8//7 17//7 7//7
f 9//8 18//8 8//8
f 10//9 19//9 9//9
f 1//10 20//10 10//10
f 12//11 21//11 11//11
f 13//12 22//12 12//12
f 14//13 23//13 13//13
f 15//14 24//14 14//14
f 16//15 25//15 15//15
f 17//16 26//16 16//16
f 18//17 27//17 17//17
f 19//18 28//18 18//18
f 20//19 29//19 19//19
f 11//20 30//20 20//20
f 22//21 31//21 21//21
f 23//22 32//22 22//22
f 23//23 34//23 33//23
f 25//24 34//24 24//24
f 26//25 35//25 25//25
f 27//26 36//26 26//26
f 28//27 37//27 27//27
f 28//28 39//28 38//28
f 30//29 39//29 29//29
f 21//30 40//30 30//30
f 8//31 4//31 2//31
f 34//32 38//32 40//32
f 1//1 2//1 12//1
f 3//2 13//2 12//2
f 4//3 14//3 13//3
f 5//4 15//4 14//4
f 6//5 16//5 15//5
f 6//6 7//6 17//6
f 8//7 18//7 17//7
f 9//8 19//8 18//8
f 10//9 20//9 19//9
f 1//10 11//10 20//10
f 12//11 22//11 21//11
f 13//12 23//12 22//12
f 14//13 24//13 23//13
f 15//14 25//14 24//14
f 16//15 26//15 25//15
f 17//16 27//16 26//16
f 18//17 28//17 27//17
f 19//18 29//18 28//18
f 20//19 30//19 29//19
f 11//20 21//20 30//20
f 22//21 32//21 31//21
f 23//22 33//22 32//22
f 23//23 24//23 34//23
f 25//24 35//24 34//24
f 26//25 36//25 35//25
f 27//26 37//26 36//26
f 28//27 38//27 37//27
f 28//28 29//28 39//28
f 30//29 40//29 39//29
f 21//30 31//30 40//30
f 2//31 1//31 10//31
f 10//31 9//31 2//31
f 9//31 8//31 2//31
f 8//31 7//31 6//31
f 6//31 5//31 4//31
f 4//31 3//31 2//31
f 8//31 6//31 4//31
f 40//32 31//32 32//32
f 32//32 33//32 34//32
f 34//32 35//32 36//32
f 36//32 37//32 38//32
f 38//32 39//32 40//32
f 40//32 32//32 34//32
f 34//32 36//32 38//32
