# deckhand: torso.  Loom axes -- metres, Y up, forward -Z.
# Generated by build_deckhand.py; never edit this file.
# Blender 5.2.0 LTS
# www.blender.org
v 0.150000 0.197000 0.000000
v 0.143174 0.197000 0.059676
v 0.122336 0.197000 0.085635
v 0.085252 0.197000 0.100222
v 0.000000 0.197000 0.105000
v -0.085252 0.197000 0.100222
v -0.122336 0.197000 0.085635
v -0.143174 0.197000 0.059676
v -0.150000 0.197000 0.000000
v -0.143174 0.197000 -0.059676
v -0.122336 0.197000 -0.085635
v -0.085252 0.197000 -0.100222
v -0.000000 0.197000 -0.105000
v 0.085252 0.197000 -0.100222
v 0.122336 0.197000 -0.085635
v 0.143174 0.197000 -0.059676
v 0.208000 0.156000 0.000000
v 0.199049 0.156000 0.073895
v 0.171571 0.156000 0.103932
v 0.121985 0.156000 0.120578
v 0.000000 0.156000 0.126000
v -0.121985 0.156000 0.120578
v -0.171571 0.156000 0.103932
v -0.199049 0.156000 0.073895
v -0.208000 0.156000 0.000000
v -0.199049 0.156000 -0.073895
v -0.171571 0.156000 -0.103932
v -0.121985 0.156000 -0.120578
v -0.000000 0.156000 -0.126000
v 0.121985 0.156000 -0.120578
v 0.171571 0.156000 -0.103932
v 0.199049 0.156000 -0.073895
v 0.223000 0.100000 0.000000
v 0.213898 0.100000 0.078412
v 0.185817 0.100000 0.108324
v 0.134508 0.100000 0.124694
v 0.000000 0.100000 0.130000
v -0.134508 0.100000 0.124694
v -0.185817 0.100000 0.108324
v -0.213898 0.100000 0.078412
v -0.223000 0.100000 0.000000
v -0.213898 0.100000 -0.078412
v -0.185817 0.100000 -0.108324
v -0.134508 0.100000 -0.124694
v -0.000000 0.100000 -0.130000
v 0.134508 0.100000 -0.124694
v 0.185817 0.100000 -0.108324
v 0.213898 0.100000 -0.078412
v 0.198000 -0.020000 0.000000
v 0.189919 -0.020000 0.074793
v 0.164986 -0.020000 0.103324
v 0.119428 -0.020000 0.118939
v 0.000000 -0.020000 0.124000
v -0.119428 -0.020000 0.118939
v -0.164986 -0.020000 0.103324
v -0.189919 -0.020000 0.074793
v -0.198000 -0.020000 0.000000
v -0.189919 -0.020000 -0.074793
v -0.164986 -0.020000 -0.103324
v -0.119428 -0.020000 -0.118939
v -0.000000 -0.020000 -0.124000
v 0.119428 -0.020000 -0.118939
v 0.164986 -0.020000 -0.103324
v 0.189919 -0.020000 -0.074793
v 0.182000 -0.150000 0.000000
v 0.174572 -0.150000 0.071174
v 0.151654 -0.150000 0.098325
v 0.109777 -0.150000 0.113184
v 0.000000 -0.150000 0.118000
v -0.109777 -0.150000 0.113184
v -0.151654 -0.150000 0.098325
v -0.174572 -0.150000 0.071174
v -0.182000 -0.150000 0.000000
v -0.174572 -0.150000 -0.071174
v -0.151654 -0.150000 -0.098325
v -0.109777 -0.150000 -0.113184
v -0.000000 -0.150000 -0.118000
v 0.109777 -0.150000 -0.113184
v 0.151654 -0.150000 -0.098325
v 0.174572 -0.150000 -0.071174
v 0.196000 -0.212000 0.000000
v 0.187566 -0.212000 0.076241
v 0.161673 -0.212000 0.107232
v 0.114948 -0.212000 0.124406
v 0.000000 -0.212000 0.130000
v -0.114948 -0.212000 0.124406
v -0.161673 -0.212000 0.107232
v -0.187566 -0.212000 0.076241
v -0.196000 -0.212000 0.000000
v -0.187566 -0.212000 -0.076241
v -0.161673 -0.212000 -0.107232
v -0.114948 -0.212000 -0.124406
v -0.000000 -0.212000 -0.130000
v 0.114948 -0.212000 -0.124406
v 0.161673 -0.212000 -0.107232
v 0.187566 -0.212000 -0.076241
v 0.213000 -0.252000 0.000000
v 0.203307 -0.252000 0.083547
v 0.173717 -0.252000 0.119889
v 0.121057 -0.252000 0.140311
v 0.000000 -0.252000 0.147000
v -0.121057 -0.252000 0.140311
v -0.173717 -0.252000 0.119889
v -0.203307 -0.252000 0.083547
v -0.213000 -0.252000 0.000000
v -0.203307 -0.252000 -0.083547
v -0.173717 -0.252000 -0.119889
v -0.121057 -0.252000 -0.140311
v -0.000000 -0.252000 -0.147000
v 0.121057 -0.252000 -0.140311
v 0.173717 -0.252000 -0.119889
v 0.203307 -0.252000 -0.083547
vn 0.5760 0.8148 0.0659
vn 0.4633 0.7783 0.4238
vn 0.2479 0.6272 0.7384
vn 0.0391 0.4723 0.8806
vn -0.0498 0.4553 0.8889
vn -0.2872 0.6199 0.7302
vn -0.4954 0.7723 0.3977
vn -0.5785 0.8127 0.0701
vn -0.5760 0.8148 -0.0659
vn -0.4633 0.7783 -0.4238
vn -0.2479 0.6272 -0.7384
vn -0.0391 0.4723 -0.8806
vn 0.0498 0.4553 -0.8889
vn 0.2872 0.6199 -0.7302
vn 0.4954 0.7723 -0.3977
vn 0.5785 0.8127 -0.0701
vn 0.9594 0.2570 0.1162
vn 0.7075 0.2412 0.6642
vn 0.3005 0.1503 0.9419
vn 0.0393 0.0820 0.9959
vn -0.0443 0.0712 0.9965
vn -0.3151 0.1395 0.9387
vn -0.7174 0.2340 0.6562
vn -0.9583 0.2631 0.1112
vn -0.9594 0.2570 -0.1162
vn -0.7075 0.2412 -0.6642
vn -0.3005 0.1503 -0.9419
vn -0.0393 0.0820 -0.9959
vn 0.0443 0.0712 -0.9965
vn 0.3151 0.1395 -0.9387
vn 0.7174 0.2340 -0.6562
vn 0.9583 0.2631 -0.1112
vn 0.9727 -0.2026 0.1129
vn 0.7192 -0.1641 0.6752
vn 0.3027 -0.0921 0.9486
vn 0.0394 -0.0528 0.9978
vn -0.0423 -0.0499 0.9979
vn -0.3230 -0.0858 0.9425
vn -0.7438 -0.1562 0.6500
vn -0.9745 -0.1979 0.1053
vn -0.9727 -0.2026 -0.1129
vn -0.7192 -0.1641 -0.6752
vn -0.3027 -0.0921 -0.9486
vn -0.0394 -0.0528 -0.9978
vn 0.0423 -0.0499 -0.9979
vn 0.3230 -0.0858 -0.9425
vn 0.7438 -0.1562 -0.6500
vn 0.9745 -0.1979 -0.1053
vn 0.9872 -0.1215 0.1030
vn 0.7487 -0.1066 0.6543
vn 0.3234 -0.0695 0.9437
vn 0.0423 -0.0473 0.9980
vn -0.0438 -0.0461 0.9980
vn -0.3337 -0.0664 0.9403
vn -0.7601 -0.1026 0.6416
vn -0.9871 -0.1195 0.1067
vn -0.9872 -0.1215 -0.1030
vn -0.7487 -0.1066 -0.6543
vn -0.3234 -0.0695 -0.9437
vn -0.0423 -0.0473 -0.9980
vn 0.0438 -0.0461 -0.9980
vn 0.3337 -0.0664 -0.9403
vn 0.7601 -0.1026 -0.6416
vn 0.9871 -0.1195 -0.1067
vn 0.9704 0.2191 0.1013
vn 0.7505 0.2085 0.6271
vn 0.3389 0.1872 0.9220
vn 0.0478 0.1818 0.9822
vn -0.0430 0.1898 0.9809
vn -0.3280 0.1947 0.9244
vn -0.7469 0.2113 0.6305
vn -0.9713 0.2123 0.1074
vn -0.9704 0.2191 -0.1013
vn -0.7505 0.2085 -0.6271
vn -0.3389 0.1872 -0.9220
vn -0.0478 0.1818 -0.9822
vn 0.0430 0.1898 -0.9809
vn 0.3280 0.1947 -0.9244
vn 0.7469 0.2113 -0.6305
vn 0.9713 0.2123 -0.1074
vn 0.9156 0.3891 0.1013
vn 0.7148 0.3876 0.5820
vn 0.3353 0.3745 0.8645
vn 0.0511 0.3757 0.9253
vn -0.0447 0.3907 0.9194
vn -0.3174 0.3918 0.8635
vn -0.7040 0.3981 0.5882
vn -0.9185 0.3809 0.1066
vn -0.9156 0.3891 -0.1013
vn -0.7148 0.3876 -0.5820
vn -0.3353 0.3745 -0.8645
vn -0.0511 0.3757 -0.9253
vn 0.0447 0.3907 -0.9194
vn 0.3174 0.3918 -0.8635
vn 0.7040 0.3981 -0.5882
vn 0.9185 0.3809 -0.1066
vn -0.0000 1.0000 -0.0000
vn -0.0000 -1.0000 -0.0000
vn 0.5785 0.8127 0.0701
vn 0.4954 0.7723 0.3977
vn 0.2872 0.6199 0.7302
vn 0.0498 0.4553 0.8889
vn -0.0391 0.4723 0.8806
vn -0.2479 0.6272 0.7384
vn -0.4633 0.7783 0.4238
vn -0.5760 0.8148 0.0659
vn -0.5785 0.8127 -0.0701
vn -0.4954 0.7723 -0.3977
vn -0.2872 0.6199 -0.7302
vn -0.0498 0.4553 -0.8889
vn 0.0391 0.4723 -0.8806
vn 0.2479 0.6272 -0.7384
vn 0.4633 0.7783 -0.4238
vn 0.5760 0.8148 -0.0659
vn 0.9583 0.2631 0.1112
vn 0.7174 0.2340 0.6562
vn 0.3151 0.1395 0.9387
vn 0.0443 0.0712 0.9965
vn -0.0393 0.0820 0.9959
vn -0.3005 0.1503 0.9419
vn -0.7075 0.2412 0.6642
vn -0.9594 0.2570 0.1162
vn -0.9583 0.2631 -0.1112
vn -0.7174 0.2340 -0.6562
vn -0.3151 0.1395 -0.9387
vn -0.0443 0.0712 -0.9965
vn 0.0393 0.0820 -0.9959
vn 0.3005 0.1503 -0.9419
vn 0.7075 0.2412 -0.6642
vn 0.9594 0.2570 -0.1162
vn 0.9745 -0.1979 0.1053
vn 0.7438 -0.1562 0.6500
vn 0.3230 -0.0858 0.9425
vn 0.0423 -0.0499 0.9979
vn -0.0394 -0.0528 0.9978
vn -0.3027 -0.0921 0.9486
vn -0.7192 -0.1641 0.6752
vn -0.9727 -0.2026 0.1129
vn -0.9745 -0.1979 -0.1053
vn -0.7438 -0.1562 -0.6500
vn -0.3230 -0.0858 -0.9425
vn -0.0423 -0.0499 -0.9979
vn 0.0394 -0.0528 -0.9978
vn 0.3027 -0.0921 -0.9486
vn 0.7192 -0.1641 -0.6752
vn 0.9727 -0.2026 -0.1129
vn 0.9871 -0.1195 0.1067
vn 0.7601 -0.1026 0.6416
vn 0.3337 -0.0664 0.9403
vn 0.0438 -0.0461 0.9980
vn -0.0423 -0.0473 0.9980
vn -0.3234 -0.0695 0.9437
vn -0.7487 -0.1066 0.6543
vn -0.9872 -0.1215 0.1030
vn -0.9871 -0.1195 -0.1067
vn -0.7601 -0.1026 -0.6416
vn -0.3337 -0.0664 -0.9403
vn -0.0438 -0.0461 -0.9980
vn 0.0423 -0.0473 -0.9980
vn 0.3234 -0.0695 -0.9437
vn 0.7487 -0.1066 -0.6543
vn 0.9872 -0.1215 -0.1030
vn 0.9713 0.2123 0.1074
vn 0.7469 0.2113 0.6305
vn 0.3280 0.1947 0.9244
vn 0.0430 0.1898 0.9809
vn -0.0478 0.1818 0.9822
vn -0.3389 0.1872 0.9220
vn -0.7505 0.2085 0.6271
vn -0.9704 0.2191 0.1013
vn -0.9713 0.2123 -0.1074
vn -0.7469 0.2113 -0.6305
vn -0.3280 0.1947 -0.9244
vn -0.0430 0.1898 -0.9809
vn 0.0478 0.1818 -0.9822
vn 0.3389 0.1872 -0.9220
vn 0.7505 0.2085 -0.6271
vn 0.9704 0.2191 -0.1013
vn 0.9185 0.3809 0.1066
vn 0.7040 0.3981 0.5882
vn 0.3174 0.3918 0.8635
vn 0.0447 0.3907 0.9194
vn -0.0511 0.3757 0.9253
vn -0.3353 0.3745 0.8645
vn -0.7148 0.3876 0.5820
vn -0.9156 0.3891 0.1013
vn -0.9185 0.3809 -0.1066
vn -0.7040 0.3981 -0.5882
vn -0.3174 0.3918 -0.8635
vn -0.0447 0.3907 -0.9194
vn 0.0511 0.3757 -0.9253
vn 0.3353 0.3745 -0.8645
vn 0.7148 0.3876 -0.5820
vn 0.9156 0.3891 -0.1013
f 2//1 17//1 1//1
f 2//2 19//2 18//2
f 3//3 20//3 19//3
f 4//4 21//4 20//4
f 6//5 21//5 5//5
f 7//6 22//6 6//6
f 8//7 23//7 7//7
f 8//8 25//8 24//8
f 10//9 25//9 9//9
f 10//10 27//10 26//10
f 11//11 28//11 27//11
f 12//12 29//12 28//12
f 14//13 29//13 13//13
f 15//14 30//14 14//14
f 16//15 31//15 15//15
f 16//16 17//16 32//16
f 18//17 33//17 17//17
f 18//18 35//18 34//18
f 19//19 36//19 35//19
f 20//20 37//20 36//20
f 22//21 37//21 21//21
f 23//22 38//22 22//22
f 24//23 39//23 23//23
f 24//24 41//24 40//24
f 26//25 41//25 25//25
f 26//26 43//26 42//26
f 27//27 44//27 43//27
f 28//28 45//28 44//28
f 30//29 45//29 29//29
f 31//30 46//30 30//30
f 32//31 47//31 31//31
f 32//32 33//32 48//32
f 34//33 49//33 33//33
f 35//34 50//34 34//34
f 36//35 51//35 35//35
f 37//36 52//36 36//36
f 37//37 54//37 53//37
f 38//38 55//38 54//38
f 39//39 56//39 55//39
f 40//40 57//40 56//40
f 42//41 57//41 41//41
f 43//42 58//42 42//42
f 44//43 59//43 43//43
f 45//44 60//44 44//44
f 45//45 62//45 61//45
f 46//46 63//46 62//46
f 47//47 64//47 63//47
f 48//48 49//48 64//48
f 49//49 66//49 65//49
f 51//50 66//50 50//50
f 52//51 67//51 51//51
f 53//52 68//52 52//52
f 53//53 70//53 69//53
f 54//54 71//54 70//54
f 55//55 72//55 71//55
f 57//56 72//56 56//56
f 57//57 74//57 73//57
f 59//58 74//58 58//58
f 60//59 75//59 59//59
f 61//60 76//60 60//60
f 61//61 78//61 77//61
f 62//62 79//62 78//62
f 63//63 80//63 79//63
f 49//64 80//64 64//64
f 66//65 81//65 65//65
f 66//66 83//66 82//66
f 67//67 84//67 83//67
f 68//68 85//68 84//68
f 70//69 85//69 69//69
f 71//70 86//70 70//70
f 72//71 87//71 71//71
f 72//72 89//72 88//72
f 74//73 89//73 73//73
f 74//74 91//74 90//74
f 75//75 92//75 91//75
f 76//76 93//76 92//76
f 78//77 93//77 77//77
f 79//78 94//78 78//78
f 80//79 95//79 79//79
f 80//80 81//80 96//80
f 82//81 97//81 81//81
f 82//82 99//82 98//82
f 83//83 100//83 99//83
f 84//84 101//84 100//84
f 86//85 101//85 85//85
f 87//86 102//86 86//86
f 88//87 103//87 87//87
f 88//88 105//88 104//88
f 90//89 105//89 89//89
f 90//90 107//90 106//90
f 91//91 108//91 107//91
f 92//92 109//92 108//92
f 94//93 109//93 93//93
f 95//94 110//94 94//94
f 96//95 111//95 95//95
f 96//96 97//96 112//96
f 6//97 12//97 9//97
f 108//98 102//98 105//98
f 2//99 18//99 17//99
f 2//100 3//100 19//100
f 3//101 4//101 20//101
f 4//102 5//102 21//102
f 6//103 22//103 21//103
f 7//104 23//104 22//104
f 8//105 24//105 23//105
f 8//106 9//106 25//106
f 10//107 26//107 25//107
f 10//108 11//108 27//108
f 11//109 12//109 28//109
f 12//110 13//110 29//110
f 14//111 30//111 29//111
f 15//112 31//112 30//112
f 16//113 32//113 31//113
f 16//114 1//114 17//114
f 18//115 34//115 33//115
f 18//116 19//116 35//116
f 19//117 20//117 36//117
f 20//118 21//118 37//118
f 22//119 38//119 37//119
f 23//120 39//120 38//120
f 24//121 40//121 39//121
f 24//122 25//122 41//122
f 26//123 42//123 41//123
f 26//124 27//124 43//124
f 27//125 28//125 44//125
f 28//126 29//126 45//126
f 30//127 46//127 45//127
f 31//128 47//128 46//128
f 32//129 48//129 47//129
f 32//130 17//130 33//130
f 34//131 50//131 49//131
f 35//132 51//132 50//132
f 36//133 52//133 51//133
f 37//134 53//134 52//134
f 37//135 38//135 54//135
f 38//136 39//136 55//136
f 39//137 40//137 56//137
f 40//138 41//138 57//138
f 42//139 58//139 57//139
f 43//140 59//140 58//140
f 44//141 60//141 59//141
f 45//142 61//142 60//142
f 45//143 46//143 62//143
f 46//144 47//144 63//144
f 47//145 48//145 64//145
f 48//146 33//146 49//146
f 49//147 50//147 66//147
f 51//148 67//148 66//148
f 52//149 68//149 67//149
f 53//150 69//150 68//150
f 53//151 54//151 70//151
f 54//152 55//152 71//152
f 55//153 56//153 72//153
f 57//154 73//154 72//154
f 57//155 58//155 74//155
f 59//156 75//156 74//156
f 60//157 76//157 75//157
f 61//158 77//158 76//158
f 61//159 62//159 78//159
f 62//160 63//160 79//160
f 63//161 64//161 80//161
f 49//162 65//162 80//162
f 66//163 82//163 81//163
f 66//164 67//164 83//164
f 67//165 68//165 84//165
f 68//166 69//166 85//166
f 70//167 86//167 85//167
f 71//168 87//168 86//168
f 72//169 88//169 87//169
f 72//170 73//170 89//170
f 74//171 90//171 89//171
f 74//172 75//172 91//172
f 75//173 76//173 92//173
f 76//174 77//174 93//174
f 78//175 94//175 93//175
f 79//176 95//176 94//176
f 80//177 96//177 95//177
f 80//178 65//178 81//178
f 82//179 98//179 97//179
f 82//180 83//180 99//180
f 83//181 84//181 100//181
f 84//182 85//182 101//182
f 86//183 102//183 101//183
f 87//184 103//184 102//184
f 88//185 104//185 103//185
f 88//186 89//186 105//186
f 90//187 106//187 105//187
f 90//188 91//188 107//188
f 91//189 92//189 108//189
f 92//190 93//190 109//190
f 94//191 110//191 109//191
f 95//192 111//192 110//192
f 96//193 112//193 111//193
f 96//194 81//194 97//194
f 2//97 1//97 4//97
f 1//97 16//97 14//97
f 16//97 15//97 14//97
f 14//97 13//97 5//97
f 13//97 12//97 6//97
f 12//97 11//97 10//97
f 10//97 9//97 12//97
f 9//97 8//97 6//97
f 8//97 7//97 6//97
f 6//97 5//97 13//97
f 5//97 4//97 14//97
f 4//97 3//97 2//97
f 1//97 14//97 4//97
f 112//98 97//98 110//98
f 97//98 98//98 100//98
f 98//98 99//98 100//98
f 100//98 101//98 109//98
f 101//98 102//98 108//98
f 102//98 103//98 104//98
f 104//98 105//98 102//98
f 105//98 106//98 108//98
f 106//98 107//98 108//98
f 108//98 109//98 101//98
f 109//98 110//98 100//98
f 110//98 111//98 112//98
f 97//98 100//98 110//98
