# Blender 5.2.0 LTS
# www.blender.org
v 0.000000 0.011000 -0.000000
v -0.003015 0.016107 -0.005263
v -0.002565 0.010337 -0.000000
v -0.005667 0.013130 -0.005263
v -0.004821 0.008426 -0.000000
v -0.007635 0.008570 -0.005263
v -0.006495 0.005500 -0.000000
v -0.008682 0.002976 -0.005263
v -0.007386 0.001910 -0.000000
v -0.007386 -0.002084 0.000000
v -0.008682 -0.003912 -0.005263
v -0.006495 -0.006000 0.000000
v -0.007635 -0.011263 -0.005263
v -0.004821 -0.009193 0.000000
v -0.005667 -0.017256 -0.005263
v -0.002565 -0.011276 0.000000
v -0.003015 -0.021168 -0.005263
v 0.000000 -0.012000 0.000000
v 0.003015 -0.021168 -0.005263
v 0.002565 -0.011276 0.000000
v 0.005667 -0.017256 -0.005263
v 0.004821 -0.009193 0.000000
v 0.007635 -0.011263 -0.005263
v 0.006495 -0.006000 0.000000
v 0.008682 -0.003912 -0.005263
v 0.007386 -0.002084 0.000000
v 0.008682 0.002976 -0.005263
v 0.007386 0.001910 -0.000000
v 0.006495 0.005500 -0.000000
v 0.007635 0.008570 -0.005263
v 0.004821 0.008426 -0.000000
v 0.005667 0.013130 -0.005263
v 0.002565 0.010337 -0.000000
v 0.003015 0.016107 -0.005263
v 0.000000 0.017140 -0.005263
v -0.003164 0.018332 -0.010526
v -0.005947 0.014945 -0.010526
v -0.008012 0.009754 -0.010526
v -0.009111 0.003388 -0.010526
v -0.009111 -0.004779 -0.010526
v -0.008012 -0.013760 -0.010526
v -0.005947 -0.021082 -0.010526
v -0.003164 -0.025861 -0.010526
v 0.000000 -0.022526 -0.005263
v 0.003164 -0.025861 -0.010526
v 0.005947 -0.021082 -0.010526
v 0.008012 -0.013760 -0.010526
v 0.009111 -0.004779 -0.010526
v 0.009111 0.003388 -0.010526
v 0.008012 0.009754 -0.010526
v 0.005947 0.014945 -0.010526
v 0.003164 0.018332 -0.010526
v 0.000000 0.019509 -0.010526
v -0.003251 0.019808 -0.015789
v -0.006110 0.016147 -0.015789
v -0.008232 0.010539 -0.015789
v -0.009361 0.003660 -0.015789
v -0.009361 -0.005424 -0.015789
v -0.008232 -0.015618 -0.015789
v -0.006110 -0.023929 -0.015789
v -0.003251 -0.029353 -0.015789
v 0.000000 -0.027520 -0.010526
v 0.003251 -0.029353 -0.015789
v 0.006110 -0.023929 -0.015789
v 0.008232 -0.015618 -0.015789
v 0.009361 -0.005424 -0.015789
v 0.009361 0.003660 -0.015789
v 0.008232 0.010539 -0.015789
v 0.006110 0.016147 -0.015789
v 0.003251 0.019808 -0.015789
v 0.000000 0.021079 -0.015789
v -0.003263 0.020302 -0.021053
v -0.006132 0.016551 -0.021053
v -0.008262 0.010803 -0.021053
v -0.009395 0.003752 -0.021053
v -0.009395 -0.005698 -0.021053
v -0.008262 -0.016408 -0.021053
v -0.006132 -0.025138 -0.021053
v -0.003263 -0.030837 -0.021053
v 0.000000 -0.031237 -0.015789
v 0.003263 -0.030837 -0.021053
v 0.006132 -0.025138 -0.021053
v 0.008262 -0.016408 -0.021053
v 0.009395 -0.005698 -0.021053
v 0.009395 0.003752 -0.021053
v 0.008262 0.010803 -0.021053
v 0.006132 0.016551 -0.021053
v 0.003263 0.020302 -0.021053
v 0.000000 0.021605 -0.021053
v -0.003275 0.020797 -0.026316
v -0.006155 0.016954 -0.026316
v -0.008293 0.011066 -0.026316
v -0.009430 0.003843 -0.026316
v -0.009430 -0.005973 -0.026316
v -0.008293 -0.017197 -0.026316
v -0.006155 -0.026348 -0.026316
v -0.003275 -0.032320 -0.026316
v 0.000000 -0.032816 -0.021053
v 0.003275 -0.032320 -0.026316
v 0.006155 -0.026348 -0.026316
v 0.008293 -0.017197 -0.026316
v 0.009430 -0.005973 -0.026316
v 0.009430 0.003843 -0.026316
v 0.008293 0.011066 -0.026316
v 0.006155 0.016954 -0.026316
v 0.003275 0.020797 -0.026316
v 0.000000 0.022132 -0.026316
v -0.003269 0.021094 -0.031579
v -0.006144 0.017196 -0.031579
v -0.008277 0.011224 -0.031579
v -0.009413 0.003898 -0.031579
v -0.009413 -0.006155 -0.031579
v -0.008277 -0.017724 -0.031579
v -0.006144 -0.027154 -0.031579
v -0.003269 -0.033310 -0.031579
v 0.000000 -0.034395 -0.026316
v 0.003269 -0.033310 -0.031579
v 0.006144 -0.027154 -0.031579
v 0.008277 -0.017724 -0.031579
v 0.009413 -0.006155 -0.031579
v 0.009413 0.003898 -0.031579
v 0.008277 0.011224 -0.031579
v 0.006144 0.017196 -0.031579
v 0.003269 0.021094 -0.031579
v 0.000000 0.022272 -0.036842
v 0.000000 0.022447 -0.031579
v -0.003221 0.020929 -0.036842
v -0.006053 0.017061 -0.036842
v -0.008156 0.011136 -0.036842
v -0.009274 0.003867 -0.036842
v -0.008156 -0.017636 -0.036842
v -0.006053 -0.027020 -0.036842
v -0.003221 -0.033145 -0.036842
v 0.000000 -0.035272 -0.036842
v 0.000000 -0.035447 -0.031579
v 0.003221 -0.033145 -0.036842
v 0.006053 -0.027020 -0.036842
v 0.008156 -0.017636 -0.036842
v 0.009274 -0.006125 -0.036842
v 0.008156 0.011136 -0.036842
v 0.006053 0.017061 -0.036842
v 0.003221 0.020929 -0.036842
v 0.000000 0.022096 -0.042105
v -0.003173 0.020764 -0.042105
v -0.005963 0.016927 -0.042105
v -0.008034 0.011048 -0.042105
v -0.009136 0.003837 -0.042105
v -0.009274 -0.006125 -0.036842
v -0.008034 -0.017548 -0.042105
v -0.005963 -0.026885 -0.042105
v -0.003173 -0.032980 -0.042105
v 0.000000 -0.035096 -0.042105
v 0.003173 -0.032980 -0.042105
v 0.005963 -0.026885 -0.042105
v 0.008034 -0.017548 -0.042105
v 0.009136 -0.006094 -0.042105
v 0.009274 0.003867 -0.036842
v 0.008034 0.011048 -0.042105
v 0.005963 0.016927 -0.042105
v 0.003173 0.020764 -0.042105
v 0.000000 0.021684 -0.047368
v -0.003114 0.020376 -0.047368
v -0.005853 0.016611 -0.047368
v -0.007885 0.010842 -0.047368
v -0.008967 -0.005982 -0.047368
v -0.009136 -0.006094 -0.042105
v -0.007885 -0.017224 -0.047368
v -0.005853 -0.026388 -0.047368
v -0.003114 -0.032370 -0.047368
v 0.000000 -0.034447 -0.047368
v 0.003114 -0.032370 -0.047368
v 0.005853 -0.026388 -0.047368
v 0.007885 -0.017224 -0.047368
v 0.008967 -0.005982 -0.047368
v 0.009136 0.003837 -0.042105
v 0.007885 0.010842 -0.047368
v 0.005853 0.016611 -0.047368
v 0.003114 0.020376 -0.047368
v 0.000000 0.020982 -0.052632
v -0.003042 0.019717 -0.052632
v -0.005717 0.016073 -0.052632
v -0.007703 0.010491 -0.052632
v -0.008967 0.003765 -0.047368
v -0.008760 -0.005768 -0.052632
v -0.007703 -0.016610 -0.052632
v -0.005717 -0.025447 -0.052632
v -0.003042 -0.031216 -0.052632
v 0.000000 -0.033219 -0.052632
v 0.003042 -0.031216 -0.052632
v 0.005717 -0.025447 -0.052632
v 0.007703 -0.016610 -0.052632
v 0.008760 -0.005768 -0.052632
v 0.008967 0.003765 -0.047368
v 0.007703 0.010491 -0.052632
v 0.005717 0.016073 -0.052632
v 0.003042 0.019717 -0.052632
v 0.000000 0.020281 -0.057895
v -0.002970 0.019058 -0.057895
v -0.005582 0.015536 -0.057895
v -0.007521 0.010140 -0.057895
v -0.008760 0.003644 -0.052632
v -0.008552 -0.005555 -0.057895
v -0.007521 -0.015996 -0.057895
v -0.005582 -0.024507 -0.057895
v -0.002970 -0.030062 -0.057895
v 0.000000 -0.031991 -0.057895
v 0.002970 -0.030062 -0.057895
v 0.005582 -0.024507 -0.057895
v 0.007521 -0.015996 -0.057895
v 0.008552 -0.005555 -0.057895
v 0.008760 0.003644 -0.052632
v 0.007521 0.010140 -0.057895
v 0.005582 0.015536 -0.057895
v 0.002970 0.019058 -0.057895
v 0.000000 0.019474 -0.063158
v -0.002869 0.018299 -0.063158
v -0.005393 0.014918 -0.063158
v -0.007265 0.009737 -0.063158
v -0.008552 0.003522 -0.057895
v -0.008262 -0.005287 -0.063158
v -0.007265 -0.015224 -0.063158
v -0.005393 -0.023324 -0.063158
v -0.002869 -0.028611 -0.063158
v 0.000000 -0.030447 -0.063158
v 0.002869 -0.028611 -0.063158
v 0.005393 -0.023324 -0.063158
v 0.007265 -0.015224 -0.063158
v 0.008262 -0.005287 -0.063158
v 0.008552 0.003522 -0.057895
v 0.007265 0.009737 -0.063158
v 0.005393 0.014918 -0.063158
v 0.002869 0.018299 -0.063158
v 0.000000 0.018596 -0.068421
v -0.002749 0.017475 -0.068421
v -0.005167 0.014246 -0.068421
v -0.006962 0.009298 -0.068421
v -0.008262 0.003382 -0.063158
v -0.007916 -0.004982 -0.068421
v -0.006962 -0.014346 -0.068421
v -0.005167 -0.021980 -0.068421
v -0.002749 -0.026963 -0.068421
v 0.000000 -0.028693 -0.068421
v 0.002749 -0.026963 -0.068421
v 0.005167 -0.021980 -0.068421
v 0.006962 -0.014346 -0.068421
v 0.007916 -0.004982 -0.068421
v 0.008262 0.003382 -0.063158
v 0.006962 0.009298 -0.068421
v 0.005167 0.014246 -0.068421
v 0.002749 0.017475 -0.068421
v 0.000000 0.017719 -0.073684
v -0.002629 0.016651 -0.073684
v -0.004942 0.013574 -0.073684
v -0.006658 0.008860 -0.073684
v -0.007916 0.003229 -0.068421
v -0.007571 -0.004678 -0.073684
v -0.006658 -0.013469 -0.073684
v -0.004942 -0.020636 -0.073684
v -0.002629 -0.025314 -0.073684
v 0.000000 -0.026939 -0.073684
v 0.002629 -0.025314 -0.073684
v 0.004942 -0.020636 -0.073684
v 0.006658 -0.013469 -0.073684
v 0.007571 -0.004678 -0.073684
v 0.007916 0.003229 -0.068421
v 0.006658 0.008860 -0.073684
v 0.004942 0.013574 -0.073684
v 0.002629 0.016651 -0.073684
v 0.000000 0.016437 -0.078947
v -0.002433 0.015446 -0.078947
v -0.004573 0.012592 -0.078947
v -0.006161 0.008219 -0.078947
v -0.007571 0.003077 -0.073684
v -0.007006 -0.004180 -0.078947
v -0.006161 -0.012035 -0.078947
v -0.004573 -0.018439 -0.078947
v -0.002433 -0.022619 -0.078947
v 0.000000 -0.024071 -0.078947
v 0.002433 -0.022619 -0.078947
v 0.004573 -0.018439 -0.078947
v 0.006161 -0.012035 -0.078947
v 0.007006 -0.004180 -0.078947
v 0.007571 0.003077 -0.073684
v 0.006161 0.008219 -0.078947
v 0.004573 0.012592 -0.078947
v 0.002433 0.015446 -0.078947
v 0.000000 0.015020 -0.084211
v -0.002212 0.014114 -0.084211
v -0.004157 0.011506 -0.084211
v -0.005600 0.007510 -0.084211
v -0.007006 0.002854 -0.078947
v -0.006368 -0.003617 -0.084211
v -0.005600 -0.010416 -0.084211
v -0.004157 -0.015958 -0.084211
v -0.002212 -0.019576 -0.084211
v 0.000000 -0.020832 -0.084211
v 0.002212 -0.019576 -0.084211
v 0.004157 -0.015958 -0.084211
v 0.005600 -0.010416 -0.084211
v 0.006368 -0.003617 -0.084211
v 0.007006 0.002854 -0.078947
v 0.005600 0.007510 -0.084211
v 0.004157 0.011506 -0.084211
v 0.002212 0.014114 -0.084211
v 0.000000 0.013570 -0.089474
v -0.001993 0.012752 -0.089474
v -0.003746 0.010395 -0.089474
v -0.005047 0.006785 -0.089474
v -0.006368 0.002608 -0.084211
v -0.005740 -0.003063 -0.089474
v -0.005047 -0.008820 -0.089474
v -0.003746 -0.013513 -0.089474
v -0.001993 -0.016577 -0.089474
v 0.000000 -0.017640 -0.089474
v 0.001993 -0.016577 -0.089474
v 0.003746 -0.013513 -0.089474
v 0.005047 -0.008820 -0.089474
v 0.005740 -0.003063 -0.089474
v 0.006368 0.002608 -0.084211
v 0.005047 0.006785 -0.089474
v 0.003746 0.010395 -0.089474
v 0.001993 0.012752 -0.089474
v 0.000000 0.012035 -0.094737
v -0.001783 0.011309 -0.094737
v -0.003352 0.009219 -0.094737
v -0.004515 0.006018 -0.094737
v -0.005740 0.002356 -0.089474
v -0.005135 -0.002530 -0.094737
v -0.004515 -0.007285 -0.094737
v -0.003352 -0.011161 -0.094737
v -0.001783 -0.013691 -0.094737
v 0.000000 -0.014570 -0.094737
v 0.001783 -0.013691 -0.094737
v 0.003352 -0.011161 -0.094737
v 0.004515 -0.007285 -0.094737
v 0.005135 -0.002530 -0.094737
v 0.005740 0.002356 -0.089474
v 0.004515 0.006018 -0.094737
v 0.003352 0.009219 -0.094737
v 0.001783 0.011309 -0.094737
v 0.000000 0.010500 -0.100000
v -0.001573 0.009867 -0.100000
v -0.002957 0.008043 -0.100000
v -0.003984 0.005250 -0.100000
v -0.005135 0.002090 -0.094737
v -0.004530 -0.001997 -0.100000
v -0.003984 -0.005750 -0.100000
v -0.002957 -0.008810 -0.100000
v -0.001573 -0.010806 -0.100000
v 0.000000 -0.011500 -0.100000
v 0.001573 -0.010806 -0.100000
v 0.002957 -0.008810 -0.100000
v 0.003984 -0.005750 -0.100000
v 0.004530 -0.001997 -0.100000
v 0.005135 0.002090 -0.094737
v 0.003984 0.005250 -0.100000
v 0.002957 0.008043 -0.100000
v 0.001573 0.009867 -0.100000
v 0.000000 0.000000 0.001600
v 0.000000 -0.000000 -0.100000
v -0.004530 0.001823 -0.100000
v 0.004530 0.001823 -0.100000
vn -0.0000 0.4574 0.8893
vn -0.4770 0.7105 0.5173
vn -0.2590 0.4318 0.8640
vn -0.7716 0.5016 0.3912
vn -0.4825 0.3495 0.8031
vn -0.9193 0.2940 0.2617
vn -0.6333 0.2230 0.7410
vn -0.9788 0.0989 0.1794
vn -0.7041 0.0793 0.7057
vn -0.7004 -0.0670 0.7106
vn -0.9782 -0.0807 0.1912
vn -0.6235 -0.1819 0.7603
vn -0.9191 -0.2256 0.3229
vn -0.4513 -0.2800 0.8473
vn -0.7749 -0.3745 0.5092
vn -0.2216 -0.3227 0.9202
vn -0.4908 -0.5351 0.6876
vn -0.0000 -0.3288 0.9444
vn 0.4908 -0.5351 0.6876
vn 0.2216 -0.3227 0.9202
vn 0.7749 -0.3745 0.5092
vn 0.4513 -0.2800 0.8473
vn 0.9191 -0.2256 0.3229
vn 0.6235 -0.1819 0.7603
vn 0.9782 -0.0807 0.1912
vn 0.7004 -0.0670 0.7106
vn 0.9788 0.0989 0.1794
vn 0.7041 0.0793 0.7057
vn 0.6333 0.2230 0.7410
vn 0.9193 0.2940 0.2617
vn 0.4825 0.3495 0.8031
vn 0.7716 0.5016 0.3912
vn 0.2590 0.4318 0.8640
vn 0.4770 0.7105 0.5173
vn -0.0000 0.8187 0.5742
vn -0.5571 0.7806 0.2834
vn -0.8445 0.5034 0.1826
vn -0.9557 0.2737 0.1084
vn -0.9936 0.0876 0.0716
vn -0.9950 -0.0646 0.0765
vn -0.9688 -0.2010 0.1447
vn -0.8812 -0.3771 0.2851
vn -0.6146 -0.6195 0.4884
vn -0.0000 -0.6313 0.7755
vn 0.6146 -0.6195 0.4884
vn 0.8812 -0.3771 0.2851
vn 0.9688 -0.2010 0.1447
vn 0.9950 -0.0646 0.0765
vn 0.9936 0.0876 0.0716
vn 0.9557 0.2737 0.1084
vn 0.8445 0.5034 0.1826
vn 0.5571 0.7806 0.2834
vn -0.0000 0.9402 0.3407
vn -0.5850 0.7965 0.1530
vn -0.8644 0.4942 0.0931
vn -0.9634 0.2631 0.0512
vn -0.9961 0.0832 0.0309
vn -0.9977 -0.0583 0.0339
vn -0.9797 -0.1859 0.0747
vn -0.9162 -0.3651 0.1649
vn -0.6791 -0.6629 0.3152
vn -0.0000 -0.7872 0.6167
vn 0.6791 -0.6629 0.3152
vn 0.9162 -0.3651 0.1649
vn 0.9797 -0.1859 0.0747
vn 0.9977 -0.0583 0.0339
vn 0.9961 0.0832 0.0309
vn 0.9634 0.2631 0.0512
vn 0.8644 0.4942 0.0931
vn 0.5850 0.7965 0.1530
vn -0.0000 0.9822 0.1879
vn -0.6033 0.7940 0.0755
vn -0.8749 0.4826 0.0411
vn -0.9668 0.2547 0.0188
vn -0.9968 0.0801 0.0084
vn -0.9985 -0.0536 0.0101
vn -0.9845 -0.1724 0.0325
vn -0.9348 -0.3450 0.0845
vn -0.7239 -0.6637 0.1884
vn -0.0000 -0.9102 0.4141
vn 0.7239 -0.6637 0.1884
vn 0.9348 -0.3450 0.0845
vn 0.9845 -0.1724 0.0325
vn 0.9985 -0.0536 0.0101
vn 0.9968 0.0801 0.0084
vn 0.9668 0.2547 0.0188
vn 0.8749 0.4826 0.0411
vn 0.6033 0.7940 0.0755
vn -0.0000 0.9952 0.0979
vn -0.6090 0.7909 0.0596
vn -0.8785 0.4767 0.0308
vn -0.9680 0.2506 0.0120
vn -0.9969 0.0786 0.0032
vn -0.9987 -0.0515 0.0046
vn -0.9858 -0.1665 0.0234
vn -0.9396 -0.3355 0.0673
vn -0.7355 -0.6593 0.1558
vn -0.0000 -0.9593 0.2823
vn 0.7355 -0.6593 0.1558
vn 0.9396 -0.3355 0.0673
vn 0.9858 -0.1665 0.0234
vn 0.9987 -0.0515 0.0046
vn 0.9969 0.0786 0.0032
vn 0.9680 0.2506 0.0120
vn 0.8785 0.4767 0.0308
vn 0.6090 0.7909 0.0596
vn -0.0000 0.9969 0.0781
vn -0.6128 0.7902 0.0076
vn -0.8812 0.4727 -0.0023
vn -0.9688 0.2475 -0.0099
vn -0.9969 0.0774 -0.0141
vn -0.9987 -0.0499 -0.0134
vn -0.9867 -0.1626 -0.0045
vn -0.9438 -0.3302 0.0148
vn -0.7451 -0.6650 0.0506
vn -0.0000 -0.9721 0.2345
vn 0.7451 -0.6650 0.0506
vn 0.9438 -0.3302 0.0148
vn 0.9867 -0.1626 -0.0045
vn 0.9987 -0.0499 -0.0134
vn 0.9969 0.0774 -0.0141
vn 0.9688 0.2475 -0.0099
vn 0.8812 0.4727 -0.0023
vn 0.6128 0.7902 0.0076
vn -0.0000 0.9994 -0.0339
vn -0.0000 0.9999 0.0131
vn -0.6181 0.7855 -0.0304
vn -0.8837 0.4673 -0.0270
vn -0.9694 0.2441 -0.0263
vn -0.9968 0.0761 -0.0265
vn -0.9872 -0.1577 -0.0253
vn -0.9469 -0.3207 -0.0243
vn -0.7579 -0.6518 -0.0274
vn -0.0000 -0.9994 -0.0346
vn -0.0000 -0.9969 0.0788
vn 0.7579 -0.6518 -0.0274
vn 0.9469 -0.3207 -0.0243
vn 0.9872 -0.1577 -0.0253
vn 0.9985 -0.0482 -0.0264
vn 0.9694 0.2441 -0.0263
vn 0.8837 0.4673 -0.0270
vn 0.6181 0.7855 -0.0304
vn -0.0000 0.9984 -0.0560
vn -0.6182 0.7845 -0.0478
vn -0.8839 0.4662 -0.0371
vn -0.9694 0.2433 -0.0319
vn -0.9967 0.0759 -0.0298
vn -0.9985 -0.0482 -0.0264
vn -0.9870 -0.1574 -0.0317
vn -0.9466 -0.3203 -0.0376
vn -0.7561 -0.6521 -0.0562
vn -0.0000 -0.9970 -0.0780
vn 0.7561 -0.6521 -0.0562
vn 0.9466 -0.3203 -0.0376
vn 0.9870 -0.1574 -0.0317
vn 0.9984 -0.0482 -0.0298
vn 0.9968 0.0761 -0.0265
vn 0.9694 0.2433 -0.0319
vn 0.8839 0.4662 -0.0371
vn 0.6182 0.7845 -0.0478
vn -0.0000 0.9945 -0.1045
vn -0.6166 0.7826 -0.0857
vn -0.8828 0.4661 -0.0590
vn -0.9689 0.2436 -0.0438
vn -0.9981 -0.0484 -0.0373
vn -0.9984 -0.0482 -0.0298
vn -0.9864 -0.1578 -0.0456
vn -0.9449 -0.3205 -0.0668
vn -0.7518 -0.6486 -0.1187
vn -0.0000 -0.9851 -0.1719
vn 0.7518 -0.6486 -0.1187
vn 0.9449 -0.3205 -0.0668
vn 0.9864 -0.1578 -0.0456
vn 0.9981 -0.0484 -0.0373
vn 0.9967 0.0759 -0.0298
vn 0.9689 0.2436 -0.0438
vn 0.8828 0.4661 -0.0590
vn 0.6166 0.7826 -0.0857
vn -0.0000 0.9913 -0.1313
vn -0.6148 0.7815 -0.1061
vn -0.8813 0.4673 -0.0706
vn -0.9683 0.2448 -0.0500
vn -0.9964 0.0762 -0.0372
vn -0.9979 -0.0487 -0.0415
vn -0.9859 -0.1585 -0.0528
vn -0.9436 -0.3208 -0.0819
vn -0.7500 -0.6438 -0.1514
vn -0.0000 -0.9742 -0.2256
vn 0.7500 -0.6438 -0.1514
vn 0.9436 -0.3208 -0.0819
vn 0.9859 -0.1585 -0.0528
vn 0.9979 -0.0487 -0.0415
vn 0.9964 0.0762 -0.0372
vn 0.9683 0.2448 -0.0500
vn 0.8813 0.4673 -0.0706
vn 0.6148 0.7815 -0.1061
vn -0.0000 0.9901 -0.1407
vn -0.6107 0.7835 -0.1150
vn -0.8788 0.4707 -0.0786
vn -0.9673 0.2469 -0.0580
vn -0.9962 0.0766 -0.0412
vn -0.9975 -0.0496 -0.0497
vn -0.9850 -0.1610 -0.0625
vn -0.9407 -0.3256 -0.0952
vn -0.7421 -0.6478 -0.1723
vn -0.0000 -0.9681 -0.2505
vn 0.7421 -0.6478 -0.1723
vn 0.9407 -0.3256 -0.0952
vn 0.9850 -0.1610 -0.0625
vn 0.9975 -0.0496 -0.0497
vn 0.9962 0.0766 -0.0412
vn 0.9673 0.2469 -0.0580
vn 0.8788 0.4707 -0.0786
vn 0.6107 0.7835 -0.1150
vn -0.0000 0.9875 -0.1574
vn -0.6077 0.7834 -0.1302
vn -0.8767 0.4721 -0.0923
vn -0.9661 0.2480 -0.0711
vn -0.9958 0.0773 -0.0492
vn -0.9967 -0.0502 -0.0632
vn -0.9835 -0.1630 -0.0782
vn -0.9373 -0.3285 -0.1164
vn -0.7345 -0.6467 -0.2056
vn -0.0000 -0.9554 -0.2955
vn 0.7345 -0.6467 -0.2056
vn 0.9373 -0.3285 -0.1164
vn 0.9835 -0.1630 -0.0782
vn 0.9967 -0.0502 -0.0632
vn 0.9958 0.0773 -0.0492
vn 0.9661 0.2480 -0.0711
vn 0.8767 0.4721 -0.0923
vn 0.6077 0.7834 -0.1302
vn -0.0000 0.9864 -0.1641
vn -0.6062 0.7835 -0.1364
vn -0.8756 0.4729 -0.0979
vn -0.9656 0.2486 -0.0765
vn -0.9950 0.0777 -0.0623
vn -0.9963 -0.0509 -0.0686
vn -0.9826 -0.1652 -0.0846
vn -0.9349 -0.3321 -0.1253
vn -0.7293 -0.6480 -0.2195
vn -0.0000 -0.9493 -0.3144
vn 0.7293 -0.6480 -0.2195
vn 0.9349 -0.3321 -0.1253
vn 0.9826 -0.1652 -0.0846
vn 0.9963 -0.0509 -0.0686
vn 0.9950 0.0777 -0.0623
vn 0.9656 0.2486 -0.0765
vn 0.8756 0.4729 -0.0979
vn 0.6062 0.7835 -0.1364
vn -0.0000 0.9801 -0.1987
vn -0.6005 0.7819 -0.1676
vn -0.8718 0.4740 -0.1232
vn -0.9633 0.2495 -0.0986
vn -0.9947 0.0778 -0.0676
vn -0.9945 -0.0526 -0.0905
vn -0.9789 -0.1700 -0.1130
vn -0.9253 -0.3397 -0.1687
vn -0.7068 -0.6468 -0.2865
vn -0.0000 -0.9222 -0.3866
vn 0.7068 -0.6468 -0.2865
vn 0.9253 -0.3397 -0.1687
vn 0.9789 -0.1700 -0.1130
vn 0.9945 -0.0526 -0.0905
vn 0.9947 0.0778 -0.0676
vn 0.9633 0.2495 -0.0986
vn 0.8718 0.4740 -0.1232
vn 0.6004 0.7819 -0.1676
vn -0.0000 0.9688 -0.2478
vn -0.5979 0.7736 -0.2098
vn -0.8687 0.4699 -0.1568
vn -0.9604 0.2476 -0.1281
vn -0.9930 0.0781 -0.0885
vn -0.9914 -0.0541 -0.1195
vn -0.9734 -0.1737 -0.1495
vn -0.9129 -0.3425 -0.2222
vn -0.6835 -0.6296 -0.3694
vn -0.0000 -0.8690 -0.4948
vn 0.6835 -0.6296 -0.3694
vn 0.9129 -0.3425 -0.2222
vn 0.9734 -0.1737 -0.1495
vn 0.9914 -0.0541 -0.1195
vn 0.9930 0.0781 -0.0885
vn 0.9604 0.2476 -0.1281
vn 0.8687 0.4699 -0.1568
vn 0.5979 0.7736 -0.2098
vn -0.0000 0.9648 -0.2630
vn -0.5984 0.7698 -0.2222
vn -0.8685 0.4671 -0.1658
vn -0.9598 0.2461 -0.1351
vn -0.9902 0.0775 -0.1165
vn -0.9904 -0.0567 -0.1261
vn -0.9705 -0.1810 -0.1593
vn -0.9045 -0.3538 -0.2380
vn -0.6665 -0.6347 -0.3911
vn -0.0000 -0.8553 -0.5181
vn 0.6665 -0.6347 -0.3911
vn 0.9045 -0.3538 -0.2380
vn 0.9705 -0.1810 -0.1593
vn 0.9904 -0.0567 -0.1261
vn 0.9902 0.0775 -0.1165
vn 0.9598 0.2461 -0.1351
vn 0.8685 0.4671 -0.1658
vn 0.5984 0.7698 -0.2222
vn -0.0000 0.9622 -0.2725
vn -0.5978 0.7681 -0.2293
vn -0.8683 0.4666 -0.1684
vn -0.9599 0.2461 -0.1342
vn -0.9895 0.0770 -0.1226
vn -0.9905 -0.0605 -0.1235
vn -0.9685 -0.1920 -0.1585
vn -0.8967 -0.3722 -0.2396
vn -0.6500 -0.6523 -0.3897
vn -0.0000 -0.8612 -0.5083
vn 0.6500 -0.6523 -0.3897
vn 0.8967 -0.3722 -0.2396
vn 0.9685 -0.1920 -0.1585
vn 0.9905 -0.0605 -0.1235
vn 0.9895 0.0770 -0.1226
vn 0.9599 0.2461 -0.1342
vn 0.8683 0.4666 -0.1684
vn 0.5978 0.7681 -0.2293
vn -0.0000 0.9601 -0.2795
vn -0.5955 0.7685 -0.2342
vn -0.8669 0.4687 -0.1698
vn -0.9596 0.2476 -0.1333
vn -0.9898 0.0772 -0.1199
vn -0.9903 -0.0657 -0.1222
vn -0.9650 -0.2074 -0.1602
vn -0.8844 -0.3970 -0.2455
vn -0.6263 -0.6737 -0.3922
vn -0.0000 -0.8664 -0.4994
vn 0.6263 -0.6737 -0.3922
vn 0.8844 -0.3970 -0.2455
vn 0.9650 -0.2074 -0.1602
vn 0.9903 -0.0657 -0.1222
vn 0.9898 0.0772 -0.1199
vn 0.9596 0.2476 -0.1333
vn 0.8669 0.4687 -0.1698
vn 0.5955 0.7685 -0.2342
vn -0.0000 0.6786 -0.7345
vn -0.4240 0.5283 -0.7356
vn -0.6000 0.3161 -0.7349
vn -0.6599 0.1669 -0.7326
vn -0.9900 0.0778 -0.1179
vn -0.6779 -0.0462 -0.7337
vn -0.6550 -0.1435 -0.7419
vn -0.5919 -0.2686 -0.7599
vn -0.4214 -0.4492 -0.7878
vn -0.0000 -0.5888 -0.8083
vn 0.4214 -0.4492 -0.7878
vn 0.5919 -0.2686 -0.7599
vn 0.6550 -0.1435 -0.7419
vn 0.6779 -0.0462 -0.7337
vn 0.9900 0.0778 -0.1179
vn 0.6599 0.1669 -0.7326
vn 0.6000 0.3161 -0.7349
vn 0.4240 0.5283 -0.7356
vn -0.0000 0.0046 1.0000
vn -0.0000 -0.0000 -1.0000
vn -0.6800 0.0524 -0.7313
vn 0.6800 0.0524 -0.7313
s 1
f 1//1 2//2 3//3
f 3//3 4//4 5//5
f 5//5 6//6 7//7
f 7//7 8//8 9//9
f 8//8 10//10 9//9
f 11//11 12//12 10//10
f 13//13 14//14 12//12
f 15//15 16//16 14//14
f 17//17 18//18 16//16
f 18//18 19//19 20//20
f 20//20 21//21 22//22
f 22//22 23//23 24//24
f 24//24 25//25 26//26
f 26//26 27//27 28//28
f 27//27 29//29 28//28
f 30//30 31//31 29//29
f 32//32 33//33 31//31
f 34//34 1//1 33//33
f 35//35 36//36 2//2
f 2//2 37//37 4//4
f 4//4 38//38 6//6
f 6//6 39//39 8//8
f 39//39 11//11 8//8
f 40//40 13//13 11//11
f 41//41 15//15 13//13
f 42//42 17//17 15//15
f 43//43 44//44 17//17
f 44//44 45//45 19//19
f 19//19 46//46 21//21
f 21//21 47//47 23//23
f 23//23 48//48 25//25
f 25//25 49//49 27//27
f 49//49 30//30 27//27
f 50//50 32//32 30//30
f 51//51 34//34 32//32
f 52//52 35//35 34//34
f 53//53 54//54 36//36
f 36//36 55//55 37//37
f 37//37 56//56 38//38
f 38//38 57//57 39//39
f 57//57 40//40 39//39
f 58//58 41//41 40//40
f 59//59 42//42 41//41
f 60//60 43//43 42//42
f 61//61 62//62 43//43
f 62//62 63//63 45//45
f 45//45 64//64 46//46
f 46//46 65//65 47//47
f 47//47 66//66 48//48
f 48//48 67//67 49//49
f 67//67 50//50 49//49
f 68//68 51//51 50//50
f 69//69 52//52 51//51
f 70//70 53//53 52//52
f 71//71 72//72 54//54
f 54//54 73//73 55//55
f 55//55 74//74 56//56
f 56//56 75//75 57//57
f 75//75 58//58 57//57
f 76//76 59//59 58//58
f 77//77 60//60 59//59
f 78//78 61//61 60//60
f 79//79 80//80 61//61
f 80//80 81//81 63//63
f 63//63 82//82 64//64
f 64//64 83//83 65//65
f 65//65 84//84 66//66
f 66//66 85//85 67//67
f 85//85 68//68 67//67
f 86//86 69//69 68//68
f 87//87 70//70 69//69
f 88//88 71//71 70//70
f 89//89 90//90 72//72
f 72//72 91//91 73//73
f 73//73 92//92 74//74
f 74//74 93//93 75//75
f 93//93 76//76 75//75
f 94//94 77//77 76//76
f 95//95 78//78 77//77
f 96//96 79//79 78//78
f 97//97 98//98 79//79
f 98//98 99//99 81//81
f 81//81 100//100 82//82
f 82//82 101//101 83//83
f 83//83 102//102 84//84
f 84//84 103//103 85//85
f 103//103 86//86 85//85
f 104//104 87//87 86//86
f 105//105 88//88 87//87
f 106//106 89//89 88//88
f 107//107 108//108 90//90
f 90//90 109//109 91//91
f 91//91 110//110 92//92
f 92//92 111//111 93//93
f 111//111 94//94 93//93
f 112//112 95//95 94//94
f 113//113 96//96 95//95
f 114//114 97//97 96//96
f 115//115 116//116 97//97
f 116//116 117//117 99//99
f 99//99 118//118 100//100
f 100//100 119//119 101//101
f 101//101 120//120 102//102
f 102//102 121//121 103//103
f 121//121 104//104 103//103
f 122//122 105//105 104//104
f 123//123 106//106 105//105
f 124//124 107//107 106//106
f 125//125 108//108 126//126
f 127//127 109//109 108//108
f 128//128 110//110 109//109
f 129//129 111//111 110//110
f 130//130 112//112 111//111
f 112//112 131//131 113//113
f 113//113 132//132 114//114
f 114//114 133//133 115//115
f 115//115 134//134 135//135
f 134//134 117//117 135//135
f 136//136 118//118 117//117
f 137//137 119//119 118//118
f 138//138 120//120 119//119
f 139//139 121//121 120//120
f 121//121 140//140 122//122
f 122//122 141//141 123//123
f 123//123 142//142 124//124
f 124//124 125//125 126//126
f 143//143 127//127 125//125
f 144//144 128//128 127//127
f 145//145 129//129 128//128
f 146//146 130//130 129//129
f 147//147 148//148 130//130
f 148//148 149//149 131//131
f 131//131 150//150 132//132
f 132//132 151//151 133//133
f 133//133 152//152 134//134
f 152//152 136//136 134//134
f 153//153 137//137 136//136
f 154//154 138//138 137//137
f 155//155 139//139 138//138
f 156//156 157//157 139//139
f 157//157 158//158 140//140
f 140//140 159//159 141//141
f 141//141 160//160 142//142
f 142//142 143//143 125//125
f 161//161 144//144 143//143
f 162//162 145//145 144//144
f 163//163 146//146 145//145
f 164//164 147//147 146//146
f 147//147 165//165 166//166
f 166//166 167//167 149//149
f 149//149 168//168 150//150
f 150//150 169//169 151//151
f 151//151 170//170 152//152
f 170//170 153//153 152//152
f 171//171 154//154 153//153
f 172//172 155//155 154//154
f 173//173 156//156 155//155
f 174//174 175//175 156//156
f 175//175 176//176 158//158
f 158//158 177//177 159//159
f 159//159 178//178 160//160
f 160//160 161//161 143//143
f 179//179 162//162 161//161
f 180//180 163//163 162//162
f 181//181 164//164 163//163
f 182//182 183//183 164//164
f 183//183 184//184 165//165
f 165//165 185//185 167//167
f 167//167 186//186 168//168
f 168//168 187//187 169//169
f 169//169 188//188 170//170
f 188//188 171//171 170//170
f 189//189 172//172 171//171
f 190//190 173//173 172//172
f 191//191 174//174 173//173
f 192//192 193//193 174//174
f 193//193 194//194 176//176
f 176//176 195//195 177//177
f 177//177 196//196 178//178
f 178//178 179//179 161//161
f 197//197 180//180 179//179
f 198//198 181//181 180//180
f 199//199 182//182 181//181
f 200//200 201//201 182//182
f 201//201 202//202 184//184
f 184//184 203//203 185//185
f 185//185 204//204 186//186
f 186//186 205//205 187//187
f 187//187 206//206 188//188
f 206//206 189//189 188//188
f 207//207 190//190 189//189
f 208//208 191//191 190//190
f 209//209 192//192 191//191
f 210//210 211//211 192//192
f 211//211 212//212 194//194
f 194//194 213//213 195//195
f 195//195 214//214 196//196
f 196//196 197//197 179//179
f 215//215 198//198 197//197
f 216//216 199//199 198//198
f 217//217 200//200 199//199
f 218//218 219//219 200//200
f 219//219 220//220 202//202
f 202//202 221//221 203//203
f 203//203 222//222 204//204
f 204//204 223//223 205//205
f 205//205 224//224 206//206
f 224//224 207//207 206//206
f 225//225 208//208 207//207
f 226//226 209//209 208//208
f 227//227 210//210 209//209
f 228//228 229//229 210//210
f 229//229 230//230 212//212
f 212//212 231//231 213//213
f 213//213 232//232 214//214
f 214//214 215//215 197//197
f 233//233 216//216 215//215
f 234//234 217//217 216//216
f 235//235 218//218 217//217
f 236//236 237//237 218//218
f 237//237 238//238 220//220
f 220//220 239//239 221//221
f 221//221 240//240 222//222
f 222//222 241//241 223//223
f 223//223 242//242 224//224
f 242//242 225//225 224//224
f 243//243 226//226 225//225
f 244//244 227//227 226//226
f 245//245 228//228 227//227
f 246//246 247//247 228//228
f 247//247 248//248 230//230
f 230//230 249//249 231//231
f 231//231 250//250 232//232
f 232//232 233//233 215//215
f 251//251 234//234 233//233
f 252//252 235//235 234//234
f 253//253 236//236 235//235
f 254//254 255//255 236//236
f 255//255 256//256 238//238
f 238//238 257//257 239//239
f 239//239 258//258 240//240
f 240//240 259//259 241//241
f 241//241 260//260 242//242
f 260//260 243//243 242//242
f 261//261 244//244 243//243
f 262//262 245//245 244//244
f 263//263 246//246 245//245
f 264//264 265//265 246//246
f 265//265 266//266 248//248
f 248//248 267//267 249//249
f 249//249 268//268 250//250
f 250//250 251//251 233//233
f 269//269 252//252 251//251
f 270//270 253//253 252//252
f 271//271 254//254 253//253
f 272//272 273//273 254//254
f 273//273 274//274 256//256
f 256//256 275//275 257//257
f 257//257 276//276 258//258
f 258//258 277//277 259//259
f 259//259 278//278 260//260
f 278//278 261//261 260//260
f 279//279 262//262 261//261
f 280//280 263//263 262//262
f 281//281 264//264 263//263
f 282//282 283//283 264//264
f 283//283 284//284 266//266
f 266//266 285//285 267//267
f 267//267 286//286 268//268
f 268//268 269//269 251//251
f 287//287 270//270 269//269
f 288//288 271//271 270//270
f 289//289 272//272 271//271
f 290//290 291//291 272//272
f 291//291 292//292 274//274
f 274//274 293//293 275//275
f 275//275 294//294 276//276
f 276//276 295//295 277//277
f 277//277 296//296 278//278
f 296//296 279//279 278//278
f 297//297 280//280 279//279
f 298//298 281//281 280//280
f 299//299 282//282 281//281
f 300//300 301//301 282//282
f 301//301 302//302 284//284
f 284//284 303//303 285//285
f 285//285 304//304 286//286
f 286//286 287//287 269//269
f 305//305 288//288 287//287
f 306//306 289//289 288//288
f 307//307 290//290 289//289
f 308//308 309//309 290//290
f 309//309 310//310 292//292
f 292//292 311//311 293//293
f 293//293 312//312 294//294
f 294//294 313//313 295//295
f 295//295 314//314 296//296
f 314//314 297//297 296//296
f 315//315 298//298 297//297
f 316//316 299//299 298//298
f 317//317 300//300 299//299
f 318//318 319//319 300//300
f 319//319 320//320 302//302
f 302//302 321//321 303//303
f 303//303 322//322 304//304
f 304//304 305//305 287//287
f 323//323 306//306 305//305
f 324//324 307//307 306//306
f 325//325 308//308 307//307
f 326//326 327//327 308//308
f 327//327 328//328 310//310
f 310//310 329//329 311//311
f 311//311 330//330 312//312
f 312//312 331//331 313//313
f 313//313 332//332 314//314
f 332//332 315//315 314//314
f 333//333 316//316 315//315
f 334//334 317//317 316//316
f 335//335 318//318 317//317
f 336//336 337//337 318//318
f 337//337 338//338 320//320
f 320//320 339//339 321//321
f 321//321 340//340 322//322
f 322//322 323//323 305//305
f 341//341 324//324 323//323
f 342//342 325//325 324//324
f 343//343 326//326 325//325
f 344//344 345//345 326//326
f 345//345 346//346 328//328
f 328//328 347//347 329//329
f 329//329 348//348 330//330
f 330//330 349//349 331//331
f 331//331 350//350 332//332
f 350//350 333//333 332//332
f 351//351 334//334 333//333
f 352//352 335//335 334//334
f 353//353 336//336 335//335
f 354//354 355//355 336//336
f 355//355 356//356 338//338
f 338//338 357//357 339//339
f 339//339 358//358 340//340
f 340//340 341//341 323//323
f 359//359 1//1 3//3
f 359//359 3//3 5//5
f 359//359 5//5 7//7
f 359//359 7//7 9//9
f 359//359 9//9 10//10
f 359//359 10//10 12//12
f 359//359 12//12 14//14
f 359//359 14//14 16//16
f 359//359 16//16 18//18
f 359//359 18//18 20//20
f 359//359 20//20 22//22
f 359//359 22//22 24//24
f 359//359 24//24 26//26
f 359//359 26//26 28//28
f 359//359 28//28 29//29
f 359//359 29//29 31//31
f 359//359 31//31 33//33
f 359//359 33//33 1//1
f 360//360 342//342 341//341
f 360//360 343//343 342//342
f 360//360 344//344 343//343
f 360//360 361//361 344//344
f 360//360 346//346 361//361
f 360//360 347//347 346//346
f 360//360 348//348 347//347
f 360//360 349//349 348//348
f 360//360 350//350 349//349
f 360//360 351//351 350//350
f 360//360 352//352 351//351
f 360//360 353//353 352//352
f 360//360 354//354 353//353
f 360//360 362//362 354//354
f 360//360 356//356 362//362
f 360//360 357//357 356//356
f 360//360 358//358 357//357
f 360//360 341//341 358//358
f 1//1 35//35 2//2
f 3//3 2//2 4//4
f 5//5 4//4 6//6
f 7//7 6//6 8//8
f 8//8 11//11 10//10
f 11//11 13//13 12//12
f 13//13 15//15 14//14
f 15//15 17//17 16//16
f 17//17 44//44 18//18
f 18//18 44//44 19//19
f 20//20 19//19 21//21
f 22//22 21//21 23//23
f 24//24 23//23 25//25
f 26//26 25//25 27//27
f 27//27 30//30 29//29
f 30//30 32//32 31//31
f 32//32 34//34 33//33
f 34//34 35//35 1//1
f 35//35 53//53 36//36
f 2//2 36//36 37//37
f 4//4 37//37 38//38
f 6//6 38//38 39//39
f 39//39 40//40 11//11
f 40//40 41//41 13//13
f 41//41 42//42 15//15
f 42//42 43//43 17//17
f 43//43 62//62 44//44
f 44//44 62//62 45//45
f 19//19 45//45 46//46
f 21//21 46//46 47//47
f 23//23 47//47 48//48
f 25//25 48//48 49//49
f 49//49 50//50 30//30
f 50//50 51//51 32//32
f 51//51 52//52 34//34
f 52//52 53//53 35//35
f 53//53 71//71 54//54
f 36//36 54//54 55//55
f 37//37 55//55 56//56
f 38//38 56//56 57//57
f 57//57 58//58 40//40
f 58//58 59//59 41//41
f 59//59 60//60 42//42
f 60//60 61//61 43//43
f 61//61 80//80 62//62
f 62//62 80//80 63//63
f 45//45 63//63 64//64
f 46//46 64//64 65//65
f 47//47 65//65 66//66
f 48//48 66//66 67//67
f 67//67 68//68 50//50
f 68//68 69//69 51//51
f 69//69 70//70 52//52
f 70//70 71//71 53//53
f 71//71 89//89 72//72
f 54//54 72//72 73//73
f 55//55 73//73 74//74
f 56//56 74//74 75//75
f 75//75 76//76 58//58
f 76//76 77//77 59//59
f 77//77 78//78 60//60
f 78//78 79//79 61//61
f 79//79 98//98 80//80
f 80//80 98//98 81//81
f 63//63 81//81 82//82
f 64//64 82//82 83//83
f 65//65 83//83 84//84
f 66//66 84//84 85//85
f 85//85 86//86 68//68
f 86//86 87//87 69//69
f 87//87 88//88 70//70
f 88//88 89//89 71//71
f 89//89 107//107 90//90
f 72//72 90//90 91//91
f 73//73 91//91 92//92
f 74//74 92//92 93//93
f 93//93 94//94 76//76
f 94//94 95//95 77//77
f 95//95 96//96 78//78
f 96//96 97//97 79//79
f 97//97 116//116 98//98
f 98//98 116//116 99//99
f 81//81 99//99 100//100
f 82//82 100//100 101//101
f 83//83 101//101 102//102
f 84//84 102//102 103//103
f 103//103 104//104 86//86
f 104//104 105//105 87//87
f 105//105 106//106 88//88
f 106//106 107//107 89//89
f 107//107 126//126 108//108
f 90//90 108//108 109//109
f 91//91 109//109 110//110
f 92//92 110//110 111//111
f 111//111 112//112 94//94
f 112//112 113//113 95//95
f 113//113 114//114 96//96
f 114//114 115//115 97//97
f 115//115 135//135 116//116
f 116//116 135//135 117//117
f 99//99 117//117 118//118
f 100//100 118//118 119//119
f 101//101 119//119 120//120
f 102//102 120//120 121//121
f 121//121 122//122 104//104
f 122//122 123//123 105//105
f 123//123 124//124 106//106
f 124//124 126//126 107//107
f 125//125 127//127 108//108
f 127//127 128//128 109//109
f 128//128 129//129 110//110
f 129//129 130//130 111//111
f 130//130 148//148 112//112
f 112//112 148//148 131//131
f 113//113 131//131 132//132
f 114//114 132//132 133//133
f 115//115 133//133 134//134
f 134//134 136//136 117//117
f 136//136 137//137 118//118
f 137//137 138//138 119//119
f 138//138 139//139 120//120
f 139//139 157//157 121//121
f 121//121 157//157 140//140
f 122//122 140//140 141//141
f 123//123 141//141 142//142
f 124//124 142//142 125//125
f 143//143 144//144 127//127
f 144//144 145//145 128//128
f 145//145 146//146 129//129
f 146//146 147//147 130//130
f 147//147 166//166 148//148
f 148//148 166//166 149//149
f 131//131 149//149 150//150
f 132//132 150//150 151//151
f 133//133 151//151 152//152
f 152//152 153//153 136//136
f 153//153 154//154 137//137
f 154//154 155//155 138//138
f 155//155 156//156 139//139
f 156//156 175//175 157//157
f 157//157 175//175 158//158
f 140//140 158//158 159//159
f 141//141 159//159 160//160
f 142//142 160//160 143//143
f 161//161 162//162 144//144
f 162//162 163//163 145//145
f 163//163 164//164 146//146
f 164//164 183//183 147//147
f 147//147 183//183 165//165
f 166//166 165//165 167//167
f 149//149 167//167 168//168
f 150//150 168//168 169//169
f 151//151 169//169 170//170
f 170//170 171//171 153//153
f 171//171 172//172 154//154
f 172//172 173//173 155//155
f 173//173 174//174 156//156
f 174//174 193//193 175//175
f 175//175 193//193 176//176
f 158//158 176//176 177//177
f 159//159 177//177 178//178
f 160//160 178//178 161//161
f 179//179 180//180 162//162
f 180//180 181//181 163//163
f 181//181 182//182 164//164
f 182//182 201//201 183//183
f 183//183 201//201 184//184
f 165//165 184//184 185//185
f 167//167 185//185 186//186
f 168//168 186//186 187//187
f 169//169 187//187 188//188
f 188//188 189//189 171//171
f 189//189 190//190 172//172
f 190//190 191//191 173//173
f 191//191 192//192 174//174
f 192//192 211//211 193//193
f 193//193 211//211 194//194
f 176//176 194//194 195//195
f 177//177 195//195 196//196
f 178//178 196//196 179//179
f 197//197 198//198 180//180
f 198//198 199//199 181//181
f 199//199 200//200 182//182
f 200//200 219//219 201//201
f 201//201 219//219 202//202
f 184//184 202//202 203//203
f 185//185 203//203 204//204
f 186//186 204//204 205//205
f 187//187 205//205 206//206
f 206//206 207//207 189//189
f 207//207 208//208 190//190
f 208//208 209//209 191//191
f 209//209 210//210 192//192
f 210//210 229//229 211//211
f 211//211 229//229 212//212
f 194//194 212//212 213//213
f 195//195 213//213 214//214
f 196//196 214//214 197//197
f 215//215 216//216 198//198
f 216//216 217//217 199//199
f 217//217 218//218 200//200
f 218//218 237//237 219//219
f 219//219 237//237 220//220
f 202//202 220//220 221//221
f 203//203 221//221 222//222
f 204//204 222//222 223//223
f 205//205 223//223 224//224
f 224//224 225//225 207//207
f 225//225 226//226 208//208
f 226//226 227//227 209//209
f 227//227 228//228 210//210
f 228//228 247//247 229//229
f 229//229 247//247 230//230
f 212//212 230//230 231//231
f 213//213 231//231 232//232
f 214//214 232//232 215//215
f 233//233 234//234 216//216
f 234//234 235//235 217//217
f 235//235 236//236 218//218
f 236//236 255//255 237//237
f 237//237 255//255 238//238
f 220//220 238//238 239//239
f 221//221 239//239 240//240
f 222//222 240//240 241//241
f 223//223 241//241 242//242
f 242//242 243//243 225//225
f 243//243 244//244 226//226
f 244//244 245//245 227//227
f 245//245 246//246 228//228
f 246//246 265//265 247//247
f 247//247 265//265 248//248
f 230//230 248//248 249//249
f 231//231 249//249 250//250
f 232//232 250//250 233//233
f 251//251 252//252 234//234
f 252//252 253//253 235//235
f 253//253 254//254 236//236
f 254//254 273//273 255//255
f 255//255 273//273 256//256
f 238//238 256//256 257//257
f 239//239 257//257 258//258
f 240//240 258//258 259//259
f 241//241 259//259 260//260
f 260//260 261//261 243//243
f 261//261 262//262 244//244
f 262//262 263//263 245//245
f 263//263 264//264 246//246
f 264//264 283//283 265//265
f 265//265 283//283 266//266
f 248//248 266//266 267//267
f 249//249 267//267 268//268
f 250//250 268//268 251//251
f 269//269 270//270 252//252
f 270//270 271//271 253//253
f 271//271 272//272 254//254
f 272//272 291//291 273//273
f 273//273 291//291 274//274
f 256//256 274//274 275//275
f 257//257 275//275 276//276
f 258//258 276//276 277//277
f 259//259 277//277 278//278
f 278//278 279//279 261//261
f 279//279 280//280 262//262
f 280//280 281//281 263//263
f 281//281 282//282 264//264
f 282//282 301//301 283//283
f 283//283 301//301 284//284
f 266//266 284//284 285//285
f 267//267 285//285 286//286
f 268//268 286//286 269//269
f 287//287 288//288 270//270
f 288//288 289//289 271//271
f 289//289 290//290 272//272
f 290//290 309//309 291//291
f 291//291 309//309 292//292
f 274//274 292//292 293//293
f 275//275 293//293 294//294
f 276//276 294//294 295//295
f 277//277 295//295 296//296
f 296//296 297//297 279//279
f 297//297 298//298 280//280
f 298//298 299//299 281//281
f 299//299 300//300 282//282
f 300//300 319//319 301//301
f 301//301 319//319 302//302
f 284//284 302//302 303//303
f 285//285 303//303 304//304
f 286//286 304//304 287//287
f 305//305 306//306 288//288
f 306//306 307//307 289//289
f 307//307 308//308 290//290
f 308//308 327//327 309//309
f 309//309 327//327 310//310
f 292//292 310//310 311//311
f 293//293 311//311 312//312
f 294//294 312//312 313//313
f 295//295 313//313 314//314
f 314//314 315//315 297//297
f 315//315 316//316 298//298
f 316//316 317//317 299//299
f 317//317 318//318 300//300
f 318//318 337//337 319//319
f 319//319 337//337 320//320
f 302//302 320//320 321//321
f 303//303 321//321 322//322
f 304//304 322//322 305//305
f 323//323 324//324 306//306
f 324//324 325//325 307//307
f 325//325 326//326 308//308
f 326//326 345//345 327//327
f 327//327 345//345 328//328
f 310//310 328//328 329//329
f 311//311 329//329 330//330
f 312//312 330//330 331//331
f 313//313 331//331 332//332
f 332//332 333//333 315//315
f 333//333 334//334 316//316
f 334//334 335//335 317//317
f 335//335 336//336 318//318
f 336//336 355//355 337//337
f 337//337 355//355 338//338
f 320//320 338//338 339//339
f 321//321 339//339 340//340
f 322//322 340//340 323//323
f 341//341 342//342 324//324
f 342//342 343//343 325//325
f 343//343 344//344 326//326
f 344//344 361//361 345//345
f 345//345 361//361 346//346
f 328//328 346//346 347//347
f 329//329 347//347 348//348
f 330//330 348//348 349//349
f 331//331 349//349 350//350
f 350//350 351//351 333//333
f 351//351 352//352 334//334
f 352//352 353//353 335//335
f 353//353 354//354 336//336
f 354//354 362//362 355//355
f 355//355 362//362 356//356
f 338//338 356//356 357//357
f 339//339 357//357 358//358
f 340//340 358//358 341//341
