# JIB VI - the chest_lid parts, as a standalone mesh.
#
# One file per material rather than one library addressed with `#group`:
# selecting a group recentres it on its own bounding box, which takes a
# model apart when the library IS one model. A whole-file import keeps
# the authored coordinates. See loom_asset/src/mesh.rs:268.
v -8.475000 1.140000 -1.270000
v -9.225000 1.140000 1.270000
v -9.225000 1.140000 -1.270000
v -8.475000 1.195000 1.270000
v -9.225000 1.195000 -1.270000
v -9.225000 1.195000 1.270000
v -8.475000 1.140000 1.270000
v -8.475000 1.195000 -1.270000
v -9.225000 1.090000 -1.230000
v -9.265000 1.090000 1.230000
v -9.265000 1.090000 -1.230000
v -9.225000 1.140000 1.230000
v -9.265000 1.140000 -1.230000
v -9.265000 1.140000 1.230000
v -9.225000 1.090000 1.230000
v -9.225000 1.140000 -1.230000
vt 0.129117 0.254908
vt 0.127861 0.259164
vt 0.127861 0.254908
vt 0.118256 0.254908
vt 0.116999 0.259164
vt 0.116999 0.254908
vt 0.452971 0.351028
vt 0.453063 0.352281
vt 0.452971 0.352281
vt 0.103763 0.285431
vt 0.103855 0.289583
vt 0.103763 0.289583
vt 0.452970 0.414767
vt 0.453063 0.416009
vt 0.452970 0.416010
vt 0.281521 0.155939
vt 0.281429 0.151686
vt 0.281521 0.151686
vt 0.204712 0.285431
vt 0.204644 0.289552
vt 0.204644 0.285431
vt 0.214383 0.285431
vt 0.214316 0.289552
vt 0.214316 0.285431
vt 0.255497 0.888774
vt 0.255564 0.888690
vt 0.255564 0.888774
vt 0.243329 0.285431
vt 0.243413 0.289452
vt 0.243329 0.289452
vt 0.313435 0.888774
vt 0.313502 0.888691
vt 0.313502 0.888774
vt 0.174155 0.289550
vt 0.174071 0.285431
vt 0.174155 0.285431
vt 0.129117 0.259164
vt 0.118256 0.259164
vt 0.453063 0.351027
vt 0.103855 0.285431
vt 0.453063 0.414767
vt 0.281429 0.155939
vt 0.204712 0.289552
vt 0.214383 0.289552
vt 0.255497 0.888690
vt 0.243413 0.285431
vt 0.313435 0.888690
vt 0.174071 0.289550
vn -0.0000 -1.0000 -0.0000
vn -0.0000 1.0000 -0.0000
vn -0.0000 -0.0000 1.0000
vn 1.0000 -0.0000 -0.0000
vn -0.0000 -0.0000 -1.0000
vn -1.0000 -0.0000 -0.0000
f 1/1/1 2/2/1 3/3/1
f 4/4/2 5/5/2 6/6/2
f 7/7/3 6/8/3 2/9/3
f 1/10/4 4/11/4 7/12/4
f 3/13/5 8/14/5 1/15/5
f 2/16/6 5/17/6 3/18/6
f 9/19/1 10/20/1 11/21/1
f 12/22/2 13/23/2 14/24/2
f 15/25/3 14/26/3 10/27/3
f 9/28/4 12/29/4 15/30/4
f 11/31/5 16/32/5 9/33/5
f 10/34/6 13/35/6 11/36/6
f 1/1/1 7/37/1 2/2/1
f 4/4/2 8/38/2 5/5/2
f 7/7/3 4/39/3 6/8/3
f 1/10/4 8/40/4 4/11/4
f 3/13/5 5/41/5 8/14/5
f 2/16/6 6/42/6 5/17/6
f 9/19/1 15/43/1 10/20/1
f 12/22/2 16/44/2 13/23/2
f 15/25/3 12/45/3 14/26/3
f 9/28/4 16/46/4 12/29/4
f 11/31/5 13/47/5 16/32/5
f 10/34/6 14/48/6 13/35/6
