# JIB VI — the gold parts, as a standalone mesh.
#
# One file per material rather than one library addressed with `#group`:
# selecting a group recentres it on its own bounding box, which takes a
# model apart when the library IS one model. A whole-file import keeps
# the authored coordinates. See loom_asset/src/mesh.rs:268.
v 1.414989 3.940000 -2.705000
v 1.414989 3.685746 -2.705000
v 1.378454 3.685746 -2.705000
v 1.378454 3.940000 -2.705000
v 1.555537 3.761425 -2.705000
v 1.551063 3.683509 -2.705000
v 1.443322 3.940000 -2.705000
v 1.479484 3.940000 -2.705000
v 1.558520 3.683509 -2.705000
v 1.668498 3.940000 -2.705000
v 1.631963 3.940000 -2.705000
v 1.917533 3.718553 -2.705000
v 1.917533 3.798333 -2.705000
v 1.954068 3.685746 -2.705000
v 1.954068 3.940000 -2.705000
v 1.883980 3.907193 -2.705000
v 1.880252 3.940000 -2.705000
v 1.917533 3.907193 -2.705000
v 1.893300 3.831140 -2.705000
v 1.917533 3.831140 -2.705000
v 1.839616 3.871776 -2.705000
v 1.840734 3.820702 -2.705000
v 1.801962 3.875132 -2.705000
v 1.779594 3.753597 -2.705000
v 1.817248 3.758816 -2.705000
v 1.866831 3.685746 -2.705000
v 1.871678 3.718553 -2.705000
v 1.840734 3.819956 -2.705000
v 1.873541 3.798333 -2.705000
v 2.046897 3.940000 -2.705000
v 2.046897 3.685746 -2.705000
v 2.010362 3.685746 -2.705000
v 2.010362 3.940000 -2.705000
v 2.173651 3.600000 -2.705000
v 2.182226 3.634671 -2.705000
v 2.184835 3.600746 -2.705000
v 2.191546 3.634671 -2.705000
v 2.103563 3.682763 -2.705000
v 2.103563 3.940000 -2.705000
v 2.140099 3.693575 -2.705000
v 2.140099 3.940000 -2.705000
v 2.155011 3.940000 2.705000
v 2.155011 3.685746 2.705000
v 2.191546 3.685746 2.705000
v 2.191546 3.940000 2.705000
v 2.014462 3.761425 2.705000
v 2.018936 3.683509 2.705000
v 2.126678 3.940000 2.705000
v 2.090515 3.940000 2.705000
v 2.011480 3.683509 2.705000
v 1.901502 3.940000 2.705000
v 1.938037 3.940000 2.705000
v 1.652467 3.718553 2.705000
v 1.652467 3.798333 2.705000
v 1.615932 3.685746 2.705000
v 1.615932 3.940000 2.705000
v 1.686020 3.907193 2.705000
v 1.689748 3.940000 2.705000
v 1.652467 3.907193 2.705000
v 1.676699 3.831140 2.705000
v 1.652467 3.831140 2.705000
v 1.730384 3.871776 2.705000
v 1.729265 3.820702 2.705000
v 1.768037 3.875132 2.705000
v 1.790406 3.753597 2.705000
v 1.752752 3.758816 2.705000
v 1.703169 3.685746 2.705000
v 1.698322 3.718553 2.705000
v 1.729265 3.819956 2.705000
v 1.696458 3.798333 2.705000
v 1.523103 3.940000 2.705000
v 1.523103 3.685746 2.705000
v 1.559638 3.685746 2.705000
v 1.559638 3.940000 2.705000
v 1.396349 3.600000 2.705000
v 1.387774 3.634671 2.705000
v 1.385164 3.600746 2.705000
v 1.378454 3.634671 2.705000
v 1.466436 3.682763 2.705000
v 1.466436 3.940000 2.705000
v 1.429901 3.693575 2.705000
v 1.429901 3.940000 2.705000
v 4.313673 1.284341 -2.435729
v 4.314894 0.820737 -2.021957
v 4.248693 0.815980 -2.049824
v 4.247050 1.279199 -2.459266
v 4.571588 0.979375 -2.042295
v 4.563759 0.836886 -1.916789
v 4.365340 1.288398 -2.417538
v 4.431283 1.293666 -2.394399
v 4.577355 0.838027 -1.910986
v 4.777161 1.321555 -2.265203
v 4.709868 1.316391 -2.292040
v 5.234535 0.962671 -1.674407
v 5.234108 1.107372 -1.812008
v 5.301158 0.909658 -1.583233
v 5.300169 1.371815 -2.037753
v 5.171035 1.298648 -2.036708
v 5.164237 1.357793 -2.101144
v 5.232220 1.304807 -2.009750
v 5.188622 1.162368 -1.891685
v 5.232810 1.166826 -1.871400
v 5.090717 1.226694 -2.009758
v 5.093250 1.134317 -1.917754
v 5.022055 1.226162 -2.047655
v 4.980787 1.001461 -1.854707
v 5.050451 1.017621 -1.830595
v 5.141171 0.893513 -1.663092
v 5.149705 0.953928 -1.714524
v 5.093250 1.132957 -1.916448
v 5.153074 1.099428 -1.850007
v 5.468826 1.388929 -1.956866
v 5.471176 0.927407 -1.493725
v 5.403811 0.920362 -1.529482
v 5.402203 1.381854 -1.988425
v 5.703402 0.797393 -1.223828
v 5.719038 0.862364 -1.271884
v 5.723796 0.801033 -1.212927
v 5.736033 0.864268 -1.261774
v 5.574560 0.933917 -1.432759
v 5.573306 1.400422 -1.902312
v 5.641182 0.960944 -1.414106
v 5.639259 1.407028 -1.868372
v 5.666452 1.410038 1.854780
v 5.668375 0.949678 1.386342
v 5.735552 0.956997 1.346871
v 5.734054 1.417752 1.819573
v 5.410907 1.058795 1.656856
v 5.419447 0.917934 1.517486
v 5.614786 1.404332 1.880618
v 5.549512 1.397832 1.914798
v 5.405851 0.916498 1.524587
v 5.202987 1.361677 2.084051
v 5.270936 1.368812 2.052314
v 4.749239 0.916611 1.897572
v 4.748951 1.061657 2.032239
v 4.681717 0.850735 1.870859
v 4.680635 1.313850 2.302911
v 4.809679 1.265194 2.194084
v 4.815911 1.325022 2.249473
v 4.748494 1.259749 2.220063
v 4.793140 1.125404 2.068789
v 4.748951 1.121482 2.088255
v 4.890578 1.207974 2.098073
v 4.888534 1.114609 2.009547
v 4.959240 1.220492 2.075052
v 5.001807 1.003690 1.845309
v 4.931839 1.006373 1.884748
v 4.841696 0.865054 1.801619
v 4.832585 0.923825 1.860183
v 4.888534 1.113250 2.008242
v 4.829171 1.068817 1.996938
v 4.511359 1.299539 2.366237
v 4.512772 0.836727 1.942245
v 4.579395 0.842277 1.913777
v 4.577982 1.305089 2.341238
v 4.281325 0.662126 1.898694
v 4.265689 0.724146 1.960821
v 4.260930 0.661917 1.908405
v 4.248693 0.722844 1.967921
v 4.408710 0.822711 1.979394
v 4.407489 1.291754 2.402737
v 4.342087 0.837141 2.023829
v 4.340866 1.286469 2.426148
v 3.627981 0.777702 -2.284493
v 3.747320 0.884890 -2.324861
v 3.747320 0.784890 -2.243246
v 3.509232 0.770321 -2.324993
v 3.627233 0.876972 -2.363953
v 3.389825 0.763686 -2.363264
v 3.509232 0.870321 -2.403368
v 3.271075 0.756842 -2.400939
v 3.389080 0.862964 -2.440978
v 3.150889 0.750024 -2.437095
v 3.270330 0.856120 -2.475949
v 3.032855 0.744375 -2.471083
v 3.150889 0.850024 -2.512366
v 2.912563 0.738058 -2.505732
v 3.032139 0.843687 -2.544501
v 2.794510 0.732957 -2.535218
v 2.912563 0.838058 -2.578136
v 2.794510 0.732957 2.535218
v 2.912563 0.838058 2.578136
v 2.793813 0.832294 2.607076
v 2.912563 0.738058 2.505731
v 3.032139 0.843687 2.544501
v 3.032855 0.744375 2.471083
v 3.150889 0.850024 2.512366
v 3.150889 0.750024 2.437095
v 3.270330 0.856120 2.475949
v 3.271075 0.756842 2.400939
v 3.389080 0.862964 2.440980
v 3.389825 0.763686 2.363264
v 3.509232 0.870321 2.403368
v 3.509232 0.770321 2.324993
v 3.627233 0.876972 2.363952
v 3.627981 0.777702 2.284493
v 3.747320 0.884890 2.324861
v 3.627271 1.018040 -2.476415
v 3.746632 1.125055 -2.519543
v 3.746632 1.025055 -2.439605
v 3.508521 1.010659 -2.513546
v 3.626452 1.117141 -2.555156
v 3.388309 1.003315 -2.547726
v 3.507702 1.109760 -2.589358
v 3.270366 0.997358 -2.581777
v 3.388309 1.103315 -2.623646
v 3.150155 0.990559 -2.614609
v 3.269559 1.096471 -2.655146
v 3.032175 0.985069 -2.644542
v 3.150155 1.090559 -2.686730
v 2.911854 0.978773 -2.676027
v 3.031441 1.085622 -2.716343
v 2.793104 0.973008 -2.701870
v 2.911180 1.079355 -2.744693
v 2.793104 0.973008 2.701869
v 2.911180 1.079355 2.744693
v 2.793137 1.074521 2.770436
v 2.911854 0.978773 2.676027
v 3.031441 1.085622 2.716343
v 3.032175 0.985069 2.644542
v 3.150155 1.090559 2.686730
v 3.150155 0.990559 2.614609
v 3.269559 1.096471 2.655145
v 3.270366 0.997358 2.581778
v 3.388309 1.103315 2.623646
v 3.388309 1.003315 2.547726
v 3.507702 1.109760 2.589358
v 3.508521 1.010659 2.513546
v 3.626452 1.117141 2.555155
v 3.627271 1.018040 2.476415
v 3.746632 1.125055 2.519543
v 6.637539 1.066963 -0.702133
v 6.721235 1.176526 -0.737532
v 6.721756 1.077412 -0.616721
v 6.551704 1.056402 -0.790687
v 6.635451 1.165219 -0.823588
v 6.465526 1.045649 -0.873986
v 6.551649 1.155648 -0.911722
v 6.380526 1.035316 -0.951376
v 6.464335 1.144761 -0.987299
v 6.291731 1.024792 -1.011139
v 6.375728 1.134383 -1.060968
v 6.205944 1.014456 -1.066104
v 6.290728 1.124120 -1.111835
v 6.121809 1.005000 -1.117868
v 6.205944 1.114456 -1.164685
v 6.035878 0.994779 -1.172313
v 6.120944 1.104360 -1.215920
v 6.035878 0.994779 1.172313
v 6.120944 1.104360 1.215920
v 6.035815 1.093922 1.266773
v 6.121809 1.005000 1.117868
v 6.205944 1.114456 1.164685
v 6.205944 1.014456 1.066104
v 6.290728 1.124121 1.111835
v 6.291731 1.024792 1.011139
v 6.375728 1.134383 1.060968
v 6.380526 1.035316 0.951376
v 6.464335 1.144761 0.987301
v 6.465526 1.045649 0.873985
v 6.551649 1.155648 0.911722
v 6.551704 1.056402 0.790687
v 6.635451 1.165219 0.823588
v 6.637539 1.066963 0.702133
v 6.721235 1.176526 0.737533
v 6.635336 1.304543 -1.001025
v 6.719282 1.414858 -1.054046
v 6.720451 1.316394 -0.920631
v 6.549244 1.294459 -1.079234
v 6.636082 1.404033 -1.133244
v 6.464244 1.284063 -1.152648
v 6.548172 1.393579 -1.205149
v 6.374725 1.272762 -1.209008
v 6.459725 1.383095 -1.273530
v 6.290651 1.263192 -1.260916
v 6.374622 1.372087 -1.321667
v 6.205015 1.252875 -1.311142
v 6.289090 1.361709 -1.371288
v 6.120874 1.243475 -1.361813
v 6.204925 1.352255 -1.421062
v 6.035063 1.233273 -1.412360
v 6.119925 1.342159 -1.471170
v 6.035063 1.233273 1.412360
v 6.119925 1.342159 1.471170
v 6.034984 1.332694 1.519252
v 6.120874 1.243475 1.361813
v 6.204925 1.352255 1.421063
v 6.205015 1.252875 1.311140
v 6.289090 1.361709 1.371288
v 6.290651 1.263192 1.260915
v 6.374622 1.372087 1.321667
v 6.374725 1.272762 1.209008
v 6.459725 1.383095 1.273530
v 6.464244 1.284063 1.152648
v 6.545074 1.392368 1.213160
v 6.549244 1.294459 1.079234
v 6.631618 1.402755 1.136558
v 6.635336 1.304543 1.001022
v 6.716619 1.413930 1.074976
v -9.535000 0.730000 0.370011
v -9.535000 0.475746 0.370011
v -9.535000 0.475746 0.406546
v -9.535000 0.730000 0.406546
v -9.535000 0.551425 0.229463
v -9.535000 0.473509 0.233936
v -9.535000 0.730000 0.341678
v -9.535000 0.730000 0.305515
v -9.535000 0.473509 0.226480
v -9.535000 0.730000 0.116502
v -9.535000 0.730000 0.153037
v -9.535000 0.508553 -0.132533
v -9.535000 0.588333 -0.132533
v -9.535000 0.475746 -0.169068
v -9.535000 0.730000 -0.169068
v -9.535000 0.697193 -0.098980
v -9.535000 0.730000 -0.095252
v -9.535000 0.697193 -0.132533
v -9.535000 0.621140 -0.108300
v -9.535000 0.621140 -0.132533
v -9.535000 0.661776 -0.054616
v -9.535000 0.610702 -0.055735
v -9.535000 0.665132 -0.016963
v -9.535000 0.543597 0.005406
v -9.535000 0.548816 -0.032248
v -9.535000 0.475746 -0.081831
v -9.535000 0.508553 -0.086678
v -9.535000 0.609956 -0.055735
v -9.535000 0.588333 -0.088542
v -9.535000 0.730000 -0.261897
v -9.535000 0.475746 -0.261897
v -9.535000 0.475746 -0.225362
v -9.535000 0.730000 -0.225362
v -9.535000 0.390000 -0.388651
v -9.535000 0.424671 -0.397226
v -9.535000 0.390746 -0.399835
v -9.535000 0.424671 -0.406546
v -9.535000 0.472763 -0.318564
v -9.535000 0.730000 -0.318564
v -9.535000 0.483575 -0.355099
v -9.535000 0.730000 -0.355099
v 2.793813 0.832294 -2.607076
v 3.747320 0.784890 2.243247
v 2.793137 1.074521 -2.770436
v 3.746632 1.025055 2.439605
v 6.035815 1.093922 -1.266773
v 6.721756 1.077412 0.616721
v 6.034984 1.332694 -1.519252
v 6.720451 1.316394 0.920632
vt 0.790273 0.881999
vt 0.790273 0.883620
vt 0.790037 0.883623
vt 0.790037 0.882003
vt 0.853721 0.096282
vt 0.853685 0.096778
vt 0.853010 0.095144
vt 0.853244 0.095144
vt 0.853733 0.096778
vt 0.854468 0.095144
vt 0.854231 0.095144
vt 0.397902 0.865668
vt 0.397902 0.865160
vt 0.398139 0.865874
vt 0.398139 0.864253
vt 0.397685 0.864469
vt 0.397661 0.864260
vt 0.397902 0.864466
vt 0.397745 0.864953
vt 0.397902 0.864950
vt 0.397398 0.864698
vt 0.397405 0.865024
vt 0.397154 0.864680
vt 0.397010 0.865457
vt 0.397253 0.865420
vt 0.397574 0.865882
vt 0.397606 0.865672
vt 0.397405 0.865029
vt 0.397618 0.865163
vt 0.805697 0.881999
vt 0.805697 0.883620
vt 0.805461 0.883623
vt 0.805461 0.882003
vt 0.538661 0.866459
vt 0.538753 0.866250
vt 0.538733 0.866466
vt 0.538813 0.866260
vt 0.538302 0.865869
vt 0.538579 0.864253
vt 0.538547 0.865838
vt 0.538813 0.864290
vt 0.759425 0.882001
vt 0.759425 0.883637
vt 0.759188 0.883636
vt 0.759188 0.881999
vt 0.853745 0.079455
vt 0.853719 0.079956
vt 0.853010 0.078306
vt 0.853245 0.078306
vt 0.853767 0.079956
vt 0.854470 0.078306
vt 0.854233 0.078306
vt 0.853904 0.760042
vt 0.853904 0.759528
vt 0.854141 0.760254
vt 0.854141 0.758618
vt 0.853687 0.758826
vt 0.853662 0.758615
vt 0.853904 0.758828
vt 0.853747 0.759316
vt 0.853904 0.759317
vt 0.853399 0.759053
vt 0.853406 0.759381
vt 0.853155 0.759029
vt 0.853010 0.759810
vt 0.853254 0.759778
vt 0.853576 0.760251
vt 0.853607 0.760040
vt 0.853406 0.759386
vt 0.853619 0.759526
vt 0.774849 0.882001
vt 0.774849 0.883637
vt 0.774613 0.883636
vt 0.774613 0.881999
vt 0.445430 0.866489
vt 0.445522 0.866279
vt 0.445502 0.866497
vt 0.445581 0.866289
vt 0.445071 0.865885
vt 0.445348 0.864253
vt 0.445316 0.865858
vt 0.445581 0.864295
vt 0.836246 0.465830
vt 0.836246 0.469296
vt 0.835805 0.469272
vt 0.835804 0.465814
vt 0.618758 0.370943
vt 0.618741 0.372005
vt 0.617304 0.368497
vt 0.617742 0.368497
vt 0.618832 0.372005
vt 0.620042 0.368501
vt 0.619594 0.368497
vt 0.149580 0.625843
vt 0.149581 0.624751
vt 0.150025 0.626316
vt 0.150025 0.622808
vt 0.149162 0.623233
vt 0.149116 0.622774
vt 0.149570 0.623248
vt 0.149278 0.624287
vt 0.149573 0.624298
vt 0.148624 0.623699
vt 0.148640 0.624402
vt 0.148165 0.623633
vt 0.147884 0.625290
vt 0.148350 0.625240
vt 0.148953 0.626268
vt 0.149012 0.625822
vt 0.148640 0.624413
vt 0.149039 0.624728
vt 0.836250 0.409727
vt 0.836256 0.413242
vt 0.835804 0.413220
vt 0.835804 0.409711
vt 0.182177 0.627576
vt 0.182355 0.627130
vt 0.182314 0.627594
vt 0.182467 0.627153
vt 0.181503 0.626289
vt 0.182033 0.622775
vt 0.181966 0.626231
vt 0.182467 0.622863
vt 0.836254 0.781490
vt 0.836254 0.784849
vt 0.835806 0.784854
vt 0.835804 0.781489
vt 0.618660 0.389557
vt 0.618606 0.390584
vt 0.617304 0.387196
vt 0.617738 0.387193
vt 0.618696 0.390584
vt 0.620041 0.387195
vt 0.619590 0.387193
vt 0.260670 0.625690
vt 0.260669 0.624643
vt 0.261118 0.626120
vt 0.261118 0.622774
vt 0.260265 0.623211
vt 0.260224 0.622781
vt 0.260670 0.623209
vt 0.260376 0.624213
vt 0.260669 0.624210
vt 0.259730 0.623680
vt 0.259744 0.624355
vt 0.259275 0.623636
vt 0.258995 0.625236
vt 0.259458 0.625168
vt 0.260058 0.626126
vt 0.260117 0.625696
vt 0.259744 0.624365
vt 0.260138 0.624646
vt 0.836245 0.818517
vt 0.836245 0.821854
vt 0.835804 0.821858
vt 0.835805 0.818519
vt 0.276977 0.627299
vt 0.277148 0.626865
vt 0.277112 0.627308
vt 0.277259 0.626880
vt 0.276306 0.626110
vt 0.276825 0.622774
vt 0.276763 0.626034
vt 0.277259 0.622840
vt 0.598624 0.548817
vt 0.597889 0.548055
vt 0.598627 0.548025
vt 0.598623 0.549604
vt 0.597894 0.548851
vt 0.598620 0.550395
vt 0.597889 0.549633
vt 0.598619 0.551182
vt 0.597892 0.550429
vt 0.598620 0.551977
vt 0.597894 0.551214
vt 0.598616 0.552757
vt 0.597890 0.552004
vt 0.598615 0.553552
vt 0.597893 0.552788
vt 0.598614 0.554330
vt 0.597889 0.553578
vt 0.597902 0.597323
vt 0.598602 0.596556
vt 0.598601 0.597335
vt 0.597897 0.596548
vt 0.598597 0.595770
vt 0.597896 0.595757
vt 0.598598 0.594989
vt 0.597891 0.594981
vt 0.598594 0.594203
vt 0.597892 0.594190
vt 0.598596 0.593422
vt 0.597892 0.593408
vt 0.598599 0.592631
vt 0.597890 0.592622
vt 0.598596 0.591853
vt 0.597890 0.591839
vt 0.598602 0.591062
vt 0.598623 0.570337
vt 0.597889 0.569574
vt 0.598625 0.569547
vt 0.598623 0.571124
vt 0.597894 0.570369
vt 0.598626 0.571918
vt 0.597898 0.571153
vt 0.598620 0.572698
vt 0.597895 0.571942
vt 0.598622 0.573491
vt 0.597899 0.572726
vt 0.598618 0.574269
vt 0.597896 0.573514
vt 0.598618 0.575063
vt 0.597889 0.574296
vt 0.598622 0.575844
vt 0.597893 0.575088
vt 0.617310 0.013860
vt 0.618016 0.013091
vt 0.618021 0.013865
vt 0.617311 0.013082
vt 0.618018 0.012302
vt 0.617310 0.012292
vt 0.618011 0.011523
vt 0.617307 0.011517
vt 0.618008 0.010739
vt 0.617308 0.010727
vt 0.618011 0.009959
vt 0.617304 0.009952
vt 0.618010 0.009174
vt 0.617308 0.009161
vt 0.618014 0.008393
vt 0.617310 0.008379
vt 0.618021 0.007602
vt 0.261994 0.846485
vt 0.261284 0.846456
vt 0.261996 0.845780
vt 0.261992 0.847213
vt 0.261287 0.847169
vt 0.261993 0.847909
vt 0.261279 0.847889
vt 0.261996 0.848567
vt 0.261285 0.848541
vt 0.087059 0.846914
vt 0.086297 0.846388
vt 0.087062 0.846311
vt 0.087061 0.847495
vt 0.086303 0.846962
vt 0.087061 0.848064
vt 0.086303 0.847536
vt 0.087062 0.848646
vt 0.086308 0.848110
vt 0.835804 0.360063
vt 0.836531 0.359502
vt 0.836522 0.360070
vt 0.835809 0.359488
vt 0.836538 0.358934
vt 0.835811 0.358926
vt 0.836541 0.358367
vt 0.835816 0.358352
vt 0.836549 0.357799
vt 0.835818 0.357756
vt 0.836538 0.357201
vt 0.835804 0.357181
vt 0.836529 0.356610
vt 0.853025 0.321759
vt 0.853565 0.321519
vt 0.853583 0.322309
vt 0.853014 0.320958
vt 0.853565 0.320730
vt 0.539935 0.883035
vt 0.540408 0.882479
vt 0.540408 0.883519
vt 0.886021 0.121552
vt 0.886588 0.121191
vt 0.886588 0.122052
vt 0.375295 0.826764
vt 0.374530 0.826240
vt 0.375316 0.826180
vt 0.375302 0.827370
vt 0.374516 0.826844
vt 0.375302 0.827939
vt 0.374530 0.827418
vt 0.375309 0.828517
vt 0.374539 0.827995
vt 0.375310 0.829086
vt 0.374541 0.828564
vt 0.375316 0.829665
vt 0.374547 0.829138
vt 0.102261 0.848615
vt 0.102988 0.848049
vt 0.102991 0.848615
vt 0.102260 0.848042
vt 0.102987 0.847481
vt 0.102255 0.847480
vt 0.102983 0.846919
vt 0.102255 0.846908
vt 0.102984 0.846348
vt 0.102250 0.846346
vt 0.102991 0.845780
vt 0.070444 0.848023
vt 0.071085 0.847864
vt 0.071031 0.848540
vt 0.070432 0.847293
vt 0.071063 0.847113
vt 0.070400 0.846539
vt 0.071110 0.846433
vt 0.728588 0.882000
vt 0.728588 0.883650
vt 0.728362 0.883649
vt 0.728362 0.881999
vt 0.853705 0.164719
vt 0.853678 0.165225
vt 0.853010 0.163560
vt 0.853234 0.163560
vt 0.853724 0.165225
vt 0.854402 0.163560
vt 0.854176 0.163560
vt 0.429658 0.865691
vt 0.429658 0.865173
vt 0.429884 0.865904
vt 0.429884 0.864254
vt 0.429450 0.864466
vt 0.429427 0.864253
vt 0.429658 0.864467
vt 0.429508 0.864960
vt 0.429658 0.864960
vt 0.429176 0.864696
vt 0.429183 0.865027
vt 0.428943 0.864674
vt 0.428805 0.865462
vt 0.429038 0.865429
vt 0.429344 0.865903
vt 0.429374 0.865690
vt 0.429183 0.865032
vt 0.429386 0.865173
vt 0.744001 0.882000
vt 0.744001 0.883650
vt 0.743775 0.883649
vt 0.743775 0.881999
vt 0.522969 0.866501
vt 0.523058 0.866287
vt 0.523039 0.866507
vt 0.523114 0.866297
vt 0.522627 0.865902
vt 0.522891 0.864253
vt 0.522861 0.865868
vt 0.523114 0.864289
vt 0.597892 0.554360
vt 0.597889 0.591052
vt 0.597890 0.575864
vt 0.617310 0.007594
vt 0.086318 0.845780
vt 0.086315 0.848685
vt 0.853010 0.322538
vt 0.853010 0.320179
vt 0.539947 0.881999
vt 0.374549 0.825637
vt 0.374552 0.829710
vt 0.070353 0.848704
vt 0.070353 0.845780
vn -0.0000 -0.0000 -1.0000
vn -0.0000 -0.0000 1.0000
vn 0.3039 -0.6306 -0.7142
vn 0.3404 -0.6256 -0.7019
vn 0.3379 -0.6260 -0.7028
vn 0.3013 -0.6309 -0.7150
vn 0.3146 -0.6388 -0.7021
vn 0.3448 -0.6311 -0.6949
vn 0.3002 -0.6488 -0.6993
vn 0.2972 -0.6504 -0.6990
vn 0.3394 -0.6328 -0.6960
vn 0.3230 -0.6451 -0.6925
vn 0.3251 -0.6455 -0.6911
vn 0.3989 -0.6327 -0.6637
vn 0.3569 -0.6542 -0.6668
vn 0.3891 -0.6400 -0.6626
vn 0.3708 -0.6550 -0.6584
vn 0.3663 -0.6659 -0.6499
vn 0.3685 -0.6614 -0.6533
vn 0.3721 -0.6573 -0.6554
vn 0.3721 -0.6503 -0.6623
vn 0.3619 -0.6551 -0.6632
vn 0.3700 -0.6553 -0.6585
vn 0.3740 -0.6478 -0.6637
vn 0.3683 -0.6568 -0.6581
vn 0.3800 -0.6359 -0.6717
vn 0.3808 -0.6357 -0.6715
vn 0.3872 -0.6328 -0.6706
vn 0.3851 -0.6292 -0.6752
vn 0.3818 -0.6397 -0.6671
vn 0.3767 -0.6457 -0.6642
vn 0.3821 -0.6511 -0.6558
vn 0.4098 -0.6451 -0.6449
vn 0.4080 -0.6455 -0.6457
vn 0.3802 -0.6515 -0.6565
vn 0.4539 -0.5979 -0.6607
vn 0.4490 -0.5995 -0.6626
vn 0.4584 -0.5972 -0.6582
vn 0.4363 -0.6255 -0.6468
vn 0.4003 -0.6527 -0.6432
vn 0.4337 -0.6244 -0.6496
vn 0.3969 -0.6541 -0.6440
vn 0.4098 -0.6523 0.6376
vn 0.4401 -0.6396 0.6303
vn 0.4373 -0.6408 0.6310
vn 0.4070 -0.6535 0.6382
vn 0.3955 -0.6355 0.6631
vn 0.3984 -0.6328 0.6640
vn 0.3964 -0.6523 0.6460
vn 0.4014 -0.6528 0.6424
vn 0.4149 -0.6273 0.6590
vn 0.3801 -0.6571 0.6509
vn 0.3733 -0.6613 0.6506
vn 0.3526 -0.6367 0.6858
vn 0.3563 -0.6375 0.6831
vn 0.3526 -0.6380 0.6845
vn 0.3286 -0.6474 0.6877
vn 0.3375 -0.6582 0.6730
vn 0.3348 -0.6530 0.6793
vn 0.3250 -0.6525 0.6846
vn 0.3531 -0.6421 0.6804
vn 0.3479 -0.6411 0.6841
vn 0.3449 -0.6514 0.6758
vn 0.3502 -0.6469 0.6775
vn 0.3454 -0.6508 0.6761
vn 0.3604 -0.6358 0.6826
vn 0.3587 -0.6371 0.6822
vn 0.3578 -0.6331 0.6865
vn 0.3587 -0.6304 0.6884
vn 0.3549 -0.6453 0.6765
vn 0.3528 -0.6417 0.6811
vn 0.3180 -0.6425 0.6972
vn 0.3483 -0.6326 0.6917
vn 0.3457 -0.6335 0.6922
vn 0.3154 -0.6434 0.6976
vn 0.3401 -0.6213 0.7059
vn 0.3395 -0.6215 0.7060
vn 0.3423 -0.6205 0.7056
vn 0.3343 -0.6262 0.7043
vn 0.3024 -0.6356 0.7104
vn 0.3324 -0.6277 0.7039
vn 0.3003 -0.6358 0.7110
vn 0.2899 -0.5991 -0.7464
vn 0.2880 -0.6013 -0.7453
vn 0.2925 -0.6046 -0.7409
vn 0.2827 -0.5935 -0.7536
vn 0.2863 -0.5957 -0.7505
vn 0.2746 -0.5919 -0.7578
vn 0.2794 -0.5918 -0.7561
vn 0.2663 -0.5834 -0.7673
vn 0.2704 -0.5886 -0.7619
vn 0.2582 -0.5810 -0.7718
vn 0.2628 -0.5804 -0.7708
vn 0.2500 -0.5766 -0.7778
vn 0.2547 -0.5794 -0.7742
vn 0.2375 -0.5714 -0.7855
vn 0.2469 -0.5732 -0.7814
vn 0.2212 -0.5713 -0.7904
vn 0.2334 -0.5699 -0.7879
vn 0.2212 -0.5713 0.7904
vn 0.2334 -0.5699 0.7879
vn 0.2205 -0.5707 0.7910
vn 0.2375 -0.5714 0.7855
vn 0.2469 -0.5732 0.7814
vn 0.2500 -0.5766 0.7778
vn 0.2547 -0.5794 0.7742
vn 0.2582 -0.5810 0.7718
vn 0.2628 -0.5804 0.7708
vn 0.2663 -0.5834 0.7673
vn 0.2704 -0.5886 0.7619
vn 0.2746 -0.5919 0.7578
vn 0.2794 -0.5918 0.7561
vn 0.2827 -0.5935 0.7536
vn 0.2863 -0.5957 0.7505
vn 0.2899 -0.5991 0.7464
vn 0.2880 -0.6013 0.7453
vn 0.2689 -0.5988 -0.7544
vn 0.2655 -0.6002 -0.7545
vn 0.2675 -0.6016 -0.7526
vn 0.2605 -0.5891 -0.7649
vn 0.2645 -0.5948 -0.7591
vn 0.2529 -0.5854 -0.7703
vn 0.2555 -0.5857 -0.7692
vn 0.2460 -0.5783 -0.7778
vn 0.2493 -0.5827 -0.7735
vn 0.2345 -0.5709 -0.7868
vn 0.2408 -0.5739 -0.7827
vn 0.2300 -0.5657 -0.7919
vn 0.2300 -0.5680 -0.7903
vn 0.2161 -0.5540 -0.8040
vn 0.2250 -0.5607 -0.7969
vn 0.2012 -0.5499 -0.8107
vn 0.2095 -0.5496 -0.8088
vn 0.2012 -0.5499 0.8107
vn 0.2095 -0.5496 0.8088
vn 0.1995 -0.5485 0.8120
vn 0.2161 -0.5540 0.8040
vn 0.2250 -0.5607 0.7969
vn 0.2300 -0.5657 0.7919
vn 0.2300 -0.5680 0.7903
vn 0.2345 -0.5709 0.7868
vn 0.2408 -0.5739 0.7827
vn 0.2460 -0.5783 0.7778
vn 0.2493 -0.5827 0.7735
vn 0.2529 -0.5854 0.7703
vn 0.2555 -0.5857 0.7692
vn 0.2605 -0.5891 0.7649
vn 0.2645 -0.5948 0.7591
vn 0.2689 -0.5988 0.7544
vn 0.2655 -0.6002 0.7545
vn 0.5971 -0.6187 -0.5106
vn 0.5951 -0.6199 -0.5115
vn 0.5953 -0.6199 -0.5112
vn 0.5939 -0.6214 -0.5111
vn 0.5997 -0.6177 -0.5087
vn 0.5697 -0.6235 -0.5354
vn 0.5776 -0.6234 -0.5271
vn 0.5321 -0.6235 -0.5728
vn 0.5564 -0.6156 -0.5581
vn 0.4711 -0.6326 -0.6147
vn 0.4952 -0.6263 -0.6021
vn 0.4655 -0.6237 -0.6279
vn 0.4616 -0.6269 -0.6277
vn 0.4639 -0.6208 -0.6319
vn 0.4603 -0.6226 -0.6328
vn 0.4673 -0.6154 -0.6348
vn 0.4614 -0.6178 -0.6368
vn 0.4673 -0.6154 0.6348
vn 0.4614 -0.6178 0.6368
vn 0.4594 -0.6126 0.6432
vn 0.4639 -0.6208 0.6319
vn 0.4603 -0.6226 0.6328
vn 0.4655 -0.6237 0.6279
vn 0.4616 -0.6269 0.6277
vn 0.4711 -0.6326 0.6147
vn 0.4952 -0.6264 0.6021
vn 0.5321 -0.6235 0.5728
vn 0.5564 -0.6156 0.5581
vn 0.5697 -0.6235 0.5354
vn 0.5776 -0.6234 0.5271
vn 0.5939 -0.6214 0.5111
vn 0.5997 -0.6177 0.5087
vn 0.5971 -0.6187 0.5106
vn 0.5951 -0.6199 0.5115
vn 0.5523 -0.6679 -0.4988
vn 0.5594 -0.6641 -0.4960
vn 0.5601 -0.6642 -0.4951
vn 0.5315 -0.6696 -0.5187
vn 0.5360 -0.6699 -0.5137
vn 0.4977 -0.6690 -0.5520
vn 0.5174 -0.6631 -0.5409
vn 0.4418 -0.6779 -0.5876
vn 0.4623 -0.6720 -0.5785
vn 0.4371 -0.6705 -0.5995
vn 0.4319 -0.6739 -0.5995
vn 0.4354 -0.6680 -0.6035
vn 0.4327 -0.6692 -0.6042
vn 0.4365 -0.6665 -0.6044
vn 0.4350 -0.6673 -0.6045
vn 0.4312 -0.6653 -0.6095
vn 0.4310 -0.6652 -0.6097
vn 0.4312 -0.6653 0.6095
vn 0.4310 -0.6652 0.6097
vn 0.4233 -0.6633 0.6172
vn 0.4365 -0.6665 0.6044
vn 0.4350 -0.6673 0.6045
vn 0.4354 -0.6680 0.6035
vn 0.4327 -0.6692 0.6041
vn 0.4371 -0.6705 0.5995
vn 0.4319 -0.6739 0.5995
vn 0.4418 -0.6779 0.5876
vn 0.4499 -0.6772 0.5822
vn 0.4871 -0.6795 0.5486
vn 0.5071 -0.6752 0.5357
vn 0.5324 -0.6767 0.5086
vn 0.5133 -0.6869 0.5145
vn 0.5229 -0.6980 0.4893
vn 0.4945 -0.7082 0.5039
vn -1.0000 -0.0000 -0.0000
vn -1.0000 -0.0000 -0.0001
vn -1.0000 -0.0000 -0.0002
vn 0.2205 -0.5707 -0.7910
vn 0.2925 -0.6046 0.7409
vn 0.1995 -0.5485 -0.8120
vn 0.2675 -0.6016 0.7526
vn 0.4594 -0.6126 -0.6432
vn 0.5953 -0.6199 0.5111
vn 0.4233 -0.6633 -0.6172
vn 0.5341 -0.7086 0.4611
f 1/1/1 2/2/1 3/3/1
f 3/3/1 4/4/1 1/1/1
f 5/5/1 6/6/1 7/7/1
f 7/7/1 8/8/1 5/5/1
f 6/6/1 5/5/1 9/9/1
f 10/10/1 9/9/1 5/5/1
f 11/11/1 10/10/1 5/5/1
f 12/12/1 13/13/1 14/14/1
f 15/15/1 14/14/1 13/13/1
f 16/16/1 17/17/1 18/18/1
f 19/19/1 20/20/1 13/13/1
f 15/15/1 13/13/1 20/20/1
f 20/20/1 18/18/1 15/15/1
f 18/18/1 17/17/1 15/15/1
f 21/21/1 22/22/1 23/23/1
f 24/24/1 25/25/1 26/26/1
f 27/27/1 26/26/1 25/25/1
f 28/28/1 29/29/1 25/25/1
f 25/25/1 24/24/1 28/28/1
f 29/29/1 28/28/1 22/22/1
f 12/12/1 14/14/1 26/26/1
f 26/26/1 27/27/1 12/12/1
f 19/19/1 13/13/1 29/29/1
f 29/29/1 22/22/1 19/19/1
f 22/22/1 21/21/1 19/19/1
f 17/17/1 16/16/1 21/21/1
f 21/21/1 23/23/1 17/17/1
f 30/30/1 31/31/1 32/32/1
f 32/32/1 33/33/1 30/30/1
f 34/34/1 35/35/1 36/36/1
f 37/37/1 36/36/1 35/35/1
f 38/38/1 39/39/1 40/40/1
f 41/41/1 40/40/1 39/39/1
f 35/35/1 34/34/1 38/38/1
f 38/38/1 40/40/1 35/35/1
f 42/42/2 43/43/2 44/44/2
f 44/44/2 45/45/2 42/42/2
f 46/46/2 47/47/2 48/48/2
f 48/48/2 49/49/2 46/46/2
f 47/47/2 46/46/2 50/50/2
f 51/51/2 50/50/2 46/46/2
f 52/52/2 51/51/2 46/46/2
f 53/53/2 54/54/2 55/55/2
f 56/56/2 55/55/2 54/54/2
f 57/57/2 58/58/2 59/59/2
f 60/60/2 61/61/2 54/54/2
f 56/56/2 54/54/2 61/61/2
f 61/61/2 59/59/2 56/56/2
f 59/59/2 58/58/2 56/56/2
f 62/62/2 63/63/2 64/64/2
f 65/65/2 66/66/2 67/67/2
f 68/68/2 67/67/2 66/66/2
f 69/69/2 70/70/2 66/66/2
f 66/66/2 65/65/2 69/69/2
f 70/70/2 69/69/2 63/63/2
f 53/53/2 55/55/2 67/67/2
f 67/67/2 68/68/2 53/53/2
f 60/60/2 54/54/2 70/70/2
f 70/70/2 63/63/2 60/60/2
f 63/63/2 62/62/2 60/60/2
f 58/58/2 57/57/2 62/62/2
f 62/62/2 64/64/2 58/58/2
f 71/71/2 72/72/2 73/73/2
f 73/73/2 74/74/2 71/71/2
f 75/75/2 76/76/2 77/77/2
f 78/78/2 77/77/2 76/76/2
f 79/79/2 80/80/2 81/81/2
f 82/82/2 81/81/2 80/80/2
f 76/76/2 75/75/2 79/79/2
f 79/79/2 81/81/2 76/76/2
f 83/83/3 84/84/4 85/85/5
f 85/85/5 86/86/6 83/83/3
f 87/87/7 88/88/8 89/89/9
f 89/89/9 90/90/10 87/87/7
f 88/88/8 87/87/7 91/91/11
f 92/92/12 91/91/11 87/87/7
f 93/93/13 92/92/12 87/87/7
f 94/94/14 95/95/15 96/96/16
f 97/97/17 96/96/16 95/95/15
f 98/98/18 99/99/19 100/100/20
f 101/101/21 102/102/22 95/95/15
f 97/97/17 95/95/15 102/102/22
f 102/102/22 100/100/20 97/97/17
f 100/100/20 99/99/19 97/97/17
f 103/103/23 104/104/24 105/105/25
f 106/106/26 107/107/27 108/108/28
f 109/109/29 108/108/28 107/107/27
f 110/110/30 111/111/31 107/107/27
f 107/107/27 106/106/26 110/110/30
f 111/111/31 110/110/30 104/104/24
f 94/94/14 96/96/16 108/108/28
f 108/108/28 109/109/29 94/94/14
f 101/101/21 95/95/15 111/111/31
f 111/111/31 104/104/24 101/101/21
f 104/104/24 103/103/23 101/101/21
f 99/99/19 98/98/18 103/103/23
f 103/103/23 105/105/25 99/99/19
f 112/112/32 113/113/33 114/114/34
f 114/114/34 115/115/35 112/112/32
f 116/116/36 117/117/37 118/118/38
f 119/119/38 118/118/38 117/117/37
f 120/120/39 121/121/40 122/122/41
f 123/123/42 122/122/41 121/121/40
f 117/117/37 116/116/36 120/120/39
f 120/120/39 122/122/41 117/117/37
f 124/124/43 125/125/44 126/126/45
f 126/126/45 127/127/46 124/124/43
f 128/128/47 129/129/48 130/130/49
f 130/130/49 131/131/50 128/128/47
f 129/129/48 128/128/47 132/132/51
f 133/133/52 132/132/51 128/128/47
f 134/134/53 133/133/52 128/128/47
f 135/135/54 136/136/55 137/137/56
f 138/138/57 137/137/56 136/136/55
f 139/139/58 140/140/59 141/141/60
f 142/142/61 143/143/62 136/136/55
f 138/138/57 136/136/55 143/143/62
f 143/143/62 141/141/60 138/138/57
f 141/141/60 140/140/59 138/138/57
f 144/144/63 145/145/64 146/146/65
f 147/147/66 148/148/67 149/149/68
f 150/150/69 149/149/68 148/148/67
f 151/151/70 152/152/71 148/148/67
f 148/148/67 147/147/66 151/151/70
f 152/152/71 151/151/70 145/145/64
f 135/135/54 137/137/56 149/149/68
f 149/149/68 150/150/69 135/135/54
f 142/142/61 136/136/55 152/152/71
f 152/152/71 145/145/64 142/142/61
f 145/145/64 144/144/63 142/142/61
f 140/140/59 139/139/58 144/144/63
f 144/144/63 146/146/65 140/140/59
f 153/153/72 154/154/73 155/155/74
f 155/155/74 156/156/75 153/153/72
f 157/157/76 158/158/77 159/159/78
f 160/160/78 159/159/78 158/158/77
f 161/161/79 162/162/80 163/163/81
f 164/164/82 163/163/81 162/162/80
f 158/158/77 157/157/76 161/161/79
f 161/161/79 163/163/81 158/158/77
f 165/165/83 166/166/84 167/167/85
f 168/168/86 169/169/87 165/165/83
f 170/170/88 171/171/89 168/168/86
f 172/172/90 173/173/91 170/170/88
f 174/174/92 175/175/93 172/172/90
f 176/176/94 177/177/95 174/174/92
f 178/178/96 179/179/97 176/176/94
f 180/180/98 181/181/99 178/178/96
f 182/182/100 183/183/101 184/184/102
f 185/185/103 186/186/104 183/183/101
f 187/187/105 188/188/106 186/186/104
f 189/189/107 190/190/108 188/188/106
f 191/191/109 192/192/110 190/190/108
f 193/193/111 194/194/112 192/192/110
f 195/195/113 196/196/114 194/194/112
f 197/197/115 198/198/116 196/196/114
f 199/199/117 200/200/118 201/201/119
f 202/202/120 203/203/121 199/199/117
f 204/204/122 205/205/123 202/202/120
f 206/206/124 207/207/125 204/204/122
f 208/208/126 209/209/127 206/206/124
f 210/210/128 211/211/129 208/208/126
f 212/212/130 213/213/131 210/210/128
f 214/214/132 215/215/133 212/212/130
f 216/216/134 217/217/135 218/218/136
f 219/219/137 220/220/138 217/217/135
f 221/221/139 222/222/140 220/220/138
f 223/223/141 224/224/142 222/222/140
f 225/225/143 226/226/144 224/224/142
f 227/227/145 228/228/146 226/226/144
f 229/229/147 230/230/148 228/228/146
f 231/231/149 232/232/150 230/230/148
f 233/233/151 234/234/152 235/235/153
f 236/236/154 237/237/155 233/233/151
f 238/238/156 239/239/157 236/236/154
f 240/240/158 241/241/159 238/238/156
f 242/242/160 243/243/161 240/244/158
f 244/245/162 245/246/163 242/242/160
f 246/247/164 247/248/165 244/245/162
f 248/249/166 249/250/167 246/247/164
f 250/251/168 251/252/169 252/253/170
f 253/254/171 254/255/172 251/252/169
f 255/256/173 256/257/174 254/255/172
f 257/258/175 258/259/176 256/257/174
f 259/260/177 260/261/178 258/259/176
f 261/262/179 262/263/180 260/261/178
f 263/264/181 264/265/182 262/266/180
f 265/267/183 266/268/184 264/265/182
f 267/269/185 268/270/186 269/271/187
f 270/272/188 271/273/189 267/274/185
f 272/275/190 273/276/191 270/277/188
f 274/278/192 275/279/193 272/275/190
f 276/280/194 277/281/195 274/278/192
f 278/282/196 279/283/197 276/280/194
f 280/284/198 281/285/199 278/282/196
f 282/286/200 283/287/201 280/284/198
f 284/288/202 285/289/203 286/290/204
f 287/291/205 288/292/206 285/289/203
f 289/293/207 290/294/208 288/292/206
f 291/295/209 292/296/210 290/294/208
f 293/297/211 294/298/212 292/296/210
f 295/299/213 296/300/214 294/301/212
f 297/302/215 298/303/216 296/300/214
f 299/304/217 300/305/218 298/303/216
f 301/306/219 302/307/219 303/308/219
f 303/308/219 304/309/219 301/306/219
f 305/310/219 306/311/219 307/312/219
f 307/312/219 308/313/219 305/310/219
f 306/311/219 305/310/219 309/314/219
f 310/315/219 309/314/219 305/310/219
f 311/316/219 310/315/219 305/310/219
f 312/317/219 313/318/219 314/319/219
f 315/320/219 314/319/219 313/318/219
f 316/321/219 317/322/219 318/323/219
f 319/324/219 320/325/220 313/318/219
f 315/320/219 313/318/219 320/325/220
f 320/325/220 318/323/219 315/320/219
f 318/323/219 317/322/219 315/320/219
f 321/326/219 322/327/220 323/328/219
f 324/329/219 325/330/219 326/331/219
f 327/332/219 326/331/219 325/330/219
f 328/333/221 329/334/219 325/330/219
f 325/330/219 324/329/219 328/333/221
f 329/334/219 328/333/221 322/327/220
f 312/317/219 314/319/219 326/331/219
f 326/331/219 327/332/219 312/317/219
f 319/324/219 313/318/219 329/334/219
f 329/334/219 322/327/220 319/324/219
f 322/327/220 321/326/219 319/324/219
f 317/322/219 316/321/219 321/326/219
f 321/326/219 323/328/219 317/322/219
f 330/335/219 331/336/219 332/337/219
f 332/337/219 333/338/219 330/335/219
f 334/339/219 335/340/219 336/341/219
f 337/342/219 336/341/219 335/340/219
f 338/343/219 339/344/219 340/345/219
f 341/346/219 340/345/219 339/344/219
f 335/340/219 334/339/219 338/343/219
f 338/343/219 340/345/219 335/340/219
f 165/165/83 169/169/87 166/166/84
f 168/168/86 171/171/89 169/169/87
f 170/170/88 173/173/91 171/171/89
f 172/172/90 175/175/93 173/173/91
f 174/174/92 177/177/95 175/175/93
f 176/176/94 179/179/97 177/177/95
f 178/178/96 181/181/99 179/179/97
f 180/180/98 342/347/222 181/181/99
f 182/182/100 185/185/103 183/183/101
f 185/185/103 187/187/105 186/186/104
f 187/187/105 189/189/107 188/188/106
f 189/189/107 191/191/109 190/190/108
f 191/191/109 193/193/111 192/192/110
f 193/193/111 195/195/113 194/194/112
f 195/195/113 197/197/115 196/196/114
f 197/197/115 343/348/223 198/198/116
f 199/199/117 203/203/121 200/200/118
f 202/202/120 205/205/123 203/203/121
f 204/204/122 207/207/125 205/205/123
f 206/206/124 209/209/127 207/207/125
f 208/208/126 211/211/129 209/209/127
f 210/210/128 213/213/131 211/211/129
f 212/212/130 215/215/133 213/213/131
f 214/214/132 344/349/224 215/215/133
f 216/216/134 219/219/137 217/217/135
f 219/219/137 221/221/139 220/220/138
f 221/221/139 223/223/141 222/222/140
f 223/223/141 225/225/143 224/224/142
f 225/225/143 227/227/145 226/226/144
f 227/227/145 229/229/147 228/228/146
f 229/229/147 231/231/149 230/230/148
f 231/231/149 345/350/225 232/232/150
f 233/233/151 237/237/155 234/234/152
f 236/236/154 239/239/157 237/237/155
f 238/238/156 241/241/159 239/239/157
f 240/244/158 243/243/161 241/351/159
f 242/242/160 245/246/163 243/243/161
f 244/245/162 247/248/165 245/246/163
f 246/247/164 249/250/167 247/248/165
f 248/249/166 346/352/226 249/250/167
f 250/251/168 253/254/171 251/252/169
f 253/254/171 255/256/173 254/255/172
f 255/256/173 257/258/175 256/257/174
f 257/258/175 259/260/177 258/259/176
f 259/260/177 261/262/179 260/261/178
f 261/353/179 263/264/181 262/266/180
f 263/264/181 265/267/183 264/265/182
f 265/267/183 347/354/227 266/268/184
f 267/269/185 271/355/189 268/270/186
f 270/277/188 273/276/191 271/356/189
f 272/275/190 275/279/193 273/276/191
f 274/278/192 277/281/195 275/279/193
f 276/280/194 279/283/197 277/281/195
f 278/282/196 281/285/199 279/283/197
f 280/284/198 283/287/201 281/285/199
f 282/286/200 348/357/228 283/287/201
f 284/288/202 287/291/205 285/289/203
f 287/291/205 289/293/207 288/292/206
f 289/293/207 291/295/209 290/294/208
f 291/295/209 293/297/211 292/296/210
f 293/358/211 295/299/213 294/301/212
f 295/299/213 297/302/215 296/300/214
f 297/302/215 299/304/217 298/303/216
f 299/304/217 349/359/229 300/305/218
