# JIB VI - the glass parts, as a standalone mesh.
#
# One file per material rather than one library addressed with `#group`:
# selecting a group recentres it on its own bounding box, which takes a
# model apart when the library IS one model. A whole-file import keeps
# the authored coordinates. See loom_asset/src/mesh.rs:268.
v 3.635000 2.180000 -0.845679
v 1.335000 2.880000 -1.413884
v 3.635000 2.880000 -0.845679
v 3.630683 2.880000 -0.828204
v 1.330683 2.180000 -1.396410
v 3.630683 2.180000 -0.828204
v 1.335000 2.180000 -1.413884
v 1.330683 2.880000 -1.396410
v -6.265000 2.880000 -1.461251
v 1.334888 2.880000 -1.395885
v -6.265112 2.180000 -1.443252
v 1.334888 2.180000 -1.395885
v -6.265000 2.180000 -1.461251
v -6.265112 2.880000 -1.443252
v -6.265000 2.180000 1.461251
v 1.335000 2.880000 1.413884
v -6.265000 2.880000 1.461251
v -6.265112 2.880000 1.443252
v 1.334888 2.180000 1.395885
v -6.265112 2.180000 1.443252
v 1.335000 2.180000 1.413884
v 3.635000 2.880000 0.845679
v 1.330683 2.880000 1.396410
v 3.630683 2.180000 0.828204
v 1.330683 2.180000 1.396410
v 3.635000 2.180000 0.845679
v 3.630683 2.880000 0.828204
v 3.635000 2.180000 0.645679
v 3.635000 2.880000 -0.645679
v 3.635000 2.880000 0.645679
v 3.617000 2.880000 0.645679
v 3.617000 2.180000 -0.645679
v 3.617000 2.180000 0.645679
v 3.635000 2.180000 -0.645679
v 3.617000 2.880000 -0.645679
v 2.857995 4.800000 -1.478097
v 2.982056 3.860000 1.476405
v 2.857995 4.800000 1.478097
v 2.839995 4.800000 1.478097
v 2.964056 3.860000 -1.476405
v 2.964056 3.860000 1.476405
v 2.982056 3.860000 -1.476405
v 2.839995 4.800000 -1.478097
v -2.265000 3.860000 -1.548000
v -2.265000 4.800000 -1.548000
v 2.857995 4.800000 -1.460097
v -2.265000 3.860000 -1.530000
v 2.982056 3.860000 -1.458405
v -2.265000 4.800000 -1.530000
v -2.265000 3.860000 1.548000
v -2.265000 3.860000 1.530000
v 2.857995 4.800000 1.460097
v 2.982056 3.860000 1.458405
v -2.265000 4.800000 1.548000
v -2.265000 4.800000 1.530000
v 2.828753 4.187476 0.340000
v 2.674753 4.005476 0.880000
v 2.828753 4.187476 0.880000
v 2.689753 3.987476 0.340000
v 2.843753 4.169476 0.880000
v 2.689753 3.987476 0.880000
v 2.674753 4.005476 0.340000
v 2.843753 4.169476 0.340000
v 2.828753 4.187476 -0.160000
v 2.674753 4.005476 0.240000
v 2.828753 4.187476 0.240000
v 2.689753 3.987476 -0.160000
v 2.843753 4.169476 0.240000
v 2.689753 3.987476 0.240000
v 2.674753 4.005476 -0.160000
v 2.843753 4.169476 -0.160000
v 1.334888 2.880000 1.395885
vt 0.025150 0.132849
vt 0.026359 0.129167
vt 0.026322 0.132836
vt 0.271824 0.032640
vt 0.270653 0.036441
vt 0.270653 0.032662
vt 0.111334 0.303276
vt 0.111364 0.299307
vt 0.111364 0.303276
vt 0.559933 0.241480
vt 0.559962 0.240308
vt 0.559962 0.241480
vt 0.082429 0.303276
vt 0.082459 0.299306
vt 0.082459 0.303276
vt 0.125795 0.285458
vt 0.124622 0.285433
vt 0.125795 0.285431
vt 0.025188 0.129180
vt 0.026321 0.116587
vt 0.170426 0.126862
vt 0.169255 0.139564
vt 0.169255 0.126867
vt 0.140389 0.208233
vt 0.140359 0.195499
vt 0.140389 0.195499
vt 0.559933 0.198370
vt 0.559963 0.197198
vt 0.559963 0.198370
vt 0.121089 0.208233
vt 0.121119 0.195499
vt 0.121119 0.208233
vt 0.559962 0.218752
vt 0.559933 0.219925
vt 0.559933 0.218752
vt 0.112948 0.043930
vt 0.114161 0.031221
vt 0.114119 0.043929
vt 0.170426 0.149169
vt 0.169255 0.161781
vt 0.169255 0.149178
vt 0.150024 0.195499
vt 0.149994 0.208233
vt 0.149994 0.195499
vt 0.559933 0.209148
vt 0.559962 0.207975
vt 0.559962 0.209148
vt 0.130724 0.195499
vt 0.130754 0.208233
vt 0.130724 0.208233
vt 0.559963 0.186420
vt 0.559933 0.187593
vt 0.559933 0.186420
vt 0.112990 0.031221
vt 0.114119 0.027310
vt 0.259877 0.204284
vt 0.261049 0.200337
vt 0.261049 0.204290
vt 0.101729 0.299306
vt 0.101699 0.303276
vt 0.101699 0.299306
vt 0.124622 0.288168
vt 0.125795 0.288196
vt 0.124622 0.288198
vt 0.092094 0.299306
vt 0.092064 0.303276
vt 0.092064 0.299306
vt 0.559963 0.229530
vt 0.559933 0.230702
vt 0.559933 0.229530
vt 0.124622 0.287871
vt 0.125795 0.285758
vt 0.125795 0.287869
vt 0.197617 0.328475
vt 0.198789 0.326314
vt 0.198789 0.328476
vt 0.208803 0.404093
vt 0.208834 0.401929
vt 0.208834 0.404093
vt 0.559933 0.252256
vt 0.559963 0.251085
vt 0.559963 0.252256
vt 0.199168 0.404093
vt 0.199199 0.401929
vt 0.199199 0.404093
vt 0.559963 0.261861
vt 0.559933 0.263032
vt 0.559933 0.261861
vt 0.235782 0.236658
vt 0.237350 0.241614
vt 0.235782 0.241608
vt 0.247139 0.009752
vt 0.248707 0.004815
vt 0.248707 0.009759
vt 0.105757 0.275797
vt 0.105787 0.270849
vt 0.105787 0.275797
vt 0.019008 0.180985
vt 0.020581 0.180797
vt 0.019008 0.181015
vt 0.096122 0.275802
vt 0.096152 0.270849
vt 0.096152 0.275802
vt 0.007680 0.172693
vt 0.006107 0.172521
vt 0.006107 0.172491
vt 0.019008 0.172340
vt 0.020581 0.172327
vt 0.201617 0.043282
vt 0.200045 0.051845
vt 0.200045 0.043083
vt 0.234419 0.121689
vt 0.234388 0.112897
vt 0.234419 0.112897
vt 0.220550 0.438359
vt 0.220581 0.436785
vt 0.220581 0.438359
vt 0.043482 0.245242
vt 0.043512 0.236658
vt 0.043512 0.245243
vt 0.239850 0.436786
vt 0.239820 0.438359
vt 0.239820 0.436785
vt 0.006107 0.181269
vt 0.200045 0.061461
vt 0.201618 0.069955
vt 0.200045 0.070172
vt 0.234388 0.140086
vt 0.234419 0.131295
vt 0.234419 0.140087
vt 0.230185 0.436785
vt 0.230216 0.438359
vt 0.230185 0.438359
vt 0.053117 0.236658
vt 0.053147 0.245242
vt 0.053117 0.245243
vt 0.249484 0.438359
vt 0.249455 0.436785
vt 0.249484 0.436785
vt 0.004802 0.557084
vt 0.005115 0.557979
vt 0.004802 0.557988
vt 0.549991 0.374893
vt 0.550298 0.375832
vt 0.549991 0.375776
vt 0.005115 0.557075
vt 0.005145 0.557980
vt 0.689315 0.552647
vt 0.689354 0.552258
vt 0.689354 0.552654
vt 0.550328 0.375827
vt 0.550298 0.374949
vt 0.550328 0.374944
vt 0.689353 0.453251
vt 0.689315 0.452858
vt 0.689353 0.452851
vt 0.570067 0.390615
vt 0.570379 0.391275
vt 0.570067 0.391284
vt 0.570067 0.109722
vt 0.570374 0.110432
vt 0.570067 0.110376
vt 0.570379 0.390606
vt 0.570409 0.391276
vt 0.689315 0.562655
vt 0.689354 0.562266
vt 0.689354 0.562662
vt 0.570404 0.110426
vt 0.570374 0.109778
vt 0.570404 0.109772
vt 0.689354 0.463262
vt 0.689315 0.462869
vt 0.689354 0.462863
vt 0.271824 0.036419
vt 0.111334 0.299307
vt 0.559933 0.240308
vt 0.082429 0.299306
vt 0.124622 0.285460
vt 0.025150 0.116600
vt 0.170426 0.139559
vt 0.140359 0.208233
vt 0.559933 0.197198
vt 0.121089 0.195499
vt 0.559962 0.219925
vt 0.170426 0.161772
vt 0.150024 0.208233
vt 0.559933 0.207975
vt 0.130754 0.195499
vt 0.559963 0.187593
vt 0.112949 0.027311
vt 0.259877 0.200332
vt 0.101729 0.303276
vt 0.125795 0.288166
vt 0.092094 0.303276
vt 0.559963 0.230703
vt 0.124622 0.285760
vt 0.197617 0.326312
vt 0.208803 0.401929
vt 0.559933 0.251085
vt 0.199168 0.401929
vt 0.559963 0.263032
vt 0.237350 0.236670
vt 0.247139 0.004802
vt 0.105757 0.270849
vt 0.020581 0.180767
vt 0.096122 0.270849
vt 0.007679 0.172724
vt 0.201617 0.051837
vt 0.234388 0.121689
vt 0.220550 0.436785
vt 0.043482 0.236658
vt 0.239850 0.438360
vt 0.007679 0.181264
vt 0.201618 0.061450
vt 0.234388 0.131294
vt 0.230216 0.436785
vt 0.053147 0.236658
vt 0.249455 0.438359
vt 0.005145 0.557076
vt 0.689315 0.552251
vt 0.689315 0.453258
vt 0.570409 0.390606
vt 0.689315 0.562259
vt 0.689315 0.463269
vn 0.2398 -0.0000 -0.9708
vn -0.2398 -0.0000 0.9708
vn -0.0000 -1.0000 -0.0000
vn -0.9708 -0.0000 -0.2398
vn -0.0000 1.0000 -0.0000
vn 0.9708 -0.0000 0.2399
vn 0.9708 -0.0000 0.2398
vn 0.0062 -0.0000 -1.0000
vn -0.0062 -0.0000 1.0000
vn -1.0000 -0.0000 -0.0063
vn -1.0000 -0.0000 -0.0062
vn 1.0000 -0.0000 0.0062
vn 0.0062 -0.0000 1.0000
vn -0.0062 -0.0000 -1.0000
vn 1.0000 -0.0000 -0.0062
vn -1.0000 -0.0000 0.0063
vn -1.0000 -0.0000 0.0062
vn 0.2398 -0.0000 0.9708
vn -0.2398 -0.0000 -0.9708
vn 0.9708 -0.0000 -0.2399
vn 0.9708 -0.0000 -0.2398
vn -0.9708 -0.0000 0.2398
vn 1.0000 -0.0000 -0.0000
vn -1.0000 -0.0000 -0.0000
vn -0.0000 -0.0000 -1.0000
vn -0.0000 -0.0000 1.0000
vn -0.9914 -0.1308 -0.0000
vn -0.0000 -0.0018 -1.0000
vn -0.0000 -0.0018 1.0000
vn 0.0136 -0.0000 -0.9999
vn -0.0136 -0.0000 0.9999
vn 0.9914 0.1308 -0.0000
vn 0.0136 -0.0000 0.9999
vn -0.0136 -0.0000 -0.9999
vn -0.7634 0.6459 -0.0000
vn 0.7634 -0.6459 -0.0000
vn -0.7682 -0.6402 -0.0000
vn 0.7682 0.6402 -0.0000
f 1/1/1 2/2/1 3/3/1
f 4/4/2 5/5/2 6/6/2
f 6/7/3 7/8/3 1/9/3
f 5/10/4 2/11/4 7/12/4
f 8/13/5 3/14/5 2/15/5
f 4/16/6 1/17/7 3/18/6
f 7/19/8 9/20/8 2/2/8
f 10/21/9 11/22/9 12/23/9
f 7/24/3 11/25/3 13/26/3
f 11/27/10 9/28/11 13/29/10
f 14/30/5 2/31/5 9/32/5
f 10/33/12 7/34/12 2/35/12
f 15/36/13 16/37/13 17/38/13
f 18/39/14 19/40/14 20/41/14
f 20/42/3 21/43/3 15/44/3
f 19/45/15 16/46/15 21/47/15
f 16/48/5 18/49/5 17/50/5
f 18/51/16 15/52/17 17/53/16
f 21/54/18 22/55/18 16/37/18
f 23/56/19 24/57/19 25/58/19
f 25/59/3 26/60/3 21/61/3
f 24/62/20 22/63/21 26/64/20
f 27/65/5 16/66/5 22/67/5
f 23/68/22 21/69/22 16/70/22
f 28/71/23 29/72/23 30/73/23
f 31/74/24 32/75/24 33/76/24
f 33/77/3 34/78/3 28/79/3
f 32/80/25 29/81/25 34/82/25
f 35/83/5 30/84/5 29/85/5
f 31/86/26 28/87/26 30/88/26
f 36/89/27 37/90/27 38/91/27
f 39/92/27 40/93/27 41/94/27
f 41/95/3 42/96/3 37/97/3
f 40/98/28 36/99/28 42/100/28
f 43/101/5 38/102/5 36/103/5
f 38/104/29 41/105/29 37/106/29
f 36/99/30 44/107/30 45/108/30
f 46/109/31 47/110/31 48/111/31
f 42/112/3 47/113/3 44/114/3
f 47/115/24 45/116/24 44/117/24
f 49/118/5 36/119/5 45/120/5
f 46/121/32 42/122/32 36/123/32
f 38/104/33 50/124/33 37/106/33
f 51/125/34 52/126/34 53/127/34
f 37/128/3 51/129/3 53/130/3
f 54/131/24 51/132/24 50/133/24
f 38/134/5 55/135/5 54/136/5
f 37/137/32 52/138/32 38/139/32
f 56/140/35 57/141/35 58/142/35
f 59/143/36 60/144/36 61/145/36
f 62/146/37 61/147/37 57/141/37
f 62/148/25 63/149/25 59/150/25
f 58/151/38 63/152/38 56/153/38
f 57/154/26 60/155/26 58/156/26
f 64/157/35 65/158/35 66/159/35
f 67/160/36 68/161/36 69/162/36
f 70/163/37 69/164/37 65/158/37
f 70/165/25 71/166/25 67/167/25
f 66/168/38 71/169/38 64/170/38
f 65/171/26 68/172/26 66/173/26
f 1/1/1 7/19/1 2/2/1
f 4/4/2 8/174/2 5/5/2
f 6/7/3 5/175/3 7/8/3
f 5/10/4 8/176/4 2/11/4
f 8/13/5 4/177/5 3/14/5
f 4/16/6 6/178/7 1/17/7
f 7/19/8 13/179/8 9/20/8
f 10/21/9 14/180/9 11/22/9
f 7/24/3 12/181/3 11/25/3
f 11/27/10 14/182/11 9/28/11
f 14/30/5 10/183/5 2/31/5
f 10/33/12 12/184/12 7/34/12
f 15/36/13 21/54/13 16/37/13
f 18/39/14 72/185/14 19/40/14
f 20/42/3 19/186/3 21/43/3
f 19/45/15 72/187/15 16/46/15
f 16/48/5 72/188/5 18/49/5
f 18/51/16 20/189/17 15/52/17
f 21/54/18 26/190/18 22/55/18
f 23/56/19 27/191/19 24/57/19
f 25/59/3 24/192/3 26/60/3
f 24/62/20 27/193/21 22/63/21
f 27/65/5 23/194/5 16/66/5
f 23/68/22 25/195/22 21/69/22
f 28/71/23 34/196/23 29/72/23
f 31/74/24 35/197/24 32/75/24
f 33/77/3 32/198/3 34/78/3
f 32/80/25 35/199/25 29/81/25
f 35/83/5 31/200/5 30/84/5
f 31/86/26 33/201/26 28/87/26
f 36/89/27 42/202/27 37/90/27
f 39/92/27 43/203/27 40/93/27
f 41/95/3 40/204/3 42/96/3
f 40/98/28 43/205/28 36/99/28
f 43/101/5 39/206/5 38/102/5
f 38/104/29 39/207/29 41/105/29
f 36/99/30 42/100/30 44/107/30
f 46/109/31 49/208/31 47/110/31
f 42/112/3 48/209/3 47/113/3
f 47/115/24 49/210/24 45/116/24
f 49/118/5 46/211/5 36/119/5
f 46/121/32 48/212/32 42/122/32
f 38/104/33 54/213/33 50/124/33
f 51/125/34 55/214/34 52/126/34
f 37/128/3 50/215/3 51/129/3
f 54/131/24 55/216/24 51/132/24
f 38/134/5 52/217/5 55/135/5
f 37/137/32 53/218/32 52/138/32
f 56/140/35 62/146/35 57/141/35
f 59/143/36 63/152/36 60/144/36
f 62/146/37 59/219/37 61/147/37
f 62/148/25 56/220/25 63/149/25
f 58/151/38 60/144/38 63/152/38
f 57/154/26 61/221/26 60/155/26
f 64/157/35 70/163/35 65/158/35
f 67/160/36 71/169/36 68/161/36
f 70/163/37 67/222/37 69/164/37
f 70/165/25 64/223/25 71/166/25
f 66/168/38 68/161/38 71/169/38
f 65/171/26 69/224/26 68/172/26
