# JIB VI - the wheel parts, as a standalone mesh.
#
# One file per material rather than one library addressed with `#group`:
# selecting a group recentres it on its own bounding box, which takes a
# model apart when the library IS one model. A whole-file import keeps
# the authored coordinates. See loom_asset/src/mesh.rs:268.
v 2.353000 4.309529 -0.733988
v 2.353000 4.240000 -0.780000
v 2.353000 4.240000 -0.745000
v 2.353000 4.320344 -0.767275
v 2.397000 4.240000 -0.780000
v 2.397000 4.309529 -0.733988
v 2.397000 4.240000 -0.745000
v 2.353000 4.372252 -0.702029
v 2.353000 4.392824 -0.730344
v 2.397000 4.320344 -0.767275
v 2.397000 4.372252 -0.702029
v 2.353000 4.422029 -0.652252
v 2.353000 4.450345 -0.672824
v 2.397000 4.392824 -0.730344
v 2.397000 4.422029 -0.652252
v 2.353000 4.487275 -0.600344
v 2.397000 4.450345 -0.672824
v 2.397000 4.487275 -0.600344
v 2.397000 4.453988 -0.589529
v 2.353000 4.465000 -0.520000
v 2.353000 4.453988 -0.589529
v 2.353000 4.500000 -0.520000
v 2.397000 4.465000 -0.520000
v 2.353000 4.487275 -0.439656
v 2.397000 4.500000 -0.520000
v 2.397000 4.487275 -0.439656
v 2.397000 4.453988 -0.450471
v 2.353000 4.422029 -0.387748
v 2.353000 4.453988 -0.450471
v 2.353000 4.450345 -0.367176
v 2.397000 4.422029 -0.387748
v 2.353000 4.392824 -0.309656
v 2.397000 4.450345 -0.367176
v 2.397000 4.392824 -0.309656
v 2.397000 4.372252 -0.337971
v 2.353000 4.372252 -0.337971
v 2.353000 4.320344 -0.272725
v 2.397000 4.320344 -0.272725
v 2.397000 4.309529 -0.306012
v 2.353000 4.309529 -0.306012
v 2.353000 4.240000 -0.260000
v 2.397000 4.240000 -0.260000
v 2.397000 4.240000 -0.295000
v 2.353000 4.240000 -0.295000
v 2.353000 4.159656 -0.272725
v 2.397000 4.159656 -0.272725
v 2.397000 4.170471 -0.306012
v 2.353000 4.107749 -0.337971
v 2.353000 4.170471 -0.306012
v 2.353000 4.087176 -0.309656
v 2.397000 4.107749 -0.337971
v 2.353000 4.057971 -0.387748
v 2.353000 4.029655 -0.367176
v 2.397000 4.087176 -0.309656
v 2.397000 4.057971 -0.387748
v 2.353000 3.992725 -0.439656
v 2.397000 4.029655 -0.367176
v 2.397000 3.992725 -0.439656
v 2.397000 4.026012 -0.450471
v 2.353000 4.015000 -0.520000
v 2.353000 4.026012 -0.450471
v 2.353000 3.980000 -0.520000
v 2.397000 4.015000 -0.520000
v 2.353000 3.992725 -0.600344
v 2.397000 3.980000 -0.520000
v 2.397000 3.992725 -0.600344
v 2.397000 4.026012 -0.589529
v 2.353000 4.057971 -0.652252
v 2.353000 4.026012 -0.589529
v 2.353000 4.029655 -0.672824
v 2.397000 4.057971 -0.652252
v 2.353000 4.087176 -0.730344
v 2.397000 4.029655 -0.672824
v 2.397000 4.087176 -0.730344
v 2.397000 4.107749 -0.702029
v 2.353000 4.107749 -0.702029
v 2.353000 4.159656 -0.767275
v 2.397000 4.159656 -0.767275
v 2.397000 4.170471 -0.733988
v 2.353000 4.170471 -0.733988
v 2.383000 4.226143 -0.565000
v 2.391000 4.240000 -0.755000
v 2.391000 4.240000 -0.565000
v 2.367000 4.226143 -0.565000
v 2.383000 4.226143 -0.755000
v 2.359000 4.240000 -0.565000
v 2.367000 4.226143 -0.755000
v 2.367000 4.253856 -0.565000
v 2.359000 4.240000 -0.755000
v 2.383000 4.253856 -0.565000
v 2.367000 4.253856 -0.755000
v 2.383000 4.253856 -0.755000
v 2.381500 4.228742 -0.770000
v 2.383500 4.240000 -0.845000
v 2.388000 4.240000 -0.770000
v 2.368500 4.228742 -0.770000
v 2.379250 4.232638 -0.845000
v 2.366500 4.240000 -0.845000
v 2.370750 4.232638 -0.845000
v 2.368500 4.251258 -0.770000
v 2.362000 4.240000 -0.770000
v 2.381500 4.251258 -0.770000
v 2.370750 4.247361 -0.845000
v 2.379250 4.247361 -0.845000
v 2.382000 4.227875 -0.840000
v 2.389000 4.240000 -0.856000
v 2.389000 4.240000 -0.840000
v 2.368000 4.227875 -0.840000
v 2.382000 4.227875 -0.856000
v 2.361000 4.240000 -0.840000
v 2.368000 4.227875 -0.856000
v 2.368000 4.252124 -0.840000
v 2.361000 4.240000 -0.856000
v 2.382000 4.252124 -0.840000
v 2.368000 4.252124 -0.856000
v 2.382000 4.252124 -0.856000
v 2.391000 4.271820 -0.551820
v 2.383000 4.396372 -0.695968
v 2.391000 4.406170 -0.686170
v 2.367000 4.262022 -0.561618
v 2.383000 4.262022 -0.561618
v 2.359000 4.271820 -0.551820
v 2.367000 4.396372 -0.695968
v 2.367000 4.281618 -0.542022
v 2.359000 4.406170 -0.686170
v 2.383000 4.281618 -0.542022
v 2.367000 4.415968 -0.676372
v 2.383000 4.415968 -0.676372
v 2.381500 4.408816 -0.704738
v 2.383500 4.469810 -0.749810
v 2.388000 4.416777 -0.696777
v 2.368500 4.408816 -0.704738
v 2.379250 4.464604 -0.755015
v 2.366500 4.469810 -0.749810
v 2.370750 4.464604 -0.755015
v 2.362000 4.416777 -0.696777
v 2.370750 4.475015 -0.744605
v 2.381500 4.424737 -0.688816
v 2.368500 4.424737 -0.688816
v 2.379250 4.475015 -0.744605
v 2.389000 4.466274 -0.746274
v 2.382000 4.469014 -0.766161
v 2.389000 4.477588 -0.757588
v 2.368000 4.457701 -0.754847
v 2.382000 4.457701 -0.754847
v 2.361000 4.466274 -0.746274
v 2.368000 4.469014 -0.766161
v 2.368000 4.474848 -0.737701
v 2.361000 4.477588 -0.757588
v 2.382000 4.474848 -0.737701
v 2.368000 4.486161 -0.749015
v 2.382000 4.486161 -0.749015
v 2.361143 4.285000 -0.528000
v 2.375000 4.475000 -0.536000
v 2.375000 4.285000 -0.536000
v 2.361143 4.285000 -0.512000
v 2.361143 4.475000 -0.528000
v 2.375000 4.285000 -0.504000
v 2.361143 4.475000 -0.512000
v 2.388856 4.285000 -0.512000
v 2.375000 4.475000 -0.504000
v 2.388856 4.285000 -0.528000
v 2.388856 4.475000 -0.512000
v 2.388856 4.475000 -0.528000
v 2.375000 4.490000 -0.533000
v 2.367639 4.565000 -0.524250
v 2.375000 4.565000 -0.528500
v 2.363741 4.490000 -0.513500
v 2.363741 4.490000 -0.526500
v 2.375000 4.490000 -0.507000
v 2.367639 4.565000 -0.515750
v 2.382361 4.565000 -0.515750
v 2.375000 4.565000 -0.511500
v 2.386258 4.490000 -0.526500
v 2.386258 4.490000 -0.513500
v 2.382361 4.565000 -0.524250
v 2.362875 4.560000 -0.527000
v 2.375000 4.576000 -0.534000
v 2.375000 4.560000 -0.534000
v 2.362875 4.560000 -0.513000
v 2.362875 4.576000 -0.527000
v 2.375000 4.560000 -0.506000
v 2.362875 4.576000 -0.513000
v 2.387124 4.560000 -0.513000
v 2.375000 4.576000 -0.506000
v 2.387124 4.560000 -0.527000
v 2.387124 4.576000 -0.513000
v 2.387124 4.576000 -0.527000
v 2.359000 4.271820 -0.488180
v 2.367000 4.396372 -0.344032
v 2.359000 4.406170 -0.353830
v 2.383000 4.262022 -0.478382
v 2.367000 4.262022 -0.478382
v 2.391000 4.271820 -0.488180
v 2.383000 4.396372 -0.344032
v 2.383000 4.281618 -0.497978
v 2.391000 4.406170 -0.353830
v 2.367000 4.281618 -0.497978
v 2.383000 4.415968 -0.363628
v 2.367000 4.415968 -0.363628
v 2.368500 4.408816 -0.335262
v 2.366500 4.469810 -0.290190
v 2.362000 4.416777 -0.343223
v 2.381500 4.408816 -0.335262
v 2.370750 4.464604 -0.284985
v 2.383500 4.469810 -0.290190
v 2.379250 4.464604 -0.284985
v 2.388000 4.416777 -0.343223
v 2.379250 4.475015 -0.295395
v 2.368500 4.424737 -0.351184
v 2.381500 4.424737 -0.351184
v 2.370750 4.475015 -0.295395
v 2.361000 4.466274 -0.293726
v 2.368000 4.469014 -0.273839
v 2.361000 4.477588 -0.282412
v 2.382000 4.457701 -0.285153
v 2.368000 4.457701 -0.285153
v 2.389000 4.466274 -0.293726
v 2.382000 4.469014 -0.273839
v 2.382000 4.474848 -0.302299
v 2.389000 4.477588 -0.282412
v 2.368000 4.474848 -0.302299
v 2.382000 4.486161 -0.290985
v 2.368000 4.486161 -0.290985
v 2.367000 4.226143 -0.475000
v 2.359000 4.240000 -0.285000
v 2.359000 4.240000 -0.475000
v 2.383000 4.226143 -0.475000
v 2.367000 4.226143 -0.285000
v 2.391000 4.240000 -0.475000
v 2.383000 4.226143 -0.285000
v 2.383000 4.253856 -0.475000
v 2.391000 4.240000 -0.285000
v 2.367000 4.253856 -0.475000
v 2.383000 4.253856 -0.285000
v 2.367000 4.253856 -0.285000
v 2.368500 4.228742 -0.270000
v 2.366500 4.240000 -0.195000
v 2.362000 4.240000 -0.270000
v 2.381500 4.228742 -0.270000
v 2.370750 4.232638 -0.195000
v 2.383500 4.240000 -0.195000
v 2.379250 4.232638 -0.195000
v 2.381500 4.251258 -0.270000
v 2.388000 4.240000 -0.270000
v 2.368500 4.251258 -0.270000
v 2.379250 4.247361 -0.195000
v 2.370750 4.247361 -0.195000
v 2.368000 4.227875 -0.200000
v 2.361000 4.240000 -0.184000
v 2.361000 4.240000 -0.200000
v 2.382000 4.227875 -0.200000
v 2.368000 4.227875 -0.184000
v 2.389000 4.240000 -0.200000
v 2.382000 4.227875 -0.184000
v 2.382000 4.252124 -0.200000
v 2.389000 4.240000 -0.184000
v 2.368000 4.252124 -0.200000
v 2.382000 4.252124 -0.184000
v 2.368000 4.252124 -0.184000
v 2.367000 4.198382 -0.497978
v 2.359000 4.073830 -0.353830
v 2.359000 4.208180 -0.488180
v 2.383000 4.198382 -0.497978
v 2.367000 4.064032 -0.363628
v 2.391000 4.073830 -0.353830
v 2.383000 4.064032 -0.363628
v 2.391000 4.208180 -0.488180
v 2.383000 4.083628 -0.344032
v 2.367000 4.217978 -0.478382
v 2.383000 4.217978 -0.478382
v 2.367000 4.083628 -0.344032
v 2.362000 4.063223 -0.343223
v 2.370750 4.004985 -0.295395
v 2.366500 4.010190 -0.290190
v 2.381500 4.055263 -0.351184
v 2.368500 4.055263 -0.351184
v 2.388000 4.063223 -0.343223
v 2.379250 4.004985 -0.295395
v 2.381500 4.071184 -0.335262
v 2.383500 4.010190 -0.290190
v 2.368500 4.071184 -0.335262
v 2.379250 4.015396 -0.284985
v 2.370750 4.015396 -0.284985
v 2.368000 4.005152 -0.302299
v 2.361000 4.002412 -0.282412
v 2.361000 4.013726 -0.293726
v 2.382000 4.005152 -0.302299
v 2.368000 3.993839 -0.290985
v 2.389000 4.002412 -0.282412
v 2.382000 3.993839 -0.290985
v 2.389000 4.013726 -0.293726
v 2.382000 4.010986 -0.273839
v 2.368000 4.022299 -0.285153
v 2.382000 4.022299 -0.285153
v 2.368000 4.010986 -0.273839
v 2.361143 4.195000 -0.512000
v 2.375000 4.005000 -0.504000
v 2.375000 4.195000 -0.504000
v 2.361143 4.195000 -0.528000
v 2.361143 4.005000 -0.512000
v 2.375000 4.195000 -0.536000
v 2.361143 4.005000 -0.528000
v 2.388856 4.195000 -0.528000
v 2.375000 4.005000 -0.536000
v 2.388856 4.195000 -0.512000
v 2.388856 4.005000 -0.528000
v 2.388856 4.005000 -0.512000
v 2.375000 3.990000 -0.507000
v 2.367639 3.915000 -0.515750
v 2.375000 3.915000 -0.511500
v 2.363741 3.990000 -0.526500
v 2.363741 3.990000 -0.513500
v 2.375000 3.990000 -0.533000
v 2.367639 3.915000 -0.524250
v 2.382361 3.915000 -0.524250
v 2.375000 3.915000 -0.528500
v 2.386258 3.990000 -0.513500
v 2.386258 3.990000 -0.526500
v 2.382361 3.915000 -0.515750
v 2.362875 3.920000 -0.513000
v 2.375000 3.904000 -0.506000
v 2.375000 3.920000 -0.506000
v 2.362875 3.920000 -0.527000
v 2.362875 3.904000 -0.513000
v 2.375000 3.920000 -0.534000
v 2.362875 3.904000 -0.527000
v 2.387124 3.920000 -0.527000
v 2.375000 3.904000 -0.534000
v 2.387124 3.920000 -0.513000
v 2.387124 3.904000 -0.527000
v 2.387124 3.904000 -0.513000
v 2.383000 4.198382 -0.542022
v 2.391000 4.073830 -0.686170
v 2.391000 4.208180 -0.551820
v 2.367000 4.198382 -0.542022
v 2.383000 4.064032 -0.676372
v 2.359000 4.073830 -0.686170
v 2.367000 4.064032 -0.676372
v 2.359000 4.208180 -0.551820
v 2.367000 4.083628 -0.695968
v 2.383000 4.217978 -0.561618
v 2.367000 4.217978 -0.561618
v 2.383000 4.083628 -0.695968
v 2.388000 4.063223 -0.696777
v 2.379250 4.004985 -0.744605
v 2.383500 4.010190 -0.749810
v 2.368500 4.055263 -0.688816
v 2.381500 4.055263 -0.688816
v 2.362000 4.063223 -0.696777
v 2.370750 4.004985 -0.744605
v 2.368500 4.071184 -0.704738
v 2.366500 4.010190 -0.749810
v 2.381500 4.071184 -0.704738
v 2.370750 4.015396 -0.755015
v 2.379250 4.015396 -0.755015
v 2.382000 4.005152 -0.737701
v 2.389000 4.002412 -0.757588
v 2.389000 4.013726 -0.746274
v 2.368000 4.005152 -0.737701
v 2.382000 3.993839 -0.749015
v 2.361000 4.002412 -0.757588
v 2.368000 3.993839 -0.749015
v 2.361000 4.013726 -0.746274
v 2.368000 4.010986 -0.766161
v 2.382000 4.022299 -0.754847
v 2.368000 4.022299 -0.754847
v 2.382000 4.010986 -0.766161
v 2.325000 4.207672 -0.475504
v 2.425000 4.240000 -0.465000
v 2.325000 4.240000 -0.465000
v 2.325000 4.187692 -0.503004
v 2.425000 4.207672 -0.475504
v 2.325000 4.187692 -0.536996
v 2.425000 4.187692 -0.503004
v 2.325000 4.207672 -0.564496
v 2.425000 4.187692 -0.536996
v 2.325000 4.240000 -0.575000
v 2.425000 4.207672 -0.564496
v 2.325000 4.272328 -0.564496
v 2.425000 4.240000 -0.575000
v 2.325000 4.292308 -0.536996
v 2.425000 4.272328 -0.564496
v 2.325000 4.292308 -0.503004
v 2.425000 4.292308 -0.536996
v 2.325000 4.272328 -0.475504
v 2.425000 4.292308 -0.503004
v 2.425000 4.272328 -0.475504
vt 0.250963 0.425498
vt 0.251100 0.425526
vt 0.251058 0.425567
vt 0.343643 0.631062
vt 0.343722 0.631194
vt 0.343649 0.631195
vt 0.338978 0.425769
vt 0.339070 0.425665
vt 0.339035 0.425777
vt 0.659683 0.207745
vt 0.659756 0.207862
vt 0.659683 0.207862
vt 0.250851 0.425462
vt 0.250990 0.425446
vt 0.343630 0.630944
vt 0.343715 0.631061
vt 0.339019 0.425639
vt 0.339138 0.425569
vt 0.659685 0.207637
vt 0.659756 0.207744
vt 0.250733 0.425462
vt 0.250860 0.425404
vt 0.518608 0.610816
vt 0.518682 0.610913
vt 0.518608 0.610913
vt 0.339098 0.425528
vt 0.339231 0.425499
vt 0.659690 0.207548
vt 0.659759 0.207636
vt 0.250595 0.425446
vt 0.250724 0.425404
vt 0.518608 0.610695
vt 0.518682 0.610816
vt 0.339332 0.425404
vt 0.339205 0.425447
vt 0.140671 0.671941
vt 0.140597 0.671836
vt 0.140671 0.671836
vt 0.250526 0.425567
vt 0.250621 0.425498
vt 0.518608 0.610560
vt 0.518682 0.610695
vt 0.339456 0.425462
vt 0.339341 0.425462
vt 0.140671 0.672058
vt 0.140597 0.671941
vt 0.250404 0.425636
vt 0.250484 0.425526
vt 0.518608 0.610426
vt 0.518682 0.610560
vt 0.339591 0.425445
vt 0.339465 0.425404
vt 0.140671 0.672174
vt 0.140597 0.672058
vt 0.250420 0.425775
vt 0.250457 0.425663
vt 0.518608 0.610304
vt 0.518682 0.610426
vt 0.339658 0.425566
vt 0.339565 0.425497
vt 0.140671 0.672279
vt 0.140597 0.672174
vt 0.250362 0.425902
vt 0.250362 0.425766
vt 0.518608 0.610208
vt 0.518682 0.610304
vt 0.339777 0.425634
vt 0.339699 0.425525
vt 0.659761 0.137108
vt 0.659699 0.137021
vt 0.659771 0.137020
vt 0.250420 0.425893
vt 0.250404 0.426032
vt 0.639949 0.117390
vt 0.639870 0.117273
vt 0.639943 0.117273
vt 0.339818 0.425764
vt 0.339726 0.425661
vt 0.659756 0.137216
vt 0.659688 0.137109
vt 0.250457 0.426005
vt 0.250484 0.426142
vt 0.639952 0.117523
vt 0.639875 0.117391
vt 0.339818 0.425900
vt 0.339762 0.425773
vt 0.659756 0.137333
vt 0.659683 0.137217
vt 0.250526 0.426100
vt 0.250595 0.426222
vt 0.639952 0.117659
vt 0.639878 0.117524
vt 0.339777 0.426030
vt 0.339762 0.425891
vt 0.659761 0.137448
vt 0.659683 0.137334
vt 0.250733 0.426206
vt 0.250621 0.426170
vt 0.639949 0.117784
vt 0.639878 0.117659
vt 0.339658 0.426099
vt 0.339726 0.426003
vt 0.659771 0.137550
vt 0.659688 0.137450
vt 0.250851 0.426206
vt 0.250724 0.426264
vt 0.639943 0.117886
vt 0.639875 0.117784
vt 0.339699 0.426140
vt 0.339565 0.426169
vt 0.639943 0.567320
vt 0.639870 0.567237
vt 0.639944 0.567237
vt 0.250990 0.426222
vt 0.250860 0.426264
vt 0.208026 0.662030
vt 0.208099 0.662152
vt 0.208025 0.662152
vt 0.339465 0.426264
vt 0.339591 0.426221
vt 0.639943 0.567426
vt 0.639870 0.567320
vt 0.251058 0.426101
vt 0.250963 0.426170
vt 0.208026 0.661896
vt 0.208099 0.662030
vt 0.339341 0.426207
vt 0.339456 0.426206
vt 0.639943 0.567542
vt 0.639870 0.567426
vt 0.251180 0.426032
vt 0.251100 0.426142
vt 0.208026 0.661761
vt 0.208099 0.661896
vt 0.339205 0.426223
vt 0.339332 0.426265
vt 0.639943 0.567659
vt 0.639870 0.567542
vt 0.251164 0.425893
vt 0.251128 0.426005
vt 0.208025 0.661640
vt 0.208099 0.661761
vt 0.339138 0.426102
vt 0.339231 0.426171
vt 0.639943 0.567764
vt 0.639870 0.567659
vt 0.251222 0.425766
vt 0.251222 0.425902
vt 0.343642 0.631455
vt 0.343703 0.631555
vt 0.343630 0.631557
vt 0.339019 0.426034
vt 0.339098 0.426144
vt 0.639944 0.567847
vt 0.639870 0.567764
vt 0.251164 0.425775
vt 0.251180 0.425636
vt 0.343649 0.631330
vt 0.343715 0.631454
vt 0.338978 0.425905
vt 0.339070 0.426007
vt 0.659685 0.207977
vt 0.659764 0.208079
vt 0.659690 0.208079
vt 0.251128 0.425663
vt 0.343722 0.631329
vt 0.339035 0.425895
vt 0.659759 0.207977
vt 0.072706 0.712381
vt 0.072730 0.712074
vt 0.072730 0.712384
vt 0.718749 0.024797
vt 0.718776 0.024479
vt 0.718776 0.024797
vt 0.708976 0.520447
vt 0.708999 0.520130
vt 0.708999 0.520448
vt 0.708952 0.520448
vt 0.708976 0.520129
vt 0.718776 0.034402
vt 0.718749 0.034720
vt 0.718749 0.034402
vt 0.072753 0.712071
vt 0.072753 0.712381
vt 0.922828 0.894831
vt 0.922805 0.894845
vt 0.922782 0.894831
vt 0.120477 0.927598
vt 0.120500 0.927611
vt 0.120477 0.927651
vt 0.874432 0.772537
vt 0.874413 0.772658
vt 0.874413 0.772534
vt 0.893763 0.082468
vt 0.893781 0.082343
vt 0.893784 0.082468
vt 0.874432 0.782391
vt 0.874413 0.782265
vt 0.874425 0.782265
vt 0.874394 0.782391
vt 0.874413 0.782390
vt 0.893784 0.072612
vt 0.893766 0.072738
vt 0.893763 0.072612
vt 0.874394 0.772537
vt 0.874401 0.772660
vt 0.438208 0.937339
vt 0.438189 0.937328
vt 0.438189 0.937306
vt 0.951734 0.737370
vt 0.951746 0.737363
vt 0.951758 0.737370
vt 0.254974 0.947015
vt 0.254951 0.946995
vt 0.254977 0.946995
vt 0.245564 0.956665
vt 0.245588 0.956638
vt 0.245588 0.956665
vt 0.592065 0.946995
vt 0.592091 0.947015
vt 0.592064 0.947015
vt 0.592064 0.946974
vt 0.592091 0.946995
vt 0.235959 0.956638
vt 0.235936 0.956665
vt 0.235936 0.956638
vt 0.254948 0.946975
vt 0.254974 0.946975
vt 0.932477 0.826778
vt 0.932457 0.826789
vt 0.932437 0.826778
vt 0.932437 0.855733
vt 0.932457 0.855721
vt 0.932477 0.855733
vt 0.708977 0.599835
vt 0.708952 0.599518
vt 0.708977 0.599520
vt 0.767524 0.628521
vt 0.767550 0.628279
vt 0.767550 0.628517
vt 0.708976 0.560142
vt 0.708999 0.559823
vt 0.708999 0.560142
vt 0.708952 0.560142
vt 0.708976 0.559823
vt 0.728564 0.378315
vt 0.728538 0.378540
vt 0.728537 0.378315
vt 0.708998 0.599832
vt 0.708998 0.599517
vt 0.932479 0.923314
vt 0.932464 0.923335
vt 0.932442 0.923335
vt 0.728565 0.378540
vt 0.728565 0.378573
vt 0.874394 0.753197
vt 0.874416 0.753073
vt 0.874415 0.753198
vt 0.913116 0.469562
vt 0.913137 0.469463
vt 0.913137 0.469561
vt 0.874432 0.811582
vt 0.874413 0.811457
vt 0.874425 0.811457
vt 0.874413 0.811582
vt 0.874400 0.811457
vt 0.903466 0.431805
vt 0.903448 0.431899
vt 0.903444 0.431805
vt 0.874427 0.753072
vt 0.874431 0.753197
vt 0.081794 0.947006
vt 0.081794 0.946984
vt 0.081808 0.946975
vt 0.903462 0.431899
vt 0.903462 0.431916
vt 0.303145 0.946993
vt 0.303117 0.947015
vt 0.303119 0.946993
vt 0.563149 0.985546
vt 0.563168 0.985572
vt 0.563149 0.985569
vt 0.697995 0.946995
vt 0.698021 0.947015
vt 0.697995 0.947015
vt 0.697995 0.946975
vt 0.698022 0.946995
vt 0.932472 0.294997
vt 0.932449 0.295016
vt 0.932448 0.294997
vt 0.303143 0.946974
vt 0.303116 0.946974
vt 0.942124 0.883251
vt 0.942106 0.883266
vt 0.942088 0.883261
vt 0.932437 0.295030
vt 0.932472 0.295016
vt 0.708952 0.579988
vt 0.708977 0.579670
vt 0.708977 0.579988
vt 0.718749 0.084240
vt 0.718776 0.083922
vt 0.718776 0.084240
vt 0.708976 0.540294
vt 0.708999 0.539977
vt 0.708999 0.540295
vt 0.708952 0.540295
vt 0.708976 0.539976
vt 0.718749 0.173240
vt 0.718775 0.172922
vt 0.718775 0.173240
vt 0.708998 0.579671
vt 0.708998 0.579989
vt 0.922782 0.807855
vt 0.922782 0.807828
vt 0.922805 0.807815
vt 0.922805 0.798157
vt 0.922828 0.798170
vt 0.922828 0.798197
vt 0.874414 0.831043
vt 0.874399 0.830918
vt 0.874412 0.830918
vt 0.893763 0.063007
vt 0.893781 0.062882
vt 0.893784 0.063007
vt 0.874414 0.821312
vt 0.874424 0.821187
vt 0.874432 0.821313
vt 0.874400 0.821187
vt 0.874413 0.821187
vt 0.893763 0.363692
vt 0.893778 0.363566
vt 0.893784 0.363692
vt 0.874423 0.830918
vt 0.874431 0.831043
vt 0.418904 0.937306
vt 0.418923 0.937295
vt 0.418941 0.937306
vt 0.951734 0.698835
vt 0.951746 0.698828
vt 0.951758 0.698849
vt 0.611328 0.946975
vt 0.611356 0.946996
vt 0.611329 0.946997
vt 0.274449 0.956665
vt 0.274473 0.956638
vt 0.274473 0.956665
vt 0.543919 0.946996
vt 0.543945 0.947015
vt 0.543918 0.947015
vt 0.543918 0.946975
vt 0.543946 0.946996
vt 0.332216 0.956665
vt 0.332239 0.956638
vt 0.332239 0.956665
vt 0.611355 0.947015
vt 0.611328 0.947015
vt 0.932437 0.759180
vt 0.932437 0.759156
vt 0.932457 0.759145
vt 0.932477 0.768808
vt 0.932477 0.768832
vt 0.932437 0.768832
vt 0.708976 0.500601
vt 0.708952 0.500282
vt 0.708976 0.500283
vt 0.092322 0.771455
vt 0.092348 0.771215
vt 0.092348 0.771453
vt 0.708977 0.619676
vt 0.708998 0.619364
vt 0.708998 0.619678
vt 0.708952 0.619677
vt 0.708977 0.619362
vt 0.728537 0.358847
vt 0.728565 0.358622
vt 0.728564 0.358847
vt 0.708999 0.500600
vt 0.708999 0.500282
vt 0.932437 0.807441
vt 0.932437 0.807414
vt 0.932454 0.807404
vt 0.728538 0.358622
vt 0.728538 0.358589
vt 0.874394 0.685154
vt 0.874413 0.685028
vt 0.874413 0.685154
vt 0.913116 0.527720
vt 0.913137 0.527621
vt 0.913137 0.527719
vt 0.294706 0.879071
vt 0.294685 0.878946
vt 0.294696 0.878948
vt 0.294689 0.879069
vt 0.294672 0.878948
vt 0.903444 0.422200
vt 0.903462 0.422107
vt 0.903466 0.422200
vt 0.874425 0.685028
vt 0.874432 0.685154
vt 0.120326 0.946993
vt 0.120315 0.947011
vt 0.120298 0.947011
vt 0.903448 0.422107
vt 0.903448 0.422089
vt 0.553578 0.946995
vt 0.553551 0.947015
vt 0.553551 0.946995
vt 0.582388 0.985546
vt 0.582408 0.985570
vt 0.582388 0.985569
vt 0.274218 0.946996
vt 0.274242 0.947015
vt 0.274215 0.947015
vt 0.274216 0.946974
vt 0.274244 0.946996
vt 0.932448 0.324002
vt 0.932472 0.323983
vt 0.932472 0.324002
vt 0.553578 0.946975
vt 0.553551 0.946975
vt 0.942124 0.931516
vt 0.942112 0.931535
vt 0.942094 0.931535
vt 0.932484 0.323969
vt 0.932449 0.323983
vt 0.708999 0.530053
vt 0.708976 0.530371
vt 0.708976 0.530053
vt 0.718776 0.044325
vt 0.718749 0.044644
vt 0.718749 0.044325
vt 0.082381 0.712074
vt 0.082358 0.712381
vt 0.082358 0.712071
vt 0.082404 0.712071
vt 0.082381 0.712384
vt 0.718749 0.054567
vt 0.718776 0.054248
vt 0.718776 0.054567
vt 0.708952 0.530371
vt 0.708952 0.530053
vt 0.178359 0.927638
vt 0.178336 0.927651
vt 0.178313 0.927637
vt 0.922828 0.875488
vt 0.922828 0.875515
vt 0.922782 0.875515
vt 0.874432 0.714230
vt 0.874413 0.714355
vt 0.874413 0.714229
vt 0.893784 0.092073
vt 0.893766 0.092199
vt 0.893763 0.092073
vt 0.410630 0.879070
vt 0.410611 0.878947
vt 0.410623 0.878948
vt 0.410592 0.879070
vt 0.410611 0.879068
vt 0.893763 0.101929
vt 0.893781 0.101804
vt 0.893784 0.101929
vt 0.874394 0.714230
vt 0.874401 0.714356
vt 0.505697 0.937328
vt 0.505678 0.937338
vt 0.505659 0.937327
vt 0.951734 0.718101
vt 0.951746 0.718094
vt 0.951758 0.718101
vt 0.601723 0.947015
vt 0.601697 0.946995
vt 0.601723 0.946995
vt 0.255216 0.956638
vt 0.255192 0.956665
vt 0.255192 0.956638
vt 0.264584 0.946995
vt 0.264608 0.947015
vt 0.264582 0.947015
vt 0.264582 0.946975
vt 0.264611 0.946995
vt 0.264821 0.956665
vt 0.264844 0.956638
vt 0.264844 0.956665
vt 0.601696 0.946974
vt 0.601723 0.946974
vt 0.932437 0.904006
vt 0.932437 0.903982
vt 0.932457 0.903971
vt 0.932437 0.836429
vt 0.932437 0.836406
vt 0.932457 0.836394
vt 0.708999 0.569747
vt 0.708976 0.570065
vt 0.708976 0.569747
vt 0.767550 0.638126
vt 0.767524 0.638368
vt 0.767524 0.638129
vt 0.708952 0.609440
vt 0.708977 0.609757
vt 0.708952 0.609755
vt 0.708977 0.609442
vt 0.708998 0.609754
vt 0.728538 0.388403
vt 0.728564 0.388178
vt 0.728565 0.388403
vt 0.708952 0.570065
vt 0.708952 0.569747
vt 0.728565 0.388436
vt 0.728538 0.388436
vt 0.728524 0.388419
vt 0.932454 0.681805
vt 0.932472 0.681820
vt 0.932472 0.681846
vt 0.874413 0.801726
vt 0.874425 0.801852
vt 0.874413 0.801852
vt 0.913137 0.837537
vt 0.913120 0.837631
vt 0.913116 0.837537
vt 0.256049 0.878948
vt 0.256031 0.879070
vt 0.256028 0.878947
vt 0.256066 0.878947
vt 0.256044 0.879071
vt 0.062687 0.908167
vt 0.062673 0.908255
vt 0.062665 0.908166
vt 0.874394 0.801726
vt 0.874400 0.801852
vt 0.101072 0.946985
vt 0.101072 0.947007
vt 0.101059 0.947018
vt 0.062687 0.908255
vt 0.062686 0.908274
vt 0.707653 0.947015
vt 0.707626 0.946995
vt 0.707653 0.946995
vt 0.553544 0.985572
vt 0.553524 0.985546
vt 0.553544 0.985549
vt 0.293484 0.947015
vt 0.293512 0.946993
vt 0.293510 0.947015
vt 0.293485 0.946993
vt 0.293509 0.946975
vt 0.932448 0.304668
vt 0.932472 0.304649
vt 0.932472 0.304668
vt 0.707626 0.946975
vt 0.707653 0.946975
vt 0.932472 0.304697
vt 0.932448 0.304697
vt 0.932437 0.304682
vt 0.942094 0.902582
vt 0.942088 0.902563
vt 0.942102 0.902544
vt 0.708999 0.549901
vt 0.708976 0.550218
vt 0.708976 0.549900
vt 0.718776 0.093845
vt 0.718749 0.094163
vt 0.718749 0.093845
vt 0.708977 0.589594
vt 0.708952 0.589912
vt 0.708952 0.589594
vt 0.708998 0.589594
vt 0.708977 0.589912
vt 0.718775 0.182845
vt 0.718749 0.183164
vt 0.718749 0.182845
vt 0.708952 0.550218
vt 0.708952 0.549901
vt 0.922828 0.817514
vt 0.922805 0.817527
vt 0.922782 0.817514
vt 0.922805 0.827132
vt 0.922828 0.827145
vt 0.922828 0.827172
vt 0.874414 0.694759
vt 0.874425 0.694885
vt 0.874414 0.694885
vt 0.893784 0.295470
vt 0.893766 0.295596
vt 0.893763 0.295470
vt 0.874414 0.762803
vt 0.874401 0.762929
vt 0.874394 0.762804
vt 0.874425 0.762929
vt 0.874414 0.762929
vt 0.893784 0.353836
vt 0.893765 0.353962
vt 0.893763 0.353836
vt 0.874401 0.694885
vt 0.874394 0.694760
vt 0.428584 0.937328
vt 0.428565 0.937339
vt 0.428546 0.937328
vt 0.951758 0.708482
vt 0.951746 0.708489
vt 0.951734 0.708468
vt 0.534313 0.947015
vt 0.534287 0.946996
vt 0.534314 0.946996
vt 0.284101 0.956638
vt 0.284077 0.956665
vt 0.284077 0.956638
vt 0.620988 0.946996
vt 0.620961 0.946975
vt 0.620987 0.946975
vt 0.620987 0.947015
vt 0.620961 0.946997
vt 0.322611 0.956638
vt 0.322589 0.956665
vt 0.322589 0.956638
vt 0.534286 0.946975
vt 0.534313 0.946975
vt 0.932437 0.778483
vt 0.932437 0.778460
vt 0.932457 0.778448
vt 0.932477 0.788135
vt 0.932457 0.788147
vt 0.932437 0.788112
vt 0.708998 0.629286
vt 0.708977 0.629598
vt 0.708977 0.629283
vt 0.101980 0.771215
vt 0.101953 0.771455
vt 0.101953 0.771217
vt 0.708952 0.510206
vt 0.708976 0.510524
vt 0.708952 0.510524
vt 0.708976 0.510206
vt 0.708999 0.510524
vt 0.728565 0.368485
vt 0.728537 0.368710
vt 0.728538 0.368485
vt 0.708952 0.629599
vt 0.708952 0.629285
vt 0.728538 0.368452
vt 0.728565 0.368452
vt 0.728578 0.368469
vt 0.043390 0.937336
vt 0.043390 0.937313
vt 0.043410 0.937295
vt 0.874415 0.743340
vt 0.874428 0.743467
vt 0.874416 0.743466
vt 0.913116 0.847329
vt 0.913134 0.847236
vt 0.913137 0.847329
vt 0.874413 0.791996
vt 0.874401 0.792121
vt 0.874394 0.791995
vt 0.874432 0.791995
vt 0.874413 0.792121
vt 0.903462 0.674447
vt 0.903450 0.674536
vt 0.903441 0.674445
vt 0.874394 0.743342
vt 0.874403 0.743467
vt 0.447626 0.947009
vt 0.447609 0.946995
vt 0.447609 0.946978
vt 0.903464 0.674537
vt 0.903460 0.674555
vt 0.283876 0.947015
vt 0.283852 0.946996
vt 0.283878 0.946996
vt 0.592033 0.985571
vt 0.592013 0.985546
vt 0.592033 0.985547
vt 0.563183 0.947015
vt 0.563210 0.946995
vt 0.563210 0.947015
vt 0.563184 0.946995
vt 0.563210 0.946974
vt 0.932472 0.314330
vt 0.932448 0.314349
vt 0.932449 0.314330
vt 0.283850 0.946975
vt 0.283877 0.946975
vt 0.932448 0.314302
vt 0.932472 0.314302
vt 0.932484 0.314316
vt 0.942089 0.921886
vt 0.942089 0.921866
vt 0.942106 0.921850
vt 0.748039 0.112344
vt 0.748094 0.112177
vt 0.748094 0.112345
vt 0.728570 0.103268
vt 0.728524 0.103435
vt 0.728524 0.103267
vt 0.728627 0.103268
vt 0.728570 0.103435
vt 0.728673 0.103267
vt 0.728627 0.103435
vt 0.748094 0.073142
vt 0.748039 0.073306
vt 0.748039 0.073140
vt 0.748147 0.073139
vt 0.748094 0.073308
vt 0.728627 0.113207
vt 0.728673 0.113040
vt 0.728673 0.113208
vt 0.728570 0.113207
vt 0.728627 0.113040
vt 0.728524 0.113208
vt 0.728570 0.113040
vt 0.748147 0.112176
vt 0.748147 0.112343
vt 0.709094 0.649012
vt 0.709128 0.649115
vt 0.709040 0.649179
vt 0.334964 0.712089
vt 0.334997 0.712192
vt 0.334911 0.712254
vt 0.343703 0.630943
vt 0.659764 0.207548
vt 0.140597 0.672279
vt 0.518682 0.610208
vt 0.659699 0.137552
vt 0.639870 0.117886
vt 0.208099 0.661640
vt 0.639870 0.567847
vt 0.072706 0.712071
vt 0.718749 0.024479
vt 0.708952 0.520130
vt 0.718776 0.034720
vt 0.922782 0.894805
vt 0.922805 0.894791
vt 0.922828 0.894805
vt 0.120500 0.927638
vt 0.120454 0.927638
vt 0.120454 0.927611
vt 0.874425 0.772660
vt 0.893766 0.082343
vt 0.874400 0.782265
vt 0.893781 0.072738
vt 0.438208 0.937295
vt 0.438227 0.937306
vt 0.438227 0.937328
vt 0.951758 0.737384
vt 0.951746 0.737391
vt 0.951734 0.737384
vt 0.254948 0.947015
vt 0.245564 0.956638
vt 0.592091 0.946974
vt 0.235959 0.956665
vt 0.932437 0.826754
vt 0.932457 0.826743
vt 0.932477 0.826754
vt 0.932477 0.855756
vt 0.932457 0.855768
vt 0.932437 0.855756
vt 0.708952 0.599833
vt 0.767524 0.628282
vt 0.708952 0.559823
vt 0.932437 0.923314
vt 0.932452 0.923292
vt 0.932473 0.923292
vt 0.728578 0.378556
vt 0.728538 0.378573
vt 0.728524 0.378556
vt 0.874403 0.753072
vt 0.913123 0.469464
vt 0.874394 0.811582
vt 0.081822 0.946986
vt 0.081822 0.947008
vt 0.081808 0.947018
vt 0.903469 0.431907
vt 0.903448 0.431916
vt 0.903441 0.431907
vt 0.303144 0.947015
vt 0.563168 0.985549
vt 0.698021 0.946975
vt 0.942088 0.883241
vt 0.942106 0.883226
vt 0.942124 0.883231
vt 0.932484 0.295030
vt 0.932472 0.295044
vt 0.932448 0.295044
vt 0.708952 0.579670
vt 0.718749 0.083922
vt 0.708952 0.539977
vt 0.718749 0.172922
vt 0.922828 0.807828
vt 0.922828 0.807855
vt 0.922805 0.807869
vt 0.922805 0.798210
vt 0.922782 0.798197
vt 0.922782 0.798170
vt 0.874394 0.831043
vt 0.893766 0.062882
vt 0.874394 0.821313
vt 0.893765 0.363566
vt 0.418941 0.937328
vt 0.418923 0.937339
vt 0.418904 0.937328
vt 0.951758 0.698835
vt 0.951746 0.698856
vt 0.951734 0.698849
vt 0.611355 0.946974
vt 0.274449 0.956638
vt 0.543945 0.946974
vt 0.332216 0.956638
vt 0.932477 0.759156
vt 0.932477 0.759180
vt 0.932457 0.759192
vt 0.932457 0.768843
vt 0.932437 0.768808
vt 0.932457 0.768796
vt 0.708952 0.500600
vt 0.092322 0.771217
vt 0.708952 0.619363
vt 0.932471 0.807419
vt 0.932471 0.807446
vt 0.932454 0.807457
vt 0.728524 0.358606
vt 0.728565 0.358589
vt 0.728578 0.358606
vt 0.874401 0.685028
vt 0.913123 0.527622
vt 0.294669 0.879071
vt 0.120293 0.946993
vt 0.120304 0.946974
vt 0.120321 0.946974
vt 0.903441 0.422098
vt 0.903462 0.422089
vt 0.903469 0.422098
vt 0.553578 0.947015
vt 0.582408 0.985547
vt 0.274243 0.946974
vt 0.942089 0.931516
vt 0.942101 0.931496
vt 0.942119 0.931496
vt 0.932437 0.323969
vt 0.932448 0.323954
vt 0.932472 0.323954
vt 0.708999 0.530371
vt 0.718776 0.044644
vt 0.082404 0.712381
vt 0.718749 0.054248
vt 0.178313 0.927611
vt 0.178336 0.927598
vt 0.178359 0.927611
vt 0.922805 0.875528
vt 0.922782 0.875488
vt 0.922805 0.875475
vt 0.874425 0.714356
vt 0.893781 0.092199
vt 0.410599 0.878948
vt 0.893766 0.101804
vt 0.505659 0.937306
vt 0.505678 0.937295
vt 0.505697 0.937306
vt 0.951758 0.718116
vt 0.951746 0.718123
vt 0.951734 0.718116
vt 0.601696 0.947015
vt 0.255216 0.956665
vt 0.264608 0.946975
vt 0.264821 0.956638
vt 0.932477 0.903982
vt 0.932477 0.904005
vt 0.932457 0.904017
vt 0.932477 0.836406
vt 0.932477 0.836429
vt 0.932457 0.836441
vt 0.708999 0.570065
vt 0.767550 0.638364
vt 0.708998 0.609439
vt 0.728537 0.388178
vt 0.728578 0.388419
vt 0.932454 0.681859
vt 0.932437 0.681844
vt 0.932437 0.681817
vt 0.874432 0.801726
vt 0.913134 0.837631
vt 0.256056 0.879070
vt 0.101046 0.947007
vt 0.101046 0.946985
vt 0.101059 0.946974
vt 0.062694 0.908265
vt 0.062672 0.908273
vt 0.062665 0.908264
vt 0.707626 0.947015
vt 0.553524 0.985569
vt 0.293483 0.946975
vt 0.932448 0.304649
vt 0.932484 0.304682
vt 0.942121 0.902544
vt 0.942126 0.902563
vt 0.942112 0.902582
vt 0.708999 0.550219
vt 0.718776 0.094163
vt 0.708998 0.589912
vt 0.718775 0.183164
vt 0.922782 0.817487
vt 0.922805 0.817474
vt 0.922828 0.817487
vt 0.922805 0.827186
vt 0.922782 0.827172
vt 0.922782 0.827145
vt 0.874432 0.694760
vt 0.893780 0.295596
vt 0.874431 0.762804
vt 0.893779 0.353962
vt 0.428546 0.937306
vt 0.428565 0.937295
vt 0.428584 0.937306
vt 0.951734 0.708482
vt 0.951746 0.708461
vt 0.951758 0.708468
vt 0.534286 0.947015
vt 0.284101 0.956665
vt 0.620961 0.947015
vt 0.322611 0.956665
vt 0.932477 0.778460
vt 0.932477 0.778483
vt 0.932457 0.778495
vt 0.932437 0.788135
vt 0.932457 0.788100
vt 0.932477 0.788112
vt 0.708998 0.629600
vt 0.101980 0.771453
vt 0.708999 0.510206
vt 0.728564 0.368710
vt 0.728524 0.368469
vt 0.043429 0.937301
vt 0.043429 0.937324
vt 0.043410 0.937342
vt 0.874432 0.743342
vt 0.913120 0.847236
vt 0.874425 0.792121
vt 0.447626 0.946974
vt 0.447642 0.946988
vt 0.447642 0.947006
vt 0.903469 0.674546
vt 0.903446 0.674554
vt 0.903441 0.674544
vt 0.283849 0.947015
vt 0.592013 0.985569
vt 0.563183 0.946974
vt 0.932472 0.314349
vt 0.932437 0.314316
vt 0.942123 0.921855
vt 0.942123 0.921875
vt 0.942106 0.921891
vt 0.748039 0.112176
vt 0.728673 0.103435
vt 0.748147 0.073305
vt 0.728524 0.113040
vt 0.708952 0.649115
vt 0.708952 0.649058
vt 0.708986 0.649012
vt 0.709040 0.648994
vt 0.709128 0.649058
vt 0.709094 0.649161
vt 0.708986 0.649161
vt 0.334997 0.712135
vt 0.334964 0.712238
vt 0.334858 0.712236
vt 0.334825 0.712189
vt 0.334825 0.712133
vt 0.334858 0.712087
vt 0.334911 0.712071
vn -1.0000 -0.0000 -0.0000
vn -0.0000 0.3090 -0.9511
vn -0.0000 -0.0000 -1.0000
vn 1.0000 -0.0000 -0.0000
vn -0.0000 -0.3090 0.9511
vn -0.0000 -0.0000 1.0000
vn -0.0000 0.5878 -0.8090
vn -0.0000 -0.5878 0.8090
vn -0.0000 0.8090 -0.5878
vn -0.0000 -0.8090 0.5878
vn -0.0000 0.9511 -0.3090
vn -0.0000 -0.9511 0.3090
vn -0.0000 1.0000 -0.0000
vn -0.0000 -1.0000 -0.0000
vn -0.0000 0.9511 0.3090
vn -0.0000 -0.9511 -0.3090
vn -0.0000 0.8090 0.5878
vn -0.0000 -0.8090 -0.5878
vn -0.0000 0.5878 0.8090
vn -0.0000 -0.5878 -0.8090
vn -0.0000 0.3090 0.9511
vn -0.0000 -0.3090 -0.9511
vn 0.8660 -0.5000 -0.0000
vn -0.8660 -0.5000 -0.0000
vn -0.8660 0.5000 -0.0000
vn 0.8660 0.5000 -0.0000
vn 0.8649 -0.4993 -0.0519
vn -0.0000 -0.9987 -0.0519
vn -0.8649 -0.4993 -0.0519
vn -0.8649 0.4993 -0.0519
vn -0.0000 0.9987 -0.0519
vn 0.8649 0.4993 -0.0519
vn 0.8661 -0.5000 -0.0000
vn 0.8660 -0.3536 -0.3535
vn 0.8660 -0.3536 -0.3536
vn -0.0000 -0.7071 -0.7071
vn -0.8660 -0.3536 -0.3535
vn -0.8660 -0.3536 -0.3536
vn -0.8660 0.3536 0.3536
vn -0.8660 0.3536 0.3535
vn -0.0000 0.7071 0.7071
vn 0.8660 0.3536 0.3536
vn 0.8660 0.3536 0.3535
vn -0.0000 -0.7071 0.7071
vn -0.0000 0.7071 -0.7071
vn 0.8649 -0.3164 -0.3898
vn -0.0000 -0.6695 -0.7429
vn -0.8649 -0.3164 -0.3898
vn -0.8649 -0.3164 -0.3897
vn -0.8649 0.3898 0.3164
vn -0.0000 0.7428 0.6695
vn -0.0000 0.7429 0.6695
vn 0.8649 0.3898 0.3164
vn 0.8660 -0.3535 -0.3535
vn -0.8660 -0.3535 -0.3535
vn -0.5000 -0.0000 -0.8660
vn -0.5000 -0.0000 0.8660
vn 0.5000 -0.0000 0.8660
vn 0.5000 -0.0000 -0.8660
vn -0.0001 1.0000 -0.0000
vn -0.4993 0.0519 -0.8649
vn -0.9987 0.0519 -0.0000
vn -0.4993 0.0519 0.8649
vn 0.4993 0.0519 0.8649
vn 0.4993 0.0519 0.8648
vn 0.9987 0.0519 -0.0000
vn 0.4993 0.0519 -0.8649
vn -0.8660 -0.3536 0.3535
vn -0.8660 -0.3536 0.3536
vn 0.8660 -0.3536 0.3535
vn 0.8660 -0.3536 0.3536
vn 0.8660 0.3536 -0.3536
vn 0.8660 0.3536 -0.3535
vn -0.8660 0.3536 -0.3536
vn -0.8660 0.3536 -0.3535
vn -0.8660 0.3535 -0.3535
vn -0.8649 -0.3164 0.3898
vn -0.8649 -0.3164 0.3897
vn -0.0000 -0.6695 0.7429
vn 0.8649 -0.3164 0.3898
vn 0.8649 -0.3164 0.3897
vn 0.8649 0.3898 -0.3164
vn -0.0000 0.7428 -0.6695
vn -0.8649 0.3898 -0.3164
vn -0.8649 -0.4993 0.0519
vn -0.0000 -0.9987 0.0519
vn 0.8649 -0.4993 0.0519
vn 0.8649 0.4993 0.0519
vn -0.0000 0.9987 0.0519
vn -0.8649 0.4993 0.0519
vn 0.8660 0.3535 0.3535
vn -0.8660 0.3535 0.3535
vn -0.8649 -0.3898 -0.3164
vn -0.8648 -0.3898 -0.3164
vn -0.0000 -0.7428 -0.6695
vn -0.0000 -0.7429 -0.6695
vn 0.8649 -0.3898 -0.3164
vn 0.8649 0.3164 0.3898
vn 0.8649 0.3164 0.3897
vn -0.0000 0.6695 0.7429
vn -0.8649 0.3164 0.3898
vn -0.8649 0.3164 0.3897
vn 0.0001 -1.0000 -0.0000
vn -0.4993 -0.0519 0.8649
vn -0.9987 -0.0519 -0.0000
vn -0.4993 -0.0519 -0.8649
vn 0.4993 -0.0519 -0.8649
vn 0.4993 -0.0519 -0.8648
vn 0.9987 -0.0519 -0.0000
vn 0.4993 -0.0519 0.8649
vn 0.4993 -0.0519 0.8648
vn 0.8649 -0.3898 0.3164
vn -0.0000 -0.7428 0.6695
vn -0.8649 -0.3898 0.3164
vn -0.8649 0.3164 -0.3898
vn -0.8649 0.3164 -0.3897
vn -0.0000 0.6695 -0.7429
vn 0.8649 0.3164 -0.3898
vn 0.8649 0.3164 -0.3897
vn 0.8660 -0.3535 0.3535
vn -0.8660 -0.3535 0.3535
vn -0.8660 0.3535 -0.3536
vn -0.8661 -0.5000 -0.0000
vn 0.8649 -0.3164 -0.3897
vn 0.0001 -0.7071 0.7071
vn 0.0001 -0.7071 -0.7071
vn -0.0001 0.7071 -0.7071
vn -0.0001 -1.0000 -0.0000
vn 0.0001 1.0000 -0.0000
vn -0.8648 -0.3898 0.3164
vn -0.0001 0.7071 0.7071
f 1/1/1 2/2/1 3/3/1
f 4/4/2 5/5/3 2/6/3
f 5/7/4 6/8/4 7/9/4
f 6/10/5 3/11/6 7/12/6
f 8/13/1 4/14/1 1/1/1
f 9/15/7 10/16/2 4/4/2
f 10/17/4 11/18/4 6/8/4
f 11/19/8 1/20/5 6/10/5
f 12/21/1 9/22/1 8/13/1
f 13/23/9 14/24/7 9/25/7
f 14/26/4 15/27/4 11/18/4
f 15/28/10 8/29/8 11/19/8
f 12/21/1 16/30/1 13/31/1
f 16/32/11 17/33/9 13/23/9
f 18/34/4 15/27/4 17/35/4
f 19/36/12 12/37/10 15/38/10
f 20/39/1 16/30/1 21/40/1
f 22/41/13 18/42/11 16/32/11
f 18/34/4 23/43/4 19/44/4
f 23/45/14 21/46/12 19/36/12
f 20/39/1 24/47/1 22/48/1
f 24/49/15 25/50/13 22/41/13
f 26/51/4 23/43/4 25/52/4
f 27/53/16 20/54/14 23/45/14
f 28/55/1 24/47/1 29/56/1
f 30/57/17 26/58/15 24/49/15
f 26/51/4 31/59/4 27/60/4
f 31/61/18 29/62/16 27/53/16
f 28/55/1 32/63/1 30/64/1
f 32/65/19 33/66/17 30/57/17
f 34/67/4 31/59/4 33/68/4
f 35/69/20 28/70/18 31/71/18
f 36/72/1 37/73/1 32/63/1
f 37/74/21 34/75/19 32/76/19
f 38/77/4 35/78/4 34/67/4
f 39/79/22 36/80/20 35/69/20
f 40/81/1 41/82/1 37/73/1
f 41/83/6 38/84/21 37/74/21
f 42/85/4 39/86/4 38/77/4
f 43/87/3 40/88/22 39/79/22
f 44/89/1 45/90/1 41/82/1
f 45/91/5 42/92/6 41/83/6
f 46/93/4 43/94/4 42/85/4
f 47/95/2 44/96/3 43/87/3
f 48/97/1 45/90/1 49/98/1
f 50/99/8 46/100/5 45/91/5
f 46/93/4 51/101/4 47/102/4
f 51/103/7 49/104/2 47/95/2
f 52/105/1 50/106/1 48/97/1
f 53/107/10 54/108/8 50/99/8
f 54/109/4 55/110/4 51/101/4
f 55/111/9 48/112/7 51/113/7
f 52/105/1 56/114/1 53/115/1
f 56/116/12 57/117/10 53/118/10
f 58/119/4 55/110/4 57/120/4
f 59/121/11 52/122/9 55/111/9
f 60/123/1 56/114/1 61/124/1
f 62/125/14 58/126/12 56/116/12
f 58/119/4 63/127/4 59/128/4
f 63/129/13 61/130/11 59/121/11
f 60/123/1 64/131/1 62/132/1
f 64/133/16 65/134/14 62/125/14
f 66/135/4 63/127/4 65/136/4
f 67/137/15 60/138/13 63/129/13
f 68/139/1 64/131/1 69/140/1
f 70/141/18 66/142/16 64/133/16
f 66/135/4 71/143/4 67/144/4
f 71/145/17 69/146/15 67/137/15
f 68/139/1 72/147/1 70/148/1
f 72/149/20 73/150/18 70/151/18
f 74/152/4 71/143/4 73/153/4
f 75/154/19 68/155/17 71/145/17
f 76/156/1 77/157/1 72/147/1
f 77/158/22 74/159/20 72/149/20
f 78/160/4 75/161/4 74/152/4
f 79/162/21 76/163/19 75/164/19
f 3/3/1 77/157/1 80/165/1
f 2/6/3 78/166/22 77/158/22
f 78/160/4 7/9/4 79/167/4
f 7/12/6 80/168/21 79/162/21
f 81/169/23 82/170/23 83/171/23
f 84/172/14 85/173/14 81/174/14
f 86/175/24 87/176/24 84/177/24
f 88/178/25 89/179/25 86/175/25
f 90/180/13 91/181/13 88/182/13
f 83/171/26 92/183/26 90/184/26
f 84/185/6 81/186/6 83/187/6
f 91/188/3 92/189/3 85/190/3
f 93/191/27 94/192/27 95/193/27
f 96/194/28 97/195/28 93/196/28
f 96/197/29 98/198/29 99/199/29
f 100/200/30 98/198/30 101/201/30
f 102/202/31 103/203/31 100/204/31
f 102/205/32 94/192/32 104/206/32
f 96/207/6 93/208/6 95/209/6
f 98/210/3 103/211/3 104/212/3
f 105/213/23 106/214/23 107/215/33
f 108/216/14 109/217/14 105/218/14
f 110/219/24 111/220/24 108/221/24
f 112/222/25 113/223/25 110/219/25
f 114/224/13 115/225/13 112/226/13
f 107/215/26 116/227/26 114/228/26
f 108/229/6 105/230/6 107/231/6
f 113/232/3 115/233/3 116/234/3
f 117/235/34 118/236/35 119/237/35
f 120/238/36 118/239/36 121/240/36
f 122/241/37 123/242/38 120/243/37
f 124/244/39 125/245/40 122/241/39
f 126/246/41 127/247/41 124/248/41
f 126/249/42 119/237/43 128/250/43
f 120/251/44 121/252/44 117/253/44
f 127/247/45 128/254/45 118/255/45
f 129/256/46 130/257/46 131/258/46
f 132/259/47 133/260/47 129/261/47
f 132/262/48 134/263/49 135/264/49
f 136/265/50 137/266/50 134/263/50
f 138/267/51 137/268/52 139/269/51
f 131/258/53 140/270/53 138/271/53
f 132/272/44 129/273/44 131/274/44
f 137/268/45 140/275/45 133/276/45
f 141/277/34 142/278/54 143/279/54
f 144/280/36 142/281/36 145/282/36
f 146/283/37 147/284/55 144/285/37
f 148/286/39 149/287/39 146/283/39
f 150/288/41 151/289/41 148/290/41
f 150/291/43 143/279/42 152/292/42
f 144/293/44 145/294/44 141/295/44
f 149/296/45 151/289/45 152/297/45
f 153/298/56 154/299/56 155/300/56
f 156/301/1 157/302/1 153/303/1
f 158/304/57 159/305/57 156/306/57
f 160/307/58 161/308/58 158/304/58
f 162/309/4 163/310/4 160/311/4
f 155/300/59 164/312/59 162/313/59
f 156/314/14 153/315/14 155/316/14
f 161/317/13 163/318/60 164/319/13
f 165/320/61 166/321/61 167/322/61
f 168/323/62 166/324/62 169/325/62
f 170/326/63 171/327/63 168/328/63
f 170/326/64 172/329/64 173/330/65
f 174/331/66 172/332/66 175/333/66
f 165/320/67 176/334/67 174/335/67
f 168/336/14 169/337/14 165/338/14
f 172/339/13 176/340/13 166/341/13
f 177/342/56 178/343/56 179/344/56
f 180/345/1 181/346/1 177/347/1
f 182/348/57 183/349/57 180/350/57
f 184/351/58 185/352/58 182/348/58
f 186/353/4 187/354/4 184/355/4
f 179/344/59 188/356/59 186/357/59
f 180/358/14 177/359/14 179/360/14
f 187/361/13 188/362/13 181/363/13
f 189/364/68 190/365/69 191/366/69
f 192/367/44 190/368/44 193/369/44
f 194/370/70 195/371/71 192/372/70
f 196/373/72 197/374/73 194/370/72
f 198/375/45 199/376/45 196/377/45
f 198/378/74 191/366/75 200/379/76
f 192/380/36 193/381/36 189/382/36
f 199/376/41 200/383/41 190/384/41
f 201/385/77 202/386/78 203/387/77
f 204/388/79 205/389/79 201/390/79
f 204/391/80 206/392/80 207/393/81
f 208/394/82 209/395/82 206/392/82
f 210/396/83 209/397/83 211/398/83
f 203/387/84 212/399/84 210/400/84
f 204/401/36 201/402/36 203/403/36
f 209/397/41 212/404/41 205/405/41
f 213/406/68 214/407/69 215/408/69
f 216/409/44 214/410/44 217/411/44
f 218/412/71 219/413/70 216/414/71
f 220/415/73 221/416/73 218/412/73
f 222/417/45 223/418/45 220/419/45
f 222/420/74 215/408/74 224/421/74
f 216/422/36 217/423/36 213/424/36
f 221/425/41 223/418/41 224/426/41
f 225/427/24 226/428/24 227/429/24
f 228/430/14 229/431/14 225/432/14
f 230/433/23 231/434/23 228/435/23
f 232/436/26 233/437/26 230/433/26
f 234/438/13 235/439/13 232/440/13
f 227/429/25 236/441/25 234/442/25
f 228/443/3 225/444/3 227/445/3
f 235/446/6 236/447/6 229/448/6
f 237/449/85 238/450/85 239/451/85
f 240/452/86 241/453/86 237/454/86
f 240/455/87 242/456/87 243/457/87
f 244/458/88 242/456/88 245/459/88
f 246/460/89 247/461/89 244/462/89
f 246/463/90 238/450/90 248/464/90
f 240/465/3 237/466/3 239/467/3
f 242/468/6 247/469/6 248/470/6
f 249/471/24 250/472/24 251/473/24
f 252/474/14 253/475/14 249/476/14
f 254/477/23 255/478/23 252/479/23
f 256/480/26 257/481/26 254/477/26
f 258/482/13 259/483/13 256/484/13
f 251/473/25 260/485/25 258/486/25
f 252/487/3 249/488/3 251/489/3
f 257/490/6 259/491/6 260/492/6
f 261/493/38 262/494/38 263/495/38
f 264/496/36 265/497/36 261/498/36
f 264/499/35 266/500/35 267/501/34
f 268/502/91 269/503/42 266/500/42
f 270/504/41 269/505/41 271/506/41
f 263/495/92 272/507/39 270/508/92
f 264/509/45 261/510/45 263/511/45
f 266/512/44 269/513/44 272/514/44
f 273/515/93 274/516/93 275/517/94
f 276/518/95 274/519/96 277/520/95
f 278/521/97 279/522/97 276/523/97
f 280/524/98 281/525/99 278/521/98
f 282/526/100 283/527/100 280/528/100
f 282/529/101 275/517/102 284/530/102
f 276/531/45 277/532/45 273/533/45
f 283/527/44 284/534/44 274/535/44
f 285/536/37 286/537/37 287/538/38
f 288/539/36 289/540/36 285/541/36
f 288/542/34 290/543/34 291/544/54
f 292/545/42 293/546/43 290/543/43
f 294/547/41 293/548/41 295/549/41
f 287/538/40 296/550/39 294/551/40
f 288/552/45 285/553/45 287/554/45
f 290/555/44 293/556/44 296/557/44
f 297/558/57 298/559/57 299/560/57
f 300/561/1 301/562/1 297/563/1
f 302/564/56 303/565/56 300/566/56
f 304/567/59 305/568/59 302/564/59
f 306/569/4 307/570/4 304/571/4
f 299/560/58 308/572/58 306/573/58
f 300/574/13 297/575/13 299/576/13
f 305/577/14 307/578/103 308/579/14
f 309/580/104 310/581/104 311/582/104
f 312/583/105 310/584/105 313/585/105
f 314/586/106 315/587/106 312/588/106
f 314/586/107 316/589/108 317/590/108
f 318/591/109 316/592/109 319/593/109
f 309/580/110 320/594/111 318/595/110
f 312/596/13 313/597/60 309/598/13
f 316/599/14 320/600/14 310/601/14
f 321/602/57 322/603/57 323/604/57
f 324/605/1 325/606/1 321/607/1
f 326/608/56 327/609/56 324/610/56
f 328/611/59 329/612/59 326/608/59
f 330/613/4 331/614/4 328/615/4
f 323/604/58 332/616/58 330/617/58
f 324/618/13 321/619/13 323/620/13
f 331/621/14 332/622/14 325/623/14
f 333/624/71 334/625/71 335/626/71
f 336/627/44 337/628/44 333/629/44
f 336/630/69 338/631/69 339/632/69
f 340/633/75 341/634/74 338/631/74
f 342/635/45 341/636/45 343/637/45
f 335/626/73 344/638/72 342/639/73
f 336/640/41 333/641/41 335/642/41
f 338/643/36 341/644/36 344/645/36
f 345/646/112 346/647/112 347/648/112
f 348/649/113 346/650/113 349/651/113
f 350/652/114 351/653/114 348/654/114
f 352/655/115 353/656/116 350/652/115
f 354/657/117 355/658/117 352/659/117
f 354/660/118 347/648/119 356/661/119
f 348/662/41 349/663/41 345/664/41
f 355/658/36 356/665/36 346/666/36
f 357/667/70 358/668/70 359/669/120
f 360/670/44 361/671/44 357/672/44
f 360/673/121 362/674/68 363/675/68
f 364/676/74 365/677/74 362/674/122
f 366/678/45 365/679/45 367/680/45
f 359/669/72 368/681/73 366/682/72
f 360/683/41 357/684/41 359/685/41
f 362/686/36 365/687/36 368/688/36
f 369/689/8 370/690/6 371/691/6
f 372/692/12 373/693/8 369/694/8
f 374/695/16 375/696/12 372/692/12
f 376/697/20 377/698/16 374/695/16
f 378/699/3 379/700/20 376/701/20
f 380/702/7 381/703/3 378/699/3
f 382/704/11 383/705/7 380/706/7
f 384/707/15 385/708/11 382/704/11
f 386/709/19 387/710/15 384/707/15
f 371/691/6 388/711/19 386/712/19
f 380/713/1 376/714/1 372/715/1
f 388/716/4 373/717/4 377/718/4
f 1/1/1 4/14/1 2/2/1
f 4/4/2 10/16/2 5/5/3
f 5/7/4 10/17/4 6/8/4
f 6/10/5 1/20/5 3/11/6
f 8/13/1 9/22/1 4/14/1
f 9/15/7 14/719/7 10/16/2
f 10/17/4 14/26/4 11/18/4
f 11/19/8 8/29/8 1/20/5
f 12/21/1 13/31/1 9/22/1
f 13/23/9 17/33/9 14/24/7
f 14/26/4 17/35/4 15/27/4
f 15/28/10 12/720/10 8/29/8
f 12/21/1 21/40/1 16/30/1
f 16/32/11 18/42/11 17/33/9
f 18/34/4 19/44/4 15/27/4
f 19/36/12 21/46/12 12/37/10
f 20/39/1 22/48/1 16/30/1
f 22/41/13 25/50/13 18/42/11
f 18/34/4 25/52/4 23/43/4
f 23/45/14 20/54/14 21/46/12
f 20/39/1 29/56/1 24/47/1
f 24/49/15 26/58/15 25/50/13
f 26/51/4 27/60/4 23/43/4
f 27/53/16 29/62/16 20/54/14
f 28/55/1 30/64/1 24/47/1
f 30/57/17 33/66/17 26/58/15
f 26/51/4 33/68/4 31/59/4
f 31/61/18 28/721/18 29/62/16
f 28/55/1 36/72/1 32/63/1
f 32/65/19 34/722/19 33/66/17
f 34/67/4 35/78/4 31/59/4
f 35/69/20 36/80/20 28/70/18
f 36/72/1 40/81/1 37/73/1
f 37/74/21 38/84/21 34/75/19
f 38/77/4 39/86/4 35/78/4
f 39/79/22 40/88/22 36/80/20
f 40/81/1 44/89/1 41/82/1
f 41/83/6 42/92/6 38/84/21
f 42/85/4 43/94/4 39/86/4
f 43/87/3 44/96/3 40/88/22
f 44/89/1 49/98/1 45/90/1
f 45/91/5 46/100/5 42/92/6
f 46/93/4 47/102/4 43/94/4
f 47/95/2 49/104/2 44/96/3
f 48/97/1 50/106/1 45/90/1
f 50/99/8 54/108/8 46/100/5
f 46/93/4 54/109/4 51/101/4
f 51/103/7 48/723/7 49/104/2
f 52/105/1 53/115/1 50/106/1
f 53/107/10 57/724/10 54/108/8
f 54/109/4 57/120/4 55/110/4
f 55/111/9 52/122/9 48/112/7
f 52/105/1 61/124/1 56/114/1
f 56/116/12 58/126/12 57/117/10
f 58/119/4 59/128/4 55/110/4
f 59/121/11 61/130/11 52/122/9
f 60/123/1 62/132/1 56/114/1
f 62/125/14 65/134/14 58/126/12
f 58/119/4 65/136/4 63/127/4
f 63/129/13 60/138/13 61/130/11
f 60/123/1 69/140/1 64/131/1
f 64/133/16 66/142/16 65/134/14
f 66/135/4 67/144/4 63/127/4
f 67/137/15 69/146/15 60/138/13
f 68/139/1 70/148/1 64/131/1
f 70/141/18 73/725/18 66/142/16
f 66/135/4 73/153/4 71/143/4
f 71/145/17 68/155/17 69/146/15
f 68/139/1 76/156/1 72/147/1
f 72/149/20 74/159/20 73/150/18
f 74/152/4 75/161/4 71/143/4
f 75/154/19 76/726/19 68/155/17
f 76/156/1 80/165/1 77/157/1
f 77/158/22 78/166/22 74/159/20
f 78/160/4 79/167/4 75/161/4
f 79/162/21 80/168/21 76/163/19
f 3/3/1 2/2/1 77/157/1
f 2/6/3 5/5/3 78/166/22
f 78/160/4 5/7/4 7/9/4
f 7/12/6 3/11/6 80/168/21
f 81/169/23 85/727/23 82/170/23
f 84/172/14 87/728/14 85/173/14
f 86/175/24 89/179/24 87/176/24
f 88/178/25 91/729/25 89/179/25
f 90/180/13 92/730/13 91/181/13
f 83/171/26 82/170/26 92/183/26
f 83/187/6 90/731/6 84/185/6
f 90/731/6 88/732/6 84/185/6
f 88/732/6 86/733/6 84/185/6
f 92/189/3 82/734/3 85/190/3
f 85/190/3 87/735/3 89/736/3
f 89/736/3 91/188/3 85/190/3
f 93/191/27 97/737/27 94/192/27
f 96/194/28 99/738/28 97/195/28
f 96/197/29 101/201/29 98/198/29
f 100/200/30 103/739/30 98/198/30
f 102/202/31 104/740/31 103/203/31
f 102/205/32 95/193/32 94/192/32
f 95/209/6 102/741/6 96/207/6
f 102/741/6 100/742/6 96/207/6
f 100/742/6 101/743/6 96/207/6
f 104/212/3 94/744/3 98/210/3
f 94/744/3 97/745/3 98/210/3
f 97/745/3 99/746/3 98/210/3
f 105/213/23 109/747/23 106/214/23
f 108/216/14 111/748/14 109/217/14
f 110/219/24 113/223/123 111/220/24
f 112/222/25 115/749/25 113/223/25
f 114/224/13 116/750/13 115/225/13
f 107/215/26 106/214/26 116/227/26
f 107/231/6 114/751/6 112/752/6
f 112/752/6 110/753/6 107/231/6
f 110/753/6 108/229/6 107/231/6
f 116/234/3 106/754/3 113/232/3
f 106/754/3 109/755/3 113/232/3
f 109/755/3 111/756/3 113/232/3
f 117/235/34 121/757/34 118/236/35
f 120/238/36 123/758/36 118/239/36
f 122/241/37 125/245/38 123/242/38
f 124/244/39 127/759/40 125/245/40
f 126/246/41 128/254/41 127/247/41
f 126/249/42 117/235/42 119/237/43
f 117/253/44 126/760/44 124/761/44
f 124/761/44 122/762/44 117/253/44
f 122/762/44 120/251/44 117/253/44
f 128/254/45 119/763/45 118/255/45
f 118/255/45 123/764/45 125/765/45
f 125/765/45 127/247/45 118/255/45
f 129/256/46 133/766/124 130/257/46
f 132/259/47 135/767/47 133/260/47
f 132/262/48 136/265/48 134/263/49
f 136/265/50 139/768/50 137/266/50
f 138/267/51 140/275/52 137/268/52
f 131/258/53 130/257/53 140/270/53
f 131/274/44 138/769/44 132/272/44
f 138/769/44 139/770/44 132/272/44
f 139/770/44 136/771/125 132/272/44
f 140/275/45 130/772/45 133/276/45
f 133/276/45 135/773/45 134/774/45
f 134/774/45 137/268/45 133/276/45
f 141/277/34 145/775/35 142/278/54
f 144/280/36 147/776/36 142/281/36
f 146/283/37 149/287/55 147/284/55
f 148/286/39 151/777/39 149/287/39
f 150/288/41 152/297/41 151/289/41
f 150/291/43 141/277/43 143/279/42
f 141/295/44 150/778/44 148/779/44
f 148/779/44 146/780/44 141/295/44
f 146/780/44 144/293/44 141/295/44
f 152/297/45 143/781/45 149/296/45
f 143/781/45 142/782/45 149/296/45
f 142/782/45 147/783/45 149/296/45
f 153/298/56 157/784/56 154/299/56
f 156/301/1 159/785/1 157/302/1
f 158/304/57 161/308/57 159/305/57
f 160/307/58 163/786/58 161/308/58
f 162/309/4 164/787/4 163/310/4
f 155/300/59 154/299/59 164/312/59
f 155/316/14 162/788/14 160/789/14
f 160/789/14 158/790/14 155/316/14
f 158/790/14 156/314/14 155/316/14
f 164/319/13 154/791/13 161/317/13
f 154/791/13 157/792/13 161/317/13
f 157/792/13 159/793/13 161/317/13
f 165/320/61 169/794/61 166/321/61
f 168/323/62 171/795/62 166/324/62
f 170/326/63 173/330/63 171/327/63
f 170/326/64 175/796/64 172/329/64
f 174/331/66 176/797/66 172/332/66
f 165/320/67 167/322/67 176/334/67
f 165/338/14 174/798/103 175/799/14
f 175/799/14 170/800/14 165/338/14
f 170/800/14 168/336/14 165/338/14
f 176/340/13 167/801/13 166/341/13
f 166/341/13 171/802/60 173/803/13
f 173/803/13 172/339/13 166/341/13
f 177/342/56 181/804/56 178/343/56
f 180/345/1 183/805/1 181/346/1
f 182/348/57 185/352/57 183/349/57
f 184/351/58 187/806/58 185/352/58
f 186/353/4 188/807/4 187/354/4
f 179/344/59 178/343/59 188/356/59
f 179/360/14 186/808/14 180/358/14
f 186/808/14 184/809/14 180/358/14
f 184/809/14 182/810/14 180/358/14
f 188/362/13 178/811/13 181/363/13
f 181/363/13 183/812/13 185/813/13
f 185/813/13 187/361/13 181/363/13
f 189/364/68 193/814/68 190/365/69
f 192/367/44 195/815/44 190/368/44
f 194/370/70 197/374/71 195/371/71
f 196/373/72 199/816/73 197/374/73
f 198/375/45 200/383/45 199/376/45
f 198/378/74 189/364/74 191/366/75
f 189/382/36 198/817/36 192/380/36
f 198/817/36 196/818/36 192/380/36
f 196/818/36 194/819/36 192/380/36
f 200/383/41 191/820/41 190/384/41
f 190/384/41 195/821/41 197/822/41
f 197/822/41 199/376/41 190/384/41
f 201/385/77 205/823/78 202/386/78
f 204/388/79 207/824/79 205/389/79
f 204/391/80 208/394/80 206/392/80
f 208/394/82 211/825/82 209/395/82
f 210/396/83 212/404/83 209/397/83
f 203/387/84 202/386/84 212/399/84
f 203/403/36 210/826/36 204/401/36
f 210/826/36 211/827/36 204/401/36
f 211/827/36 208/828/126 204/401/36
f 212/404/41 202/829/41 205/405/41
f 205/405/41 207/830/41 206/831/41
f 206/831/41 209/397/41 205/405/41
f 213/406/68 217/832/68 214/407/69
f 216/409/44 219/833/44 214/410/44
f 218/412/71 221/416/70 219/413/70
f 220/415/73 223/834/72 221/416/73
f 222/417/45 224/426/45 223/418/45
f 222/420/74 213/406/74 215/408/74
f 213/424/36 222/835/36 220/836/36
f 220/836/36 218/837/36 213/424/36
f 218/837/36 216/422/36 213/424/36
f 224/426/41 215/838/41 221/425/41
f 215/838/41 214/839/41 221/425/41
f 214/839/41 219/840/41 221/425/41
f 225/427/24 229/841/24 226/428/24
f 228/430/14 231/842/14 229/431/14
f 230/433/23 233/437/23 231/434/23
f 232/436/26 235/843/26 233/437/26
f 234/438/13 236/844/13 235/439/13
f 227/429/25 226/428/25 236/441/25
f 227/445/3 234/845/3 228/443/3
f 234/845/3 232/846/3 228/443/3
f 232/846/3 230/847/3 228/443/3
f 236/447/6 226/848/6 229/448/6
f 229/448/6 231/849/6 233/850/6
f 233/850/6 235/446/6 229/448/6
f 237/449/85 241/851/85 238/450/85
f 240/452/86 243/852/86 241/453/86
f 240/455/87 245/459/87 242/456/87
f 244/458/88 247/853/88 242/456/88
f 246/460/89 248/854/89 247/461/89
f 246/463/90 239/451/90 238/450/90
f 239/467/3 246/855/3 240/465/3
f 246/855/3 244/856/3 240/465/3
f 244/856/3 245/857/3 240/465/3
f 248/470/6 238/858/6 242/468/6
f 238/858/6 241/859/6 242/468/6
f 241/859/6 243/860/6 242/468/6
f 249/471/24 253/861/24 250/472/24
f 252/474/14 255/862/14 253/475/14
f 254/477/23 257/481/23 255/478/23
f 256/480/26 259/863/26 257/481/26
f 258/482/13 260/864/13 259/483/13
f 251/473/25 250/472/25 260/485/25
f 251/489/3 258/865/3 256/866/3
f 256/866/3 254/867/3 251/489/3
f 254/867/3 252/487/3 251/489/3
f 260/492/6 250/868/6 257/490/6
f 250/868/6 253/869/6 257/490/6
f 253/869/6 255/870/6 257/490/6
f 261/493/38 265/871/38 262/494/38
f 264/496/36 267/872/36 265/497/36
f 264/499/35 268/502/35 266/500/35
f 268/502/91 271/873/91 269/503/42
f 270/504/41 272/874/41 269/505/41
f 263/495/92 262/494/39 272/507/39
f 263/511/45 270/504/45 264/509/45
f 270/504/45 271/506/45 264/509/45
f 271/506/45 268/875/45 264/509/45
f 272/514/44 262/876/44 266/512/44
f 262/876/44 265/877/44 266/512/44
f 265/877/44 267/878/44 266/512/44
f 273/515/93 277/879/93 274/516/93
f 276/518/95 279/880/96 274/519/96
f 278/521/97 281/525/97 279/522/97
f 280/524/98 283/881/99 281/525/99
f 282/526/100 284/534/100 283/527/100
f 282/529/101 273/515/101 275/517/102
f 273/533/45 282/882/45 276/531/45
f 282/882/45 280/883/45 276/531/45
f 280/883/45 278/884/127 276/531/45
f 284/534/44 275/885/44 274/535/44
f 274/535/44 279/886/44 281/887/44
f 281/887/44 283/527/44 274/535/44
f 285/536/37 289/888/55 286/537/37
f 288/539/36 291/889/36 289/540/36
f 288/542/34 292/545/34 290/543/34
f 292/545/42 295/890/42 293/546/43
f 294/547/41 296/891/41 293/548/41
f 287/538/40 286/537/39 296/550/39
f 287/554/45 294/547/45 295/549/45
f 295/549/45 292/892/45 287/554/45
f 292/892/45 288/552/45 287/554/45
f 296/557/44 286/893/44 290/555/44
f 286/893/44 289/894/44 290/555/44
f 289/894/44 291/895/44 290/555/44
f 297/558/57 301/896/57 298/559/57
f 300/561/1 303/897/1 301/562/1
f 302/564/56 305/568/56 303/565/56
f 304/567/59 307/898/59 305/568/59
f 306/569/4 308/899/4 307/570/4
f 299/560/58 298/559/58 308/572/58
f 299/576/13 306/900/60 304/901/13
f 304/901/13 302/902/13 299/576/13
f 302/902/13 300/574/13 299/576/13
f 308/579/14 298/903/14 305/577/14
f 298/903/14 301/904/14 305/577/14
f 301/904/14 303/905/128 305/577/14
f 309/580/104 313/906/104 310/581/104
f 312/583/105 315/907/105 310/584/105
f 314/586/106 317/590/106 315/587/106
f 314/586/107 319/908/107 316/589/108
f 318/591/109 320/909/109 316/592/109
f 309/580/110 311/582/111 320/594/111
f 309/598/13 318/910/129 319/911/13
f 319/911/13 314/912/13 309/598/13
f 314/912/13 312/596/13 309/598/13
f 320/600/14 311/913/14 310/601/14
f 310/601/14 315/914/14 317/915/14
f 317/915/14 316/599/14 310/601/14
f 321/602/57 325/916/57 322/603/57
f 324/605/1 327/917/1 325/606/1
f 326/608/56 329/612/56 327/609/56
f 328/611/59 331/918/59 329/612/59
f 330/613/4 332/919/4 331/614/4
f 323/604/58 322/603/58 332/616/58
f 323/620/13 330/920/13 324/618/13
f 330/920/13 328/921/13 324/618/13
f 328/921/13 326/922/13 324/618/13
f 332/622/14 322/923/14 325/623/14
f 325/623/14 327/924/14 329/925/14
f 329/925/14 331/621/14 325/623/14
f 333/624/71 337/926/70 334/625/71
f 336/627/44 339/927/44 337/628/44
f 336/630/69 340/633/69 338/631/69
f 340/633/75 343/928/75 341/634/74
f 342/635/45 344/929/45 341/636/45
f 335/626/73 334/625/72 344/638/72
f 335/642/41 342/635/41 336/640/41
f 342/635/41 343/637/41 336/640/41
f 343/637/41 340/930/41 336/640/41
f 344/645/36 334/931/36 337/932/36
f 337/932/36 339/933/36 344/645/36
f 339/933/36 338/643/36 344/645/36
f 345/646/112 349/934/112 346/647/112
f 348/649/113 351/935/113 346/650/113
f 350/652/114 353/656/130 351/653/114
f 352/655/115 355/936/116 353/656/116
f 354/657/117 356/665/117 355/658/117
f 354/660/118 345/646/118 347/648/119
f 345/664/41 354/937/41 348/662/41
f 354/937/41 352/938/41 348/662/41
f 352/938/41 350/939/131 348/662/41
f 356/665/36 347/940/36 346/666/36
f 346/666/36 351/941/36 353/942/36
f 353/942/36 355/658/36 346/666/36
f 357/667/70 361/943/71 358/668/70
f 360/670/44 363/944/44 361/671/44
f 360/673/121 364/676/121 362/674/68
f 364/676/74 367/945/75 365/677/74
f 366/678/45 368/946/45 365/679/45
f 359/669/72 358/668/73 368/681/73
f 359/685/41 366/678/41 367/680/41
f 367/680/41 364/947/41 359/685/41
f 364/947/41 360/683/41 359/685/41
f 368/688/36 358/948/36 362/686/36
f 358/948/36 361/949/36 362/686/36
f 361/949/36 363/950/36 362/686/36
f 369/689/8 373/951/8 370/690/6
f 372/692/12 375/696/12 373/693/8
f 374/695/16 377/698/16 375/696/12
f 376/697/20 379/952/20 377/698/16
f 378/699/3 381/703/3 379/700/20
f 380/702/7 383/953/7 381/703/3
f 382/704/11 385/708/11 383/705/7
f 384/707/15 387/710/15 385/708/11
f 386/709/19 388/954/19 387/710/15
f 371/691/6 370/690/6 388/711/19
f 371/955/1 386/956/1 384/957/1
f 384/957/1 382/958/1 380/713/1
f 380/713/1 378/959/1 376/714/1
f 376/714/1 374/960/1 372/715/1
f 372/715/1 369/961/1 371/955/1
f 371/955/1 384/957/1 372/715/1
f 384/957/1 380/713/1 372/715/1
f 388/716/4 370/962/4 373/717/4
f 373/717/4 375/963/4 377/718/4
f 377/718/4 379/964/4 381/965/4
f 381/965/4 383/966/4 377/718/4
f 383/966/4 385/967/4 377/718/4
f 385/967/4 387/968/4 377/718/4
f 387/968/4 388/716/4 377/718/4
