# JIB VI — the red parts, as a standalone mesh.
#
# One file per material rather than one library addressed with `#group`:
# selecting a group recentres it on its own bounding box, which takes a
# model apart when the library IS one model. A whole-file import keeps
# the authored coordinates. See loom_asset/src/mesh.rs:268.
v -7.031667 5.440000 2.623853
v -7.548334 5.440000 2.641070
v -7.031667 5.440000 2.647853
v -7.031667 5.620000 2.623853
v -7.548334 5.620000 2.641070
v -7.031667 5.620000 2.647853
v -7.548334 5.440000 2.617070
v -7.548334 5.620000 2.617070
v -8.065001 5.440000 2.693888
v -8.065001 5.620000 2.693888
v -8.065001 5.620000 2.717888
v -8.065001 5.440000 2.717888
v -6.515000 5.080000 2.708000
v -7.031667 5.080000 2.647853
v -6.515000 5.080000 2.732000
v -6.515000 5.260000 2.732000
v -7.031667 5.080000 2.623853
v -7.031667 5.260000 2.647853
v -7.031667 5.260000 2.623853
v -6.515000 5.260000 2.708000
v -7.548334 5.080000 2.641070
v -7.548334 5.080000 2.617070
v -7.548334 5.260000 2.641070
v -7.548334 5.260000 2.617070
v -8.065001 5.080000 2.693888
v -8.065001 5.080000 2.717888
v -8.065001 5.260000 2.717888
v -8.065001 5.260000 2.693888
v -6.515000 4.720000 2.708000
v -7.031667 4.720000 2.647853
v -7.031667 4.720000 2.623853
v -6.515000 4.900000 2.732000
v -6.515000 4.720000 2.732000
v -7.031667 4.900000 2.647853
v -7.031667 4.900000 2.623853
v -6.515000 4.900000 2.708000
v -7.548334 4.720000 2.641070
v -7.548334 4.720000 2.617070
v -7.548334 4.900000 2.641070
v -7.548334 4.900000 2.617070
v -8.065001 4.720000 2.693888
v -8.065001 4.720000 2.717888
v -8.065001 4.900000 2.717888
v -8.065001 4.900000 2.693888
vt 0.317571 0.599046
vt 0.317428 0.602396
vt 0.317415 0.599045
vt 0.333443 0.599046
vt 0.333301 0.602396
vt 0.333287 0.599045
vt 0.543448 0.341059
vt 0.542288 0.344414
vt 0.542290 0.341068
vt 0.243660 0.623943
vt 0.243807 0.622775
vt 0.243807 0.623943
vt 0.537656 0.369740
vt 0.538805 0.366407
vt 0.538802 0.369754
vt 0.317055 0.605744
vt 0.317584 0.602397
vt 0.332927 0.605744
vt 0.332772 0.605742
vt 0.543447 0.344405
vt 0.542357 0.347787
vt 0.197655 0.622774
vt 0.197803 0.623943
vt 0.197655 0.623943
vt 0.537756 0.373049
vt 0.538903 0.373063
vt 0.348799 0.595690
vt 0.349159 0.599045
vt 0.348644 0.595689
vt 0.541199 0.337754
vt 0.539974 0.341085
vt 0.540040 0.337763
vt 0.228325 0.626279
vt 0.228473 0.625111
vt 0.228473 0.626279
vt 0.539952 0.366420
vt 0.541197 0.363052
vt 0.541099 0.366434
vt 0.212991 0.625111
vt 0.213138 0.626279
vt 0.212991 0.626279
vt 0.349315 0.599046
vt 0.349173 0.602396
vt 0.541132 0.341076
vt 0.539972 0.344432
vt 0.243660 0.626279
vt 0.243807 0.625111
vt 0.243807 0.626279
vt 0.835804 0.262773
vt 0.836962 0.266110
vt 0.835804 0.266120
vt 0.348799 0.605744
vt 0.349328 0.602397
vt 0.541130 0.344423
vt 0.540040 0.347805
vt 0.197655 0.625111
vt 0.197803 0.626279
vt 0.197655 0.626279
vt 0.540050 0.373077
vt 0.541096 0.369782
vt 0.541197 0.373091
vt 0.301556 0.595690
vt 0.301196 0.599046
vt 0.301041 0.599048
vt 0.538882 0.337772
vt 0.537657 0.341103
vt 0.537724 0.337781
vt 0.228325 0.628615
vt 0.228473 0.627447
vt 0.228473 0.628615
vt 0.542246 0.366448
vt 0.543490 0.363079
vt 0.543393 0.366462
vt 0.212991 0.627447
vt 0.213138 0.628615
vt 0.212991 0.628615
vt 0.301183 0.602399
vt 0.301027 0.602400
vt 0.538815 0.341094
vt 0.537655 0.344450
vt 0.243660 0.628615
vt 0.243807 0.627447
vt 0.243807 0.628615
vt 0.542243 0.369796
vt 0.543390 0.369809
vt 0.301556 0.605748
vt 0.538814 0.344441
vt 0.537724 0.347823
vt 0.197655 0.627447
vt 0.197803 0.628615
vt 0.197655 0.628615
vt 0.542343 0.373104
vt 0.543490 0.373118
vt 0.333456 0.602397
vt 0.243660 0.622775
vt 0.537658 0.366393
vt 0.316899 0.605742
vt 0.543515 0.347778
vt 0.197803 0.622775
vt 0.228325 0.625111
vt 0.540050 0.363038
vt 0.213138 0.625111
vt 0.243660 0.625111
vt 0.836962 0.262764
vt 0.348644 0.605742
vt 0.541199 0.347796
vt 0.197803 0.625111
vt 0.539949 0.369768
vt 0.301712 0.595689
vt 0.228325 0.627447
vt 0.542343 0.363065
vt 0.213138 0.627447
vt 0.243660 0.627447
vt 0.301712 0.605747
vt 0.538882 0.347814
vt 0.197803 0.627447
vn -0.0000 1.0000 -0.0000
vn -0.0131 -0.0000 0.9999
vn 1.0000 -0.0000 -0.0000
vn 0.0131 -0.0000 -0.9999
vn 0.1471 -0.0000 0.9891
vn -1.0000 -0.0000 -0.0000
vn -0.1471 -0.0000 -0.9891
vn -0.1607 -0.0000 0.9870
vn 0.1607 -0.0000 -0.9870
vn -0.0000 -1.0000 -0.0000
f 1/1/1 2/2/1 3/3/1
f 4/4/1 5/5/1 6/6/1
f 6/7/2 2/8/2 3/9/2
f 7/10/3 5/11/3 2/12/3
f 8/13/4 1/14/4 7/15/4
f 9/16/1 2/2/1 7/17/1
f 5/5/1 10/18/1 11/19/1
f 5/20/5 12/21/5 2/8/5
f 11/22/6 9/23/6 12/24/6
f 10/25/7 7/15/7 9/26/7
f 13/27/1 14/28/1 15/29/1
f 16/30/8 14/31/8 15/32/8
f 17/33/3 18/34/3 14/35/3
f 19/36/9 13/37/9 17/38/9
f 20/39/3 15/40/3 13/41/3
f 17/42/1 21/43/1 14/28/1
f 18/44/2 21/45/2 14/31/2
f 22/46/3 23/47/3 21/48/3
f 17/49/2 24/50/2 22/51/2
f 25/52/1 21/43/1 22/53/1
f 23/54/5 26/55/5 21/45/5
f 27/56/6 25/57/6 26/58/6
f 28/59/7 22/60/7 25/61/7
f 29/62/10 30/63/10 31/64/10
f 32/65/8 30/66/8 33/67/8
f 31/68/3 34/69/3 30/70/3
f 35/71/9 29/72/9 31/73/9
f 36/74/3 33/75/3 29/76/3
f 31/64/10 37/77/10 38/78/10
f 34/79/2 37/80/2 30/66/2
f 38/81/3 39/82/3 37/83/3
f 40/84/4 31/73/4 38/85/4
f 37/77/10 41/86/10 38/78/10
f 39/87/5 42/88/5 37/80/5
f 43/89/6 41/90/6 42/91/6
f 44/92/7 38/85/7 41/93/7
f 1/1/1 7/17/1 2/2/1
f 4/4/1 8/94/1 5/5/1
f 6/7/2 5/20/2 2/8/2
f 7/10/3 8/95/3 5/11/3
f 8/13/4 4/96/4 1/14/4
f 9/16/1 12/97/1 2/2/1
f 5/5/1 8/94/1 10/18/1
f 5/20/5 11/98/5 12/21/5
f 11/22/6 10/99/6 9/23/6
f 10/25/7 8/13/7 7/15/7
f 13/27/1 17/42/1 14/28/1
f 16/30/8 18/44/8 14/31/8
f 17/33/3 19/100/3 18/34/3
f 19/36/9 20/101/9 13/37/9
f 20/39/3 16/102/3 15/40/3
f 17/42/1 22/53/1 21/43/1
f 18/44/2 23/54/2 21/45/2
f 22/46/3 24/103/3 23/47/3
f 17/49/2 19/104/2 24/50/2
f 25/52/1 26/105/1 21/43/1
f 23/54/5 27/106/5 26/55/5
f 27/56/6 28/107/6 25/57/6
f 28/59/7 24/108/7 22/60/7
f 29/62/10 33/109/10 30/63/10
f 32/65/8 34/79/8 30/66/8
f 31/68/3 35/110/3 34/69/3
f 35/71/9 36/111/9 29/72/9
f 36/74/3 32/112/3 33/75/3
f 31/64/10 30/63/10 37/77/10
f 34/79/2 39/87/2 37/80/2
f 38/81/3 40/113/3 39/82/3
f 40/84/4 35/71/4 31/73/4
f 37/77/10 42/114/10 41/86/10
f 39/87/5 43/115/5 42/88/5
f 43/89/6 44/116/6 41/90/6
f 44/92/7 40/84/7 38/85/7
