# JIB VI - the green parts, as a standalone mesh.
#
# One file per material rather than one library addressed with `#group`:
# selecting a group recentres it on its own bounding box, which takes a
# model apart when the library IS one model. A whole-file import keeps
# the authored coordinates. See loom_asset/src/mesh.rs:268.
v 3.704435 3.495000 2.802931
v 3.735000 3.645000 2.793000
v 3.735000 3.495000 2.793000
v 3.685545 3.495000 2.828931
v 3.704435 3.645000 2.802931
v 3.685545 3.495000 2.861069
v 3.685545 3.645000 2.828931
v 3.704435 3.495000 2.887069
v 3.685545 3.645000 2.861069
v 3.735000 3.495000 2.897000
v 3.704435 3.645000 2.887069
v 3.765565 3.495000 2.887069
v 3.735000 3.645000 2.897000
v 3.784455 3.495000 2.861069
v 3.765565 3.645000 2.887069
v 3.784455 3.495000 2.828931
v 3.784455 3.645000 2.861069
v 3.765565 3.495000 2.802931
v 3.784455 3.645000 2.828931
v 3.765565 3.645000 2.802931
vt 0.431997 0.712322
vt 0.432050 0.712071
vt 0.432050 0.712322
vt 0.199285 0.702330
vt 0.199328 0.702078
vt 0.199328 0.702329
vt 0.199232 0.702330
vt 0.199285 0.702079
vt 0.199187 0.702329
vt 0.199232 0.702079
vt 0.393317 0.712321
vt 0.393367 0.712072
vt 0.393367 0.712323
vt 0.393265 0.712322
vt 0.393317 0.712071
vt 0.441666 0.702329
vt 0.441702 0.702078
vt 0.441702 0.702329
vt 0.441614 0.702329
vt 0.441666 0.702078
vt 0.441564 0.702329
vt 0.441614 0.702078
vt 0.432098 0.712072
vt 0.432098 0.712323
vt 0.718832 0.281067
vt 0.718749 0.281007
vt 0.718883 0.280910
vt 0.718832 0.251556
vt 0.718883 0.251572
vt 0.718832 0.251730
vt 0.431997 0.712071
vt 0.199187 0.702078
vt 0.393265 0.712071
vt 0.441564 0.702078
vt 0.718915 0.281007
vt 0.718883 0.281051
vt 0.718781 0.281051
vt 0.718749 0.280953
vt 0.718781 0.280910
vt 0.718832 0.280893
vt 0.718915 0.280953
vt 0.718915 0.251616
vt 0.718915 0.251670
vt 0.718883 0.251713
vt 0.718781 0.251713
vt 0.718749 0.251670
vt 0.718749 0.251616
vt 0.718781 0.251572
vn -0.5878 -0.0000 -0.8090
vn -0.0000 -0.0000 -1.0000
vn -0.9511 -0.0000 -0.3090
vn -0.9511 -0.0000 0.3090
vn -0.5878 -0.0000 0.8090
vn -0.0000 -0.0000 1.0000
vn 0.5878 -0.0000 0.8090
vn 0.9511 -0.0000 0.3090
vn 0.9511 -0.0000 -0.3090
vn 0.5878 -0.0000 -0.8090
vn -0.0000 -1.0000 -0.0000
vn -0.0000 1.0000 -0.0000
f 1/1/1 2/2/2 3/3/2
f 4/4/3 5/5/1 1/6/1
f 6/7/4 7/8/3 4/4/3
f 8/9/5 9/10/4 6/7/4
f 10/11/6 11/12/5 8/13/5
f 12/14/7 13/15/6 10/11/6
f 14/16/8 15/17/7 12/18/7
f 16/19/9 17/20/8 14/16/8
f 18/21/10 19/22/9 16/19/9
f 3/3/2 20/23/10 18/24/10
f 16/25/11 12/26/11 4/27/11
f 19/28/12 20/29/12 9/30/12
f 1/1/1 5/31/1 2/2/2
f 4/4/3 7/8/3 5/5/1
f 6/7/4 9/10/4 7/8/3
f 8/9/5 11/32/5 9/10/4
f 10/11/6 13/15/6 11/12/5
f 12/14/7 15/33/7 13/15/6
f 14/16/8 17/20/8 15/17/7
f 16/19/9 19/22/9 17/20/8
f 18/21/10 20/34/10 19/22/9
f 3/3/2 2/2/2 20/23/10
f 3/35/11 18/36/11 16/25/11
f 16/25/11 14/37/11 12/26/11
f 12/26/11 10/38/11 8/39/11
f 8/39/11 6/40/11 12/26/11
f 6/40/11 4/27/11 12/26/11
f 4/27/11 1/41/11 3/35/11
f 3/35/11 16/25/11 4/27/11
f 20/29/12 2/42/12 5/43/12
f 5/43/12 7/44/12 20/29/12
f 7/44/12 9/30/12 20/29/12
f 9/30/12 11/45/12 13/46/12
f 13/46/12 15/47/12 9/30/12
f 15/47/12 17/48/12 9/30/12
f 17/48/12 19/28/12 9/30/12
