# JIB VI - the navy parts, as a standalone mesh.
#
# One file per material rather than one library addressed with `#group`:
# selecting a group recentres it on its own bounding box, which takes a
# model apart when the library IS one model. A whole-file import keeps
# the authored coordinates. See loom_asset/src/mesh.rs:268.
v -9.495000 0.980000 -1.450000
v -9.495000 1.300000 2.856960
v -9.495000 1.300000 -1.450000
v -9.495000 0.980000 -2.856960
v -9.495000 1.300000 -2.250000
v -9.495000 1.300000 -2.856960
v 2.371192 1.186197 -2.910559
v 2.096081 1.170161 -2.946564
v 2.096081 1.185507 -2.954762
v 1.818602 1.145771 -2.972819
v 1.818602 1.195601 -2.997694
v 1.538801 1.115085 -2.992296
v 1.538801 1.213067 -3.038030
v 1.256721 1.080547 -3.007739
v 1.256721 1.234298 -3.074987
v 0.972406 1.044738 -3.021586
v 0.972406 1.255500 -3.108325
v 0.685895 1.011117 -3.033681
v 0.685895 1.273444 -3.135906
v 0.397227 1.285147 -3.155891
v 0.397227 0.983704 -3.043957
v 0.106438 1.287079 -3.168405
v 0.106438 0.966275 -3.054297
v -0.186435 1.280019 -3.174930
v -0.186435 0.958308 -3.064886
v -0.481358 1.272893 -3.179098
v -0.481358 0.951135 -3.072995
v -0.778300 1.266268 -3.181731
v -0.778300 0.944466 -3.079371
v -1.077227 1.260206 -3.183173
v -1.077227 0.938363 -3.084474
v -1.378111 1.254435 -3.182137
v -1.378111 0.932558 -3.086608
v -1.680922 1.249032 -3.178730
v -1.680922 0.927124 -3.085913
v -1.985631 1.244137 -3.173318
v -1.985631 0.922202 -3.082876
v -2.292212 1.239895 -3.166286
v -2.292212 0.917934 -3.078004
v -2.600637 1.236455 -3.158031
v -2.600637 0.914467 -3.071821
v -2.910883 1.233971 -3.148863
v -2.910883 0.911953 -3.064757
v -3.222924 1.232487 -3.137747
v -3.222924 0.910439 -3.055665
v -3.536735 1.231899 -3.124747
v -3.536735 0.909819 -3.044552
v -3.852296 1.232083 -3.110465
v -3.852296 0.909971 -3.032016
v -4.169582 1.232916 -3.095519
v -4.169582 0.910770 -3.018679
v -4.488573 1.234266 -3.080552
v -4.488573 0.912086 -3.005182
v -4.809247 1.236022 -3.066163
v -4.809247 0.913809 -2.992118
v -5.131584 1.238448 -3.051804
v -5.131584 0.916200 -2.978868
v -5.455564 1.241551 -3.037213
v -5.781169 0.922876 -2.951217
v -5.781169 1.245197 -3.022445
v -6.108378 0.926887 -2.937057
v -6.108378 1.249246 -3.007560
v -6.437176 0.931154 -2.922840
v -6.437176 1.253554 -2.992617
v -6.767542 0.935654 -2.908551
v -6.767542 1.258097 -2.977536
v -7.099461 0.940989 -2.893458
v -7.099461 1.263478 -2.961611
v -7.432915 0.946869 -2.877965
v -7.432915 1.269408 -2.945294
v -7.767888 0.952809 -2.862722
v -7.767888 1.275400 -2.929283
v -8.104365 0.958311 -2.848398
v -8.104365 1.280953 -2.914290
v -8.442329 0.962863 -2.835685
v -8.442329 1.285554 -2.901052
v -8.781767 0.968204 -2.817130
v -8.781767 1.290977 -2.881980
v -9.122662 0.971590 -2.801017
v -9.122662 1.294450 -2.865738
v -9.465000 1.296517 -2.855051
v 2.371192 1.186197 2.910559
v 2.096081 1.170161 2.946564
v 2.371192 1.185943 2.910414
v 2.096081 1.185507 2.954762
v 1.818602 1.145771 2.972819
v 1.818602 1.195601 2.997694
v 1.538801 1.115085 2.992296
v 1.538801 1.213067 3.038030
v 1.256721 1.080547 3.007739
v 1.256721 1.234298 3.074987
v 0.972406 1.044738 3.021586
v 0.972406 1.255500 3.108325
v 0.685895 1.011117 3.033681
v 0.397227 1.285147 3.155891
v 0.397227 0.983704 3.043957
v 0.106438 1.287079 3.168405
v 0.106438 0.966275 3.054297
v -0.186435 1.280019 3.174930
v -0.186435 0.958308 3.064886
v -0.481358 1.272893 3.179098
v -0.481358 0.951135 3.072995
v -0.778300 1.266268 3.181731
v -0.778300 0.944466 3.079371
v -1.077227 1.260206 3.183173
v -1.077227 0.938363 3.084474
v -1.378111 1.254435 3.182137
v -1.378111 0.932558 3.086608
v -1.680922 1.249032 3.178730
v -1.680922 0.927124 3.085913
v -1.985631 1.244137 3.173318
v -1.985631 0.922202 3.082876
v -2.292212 1.239895 3.166286
v -2.292212 0.917934 3.078004
v -2.600637 1.236455 3.158031
v -2.600637 0.914467 3.071821
v -2.910883 1.233971 3.148863
v -2.910883 0.911953 3.064757
v -3.222924 1.232487 3.137747
v -3.222924 0.910439 3.055665
v -3.536735 1.231899 3.124747
v -3.536735 0.909819 3.044552
v -3.852296 1.232083 3.110465
v -3.852296 0.909971 3.032016
v -4.169582 1.232916 3.095519
v -4.169582 0.910770 3.018679
v -4.488573 1.234266 3.080552
v -4.488573 0.912086 3.005182
v -4.809247 1.236022 3.066163
v -4.809247 0.913809 2.992118
v -5.131584 1.238448 3.051804
v -5.131584 0.916200 2.978868
v -5.455564 1.241551 3.037213
v -5.455564 0.919267 2.965195
v -5.781169 0.922876 2.951217
v -5.781169 1.245197 3.022445
v -6.108378 0.926887 2.937057
v -6.108378 1.249246 3.007560
v -6.437176 0.931154 2.922840
v -6.437176 1.253554 2.992617
v -6.767542 0.935654 2.908551
v -6.767542 1.258097 2.977536
v -7.099461 0.940989 2.893458
v -7.099461 1.263478 2.961611
v -7.432915 0.946869 2.877965
v -7.432915 1.269408 2.945294
v -7.767888 0.952809 2.862722
v -7.767888 1.275400 2.929283
v -8.104365 0.958311 2.848398
v -8.104365 1.280953 2.914290
v -8.442329 0.962863 2.835685
v -8.442329 1.285554 2.901052
v -8.781767 0.968204 2.817130
v -8.781767 1.290977 2.881980
v -9.122662 0.971590 2.801017
v -9.465000 1.296517 2.855051
v -9.465000 0.973594 2.790333
v 2.371192 0.814984 -2.684946
v 2.096081 0.801246 -2.734581
v 2.096081 0.811799 -2.741066
v 1.818602 0.782110 -2.774580
v 1.818602 0.816378 -2.794592
v 1.538801 0.758820 -2.807193
v 1.538801 0.826205 -2.844615
v 1.256721 0.732877 -2.834606
v 1.256721 0.838619 -2.890567
v 0.972406 0.705866 -2.858858
v 0.972406 0.850824 -2.932229
v 0.685895 0.680205 -2.879503
v 0.685895 0.860635 -2.967315
v 0.397227 0.658818 -2.896513
v 0.397227 0.866160 -2.994065
v 0.106438 0.644339 -2.911938
v 0.106438 0.865005 -3.012754
v -0.186435 0.857742 -3.024902
v -0.186435 0.636445 -2.926394
v -0.481358 0.850552 -3.034148
v -0.481358 0.629216 -2.937950
v -0.778300 0.843868 -3.041607
v -0.778300 0.622495 -2.947613
v -1.077227 0.837750 -3.047776
v -1.077227 0.616342 -2.955967
v -1.378111 0.831932 -3.050834
v -1.378111 0.610492 -2.960921
v -1.680922 0.826488 -3.050930
v -1.680922 0.605020 -2.962631
v -1.985631 0.821555 -3.048582
v -1.985631 0.600062 -2.961682
v -2.292212 0.817277 -3.044332
v -2.292212 0.595760 -2.958683
v -2.600637 0.813800 -3.038739
v -2.600637 0.592258 -2.954266
v -2.910883 0.811276 -3.032268
v -2.910883 0.589706 -2.948956
v -3.222924 0.809750 -3.023738
v -3.222924 0.588151 -2.941509
v -3.536735 0.809117 -3.013139
v -3.536735 0.587490 -2.931880
v -3.852296 0.809258 -3.001070
v -3.852296 0.587600 -2.920668
v -4.169582 0.810045 -2.988153
v -4.169582 0.588357 -2.908494
v -4.488573 0.811348 -2.975028
v -4.488573 0.589630 -2.896000
v -4.809247 0.813058 -2.962287
v -4.809247 0.591308 -2.883774
v -5.131584 0.815436 -2.949289
v -5.131584 0.593654 -2.871118
v -5.455564 0.818490 -2.935801
v -5.455564 0.596676 -2.857816
v -5.781169 0.822085 -2.921962
v -5.781169 0.600237 -2.844049
v -6.108378 0.826082 -2.907915
v -6.108378 0.604198 -2.830001
v -6.437176 0.830334 -2.893807
v -6.437176 0.608414 -2.815867
v -6.767542 0.834818 -2.879639
v -7.099461 0.618132 -2.786681
v -7.099461 0.840135 -2.864669
v -7.432915 0.623948 -2.771210
v -7.432915 0.845997 -2.849286
v -7.767888 0.629822 -2.755901
v -7.767888 0.851918 -2.834130
v -8.104365 0.635258 -2.741407
v -8.104365 0.857401 -2.819861
v -8.442329 0.861934 -2.807164
v -8.442329 0.639747 -2.728412
v -8.781767 0.867244 -2.788512
v -8.781767 0.644983 -2.708970
v -9.122662 0.870598 -2.772163
v -9.122662 0.648261 -2.691478
v -9.465000 0.872580 -2.761279
v 2.371192 0.814984 2.684946
v 2.096081 0.801246 2.734581
v 2.371192 0.814809 2.684833
v 2.096081 0.811799 2.741066
v 1.818602 0.782110 2.774580
v 1.818602 0.816378 2.794592
v 1.538801 0.758820 2.807193
v 1.538801 0.826205 2.844615
v 1.256721 0.732877 2.834606
v 1.256721 0.838619 2.890567
v 0.972406 0.705866 2.858858
v 0.972406 0.850824 2.932229
v 0.685895 0.680205 2.879503
v 0.685895 0.860635 2.967315
v 0.397227 0.658818 2.896513
v 0.397227 0.866160 2.994065
v 0.106438 0.644339 2.911938
v -0.186435 0.857742 3.024902
v -0.186435 0.636445 2.926394
v -0.481358 0.850552 3.034148
v -0.481358 0.629216 2.937950
v -0.778300 0.843868 3.041607
v -0.778300 0.622495 2.947613
v -1.077227 0.837750 3.047776
v -1.077227 0.616342 2.955967
v -1.378111 0.831932 3.050834
v -1.378111 0.610492 2.960921
v -1.680922 0.826488 3.050930
v -1.680922 0.605020 2.962631
v -1.985631 0.821555 3.048582
v -1.985631 0.600062 2.961682
v -2.292212 0.817277 3.044332
v -2.292212 0.595760 2.958683
v -2.600637 0.813800 3.038739
v -2.600637 0.592258 2.954266
v -2.910883 0.811276 3.032268
v -2.910883 0.589706 2.948956
v -3.222924 0.809750 3.023738
v -3.222924 0.588151 2.941509
v -3.536735 0.809117 3.013139
v -3.536735 0.587490 2.931880
v -3.852296 0.809258 3.001070
v -3.852296 0.587600 2.920668
v -4.169582 0.810045 2.988153
v -4.169582 0.588357 2.908494
v -4.488573 0.811348 2.975028
v -4.488573 0.589630 2.896000
v -4.809247 0.813058 2.962287
v -4.809247 0.591308 2.883774
v -5.131584 0.815436 2.949289
v -5.131584 0.593654 2.871118
v -5.455564 0.818490 2.935801
v -5.455564 0.596676 2.857816
v -5.781169 0.822085 2.921962
v -5.781169 0.600237 2.844049
v -6.108378 0.826082 2.907915
v -6.108378 0.604198 2.830001
v -6.437176 0.830334 2.893807
v -6.437176 0.608414 2.815867
v -6.767542 0.834818 2.879639
v -6.767542 0.612858 2.801688
v -7.099461 0.618132 2.786681
v -7.099461 0.840135 2.864669
v -7.432915 0.623948 2.771210
v -7.432915 0.845997 2.849286
v -7.767888 0.629822 2.755901
v -7.767888 0.851918 2.834130
v -8.104365 0.635258 2.741407
v -8.442329 0.861934 2.807164
v -8.442329 0.639747 2.728412
v -8.781767 0.867244 2.788512
v -8.781767 0.644983 2.708970
v -9.122662 0.870598 2.772163
v -9.122662 0.648261 2.691478
v -9.465000 0.872580 2.761279
v -9.465000 0.650188 2.679704
v 2.670000 1.060000 -1.346251
v 1.450000 1.060000 -0.846251
v 1.450000 1.060000 -1.346251
v 2.670000 1.145000 -0.846251
v 1.450000 1.145000 -1.346251
v 1.450000 1.145000 -0.846251
v 2.670000 1.060000 -0.846251
v 2.670000 1.145000 -1.346251
v 2.670000 1.145000 -1.336251
v 1.450000 1.145000 -1.206251
v 1.450000 1.145000 -1.336251
v 2.670000 1.475000 -1.206251
v 1.450000 1.475000 -1.336251
v 1.450000 1.475000 -1.206251
v 2.670000 1.145000 -1.206251
v 2.670000 1.475000 -1.336251
v 1.420000 1.060000 -1.346251
v 0.200000 1.060000 -0.846251
v 0.200000 1.060000 -1.346251
v 1.420000 1.145000 -0.846251
v 0.200000 1.145000 -1.346251
v 0.200000 1.145000 -0.846251
v 1.420000 1.060000 -0.846251
v 1.420000 1.145000 -1.346251
v 1.420000 1.145000 -1.336251
v 0.200000 1.145000 -1.206251
v 0.200000 1.145000 -1.336251
v 1.420000 1.475000 -1.206251
v 0.200000 1.475000 -1.336251
v 0.200000 1.475000 -1.206251
v 1.420000 1.145000 -1.206251
v 1.420000 1.475000 -1.336251
v 0.170000 1.060000 -1.346251
v -1.050000 1.060000 -0.846251
v -1.050000 1.060000 -1.346251
v 0.170000 1.145000 -0.846251
v -1.050000 1.145000 -1.346251
v -1.050000 1.145000 -0.846251
v 0.170000 1.060000 -0.846251
v 0.170000 1.145000 -1.346251
v 0.170000 1.145000 -1.336251
v -1.050000 1.145000 -1.206251
v -1.050000 1.145000 -1.336251
v 0.170000 1.475000 -1.206251
v -1.050000 1.475000 -1.336251
v -1.050000 1.475000 -1.206251
v 0.170000 1.145000 -1.206251
v 0.170000 1.475000 -1.336251
v -1.080000 1.060000 -1.346251
v -2.300000 1.060000 -0.846251
v -2.300000 1.060000 -1.346251
v -1.080000 1.145000 -0.846251
v -2.300000 1.145000 -1.346251
v -2.300000 1.145000 -0.846251
v -1.080000 1.060000 -0.846251
v -1.080000 1.145000 -1.346251
v -1.080000 1.145000 -1.336251
v -2.300000 1.145000 -1.206251
v -2.300000 1.145000 -1.336251
v -1.080000 1.475000 -1.206251
v -2.300000 1.475000 -1.336251
v -2.300000 1.475000 -1.206251
v -1.080000 1.145000 -1.206251
v -1.080000 1.475000 -1.336251
v -2.330000 1.060000 -1.346251
v -3.550000 1.060000 -0.846251
v -3.550000 1.060000 -1.346251
v -2.330000 1.145000 -0.846251
v -3.550000 1.145000 -1.346251
v -3.550000 1.145000 -0.846251
v -2.330000 1.060000 -0.846251
v -2.330000 1.145000 -1.346251
v -2.330000 1.145000 -1.336251
v -3.550000 1.145000 -1.206251
v -3.550000 1.145000 -1.336251
v -2.330000 1.475000 -1.206251
v -3.550000 1.475000 -1.336251
v -3.550000 1.475000 -1.206251
v -2.330000 1.145000 -1.206251
v -2.330000 1.475000 -1.336251
v -3.580000 1.060000 -1.346251
v -4.800000 1.060000 -0.846251
v -4.800000 1.060000 -1.346251
v -3.580000 1.145000 -0.846251
v -4.800000 1.145000 -1.346251
v -4.800000 1.145000 -0.846251
v -3.580000 1.060000 -0.846251
v -3.580000 1.145000 -1.346251
v -3.580000 1.145000 -1.336251
v -4.800000 1.145000 -1.206251
v -4.800000 1.145000 -1.336251
v -3.580000 1.475000 -1.206251
v -4.800000 1.475000 -1.336251
v -4.800000 1.475000 -1.206251
v -3.580000 1.145000 -1.206251
v -3.580000 1.475000 -1.336251
v 2.670000 1.060000 0.846251
v 1.450000 1.060000 1.346251
v 1.450000 1.060000 0.846251
v 2.670000 1.145000 1.346251
v 1.450000 1.145000 0.846251
v 1.450000 1.145000 1.346251
v 2.670000 1.060000 1.346251
v 2.670000 1.145000 0.846251
v 2.670000 1.145000 1.206251
v 1.450000 1.145000 1.336251
v 1.450000 1.145000 1.206251
v 2.670000 1.475000 1.336251
v 1.450000 1.475000 1.206251
v 1.450000 1.475000 1.336251
v 2.670000 1.145000 1.336251
v 2.670000 1.475000 1.206251
v 1.420000 1.060000 0.846251
v 0.200000 1.060000 1.346251
v 0.200000 1.060000 0.846251
v 1.420000 1.145000 1.346251
v 0.200000 1.145000 0.846251
v 0.200000 1.145000 1.346251
v 1.420000 1.060000 1.346251
v 1.420000 1.145000 0.846251
v 1.420000 1.145000 1.206251
v 0.200000 1.145000 1.336251
v 0.200000 1.145000 1.206251
v 1.420000 1.475000 1.336251
v 0.200000 1.475000 1.206251
v 0.200000 1.475000 1.336251
v 1.420000 1.145000 1.336251
v 1.420000 1.475000 1.206251
v 0.170000 1.060000 0.846251
v -1.050000 1.060000 1.346251
v -1.050000 1.060000 0.846251
v 0.170000 1.145000 1.346251
v -1.050000 1.145000 0.846251
v -1.050000 1.145000 1.346251
v 0.170000 1.060000 1.346251
v 0.170000 1.145000 0.846251
v 0.170000 1.145000 1.206251
v -1.050000 1.145000 1.336251
v -1.050000 1.145000 1.206251
v 0.170000 1.475000 1.336251
v -1.050000 1.475000 1.206251
v -1.050000 1.475000 1.336251
v 0.170000 1.145000 1.336251
v 0.170000 1.475000 1.206251
v -1.080000 1.060000 0.846251
v -2.300000 1.060000 1.346251
v -2.300000 1.060000 0.846251
v -1.080000 1.145000 1.346251
v -2.300000 1.145000 0.846251
v -2.300000 1.145000 1.346251
v -1.080000 1.060000 1.346251
v -1.080000 1.145000 0.846251
v -1.080000 1.145000 1.206251
v -2.300000 1.145000 1.336251
v -2.300000 1.145000 1.206251
v -1.080000 1.475000 1.336251
v -2.300000 1.475000 1.206251
v -2.300000 1.475000 1.336251
v -1.080000 1.145000 1.336251
v -1.080000 1.475000 1.206251
v -2.330000 1.060000 0.846251
v -3.550000 1.060000 1.346251
v -3.550000 1.060000 0.846251
v -2.330000 1.145000 1.346251
v -3.550000 1.145000 0.846251
v -3.550000 1.145000 1.346251
v -2.330000 1.060000 1.346251
v -2.330000 1.145000 0.846251
v -2.330000 1.145000 1.206251
v -3.550000 1.145000 1.336251
v -3.550000 1.145000 1.206251
v -2.330000 1.475000 1.336251
v -3.550000 1.475000 1.206251
v -3.550000 1.475000 1.336251
v -2.330000 1.145000 1.336251
v -2.330000 1.475000 1.206251
v -3.580000 1.060000 0.846251
v -4.800000 1.060000 1.346251
v -4.800000 1.060000 0.846251
v -3.580000 1.145000 1.346251
v -4.800000 1.145000 0.846251
v -4.800000 1.145000 1.346251
v -3.580000 1.060000 1.346251
v -3.580000 1.145000 0.846251
v -3.580000 1.145000 1.206251
v -4.800000 1.145000 1.336251
v -4.800000 1.145000 1.206251
v -3.580000 1.475000 1.336251
v -4.800000 1.475000 1.206251
v -4.800000 1.475000 1.336251
v -3.580000 1.145000 1.336251
v -3.580000 1.475000 1.206251
v 4.085000 2.955000 -2.720000
v -6.815000 2.955000 -2.700000
v -6.815000 2.955000 -2.720000
v 4.085000 2.995000 -2.700000
v -6.815000 2.995000 -2.720000
v -6.815000 2.995000 -2.700000
v 4.085000 2.955000 -2.700000
v 4.085000 2.995000 -2.720000
v 4.085000 2.955000 2.700000
v -6.815000 2.955000 2.720000
v -6.815000 2.955000 2.700000
v 4.085000 2.995000 2.720000
v -6.815000 2.995000 2.700000
v -6.815000 2.995000 2.720000
v 4.085000 2.955000 2.720000
v 4.085000 2.995000 2.700000
v -6.815000 3.080000 -2.740000
v 4.085000 3.080000 -2.700000
v -6.815000 3.080000 -2.700000
v 4.085000 3.420000 -2.740000
v -6.815000 3.420000 -2.700000
v 4.085000 3.420000 -2.700000
v 4.085000 3.080000 -2.740000
v -6.815000 3.420000 -2.740000
v 4.085000 3.080000 2.700000
v -6.815000 3.080000 2.740000
v -6.815000 3.080000 2.700000
v -6.815000 3.420000 2.700000
v 4.085000 3.420000 2.740000
v 4.085000 3.420000 2.700000
v 4.085000 3.080000 2.740000
v -6.815000 3.420000 2.740000
v 4.045000 3.080000 2.700000
v 4.045000 3.080000 -2.700000
v 4.045000 3.420000 -2.700000
v 4.045000 3.420000 2.700000
v -6.775000 3.080000 -0.690000
v -6.815000 3.080000 -0.690000
v -6.775000 3.420000 2.700000
v -6.815000 3.420000 -0.690000
v -6.775000 3.080000 2.700000
v -6.775000 3.420000 -0.690000
v -6.775000 3.080000 -2.700000
v -6.815000 3.080000 -1.410000
v -6.775000 3.420000 -1.410000
v -6.815000 3.420000 -1.410000
v -6.775000 3.080000 -1.410000
v -6.775000 3.420000 -2.700000
v -2.485000 5.050000 -1.748000
v 3.265000 5.050000 1.675000
v -2.485000 5.050000 1.748000
v 3.025000 5.180000 -1.675000
v -2.485000 5.180000 1.748000
v 3.025000 5.180000 1.675000
v 3.265000 5.050000 -1.675000
v -2.485000 5.180000 -1.748000
v -6.515000 5.550769 2.878000
v -7.031667 5.550769 2.817853
v -6.515000 5.550769 2.902000
v -6.515000 5.620000 2.878000
v -7.031667 5.620000 2.817853
v -6.515000 5.620000 2.902000
v -7.031667 5.550769 2.793853
v -7.031667 5.620000 2.793853
v -6.515000 5.481538 2.878000
v -7.031667 5.481538 2.817853
v -6.515000 5.481538 2.902000
v -7.031667 5.481538 2.793853
v -6.515000 5.412308 2.878000
v -7.031667 5.412308 2.817853
v -6.515000 5.412308 2.902000
v -7.031667 5.412308 2.793853
v -6.515000 5.343077 2.878000
v -7.031667 5.343077 2.817853
v -7.031667 5.343077 2.793853
v -6.515000 5.343077 2.902000
v -6.515000 5.273846 2.878000
v -7.031667 5.273846 2.817853
v -7.031667 5.273846 2.793853
v -6.515000 5.273846 2.902000
v -6.515000 5.204616 2.878000
v -7.031667 5.204616 2.817853
v -6.515000 5.204616 2.902000
v -7.031667 5.204616 2.793853
v -6.515000 5.135385 2.878000
v -7.031667 5.135385 2.817853
v -6.515000 5.135385 2.902000
v -7.031667 5.135385 2.793853
v -5.295000 3.870000 -0.260000
v -5.905000 3.870000 0.440000
v -5.905000 3.870000 -0.260000
v -5.295000 3.930000 0.440000
v -5.905000 3.930000 -0.260000
v -5.905000 3.930000 0.440000
v -5.295000 3.870000 0.440000
v -5.295000 3.930000 -0.260000
v 2.095000 3.847000 0.680000
v 1.535000 3.847000 1.250000
v 1.535000 3.847000 0.680000
v 2.095000 3.850000 1.250000
v 1.535000 3.850000 0.680000
v 1.535000 3.850000 1.250000
v 2.095000 3.847000 1.250000
v 2.095000 3.850000 0.680000
v -3.185000 1.460000 0.891251
v -3.945000 1.460000 1.291251
v -3.945000 1.460000 0.891251
v -3.185000 1.500000 1.291251
v -3.945000 1.500000 0.891251
v -3.945000 1.500000 1.291251
v -3.185000 1.460000 1.291251
v -3.185000 1.500000 0.891251
v -9.495000 0.980000 2.856960
v -9.495000 0.980000 -2.250000
v 2.371192 1.185943 -2.910414
v -5.455564 0.919267 -2.965195
v -9.465000 0.973594 -2.790333
v 0.685895 1.273444 3.135906
v -9.122662 1.294450 2.865738
v 2.371192 0.814809 -2.684833
v -6.767542 0.612858 -2.801688
v -9.465000 0.650188 -2.679704
v 0.106438 0.865005 3.012754
v -8.104365 0.857401 2.819861
vt 0.205829 0.236659
vt 0.205293 0.243869
vt 0.205293 0.236658
vt 0.210946 0.436785
vt 0.210410 0.437801
vt 0.210410 0.436785
vt 0.085179 0.024439
vt 0.085156 0.023993
vt 0.085182 0.023995
vt 0.085118 0.023540
vt 0.085203 0.023546
vt 0.085068 0.023082
vt 0.085236 0.023092
vt 0.085012 0.022619
vt 0.085275 0.022634
vt 0.084954 0.022151
vt 0.085314 0.022171
vt 0.084899 0.021680
vt 0.085347 0.021703
vt 0.085369 0.021229
vt 0.084854 0.021205
vt 0.085373 0.020751
vt 0.084827 0.020726
vt 0.085362 0.020267
vt 0.084814 0.020243
vt 0.085351 0.019780
vt 0.084804 0.019757
vt 0.085341 0.019288
vt 0.084793 0.019267
vt 0.085331 0.018794
vt 0.084784 0.018773
vt 0.085322 0.018295
vt 0.084775 0.018275
vt 0.085313 0.017792
vt 0.084766 0.017773
vt 0.085304 0.017286
vt 0.084758 0.017267
vt 0.085297 0.016777
vt 0.084751 0.016758
vt 0.085291 0.016264
vt 0.084745 0.016246
vt 0.085286 0.015747
vt 0.084740 0.015730
vt 0.085283 0.015228
vt 0.084737 0.015211
vt 0.085281 0.014704
vt 0.084736 0.014688
vt 0.085281 0.014178
vt 0.084735 0.014162
vt 0.085281 0.013649
vt 0.084736 0.013633
vt 0.085283 0.013116
vt 0.084737 0.013101
vt 0.085285 0.012582
vt 0.084739 0.012567
vt 0.085288 0.012044
vt 0.084742 0.012030
vt 0.085292 0.011504
vt 0.084752 0.010946
vt 0.085298 0.010960
vt 0.084758 0.010401
vt 0.085303 0.010414
vt 0.084764 0.009852
vt 0.085310 0.009866
vt 0.084771 0.009301
vt 0.085316 0.009315
vt 0.084779 0.008748
vt 0.085324 0.008761
vt 0.084788 0.008191
vt 0.085333 0.008204
vt 0.084797 0.007632
vt 0.085342 0.007645
vt 0.084805 0.007071
vt 0.085351 0.007084
vt 0.084812 0.006508
vt 0.085358 0.006521
vt 0.084820 0.005941
vt 0.085366 0.005954
vt 0.084824 0.005372
vt 0.085370 0.005385
vt 0.085373 0.004815
vt 0.069663 0.081091
vt 0.069640 0.081555
vt 0.069662 0.081091
vt 0.069666 0.081556
vt 0.069602 0.082022
vt 0.069688 0.082025
vt 0.069553 0.082493
vt 0.069721 0.082497
vt 0.069497 0.082966
vt 0.069761 0.082973
vt 0.069439 0.083443
vt 0.069800 0.083452
vt 0.069385 0.083924
vt 0.069855 0.084418
vt 0.069340 0.084408
vt 0.069860 0.084906
vt 0.069313 0.084895
vt 0.069850 0.085396
vt 0.069301 0.085386
vt 0.069838 0.085890
vt 0.069290 0.085880
vt 0.069828 0.086386
vt 0.069280 0.086377
vt 0.069819 0.086886
vt 0.069271 0.086877
vt 0.069809 0.087389
vt 0.069262 0.087380
vt 0.069800 0.087895
vt 0.069253 0.087887
vt 0.069792 0.088403
vt 0.069245 0.088396
vt 0.069785 0.088915
vt 0.069238 0.088907
vt 0.069779 0.089430
vt 0.069232 0.089422
vt 0.069774 0.089947
vt 0.069227 0.089940
vt 0.069771 0.090467
vt 0.069224 0.090461
vt 0.069769 0.090990
vt 0.069223 0.090984
vt 0.069769 0.091516
vt 0.069222 0.091510
vt 0.069769 0.092045
vt 0.069223 0.092039
vt 0.069770 0.092576
vt 0.069224 0.092570
vt 0.069772 0.093111
vt 0.069226 0.093105
vt 0.069776 0.093648
vt 0.069229 0.093642
vt 0.069780 0.094187
vt 0.069234 0.094182
vt 0.069239 0.094724
vt 0.069785 0.094730
vt 0.069245 0.095270
vt 0.069791 0.095275
vt 0.069251 0.095817
vt 0.069797 0.095823
vt 0.069258 0.096368
vt 0.069804 0.096373
vt 0.069266 0.096921
vt 0.069812 0.096926
vt 0.069275 0.097476
vt 0.069821 0.097482
vt 0.069283 0.098034
vt 0.069830 0.098039
vt 0.069292 0.098595
vt 0.069838 0.098600
vt 0.069299 0.099159
vt 0.069845 0.099163
vt 0.069306 0.099724
vt 0.069853 0.099729
vt 0.069311 0.100292
vt 0.069860 0.100867
vt 0.069314 0.100862
vt 0.100551 0.024411
vt 0.100533 0.023968
vt 0.100551 0.023970
vt 0.100505 0.023519
vt 0.100564 0.023523
vt 0.100469 0.023063
vt 0.100585 0.023072
vt 0.100428 0.022603
vt 0.100610 0.022616
vt 0.100385 0.022139
vt 0.100634 0.022155
vt 0.100345 0.021669
vt 0.100654 0.021689
vt 0.100310 0.021196
vt 0.100666 0.021217
vt 0.100288 0.020718
vt 0.100666 0.020740
vt 0.100655 0.020258
vt 0.100276 0.020236
vt 0.100644 0.019772
vt 0.100265 0.019751
vt 0.100634 0.019282
vt 0.100255 0.019261
vt 0.100624 0.018788
vt 0.100246 0.018768
vt 0.100615 0.018291
vt 0.100237 0.018271
vt 0.100606 0.017789
vt 0.100228 0.017770
vt 0.100598 0.017284
vt 0.100220 0.017265
vt 0.100591 0.016775
vt 0.100213 0.016756
vt 0.100585 0.016263
vt 0.100207 0.016244
vt 0.100581 0.015747
vt 0.100203 0.015729
vt 0.100578 0.015228
vt 0.100200 0.015210
vt 0.100576 0.014705
vt 0.100198 0.014688
vt 0.100575 0.014180
vt 0.100198 0.014162
vt 0.100576 0.013651
vt 0.100198 0.013633
vt 0.100577 0.013119
vt 0.100199 0.013102
vt 0.100579 0.012584
vt 0.100201 0.012567
vt 0.100582 0.012047
vt 0.100205 0.012030
vt 0.100587 0.011507
vt 0.100209 0.011490
vt 0.100592 0.010964
vt 0.100214 0.010947
vt 0.100598 0.010418
vt 0.100220 0.010402
vt 0.100604 0.009870
vt 0.100226 0.009853
vt 0.100610 0.009319
vt 0.100240 0.008749
vt 0.100618 0.008765
vt 0.100249 0.008192
vt 0.100627 0.008209
vt 0.100258 0.007633
vt 0.100636 0.007650
vt 0.100266 0.007072
vt 0.100644 0.007089
vt 0.100651 0.006526
vt 0.100272 0.006509
vt 0.100659 0.005959
vt 0.100280 0.005942
vt 0.100663 0.005390
vt 0.100284 0.005373
vt 0.100666 0.004820
vt 0.085085 0.072522
vt 0.085067 0.072987
vt 0.085084 0.072522
vt 0.085085 0.072988
vt 0.085039 0.073456
vt 0.085098 0.073458
vt 0.085004 0.073928
vt 0.085120 0.073931
vt 0.084963 0.074402
vt 0.085146 0.074408
vt 0.084921 0.074881
vt 0.085171 0.074888
vt 0.084880 0.075362
vt 0.085191 0.075371
vt 0.084847 0.075847
vt 0.085203 0.075857
vt 0.084824 0.076335
vt 0.085193 0.076836
vt 0.084813 0.076826
vt 0.085182 0.077330
vt 0.084802 0.077320
vt 0.085172 0.077827
vt 0.084792 0.077818
vt 0.085163 0.078327
vt 0.084783 0.078319
vt 0.085153 0.078831
vt 0.084774 0.078822
vt 0.085145 0.079337
vt 0.084766 0.079328
vt 0.085137 0.079846
vt 0.084758 0.079838
vt 0.085129 0.080358
vt 0.084751 0.080350
vt 0.085123 0.080873
vt 0.084745 0.080865
vt 0.085119 0.081391
vt 0.084740 0.081383
vt 0.085116 0.081911
vt 0.084737 0.081904
vt 0.085114 0.082435
vt 0.084736 0.082427
vt 0.085114 0.082961
vt 0.084735 0.082953
vt 0.085114 0.083489
vt 0.084736 0.083482
vt 0.085115 0.084021
vt 0.084737 0.084014
vt 0.085118 0.084556
vt 0.084739 0.084548
vt 0.085121 0.085093
vt 0.084742 0.085086
vt 0.085125 0.085633
vt 0.084746 0.085625
vt 0.085130 0.086175
vt 0.084751 0.086168
vt 0.085136 0.086721
vt 0.084757 0.086713
vt 0.085142 0.087268
vt 0.084763 0.087261
vt 0.085148 0.087819
vt 0.084769 0.087812
vt 0.084777 0.088365
vt 0.085156 0.088372
vt 0.084786 0.088920
vt 0.085165 0.088927
vt 0.084795 0.089478
vt 0.085174 0.089486
vt 0.084803 0.090039
vt 0.085189 0.090610
vt 0.084809 0.090602
vt 0.085196 0.091175
vt 0.084817 0.091167
vt 0.085201 0.091743
vt 0.084821 0.091735
vt 0.085203 0.092314
vt 0.084823 0.092306
vt 0.357837 0.207628
vt 0.357000 0.205584
vt 0.357837 0.205584
vt 0.357000 0.054147
vt 0.357837 0.056191
vt 0.357000 0.056191
vt 0.111498 0.401930
vt 0.111640 0.403968
vt 0.111498 0.403969
vt 0.417926 0.578710
vt 0.418068 0.579528
vt 0.417926 0.579528
vt 0.335035 0.401930
vt 0.335177 0.403950
vt 0.335035 0.403951
vt 0.144496 0.579547
vt 0.144354 0.578710
vt 0.144496 0.578710
vt 0.214606 0.392157
vt 0.214388 0.390112
vt 0.214606 0.390112
vt 0.155452 0.390112
vt 0.155670 0.392157
vt 0.155452 0.392157
vt 0.368021 0.299672
vt 0.368573 0.301708
vt 0.368021 0.301711
vt 0.610242 0.169831
vt 0.610454 0.169279
vt 0.610454 0.169832
vt 0.095758 0.377915
vt 0.096310 0.379932
vt 0.095758 0.379936
vt 0.528287 0.610761
vt 0.528504 0.610208
vt 0.528504 0.610761
vt 0.357837 0.219277
vt 0.357000 0.217233
vt 0.357837 0.217233
vt 0.357000 0.065796
vt 0.357837 0.067840
vt 0.357000 0.067840
vt 0.121245 0.401930
vt 0.121387 0.403968
vt 0.121245 0.403969
vt 0.427673 0.578710
vt 0.427816 0.579528
vt 0.427673 0.579528
vt 0.257058 0.401930
vt 0.257200 0.403950
vt 0.257058 0.403951
vt 0.154243 0.579547
vt 0.154101 0.578710
vt 0.154243 0.578710
vt 0.224429 0.392157
vt 0.224211 0.390112
vt 0.224429 0.390112
vt 0.096516 0.390112
vt 0.096734 0.392157
vt 0.096516 0.392157
vt 0.368021 0.311318
vt 0.368573 0.313355
vt 0.368021 0.313357
vt 0.610242 0.179989
vt 0.610454 0.179437
vt 0.610454 0.179990
vt 0.105915 0.377915
vt 0.106467 0.379932
vt 0.105915 0.379936
vt 0.538109 0.610761
vt 0.538327 0.610208
vt 0.538327 0.610761
vt 0.357837 0.230926
vt 0.357000 0.228882
vt 0.357837 0.228882
vt 0.357000 0.077445
vt 0.357837 0.079489
vt 0.357000 0.079489
vt 0.062763 0.401930
vt 0.062905 0.403968
vt 0.062763 0.403969
vt 0.437421 0.578710
vt 0.437563 0.579528
vt 0.437421 0.579528
vt 0.344782 0.401930
vt 0.344924 0.403950
vt 0.344782 0.403951
vt 0.163991 0.579547
vt 0.163848 0.578710
vt 0.163991 0.578710
vt 0.234251 0.392157
vt 0.234033 0.390112
vt 0.234251 0.390112
vt 0.106339 0.390112
vt 0.106556 0.392157
vt 0.106339 0.392157
vt 0.368021 0.322964
vt 0.368573 0.325001
vt 0.368021 0.325003
vt 0.610242 0.190147
vt 0.610454 0.189595
vt 0.610454 0.190148
vt 0.116072 0.377915
vt 0.116624 0.379932
vt 0.116072 0.379936
vt 0.547932 0.610761
vt 0.548150 0.610208
vt 0.548150 0.610761
vt 0.357837 0.242575
vt 0.357000 0.240531
vt 0.357837 0.240531
vt 0.357000 0.089094
vt 0.357837 0.091138
vt 0.357000 0.091138
vt 0.130992 0.401930
vt 0.131134 0.403968
vt 0.130992 0.403969
vt 0.447168 0.578710
vt 0.447310 0.579528
vt 0.447168 0.579528
vt 0.266805 0.401930
vt 0.266947 0.403950
vt 0.266805 0.403951
vt 0.173738 0.579547
vt 0.173596 0.578710
vt 0.173738 0.578710
vt 0.244074 0.392156
vt 0.243856 0.390112
vt 0.244074 0.390112
vt 0.116161 0.390112
vt 0.116379 0.392157
vt 0.116161 0.392157
vt 0.368021 0.334610
vt 0.368573 0.336647
vt 0.368021 0.336649
vt 0.610242 0.200306
vt 0.610454 0.199753
vt 0.610454 0.200306
vt 0.075444 0.377915
vt 0.075996 0.379932
vt 0.075444 0.379936
vt 0.557754 0.610761
vt 0.557972 0.610208
vt 0.557972 0.610761
vt 0.357837 0.254224
vt 0.357000 0.252179
vt 0.357837 0.252179
vt 0.357000 0.100743
vt 0.357837 0.102787
vt 0.357000 0.102787
vt 0.140739 0.401930
vt 0.140881 0.403968
vt 0.140739 0.403969
vt 0.456915 0.578710
vt 0.457058 0.579528
vt 0.456915 0.579528
vt 0.276552 0.401930
vt 0.276694 0.403950
vt 0.276552 0.403951
vt 0.183485 0.579547
vt 0.183343 0.578710
vt 0.183485 0.578710
vt 0.253897 0.392156
vt 0.253679 0.390112
vt 0.253897 0.390112
vt 0.165275 0.390112
vt 0.165492 0.392157
vt 0.165275 0.392157
vt 0.368021 0.346257
vt 0.368573 0.348293
vt 0.368021 0.348296
vt 0.610242 0.210464
vt 0.610454 0.209911
vt 0.610454 0.210464
vt 0.166857 0.377915
vt 0.167409 0.379932
vt 0.166857 0.379936
vt 0.567577 0.610761
vt 0.567795 0.610208
vt 0.567795 0.610761
vt 0.357837 0.265872
vt 0.357000 0.263828
vt 0.357837 0.263828
vt 0.357000 0.112392
vt 0.357837 0.114436
vt 0.357000 0.114436
vt 0.150486 0.401930
vt 0.150628 0.403968
vt 0.150486 0.403969
vt 0.466663 0.578710
vt 0.466805 0.579528
vt 0.466663 0.579528
vt 0.286299 0.401930
vt 0.286441 0.403950
vt 0.286299 0.403951
vt 0.193232 0.579547
vt 0.193090 0.578710
vt 0.193232 0.578710
vt 0.263719 0.392157
vt 0.263501 0.390112
vt 0.263719 0.390112
vt 0.175097 0.390112
vt 0.175315 0.392157
vt 0.175097 0.392157
vt 0.368021 0.357903
vt 0.368573 0.359940
vt 0.368021 0.359942
vt 0.610242 0.220622
vt 0.610454 0.220069
vt 0.610454 0.220622
vt 0.085601 0.377915
vt 0.086153 0.379932
vt 0.085601 0.379936
vt 0.577399 0.610761
vt 0.577617 0.610208
vt 0.577617 0.610761
vt 0.357837 0.277521
vt 0.357000 0.275477
vt 0.357837 0.275477
vt 0.357000 0.124041
vt 0.357837 0.126085
vt 0.357000 0.126085
vt 0.160233 0.401930
vt 0.160375 0.403968
vt 0.160233 0.403969
vt 0.476410 0.578710
vt 0.476552 0.579528
vt 0.476410 0.579528
vt 0.354529 0.401930
vt 0.354671 0.403950
vt 0.354529 0.403951
vt 0.202979 0.579547
vt 0.202837 0.578710
vt 0.202979 0.578710
vt 0.273542 0.392157
vt 0.273324 0.390112
vt 0.273542 0.390112
vt 0.184920 0.390112
vt 0.185138 0.392157
vt 0.184920 0.392157
vt 0.055587 0.377913
vt 0.056139 0.379950
vt 0.055587 0.379952
vt 0.610242 0.230780
vt 0.610454 0.230227
vt 0.610454 0.230780
vt 0.126229 0.377915
vt 0.126781 0.379932
vt 0.126229 0.379936
vt 0.587222 0.610761
vt 0.587440 0.610208
vt 0.587440 0.610761
vt 0.357837 0.289170
vt 0.357000 0.287126
vt 0.357837 0.287126
vt 0.357000 0.135690
vt 0.357837 0.137734
vt 0.357000 0.137734
vt 0.072510 0.401930
vt 0.072652 0.403968
vt 0.072510 0.403969
vt 0.486157 0.578710
vt 0.486299 0.579528
vt 0.486157 0.579528
vt 0.296046 0.401930
vt 0.296189 0.403950
vt 0.296046 0.403951
vt 0.212727 0.579547
vt 0.212584 0.578710
vt 0.212727 0.578710
vt 0.283365 0.392156
vt 0.283147 0.390112
vt 0.283365 0.390112
vt 0.125984 0.390112
vt 0.126202 0.392157
vt 0.125984 0.392157
vt 0.004802 0.377913
vt 0.005354 0.379950
vt 0.004802 0.379952
vt 0.610242 0.240938
vt 0.610454 0.240386
vt 0.610454 0.240938
vt 0.136386 0.377915
vt 0.136938 0.379932
vt 0.136386 0.379936
vt 0.597045 0.610761
vt 0.597262 0.610208
vt 0.597262 0.610761
vt 0.357837 0.300819
vt 0.357000 0.298775
vt 0.357837 0.298775
vt 0.357000 0.147339
vt 0.357837 0.149383
vt 0.357000 0.149383
vt 0.082257 0.401930
vt 0.082399 0.403968
vt 0.082257 0.403969
vt 0.495904 0.578710
vt 0.496047 0.579527
vt 0.495904 0.579528
vt 0.305793 0.401930
vt 0.305936 0.403950
vt 0.305793 0.403951
vt 0.222474 0.579547
vt 0.222332 0.578710
vt 0.222474 0.578710
vt 0.293187 0.392157
vt 0.292970 0.390112
vt 0.293187 0.390112
vt 0.135807 0.390112
vt 0.136024 0.392157
vt 0.135807 0.392157
vt 0.014959 0.377913
vt 0.015511 0.379950
vt 0.014959 0.379952
vt 0.610242 0.251096
vt 0.610454 0.250544
vt 0.610454 0.251097
vt 0.146543 0.377915
vt 0.147095 0.379932
vt 0.146543 0.379936
vt 0.610242 0.005355
vt 0.610460 0.004802
vt 0.610460 0.005355
vt 0.357837 0.312468
vt 0.357000 0.310424
vt 0.357837 0.310424
vt 0.357000 0.158988
vt 0.357837 0.161032
vt 0.357000 0.161032
vt 0.092004 0.401930
vt 0.092146 0.403968
vt 0.092004 0.403969
vt 0.505652 0.578710
vt 0.505794 0.579528
vt 0.505652 0.579528
vt 0.364276 0.401930
vt 0.364418 0.403950
vt 0.364276 0.403951
vt 0.232221 0.579547
vt 0.232079 0.578710
vt 0.232221 0.578710
vt 0.303010 0.392156
vt 0.302792 0.390112
vt 0.303010 0.390112
vt 0.194743 0.390112
vt 0.194961 0.392157
vt 0.194743 0.392157
vt 0.025116 0.377913
vt 0.025668 0.379950
vt 0.025116 0.379952
vt 0.610242 0.261254
vt 0.610454 0.260702
vt 0.610454 0.261255
vt 0.156700 0.377915
vt 0.157252 0.379932
vt 0.156700 0.379936
vt 0.610242 0.015513
vt 0.610460 0.014960
vt 0.610460 0.015513
vt 0.357837 0.324117
vt 0.357000 0.322073
vt 0.357837 0.322073
vt 0.357000 0.170637
vt 0.357837 0.172681
vt 0.357000 0.172681
vt 0.101751 0.401930
vt 0.101893 0.403968
vt 0.101751 0.403969
vt 0.525146 0.578710
vt 0.525289 0.579528
vt 0.525146 0.579528
vt 0.315540 0.401930
vt 0.315683 0.403950
vt 0.315540 0.403951
vt 0.241968 0.579547
vt 0.241826 0.578710
vt 0.241968 0.578710
vt 0.312833 0.392156
vt 0.312615 0.390112
vt 0.312833 0.390112
vt 0.204565 0.390112
vt 0.204783 0.392157
vt 0.204565 0.392157
vt 0.035273 0.377913
vt 0.035825 0.379950
vt 0.035273 0.379952
vt 0.610242 0.271412
vt 0.610454 0.270860
vt 0.610454 0.271413
vt 0.177014 0.377915
vt 0.177566 0.379932
vt 0.177014 0.379936
vt 0.610242 0.025671
vt 0.610460 0.025118
vt 0.610460 0.025671
vt 0.357837 0.195979
vt 0.357000 0.193935
vt 0.357837 0.193935
vt 0.357000 0.182286
vt 0.357837 0.184330
vt 0.357000 0.184330
vt 0.169980 0.401930
vt 0.170122 0.403968
vt 0.169980 0.403969
vt 0.515399 0.578710
vt 0.515541 0.579528
vt 0.515399 0.579528
vt 0.325288 0.401930
vt 0.325430 0.403950
vt 0.325288 0.403951
vt 0.251716 0.579547
vt 0.251573 0.578710
vt 0.251716 0.578710
vt 0.322655 0.392156
vt 0.322438 0.390112
vt 0.322655 0.390112
vt 0.145629 0.390112
vt 0.145847 0.392157
vt 0.145629 0.392157
vt 0.045430 0.377913
vt 0.045982 0.379950
vt 0.045430 0.379952
vt 0.610242 0.281571
vt 0.610454 0.281018
vt 0.610454 0.281571
vt 0.187171 0.377915
vt 0.187723 0.379932
vt 0.187171 0.379936
vt 0.610242 0.035829
vt 0.610460 0.035276
vt 0.610460 0.035828
vt 0.053115 0.162718
vt 0.053081 0.144455
vt 0.053115 0.144455
vt 0.043443 0.144455
vt 0.043476 0.162718
vt 0.043443 0.162718
vt 0.014461 0.144455
vt 0.014528 0.162674
vt 0.014461 0.162674
vt 0.922782 0.914192
vt 0.922814 0.914125
vt 0.922814 0.914192
vt 0.130157 0.144456
vt 0.130224 0.162514
vt 0.130157 0.162514
vt 0.922782 0.653085
vt 0.922815 0.653018
vt 0.922815 0.653085
vt 0.062753 0.162718
vt 0.062720 0.144455
vt 0.062753 0.144455
vt 0.033804 0.144455
vt 0.033838 0.162718
vt 0.033804 0.162718
vt 0.024133 0.144455
vt 0.024200 0.162674
vt 0.024133 0.162674
vt 0.004802 0.927665
vt 0.004835 0.927598
vt 0.004835 0.927665
vt 0.145093 0.004803
vt 0.145160 0.022861
vt 0.145093 0.022861
vt 0.922782 0.662757
vt 0.922815 0.662690
vt 0.922815 0.662757
vt 0.113950 0.116587
vt 0.113883 0.134850
vt 0.113883 0.116587
vt 0.104278 0.116587
vt 0.104211 0.134850
vt 0.104211 0.116587
vt 0.200045 0.135459
vt 0.200614 0.135524
vt 0.200045 0.135524
vt 0.004802 0.116592
vt 0.005371 0.134646
vt 0.004802 0.134650
vt 0.228346 0.365404
vt 0.227777 0.365337
vt 0.228346 0.365337
vt 0.112948 0.053537
vt 0.113517 0.071753
vt 0.112948 0.071755
vt 0.125766 0.023065
vt 0.125699 0.004802
vt 0.125766 0.004802
vt 0.094606 0.134850
vt 0.094539 0.116587
vt 0.094606 0.116587
vt 0.200614 0.144352
vt 0.200045 0.144418
vt 0.200045 0.144353
vt 0.113517 0.081360
vt 0.112948 0.099581
vt 0.112948 0.081363
vt 0.247139 0.161970
vt 0.247708 0.161904
vt 0.247708 0.161971
vt 0.015545 0.116587
vt 0.014976 0.134650
vt 0.014976 0.116592
vt 0.126019 0.218005
vt 0.125952 0.227053
vt 0.125952 0.218005
vt 0.116347 0.218005
vt 0.116280 0.227053
vt 0.116280 0.218005
vt 0.381388 0.651992
vt 0.381455 0.651424
vt 0.381455 0.651992
vt 0.410403 0.651992
vt 0.410469 0.651424
vt 0.410469 0.651993
vt 0.200614 0.125853
vt 0.200045 0.116811
vt 0.200614 0.116812
vt 0.243130 0.254908
vt 0.243063 0.260588
vt 0.243063 0.254908
vt 0.233458 0.254908
vt 0.233391 0.260588
vt 0.233391 0.254908
vt 0.391060 0.651992
vt 0.391127 0.651424
vt 0.391127 0.651992
vt 0.247139 0.187601
vt 0.247709 0.193142
vt 0.247139 0.193143
vt 0.429745 0.651992
vt 0.429812 0.651424
vt 0.429812 0.651993
vt 0.247139 0.156227
vt 0.247708 0.156227
vt 0.400596 0.378289
vt 0.400529 0.380450
vt 0.400529 0.378289
vt 0.400596 0.366522
vt 0.400529 0.368684
vt 0.400529 0.366522
vt 0.400731 0.651992
vt 0.400798 0.651424
vt 0.400798 0.651992
vt 0.368021 0.184301
vt 0.368590 0.186409
vt 0.368021 0.186410
vt 0.420074 0.651992
vt 0.420141 0.651424
vt 0.420141 0.651993
vt 0.228346 0.367564
vt 0.227777 0.365404
vt 0.090593 0.034044
vt 0.084857 0.043678
vt 0.084735 0.034044
vt 0.090470 0.053685
vt 0.084735 0.062917
vt 0.084857 0.053685
vt 0.090470 0.053283
vt 0.084857 0.053283
vt 0.200045 0.173249
vt 0.200262 0.182357
vt 0.200045 0.182757
vt 0.053637 0.260762
vt 0.053419 0.254908
vt 0.053637 0.254909
vt 0.200045 0.163642
vt 0.200262 0.154423
vt 0.200262 0.163641
vt 0.368061 0.074963
vt 0.368154 0.075829
vt 0.368021 0.074962
vt 0.368061 0.087165
vt 0.368154 0.088032
vt 0.368021 0.087165
vt 0.282942 0.083673
vt 0.282819 0.084528
vt 0.282826 0.083674
vt 0.620219 0.503867
vt 0.620258 0.503751
vt 0.620258 0.503867
vt 0.282942 0.180061
vt 0.282819 0.180897
vt 0.282826 0.180062
vt 0.349934 0.436785
vt 0.349973 0.436901
vt 0.349934 0.436901
vt 0.368061 0.135974
vt 0.368154 0.136841
vt 0.368021 0.135974
vt 0.282703 0.084528
vt 0.282711 0.083675
vt 0.620219 0.503983
vt 0.620258 0.503983
vt 0.282703 0.180898
vt 0.282710 0.180063
vt 0.349973 0.437017
vt 0.349934 0.437017
vt 0.368061 0.099367
vt 0.368154 0.100234
vt 0.368021 0.099367
vt 0.282587 0.084529
vt 0.282595 0.083675
vt 0.620219 0.504099
vt 0.620258 0.504099
vt 0.282587 0.180898
vt 0.282594 0.180064
vt 0.349973 0.437133
vt 0.349934 0.437133
vt 0.268114 0.590120
vt 0.268074 0.589250
vt 0.268114 0.589243
vt 0.282471 0.084529
vt 0.282479 0.083676
vt 0.620219 0.504215
vt 0.620258 0.504215
vt 0.282471 0.180899
vt 0.282478 0.180064
vt 0.349973 0.437249
vt 0.349934 0.437249
vt 0.316337 0.590120
vt 0.316297 0.589250
vt 0.316337 0.589243
vt 0.282355 0.084530
vt 0.282363 0.083676
vt 0.620219 0.504331
vt 0.620258 0.504331
vt 0.282356 0.180900
vt 0.282363 0.180065
vt 0.349973 0.437365
vt 0.349934 0.437365
vt 0.368061 0.111570
vt 0.368154 0.112436
vt 0.368021 0.111569
vt 0.282240 0.084530
vt 0.282247 0.083677
vt 0.620219 0.504447
vt 0.620258 0.504447
vt 0.282240 0.180901
vt 0.282247 0.180066
vt 0.349973 0.437481
vt 0.349934 0.437481
vt 0.368061 0.123772
vt 0.368154 0.124639
vt 0.368021 0.123772
vt 0.282124 0.084531
vt 0.282132 0.083677
vt 0.884080 0.189814
vt 0.884121 0.189930
vt 0.884080 0.189930
vt 0.282124 0.180902
vt 0.282131 0.180067
vt 0.349973 0.437597
vt 0.349934 0.437597
vt 0.046059 0.390112
vt 0.045037 0.391285
vt 0.045037 0.390112
vt 0.035432 0.390112
vt 0.034410 0.391285
vt 0.034410 0.390112
vt 0.393311 0.567950
vt 0.393411 0.568969
vt 0.393311 0.568970
vt 0.170608 0.557075
vt 0.170708 0.558219
vt 0.170608 0.558219
vt 0.412823 0.567951
vt 0.412924 0.568960
vt 0.412823 0.568961
vt 0.014850 0.558247
vt 0.014749 0.557075
vt 0.014850 0.557075
vt 0.342321 0.413714
vt 0.341383 0.414669
vt 0.341383 0.413714
vt 0.331778 0.413714
vt 0.330839 0.414669
vt 0.330839 0.413714
vt 0.580113 0.483237
vt 0.580118 0.484173
vt 0.580113 0.484173
vt 0.053554 0.589243
vt 0.053559 0.590175
vt 0.053554 0.590175
vt 0.151287 0.589243
vt 0.151292 0.590171
vt 0.151287 0.590171
vt 0.580118 0.077544
vt 0.580113 0.076590
vt 0.580118 0.076590
vt 0.233309 0.414987
vt 0.232639 0.413714
vt 0.233309 0.413714
vt 0.222364 0.413714
vt 0.223034 0.414987
vt 0.222364 0.414987
vt 0.452971 0.425615
vt 0.453037 0.426885
vt 0.452971 0.426885
vt 0.093013 0.620616
vt 0.093080 0.621270
vt 0.093013 0.621270
vt 0.094592 0.459025
vt 0.094659 0.460284
vt 0.094592 0.460284
vt 0.620286 0.300504
vt 0.620219 0.299834
vt 0.620286 0.299834
vt 0.205829 0.243870
vt 0.210946 0.437801
vt 0.085179 0.024439
vt 0.084747 0.011489
vt 0.084827 0.004802
vt 0.069833 0.083934
vt 0.069857 0.100296
vt 0.100551 0.024411
vt 0.100232 0.009302
vt 0.100287 0.004802
vt 0.085203 0.076345
vt 0.085182 0.090046
vt 0.357000 0.207628
vt 0.357837 0.054147
vt 0.111640 0.401929
vt 0.418068 0.578710
vt 0.335177 0.401929
vt 0.144354 0.579547
vt 0.214388 0.392157
vt 0.155670 0.390112
vt 0.368573 0.299669
vt 0.610242 0.169278
vt 0.096310 0.377910
vt 0.528287 0.610208
vt 0.357000 0.219277
vt 0.357837 0.065796
vt 0.121387 0.401929
vt 0.427816 0.578710
vt 0.257200 0.401929
vt 0.154101 0.579547
vt 0.224211 0.392157
vt 0.096734 0.390112
vt 0.368573 0.311316
vt 0.610242 0.179436
vt 0.106467 0.377910
vt 0.538109 0.610208
vt 0.357000 0.230926
vt 0.357837 0.077445
vt 0.062905 0.401929
vt 0.437563 0.578710
vt 0.344924 0.401929
vt 0.163848 0.579547
vt 0.234033 0.392157
vt 0.106556 0.390112
vt 0.368573 0.322962
vt 0.610242 0.189595
vt 0.116624 0.377910
vt 0.547932 0.610208
vt 0.357000 0.242575
vt 0.357837 0.089094
vt 0.131134 0.401929
vt 0.447310 0.578710
vt 0.266947 0.401929
vt 0.173596 0.579547
vt 0.243856 0.392156
vt 0.116379 0.390112
vt 0.368573 0.334608
vt 0.610242 0.199753
vt 0.075996 0.377910
vt 0.557754 0.610208
vt 0.357000 0.254224
vt 0.357837 0.100743
vt 0.140881 0.401929
vt 0.457058 0.578710
vt 0.276694 0.401929
vt 0.183343 0.579547
vt 0.253679 0.392156
vt 0.165492 0.390112
vt 0.368573 0.346254
vt 0.610242 0.209911
vt 0.167409 0.377910
vt 0.567577 0.610208
vt 0.357000 0.265872
vt 0.357837 0.112392
vt 0.150628 0.401929
vt 0.466805 0.578710
vt 0.286441 0.401929
vt 0.193090 0.579547
vt 0.263501 0.392157
vt 0.175315 0.390112
vt 0.368573 0.357901
vt 0.610242 0.220069
vt 0.086153 0.377910
vt 0.577399 0.610208
vt 0.357000 0.277521
vt 0.357837 0.124041
vt 0.160375 0.401929
vt 0.476552 0.578710
vt 0.354671 0.401929
vt 0.202837 0.579547
vt 0.273324 0.392157
vt 0.185138 0.390112
vt 0.056139 0.377910
vt 0.610242 0.230227
vt 0.126781 0.377910
vt 0.587222 0.610208
vt 0.357000 0.289170
vt 0.357837 0.135690
vt 0.072652 0.401929
vt 0.486299 0.578710
vt 0.296189 0.401929
vt 0.212584 0.579547
vt 0.283147 0.392156
vt 0.126202 0.390112
vt 0.005354 0.377910
vt 0.610242 0.240385
vt 0.136938 0.377910
vt 0.597045 0.610208
vt 0.357000 0.300819
vt 0.357837 0.147339
vt 0.082399 0.401929
vt 0.496047 0.578710
vt 0.305936 0.401929
vt 0.222332 0.579547
vt 0.292970 0.392157
vt 0.136024 0.390112
vt 0.015511 0.377910
vt 0.610242 0.250543
vt 0.147095 0.377910
vt 0.610242 0.004803
vt 0.357000 0.312468
vt 0.357837 0.158988
vt 0.092146 0.401929
vt 0.505794 0.578710
vt 0.364418 0.401929
vt 0.232079 0.579547
vt 0.302792 0.392156
vt 0.194961 0.390112
vt 0.025668 0.377910
vt 0.610242 0.260701
vt 0.157252 0.377910
vt 0.610242 0.014960
vt 0.357000 0.324117
vt 0.357837 0.170637
vt 0.101893 0.401929
vt 0.525289 0.578710
vt 0.315683 0.401929
vt 0.241826 0.579547
vt 0.312615 0.392156
vt 0.204783 0.390112
vt 0.035825 0.377910
vt 0.610242 0.270860
vt 0.177566 0.377910
vt 0.610242 0.025118
vt 0.357000 0.195979
vt 0.357837 0.182286
vt 0.170122 0.401929
vt 0.515541 0.578710
vt 0.325430 0.401929
vt 0.251573 0.579547
vt 0.322438 0.392156
vt 0.145847 0.390112
vt 0.045982 0.377910
vt 0.610242 0.281018
vt 0.187723 0.377910
vt 0.610242 0.035276
vt 0.053081 0.162718
vt 0.043476 0.144455
vt 0.014528 0.144455
vt 0.922782 0.914125
vt 0.130224 0.144455
vt 0.922782 0.653018
vt 0.062720 0.162718
vt 0.033838 0.144455
vt 0.024200 0.144455
vt 0.004802 0.927598
vt 0.145160 0.004802
vt 0.922782 0.662690
vt 0.113950 0.134850
vt 0.104278 0.134850
vt 0.200614 0.135458
vt 0.005371 0.116587
vt 0.113517 0.053534
vt 0.125699 0.023065
vt 0.094539 0.134850
vt 0.200614 0.144417
vt 0.113517 0.099579
vt 0.247139 0.161903
vt 0.015545 0.134646
vt 0.126019 0.227053
vt 0.116347 0.227053
vt 0.381388 0.651423
vt 0.410403 0.651423
vt 0.200045 0.125853
vt 0.243130 0.260588
vt 0.233458 0.260588
vt 0.391060 0.651423
vt 0.247709 0.187600
vt 0.429745 0.651423
vt 0.400596 0.380450
vt 0.400596 0.368684
vt 0.400731 0.651423
vt 0.368590 0.184300
vt 0.420074 0.651423
vt 0.227777 0.367564
vt 0.090470 0.043678
vt 0.090593 0.062917
vt 0.200262 0.173247
vt 0.053419 0.260762
vt 0.200045 0.154023
vt 0.368194 0.075830
vt 0.368194 0.088032
vt 0.282934 0.084527
vt 0.620219 0.503751
vt 0.282935 0.180896
vt 0.349973 0.436785
vt 0.368194 0.136841
vt 0.368194 0.100234
vt 0.268074 0.590127
vt 0.316297 0.590127
vt 0.368194 0.112437
vt 0.368194 0.124639
vt 0.884121 0.189814
vt 0.046059 0.391285
vt 0.035432 0.391285
vt 0.393411 0.567950
vt 0.170708 0.557075
vt 0.412924 0.567950
vt 0.014749 0.558247
vt 0.342321 0.414669
vt 0.331778 0.414669
vt 0.580118 0.483237
vt 0.053559 0.589243
vt 0.151292 0.589243
vt 0.580113 0.077544
vt 0.232639 0.414987
vt 0.223034 0.413714
vt 0.453037 0.425615
vt 0.093080 0.620616
vt 0.094659 0.459025
vt 0.620219 0.300503
vn -1.0000 -0.0000 -0.0000
vn 0.1410 -0.4910 -0.8597
vn 0.1326 -0.4670 -0.8743
vn 0.1320 -0.4655 -0.8751
vn 0.1158 -0.4441 -0.8885
vn 0.1147 -0.4409 -0.8902
vn 0.1026 -0.4222 -0.9007
vn 0.1001 -0.4169 -0.9034
vn 0.0935 -0.4014 -0.9111
vn 0.0889 -0.3946 -0.9145
vn 0.0841 -0.3825 -0.9201
vn 0.0774 -0.3749 -0.9238
vn 0.0658 -0.3616 -0.9300
vn 0.0578 -0.3625 -0.9302
vn 0.0478 -0.3513 -0.9350
vn 0.0560 -0.3439 -0.9373
vn 0.0372 -0.3383 -0.9403
vn 0.0449 -0.3316 -0.9424
vn 0.0283 -0.3267 -0.9447
vn 0.0354 -0.3206 -0.9466
vn 0.0212 -0.3160 -0.9485
vn 0.0277 -0.3103 -0.9502
vn 0.0158 -0.3058 -0.9520
vn 0.0221 -0.3004 -0.9536
vn 0.0093 -0.2959 -0.9552
vn 0.0149 -0.2908 -0.9567
vn 0.0007 -0.2869 -0.9580
vn 0.0055 -0.2825 -0.9592
vn -0.0071 -0.2791 -0.9602
vn -0.0030 -0.2753 -0.9614
vn -0.0137 -0.2722 -0.9621
vn -0.0101 -0.2688 -0.9631
vn -0.0190 -0.2660 -0.9638
vn -0.0156 -0.2629 -0.9647
vn -0.0231 -0.2601 -0.9653
vn -0.0198 -0.2570 -0.9662
vn -0.0283 -0.2542 -0.9667
vn -0.0250 -0.2511 -0.9676
vn -0.0349 -0.2483 -0.9680
vn -0.0319 -0.2455 -0.9689
vn -0.0404 -0.2428 -0.9692
vn -0.0376 -0.2402 -0.9700
vn -0.0439 -0.2377 -0.9703
vn -0.0413 -0.2352 -0.9711
vn -0.0453 -0.2330 -0.9714
vn -0.0429 -0.2307 -0.9721
vn -0.0446 -0.2286 -0.9725
vn -0.0425 -0.2266 -0.9731
vn -0.0440 -0.2247 -0.9734
vn -0.0421 -0.2229 -0.9739
vn -0.0447 -0.2213 -0.9742
vn -0.0431 -0.2199 -0.9746
vn -0.0450 -0.2180 -0.9749
vn -0.0452 -0.2161 -0.9753
vn -0.0463 -0.2150 -0.9755
vn -0.0455 -0.2140 -0.9758
vn -0.0465 -0.2129 -0.9760
vn -0.0456 -0.2118 -0.9762
vn -0.0467 -0.2107 -0.9764
vn -0.0470 -0.2096 -0.9767
vn -0.0482 -0.2084 -0.9769
vn -0.0490 -0.2071 -0.9771
vn -0.0502 -0.2059 -0.9773
vn -0.0492 -0.2047 -0.9776
vn -0.0503 -0.2035 -0.9778
vn -0.0471 -0.2024 -0.9782
vn -0.0481 -0.2014 -0.9783
vn -0.0427 -0.2004 -0.9788
vn -0.0436 -0.1995 -0.9789
vn -0.0484 -0.1987 -0.9789
vn -0.0492 -0.1979 -0.9790
vn -0.0528 -0.1971 -0.9790
vn -0.0533 -0.1966 -0.9790
vn -0.0401 -0.1965 -0.9797
vn -0.0402 -0.1964 -0.9797
vn -0.0318 -0.1964 -0.9800
vn 0.1410 -0.4910 0.8597
vn 0.1326 -0.4670 0.8743
vn 0.1410 -0.4919 0.8591
vn 0.1320 -0.4655 0.8751
vn 0.1158 -0.4441 0.8885
vn 0.1147 -0.4409 0.8902
vn 0.1026 -0.4222 0.9007
vn 0.1001 -0.4169 0.9034
vn 0.0935 -0.4014 0.9111
vn 0.0889 -0.3946 0.9145
vn 0.0841 -0.3825 0.9201
vn 0.0774 -0.3749 0.9238
vn 0.0658 -0.3616 0.9300
vn 0.0478 -0.3513 0.9350
vn 0.0560 -0.3439 0.9373
vn 0.0372 -0.3383 0.9403
vn 0.0449 -0.3316 0.9424
vn 0.0283 -0.3267 0.9447
vn 0.0354 -0.3206 0.9466
vn 0.0212 -0.3160 0.9485
vn 0.0277 -0.3103 0.9502
vn 0.0158 -0.3058 0.9520
vn 0.0221 -0.3004 0.9536
vn 0.0093 -0.2959 0.9552
vn 0.0149 -0.2908 0.9567
vn 0.0007 -0.2869 0.9580
vn 0.0055 -0.2825 0.9592
vn -0.0071 -0.2791 0.9602
vn -0.0030 -0.2753 0.9614
vn -0.0137 -0.2722 0.9621
vn -0.0101 -0.2688 0.9631
vn -0.0190 -0.2660 0.9638
vn -0.0156 -0.2629 0.9647
vn -0.0231 -0.2601 0.9653
vn -0.0198 -0.2570 0.9662
vn -0.0283 -0.2542 0.9667
vn -0.0250 -0.2511 0.9676
vn -0.0349 -0.2483 0.9680
vn -0.0319 -0.2455 0.9689
vn -0.0404 -0.2428 0.9692
vn -0.0376 -0.2402 0.9700
vn -0.0439 -0.2377 0.9703
vn -0.0413 -0.2352 0.9711
vn -0.0453 -0.2330 0.9714
vn -0.0429 -0.2307 0.9721
vn -0.0446 -0.2286 0.9725
vn -0.0425 -0.2266 0.9731
vn -0.0440 -0.2247 0.9734
vn -0.0421 -0.2229 0.9739
vn -0.0447 -0.2213 0.9742
vn -0.0431 -0.2199 0.9746
vn -0.0450 -0.2180 0.9749
vn -0.0437 -0.2179 0.9750
vn -0.0452 -0.2161 0.9753
vn -0.0463 -0.2150 0.9755
vn -0.0455 -0.2140 0.9758
vn -0.0465 -0.2129 0.9760
vn -0.0456 -0.2118 0.9762
vn -0.0467 -0.2107 0.9764
vn -0.0470 -0.2096 0.9767
vn -0.0482 -0.2084 0.9769
vn -0.0490 -0.2071 0.9771
vn -0.0502 -0.2059 0.9773
vn -0.0492 -0.2047 0.9776
vn -0.0503 -0.2035 0.9778
vn -0.0471 -0.2024 0.9782
vn -0.0481 -0.2014 0.9783
vn -0.0427 -0.2004 0.9788
vn -0.0436 -0.1995 0.9789
vn -0.0484 -0.1987 0.9789
vn -0.0492 -0.1979 0.9790
vn -0.0528 -0.1971 0.9790
vn -0.0533 -0.1966 0.9790
vn -0.0401 -0.1965 0.9797
vn -0.0318 -0.1964 0.9800
vn -0.0317 -0.1964 0.9800
vn 0.1760 -0.5327 -0.8278
vn 0.1672 -0.5163 -0.8400
vn 0.1663 -0.5155 -0.8406
vn 0.1488 -0.4990 -0.8538
vn 0.1479 -0.4972 -0.8550
vn 0.1333 -0.4820 -0.8660
vn 0.1321 -0.4790 -0.8678
vn 0.1212 -0.4658 -0.8766
vn 0.1192 -0.4617 -0.8790
vn 0.1084 -0.4509 -0.8860
vn 0.1053 -0.4463 -0.8887
vn 0.0913 -0.4380 -0.8943
vn 0.0876 -0.4333 -0.8970
vn 0.0740 -0.4268 -0.9013
vn 0.0701 -0.4224 -0.9037
vn 0.0576 -0.4150 -0.9080
vn 0.0540 -0.4150 -0.9082
vn 0.0455 -0.4082 -0.9118
vn 0.0488 -0.4044 -0.9133
vn 0.0373 -0.4001 -0.9157
vn 0.0403 -0.3966 -0.9171
vn 0.0314 -0.3923 -0.9193
vn 0.0343 -0.3889 -0.9206
vn 0.0239 -0.3846 -0.9228
vn 0.0264 -0.3814 -0.9240
vn 0.0136 -0.3777 -0.9258
vn 0.0158 -0.3749 -0.9269
vn 0.0044 -0.3716 -0.9284
vn 0.0062 -0.3693 -0.9293
vn -0.0032 -0.3663 -0.9305
vn -0.0016 -0.3643 -0.9313
vn -0.0092 -0.3616 -0.9323
vn -0.0078 -0.3597 -0.9330
vn -0.0137 -0.3572 -0.9339
vn -0.0123 -0.3553 -0.9347
vn -0.0192 -0.3528 -0.9355
vn -0.0179 -0.3511 -0.9362
vn -0.0264 -0.3486 -0.9369
vn -0.0252 -0.3470 -0.9375
vn -0.0326 -0.3448 -0.9381
vn -0.0316 -0.3434 -0.9387
vn -0.0368 -0.3414 -0.9392
vn -0.0359 -0.3402 -0.9397
vn -0.0389 -0.3385 -0.9402
vn -0.0381 -0.3374 -0.9406
vn -0.0391 -0.3360 -0.9411
vn -0.0384 -0.3351 -0.9414
vn -0.0394 -0.3339 -0.9418
vn -0.0389 -0.3332 -0.9420
vn -0.0411 -0.3324 -0.9422
vn -0.0408 -0.3320 -0.9424
vn -0.0429 -0.3315 -0.9425
vn -0.0427 -0.3313 -0.9426
vn -0.0440 -0.3311 -0.9426
vn -0.0440 -0.3310 -0.9426
vn -0.0446 -0.3310 -0.9426
vn -0.0448 -0.3310 -0.9426
vn -0.0464 -0.3310 -0.9425
vn -0.0487 -0.3310 -0.9424
vn -0.0486 -0.3311 -0.9423
vn -0.0491 -0.3313 -0.9423
vn -0.0490 -0.3314 -0.9422
vn -0.0473 -0.3318 -0.9422
vn -0.0471 -0.3320 -0.9421
vn -0.0429 -0.3328 -0.9420
vn -0.0426 -0.3327 -0.9421
vn -0.0486 -0.3335 -0.9415
vn -0.0492 -0.3342 -0.9412
vn -0.0533 -0.3359 -0.9404
vn -0.0543 -0.3373 -0.9398
vn -0.0411 -0.3400 -0.9395
vn -0.0421 -0.3415 -0.9390
vn -0.0333 -0.3429 -0.9388
vn 0.1760 -0.5327 0.8278
vn 0.1672 -0.5163 0.8400
vn 0.1760 -0.5331 0.8275
vn 0.1663 -0.5155 0.8406
vn 0.1488 -0.4990 0.8538
vn 0.1479 -0.4972 0.8550
vn 0.1333 -0.4820 0.8660
vn 0.1321 -0.4790 0.8678
vn 0.1212 -0.4658 0.8766
vn 0.1192 -0.4617 0.8790
vn 0.1084 -0.4509 0.8860
vn 0.1053 -0.4463 0.8887
vn 0.0913 -0.4380 0.8943
vn 0.0876 -0.4333 0.8970
vn 0.0740 -0.4268 0.9013
vn 0.0701 -0.4224 0.9037
vn 0.0576 -0.4150 0.9080
vn 0.0455 -0.4082 0.9118
vn 0.0488 -0.4044 0.9133
vn 0.0373 -0.4001 0.9157
vn 0.0403 -0.3966 0.9171
vn 0.0314 -0.3923 0.9193
vn 0.0343 -0.3889 0.9206
vn 0.0239 -0.3846 0.9228
vn 0.0264 -0.3814 0.9240
vn 0.0136 -0.3777 0.9258
vn 0.0158 -0.3749 0.9269
vn 0.0044 -0.3716 0.9284
vn 0.0062 -0.3693 0.9293
vn -0.0032 -0.3663 0.9305
vn -0.0016 -0.3643 0.9313
vn -0.0092 -0.3616 0.9323
vn -0.0078 -0.3597 0.9330
vn -0.0137 -0.3572 0.9339
vn -0.0123 -0.3553 0.9347
vn -0.0192 -0.3528 0.9355
vn -0.0179 -0.3511 0.9362
vn -0.0264 -0.3486 0.9369
vn -0.0252 -0.3470 0.9375
vn -0.0326 -0.3448 0.9381
vn -0.0316 -0.3434 0.9387
vn -0.0368 -0.3414 0.9392
vn -0.0359 -0.3402 0.9397
vn -0.0389 -0.3385 0.9402
vn -0.0381 -0.3374 0.9406
vn -0.0391 -0.3360 0.9411
vn -0.0384 -0.3351 0.9414
vn -0.0394 -0.3339 0.9418
vn -0.0389 -0.3332 0.9420
vn -0.0411 -0.3324 0.9422
vn -0.0408 -0.3320 0.9424
vn -0.0429 -0.3315 0.9425
vn -0.0427 -0.3313 0.9426
vn -0.0440 -0.3311 0.9426
vn -0.0440 -0.3310 0.9426
vn -0.0446 -0.3310 0.9426
vn -0.0448 -0.3310 0.9426
vn -0.0464 -0.3310 0.9425
vn -0.0487 -0.3310 0.9424
vn -0.0486 -0.3311 0.9423
vn -0.0491 -0.3313 0.9423
vn -0.0490 -0.3314 0.9422
vn -0.0473 -0.3318 0.9422
vn -0.0471 -0.3320 0.9421
vn -0.0429 -0.3328 0.9420
vn -0.0486 -0.3335 0.9415
vn -0.0492 -0.3342 0.9412
vn -0.0533 -0.3359 0.9404
vn -0.0543 -0.3373 0.9398
vn -0.0411 -0.3400 0.9395
vn -0.0421 -0.3415 0.9390
vn -0.0333 -0.3429 0.9388
vn -0.0342 -0.3442 0.9383
vn -0.0000 -1.0000 -0.0000
vn -0.0000 1.0000 -0.0000
vn -0.0000 -0.0000 1.0000
vn 1.0000 -0.0000 -0.0000
vn -0.0000 -0.0000 -1.0000
vn 0.2446 0.9696 -0.0000
vn 0.4763 0.8793 -0.0000
vn 0.0132 0.0004 -0.9999
vn 0.0127 0.0232 -0.9996
vn 0.0127 0.0234 -0.9996
vn 0.0132 0.0004 0.9999
vn 0.0127 0.0232 0.9996
vn 0.0132 -0.0000 0.9999
vn -0.1607 -0.0000 0.9870
vn 0.1607 -0.0000 -0.9870
vn 0.1410 -0.4919 -0.8591
vn -0.0437 -0.2179 -0.9750
vn -0.0317 -0.1964 -0.9800
vn 0.0578 -0.3625 0.9302
vn -0.0402 -0.1964 0.9797
vn 0.1760 -0.5331 -0.8275
vn -0.0342 -0.3442 -0.9383
vn 0.0540 -0.4150 0.9082
vn -0.0426 -0.3327 0.9421
vn 0.0132 -0.0000 -0.9999
vn 0.0127 0.0234 0.9996
f 1/1/1 2/2/1 3/3/1
f 4/4/1 5/5/1 6/6/1
f 7/7/2 8/8/3 9/9/4
f 9/9/4 10/10/5 11/11/6
f 11/11/6 12/12/7 13/13/8
f 13/13/8 14/14/9 15/15/10
f 15/15/10 16/16/11 17/17/12
f 17/17/12 18/18/13 19/19/14
f 18/18/13 20/20/15 19/19/14
f 21/21/16 22/22/17 20/20/15
f 23/23/18 24/24/19 22/22/17
f 25/25/20 26/26/21 24/24/19
f 27/27/22 28/28/23 26/26/21
f 29/29/24 30/30/25 28/28/23
f 31/31/26 32/32/27 30/30/25
f 33/33/28 34/34/29 32/32/27
f 35/35/30 36/36/31 34/34/29
f 37/37/32 38/38/33 36/36/31
f 39/39/34 40/40/35 38/38/33
f 41/41/36 42/42/37 40/40/35
f 43/43/38 44/44/39 42/42/37
f 45/45/40 46/46/41 44/44/39
f 47/47/42 48/48/43 46/46/41
f 49/49/44 50/50/45 48/48/43
f 51/51/46 52/52/47 50/50/45
f 53/53/48 54/54/49 52/52/47
f 55/55/50 56/56/51 54/54/49
f 57/57/52 58/58/53 56/56/51
f 58/58/53 59/59/54 60/60/55
f 60/60/55 61/61/56 62/62/57
f 62/62/57 63/63/58 64/64/59
f 64/64/59 65/65/60 66/66/61
f 66/66/61 67/67/62 68/68/63
f 68/68/63 69/69/64 70/70/65
f 70/70/65 71/71/66 72/72/67
f 72/72/67 73/73/68 74/74/69
f 74/74/69 75/75/70 76/76/71
f 76/76/71 77/77/72 78/78/73
f 78/78/73 79/79/74 80/80/75
f 79/79/74 81/81/76 80/80/75
f 82/82/77 83/83/78 84/84/79
f 85/85/80 86/86/81 83/83/78
f 87/87/82 88/88/83 86/86/81
f 89/89/84 90/90/85 88/88/83
f 91/91/86 92/92/87 90/90/85
f 93/93/88 94/94/89 92/92/87
f 94/94/89 95/95/90 96/96/91
f 96/96/91 97/97/92 98/98/93
f 98/98/93 99/99/94 100/100/95
f 100/100/95 101/101/96 102/102/97
f 102/102/97 103/103/98 104/104/99
f 104/104/99 105/105/100 106/106/101
f 106/106/101 107/107/102 108/108/103
f 108/108/103 109/109/104 110/110/105
f 110/110/105 111/111/106 112/112/107
f 112/112/107 113/113/108 114/114/109
f 114/114/109 115/115/110 116/116/111
f 116/116/111 117/117/112 118/118/113
f 118/118/113 119/119/114 120/120/115
f 120/120/115 121/121/116 122/122/117
f 122/122/117 123/123/118 124/124/119
f 124/124/119 125/125/120 126/126/121
f 126/126/121 127/127/122 128/128/123
f 128/128/123 129/129/124 130/130/125
f 130/130/125 131/131/126 132/132/127
f 132/132/127 133/133/128 134/134/129
f 133/133/128 135/135/130 134/134/129
f 136/136/131 137/137/132 135/135/130
f 138/138/133 139/139/134 137/137/132
f 140/140/135 141/141/136 139/139/134
f 142/142/137 143/143/138 141/141/136
f 144/144/139 145/145/140 143/143/138
f 146/146/141 147/147/142 145/145/140
f 148/148/143 149/149/144 147/147/142
f 150/150/145 151/151/146 149/149/144
f 152/152/147 153/153/148 151/151/146
f 154/154/149 155/155/150 153/153/148
f 155/155/150 156/156/151 157/157/152
f 158/158/153 159/159/154 160/160/155
f 160/160/155 161/161/156 162/162/157
f 162/162/157 163/163/158 164/164/159
f 164/164/159 165/165/160 166/166/161
f 166/166/161 167/167/162 168/168/163
f 168/168/163 169/169/164 170/170/165
f 170/170/165 171/171/166 172/172/167
f 172/172/167 173/173/168 174/174/169
f 173/173/168 175/175/170 174/174/169
f 176/176/171 177/177/172 175/175/170
f 178/178/173 179/179/174 177/177/172
f 180/180/175 181/181/176 179/179/174
f 182/182/177 183/183/178 181/181/176
f 184/184/179 185/185/180 183/183/178
f 186/186/181 187/187/182 185/185/180
f 188/188/183 189/189/184 187/187/182
f 190/190/185 191/191/186 189/189/184
f 192/192/187 193/193/188 191/191/186
f 194/194/189 195/195/190 193/193/188
f 196/196/191 197/197/192 195/195/190
f 198/198/193 199/199/194 197/197/192
f 200/200/195 201/201/196 199/199/194
f 202/202/197 203/203/198 201/201/196
f 204/204/199 205/205/200 203/203/198
f 206/206/201 207/207/202 205/205/200
f 208/208/203 209/209/204 207/207/202
f 210/210/205 211/211/206 209/209/204
f 212/212/207 213/213/208 211/211/206
f 214/214/208 215/215/209 213/213/208
f 216/216/209 217/217/210 215/215/209
f 217/217/210 218/218/211 219/219/212
f 219/219/212 220/220/213 221/221/214
f 221/221/214 222/222/215 223/223/216
f 223/223/216 224/224/217 225/225/218
f 224/224/217 226/226/219 225/225/218
f 227/227/220 228/228/221 226/226/219
f 229/229/222 230/230/223 228/228/221
f 231/231/224 232/232/225 230/230/223
f 233/233/226 234/234/227 235/235/228
f 236/236/229 237/237/230 234/234/227
f 238/238/231 239/239/232 237/237/230
f 240/240/233 241/241/234 239/239/232
f 242/242/235 243/243/236 241/241/234
f 244/244/237 245/245/238 243/243/236
f 246/246/239 247/247/240 245/245/238
f 248/248/241 249/249/242 247/247/240
f 249/249/242 250/250/243 251/251/244
f 251/251/244 252/252/245 253/253/246
f 253/253/246 254/254/247 255/255/248
f 255/255/248 256/256/249 257/257/250
f 257/257/250 258/258/251 259/259/252
f 259/259/252 260/260/253 261/261/254
f 261/261/254 262/262/255 263/263/256
f 263/263/256 264/264/257 265/265/258
f 265/265/258 266/266/259 267/267/260
f 267/267/260 268/268/261 269/269/262
f 269/269/262 270/270/263 271/271/264
f 271/271/264 272/272/265 273/273/266
f 273/273/266 274/274/267 275/275/268
f 275/275/268 276/276/269 277/277/270
f 277/277/270 278/278/271 279/279/272
f 279/279/272 280/280/273 281/281/274
f 281/281/274 282/282/275 283/283/276
f 283/283/276 284/284/277 285/285/278
f 285/285/278 286/286/279 287/287/280
f 287/287/280 288/288/281 289/289/281
f 289/289/281 290/290/282 291/291/282
f 291/291/282 292/292/283 293/293/283
f 292/292/283 294/294/284 293/293/283
f 295/295/285 296/296/286 294/294/284
f 297/297/287 298/298/288 296/296/286
f 299/299/289 300/300/290 298/298/288
f 300/300/290 301/301/291 302/302/292
f 302/302/292 303/303/293 304/304/294
f 304/304/294 305/305/295 306/306/296
f 306/306/296 307/307/297 308/308/298
f 309/309/299 310/310/299 311/311/299
f 312/312/300 313/313/300 314/314/300
f 315/315/301 314/316/301 310/317/301
f 309/318/302 312/319/302 315/320/302
f 311/321/303 316/322/303 309/323/303
f 310/324/1 313/325/1 311/326/1
f 317/327/299 318/328/299 319/329/299
f 320/330/300 321/331/300 322/332/300
f 323/333/301 322/334/301 318/335/301
f 317/336/302 320/337/302 323/338/302
f 319/339/303 324/340/303 317/341/303
f 318/342/1 321/343/1 319/344/1
f 325/345/299 326/346/299 327/347/299
f 328/348/300 329/349/300 330/350/300
f 331/351/301 330/352/301 326/353/301
f 325/354/302 328/355/302 331/356/302
f 327/357/303 332/358/303 325/359/303
f 326/360/1 329/361/1 327/362/1
f 333/363/299 334/364/299 335/365/299
f 336/366/300 337/367/300 338/368/300
f 339/369/301 338/370/301 334/371/301
f 333/372/302 336/373/302 339/374/302
f 335/375/303 340/376/303 333/377/303
f 334/378/1 337/379/1 335/380/1
f 341/381/299 342/382/299 343/383/299
f 344/384/300 345/385/300 346/386/300
f 347/387/301 346/388/301 342/389/301
f 341/390/302 344/391/302 347/392/302
f 343/393/303 348/394/303 341/395/303
f 342/396/1 345/397/1 343/398/1
f 349/399/299 350/400/299 351/401/299
f 352/402/300 353/403/300 354/404/300
f 355/405/301 354/406/301 350/407/301
f 349/408/302 352/409/302 355/410/302
f 351/411/303 356/412/303 349/413/303
f 350/414/1 353/415/1 351/416/1
f 357/417/299 358/418/299 359/419/299
f 360/420/300 361/421/300 362/422/300
f 363/423/301 362/424/301 358/425/301
f 357/426/302 360/427/302 363/428/302
f 359/429/303 364/430/303 357/431/303
f 358/432/1 361/433/1 359/434/1
f 365/435/299 366/436/299 367/437/299
f 368/438/300 369/439/300 370/440/300
f 371/441/301 370/442/301 366/443/301
f 365/444/302 368/445/302 371/446/302
f 367/447/303 372/448/303 365/449/303
f 366/450/1 369/451/1 367/452/1
f 373/453/299 374/454/299 375/455/299
f 376/456/300 377/457/300 378/458/300
f 379/459/301 378/460/301 374/461/301
f 373/462/302 376/463/302 379/464/302
f 375/465/303 380/466/303 373/467/303
f 374/468/1 377/469/1 375/470/1
f 381/471/299 382/472/299 383/473/299
f 384/474/300 385/475/300 386/476/300
f 387/477/301 386/478/301 382/479/301
f 381/480/302 384/481/302 387/482/302
f 383/483/303 388/484/303 381/485/303
f 382/486/1 385/487/1 383/488/1
f 389/489/299 390/490/299 391/491/299
f 392/492/300 393/493/300 394/494/300
f 395/495/301 394/496/301 390/497/301
f 389/498/302 392/499/302 395/500/302
f 391/501/303 396/502/303 389/503/303
f 390/504/1 393/505/1 391/506/1
f 397/507/299 398/508/299 399/509/299
f 400/510/300 401/511/300 402/512/300
f 403/513/301 402/514/301 398/515/301
f 397/516/302 400/517/302 403/518/302
f 399/519/303 404/520/303 397/521/303
f 398/522/1 401/523/1 399/524/1
f 405/525/299 406/526/299 407/527/299
f 408/528/300 409/529/300 410/530/300
f 411/531/301 410/532/301 406/533/301
f 405/534/302 408/535/302 411/536/302
f 407/537/303 412/538/303 405/539/303
f 406/540/1 409/541/1 407/542/1
f 413/543/299 414/544/299 415/545/299
f 416/546/300 417/547/300 418/548/300
f 419/549/301 418/550/301 414/551/301
f 413/552/302 416/553/302 419/554/302
f 415/555/303 420/556/303 413/557/303
f 414/558/1 417/559/1 415/560/1
f 421/561/299 422/562/299 423/563/299
f 424/564/300 425/565/300 426/566/300
f 427/567/301 426/568/301 422/569/301
f 421/570/302 424/571/302 427/572/302
f 423/573/303 428/574/303 421/575/303
f 422/576/1 425/577/1 423/578/1
f 429/579/299 430/580/299 431/581/299
f 432/582/300 433/583/300 434/584/300
f 435/585/301 434/586/301 430/587/301
f 429/588/302 432/589/302 435/590/302
f 431/591/303 436/592/303 429/593/303
f 430/594/1 433/595/1 431/596/1
f 437/597/299 438/598/299 439/599/299
f 440/600/300 441/601/300 442/602/300
f 443/603/301 442/604/301 438/605/301
f 437/606/302 440/607/302 443/608/302
f 439/609/303 444/610/303 437/611/303
f 438/612/1 441/613/1 439/614/1
f 445/615/299 446/616/299 447/617/299
f 448/618/300 449/619/300 450/620/300
f 451/621/301 450/622/301 446/623/301
f 445/624/302 448/625/302 451/626/302
f 447/627/303 452/628/303 445/629/303
f 446/630/1 449/631/1 447/632/1
f 453/633/299 454/634/299 455/635/299
f 456/636/300 457/637/300 458/638/300
f 459/639/301 458/640/301 454/641/301
f 453/642/302 456/643/302 459/644/302
f 455/645/303 460/646/303 453/647/303
f 454/648/1 457/649/1 455/650/1
f 461/651/299 462/652/299 463/653/299
f 464/654/300 465/655/300 466/656/300
f 467/657/301 466/658/301 462/659/301
f 461/660/302 464/661/302 467/662/302
f 463/663/303 468/664/303 461/665/303
f 462/666/1 465/667/1 463/668/1
f 469/669/299 470/670/299 471/671/299
f 472/672/300 473/673/300 474/674/300
f 475/675/301 474/676/301 470/677/301
f 469/678/302 472/679/302 475/680/302
f 471/681/303 476/682/303 469/683/303
f 470/684/1 473/685/1 471/686/1
f 477/687/299 478/688/299 479/689/299
f 480/690/300 481/691/300 482/692/300
f 483/693/301 482/694/301 478/695/301
f 477/696/302 480/697/302 483/698/302
f 479/699/303 484/700/303 477/701/303
f 478/702/1 481/703/1 479/704/1
f 485/705/299 486/706/299 487/707/299
f 488/708/300 489/709/300 490/710/300
f 491/711/301 490/712/301 486/713/301
f 485/714/302 488/715/302 491/716/302
f 487/717/303 492/718/303 485/719/303
f 486/720/1 489/721/1 487/722/1
f 493/723/299 494/724/299 495/725/299
f 496/726/300 497/727/300 498/728/300
f 499/729/301 498/730/301 494/731/301
f 493/732/302 496/733/302 499/734/302
f 495/735/303 500/736/303 493/737/303
f 494/738/1 497/739/1 495/740/1
f 501/741/299 502/742/299 503/743/299
f 504/744/300 505/745/300 506/746/300
f 507/747/301 506/748/301 502/749/301
f 501/750/302 504/751/302 507/752/302
f 503/753/303 508/754/303 501/755/303
f 502/756/1 505/757/1 503/758/1
f 509/759/299 510/760/299 511/761/299
f 512/762/300 513/763/300 514/764/300
f 515/765/301 514/766/301 510/767/301
f 509/768/302 512/769/302 515/770/302
f 511/771/303 516/772/303 509/773/303
f 510/774/1 513/775/1 511/776/1
f 517/777/299 518/778/299 519/779/299
f 520/780/300 521/781/300 522/782/300
f 523/783/302 522/784/302 518/785/302
f 517/786/303 520/787/303 523/788/303
f 519/789/1 524/790/1 517/791/1
f 518/792/301 521/793/301 519/794/301
f 525/795/299 526/796/299 527/797/299
f 528/798/300 529/799/300 530/800/300
f 530/801/302 531/802/302 525/803/302
f 529/804/301 526/805/301 531/806/301
f 532/807/1 527/808/1 526/809/1
f 528/810/303 525/811/303 527/812/303
f 518/813/299 533/814/299 534/815/299
f 530/816/300 535/817/300 536/818/300
f 525/819/301 536/820/301 533/821/301
f 518/785/302 530/801/302 525/803/302
f 534/822/303 522/823/303 518/824/303
f 533/825/1 535/826/1 534/827/1
f 537/828/299 527/829/299 538/830/299
f 539/831/300 540/832/300 528/833/300
f 541/834/301 528/835/301 527/836/301
f 537/837/302 539/838/302 541/839/302
f 538/840/303 542/841/303 537/842/303
f 527/808/1 540/843/1 538/844/1
f 543/845/299 544/846/299 519/847/299
f 545/848/300 521/849/300 546/850/300
f 547/851/301 546/852/301 544/853/301
f 543/854/302 545/855/302 547/856/302
f 519/857/303 548/858/303 543/859/303
f 544/860/1 521/861/1 519/789/1
f 549/862/299 550/863/299 551/864/299
f 552/865/304 553/866/300 554/867/304
f 555/868/305 554/867/304 550/869/305
f 549/870/306 552/871/307 555/872/308
f 551/873/1 556/874/1 549/875/1
f 551/876/309 554/877/310 553/878/311
f 557/879/300 558/880/300 559/881/300
f 560/882/300 561/883/300 562/884/300
f 562/885/312 558/886/312 559/887/312
f 563/888/302 561/889/302 558/890/302
f 564/891/313 557/892/313 563/893/313
f 560/894/302 559/895/302 557/896/302
f 565/897/300 566/898/300 567/899/300
f 559/887/312 566/900/312 567/901/312
f 568/902/302 558/890/302 566/903/302
f 563/893/313 565/904/313 568/905/313
f 557/896/302 567/906/302 565/907/302
f 569/908/300 570/909/300 571/910/300
f 567/901/312 570/911/312 571/912/312
f 572/913/302 566/903/302 570/914/302
f 568/905/313 569/915/313 572/916/313
f 565/907/302 571/917/302 569/918/302
f 573/919/299 574/920/299 575/921/299
f 571/912/312 574/922/312 576/923/312
f 575/924/302 570/914/302 574/925/302
f 572/916/313 573/926/313 575/927/313
f 569/918/302 576/928/302 573/929/302
f 577/930/299 578/931/299 579/932/299
f 576/923/312 578/933/312 580/934/312
f 579/935/302 574/925/302 578/936/302
f 575/927/313 577/937/313 579/938/313
f 573/929/302 580/939/302 577/940/302
f 581/941/300 582/942/300 583/943/300
f 580/934/312 582/944/312 583/945/312
f 584/946/302 578/936/302 582/947/302
f 579/938/313 581/948/313 584/949/313
f 577/940/302 583/950/302 581/951/302
f 585/952/300 586/953/300 587/954/300
f 583/945/312 586/955/312 587/956/312
f 582/957/1 588/958/1 586/959/1
f 584/949/313 585/960/313 588/961/313
f 581/951/302 587/962/302 585/963/302
f 589/964/299 590/965/299 591/966/299
f 592/967/300 593/968/300 594/969/300
f 595/970/301 594/971/301 590/972/301
f 589/973/302 592/974/302 595/975/302
f 591/976/303 596/977/303 589/978/303
f 590/979/1 593/980/1 591/981/1
f 597/982/299 598/983/299 599/984/299
f 600/985/300 601/986/300 602/987/300
f 603/988/301 602/989/301 598/990/301
f 597/991/302 600/992/302 603/993/302
f 599/994/303 604/995/303 597/996/303
f 598/997/1 601/998/1 599/999/1
f 605/1000/299 606/1001/299 607/1002/299
f 608/1003/300 609/1004/300 610/1005/300
f 611/1006/301 610/1007/301 606/1008/301
f 605/1009/302 608/1010/302 611/1011/302
f 607/1012/303 612/1013/303 605/1014/303
f 606/1015/1 609/1016/1 607/1017/1
f 1/1/1 613/1018/1 2/2/1
f 4/4/1 614/1019/1 5/5/1
f 7/7/2 615/1020/314 8/8/3
f 9/9/4 8/8/3 10/10/5
f 11/11/6 10/10/5 12/12/7
f 13/13/8 12/12/7 14/14/9
f 15/15/10 14/14/9 16/16/11
f 17/17/12 16/16/11 18/18/13
f 18/18/13 21/21/16 20/20/15
f 21/21/16 23/23/18 22/22/17
f 23/23/18 25/25/20 24/24/19
f 25/25/20 27/27/22 26/26/21
f 27/27/22 29/29/24 28/28/23
f 29/29/24 31/31/26 30/30/25
f 31/31/26 33/33/28 32/32/27
f 33/33/28 35/35/30 34/34/29
f 35/35/30 37/37/32 36/36/31
f 37/37/32 39/39/34 38/38/33
f 39/39/34 41/41/36 40/40/35
f 41/41/36 43/43/38 42/42/37
f 43/43/38 45/45/40 44/44/39
f 45/45/40 47/47/42 46/46/41
f 47/47/42 49/49/44 48/48/43
f 49/49/44 51/51/46 50/50/45
f 51/51/46 53/53/48 52/52/47
f 53/53/48 55/55/50 54/54/49
f 55/55/50 57/57/52 56/56/51
f 57/57/52 616/1021/315 58/58/53
f 58/58/53 616/1021/315 59/59/54
f 60/60/55 59/59/54 61/61/56
f 62/62/57 61/61/56 63/63/58
f 64/64/59 63/63/58 65/65/60
f 66/66/61 65/65/60 67/67/62
f 68/68/63 67/67/62 69/69/64
f 70/70/65 69/69/64 71/71/66
f 72/72/67 71/71/66 73/73/68
f 74/74/69 73/73/68 75/75/70
f 76/76/71 75/75/70 77/77/72
f 78/78/73 77/77/72 79/79/74
f 79/79/74 617/1022/316 81/81/76
f 82/82/77 85/85/80 83/83/78
f 85/85/80 87/87/82 86/86/81
f 87/87/82 89/89/84 88/88/83
f 89/89/84 91/91/86 90/90/85
f 91/91/86 93/93/88 92/92/87
f 93/93/88 618/1023/317 94/94/89
f 94/94/89 618/1023/317 95/95/90
f 96/96/91 95/95/90 97/97/92
f 98/98/93 97/97/92 99/99/94
f 100/100/95 99/99/94 101/101/96
f 102/102/97 101/101/96 103/103/98
f 104/104/99 103/103/98 105/105/100
f 106/106/101 105/105/100 107/107/102
f 108/108/103 107/107/102 109/109/104
f 110/110/105 109/109/104 111/111/106
f 112/112/107 111/111/106 113/113/108
f 114/114/109 113/113/108 115/115/110
f 116/116/111 115/115/110 117/117/112
f 118/118/113 117/117/112 119/119/114
f 120/120/115 119/119/114 121/121/116
f 122/122/117 121/121/116 123/123/118
f 124/124/119 123/123/118 125/125/120
f 126/126/121 125/125/120 127/127/122
f 128/128/123 127/127/122 129/129/124
f 130/130/125 129/129/124 131/131/126
f 132/132/127 131/131/126 133/133/128
f 133/133/128 136/136/131 135/135/130
f 136/136/131 138/138/133 137/137/132
f 138/138/133 140/140/135 139/139/134
f 140/140/135 142/142/137 141/141/136
f 142/142/137 144/144/139 143/143/138
f 144/144/139 146/146/141 145/145/140
f 146/146/141 148/148/143 147/147/142
f 148/148/143 150/150/145 149/149/144
f 150/150/145 152/152/147 151/151/146
f 152/152/147 154/154/149 153/153/148
f 154/154/149 619/1024/318 155/155/150
f 155/155/150 619/1024/318 156/156/151
f 158/158/153 620/1025/319 159/159/154
f 160/160/155 159/159/154 161/161/156
f 162/162/157 161/161/156 163/163/158
f 164/164/159 163/163/158 165/165/160
f 166/166/161 165/165/160 167/167/162
f 168/168/163 167/167/162 169/169/164
f 170/170/165 169/169/164 171/171/166
f 172/172/167 171/171/166 173/173/168
f 173/173/168 176/176/171 175/175/170
f 176/176/171 178/178/173 177/177/172
f 178/178/173 180/180/175 179/179/174
f 180/180/175 182/182/177 181/181/176
f 182/182/177 184/184/179 183/183/178
f 184/184/179 186/186/181 185/185/180
f 186/186/181 188/188/183 187/187/182
f 188/188/183 190/190/185 189/189/184
f 190/190/185 192/192/187 191/191/186
f 192/192/187 194/194/189 193/193/188
f 194/194/189 196/196/191 195/195/190
f 196/196/191 198/198/193 197/197/192
f 198/198/193 200/200/195 199/199/194
f 200/200/195 202/202/197 201/201/196
f 202/202/197 204/204/199 203/203/198
f 204/204/199 206/206/201 205/205/200
f 206/206/201 208/208/203 207/207/202
f 208/208/203 210/210/205 209/209/204
f 210/210/205 212/212/207 211/211/206
f 212/212/207 214/214/208 213/213/208
f 214/214/208 216/216/209 215/215/209
f 216/216/209 621/1026/210 217/217/210
f 217/217/210 621/1026/210 218/218/211
f 219/219/212 218/218/211 220/220/213
f 221/221/214 220/220/213 222/222/215
f 223/223/216 222/222/215 224/224/217
f 224/224/217 227/227/220 226/226/219
f 227/227/220 229/229/222 228/228/221
f 229/229/222 231/231/224 230/230/223
f 231/231/224 622/1027/320 232/232/225
f 233/233/226 236/236/229 234/234/227
f 236/236/229 238/238/231 237/237/230
f 238/238/231 240/240/233 239/239/232
f 240/240/233 242/242/235 241/241/234
f 242/242/235 244/244/237 243/243/236
f 244/244/237 246/246/239 245/245/238
f 246/246/239 248/248/241 247/247/240
f 248/248/241 623/1028/321 249/249/242
f 249/249/242 623/1028/321 250/250/243
f 251/251/244 250/250/243 252/252/245
f 253/253/246 252/252/245 254/254/247
f 255/255/248 254/254/247 256/256/249
f 257/257/250 256/256/249 258/258/251
f 259/259/252 258/258/251 260/260/253
f 261/261/254 260/260/253 262/262/255
f 263/263/256 262/262/255 264/264/257
f 265/265/258 264/264/257 266/266/259
f 267/267/260 266/266/259 268/268/261
f 269/269/262 268/268/261 270/270/263
f 271/271/264 270/270/263 272/272/265
f 273/273/266 272/272/265 274/274/267
f 275/275/268 274/274/267 276/276/269
f 277/277/270 276/276/269 278/278/271
f 279/279/272 278/278/271 280/280/273
f 281/281/274 280/280/273 282/282/275
f 283/283/276 282/282/275 284/284/277
f 285/285/278 284/284/277 286/286/279
f 287/287/280 286/286/279 288/288/281
f 289/289/281 288/288/281 290/290/282
f 291/291/282 290/290/282 292/292/283
f 292/292/283 295/295/285 294/294/284
f 295/295/285 297/297/287 296/296/286
f 297/297/287 299/299/289 298/298/288
f 299/299/289 624/1029/322 300/300/290
f 300/300/290 624/1029/322 301/301/291
f 302/302/292 301/301/291 303/303/293
f 304/304/294 303/303/293 305/305/295
f 306/306/296 305/305/295 307/307/297
f 309/309/299 315/1030/299 310/310/299
f 312/312/300 316/1031/300 313/313/300
f 315/315/301 312/1032/301 314/316/301
f 309/318/302 316/1033/302 312/319/302
f 311/321/303 313/1034/303 316/322/303
f 310/324/1 314/1035/1 313/325/1
f 317/327/299 323/1036/299 318/328/299
f 320/330/300 324/1037/300 321/331/300
f 323/333/301 320/1038/301 322/334/301
f 317/336/302 324/1039/302 320/337/302
f 319/339/303 321/1040/303 324/340/303
f 318/342/1 322/1041/1 321/343/1
f 325/345/299 331/1042/299 326/346/299
f 328/348/300 332/1043/300 329/349/300
f 331/351/301 328/1044/301 330/352/301
f 325/354/302 332/1045/302 328/355/302
f 327/357/303 329/1046/303 332/358/303
f 326/360/1 330/1047/1 329/361/1
f 333/363/299 339/1048/299 334/364/299
f 336/366/300 340/1049/300 337/367/300
f 339/369/301 336/1050/301 338/370/301
f 333/372/302 340/1051/302 336/373/302
f 335/375/303 337/1052/303 340/376/303
f 334/378/1 338/1053/1 337/379/1
f 341/381/299 347/1054/299 342/382/299
f 344/384/300 348/1055/300 345/385/300
f 347/387/301 344/1056/301 346/388/301
f 341/390/302 348/1057/302 344/391/302
f 343/393/303 345/1058/303 348/394/303
f 342/396/1 346/1059/1 345/397/1
f 349/399/299 355/1060/299 350/400/299
f 352/402/300 356/1061/300 353/403/300
f 355/405/301 352/1062/301 354/406/301
f 349/408/302 356/1063/302 352/409/302
f 351/411/303 353/1064/303 356/412/303
f 350/414/1 354/1065/1 353/415/1
f 357/417/299 363/1066/299 358/418/299
f 360/420/300 364/1067/300 361/421/300
f 363/423/301 360/1068/301 362/424/301
f 357/426/302 364/1069/302 360/427/302
f 359/429/303 361/1070/303 364/430/303
f 358/432/1 362/1071/1 361/433/1
f 365/435/299 371/1072/299 366/436/299
f 368/438/300 372/1073/300 369/439/300
f 371/441/301 368/1074/301 370/442/301
f 365/444/302 372/1075/302 368/445/302
f 367/447/303 369/1076/303 372/448/303
f 366/450/1 370/1077/1 369/451/1
f 373/453/299 379/1078/299 374/454/299
f 376/456/300 380/1079/300 377/457/300
f 379/459/301 376/1080/301 378/460/301
f 373/462/302 380/1081/302 376/463/302
f 375/465/303 377/1082/303 380/466/303
f 374/468/1 378/1083/1 377/469/1
f 381/471/299 387/1084/299 382/472/299
f 384/474/300 388/1085/300 385/475/300
f 387/477/301 384/1086/301 386/478/301
f 381/480/302 388/1087/302 384/481/302
f 383/483/303 385/1088/303 388/484/303
f 382/486/1 386/1089/1 385/487/1
f 389/489/299 395/1090/299 390/490/299
f 392/492/300 396/1091/300 393/493/300
f 395/495/301 392/1092/301 394/496/301
f 389/498/302 396/1093/302 392/499/302
f 391/501/303 393/1094/303 396/502/303
f 390/504/1 394/1095/1 393/505/1
f 397/507/299 403/1096/299 398/508/299
f 400/510/300 404/1097/300 401/511/300
f 403/513/301 400/1098/301 402/514/301
f 397/516/302 404/1099/302 400/517/302
f 399/519/303 401/1100/303 404/520/303
f 398/522/1 402/1101/1 401/523/1
f 405/525/299 411/1102/299 406/526/299
f 408/528/300 412/1103/300 409/529/300
f 411/531/301 408/1104/301 410/532/301
f 405/534/302 412/1105/302 408/535/302
f 407/537/303 409/1106/303 412/538/303
f 406/540/1 410/1107/1 409/541/1
f 413/543/299 419/1108/299 414/544/299
f 416/546/300 420/1109/300 417/547/300
f 419/549/301 416/1110/301 418/550/301
f 413/552/302 420/1111/302 416/553/302
f 415/555/303 417/1112/303 420/556/303
f 414/558/1 418/1113/1 417/559/1
f 421/561/299 427/1114/299 422/562/299
f 424/564/300 428/1115/300 425/565/300
f 427/567/301 424/1116/301 426/568/301
f 421/570/302 428/1117/302 424/571/302
f 423/573/303 425/1118/303 428/574/303
f 422/576/1 426/1119/1 425/577/1
f 429/579/299 435/1120/299 430/580/299
f 432/582/300 436/1121/300 433/583/300
f 435/585/301 432/1122/301 434/586/301
f 429/588/302 436/1123/302 432/589/302
f 431/591/303 433/1124/303 436/592/303
f 430/594/1 434/1125/1 433/595/1
f 437/597/299 443/1126/299 438/598/299
f 440/600/300 444/1127/300 441/601/300
f 443/603/301 440/1128/301 442/604/301
f 437/606/302 444/1129/302 440/607/302
f 439/609/303 441/1130/303 444/610/303
f 438/612/1 442/1131/1 441/613/1
f 445/615/299 451/1132/299 446/616/299
f 448/618/300 452/1133/300 449/619/300
f 451/621/301 448/1134/301 450/622/301
f 445/624/302 452/1135/302 448/625/302
f 447/627/303 449/1136/303 452/628/303
f 446/630/1 450/1137/1 449/631/1
f 453/633/299 459/1138/299 454/634/299
f 456/636/300 460/1139/300 457/637/300
f 459/639/301 456/1140/301 458/640/301
f 453/642/302 460/1141/302 456/643/302
f 455/645/303 457/1142/303 460/646/303
f 454/648/1 458/1143/1 457/649/1
f 461/651/299 467/1144/299 462/652/299
f 464/654/300 468/1145/300 465/655/300
f 467/657/301 464/1146/301 466/658/301
f 461/660/302 468/1147/302 464/661/302
f 463/663/303 465/1148/303 468/664/303
f 462/666/1 466/1149/1 465/667/1
f 469/669/299 475/1150/299 470/670/299
f 472/672/300 476/1151/300 473/673/300
f 475/675/301 472/1152/301 474/676/301
f 469/678/302 476/1153/302 472/679/302
f 471/681/303 473/1154/303 476/682/303
f 470/684/1 474/1155/1 473/685/1
f 477/687/299 483/1156/299 478/688/299
f 480/690/300 484/1157/300 481/691/300
f 483/693/301 480/1158/301 482/694/301
f 477/696/302 484/1159/302 480/697/302
f 479/699/303 481/1160/303 484/700/303
f 478/702/1 482/1161/1 481/703/1
f 485/705/299 491/1162/299 486/706/299
f 488/708/300 492/1163/300 489/709/300
f 491/711/301 488/1164/301 490/712/301
f 485/714/302 492/1165/302 488/715/302
f 487/717/303 489/1166/303 492/718/303
f 486/720/1 490/1167/1 489/721/1
f 493/723/299 499/1168/299 494/724/299
f 496/726/300 500/1169/300 497/727/300
f 499/729/301 496/1170/301 498/730/301
f 493/732/302 500/1171/302 496/733/302
f 495/735/303 497/1172/303 500/736/303
f 494/738/1 498/1173/1 497/739/1
f 501/741/299 507/1174/299 502/742/299
f 504/744/300 508/1175/300 505/745/300
f 507/747/301 504/1176/301 506/748/301
f 501/750/302 508/1177/302 504/751/302
f 503/753/303 505/1178/303 508/754/303
f 502/756/1 506/1179/1 505/757/1
f 509/759/299 515/1180/299 510/760/299
f 512/762/300 516/1181/300 513/763/300
f 515/765/301 512/1182/301 514/766/301
f 509/768/302 516/1183/302 512/769/302
f 511/771/303 513/1184/303 516/772/303
f 510/774/1 514/1185/1 513/775/1
f 517/777/299 523/1186/299 518/778/299
f 520/780/300 524/1187/300 521/781/300
f 523/783/302 520/1188/302 522/784/302
f 517/786/303 524/1189/303 520/787/303
f 519/789/1 521/861/1 524/790/1
f 518/792/301 522/1190/301 521/793/301
f 525/795/299 531/1191/299 526/796/299
f 528/798/300 532/1192/300 529/799/300
f 530/801/302 529/1193/302 531/802/302
f 529/804/301 532/1194/301 526/805/301
f 532/807/1 528/1195/1 527/808/1
f 528/810/303 530/1196/303 525/811/303
f 518/813/299 525/1197/299 533/814/299
f 530/816/300 522/1198/300 535/817/300
f 525/819/301 530/1199/301 536/820/301
f 518/785/302 522/784/302 530/801/302
f 534/822/303 535/1200/303 522/823/303
f 533/825/1 536/1201/1 535/826/1
f 537/828/299 541/1202/299 527/829/299
f 539/831/300 542/1203/300 540/832/300
f 541/834/301 539/1204/301 528/835/301
f 537/837/302 542/1205/302 539/838/302
f 538/840/303 540/1206/303 542/841/303
f 527/808/1 528/1195/1 540/843/1
f 543/845/299 547/1207/299 544/846/299
f 545/848/300 548/1208/300 521/849/300
f 547/851/301 545/1209/301 546/852/301
f 543/854/302 548/1210/302 545/855/302
f 519/857/303 521/1211/303 548/858/303
f 544/860/1 546/1212/1 521/861/1
f 549/862/299 555/1213/299 550/863/299
f 552/865/304 556/1214/300 553/866/300
f 555/868/305 552/865/304 554/867/304
f 549/870/306 556/1215/323 552/871/307
f 551/873/1 553/1216/1 556/874/1
f 551/876/309 550/1217/324 554/877/310
f 557/879/300 563/1218/300 558/880/300
f 560/882/300 564/1219/300 561/883/300
f 562/885/312 561/1220/312 558/886/312
f 563/888/302 564/1221/302 561/889/302
f 564/891/313 560/1222/313 557/892/313
f 560/894/302 562/1223/302 559/895/302
f 565/897/300 568/1224/300 566/898/300
f 559/887/312 558/886/312 566/900/312
f 568/902/302 563/888/302 558/890/302
f 563/893/313 557/892/313 565/904/313
f 557/896/302 559/895/302 567/906/302
f 569/908/300 572/1225/300 570/909/300
f 567/901/312 566/900/312 570/911/312
f 572/913/302 568/902/302 566/903/302
f 568/905/313 565/904/313 569/915/313
f 565/907/302 567/906/302 571/917/302
f 573/919/299 576/1226/299 574/920/299
f 571/912/312 570/911/312 574/922/312
f 575/924/302 572/913/302 570/914/302
f 572/916/313 569/915/313 573/926/313
f 569/918/302 571/917/302 576/928/302
f 577/930/299 580/1227/299 578/931/299
f 576/923/312 574/922/312 578/933/312
f 579/935/302 575/924/302 574/925/302
f 575/927/313 573/926/313 577/937/313
f 573/929/302 576/928/302 580/939/302
f 581/941/300 584/1228/300 582/942/300
f 580/934/312 578/933/312 582/944/312
f 584/946/302 579/935/302 578/936/302
f 579/938/313 577/937/313 581/948/313
f 577/940/302 580/939/302 583/950/302
f 585/952/300 588/1229/300 586/953/300
f 583/945/312 582/944/312 586/955/312
f 582/957/1 584/1230/1 588/958/1
f 584/949/313 581/948/313 585/960/313
f 581/951/302 583/950/302 587/962/302
f 589/964/299 595/1231/299 590/965/299
f 592/967/300 596/1232/300 593/968/300
f 595/970/301 592/1233/301 594/971/301
f 589/973/302 596/1234/302 592/974/302
f 591/976/303 593/1235/303 596/977/303
f 590/979/1 594/1236/1 593/980/1
f 597/982/299 603/1237/299 598/983/299
f 600/985/300 604/1238/300 601/986/300
f 603/988/301 600/1239/301 602/989/301
f 597/991/302 604/1240/302 600/992/302
f 599/994/303 601/1241/303 604/995/303
f 598/997/1 602/1242/1 601/998/1
f 605/1000/299 611/1243/299 606/1001/299
f 608/1003/300 612/1244/300 609/1004/300
f 611/1006/301 608/1245/301 610/1007/301
f 605/1009/302 612/1246/302 608/1010/302
f 607/1012/303 609/1247/303 612/1013/303
f 606/1015/1 610/1248/1 609/1016/1
