# JIB VI - the deck_grey parts, as a standalone mesh.
#
# One file per material rather than one library addressed with `#group`:
# selecting a group recentres it on its own bounding box, which takes a
# model apart when the library IS one model. A whole-file import keeps
# the authored coordinates. See loom_asset/src/mesh.rs:268.
v 7.589347 1.397103 0.000000
v 7.473824 1.358189 0.012832
v 7.473824 1.358189 0.025665
v 7.473824 1.358189 0.000000
v 7.473824 1.358189 -0.012832
v 7.473824 1.358189 -0.025665
v 7.359981 1.314406 0.029891
v 7.359981 1.314406 0.059781
v 7.359981 1.314406 0.000000
v 7.359981 1.314406 -0.029891
v 7.249900 1.267056 0.050333
v 7.249900 1.267056 0.100666
v 7.249900 1.267056 0.000000
v 7.359981 1.314406 -0.059781
v 7.249900 1.267056 -0.050333
v 7.145011 1.217797 0.074713
v 7.145011 1.217797 0.149425
v 7.145011 1.217797 0.000000
v 7.249900 1.267056 -0.100666
v 7.145011 1.217797 -0.074713
v 7.045976 1.168635 0.103847
v 7.045976 1.168635 0.207694
v 7.045976 1.168635 0.000000
v 7.145011 1.217797 -0.149425
v 7.045976 1.168635 -0.103847
v 6.946662 1.131420 0.131890
v 6.946662 1.131420 0.263780
v 6.946662 1.131420 0.000000
v 7.045976 1.168635 -0.207694
v 6.946662 1.131420 -0.131890
v 6.847383 1.098503 0.161172
v 6.847383 1.098503 0.322345
v 6.847383 1.098503 0.000000
v 6.946662 1.131420 -0.263780
v 6.847383 1.098503 -0.161172
v 6.748676 1.065014 0.194837
v 6.748676 1.065014 0.389674
v 6.748676 1.065014 0.000000
v 6.847383 1.098503 -0.322345
v 6.748676 1.065014 -0.194837
v 6.648063 1.031234 0.233208
v 6.648063 1.031234 0.466416
v 6.648063 1.031234 0.000000
v 6.748676 1.065014 -0.389674
v 6.648063 1.031234 -0.233208
v 6.542617 0.997470 0.276616
v 6.542617 0.997470 0.553232
v 6.542617 0.997470 0.000000
v 6.648063 1.031234 -0.466416
v 6.542617 0.997470 -0.276616
v 6.429175 0.964051 0.325358
v 6.429175 0.964051 0.650716
v 6.429175 0.964051 0.000000
v 6.542617 0.997470 -0.553232
v 6.429175 0.964051 -0.325358
v 6.303500 0.934434 0.375325
v 6.303500 0.934434 0.750650
v 6.303500 0.934434 0.000000
v 6.429175 0.964051 -0.650716
v 6.303500 0.934434 -0.375325
v 6.161980 0.913628 0.418860
v 6.161980 0.913628 0.837721
v 6.161980 0.913628 0.000000
v 6.303500 0.934434 -0.750650
v 6.161980 0.913628 -0.418860
v 6.005672 0.892932 0.467322
v 6.005672 0.892932 0.934645
v 6.005672 0.892932 0.000000
v 6.161980 0.913628 -0.837721
v 6.005672 0.892932 -0.467322
v 5.832806 0.872526 0.520186
v 5.832806 0.872526 1.040371
v 5.832806 0.872526 0.000000
v 6.005672 0.892932 -0.934645
v 5.832806 0.872526 -0.520186
v 5.642631 0.852600 0.576647
v 5.642631 0.852600 1.153294
v 5.642631 0.852600 0.000000
v 5.832806 0.872526 -1.040371
v 5.642631 0.852600 -0.576647
v 5.435493 0.833357 0.635617
v 5.435493 0.833357 1.271233
v 5.435493 0.833357 0.000000
v 5.642631 0.852600 -1.153294
v 5.435493 0.833357 -0.635617
v 5.212816 0.815010 0.695735
v 5.212816 0.815010 1.391469
v 5.212816 0.815010 0.000000
v 5.435493 0.833357 -1.271233
v 5.212816 0.815010 -0.695735
v 4.977042 0.797785 0.755404
v 4.977042 0.797785 1.510808
v 4.977042 0.797785 0.000000
v 5.212816 0.815010 -1.391469
v 4.977042 0.797785 -0.755404
v 4.731527 0.781911 0.812932
v 4.731527 0.781911 1.625865
v 4.731527 0.781911 0.000000
v 4.977042 0.797785 -1.510808
v 4.731527 0.781911 -0.812932
v 4.480401 0.767319 0.869279
v 4.480401 0.767319 1.738557
v 4.480401 0.767319 0.000000
v 4.731527 0.781911 -1.625865
v 4.480401 0.767319 -0.869279
v 4.226226 0.753891 0.924697
v 4.226226 0.753891 1.849394
v 4.226226 0.753891 0.000000
v 4.480401 0.767319 -1.738557
v 4.226226 0.753891 -0.924697
v 3.969210 0.741579 0.978405
v 3.969210 0.741579 1.956811
v 3.969210 0.741579 0.000000
v 4.226226 0.753891 -1.849394
v 3.969210 0.741579 -0.978405
v 3.709425 0.728825 1.029099
v 3.709425 0.728825 2.058197
v 3.709425 0.728825 0.000000
v 3.969210 0.741579 -1.956811
v 3.709425 0.728825 -1.029099
v 3.446939 0.715656 1.076338
v 3.446939 0.715656 2.152677
v 3.446939 0.715656 0.000000
v 3.709425 0.728825 -2.058197
v 3.446939 0.715656 -1.076338
v 3.181814 0.703715 1.120460
v 3.181814 0.703715 2.240921
v 3.181814 0.703715 0.000000
v 3.446939 0.715656 -2.152677
v 3.181814 0.703715 -1.120460
v 2.914110 0.692948 1.161209
v 2.914110 0.692948 2.322419
v 2.914110 0.692948 0.000000
v 3.181814 0.703715 -2.240921
v 2.914110 0.692948 -1.161209
v 2.643885 0.683812 1.198301
v 2.643885 0.683812 2.396601
v 2.643885 0.683812 0.000000
v 2.914110 0.692948 -2.322419
v 2.643885 0.683812 -1.198301
v 2.371192 0.676767 1.231605
v 2.371192 0.676767 2.463210
v 2.371192 0.676767 0.000000
v 2.643885 0.683812 -2.396601
v 2.371192 0.676767 -1.231605
v 2.096081 0.671331 1.261361
v 2.096081 0.671331 2.522722
v 2.096081 0.671331 0.000000
v 2.371192 0.676767 -2.463210
v 2.096081 0.671331 -1.261361
v 1.818602 0.666981 1.287865
v 1.818602 0.666981 2.575730
v 1.818602 0.666981 0.000000
v 2.096081 0.671331 -2.522722
v 1.818602 0.666981 -1.287865
v 1.538801 0.663164 1.311464
v 1.538801 0.663164 2.622927
v 1.538801 0.663164 0.000000
v 1.818602 0.666981 -2.575730
v 1.538801 0.663164 -1.311464
v 1.256721 0.659300 1.332549
v 1.256721 0.659300 2.665099
v 1.256721 0.659300 0.000000
v 1.538801 0.663164 -2.622927
v 1.256721 0.659300 -1.332549
v 0.972406 0.654779 1.351553
v 0.972406 0.654779 2.703105
v 0.972406 0.654779 0.000000
v 1.256721 0.659300 -2.665099
v 0.972406 0.654779 -1.351553
v 0.685895 0.649714 1.367744
v 0.685895 0.649714 2.735487
v 0.685895 0.649714 0.000000
v 0.972406 0.654779 -2.703105
v 0.685895 0.649714 -1.367744
v 0.397227 0.644602 1.380654
v 0.397227 0.644602 2.761308
v 0.397227 0.644602 0.000000
v 0.685895 0.649714 -2.735487
v 0.397227 0.644602 -1.380654
v 0.106438 0.639533 1.390844
v 0.106438 0.639533 2.781689
v 0.106438 0.639533 0.000000
v 0.397227 0.644602 -2.761308
v 0.106438 0.639533 -1.390844
v -0.186435 0.634602 1.398876
v -0.186435 0.634602 2.797753
v -0.186435 0.634602 0.000000
v 0.106438 0.639533 -2.781689
v -0.186435 0.634602 -1.398876
v -0.481358 0.629909 1.405317
v -0.481358 0.629909 2.810635
v -0.481358 0.629909 0.000000
v -0.186435 0.634602 -2.797753
v -0.481358 0.629909 -1.405317
v -0.778300 0.625555 1.410745
v -0.778300 0.625555 2.821489
v -0.778300 0.625555 0.000000
v -0.481358 0.629909 -2.810635
v -0.778300 0.625555 -1.410745
v -1.077227 0.621576 1.415449
v -1.077227 0.621576 2.830897
v -1.077227 0.621576 0.000000
v -0.778300 0.625555 -2.821489
v -1.077227 0.621576 -1.415449
v -1.378111 0.617705 1.418385
v -1.378111 0.617705 2.836771
v -1.378111 0.617705 0.000000
v -1.077227 0.621576 -2.830897
v -1.378111 0.617705 -1.418385
v -1.680922 0.613995 1.419635
v -1.680922 0.613995 2.839270
v -1.680922 0.613995 0.000000
v -1.378111 0.617705 -2.836771
v -1.680922 0.613995 -1.419635
v -1.985631 0.610404 2.838916
v -1.985631 0.610404 1.419458
v -1.985631 0.610404 -1.419458
v -1.985631 0.610404 0.000000
v -1.985631 0.610404 -2.838916
v -2.292212 0.607039 2.836313
v -2.292212 0.607039 1.418156
v -2.292212 0.607039 -1.418156
v -2.292212 0.607039 0.000000
v -2.292212 0.607039 -2.836313
v -2.600637 0.604309 2.832211
v -2.600637 0.604309 1.416105
v -2.600637 0.604309 -1.416105
v -2.600637 0.604309 0.000000
v -2.600637 0.604309 -2.832211
v -2.910883 0.602364 2.827141
v -2.910883 0.602364 1.413571
v -2.910883 0.602364 -1.413571
v -2.910883 0.602364 0.000000
v -2.910883 0.602364 -2.827141
v -3.222924 0.601268 2.819868
v -3.222924 0.601268 1.409934
v -3.222924 0.601268 -1.409934
v -3.222924 0.601268 0.000000
v -3.222924 0.601268 -2.819868
v -3.536735 0.600929 2.810355
v -3.536735 0.600929 1.405178
v -3.536735 0.600929 -1.405178
v -3.536735 0.600929 0.000000
v -3.536735 0.600929 -2.810355
v -3.852296 0.601237 2.799209
v -3.852296 0.601237 1.399604
v -3.852296 0.601237 -1.399604
v -3.852296 0.601237 0.000000
v -3.852296 0.601237 -2.799209
v -4.169582 0.602076 2.787056
v -4.169582 0.602076 1.393528
v -4.169582 0.602076 -1.393528
v -4.169582 0.602076 0.000000
v -4.169582 0.602076 -2.787056
v -4.488573 0.603328 2.774544
v -4.488573 0.603328 1.387272
v -4.488573 0.603328 -1.387272
v -4.488573 0.603328 0.000000
v -4.488573 0.603328 -2.774544
v -4.809247 0.604894 2.762265
v -4.809247 0.604894 1.381132
v -4.809247 0.604894 -1.381132
v -4.809247 0.604894 0.000000
v -4.809247 0.604894 -2.762265
v -5.131584 0.607053 2.749532
v -5.131584 0.607053 1.374766
v -5.131584 0.607053 -1.374766
v -5.131584 0.607053 0.000000
v -5.131584 0.607053 -2.749532
v -5.455564 0.609825 2.736131
v -5.455564 0.609825 1.368066
v -5.455564 0.609825 -1.368066
v -5.455564 0.609825 0.000000
v -5.455564 0.609825 -2.736131
v -5.781169 0.613083 2.722246
v -5.781169 0.613083 1.361123
v -5.781169 0.613083 -1.361123
v -5.781169 0.613083 0.000000
v -5.781169 0.613083 -2.722246
v -6.108378 0.616696 2.708063
v -6.108378 0.616696 1.354032
v -6.108378 0.616696 -1.354032
v -6.108378 0.616696 0.000000
v -6.108378 0.616696 -2.708063
v -6.437176 0.620529 2.693780
v -6.437176 0.620529 1.346890
v -6.437176 0.620529 -1.346890
v -6.437176 0.620529 0.000000
v -6.437176 0.620529 -2.693780
v -6.767542 0.624566 2.679442
v -6.767542 0.624566 1.339721
v -6.767542 0.624566 -1.339721
v -6.767542 0.624566 0.000000
v -6.767542 0.624566 -2.679442
v -7.099461 0.629428 2.664274
v -7.099461 0.629428 1.332137
v -7.099461 0.629428 -1.332137
v -7.099461 0.629428 0.000000
v -7.099461 0.629428 -2.664274
v -7.432915 0.634843 2.648645
v -7.432915 0.634843 1.324322
v -7.432915 0.634843 -1.324322
v -7.432915 0.634843 0.000000
v -7.432915 0.634843 -2.648645
v -7.767888 0.640344 2.633188
v -7.767888 0.640344 1.316594
v -7.767888 0.640344 -1.316594
v -7.767888 0.640344 0.000000
v -7.767888 0.640344 -2.633188
v -8.104365 0.645451 2.618564
v -8.104365 0.645451 1.309282
v -8.104365 0.645451 -1.309282
v -8.104365 0.645451 0.000000
v -8.104365 0.645451 -2.618564
v -8.442329 0.649669 2.605460
v -8.442329 0.649669 1.302730
v -8.442329 0.649669 -1.302730
v -8.442329 0.649669 0.000000
v -8.442329 0.649669 -2.605460
v -8.781767 0.654765 2.585962
v -8.781767 0.654765 1.292981
v -8.781767 0.654765 -1.292981
v -8.781767 0.654765 0.000000
v -8.781767 0.654765 -2.585962
v -9.122662 0.658022 2.568462
v -9.122662 0.658022 1.284231
v -9.122662 0.658022 -1.284231
v -9.122662 0.658022 0.000000
v -9.122662 0.658022 -2.568462
v -9.465000 0.660000 2.556710
v -9.465000 0.660000 1.278355
v -9.465000 0.660000 -1.278355
v -9.465000 0.660000 0.000000
v -9.465000 0.660000 -2.556710
v -2.175000 3.080000 -1.458000
v 2.992360 3.080000 1.385000
v -2.175000 3.080000 1.458000
v 2.992360 3.100000 -1.385000
v -2.175000 3.100000 1.458000
v 2.992360 3.100000 1.385000
v 2.992360 3.080000 -1.385000
v -2.175000 3.100000 -1.458000
v -1.680922 0.613995 -2.839270
vt 0.010210 0.008067
vt 0.010188 0.008261
vt 0.010167 0.008261
vt 0.010210 0.008261
vt 0.010231 0.008261
vt 0.010253 0.008261
vt 0.010160 0.008451
vt 0.010110 0.008451
vt 0.010210 0.008451
vt 0.010260 0.008451
vt 0.010126 0.008636
vt 0.010041 0.008636
vt 0.010210 0.008636
vt 0.010310 0.008451
vt 0.010294 0.008636
vt 0.010085 0.008812
vt 0.009960 0.008812
vt 0.010210 0.008812
vt 0.010379 0.008636
vt 0.010335 0.008812
vt 0.010036 0.008978
vt 0.009862 0.008978
vt 0.010210 0.008978
vt 0.010460 0.008812
vt 0.010384 0.008978
vt 0.009989 0.009145
vt 0.009768 0.009145
vt 0.010210 0.009145
vt 0.010558 0.008978
vt 0.010431 0.009145
vt 0.009940 0.009311
vt 0.009670 0.009311
vt 0.010210 0.009311
vt 0.010652 0.009145
vt 0.010480 0.009311
vt 0.009884 0.009477
vt 0.009557 0.009477
vt 0.010210 0.009477
vt 0.010750 0.009311
vt 0.010536 0.009477
vt 0.009819 0.009645
vt 0.009429 0.009645
vt 0.010210 0.009645
vt 0.010863 0.009477
vt 0.010601 0.009645
vt 0.009747 0.009822
vt 0.009283 0.009822
vt 0.010210 0.009822
vt 0.010991 0.009645
vt 0.010673 0.009822
vt 0.009665 0.010012
vt 0.009120 0.010012
vt 0.010210 0.010012
vt 0.011137 0.009822
vt 0.010755 0.010012
vt 0.009581 0.010223
vt 0.008952 0.010223
vt 0.010210 0.010223
vt 0.011300 0.010012
vt 0.010839 0.010223
vt 0.009508 0.010460
vt 0.008806 0.010460
vt 0.010210 0.010460
vt 0.011468 0.010223
vt 0.010912 0.010460
vt 0.009427 0.010722
vt 0.008644 0.010722
vt 0.010210 0.010722
vt 0.011614 0.010460
vt 0.010993 0.010722
vt 0.009338 0.011012
vt 0.008467 0.011012
vt 0.010210 0.011012
vt 0.011776 0.010722
vt 0.011082 0.011012
vt 0.009244 0.011330
vt 0.008278 0.011330
vt 0.010210 0.011330
vt 0.011953 0.011012
vt 0.011176 0.011330
vt 0.009145 0.011678
vt 0.008080 0.011678
vt 0.010210 0.011678
vt 0.012142 0.011330
vt 0.011275 0.011678
vt 0.009044 0.012051
vt 0.007879 0.012051
vt 0.010210 0.012051
vt 0.012340 0.011678
vt 0.011376 0.012051
vt 0.008944 0.012446
vt 0.007679 0.012446
vt 0.010210 0.012446
vt 0.012541 0.012051
vt 0.011476 0.012446
vt 0.008848 0.012857
vt 0.007486 0.012857
vt 0.010210 0.012857
vt 0.012741 0.012446
vt 0.011572 0.012857
vt 0.008754 0.013278
vt 0.007297 0.013278
vt 0.010210 0.013278
vt 0.012934 0.012857
vt 0.011667 0.013278
vt 0.008661 0.013704
vt 0.007111 0.013704
vt 0.010210 0.013704
vt 0.013123 0.013278
vt 0.011759 0.013704
vt 0.008571 0.014135
vt 0.006931 0.014135
vt 0.010210 0.014135
vt 0.013309 0.013704
vt 0.011849 0.014135
vt 0.008486 0.014570
vt 0.006762 0.014570
vt 0.010210 0.014570
vt 0.013489 0.014135
vt 0.011934 0.014570
vt 0.008407 0.015010
vt 0.006603 0.015010
vt 0.010210 0.015010
vt 0.013659 0.014570
vt 0.012013 0.015010
vt 0.008333 0.015454
vt 0.006455 0.015454
vt 0.010210 0.015454
vt 0.013817 0.015010
vt 0.012087 0.015454
vt 0.008264 0.015903
vt 0.006319 0.015903
vt 0.010210 0.015903
vt 0.013965 0.015454
vt 0.012156 0.015903
vt 0.008202 0.016355
vt 0.006195 0.016355
vt 0.010210 0.016355
vt 0.014101 0.015903
vt 0.012218 0.016355
vt 0.008147 0.016812
vt 0.006083 0.016812
vt 0.010210 0.016812
vt 0.014226 0.016355
vt 0.012274 0.016812
vt 0.008097 0.017273
vt 0.005983 0.017273
vt 0.010210 0.017273
vt 0.014337 0.016812
vt 0.012323 0.017273
vt 0.008052 0.017738
vt 0.005894 0.017738
vt 0.010210 0.017738
vt 0.014437 0.017273
vt 0.012368 0.017738
vt 0.008013 0.018207
vt 0.005815 0.018207
vt 0.010210 0.018207
vt 0.014526 0.017738
vt 0.012407 0.018207
vt 0.007977 0.018680
vt 0.005745 0.018680
vt 0.010210 0.018680
vt 0.014605 0.018207
vt 0.012443 0.018680
vt 0.007946 0.019156
vt 0.005681 0.019156
vt 0.010210 0.019156
vt 0.014675 0.018680
vt 0.012475 0.019156
vt 0.007918 0.019636
vt 0.005627 0.019636
vt 0.010210 0.019636
vt 0.014739 0.019156
vt 0.012502 0.019636
vt 0.007897 0.020120
vt 0.005584 0.020120
vt 0.010210 0.020120
vt 0.014793 0.019636
vt 0.012523 0.020120
vt 0.007880 0.020607
vt 0.005549 0.020607
vt 0.010210 0.020607
vt 0.014837 0.020120
vt 0.012540 0.020607
vt 0.007866 0.021098
vt 0.005522 0.021098
vt 0.010210 0.021098
vt 0.014871 0.020607
vt 0.012554 0.021098
vt 0.007856 0.021592
vt 0.005501 0.021592
vt 0.010210 0.021592
vt 0.014898 0.021098
vt 0.012565 0.021592
vt 0.007846 0.022089
vt 0.005483 0.022089
vt 0.010210 0.022089
vt 0.014919 0.021592
vt 0.012574 0.022089
vt 0.007839 0.022590
vt 0.005467 0.022590
vt 0.010210 0.022590
vt 0.014937 0.022089
vt 0.012582 0.022590
vt 0.007834 0.023094
vt 0.005457 0.023094
vt 0.010210 0.023094
vt 0.014953 0.022590
vt 0.012587 0.023094
vt 0.007832 0.023602
vt 0.005453 0.023602
vt 0.010210 0.023602
vt 0.014963 0.023094
vt 0.012589 0.023602
vt 0.005454 0.024112
vt 0.007832 0.024112
vt 0.012588 0.024112
vt 0.010210 0.024112
vt 0.014967 0.024112
vt 0.005458 0.024626
vt 0.007834 0.024626
vt 0.012586 0.024626
vt 0.010210 0.024626
vt 0.014962 0.024626
vt 0.005465 0.025143
vt 0.007837 0.025143
vt 0.012583 0.025143
vt 0.010210 0.025143
vt 0.014955 0.025143
vt 0.005473 0.025663
vt 0.007842 0.025663
vt 0.012579 0.025663
vt 0.010210 0.025663
vt 0.014947 0.025663
vt 0.005485 0.026185
vt 0.007848 0.026185
vt 0.012572 0.026185
vt 0.010210 0.026185
vt 0.014935 0.026185
vt 0.005501 0.026711
vt 0.007856 0.026711
vt 0.012564 0.026711
vt 0.010210 0.026711
vt 0.014919 0.026711
vt 0.005520 0.027240
vt 0.007865 0.027240
vt 0.012555 0.027240
vt 0.010210 0.027240
vt 0.014900 0.027240
vt 0.005540 0.027771
vt 0.007875 0.027771
vt 0.012545 0.027771
vt 0.010210 0.027771
vt 0.014880 0.027771
vt 0.005561 0.028306
vt 0.007886 0.028306
vt 0.012534 0.028306
vt 0.010210 0.028306
vt 0.014859 0.028306
vt 0.005582 0.028843
vt 0.007896 0.028843
vt 0.012524 0.028843
vt 0.010210 0.028843
vt 0.014838 0.028843
vt 0.005603 0.029383
vt 0.007907 0.029383
vt 0.012514 0.029383
vt 0.010210 0.029383
vt 0.014817 0.029383
vt 0.005626 0.029926
vt 0.007918 0.029926
vt 0.012502 0.029926
vt 0.010210 0.029926
vt 0.014794 0.029926
vt 0.005649 0.030472
vt 0.007930 0.030472
vt 0.012491 0.030472
vt 0.010210 0.030472
vt 0.014771 0.030472
vt 0.005673 0.031020
vt 0.007941 0.031020
vt 0.012479 0.031020
vt 0.010210 0.031020
vt 0.014747 0.031020
vt 0.005697 0.031571
vt 0.007953 0.031571
vt 0.012467 0.031571
vt 0.010210 0.031571
vt 0.014724 0.031571
vt 0.005721 0.032124
vt 0.007965 0.032124
vt 0.012455 0.032124
vt 0.010210 0.032124
vt 0.014699 0.032124
vt 0.005746 0.032680
vt 0.007978 0.032680
vt 0.012442 0.032680
vt 0.010210 0.032680
vt 0.014674 0.032680
vt 0.005772 0.033239
vt 0.007991 0.033239
vt 0.012429 0.033239
vt 0.010210 0.033239
vt 0.014648 0.033239
vt 0.005798 0.033800
vt 0.008004 0.033800
vt 0.012416 0.033800
vt 0.010210 0.033800
vt 0.014622 0.033800
vt 0.005823 0.034364
vt 0.008016 0.034364
vt 0.012404 0.034364
vt 0.010210 0.034364
vt 0.014597 0.034364
vt 0.005845 0.034930
vt 0.008027 0.034930
vt 0.012393 0.034930
vt 0.010210 0.034930
vt 0.014576 0.034930
vt 0.005877 0.035499
vt 0.008044 0.035499
vt 0.012376 0.035499
vt 0.010210 0.035499
vt 0.014543 0.035499
vt 0.005907 0.036070
vt 0.008058 0.036070
vt 0.012362 0.036070
vt 0.010210 0.036070
vt 0.014514 0.036070
vt 0.005926 0.036644
vt 0.008068 0.036644
vt 0.012352 0.036644
vt 0.010210 0.036644
vt 0.014494 0.036644
vt 0.159650 0.050732
vt 0.154887 0.059390
vt 0.154765 0.050732
vt 0.159528 0.032470
vt 0.154765 0.041127
vt 0.154887 0.032470
vt 0.281429 0.069540
vt 0.281462 0.074069
vt 0.281429 0.074069
vt 0.075501 0.236658
vt 0.075534 0.245201
vt 0.075501 0.245201
vt 0.115425 0.275732
vt 0.115392 0.270849
vt 0.115425 0.270849
vt 0.014483 0.236658
vt 0.014516 0.245303
vt 0.014483 0.245303
vt 0.014967 0.023602
vt 0.159528 0.059390
vt 0.159650 0.041127
vt 0.281462 0.069540
vt 0.075534 0.236658
vt 0.115392 0.275732
vt 0.014516 0.236658
vn -0.4810 0.8767 -0.0000
vn -0.3392 0.9407 -0.0000
vn -0.4049 0.8648 -0.2969
vn -0.4049 0.8648 0.2969
vn -0.3771 0.9262 -0.0000
vn -0.4456 0.8610 -0.2452
vn -0.4102 0.9120 -0.0000
vn -0.4799 0.8530 -0.2053
vn -0.4456 0.8610 0.2452
vn -0.4349 0.9005 -0.0000
vn -0.5075 0.8431 -0.1776
vn -0.4799 0.8530 0.2053
vn -0.3983 0.9173 -0.0000
vn -0.4714 0.8577 -0.2053
vn -0.5075 0.8431 0.1776
vn -0.3329 0.9430 -0.0000
vn -0.4328 0.8722 -0.2278
vn -0.4714 0.8577 0.2053
vn -0.3180 0.9481 -0.0000
vn -0.4357 0.8715 -0.2251
vn -0.4328 0.8722 0.2278
vn -0.3198 0.9475 -0.0000
vn -0.4489 0.8658 -0.2210
vn -0.4357 0.8715 0.2251
vn -0.3116 0.9502 -0.0000
vn -0.4541 0.8625 -0.2233
vn -0.4489 0.8658 0.2210
vn -0.2938 0.9559 -0.0000
vn -0.4517 0.8634 -0.2247
vn -0.4541 0.8625 0.2233
vn -0.2561 0.9667 -0.0000
vn -0.4218 0.8735 -0.2433
vn -0.4517 0.8634 0.2247
vn -0.1876 0.9822 -0.0000
vn -0.3567 0.8906 -0.2821
vn -0.4218 0.8735 0.2433
vn -0.1384 0.9904 -0.0000
vn -0.3068 0.9033 -0.3000
vn -0.3567 0.8906 0.2821
vn -0.1242 0.9923 -0.0000
vn -0.2995 0.9024 -0.3097
vn -0.3068 0.9033 0.3000
vn -0.1107 0.9939 -0.0000
vn -0.2897 0.9021 -0.3200
vn -0.2995 0.9024 0.3097
vn -0.0984 0.9952 -0.0000
vn -0.2781 0.9020 -0.3302
vn -0.2897 0.9021 0.3200
vn -0.0873 0.9962 -0.0000
vn -0.0856 0.9963 -0.0000
vn -0.2781 0.9020 0.3302
vn -0.0775 0.9970 -0.0000
vn -0.0761 0.9971 -0.0000
vn -0.0687 0.9976 -0.0000
vn -0.0675 0.9977 -0.0000
vn -0.0613 0.9981 -0.0000
vn -0.0604 0.9982 -0.0000
vn -0.0554 0.9985 -0.0000
vn -0.0547 0.9985 -0.0000
vn -0.0503 0.9987 -0.0000
vn -0.0497 0.9988 -0.0000
vn -0.0484 0.9988 -0.0000
vn -0.0486 0.9988 -0.0000
vn -0.0496 0.9988 -0.0000
vn -0.0476 0.9989 -0.0000
vn -0.0470 0.9989 -0.0000
vn -0.0426 0.9991 -0.0000
vn -0.0421 0.9991 -0.0000
vn -0.0370 0.9993 -0.0000
vn -0.0364 0.9993 -0.0000
vn -0.0298 0.9996 -0.0000
vn -0.0292 0.9996 -0.0000
vn -0.0228 0.9997 -0.0000
vn -0.0223 0.9998 -0.0000
vn -0.0177 0.9998 -0.0000
vn -0.0175 0.9998 -0.0000
vn -0.0147 0.9999 -0.0000
vn -0.0145 0.9999 -0.0000
vn -0.0137 0.9999 -0.0000
vn -0.0148 0.9999 -0.0000
vn -0.0149 0.9999 -0.0000
vn -0.0168 0.9999 -0.0000
vn -0.0169 0.9999 -0.0000
vn -0.0176 0.9998 -0.0000
vn -0.0171 0.9999 -0.0000
vn -0.0164 0.9999 -0.0000
vn -0.0153 0.9999 -0.0000
vn -0.0140 0.9999 -0.0000
vn -0.0131 0.9999 -0.0000
vn -0.0126 0.9999 -0.0000
vn -0.0120 0.9999 -0.0000
vn -0.0114 0.9999 -0.0000
vn -0.0099 1.0000 -0.0000
vn -0.0076 1.0000 -0.0000
vn -0.0049 1.0000 -0.0000
vn -0.0023 1.0000 -0.0000
vn -0.0001 1.0000 -0.0000
vn 0.0018 1.0000 -0.0000
vn 0.0033 1.0000 -0.0000
vn 0.0044 1.0000 -0.0000
vn 0.0058 1.0000 -0.0000
vn 0.0076 1.0000 -0.0000
vn 0.0093 1.0000 -0.0000
vn 0.0105 0.9999 -0.0000
vn 0.0113 0.9999 -0.0000
vn 0.0119 0.9999 -0.0000
vn 0.0134 0.9999 -0.0000
vn 0.0154 0.9999 -0.0000
vn 0.0163 0.9999 -0.0000
vn 0.0158 0.9999 -0.0000
vn 0.0139 0.9999 -0.0000
vn 0.0138 0.9999 -0.0000
vn 0.0137 0.9999 -0.0000
vn 0.0124 0.9999 -0.0000
vn 0.0123 0.9999 -0.0000
vn 0.0077 1.0000 -0.0000
vn -0.0000 -1.0000 -0.0000
vn -0.0000 1.0000 -0.0000
vn 1.0000 -0.0000 -0.0000
vn 0.0141 -0.0000 -0.9999
vn -1.0000 -0.0000 -0.0000
vn 0.0141 -0.0000 0.9999
f 1/1/1 2/2/2 3/3/3
f 1/1/1 4/4/2 2/2/2
f 1/1/1 5/5/2 4/4/2
f 1/1/1 6/6/4 5/5/2
f 3/3/3 7/7/5 8/8/6
f 2/2/2 9/9/5 7/7/5
f 5/5/2 9/9/5 4/4/2
f 6/6/4 10/10/5 5/5/2
f 8/8/6 11/11/7 12/12/8
f 7/7/5 13/13/7 11/11/7
f 10/10/5 13/13/7 9/9/5
f 14/14/9 15/15/7 10/10/5
f 12/12/8 16/16/10 17/17/11
f 11/11/7 18/18/10 16/16/10
f 15/15/7 18/18/10 13/13/7
f 19/19/12 20/20/10 15/15/7
f 17/17/11 21/21/13 22/22/14
f 16/16/10 23/23/13 21/21/13
f 20/20/10 23/23/13 18/18/10
f 24/24/15 25/25/13 20/20/10
f 22/22/14 26/26/16 27/27/17
f 21/21/13 28/28/16 26/26/16
f 25/25/13 28/28/16 23/23/13
f 29/29/18 30/30/16 25/25/13
f 27/27/17 31/31/19 32/32/20
f 26/26/16 33/33/19 31/31/19
f 30/30/16 33/33/19 28/28/16
f 34/34/21 35/35/19 30/30/16
f 32/32/20 36/36/22 37/37/23
f 31/31/19 38/38/22 36/36/22
f 35/35/19 38/38/22 33/33/19
f 39/39/24 40/40/22 35/35/19
f 37/37/23 41/41/25 42/42/26
f 36/36/22 43/43/25 41/41/25
f 40/40/22 43/43/25 38/38/22
f 44/44/27 45/45/25 40/40/22
f 42/42/26 46/46/28 47/47/29
f 41/41/25 48/48/28 46/46/28
f 45/45/25 48/48/28 43/43/25
f 49/49/30 50/50/28 45/45/25
f 47/47/29 51/51/31 52/52/32
f 46/46/28 53/53/31 51/51/31
f 50/50/28 53/53/31 48/48/28
f 54/54/33 55/55/31 50/50/28
f 52/52/32 56/56/34 57/57/35
f 51/51/31 58/58/34 56/56/34
f 55/55/31 58/58/34 53/53/31
f 59/59/36 60/60/34 55/55/31
f 57/57/35 61/61/37 62/62/38
f 56/56/34 63/63/37 61/61/37
f 60/60/34 63/63/37 58/58/34
f 64/64/39 65/65/37 60/60/34
f 62/62/38 66/66/40 67/67/41
f 61/61/37 68/68/40 66/66/40
f 65/65/37 68/68/40 63/63/37
f 69/69/42 70/70/40 65/65/37
f 67/67/41 71/71/43 72/72/44
f 66/66/40 73/73/43 71/71/43
f 70/70/40 73/73/43 68/68/40
f 74/74/45 75/75/43 70/70/40
f 72/72/44 76/76/46 77/77/47
f 71/71/43 78/78/46 76/76/46
f 75/75/43 78/78/46 73/73/43
f 79/79/48 80/80/46 75/75/43
f 77/77/47 81/81/49 82/82/50
f 76/76/46 83/83/49 81/81/49
f 80/80/46 83/83/49 78/78/46
f 84/84/51 85/85/49 80/80/46
f 82/82/50 86/86/52 87/87/53
f 81/81/49 88/88/52 86/86/52
f 85/85/49 88/88/52 83/83/49
f 89/89/50 90/90/52 85/85/49
f 87/87/53 91/91/54 92/92/55
f 86/86/52 93/93/54 91/91/54
f 90/90/52 93/93/54 88/88/52
f 94/94/53 95/95/54 90/90/52
f 92/92/55 96/96/56 97/97/57
f 91/91/54 98/98/56 96/96/56
f 95/95/54 98/98/56 93/93/54
f 99/99/55 100/100/56 95/95/54
f 97/97/57 101/101/58 102/102/59
f 96/96/56 103/103/58 101/101/58
f 100/100/56 103/103/58 98/98/56
f 104/104/57 105/105/58 100/100/56
f 102/102/59 106/106/60 107/107/61
f 101/101/58 108/108/60 106/106/60
f 105/105/58 108/108/60 103/103/58
f 109/109/59 110/110/60 105/105/58
f 107/107/61 111/111/62 112/112/63
f 106/106/60 113/113/62 111/111/62
f 110/110/60 113/113/62 108/108/60
f 114/114/61 115/115/62 110/110/60
f 112/112/63 116/116/64 117/117/61
f 111/111/62 118/118/64 116/116/64
f 115/115/62 118/118/64 113/113/62
f 119/119/63 120/120/64 115/115/62
f 117/117/61 121/121/65 122/122/66
f 116/116/64 123/123/65 121/121/65
f 120/120/64 123/123/65 118/118/64
f 124/124/61 125/125/65 120/120/64
f 122/122/66 126/126/67 127/127/68
f 121/121/65 128/128/67 126/126/67
f 125/125/65 128/128/67 123/123/65
f 129/129/66 130/130/67 125/125/65
f 127/127/68 131/131/69 132/132/70
f 126/126/67 133/133/69 131/131/69
f 130/130/67 133/133/69 128/128/67
f 134/134/68 135/135/69 130/130/67
f 132/132/70 136/136/71 137/137/72
f 131/131/69 138/138/71 136/136/71
f 135/135/69 138/138/71 133/133/69
f 139/139/70 140/140/71 135/135/69
f 137/137/72 141/141/73 142/142/74
f 136/136/71 143/143/73 141/141/73
f 140/140/71 143/143/73 138/138/71
f 144/144/72 145/145/73 140/140/71
f 142/142/74 146/146/75 147/147/76
f 141/141/73 148/148/75 146/146/75
f 145/145/73 148/148/75 143/143/73
f 149/149/74 150/150/75 145/145/73
f 147/147/76 151/151/77 152/152/78
f 146/146/75 153/153/77 151/151/77
f 150/150/75 153/153/77 148/148/75
f 154/154/76 155/155/77 150/150/75
f 152/152/78 156/156/79 157/157/79
f 151/151/77 158/158/79 156/156/79
f 155/155/77 158/158/79 153/153/77
f 159/159/78 160/160/79 155/155/77
f 157/157/79 161/161/80 162/162/81
f 156/156/79 163/163/80 161/161/80
f 160/160/79 163/163/80 158/158/79
f 164/164/79 165/165/80 160/160/79
f 162/162/81 166/166/82 167/167/83
f 161/161/80 168/168/82 166/166/82
f 165/165/80 168/168/82 163/163/80
f 169/169/81 170/170/82 165/165/80
f 167/167/83 171/171/75 172/172/75
f 166/166/82 173/173/75 171/171/75
f 170/170/82 173/173/75 168/168/82
f 174/174/83 175/175/75 170/170/82
f 172/172/75 176/176/84 177/177/84
f 171/171/75 178/178/84 176/176/84
f 175/175/75 178/178/84 173/173/75
f 179/179/75 180/180/84 175/175/75
f 177/177/84 181/181/85 182/182/85
f 176/176/84 183/183/85 181/181/85
f 180/180/84 183/183/85 178/178/84
f 184/184/84 185/185/85 180/180/84
f 182/182/85 186/186/86 187/187/86
f 181/181/85 188/188/86 186/186/86
f 185/185/85 188/188/86 183/183/85
f 189/189/85 190/190/86 185/185/85
f 187/187/86 191/191/87 192/192/87
f 186/186/86 193/193/87 191/191/87
f 190/190/86 193/193/87 188/188/86
f 194/194/86 195/195/87 190/190/86
f 192/192/87 196/196/88 197/197/88
f 191/191/87 198/198/88 196/196/88
f 195/195/87 198/198/88 193/193/87
f 199/199/87 200/200/88 195/195/87
f 197/197/88 201/201/89 202/202/89
f 196/196/88 203/203/89 201/201/89
f 200/200/88 203/203/89 198/198/88
f 204/204/88 205/205/89 200/200/88
f 202/202/89 206/206/90 207/207/90
f 201/201/89 208/208/90 206/206/90
f 205/205/89 208/208/90 203/203/89
f 209/209/89 210/210/90 205/205/89
f 207/207/90 211/211/91 212/212/91
f 206/206/90 213/213/91 211/211/91
f 210/210/90 213/213/91 208/208/90
f 214/214/90 215/215/91 210/210/90
f 211/211/91 216/216/92 212/212/91
f 213/213/91 217/217/92 211/211/91
f 213/213/91 218/218/92 219/219/92
f 215/215/91 220/220/92 218/218/92
f 217/217/92 221/221/93 216/216/92
f 219/219/92 222/222/93 217/217/92
f 219/219/92 223/223/93 224/224/93
f 218/218/92 225/225/93 223/223/93
f 222/222/93 226/226/94 221/221/93
f 224/224/93 227/227/94 222/222/93
f 224/224/93 228/228/94 229/229/94
f 223/223/93 230/230/94 228/228/94
f 227/227/94 231/231/95 226/226/94
f 229/229/94 232/232/95 227/227/94
f 229/229/94 233/233/95 234/234/95
f 228/228/94 235/235/95 233/233/95
f 232/232/95 236/236/96 231/231/95
f 234/234/95 237/237/96 232/232/95
f 234/234/95 238/238/96 239/239/96
f 233/233/95 240/240/96 238/238/96
f 237/237/96 241/241/97 236/236/96
f 239/239/96 242/242/97 237/237/96
f 239/239/96 243/243/97 244/244/97
f 238/238/96 245/245/97 243/243/97
f 242/242/97 246/246/98 241/241/97
f 244/244/97 247/247/98 242/242/97
f 244/244/97 248/248/98 249/249/98
f 243/243/97 250/250/98 248/248/98
f 247/247/98 251/251/99 246/246/98
f 249/249/98 252/252/99 247/247/98
f 249/249/98 253/253/99 254/254/99
f 248/248/98 255/255/99 253/253/99
f 252/252/99 256/256/100 251/251/99
f 254/254/99 257/257/100 252/252/99
f 254/254/99 258/258/100 259/259/100
f 253/253/99 260/260/100 258/258/100
f 257/257/100 261/261/101 256/256/100
f 259/259/100 262/262/101 257/257/100
f 259/259/100 263/263/101 264/264/101
f 258/258/100 265/265/101 263/263/101
f 262/262/101 266/266/102 261/261/101
f 264/264/101 267/267/102 262/262/101
f 264/264/101 268/268/102 269/269/102
f 263/263/101 270/270/102 268/268/102
f 267/267/102 271/271/103 266/266/102
f 269/269/102 272/272/103 267/267/102
f 269/269/102 273/273/103 274/274/103
f 268/268/102 275/275/103 273/273/103
f 272/272/103 276/276/104 271/271/103
f 274/274/103 277/277/104 272/272/103
f 274/274/103 278/278/104 279/279/104
f 273/273/103 280/280/104 278/278/104
f 277/277/104 281/281/105 276/276/104
f 279/279/104 282/282/105 277/277/104
f 279/279/104 283/283/105 284/284/105
f 278/278/104 285/285/105 283/283/105
f 282/282/105 286/286/106 281/281/105
f 284/284/105 287/287/106 282/282/105
f 284/284/105 288/288/106 289/289/106
f 283/283/105 290/290/106 288/288/106
f 287/287/106 291/291/107 286/286/106
f 289/289/106 292/292/107 287/287/106
f 289/289/106 293/293/107 294/294/107
f 288/288/106 295/295/107 293/293/107
f 292/292/107 296/296/108 291/291/107
f 294/294/107 297/297/108 292/292/107
f 294/294/107 298/298/108 299/299/108
f 293/293/107 300/300/108 298/298/108
f 297/297/108 301/301/109 296/296/108
f 299/299/108 302/302/109 297/297/108
f 299/299/108 303/303/109 304/304/109
f 298/298/108 305/305/109 303/303/109
f 302/302/109 306/306/110 301/301/109
f 304/304/109 307/307/110 302/302/109
f 304/304/109 308/308/110 309/309/110
f 303/303/109 310/310/110 308/308/110
f 307/307/110 311/311/111 306/306/110
f 309/309/110 312/312/112 307/307/110
f 309/309/110 313/313/112 314/314/112
f 308/308/110 315/315/111 313/313/112
f 312/312/112 316/316/113 311/311/111
f 314/314/112 317/317/113 312/312/112
f 314/314/112 318/318/113 319/319/113
f 313/313/112 320/320/113 318/318/113
f 317/317/113 321/321/114 316/316/113
f 319/319/113 322/322/115 317/317/113
f 319/319/113 323/323/115 324/324/115
f 318/318/113 325/325/114 323/323/115
f 322/322/115 326/326/116 321/321/114
f 324/324/115 327/327/116 322/322/115
f 324/324/115 328/328/116 329/329/116
f 323/323/115 330/330/116 328/328/116
f 327/327/116 331/331/101 326/326/116
f 329/329/116 332/332/101 327/327/116
f 329/329/116 333/333/101 334/334/101
f 328/328/116 335/335/101 333/333/101
f 336/336/117 337/337/117 338/338/117
f 339/339/118 340/340/118 341/341/118
f 342/342/119 341/343/119 337/344/119
f 336/345/120 339/346/120 342/347/120
f 338/348/121 343/349/121 336/350/121
f 337/351/122 340/352/122 338/353/122
f 3/3/3 2/2/2 7/7/5
f 2/2/2 4/4/2 9/9/5
f 5/5/2 10/10/5 9/9/5
f 6/6/4 14/14/9 10/10/5
f 8/8/6 7/7/5 11/11/7
f 7/7/5 9/9/5 13/13/7
f 10/10/5 15/15/7 13/13/7
f 14/14/9 19/19/12 15/15/7
f 12/12/8 11/11/7 16/16/10
f 11/11/7 13/13/7 18/18/10
f 15/15/7 20/20/10 18/18/10
f 19/19/12 24/24/15 20/20/10
f 17/17/11 16/16/10 21/21/13
f 16/16/10 18/18/10 23/23/13
f 20/20/10 25/25/13 23/23/13
f 24/24/15 29/29/18 25/25/13
f 22/22/14 21/21/13 26/26/16
f 21/21/13 23/23/13 28/28/16
f 25/25/13 30/30/16 28/28/16
f 29/29/18 34/34/21 30/30/16
f 27/27/17 26/26/16 31/31/19
f 26/26/16 28/28/16 33/33/19
f 30/30/16 35/35/19 33/33/19
f 34/34/21 39/39/24 35/35/19
f 32/32/20 31/31/19 36/36/22
f 31/31/19 33/33/19 38/38/22
f 35/35/19 40/40/22 38/38/22
f 39/39/24 44/44/27 40/40/22
f 37/37/23 36/36/22 41/41/25
f 36/36/22 38/38/22 43/43/25
f 40/40/22 45/45/25 43/43/25
f 44/44/27 49/49/30 45/45/25
f 42/42/26 41/41/25 46/46/28
f 41/41/25 43/43/25 48/48/28
f 45/45/25 50/50/28 48/48/28
f 49/49/30 54/54/33 50/50/28
f 47/47/29 46/46/28 51/51/31
f 46/46/28 48/48/28 53/53/31
f 50/50/28 55/55/31 53/53/31
f 54/54/33 59/59/36 55/55/31
f 52/52/32 51/51/31 56/56/34
f 51/51/31 53/53/31 58/58/34
f 55/55/31 60/60/34 58/58/34
f 59/59/36 64/64/39 60/60/34
f 57/57/35 56/56/34 61/61/37
f 56/56/34 58/58/34 63/63/37
f 60/60/34 65/65/37 63/63/37
f 64/64/39 69/69/42 65/65/37
f 62/62/38 61/61/37 66/66/40
f 61/61/37 63/63/37 68/68/40
f 65/65/37 70/70/40 68/68/40
f 69/69/42 74/74/45 70/70/40
f 67/67/41 66/66/40 71/71/43
f 66/66/40 68/68/40 73/73/43
f 70/70/40 75/75/43 73/73/43
f 74/74/45 79/79/48 75/75/43
f 72/72/44 71/71/43 76/76/46
f 71/71/43 73/73/43 78/78/46
f 75/75/43 80/80/46 78/78/46
f 79/79/48 84/84/51 80/80/46
f 77/77/47 76/76/46 81/81/49
f 76/76/46 78/78/46 83/83/49
f 80/80/46 85/85/49 83/83/49
f 84/84/51 89/89/50 85/85/49
f 82/82/50 81/81/49 86/86/52
f 81/81/49 83/83/49 88/88/52
f 85/85/49 90/90/52 88/88/52
f 89/89/50 94/94/53 90/90/52
f 87/87/53 86/86/52 91/91/54
f 86/86/52 88/88/52 93/93/54
f 90/90/52 95/95/54 93/93/54
f 94/94/53 99/99/55 95/95/54
f 92/92/55 91/91/54 96/96/56
f 91/91/54 93/93/54 98/98/56
f 95/95/54 100/100/56 98/98/56
f 99/99/55 104/104/57 100/100/56
f 97/97/57 96/96/56 101/101/58
f 96/96/56 98/98/56 103/103/58
f 100/100/56 105/105/58 103/103/58
f 104/104/57 109/109/59 105/105/58
f 102/102/59 101/101/58 106/106/60
f 101/101/58 103/103/58 108/108/60
f 105/105/58 110/110/60 108/108/60
f 109/109/59 114/114/61 110/110/60
f 107/107/61 106/106/60 111/111/62
f 106/106/60 108/108/60 113/113/62
f 110/110/60 115/115/62 113/113/62
f 114/114/61 119/119/63 115/115/62
f 112/112/63 111/111/62 116/116/64
f 111/111/62 113/113/62 118/118/64
f 115/115/62 120/120/64 118/118/64
f 119/119/63 124/124/61 120/120/64
f 117/117/61 116/116/64 121/121/65
f 116/116/64 118/118/64 123/123/65
f 120/120/64 125/125/65 123/123/65
f 124/124/61 129/129/66 125/125/65
f 122/122/66 121/121/65 126/126/67
f 121/121/65 123/123/65 128/128/67
f 125/125/65 130/130/67 128/128/67
f 129/129/66 134/134/68 130/130/67
f 127/127/68 126/126/67 131/131/69
f 126/126/67 128/128/67 133/133/69
f 130/130/67 135/135/69 133/133/69
f 134/134/68 139/139/70 135/135/69
f 132/132/70 131/131/69 136/136/71
f 131/131/69 133/133/69 138/138/71
f 135/135/69 140/140/71 138/138/71
f 139/139/70 144/144/72 140/140/71
f 137/137/72 136/136/71 141/141/73
f 136/136/71 138/138/71 143/143/73
f 140/140/71 145/145/73 143/143/73
f 144/144/72 149/149/74 145/145/73
f 142/142/74 141/141/73 146/146/75
f 141/141/73 143/143/73 148/148/75
f 145/145/73 150/150/75 148/148/75
f 149/149/74 154/154/76 150/150/75
f 147/147/76 146/146/75 151/151/77
f 146/146/75 148/148/75 153/153/77
f 150/150/75 155/155/77 153/153/77
f 154/154/76 159/159/78 155/155/77
f 152/152/78 151/151/77 156/156/79
f 151/151/77 153/153/77 158/158/79
f 155/155/77 160/160/79 158/158/79
f 159/159/78 164/164/79 160/160/79
f 157/157/79 156/156/79 161/161/80
f 156/156/79 158/158/79 163/163/80
f 160/160/79 165/165/80 163/163/80
f 164/164/79 169/169/81 165/165/80
f 162/162/81 161/161/80 166/166/82
f 161/161/80 163/163/80 168/168/82
f 165/165/80 170/170/82 168/168/82
f 169/169/81 174/174/83 170/170/82
f 167/167/83 166/166/82 171/171/75
f 166/166/82 168/168/82 173/173/75
f 170/170/82 175/175/75 173/173/75
f 174/174/83 179/179/75 175/175/75
f 172/172/75 171/171/75 176/176/84
f 171/171/75 173/173/75 178/178/84
f 175/175/75 180/180/84 178/178/84
f 179/179/75 184/184/84 180/180/84
f 177/177/84 176/176/84 181/181/85
f 176/176/84 178/178/84 183/183/85
f 180/180/84 185/185/85 183/183/85
f 184/184/84 189/189/85 185/185/85
f 182/182/85 181/181/85 186/186/86
f 181/181/85 183/183/85 188/188/86
f 185/185/85 190/190/86 188/188/86
f 189/189/85 194/194/86 190/190/86
f 187/187/86 186/186/86 191/191/87
f 186/186/86 188/188/86 193/193/87
f 190/190/86 195/195/87 193/193/87
f 194/194/86 199/199/87 195/195/87
f 192/192/87 191/191/87 196/196/88
f 191/191/87 193/193/87 198/198/88
f 195/195/87 200/200/88 198/198/88
f 199/199/87 204/204/88 200/200/88
f 197/197/88 196/196/88 201/201/89
f 196/196/88 198/198/88 203/203/89
f 200/200/88 205/205/89 203/203/89
f 204/204/88 209/209/89 205/205/89
f 202/202/89 201/201/89 206/206/90
f 201/201/89 203/203/89 208/208/90
f 205/205/89 210/210/90 208/208/90
f 209/209/89 214/214/90 210/210/90
f 207/207/90 206/206/90 211/211/91
f 206/206/90 208/208/90 213/213/91
f 210/210/90 215/215/91 213/213/91
f 214/214/90 344/354/91 215/215/91
f 211/211/91 217/217/92 216/216/92
f 213/213/91 219/219/92 217/217/92
f 213/213/91 215/215/91 218/218/92
f 215/215/91 344/354/91 220/220/92
f 217/217/92 222/222/93 221/221/93
f 219/219/92 224/224/93 222/222/93
f 219/219/92 218/218/92 223/223/93
f 218/218/92 220/220/92 225/225/93
f 222/222/93 227/227/94 226/226/94
f 224/224/93 229/229/94 227/227/94
f 224/224/93 223/223/93 228/228/94
f 223/223/93 225/225/93 230/230/94
f 227/227/94 232/232/95 231/231/95
f 229/229/94 234/234/95 232/232/95
f 229/229/94 228/228/94 233/233/95
f 228/228/94 230/230/94 235/235/95
f 232/232/95 237/237/96 236/236/96
f 234/234/95 239/239/96 237/237/96
f 234/234/95 233/233/95 238/238/96
f 233/233/95 235/235/95 240/240/96
f 237/237/96 242/242/97 241/241/97
f 239/239/96 244/244/97 242/242/97
f 239/239/96 238/238/96 243/243/97
f 238/238/96 240/240/96 245/245/97
f 242/242/97 247/247/98 246/246/98
f 244/244/97 249/249/98 247/247/98
f 244/244/97 243/243/97 248/248/98
f 243/243/97 245/245/97 250/250/98
f 247/247/98 252/252/99 251/251/99
f 249/249/98 254/254/99 252/252/99
f 249/249/98 248/248/98 253/253/99
f 248/248/98 250/250/98 255/255/99
f 252/252/99 257/257/100 256/256/100
f 254/254/99 259/259/100 257/257/100
f 254/254/99 253/253/99 258/258/100
f 253/253/99 255/255/99 260/260/100
f 257/257/100 262/262/101 261/261/101
f 259/259/100 264/264/101 262/262/101
f 259/259/100 258/258/100 263/263/101
f 258/258/100 260/260/100 265/265/101
f 262/262/101 267/267/102 266/266/102
f 264/264/101 269/269/102 267/267/102
f 264/264/101 263/263/101 268/268/102
f 263/263/101 265/265/101 270/270/102
f 267/267/102 272/272/103 271/271/103
f 269/269/102 274/274/103 272/272/103
f 269/269/102 268/268/102 273/273/103
f 268/268/102 270/270/102 275/275/103
f 272/272/103 277/277/104 276/276/104
f 274/274/103 279/279/104 277/277/104
f 274/274/103 273/273/103 278/278/104
f 273/273/103 275/275/103 280/280/104
f 277/277/104 282/282/105 281/281/105
f 279/279/104 284/284/105 282/282/105
f 279/279/104 278/278/104 283/283/105
f 278/278/104 280/280/104 285/285/105
f 282/282/105 287/287/106 286/286/106
f 284/284/105 289/289/106 287/287/106
f 284/284/105 283/283/105 288/288/106
f 283/283/105 285/285/105 290/290/106
f 287/287/106 292/292/107 291/291/107
f 289/289/106 294/294/107 292/292/107
f 289/289/106 288/288/106 293/293/107
f 288/288/106 290/290/106 295/295/107
f 292/292/107 297/297/108 296/296/108
f 294/294/107 299/299/108 297/297/108
f 294/294/107 293/293/107 298/298/108
f 293/293/107 295/295/107 300/300/108
f 297/297/108 302/302/109 301/301/109
f 299/299/108 304/304/109 302/302/109
f 299/299/108 298/298/108 303/303/109
f 298/298/108 300/300/108 305/305/109
f 302/302/109 307/307/110 306/306/110
f 304/304/109 309/309/110 307/307/110
f 304/304/109 303/303/109 308/308/110
f 303/303/109 305/305/109 310/310/110
f 307/307/110 312/312/112 311/311/111
f 309/309/110 314/314/112 312/312/112
f 309/309/110 308/308/110 313/313/112
f 308/308/110 310/310/110 315/315/111
f 312/312/112 317/317/113 316/316/113
f 314/314/112 319/319/113 317/317/113
f 314/314/112 313/313/112 318/318/113
f 313/313/112 315/315/111 320/320/113
f 317/317/113 322/322/115 321/321/114
f 319/319/113 324/324/115 322/322/115
f 319/319/113 318/318/113 323/323/115
f 318/318/113 320/320/113 325/325/114
f 322/322/115 327/327/116 326/326/116
f 324/324/115 329/329/116 327/327/116
f 324/324/115 323/323/115 328/328/116
f 323/323/115 325/325/114 330/330/116
f 327/327/116 332/332/101 331/331/101
f 329/329/116 334/334/101 332/332/101
f 329/329/116 328/328/116 333/333/101
f 328/328/116 330/330/116 335/335/101
f 336/336/117 342/355/117 337/337/117
f 339/339/118 343/356/118 340/340/118
f 342/342/119 339/357/119 341/343/119
f 336/345/120 343/358/120 339/346/120
f 338/348/121 340/359/121 343/349/121
f 337/351/122 341/360/122 340/352/122
