# JIB VI — the orange parts, as a standalone mesh.
#
# One file per material rather than one library addressed with `#group`:
# selecting a group recentres it on its own bounding box, which takes a
# model apart when the library IS one model. A whole-file import keeps
# the authored coordinates. See loom_asset/src/mesh.rs:268.
v -1.015000 5.279584 -0.179584
v 1.885000 5.520000 -0.080000
v -1.015000 5.520000 -0.080000
v -1.015000 5.180000 -0.420000
v 1.885000 5.279584 -0.179584
v -1.015000 5.279584 -0.660416
v 1.885000 5.180000 -0.420000
v -1.015000 5.520000 -0.760000
v 1.885000 5.279584 -0.660416
v -1.015000 5.760416 -0.660416
v 1.885000 5.520000 -0.760000
v -1.015000 5.860000 -0.420000
v 1.885000 5.760416 -0.660416
v -1.015000 5.760416 -0.179584
v 1.885000 5.860000 -0.420000
v 1.885000 5.760416 -0.179584
v -1.015000 5.279584 0.660416
v 1.885000 5.520000 0.760000
v -1.015000 5.520000 0.760000
v -1.015000 5.180000 0.420000
v 1.885000 5.279584 0.660416
v -1.015000 5.279584 0.179584
v 1.885000 5.180000 0.420000
v -1.015000 5.520000 0.080000
v 1.885000 5.279584 0.179584
v -1.015000 5.760416 0.179584
v 1.885000 5.520000 0.080000
v -1.015000 5.860000 0.420000
v 1.885000 5.760416 0.179584
v -1.015000 5.760416 0.660416
v 1.885000 5.860000 0.420000
v 1.885000 5.760416 0.660416
v 0.643754 3.508397 2.680000
v 0.575000 3.720000 2.770000
v 0.575000 3.720000 2.680000
v 0.823754 3.377620 2.680000
v 0.643754 3.508397 2.770000
v 1.046246 3.377620 2.680000
v 0.823754 3.377620 2.770000
v 1.226246 3.508397 2.680000
v 1.046246 3.377620 2.770000
v 1.295000 3.720000 2.680000
v 1.226246 3.508397 2.770000
v 1.226246 3.931603 2.680000
v 1.295000 3.720000 2.770000
v 1.046246 4.062380 2.680000
v 1.226246 3.931603 2.770000
v 0.823754 4.062380 2.680000
v 1.046246 4.062380 2.770000
v 0.643754 3.931603 2.680000
v 0.823754 4.062380 2.770000
v 0.643754 3.931603 2.770000
vt 0.518640 0.233159
vt 0.520270 0.214385
vt 0.520270 0.233180
vt 0.520202 0.165131
vt 0.521760 0.146305
vt 0.521760 0.165123
vt 0.518639 0.165123
vt 0.520202 0.146313
vt 0.520049 0.267205
vt 0.521703 0.248410
vt 0.521703 0.267181
vt 0.518639 0.267138
vt 0.520049 0.248435
vt 0.520198 0.097085
vt 0.521760 0.078296
vt 0.521760 0.097105
vt 0.518639 0.097105
vt 0.520198 0.078275
vt 0.521733 0.214343
vt 0.521733 0.233139
vt 0.597889 0.379179
vt 0.597889 0.377501
vt 0.601799 0.379049
vt 0.599027 0.418857
vt 0.597889 0.415952
vt 0.600636 0.414875
vt 0.518639 0.199134
vt 0.520270 0.180360
vt 0.520270 0.199156
vt 0.520202 0.131118
vt 0.521760 0.112293
vt 0.521760 0.131110
vt 0.518639 0.131110
vt 0.520202 0.112300
vt 0.520049 0.301230
vt 0.521703 0.282435
vt 0.521703 0.301205
vt 0.518639 0.301163
vt 0.520049 0.282459
vt 0.520198 0.063067
vt 0.521760 0.044278
vt 0.521760 0.063088
vt 0.518639 0.063088
vt 0.520198 0.044258
vt 0.521733 0.180318
vt 0.521733 0.199114
vt 0.599034 0.361035
vt 0.597889 0.359887
vt 0.597889 0.358209
vt 0.599027 0.399561
vt 0.597889 0.396655
vt 0.600636 0.395578
vt 0.293760 0.848527
vt 0.293068 0.847154
vt 0.293624 0.847155
vt 0.835807 0.283929
vt 0.836388 0.285087
vt 0.835804 0.285087
vt 0.835807 0.282485
vt 0.836391 0.283929
vt 0.835804 0.281307
vt 0.836391 0.282485
vt 0.277328 0.847154
vt 0.277735 0.848526
vt 0.277183 0.848526
vt 0.277183 0.845780
vt 0.277881 0.847154
vt 0.836388 0.301415
vt 0.835806 0.300274
vt 0.836390 0.300274
vt 0.836388 0.302858
vt 0.835804 0.301415
vt 0.836390 0.304052
vt 0.835804 0.302858
vt 0.293203 0.845780
vt 0.293760 0.845780
vt 0.432403 0.597324
vt 0.434582 0.595689
vt 0.435929 0.599895
vt 0.413635 0.599877
vt 0.412789 0.597273
vt 0.415003 0.595689
vt 0.518640 0.214363
vt 0.518639 0.146305
vt 0.518639 0.248368
vt 0.518639 0.078296
vt 0.599034 0.376277
vt 0.600654 0.376223
vt 0.601799 0.377371
vt 0.600654 0.380274
vt 0.599034 0.380328
vt 0.601774 0.416104
vt 0.601774 0.417780
vt 0.600636 0.418920
vt 0.597889 0.417628
vt 0.599027 0.414811
vt 0.518639 0.180338
vt 0.518639 0.112293
vt 0.518639 0.282392
vt 0.518639 0.044278
vt 0.599034 0.356985
vt 0.600654 0.356931
vt 0.601799 0.358079
vt 0.601799 0.359757
vt 0.600654 0.360981
vt 0.601774 0.396808
vt 0.601774 0.398484
vt 0.600636 0.399624
vt 0.597889 0.398331
vt 0.599027 0.395515
vt 0.293203 0.848526
vt 0.836388 0.281307
vt 0.277735 0.845780
vt 0.835806 0.304052
vt 0.433236 0.599923
vt 0.432403 0.598765
vt 0.433236 0.596148
vt 0.435929 0.596120
vt 0.436761 0.597278
vt 0.436761 0.598719
vt 0.434582 0.600354
vt 0.417216 0.597314
vt 0.417216 0.598750
vt 0.416371 0.599903
vt 0.415003 0.600334
vt 0.412789 0.598708
vt 0.413635 0.596119
vt 0.416371 0.596145
vn -0.0000 -0.7071 0.7071
vn -0.0000 -0.3827 0.9239
vn -0.0000 -0.9239 0.3827
vn -0.0000 -0.7071 -0.7071
vn -0.0000 -0.9239 -0.3827
vn -0.0000 -0.3827 -0.9239
vn -0.0000 0.7071 -0.7071
vn -0.0000 0.3827 -0.9239
vn -0.0000 0.9239 -0.3827
vn -0.0000 0.7071 0.7071
vn -0.0000 0.9239 0.3827
vn -0.0000 0.3827 0.9239
vn -1.0000 -0.0000 -0.0000
vn 1.0000 -0.0000 -0.0000
vn -0.8090 -0.5878 -0.0000
vn -0.3090 -0.9511 -0.0000
vn 0.3090 -0.9511 -0.0000
vn 0.8090 -0.5878 -0.0000
vn 0.8090 0.5878 -0.0000
vn 0.3090 0.9511 -0.0000
vn -0.3090 0.9511 -0.0000
vn -0.8090 0.5878 -0.0000
vn -0.0000 -0.0000 -1.0000
vn -0.0000 -0.0000 1.0000
f 1/1/1 2/2/2 3/3/2
f 4/4/3 5/5/1 1/6/1
f 6/7/4 7/8/5 4/4/5
f 8/9/6 9/10/4 6/11/4
f 10/12/7 11/13/8 8/9/8
f 12/14/9 13/15/7 10/16/7
f 14/17/10 15/18/11 12/14/11
f 3/3/12 16/19/10 14/20/10
f 1/21/13 3/22/13 8/23/13
f 9/24/14 13/25/14 16/26/14
f 17/27/1 18/28/2 19/29/2
f 20/30/3 21/31/1 17/32/1
f 22/33/4 23/34/5 20/30/5
f 24/35/6 25/36/4 22/37/4
f 26/38/7 27/39/8 24/35/8
f 28/40/9 29/41/7 26/42/7
f 30/43/10 31/44/11 28/40/11
f 19/29/12 32/45/10 30/46/10
f 20/47/13 17/48/13 19/49/13
f 25/50/14 29/51/14 32/52/14
f 33/53/15 34/54/13 35/55/13
f 36/56/16 37/57/15 33/58/15
f 38/59/17 39/60/16 36/56/16
f 40/61/18 41/62/17 38/59/17
f 42/63/14 43/64/18 40/65/18
f 44/66/19 45/67/14 42/63/14
f 46/68/20 47/69/19 44/70/19
f 48/71/21 49/72/20 46/68/20
f 50/73/22 51/74/21 48/71/21
f 35/55/13 52/75/22 50/76/22
f 48/77/23 44/78/23 36/79/23
f 41/80/24 45/81/24 49/82/24
f 1/1/1 5/83/1 2/2/2
f 4/4/3 7/8/3 5/5/1
f 6/7/4 9/84/4 7/8/5
f 8/9/6 11/13/6 9/10/4
f 10/12/7 13/85/7 11/13/8
f 12/14/9 15/18/9 13/15/7
f 14/17/10 16/86/10 15/18/11
f 3/3/12 2/2/12 16/19/10
f 3/22/13 14/87/13 8/23/13
f 14/87/13 12/88/13 8/23/13
f 12/88/13 10/89/13 8/23/13
f 8/23/13 6/90/13 4/91/13
f 4/91/13 1/21/13 8/23/13
f 16/26/14 2/92/14 5/93/14
f 5/93/14 7/94/14 9/24/14
f 9/24/14 11/95/14 13/25/14
f 13/25/14 15/96/14 16/26/14
f 16/26/14 5/93/14 9/24/14
f 17/27/1 21/97/1 18/28/2
f 20/30/3 23/34/3 21/31/1
f 22/33/4 25/98/4 23/34/5
f 24/35/6 27/39/6 25/36/4
f 26/38/7 29/99/7 27/39/8
f 28/40/9 31/44/9 29/41/7
f 30/43/10 32/100/10 31/44/11
f 19/29/12 18/28/12 32/45/10
f 19/49/13 30/101/13 28/102/13
f 28/102/13 26/103/13 19/49/13
f 26/103/13 24/104/13 19/49/13
f 24/104/13 22/105/13 19/49/13
f 22/105/13 20/47/13 19/49/13
f 32/52/14 18/106/14 21/107/14
f 21/107/14 23/108/14 25/50/14
f 25/50/14 27/109/14 29/51/14
f 29/51/14 31/110/14 32/52/14
f 32/52/14 21/107/14 25/50/14
f 33/53/15 37/111/15 34/54/13
f 36/56/16 39/60/16 37/57/15
f 38/59/17 41/62/17 39/60/16
f 40/61/18 43/112/18 41/62/17
f 42/63/14 45/67/14 43/64/18
f 44/66/19 47/113/19 45/67/14
f 46/68/20 49/72/20 47/69/19
f 48/71/21 51/74/21 49/72/20
f 50/73/22 52/114/22 51/74/21
f 35/55/13 34/54/13 52/75/22
f 35/115/23 50/116/23 48/77/23
f 48/77/23 46/117/23 44/78/23
f 44/78/23 42/118/23 40/119/23
f 40/119/23 38/120/23 44/78/23
f 38/120/23 36/79/23 44/78/23
f 36/79/23 33/121/23 35/115/23
f 35/115/23 48/77/23 36/79/23
f 52/122/24 34/123/24 37/124/24
f 37/124/24 39/125/24 52/122/24
f 39/125/24 41/80/24 52/122/24
f 41/80/24 43/126/24 45/81/24
f 45/81/24 47/127/24 49/82/24
f 49/82/24 51/128/24 41/80/24
f 51/128/24 52/122/24 41/80/24
