# JIB VI - the gate parts, as a standalone mesh.
#
# One file per material rather than one library addressed with `#group`:
# selecting a group recentres it on its own bounding box, which takes a
# model apart when the library IS one model. A whole-file import keeps
# the authored coordinates. See loom_asset/src/mesh.rs:268.
v -9.410000 0.872000 -2.238000
v -9.460000 0.872000 -1.450000
v -9.460000 0.872000 -2.238000
v -9.410000 1.568000 -1.450000
v -9.460000 1.568000 -2.238000
v -9.460000 1.568000 -1.450000
v -9.410000 0.872000 -1.450000
v -9.410000 1.568000 -2.238000
v -9.398000 0.872000 -2.238000
v -9.472000 0.872000 -1.450000
v -9.472000 0.872000 -2.238000
v -9.398000 0.935000 -1.450000
v -9.472000 0.935000 -2.238000
v -9.472000 0.935000 -1.450000
v -9.398000 0.872000 -1.450000
v -9.398000 0.935000 -2.238000
v -9.398000 1.505000 -2.238000
v -9.472000 1.505000 -1.450000
v -9.472000 1.505000 -2.238000
v -9.398000 1.568000 -1.450000
v -9.472000 1.568000 -2.238000
v -9.472000 1.568000 -1.450000
v -9.398000 1.505000 -1.450000
v -9.398000 1.568000 -2.238000
v -9.398000 0.872000 -1.525000
v -9.472000 0.872000 -1.525000
v -9.472000 1.568000 -1.525000
v -9.398000 1.568000 -1.525000
v -9.472000 0.872000 -2.163000
v -9.398000 1.568000 -2.163000
v -9.472000 1.568000 -2.163000
v -9.398000 0.872000 -2.163000
v -9.398000 1.224783 -2.073056
v -9.340000 1.240000 -2.062000
v -9.398000 1.240000 -2.062000
v -9.398000 1.230595 -2.090944
v -9.340000 1.224783 -2.073056
v -9.398000 1.249405 -2.090944
v -9.340000 1.230595 -2.090944
v -9.398000 1.255217 -2.073056
v -9.340000 1.249405 -2.090944
v -9.340000 1.255217 -2.073056
v -9.398000 1.224783 -1.893056
v -9.340000 1.240000 -1.882000
v -9.398000 1.240000 -1.882000
v -9.398000 1.230595 -1.910944
v -9.340000 1.224783 -1.893056
v -9.398000 1.249405 -1.910944
v -9.340000 1.230595 -1.910944
v -9.398000 1.255217 -1.893056
v -9.340000 1.249405 -1.910944
v -9.340000 1.255217 -1.893056
v -9.348500 1.225278 -2.098000
v -9.357000 1.240000 -1.878000
v -9.357000 1.240000 -2.098000
v -9.331500 1.225278 -2.098000
v -9.348500 1.225278 -1.878000
v -9.323000 1.240000 -2.098000
v -9.331500 1.225278 -1.878000
v -9.331500 1.254722 -2.098000
v -9.323000 1.240000 -1.878000
v -9.348500 1.254722 -2.098000
v -9.331500 1.254722 -1.878000
v -9.348500 1.254722 -1.878000
v -9.432516 0.960000 -1.463000
v -9.410000 1.060000 -1.476000
v -9.410000 0.960000 -1.476000
v -9.432516 0.960000 -1.437000
v -9.432516 1.060000 -1.463000
v -9.410000 0.960000 -1.424000
v -9.432516 1.060000 -1.437000
v -9.387484 0.960000 -1.437000
v -9.410000 1.060000 -1.424000
v -9.387484 0.960000 -1.463000
v -9.387484 1.060000 -1.437000
v -9.387484 1.060000 -1.463000
v -9.432516 1.440000 -1.463000
v -9.410000 1.540000 -1.476000
v -9.410000 1.440000 -1.476000
v -9.432516 1.440000 -1.437000
v -9.432516 1.540000 -1.463000
v -9.410000 1.440000 -1.424000
v -9.432516 1.540000 -1.437000
v -9.387484 1.440000 -1.437000
v -9.410000 1.540000 -1.424000
v -9.387484 1.440000 -1.463000
v -9.387484 1.540000 -1.437000
v -9.387484 1.540000 -1.463000
vt 0.215038 0.448013
vt 0.214955 0.449333
vt 0.214955 0.448013
vt 0.224727 0.448013
vt 0.224643 0.449333
vt 0.224643 0.448013
vt 0.151232 0.558239
vt 0.151315 0.557075
vt 0.151315 0.558239
vt 0.378920 0.038609
vt 0.380086 0.039896
vt 0.378920 0.039898
vt 0.160920 0.558239
vt 0.161003 0.557075
vt 0.161003 0.558240
vt 0.276524 0.379231
vt 0.275358 0.377910
vt 0.276524 0.377912
vt 0.442778 0.402948
vt 0.442654 0.404269
vt 0.442654 0.402948
vt 0.442778 0.392023
vt 0.442654 0.393344
vt 0.442654 0.392023
vt 0.549991 0.440454
vt 0.550115 0.440349
vt 0.550115 0.440455
vt 0.452970 0.037064
vt 0.453076 0.038352
vt 0.452970 0.038353
vt 0.549991 0.451224
vt 0.550114 0.451120
vt 0.550114 0.451225
vt 0.096370 0.449333
vt 0.096265 0.448013
vt 0.096370 0.448013
vt 0.442778 0.370173
vt 0.442654 0.371493
vt 0.442654 0.370173
vt 0.442778 0.381098
vt 0.442654 0.382418
vt 0.442654 0.381098
vt 0.549991 0.439395
vt 0.550115 0.439291
vt 0.550115 0.439396
vt 0.452970 0.047958
vt 0.453076 0.049246
vt 0.452970 0.049246
vt 0.549991 0.450165
vt 0.550114 0.450060
vt 0.550114 0.450166
vt 0.106080 0.449333
vt 0.105975 0.448013
vt 0.106080 0.448013
vt 0.442778 0.404143
vt 0.442654 0.404143
vt 0.442654 0.381224
vt 0.549991 0.408144
vt 0.550114 0.406978
vt 0.550114 0.408144
vt 0.549991 0.461995
vt 0.550114 0.460831
vt 0.550114 0.461996
vt 0.549991 0.386603
vt 0.550117 0.385437
vt 0.550117 0.386603
vt 0.442654 0.403074
vt 0.442778 0.382293
vt 0.442654 0.382293
vt 0.549991 0.429685
vt 0.550115 0.428521
vt 0.550115 0.429685
vt 0.549991 0.418915
vt 0.550114 0.417750
vt 0.550114 0.418916
vt 0.549991 0.397373
vt 0.550117 0.396208
vt 0.550117 0.397373
vt 0.477717 0.888787
vt 0.477744 0.888692
vt 0.477744 0.888788
vt 0.756850 0.908166
vt 0.756821 0.908264
vt 0.756821 0.908166
vt 0.708703 0.908166
vt 0.708671 0.908263
vt 0.708671 0.908166
vt 0.785722 0.908263
vt 0.785752 0.908166
vt 0.785752 0.908263
vt 0.477768 0.888690
vt 0.477768 0.888787
vt 0.159055 0.927608
vt 0.159055 0.927639
vt 0.159025 0.927649
vt 0.534815 0.927649
vt 0.534786 0.927639
vt 0.534786 0.927607
vt 0.487373 0.888787
vt 0.487400 0.888692
vt 0.487400 0.888789
vt 0.766485 0.908166
vt 0.766455 0.908264
vt 0.766455 0.908166
vt 0.718339 0.908166
vt 0.718307 0.908263
vt 0.718307 0.908167
vt 0.795357 0.908263
vt 0.795387 0.908166
vt 0.795387 0.908263
vt 0.487424 0.888690
vt 0.487424 0.888787
vt 0.168690 0.927649
vt 0.168660 0.927639
vt 0.168660 0.927607
vt 0.544456 0.927648
vt 0.544438 0.927624
vt 0.544456 0.927598
vt 0.540438 0.692044
vt 0.540413 0.692412
vt 0.540413 0.692044
vt 0.141011 0.702078
vt 0.140983 0.702446
vt 0.140983 0.702078
vt 0.699165 0.202683
vt 0.699140 0.203040
vt 0.699140 0.202680
vt 0.699190 0.202680
vt 0.699165 0.203043
vt 0.150616 0.702446
vt 0.150645 0.702078
vt 0.150645 0.702446
vt 0.540388 0.692412
vt 0.540388 0.692044
vt 0.689408 0.917933
vt 0.689408 0.917905
vt 0.689432 0.917891
vt 0.631619 0.917905
vt 0.631619 0.917933
vt 0.631569 0.917933
vt 0.218197 0.800897
vt 0.218238 0.800728
vt 0.218238 0.800896
vt 0.596559 0.830319
vt 0.596603 0.830152
vt 0.596603 0.830319
vt 0.198876 0.800896
vt 0.198912 0.800730
vt 0.198912 0.800897
vt 0.198837 0.800897
vt 0.198876 0.800728
vt 0.625553 0.830319
vt 0.625596 0.830152
vt 0.625596 0.830319
vt 0.218272 0.800730
vt 0.218272 0.800897
vt 0.091925 0.878968
vt 0.091963 0.878947
vt 0.092001 0.878968
vt 0.101606 0.878968
vt 0.101643 0.878946
vt 0.101681 0.879012
vt 0.227876 0.800897
vt 0.227917 0.800728
vt 0.227917 0.800896
vt 0.606208 0.830319
vt 0.606251 0.830152
vt 0.606251 0.830319
vt 0.208556 0.800896
vt 0.208592 0.800730
vt 0.208592 0.800897
vt 0.208517 0.800897
vt 0.208556 0.800728
vt 0.635201 0.830319
vt 0.635243 0.830152
vt 0.635243 0.830320
vt 0.227951 0.800730
vt 0.227951 0.800897
vt 0.111324 0.878947
vt 0.111361 0.878968
vt 0.111361 0.879012
vt 0.120966 0.878968
vt 0.121004 0.878946
vt 0.121042 0.879012
vt 0.215038 0.449333
vt 0.224727 0.449333
vt 0.151232 0.557075
vt 0.380086 0.038608
vt 0.160920 0.557075
vt 0.275358 0.379230
vt 0.442778 0.404269
vt 0.442778 0.393344
vt 0.549991 0.440349
vt 0.453076 0.037064
vt 0.549991 0.451119
vt 0.096265 0.449333
vt 0.442778 0.371493
vt 0.442778 0.382418
vt 0.549991 0.439290
vt 0.453076 0.047957
vt 0.549991 0.450060
vt 0.105975 0.449333
vt 0.442778 0.381224
vt 0.549991 0.406978
vt 0.549991 0.460830
vt 0.549991 0.385437
vt 0.442778 0.403074
vt 0.549991 0.428521
vt 0.549991 0.417749
vt 0.549991 0.396208
vt 0.477717 0.888690
vt 0.756850 0.908264
vt 0.708703 0.908262
vt 0.785722 0.908166
vt 0.159006 0.927623
vt 0.159025 0.927598
vt 0.534815 0.927598
vt 0.534833 0.927623
vt 0.487373 0.888690
vt 0.766485 0.908263
vt 0.718339 0.908262
vt 0.795357 0.908166
vt 0.168690 0.927598
vt 0.168708 0.927623
vt 0.544486 0.927607
vt 0.544486 0.927638
vt 0.540438 0.692412
vt 0.141011 0.702446
vt 0.699190 0.203040
vt 0.150616 0.702078
vt 0.689457 0.917905
vt 0.689457 0.917933
vt 0.689432 0.917947
vt 0.631594 0.917948
vt 0.631569 0.917905
vt 0.631594 0.917891
vt 0.218197 0.800729
vt 0.596559 0.830152
vt 0.198837 0.800730
vt 0.625553 0.830152
vt 0.092001 0.879012
vt 0.091963 0.879034
vt 0.091925 0.879012
vt 0.101681 0.878968
vt 0.101643 0.879034
vt 0.101606 0.879012
vt 0.227876 0.800729
vt 0.606208 0.830152
vt 0.208517 0.800730
vt 0.635201 0.830152
vt 0.111324 0.879034
vt 0.111286 0.879012
vt 0.111286 0.878968
vt 0.121042 0.878968
vt 0.121004 0.879034
vt 0.120966 0.879012
vn -0.0000 -1.0000 -0.0000
vn -0.0000 1.0000 -0.0000
vn -0.0000 -0.0000 1.0000
vn 1.0000 -0.0000 -0.0000
vn -0.0000 -0.0000 -1.0000
vn -1.0000 -0.0000 -0.0000
vn -0.0000 -0.5878 0.8090
vn -0.0000 -0.9511 -0.3090
vn -0.0000 0.9511 -0.3090
vn -0.0000 0.5878 0.8090
vn -0.8660 -0.5000 -0.0000
vn 0.8660 -0.5000 -0.0000
vn 0.8660 0.5000 -0.0000
vn -0.8660 0.5000 -0.0000
vn -0.5000 -0.0000 -0.8660
vn -0.5000 -0.0000 0.8660
vn 0.5000 -0.0000 0.8660
vn 0.5000 -0.0000 -0.8660
vn 1.0000 -0.0000 -0.0001
f 1/1/1 2/2/1 3/3/1
f 4/4/2 5/5/2 6/6/2
f 7/7/3 6/8/3 2/9/3
f 1/10/4 4/11/4 7/12/4
f 3/13/5 8/14/5 1/15/5
f 2/16/6 5/17/6 3/18/6
f 9/19/1 10/20/1 11/21/1
f 12/22/2 13/23/2 14/24/2
f 15/25/3 14/26/3 10/27/3
f 9/28/4 12/29/4 15/30/4
f 11/31/5 16/32/5 9/33/5
f 10/34/6 13/35/6 11/36/6
f 17/37/1 18/38/1 19/39/1
f 20/40/2 21/41/2 22/42/2
f 23/43/3 22/44/3 18/45/3
f 17/46/4 20/47/4 23/48/4
f 19/49/5 24/50/5 17/51/5
f 18/52/6 21/53/6 19/54/6
f 25/55/1 10/20/1 26/56/1
f 20/40/2 27/57/2 22/42/2
f 15/25/3 22/44/3 10/27/3
f 25/58/4 20/59/4 15/60/4
f 26/61/5 28/62/5 25/63/5
f 10/64/6 27/65/6 26/66/6
f 9/19/1 29/67/1 11/21/1
f 30/68/2 21/41/2 31/69/2
f 32/70/3 31/71/3 29/72/3
f 9/73/4 30/74/4 32/75/4
f 11/31/5 24/50/5 9/33/5
f 29/76/6 21/77/6 11/78/6
f 33/79/7 34/80/7 35/81/7
f 36/82/8 37/83/8 33/84/8
f 38/85/5 39/86/5 36/87/5
f 40/88/9 41/89/9 38/90/9
f 35/81/10 42/91/10 40/92/10
f 36/93/6 33/94/6 35/95/6
f 37/96/4 39/97/4 41/98/4
f 43/99/7 44/100/7 45/101/7
f 46/102/8 47/103/8 43/104/8
f 48/105/5 49/106/5 46/107/5
f 50/108/9 51/109/9 48/110/9
f 45/101/10 52/111/10 50/112/10
f 46/113/6 43/114/6 45/115/6
f 47/116/4 49/117/4 51/118/4
f 53/119/11 54/120/11 55/121/11
f 56/122/1 57/123/1 53/124/1
f 58/125/12 59/126/12 56/127/12
f 60/128/13 61/129/13 58/125/13
f 62/130/2 63/131/2 60/132/2
f 55/121/14 64/133/14 62/134/14
f 56/135/5 53/136/5 55/137/5
f 63/138/3 64/139/3 57/140/3
f 65/141/15 66/142/15 67/143/15
f 68/144/6 69/145/6 65/146/6
f 70/147/16 71/148/16 68/149/16
f 72/150/17 73/151/17 70/147/17
f 74/152/4 75/153/4 72/154/4
f 67/143/18 76/155/18 74/156/18
f 68/157/1 65/158/1 67/159/1
f 75/160/2 76/161/2 69/162/2
f 77/163/15 78/164/15 79/165/15
f 80/166/6 81/167/6 77/168/6
f 82/169/16 83/170/16 80/171/16
f 84/172/17 85/173/17 82/169/17
f 86/174/4 87/175/4 84/176/4
f 79/165/18 88/177/18 86/178/18
f 80/179/1 77/180/1 79/181/1
f 87/182/2 88/183/2 81/184/2
f 1/1/1 7/185/1 2/2/1
f 4/4/2 8/186/2 5/5/2
f 7/7/3 4/187/3 6/8/3
f 1/10/4 8/188/4 4/11/4
f 3/13/5 5/189/5 8/14/5
f 2/16/6 6/190/6 5/17/6
f 9/19/1 15/191/1 10/20/1
f 12/22/2 16/192/2 13/23/2
f 15/25/3 12/193/3 14/26/3
f 9/28/4 16/194/4 12/29/4
f 11/31/5 13/195/5 16/32/5
f 10/34/6 14/196/6 13/35/6
f 17/37/1 23/197/1 18/38/1
f 20/40/2 24/198/2 21/41/2
f 23/43/3 20/199/3 22/44/3
f 17/46/4 24/200/4 20/47/4
f 19/49/5 21/201/5 24/50/5
f 18/52/6 22/202/6 21/53/6
f 25/55/1 15/191/1 10/20/1
f 20/40/2 28/203/2 27/57/2
f 15/25/3 20/199/3 22/44/3
f 25/58/4 28/204/4 20/59/4
f 26/61/5 27/205/5 28/62/5
f 10/64/6 22/206/6 27/65/6
f 9/19/1 32/207/1 29/67/1
f 30/68/2 24/198/2 21/41/2
f 32/70/3 30/208/3 31/71/3
f 9/73/4 24/209/4 30/74/4
f 11/31/5 21/201/5 24/50/5
f 29/76/6 31/210/6 21/77/6
f 33/79/7 37/211/7 34/80/7
f 36/82/8 39/212/8 37/83/8
f 38/85/5 41/213/5 39/86/5
f 40/88/9 42/214/9 41/89/9
f 35/81/10 34/80/10 42/91/10
f 35/95/6 40/215/6 38/216/6
f 38/216/6 36/93/6 35/95/6
f 42/217/4 34/218/19 41/98/4
f 34/218/19 37/96/4 41/98/4
f 43/99/7 47/219/7 44/100/7
f 46/102/8 49/220/8 47/103/8
f 48/105/5 51/221/5 49/106/5
f 50/108/9 52/222/9 51/109/9
f 45/101/10 44/100/10 52/111/10
f 45/115/6 50/223/6 48/224/6
f 48/224/6 46/113/6 45/115/6
f 52/225/4 44/226/19 51/118/4
f 44/226/19 47/116/4 51/118/4
f 53/119/11 57/227/11 54/120/11
f 56/122/1 59/228/1 57/123/1
f 58/125/12 61/129/12 59/126/12
f 60/128/13 63/229/13 61/129/13
f 62/130/2 64/230/2 63/131/2
f 55/121/14 54/120/14 64/133/14
f 55/137/5 62/231/5 56/135/5
f 62/231/5 60/232/5 56/135/5
f 60/232/5 58/233/5 56/135/5
f 64/139/3 54/234/3 57/140/3
f 57/140/3 59/235/3 61/236/3
f 61/236/3 63/138/3 57/140/3
f 65/141/15 69/237/15 66/142/15
f 68/144/6 71/238/6 69/145/6
f 70/147/16 73/151/16 71/148/16
f 72/150/17 75/239/17 73/151/17
f 74/152/4 76/240/4 75/153/4
f 67/143/18 66/142/18 76/155/18
f 67/159/1 74/241/1 68/157/1
f 74/241/1 72/242/1 68/157/1
f 72/242/1 70/243/1 68/157/1
f 76/161/2 66/244/2 69/162/2
f 69/162/2 71/245/2 73/246/2
f 73/246/2 75/160/2 69/162/2
f 77/163/15 81/247/15 78/164/15
f 80/166/6 83/248/6 81/167/6
f 82/169/16 85/173/16 83/170/16
f 84/172/17 87/249/17 85/173/17
f 86/174/4 88/250/4 87/175/4
f 79/165/18 78/164/18 88/177/18
f 79/181/1 86/251/1 80/179/1
f 86/251/1 84/252/1 80/179/1
f 84/252/1 82/253/1 80/179/1
f 88/183/2 78/254/2 81/184/2
f 81/184/2 83/255/2 85/256/2
f 85/256/2 87/182/2 81/184/2
