# JIB VI - the throttle parts, as a standalone mesh.
#
# One file per material rather than one library addressed with `#group`:
# selecting a group recentres it on its own bounding box, which takes a
# model apart when the library IS one model. A whole-file import keeps
# the authored coordinates. See loom_asset/src/mesh.rs:268.
v 2.515000 4.000000 -1.017000
v 2.401033 4.295344 -1.008500
v 2.415000 4.300000 -1.017000
v 2.501033 3.995344 -0.991500
v 2.501033 3.995344 -1.008500
v 2.515000 4.000000 -0.983000
v 2.401033 4.295344 -0.991500
v 2.528967 4.004656 -0.991500
v 2.415000 4.300000 -0.983000
v 2.528967 4.004656 -1.008500
v 2.428967 4.304656 -0.991500
v 2.428967 4.304656 -1.008500
v 2.444698 4.285302 -0.965000
v 2.457000 4.315000 -1.035000
v 2.457000 4.315000 -0.965000
v 2.415000 4.273000 -0.965000
v 2.444698 4.285302 -1.035000
v 2.385302 4.285302 -0.965000
v 2.415000 4.273000 -1.035000
v 2.373000 4.315000 -0.965000
v 2.385302 4.285302 -1.035000
v 2.385302 4.344698 -0.965000
v 2.373000 4.315000 -1.035000
v 2.415000 4.357000 -0.965000
v 2.385302 4.344698 -1.035000
v 2.444698 4.344698 -0.965000
v 2.415000 4.357000 -1.035000
v 2.444698 4.344698 -1.035000
vt 0.275772 0.662169
vt 0.275745 0.661640
vt 0.275772 0.661640
vt 0.669591 0.585542
vt 0.669619 0.585044
vt 0.669619 0.585542
vt 0.266116 0.662168
vt 0.266140 0.661641
vt 0.266140 0.662169
vt 0.266091 0.662169
vt 0.266116 0.661640
vt 0.669591 0.485547
vt 0.669618 0.485046
vt 0.669618 0.485549
vt 0.275794 0.662169
vt 0.275794 0.661640
vt 0.922782 0.111234
vt 0.922782 0.111206
vt 0.922805 0.111192
vt 0.922805 0.101530
vt 0.922828 0.101544
vt 0.922828 0.101573
vt 0.816167 0.529824
vt 0.816217 0.529714
vt 0.816217 0.529828
vt 0.825925 0.286805
vt 0.825975 0.286688
vt 0.825975 0.286805
vt 0.825876 0.286805
vt 0.825925 0.286688
vt 0.393137 0.820469
vt 0.393186 0.820352
vt 0.393186 0.820469
vt 0.393086 0.820469
vt 0.393137 0.820351
vt 0.825925 0.257521
vt 0.825876 0.257639
vt 0.825876 0.257521
vt 0.825975 0.257521
vt 0.825925 0.257639
vt 0.816266 0.529709
vt 0.816266 0.529824
vt 0.777354 0.102425
vt 0.777392 0.102517
vt 0.777300 0.102555
vt 0.777353 0.161120
vt 0.777391 0.161158
vt 0.777262 0.161212
vt 0.275745 0.662169
vt 0.669591 0.585045
vt 0.266091 0.661641
vt 0.669591 0.485044
vt 0.922828 0.111206
vt 0.922828 0.111234
vt 0.922805 0.111249
vt 0.922805 0.101587
vt 0.922782 0.101573
vt 0.922782 0.101544
vt 0.816167 0.529709
vt 0.825876 0.286688
vt 0.393086 0.820352
vt 0.825975 0.257639
vt 0.777262 0.102463
vt 0.777300 0.102425
vt 0.777392 0.102464
vt 0.777354 0.102555
vt 0.777262 0.102517
vt 0.777391 0.161212
vt 0.777353 0.161250
vt 0.777300 0.161250
vt 0.777262 0.161159
vt 0.777300 0.161120
vn -0.4743 -0.1581 -0.8660
vn -0.9487 -0.3162 -0.0000
vn -0.4743 -0.1581 0.8660
vn 0.4743 0.1581 0.8660
vn 0.9487 0.3162 -0.0000
vn 0.4743 0.1581 -0.8660
vn 0.3162 -0.9487 -0.0000
vn 0.3163 -0.9487 -0.0000
vn -0.3162 0.9487 -0.0000
vn 0.9239 -0.3827 -0.0000
vn 0.3827 -0.9239 -0.0000
vn -0.3827 -0.9239 -0.0000
vn -0.9239 -0.3827 -0.0000
vn -0.7071 0.7071 -0.0000
vn -0.9239 0.3827 -0.0000
vn -0.3827 0.9239 -0.0000
vn 0.7071 0.7071 -0.0000
vn 0.3827 0.9239 -0.0000
vn 0.9239 0.3827 -0.0000
vn -0.0000 -0.0000 1.0000
vn -0.0000 -0.0000 -1.0000
vn -0.3163 0.9487 -0.0000
f 1/1/1 2/2/1 3/3/1
f 4/4/2 2/5/2 5/6/2
f 6/7/3 7/8/3 4/9/3
f 8/10/4 9/11/4 6/7/4
f 10/12/5 11/13/5 8/14/5
f 10/15/6 3/3/6 12/16/6
f 4/17/7 5/18/8 1/19/8
f 9/20/9 11/21/9 12/22/9
f 13/23/10 14/24/10 15/25/10
f 16/26/11 17/27/11 13/28/11
f 18/29/12 19/30/12 16/26/12
f 20/31/13 21/32/13 18/33/13
f 22/34/14 23/35/15 20/31/15
f 24/36/16 25/37/14 22/38/14
f 26/39/17 27/40/18 24/36/18
f 15/25/19 28/41/17 26/42/17
f 24/43/20 20/44/20 16/45/20
f 27/46/21 28/47/21 21/48/21
f 1/1/1 5/49/1 2/2/1
f 4/4/2 7/50/2 2/5/2
f 6/7/3 9/11/3 7/8/3
f 8/10/4 11/51/4 9/11/4
f 10/12/5 12/52/5 11/13/5
f 10/15/6 1/1/6 3/3/6
f 1/19/8 10/53/8 8/54/8
f 8/54/8 6/55/7 1/19/8
f 6/55/7 4/17/7 1/19/8
f 12/22/9 3/56/9 9/20/9
f 3/56/9 2/57/9 9/20/9
f 2/57/9 7/58/22 9/20/9
f 13/23/10 17/59/10 14/24/10
f 16/26/11 19/30/11 17/27/11
f 18/29/12 21/60/12 19/30/12
f 20/31/13 23/35/13 21/32/13
f 22/34/14 25/61/14 23/35/15
f 24/36/16 27/40/16 25/37/14
f 26/39/17 28/62/17 27/40/18
f 15/25/19 14/24/19 28/41/17
f 15/63/20 26/64/20 24/43/20
f 24/43/20 22/65/20 20/44/20
f 20/44/20 18/66/20 16/45/20
f 16/45/20 13/67/20 15/63/20
f 15/63/20 24/43/20 16/45/20
f 28/47/21 14/68/21 17/69/21
f 17/69/21 19/70/21 28/47/21
f 19/70/21 21/48/21 28/47/21
f 21/48/21 23/71/21 25/72/21
f 25/72/21 27/46/21 21/48/21
