# JIB VI - the scuff parts, as a standalone mesh.
#
# One file per material rather than one library addressed with `#group`:
# selecting a group recentres it on its own bounding box, which takes a
# model apart when the library IS one model. A whole-file import keeps
# the authored coordinates. See loom_asset/src/mesh.rs:268.
v 5.335000 0.828187 -1.070605
v 5.029681 0.806162 -1.122696
v 5.335000 0.828187 -1.070605
v 5.029681 0.806162 -1.208225
v 4.724361 0.786467 -1.100675
v 4.724361 0.786467 -1.354990
v 4.419043 0.768958 -1.156538
v 4.419043 0.768958 -1.547456
v 4.113723 0.753350 -1.228386
v 4.113723 0.753350 -1.692250
v 3.808404 0.739157 -1.320982
v 3.808404 0.739157 -1.747374
v 3.503085 0.723357 -1.434048
v 3.503085 0.723357 -1.799181
v 3.197766 0.709396 -1.509855
v 3.197766 0.709396 -1.875746
v 2.892447 0.697131 -1.493614
v 2.892447 0.697131 -1.909267
v 2.587127 0.687183 -1.505819
v 2.587127 0.687183 -1.927588
v 2.281808 0.679844 -1.624918
v 2.281808 0.679844 -2.019855
v 1.976489 0.674350 -1.742907
v 1.976489 0.674350 -2.144373
v 1.671170 0.669936 -1.804333
v 1.671170 0.669936 -2.209034
v 1.365851 0.665835 -1.893632
v 1.365851 0.665835 -2.251435
v 1.060532 0.661284 -1.993252
v 1.060532 0.661284 -2.327199
v 0.755213 0.655944 -1.982818
v 0.449893 0.650531 -2.349723
v 0.755213 0.655944 -2.371082
v 0.144574 0.645190 -2.361530
v 0.449893 0.650531 -1.900997
v -0.160745 0.640025 -1.923017
v 0.144574 0.645190 -1.888240
v -0.160745 0.640025 -2.443294
v -0.466064 0.635144 -1.924489
v -0.466064 0.635144 -2.508060
v -0.771383 0.630652 -1.962139
v -0.771383 0.630652 -2.540570
v -1.076702 0.626583 -2.087293
v -1.076702 0.626583 -2.609136
v -1.382021 0.622656 -2.170301
v -1.687341 0.618919 -2.649411
v -1.382021 0.622656 -2.675180
v -1.992660 0.615320 -2.579111
v -1.687341 0.618919 -2.136242
v -2.297979 0.611982 -2.554217
v -1.992660 0.615320 -2.092196
v -2.603298 0.609288 -2.535926
v -2.297979 0.611982 -2.082514
v -2.908617 0.607375 -2.479218
v -2.603298 0.609288 -2.023078
v -3.213936 0.606288 -1.974473
v -2.908617 0.607375 -1.945746
v -3.213936 0.606288 -2.456164
v -3.519255 0.605930 -2.065523
v -3.519255 0.605930 -2.494845
v -3.824575 0.606187 -2.086356
v -4.129894 0.606946 -2.430554
v -3.824575 0.606187 -2.496482
v -4.435213 0.608096 -2.383083
v -4.129894 0.606946 -2.066895
v -4.740532 0.609523 -2.361042
v -4.435213 0.608096 -2.079898
v -5.045851 0.611415 -2.295681
v -4.740532 0.609523 -2.045605
v -5.351171 0.613874 -2.230216
v -5.045851 0.611415 -1.916157
v -5.656489 0.616788 -1.838329
v -5.351171 0.613874 -1.823417
v -5.656489 0.616788 -2.253978
v -5.961809 0.620045 -1.857548
v -5.961809 0.620045 -2.316875
v -6.267128 0.623530 -1.851135
v -6.267128 0.623530 -2.334823
v -6.572447 0.627132 -1.906091
v -6.572447 0.627132 -2.351197
v -6.877766 0.631093 -1.979213
v -7.183085 0.635754 -2.408464
v -6.877766 0.631093 -2.402767
v -7.488404 0.640763 -2.344098
v -7.183085 0.635754 -1.941089
v -7.793724 0.645757 -2.311144
v -7.488404 0.640763 -1.838364
v -8.099043 0.650376 -1.895096
v -7.793724 0.645757 -1.801536
v -8.099043 0.650376 -2.336771
v -8.404362 0.654256 -2.059706
v -8.404362 0.654256 -2.339730
v -8.709681 0.658778 -2.235279
v -8.709681 0.658778 -2.318576
v -9.015000 0.662199 -2.347029
v 5.029681 0.806162 1.059342
v 5.335000 0.828187 0.939446
v 5.335000 0.828187 0.939446
v 4.724361 0.786467 1.026490
v 5.029681 0.806162 1.111588
v 4.419043 0.768958 0.940274
v 4.724361 0.786467 1.236409
v 4.113723 0.753350 1.007383
v 4.419043 0.768958 1.342420
v 3.808404 0.739157 1.177682
v 4.113723 0.753350 1.522603
v 3.503085 0.723357 1.306837
v 3.808404 0.739157 1.736454
v 3.197766 0.709396 1.476654
v 3.503085 0.723357 1.886540
v 2.892447 0.697131 1.663202
v 3.197766 0.709396 2.006583
v 2.587127 0.687183 1.733460
v 2.892447 0.697131 2.145102
v 2.281808 0.679844 2.227123
v 2.587127 0.687183 2.230730
v 1.976489 0.674350 1.739827
v 2.281808 0.679844 1.714174
v 1.671170 0.669936 1.792676
v 1.976489 0.674350 2.233265
v 1.365851 0.665835 1.799923
v 1.671170 0.669936 2.294258
v 1.060532 0.661284 1.841504
v 1.365851 0.665835 2.333460
v 0.755213 0.655944 1.978753
v 1.060532 0.661284 2.343683
v 0.449893 0.650531 2.085424
v 0.755213 0.655944 2.398724
v 0.144574 0.645190 2.444030
v 0.449893 0.650531 2.462805
v 0.144574 0.645190 2.080025
v -0.160745 0.640025 2.384294
v -0.160745 0.640025 2.059379
v -0.466064 0.635144 2.372057
v -0.466064 0.635144 2.061262
v -0.771383 0.630652 2.370832
v -0.771383 0.630652 1.998844
v -1.076702 0.626583 2.338455
v -1.382021 0.622656 1.918464
v -1.076702 0.626583 1.906526
v -1.687341 0.618919 2.005354
v -1.382021 0.622656 2.350255
v -1.992660 0.615320 2.041435
v -1.687341 0.618919 2.439158
v -2.297979 0.611982 2.054351
v -1.992660 0.615320 2.505468
v -2.603298 0.609288 2.109933
v -2.297979 0.611982 2.510409
v -2.908617 0.607375 2.117332
v -2.603298 0.609288 2.529887
v -3.213936 0.606288 2.531082
v -2.908617 0.607375 2.562303
v -3.213936 0.606288 2.015145
v -3.519255 0.605930 2.476940
v -3.824575 0.606187 1.939093
v -3.519255 0.605930 1.930026
v -4.129894 0.606946 1.949682
v -3.824575 0.606187 2.494140
v -4.435213 0.608096 2.538526
v -4.129894 0.606946 2.540957
v -4.740532 0.609523 2.004924
v -4.435213 0.608096 1.940563
v -5.045851 0.611415 2.099737
v -4.740532 0.609523 2.532028
v -5.351171 0.613874 2.533119
v -5.045851 0.611415 2.558162
v -5.351171 0.613874 2.086148
v -5.656489 0.616788 2.428013
v -5.656489 0.616788 1.996756
v -5.961809 0.620045 2.344265
v -5.961809 0.620045 1.949684
v -6.267128 0.623530 2.315821
v -6.267128 0.623530 1.909268
v -6.572447 0.627132 2.270130
v -6.572447 0.627132 1.819114
v -6.877766 0.631093 2.219203
v -7.183085 0.635754 1.856713
v -6.877766 0.631093 1.782115
v -7.488404 0.640763 1.915724
v -7.183085 0.635754 2.238963
v -7.793724 0.645757 2.256965
v -7.488404 0.640763 2.282541
v -7.793724 0.645757 1.893774
v -8.099043 0.650376 2.206491
v -8.404362 0.654256 2.049814
v -8.099043 0.650376 1.941135
v -8.709681 0.658778 2.129888
v -8.404362 0.654256 2.202561
v -9.015000 0.662199 2.134600
v -8.709681 0.658778 2.187662
v 6.935000 0.982641 0.000000
v 6.828103 0.966329 -0.162782
v 6.935000 0.982641 0.000000
v 6.828103 0.966329 0.167296
v 6.721207 0.950338 -0.292807
v 6.721207 0.950338 0.303860
v 6.614310 0.938380 -0.412835
v 6.507414 0.928430 0.530818
v 6.614310 0.938380 0.429098
v 6.400517 0.918568 0.597969
v 6.507414 0.928430 -0.516302
v 6.293621 0.908808 0.627857
v 6.400517 0.918568 -0.595285
v 6.186724 0.899164 0.628716
v 6.293621 0.908808 -0.644594
v 6.079827 0.889650 0.617804
v 6.186724 0.899164 -0.663778
v 5.972931 0.880282 -0.635759
v 6.079827 0.889650 -0.657700
v 5.972931 0.880282 0.615886
v 5.866035 0.871073 -0.610015
v 5.866035 0.871073 0.640085
v 5.759138 0.862038 -0.592642
v 5.759138 0.862038 0.697668
v 5.652241 0.853191 -0.593291
v 5.652241 0.853191 0.783002
v 5.545345 0.844548 -0.616944
v 5.545345 0.844548 0.878859
v 5.438448 0.836121 -0.662759
v 5.331552 0.827927 1.009212
v 5.438448 0.836121 0.961702
v 5.224655 0.819978 1.007507
v 5.331552 0.827927 -0.724148
v 5.117758 0.812290 0.955593
v 5.224655 0.819978 -0.790093
v 5.010862 0.804878 0.865541
v 5.117758 0.812290 -0.847415
v 4.903965 0.797755 0.758355
v 5.010862 0.804878 -0.883495
v 4.797069 0.790935 0.656979
v 4.903965 0.797755 -0.888862
v 4.690172 0.784407 0.578838
v 4.797069 0.790935 -0.859084
v 4.583276 0.778130 -0.704956
v 4.690172 0.784407 -0.795545
v 4.583276 0.778130 0.530478
v 4.476379 0.772097 -0.597694
v 4.476379 0.772097 0.506054
v 4.369483 0.766300 -0.485355
v 4.369483 0.766300 0.490063
v 4.262586 0.760733 -0.378016
v 4.262586 0.760733 0.463201
v 4.155690 0.755389 -0.281750
v 4.048793 0.750261 0.319006
v 4.155690 0.755389 0.409070
v 3.941896 0.745342 0.191852
v 4.048793 0.750261 -0.196690
v 3.835000 0.740625 0.000000
v 3.941896 0.745342 -0.115025
v -9.365000 0.664473 -1.530000
v -8.494810 0.655211 -1.370000
v -9.365000 0.664473 -1.370000
v -8.461863 0.654875 -1.690000
v -8.447453 0.654724 -1.530000
v -9.365000 0.664473 -1.690000
v -8.531568 0.655741 -1.850000
v -9.365000 0.664473 -1.850000
v -8.625267 0.657453 -2.010000
v -9.365000 0.664473 -2.010000
v -8.700884 0.658649 -2.170000
v -9.365000 0.664473 -2.170000
v -8.724463 0.658991 -2.330000
v -6.315000 0.626090 1.278000
v -6.598333 0.629439 -1.309350
v -6.315000 0.626090 -1.413790
v -6.598333 0.629439 1.393505
v -6.881667 0.633149 -1.095848
v -7.165000 0.637465 1.318822
v -6.881667 0.633149 1.412375
v -7.448333 0.642098 1.191116
v -7.165000 0.637465 -1.162989
v -7.731667 0.646761 1.136100
v -7.448333 0.642098 -1.388221
v -8.015000 0.651163 -1.130341
v -7.731667 0.646761 -1.360428
v -7.115000 0.636672 1.163859
v -7.431667 0.641822 -0.898864
v -7.115000 0.636672 -1.002215
v -7.748333 0.647030 0.972697
v -7.431667 0.641822 1.072793
v -8.065001 0.651891 0.947315
v -7.748333 0.647030 -1.050207
v -8.381667 0.656001 -1.051331
v -8.065001 0.651891 -1.179999
v -8.381667 0.656001 1.017883
v -8.698334 0.660611 -0.899060
v -9.015000 0.664199 1.179828
v -8.698334 0.660611 1.125360
v -2.011364 3.104000 0.759214
v -2.205000 3.104000 0.740000
v -2.205000 3.104000 0.740000
v -1.817727 3.104000 0.795449
v -2.011364 3.104000 0.675046
v -1.624091 3.104000 0.816047
v -1.817727 3.104000 0.593069
v -1.430455 3.104000 0.802049
v -1.624091 3.104000 0.526730
v -1.236818 3.104000 0.768480
v -1.430455 3.104000 0.494987
v -1.043182 3.104000 0.779081
v -1.236818 3.104000 0.482816
v -0.849546 3.104000 0.841565
v -1.043182 3.104000 0.426474
v -0.655909 3.104000 0.864234
v -0.849546 3.104000 0.318249
v -0.462273 3.104000 0.830723
v -0.655909 3.104000 0.249839
v -0.268637 3.104000 0.804437
v -0.462273 3.104000 0.237609
v -0.075000 3.104000 0.772123
v -0.268637 3.104000 0.218154
v 0.118636 3.104000 0.700418
v -0.075000 3.104000 0.204728
v 0.312273 3.104000 0.653034
v 0.118636 3.104000 0.230691
v 0.505909 3.104000 0.589319
v 0.312273 3.104000 0.232335
v 0.699545 3.104000 0.494871
v 0.505909 3.104000 0.099899
v 0.893182 3.104000 0.348315
v 0.699545 3.104000 -0.021806
v 1.086818 3.104000 0.210500
v 0.893182 3.104000 -0.091401
v 1.280454 3.104000 0.078979
v 1.086818 3.104000 -0.160000
v 1.474091 3.104000 0.007916
v 1.280454 3.104000 -0.130000
v 1.667727 3.104000 -0.048331
v 1.474091 3.104000 -0.100000
v 1.861364 3.104000 -0.102051
v 1.667727 3.104000 -0.100000
v 2.055000 3.104000 -0.520000
v 1.861364 3.104000 -0.130000
v -9.015000 0.662199 -2.347029
v -9.015000 0.662199 2.134600
v 3.835000 0.740625 -0.000000
v -9.365000 0.664473 -2.330000
v -8.015000 0.651163 1.199803
v -9.015000 0.664199 -1.001126
v 2.055000 3.104000 -0.520000
vt 0.389149 0.995189
vt 0.058692 0.005326
vt 0.058484 0.005827
vt 0.058549 0.005318
vt 0.058909 0.005851
vt 0.058549 0.006343
vt 0.059203 0.006380
vt 0.058640 0.006860
vt 0.059416 0.006904
vt 0.058767 0.007380
vt 0.059480 0.007420
vt 0.058927 0.007901
vt 0.059538 0.007936
vt 0.059025 0.008419
vt 0.059637 0.008454
vt 0.058970 0.008929
vt 0.059665 0.008967
vt 0.058961 0.009440
vt 0.059667 0.009480
vt 0.059132 0.009962
vt 0.059793 0.009999
vt 0.059301 0.010484
vt 0.059972 0.010522
vt 0.059375 0.011001
vt 0.060052 0.011039
vt 0.059496 0.011520
vt 0.060094 0.011553
vt 0.059634 0.012040
vt 0.060192 0.012071
vt 0.059588 0.012550
vt 0.060173 0.013095
vt 0.060237 0.012586
vt 0.060164 0.013607
vt 0.059422 0.013053
vt 0.059402 0.014077
vt 0.059372 0.013563
vt 0.060272 0.014125
vt 0.059376 0.014587
vt 0.060352 0.014642
vt 0.059410 0.015102
vt 0.060378 0.015156
vt 0.059591 0.015624
vt 0.060464 0.015673
vt 0.059701 0.016143
vt 0.060474 0.016698
vt 0.060546 0.016190
vt 0.060328 0.017203
vt 0.059616 0.016650
vt 0.060258 0.017711
vt 0.059513 0.017157
vt 0.060198 0.018220
vt 0.059469 0.017667
vt 0.060075 0.018726
vt 0.059341 0.018172
vt 0.059202 0.019189
vt 0.059183 0.018676
vt 0.060008 0.019234
vt 0.059326 0.019708
vt 0.060044 0.019749
vt 0.059332 0.020221
vt 0.059879 0.020764
vt 0.060018 0.020259
vt 0.059771 0.021270
vt 0.059271 0.020730
vt 0.059706 0.021779
vt 0.059264 0.021242
vt 0.059568 0.022284
vt 0.059178 0.021750
vt 0.059430 0.022788
vt 0.058933 0.022248
vt 0.058746 0.023262
vt 0.058749 0.022750
vt 0.059441 0.023301
vt 0.058749 0.023775
vt 0.059517 0.023818
vt 0.058710 0.024285
vt 0.059519 0.024330
vt 0.058773 0.024801
vt 0.059518 0.024843
vt 0.058867 0.025319
vt 0.059556 0.025870
vt 0.059575 0.025358
vt 0.059420 0.026374
vt 0.058774 0.025826
vt 0.059336 0.026882
vt 0.058574 0.026327
vt 0.058612 0.027354
vt 0.058484 0.026834
vt 0.059351 0.027395
vt 0.058858 0.027880
vt 0.059327 0.027906
vt 0.059124 0.028407
vt 0.059263 0.028415
vt 0.059282 0.028928
vt 0.398754 0.995189
vt 0.060351 0.039564
vt 0.060171 0.039065
vt 0.060258 0.039058
vt 0.060533 0.040064
vt 0.060001 0.039590
vt 0.060459 0.040582
vt 0.059862 0.040114
vt 0.060213 0.041114
vt 0.059599 0.040647
vt 0.060035 0.041640
vt 0.059279 0.041183
vt 0.059789 0.042171
vt 0.059066 0.041712
vt 0.059516 0.042705
vt 0.058904 0.042237
vt 0.059436 0.043224
vt 0.058710 0.042765
vt 0.058649 0.043795
vt 0.058605 0.043286
vt 0.059502 0.044245
vt 0.059507 0.043731
vt 0.059451 0.044762
vt 0.058677 0.044306
vt 0.059477 0.045273
vt 0.058613 0.044824
vt 0.059446 0.045788
vt 0.058586 0.045339
vt 0.059255 0.046315
vt 0.058607 0.045851
vt 0.059114 0.046839
vt 0.058553 0.046368
vt 0.058553 0.047393
vt 0.058484 0.046886
vt 0.059161 0.047348
vt 0.058691 0.047896
vt 0.059234 0.047856
vt 0.058749 0.048405
vt 0.059269 0.048366
vt 0.058790 0.048915
vt 0.059411 0.048869
vt 0.058882 0.049421
vt 0.059621 0.049879
vt 0.059603 0.049367
vt 0.059514 0.050400
vt 0.058900 0.049933
vt 0.059492 0.050914
vt 0.058789 0.050454
vt 0.059508 0.051426
vt 0.058717 0.050972
vt 0.059454 0.051943
vt 0.058746 0.051483
vt 0.059479 0.052454
vt 0.058752 0.051996
vt 0.058826 0.053016
vt 0.058736 0.052510
vt 0.059688 0.052952
vt 0.058954 0.053519
vt 0.059891 0.053963
vt 0.059868 0.053451
vt 0.059911 0.054474
vt 0.058964 0.054032
vt 0.058966 0.055058
vt 0.058923 0.054548
vt 0.059895 0.055501
vt 0.059965 0.054983
vt 0.059775 0.056023
vt 0.059014 0.055567
vt 0.059089 0.056587
vt 0.059009 0.056080
vt 0.059835 0.056532
vt 0.059302 0.057084
vt 0.060023 0.057031
vt 0.059480 0.057584
vt 0.060139 0.057535
vt 0.059566 0.058091
vt 0.060245 0.058040
vt 0.059680 0.058595
vt 0.060434 0.058539
vt 0.059803 0.059099
vt 0.060447 0.059564
vt 0.060533 0.059044
vt 0.060386 0.060081
vt 0.059808 0.059611
vt 0.059854 0.060634
vt 0.059773 0.060127
vt 0.060461 0.060589
vt 0.059976 0.061138
vt 0.060276 0.061628
vt 0.060420 0.061105
vt 0.060180 0.062149
vt 0.060021 0.061647
vt 0.060211 0.062659
vt 0.060084 0.062156
vt 0.408358 0.995189
vt 0.083504 0.221603
vt 0.084193 0.221993
vt 0.083911 0.221978
vt 0.083457 0.221317
vt 0.084462 0.221998
vt 0.083420 0.220796
vt 0.083424 0.221043
vt 0.083458 0.220588
vt 0.084711 0.221983
vt 0.083543 0.220422
vt 0.084930 0.221941
vt 0.083663 0.220289
vt 0.085112 0.221866
vt 0.083797 0.220170
vt 0.085256 0.221756
vt 0.085464 0.221460
vt 0.085370 0.221617
vt 0.083921 0.220040
vt 0.085554 0.221299
vt 0.084012 0.219881
vt 0.085654 0.221148
vt 0.084063 0.219684
vt 0.085776 0.221017
vt 0.084079 0.219456
vt 0.085926 0.220912
vt 0.084082 0.219215
vt 0.086104 0.220832
vt 0.084163 0.218804
vt 0.084101 0.218989
vt 0.084287 0.218674
vt 0.086301 0.220770
vt 0.084472 0.218601
vt 0.086503 0.220713
vt 0.084704 0.218571
vt 0.086695 0.220646
vt 0.084958 0.218561
vt 0.086861 0.220556
vt 0.085204 0.218544
vt 0.086989 0.220430
vt 0.085421 0.218501
vt 0.087073 0.220264
vt 0.087125 0.219826
vt 0.087116 0.220060
vt 0.085602 0.218424
vt 0.087114 0.219572
vt 0.085754 0.218320
vt 0.087097 0.219313
vt 0.085894 0.218207
vt 0.087086 0.219060
vt 0.086049 0.218105
vt 0.087089 0.218819
vt 0.086469 0.218005
vt 0.086237 0.218035
vt 0.086747 0.218018
vt 0.087105 0.218590
vt 0.087105 0.218104
vt 0.087125 0.218366
vt 0.236443 0.340860
vt 0.237901 0.341129
vt 0.236443 0.341129
vt 0.237956 0.340592
vt 0.237980 0.340860
vt 0.236443 0.340592
vt 0.237840 0.340324
vt 0.236443 0.340324
vt 0.237683 0.340056
vt 0.236443 0.340056
vt 0.237556 0.339788
vt 0.236443 0.339788
vt 0.237516 0.339520
vt 0.224784 0.174940
vt 0.224309 0.170605
vt 0.224784 0.170430
vt 0.224309 0.175134
vt 0.223834 0.170963
vt 0.223359 0.175009
vt 0.223834 0.175165
vt 0.222885 0.174795
vt 0.223359 0.170850
vt 0.222410 0.174703
vt 0.222885 0.170473
vt 0.221935 0.170905
vt 0.222410 0.170520
vt 0.132781 0.240585
vt 0.132251 0.237129
vt 0.132781 0.236956
vt 0.131720 0.240265
vt 0.132251 0.240433
vt 0.131189 0.240222
vt 0.131720 0.236875
vt 0.130659 0.236874
vt 0.131189 0.236658
vt 0.130659 0.240341
vt 0.130128 0.237129
vt 0.129598 0.240612
vt 0.130128 0.240521
vt 0.427568 0.995189
vt 0.211983 0.180563
vt 0.212265 0.180820
vt 0.212130 0.180858
vt 0.211861 0.180260
vt 0.212309 0.180470
vt 0.211795 0.179941
vt 0.212327 0.180128
vt 0.211760 0.179614
vt 0.212290 0.179801
vt 0.211654 0.179307
vt 0.212221 0.179483
vt 0.211465 0.179023
vt 0.212223 0.179145
vt 0.211340 0.178722
vt 0.212309 0.178784
vt 0.211305 0.178394
vt 0.212330 0.178440
vt 0.211259 0.178070
vt 0.212261 0.178123
vt 0.211223 0.177743
vt 0.212204 0.177802
vt 0.211249 0.177398
vt 0.212137 0.177483
vt 0.211237 0.177064
vt 0.212007 0.177183
vt 0.211251 0.176723
vt 0.211915 0.176872
vt 0.211315 0.176368
vt 0.212040 0.176499
vt 0.211462 0.175989
vt 0.212148 0.176131
vt 0.211596 0.175613
vt 0.212171 0.175787
vt 0.211719 0.175241
vt 0.212193 0.175444
vt 0.211745 0.174897
vt 0.212056 0.175145
vt 0.211747 0.174559
vt 0.211919 0.174847
vt 0.211745 0.174222
vt 0.211831 0.174535
vt 0.212330 0.173719
vt 0.211790 0.174209
vt 0.058491 0.004802
vt 0.571641 0.995189
vt 0.060421 0.038533
vt 0.581246 0.995189
vt 0.083590 0.221925
vt 0.590851 0.995189
vt 0.236443 0.339520
vt 0.221935 0.174809
vt 0.129598 0.236958
vt 0.212249 0.181161
vt 0.610061 0.995189
vn -0.0100 0.9999 -0.0000
vn -0.0683 0.9977 -0.0000
vn -0.0000 1.0000 -0.0000
vn -0.0671 0.9977 -0.0000
vn -0.0609 0.9981 -0.0000
vn -0.0597 0.9982 -0.0000
vn -0.0546 0.9985 -0.0000
vn -0.0531 0.9986 -0.0000
vn -0.0491 0.9988 -0.0000
vn -0.0482 0.9988 -0.0000
vn -0.0485 0.9988 -0.0000
vn -0.0493 0.9988 -0.0000
vn -0.0492 0.9988 -0.0000
vn -0.0483 0.9988 -0.0000
vn -0.0431 0.9991 -0.0000
vn -0.0426 0.9991 -0.0000
vn -0.0363 0.9993 -0.0000
vn -0.0361 0.9993 -0.0000
vn -0.0289 0.9996 -0.0000
vn -0.0279 0.9996 -0.0000
vn -0.0217 0.9998 -0.0000
vn -0.0204 0.9998 -0.0000
vn -0.0165 0.9999 -0.0000
vn -0.0159 0.9999 -0.0000
vn -0.0140 0.9999 -0.0000
vn -0.0139 0.9999 -0.0000
vn -0.0143 0.9999 -0.0000
vn -0.0161 0.9999 -0.0000
vn -0.0164 0.9999 -0.0000
vn -0.0176 0.9998 -0.0000
vn -0.0172 0.9999 -0.0000
vn -0.0154 0.9999 -0.0000
vn -0.0153 0.9999 -0.0000
vn -0.0141 0.9999 -0.0000
vn -0.0131 0.9999 -0.0000
vn -0.0126 0.9999 -0.0000
vn -0.0120 0.9999 -0.0000
vn -0.0125 0.9999 -0.0000
vn -0.0114 0.9999 -0.0000
vn -0.0099 1.0000 -0.0000
vn -0.0113 0.9999 -0.0000
vn -0.0076 1.0000 -0.0000
vn -0.0098 1.0000 -0.0000
vn -0.0050 1.0000 -0.0000
vn -0.0074 1.0000 -0.0000
vn -0.0025 1.0000 -0.0000
vn -0.0048 1.0000 -0.0000
vn -0.0023 1.0000 -0.0000
vn -0.0003 1.0000 -0.0000
vn -0.0001 1.0000 -0.0000
vn 0.0017 1.0000 -0.0000
vn 0.0031 1.0000 -0.0000
vn 0.0016 1.0000 -0.0000
vn 0.0042 1.0000 -0.0000
vn 0.0054 1.0000 -0.0000
vn 0.0070 1.0000 -0.0000
vn 0.0055 1.0000 -0.0000
vn 0.0088 1.0000 -0.0000
vn 0.0073 1.0000 -0.0000
vn 0.0101 0.9999 -0.0000
vn 0.0089 1.0000 -0.0000
vn 0.0102 0.9999 -0.0000
vn 0.0110 0.9999 -0.0000
vn 0.0111 0.9999 -0.0000
vn 0.0116 0.9999 -0.0000
vn 0.0123 0.9999 -0.0000
vn 0.0124 0.9999 -0.0000
vn 0.0141 0.9999 -0.0000
vn 0.0158 0.9999 -0.0000
vn 0.0142 0.9999 -0.0000
vn 0.0164 0.9999 -0.0000
vn 0.0159 0.9999 -0.0000
vn 0.0157 0.9999 -0.0000
vn 0.0139 0.9999 -0.0000
vn 0.0134 0.9999 -0.0000
vn 0.0137 0.9999 -0.0000
vn 0.0135 0.9999 -0.0000
vn 0.0130 0.9999 -0.0000
vn -0.0684 0.9977 -0.0000
vn -0.0058 1.0000 -0.0000
vn -0.0604 0.9982 -0.0000
vn -0.0670 0.9978 -0.0000
vn -0.0541 0.9985 -0.0000
vn -0.0600 0.9982 -0.0000
vn -0.0533 0.9986 -0.0000
vn -0.0479 0.9989 -0.0000
vn -0.0496 0.9988 -0.0000
vn -0.0500 0.9987 -0.0000
vn -0.0439 0.9990 -0.0000
vn -0.0372 0.9993 -0.0000
vn -0.0422 0.9991 -0.0000
vn -0.0285 0.9996 -0.0000
vn -0.0355 0.9994 -0.0000
vn -0.0210 0.9998 -0.0000
vn -0.0142 0.9999 -0.0000
vn -0.0163 0.9999 -0.0000
vn -0.0100 1.0000 -0.0000
vn -0.0075 1.0000 -0.0000
vn -0.0049 1.0000 -0.0000
vn -0.0021 1.0000 -0.0000
vn -0.0002 1.0000 -0.0000
vn 0.0032 1.0000 -0.0000
vn 0.0053 1.0000 -0.0000
vn 0.0071 1.0000 -0.0000
vn 0.0087 1.0000 -0.0000
vn 0.0100 0.9999 -0.0000
vn 0.0125 0.9999 -0.0000
vn 0.0140 0.9999 -0.0000
vn 0.0136 0.9999 -0.0000
vn 0.0132 0.9999 -0.0000
vn 0.0012 1.0000 -0.0000
vn 0.0131 0.9999 -0.0000
vn 0.1485 -0.9889 -0.0000
vn 0.1194 -0.9928 -0.0000
vn 0.1191 -0.9929 -0.0000
vn 0.0971 -0.9953 -0.0000
vn 0.0921 -0.9958 -0.0000
vn 0.0970 -0.9953 -0.0000
vn 0.0913 -0.9958 -0.0000
vn 0.0903 -0.9959 -0.0000
vn 0.0912 -0.9958 -0.0000
vn 0.0893 -0.9960 -0.0000
vn 0.0880 -0.9961 -0.0000
vn 0.0892 -0.9960 -0.0000
vn 0.0867 -0.9962 -0.0000
vn 0.0865 -0.9962 -0.0000
vn 0.0851 -0.9964 -0.0000
vn 0.0849 -0.9964 -0.0000
vn 0.0834 -0.9965 -0.0000
vn 0.0830 -0.9965 -0.0000
vn 0.0815 -0.9967 -0.0000
vn 0.0811 -0.9967 -0.0000
vn 0.0794 -0.9968 -0.0000
vn 0.0791 -0.9969 -0.0000
vn 0.0772 -0.9970 -0.0000
vn 0.0751 -0.9972 -0.0000
vn 0.0771 -0.9970 -0.0000
vn 0.0732 -0.9973 -0.0000
vn 0.0749 -0.9972 -0.0000
vn 0.0710 -0.9975 -0.0000
vn 0.0725 -0.9974 -0.0000
vn 0.0685 -0.9977 -0.0000
vn 0.0701 -0.9975 -0.0000
vn 0.0658 -0.9978 -0.0000
vn 0.0677 -0.9977 -0.0000
vn 0.0629 -0.9980 -0.0000
vn 0.0652 -0.9979 -0.0000
vn 0.0602 -0.9982 -0.0000
vn 0.0627 -0.9980 -0.0000
vn 0.0580 -0.9983 -0.0000
vn 0.0603 -0.9982 -0.0000
vn 0.0577 -0.9983 -0.0000
vn 0.0558 -0.9984 -0.0000
vn 0.0554 -0.9985 -0.0000
vn 0.0536 -0.9986 -0.0000
vn 0.0532 -0.9986 -0.0000
vn 0.0515 -0.9987 -0.0000
vn 0.0512 -0.9987 -0.0000
vn 0.0494 -0.9988 -0.0000
vn 0.0475 -0.9989 -0.0000
vn 0.0493 -0.9988 -0.0000
vn 0.0456 -0.9990 -0.0000
vn 0.0474 -0.9989 -0.0000
vn 0.0441 -0.9990 -0.0000
vn 0.0455 -0.9990 -0.0000
vn -0.0106 -0.9999 -0.0000
vn -0.0106 -0.9999 -0.0001
vn -0.0106 -0.9999 -0.0003
vn -0.0106 -0.9999 -0.0020
vn -0.0100 -0.9999 -0.0003
vn -0.0101 -0.9999 -0.0037
vn -0.0092 -1.0000 -0.0002
vn -0.0091 -1.0000 -0.0019
vn -0.0087 -1.0000 -0.0001
vn -0.0087 -1.0000 -0.0007
vn -0.0118 -0.9999 -0.0000
vn -0.0122 -0.9999 -0.0000
vn -0.0126 -0.9999 -0.0000
vn -0.0141 -0.9999 -0.0000
vn -0.0157 -0.9999 -0.0000
vn -0.0164 -0.9999 -0.0000
vn -0.0159 -0.9999 -0.0000
vn -0.0160 -0.9999 -0.0000
vn -0.0155 -0.9999 -0.0000
vn -0.0161 -0.9999 -0.0000
vn -0.0163 -0.9999 -0.0000
vn -0.0136 -0.9999 -0.0000
vn -0.0142 -0.9999 -0.0000
vn -0.0139 -0.9999 -0.0000
vn -0.0130 -0.9999 -0.0000
vn -0.0113 -0.9999 -0.0000
vn -0.0127 -0.9999 -0.0000
vn 0.1508 -0.9886 -0.0000
vn -0.0086 -1.0000 -0.0000
f 1/1/1 2/1/2 3/1/3
f 4/2/4 5/3/5 2/4/2
f 6/5/6 7/6/7 5/3/5
f 8/7/8 9/8/9 7/6/7
f 10/9/10 11/10/11 9/8/9
f 12/11/12 13/12/13 11/10/11
f 14/13/14 15/14/15 13/12/13
f 16/15/16 17/16/17 15/14/15
f 18/17/18 19/18/19 17/16/17
f 20/19/20 21/20/21 19/18/19
f 22/21/22 23/22/23 21/20/21
f 24/23/24 25/24/25 23/22/23
f 26/25/26 27/26/25 25/24/25
f 28/27/27 29/28/28 27/26/25
f 30/29/29 31/30/30 29/28/28
f 32/31/30 31/30/30 33/32/30
f 34/33/31 35/34/30 32/31/30
f 34/33/31 36/35/23 37/36/31
f 38/37/29 39/38/32 36/35/23
f 40/39/33 41/40/34 39/38/32
f 42/41/26 43/42/35 41/40/34
f 44/43/35 45/44/36 43/42/35
f 46/45/37 45/44/36 47/46/38
f 48/47/39 49/48/37 46/45/37
f 50/49/40 51/50/41 48/47/39
f 52/51/42 53/52/43 50/49/40
f 54/53/44 55/54/45 52/51/42
f 54/53/44 56/55/46 57/56/47
f 58/57/48 59/58/49 56/55/46
f 60/59/50 61/60/51 59/58/49
f 62/61/52 61/60/51 63/62/53
f 64/63/54 65/64/52 62/61/52
f 66/65/55 67/66/54 64/63/54
f 68/67/56 69/68/57 66/65/55
f 70/69/58 71/70/59 68/67/56
f 70/69/58 72/71/60 73/72/61
f 74/73/62 75/74/63 72/71/60
f 76/75/64 77/76/65 75/74/63
f 78/77/65 79/78/66 77/76/65
f 80/79/67 81/80/68 79/78/66
f 82/81/69 81/80/68 83/82/70
f 84/83/71 85/84/72 82/81/69
f 86/85/73 87/86/71 84/83/71
f 86/85/73 88/87/70 89/88/69
f 90/89/74 91/90/75 88/87/70
f 92/91/76 93/92/77 91/90/75
f 94/93/78 95/94/53 93/92/77
f 96/95/79 97/95/80 98/95/3
f 99/96/81 100/97/82 96/98/79
f 101/99/83 102/100/84 99/96/81
f 103/101/12 104/102/85 101/99/83
f 105/103/14 106/104/86 103/101/12
f 107/105/87 108/106/88 105/103/14
f 109/107/89 110/108/86 107/105/87
f 111/109/90 112/110/91 109/107/89
f 113/111/92 114/112/93 111/109/90
f 113/111/92 115/113/94 116/114/20
f 117/115/29 115/113/94 118/116/94
f 119/117/25 120/118/28 117/115/29
f 121/119/34 122/120/26 119/117/25
f 123/121/24 124/122/95 121/119/34
f 125/123/30 126/124/96 123/121/24
f 127/125/30 128/126/30 125/123/30
f 127/125/30 129/127/31 130/128/30
f 131/129/31 132/130/23 129/127/31
f 133/131/29 134/132/32 132/130/23
f 135/133/33 136/134/25 134/132/32
f 137/135/26 138/136/35 136/134/25
f 139/137/36 138/136/35 140/138/35
f 141/139/37 142/140/38 139/137/36
f 143/141/39 144/142/37 141/139/37
f 145/143/97 146/144/41 143/141/39
f 147/145/42 148/146/40 145/143/97
f 149/147/47 150/148/98 147/145/42
f 149/147/47 151/149/46 152/150/99
f 153/151/100 154/152/101 151/149/46
f 155/153/53 154/152/101 156/154/50
f 157/155/52 158/156/51 155/153/53
f 157/155/52 159/157/54 160/158/102
f 161/159/103 159/157/54 162/160/54
f 163/161/104 164/162/57 161/159/103
f 163/161/104 165/163/105 166/164/104
f 167/165/61 168/166/106 165/163/105
f 169/167/62 170/168/63 168/166/106
f 171/169/64 172/170/65 170/168/63
f 173/171/65 174/172/66 172/170/65
f 175/173/107 176/174/68 174/172/66
f 177/175/69 176/174/68 178/176/68
f 179/177/71 180/178/72 177/175/69
f 179/177/71 181/179/69 182/180/71
f 183/181/69 184/182/108 181/179/69
f 185/183/109 184/182/108 186/184/68
f 187/185/110 188/186/76 185/183/109
f 187/185/110 189/187/111 190/188/112
f 191/189/3 192/189/3 193/189/3
f 194/190/113 195/191/114 192/192/113
f 196/193/115 197/194/116 195/191/114
f 198/195/117 197/194/116 199/196/118
f 200/197/119 201/198/117 198/195/117
f 202/199/120 203/200/121 200/197/119
f 204/201/122 205/202/120 202/199/120
f 206/203/123 207/204/124 204/201/122
f 206/203/123 208/205/125 209/206/123
f 210/207/126 211/208/127 208/205/125
f 212/209/128 213/210/129 211/208/127
f 214/211/130 215/212/131 213/210/129
f 216/213/132 217/214/133 215/212/131
f 218/215/134 219/216/135 217/214/133
f 220/217/136 219/216/135 221/218/137
f 222/219/138 223/220/139 220/217/136
f 224/221/140 225/222/141 222/219/138
f 226/223/142 227/224/143 224/221/140
f 228/225/144 229/226/145 226/223/142
f 230/227/146 231/228/147 228/225/144
f 232/229/148 233/230/149 230/227/146
f 232/229/148 234/231/150 235/232/151
f 236/233/152 237/234/153 234/231/150
f 238/235/154 239/236/155 237/234/153
f 240/237/156 241/238/157 239/236/155
f 242/239/158 243/240/159 241/238/157
f 244/241/160 243/240/159 245/242/161
f 246/243/162 247/244/163 244/241/160
f 248/245/164 249/246/165 246/243/162
f 250/247/166 251/248/167 252/249/166
f 250/247/166 253/250/168 254/251/166
f 255/252/166 256/253/169 253/250/168
f 257/254/170 258/255/171 256/253/169
f 259/256/172 260/257/173 258/255/171
f 261/258/174 262/259/175 260/257/173
f 263/260/176 264/261/177 265/262/176
f 266/263/178 267/264/179 264/261/177
f 268/265/180 267/264/179 269/266/179
f 270/267/181 271/268/182 268/265/180
f 272/269/183 273/270/181 270/267/181
f 272/269/183 274/271/184 275/272/185
f 276/273/186 277/274/181 278/275/186
f 279/276/183 277/274/181 280/277/186
f 281/278/179 282/279/180 279/276/183
f 281/278/179 283/280/187 284/281/188
f 285/282/189 286/283/190 283/280/187
f 287/284/191 286/283/190 288/285/192
f 289/286/3 290/286/3 291/286/3
f 292/287/3 293/288/3 289/289/3
f 294/290/3 295/291/3 292/287/3
f 296/292/3 297/293/3 294/290/3
f 298/294/3 299/295/3 296/292/3
f 300/296/3 301/297/3 298/294/3
f 302/298/3 303/299/3 300/296/3
f 304/300/3 305/301/3 302/298/3
f 306/302/3 307/303/3 304/300/3
f 308/304/3 309/305/3 306/302/3
f 310/306/3 311/307/3 308/304/3
f 312/308/3 313/309/3 310/306/3
f 314/310/3 315/311/3 312/308/3
f 316/312/3 317/313/3 314/310/3
f 318/314/3 319/315/3 316/312/3
f 320/316/3 321/317/3 318/314/3
f 322/318/3 323/319/3 320/316/3
f 324/320/3 325/321/3 322/318/3
f 326/322/3 327/323/3 324/320/3
f 328/324/3 329/325/3 326/322/3
f 330/326/3 331/327/3 328/324/3
f 332/328/3 333/329/3 330/326/3
f 1/330/1 4/2/4 2/4/2
f 4/2/4 6/5/6 5/3/5
f 6/5/6 8/7/8 7/6/7
f 8/7/8 10/9/10 9/8/9
f 10/9/10 12/11/12 11/10/11
f 12/11/12 14/13/14 13/12/13
f 14/13/14 16/15/16 15/14/15
f 16/15/16 18/17/18 17/16/17
f 18/17/18 20/19/20 19/18/19
f 20/19/20 22/21/22 21/20/21
f 22/21/22 24/23/24 23/22/23
f 24/23/24 26/25/26 25/24/25
f 26/25/26 28/27/27 27/26/25
f 28/27/27 30/29/29 29/28/28
f 30/29/29 33/32/30 31/30/30
f 32/31/30 35/34/30 31/30/30
f 34/33/31 37/36/31 35/34/30
f 34/33/31 38/37/29 36/35/23
f 38/37/29 40/39/33 39/38/32
f 40/39/33 42/41/26 41/40/34
f 42/41/26 44/43/35 43/42/35
f 44/43/35 47/46/38 45/44/36
f 46/45/37 49/48/37 45/44/36
f 48/47/39 51/50/41 49/48/37
f 50/49/40 53/52/43 51/50/41
f 52/51/42 55/54/45 53/52/43
f 54/53/44 57/56/47 55/54/45
f 54/53/44 58/57/48 56/55/46
f 58/57/48 60/59/50 59/58/49
f 60/59/50 63/62/53 61/60/51
f 62/61/52 65/64/52 61/60/51
f 64/63/54 67/66/54 65/64/52
f 66/65/55 69/68/57 67/66/54
f 68/67/56 71/70/59 69/68/57
f 70/69/58 73/72/61 71/70/59
f 70/69/58 74/73/62 72/71/60
f 74/73/62 76/75/64 75/74/63
f 76/75/64 78/77/65 77/76/65
f 78/77/65 80/79/67 79/78/66
f 80/79/67 83/82/70 81/80/68
f 82/81/69 85/84/72 81/80/68
f 84/83/71 87/86/71 85/84/72
f 86/85/73 89/88/69 87/86/71
f 86/85/73 90/89/74 88/87/70
f 90/89/74 92/91/76 91/90/75
f 92/91/76 94/93/78 93/92/77
f 94/331/78 334/331/3 95/331/53
f 96/98/79 100/97/82 97/332/80
f 99/96/81 102/100/84 100/97/82
f 101/99/83 104/102/85 102/100/84
f 103/101/12 106/104/86 104/102/85
f 105/103/14 108/106/88 106/104/86
f 107/105/87 110/108/86 108/106/88
f 109/107/89 112/110/91 110/108/86
f 111/109/90 114/112/93 112/110/91
f 113/111/92 116/114/20 114/112/93
f 113/111/92 118/116/94 115/113/94
f 117/115/29 120/118/28 115/113/94
f 119/117/25 122/120/26 120/118/28
f 121/119/34 124/122/95 122/120/26
f 123/121/24 126/124/96 124/122/95
f 125/123/30 128/126/30 126/124/96
f 127/125/30 130/128/30 128/126/30
f 127/125/30 131/129/31 129/127/31
f 131/129/31 133/131/29 132/130/23
f 133/131/29 135/133/33 134/132/32
f 135/133/33 137/135/26 136/134/25
f 137/135/26 140/138/35 138/136/35
f 139/137/36 142/140/38 138/136/35
f 141/139/37 144/142/37 142/140/38
f 143/141/39 146/144/41 144/142/37
f 145/143/97 148/146/40 146/144/41
f 147/145/42 150/148/98 148/146/40
f 149/147/47 152/150/99 150/148/98
f 149/147/47 153/151/100 151/149/46
f 153/151/100 156/154/50 154/152/101
f 155/153/53 158/156/51 154/152/101
f 157/155/52 160/158/102 158/156/51
f 157/155/52 162/160/54 159/157/54
f 161/159/103 164/162/57 159/157/54
f 163/161/104 166/164/104 164/162/57
f 163/161/104 167/165/61 165/163/105
f 167/165/61 169/167/62 168/166/106
f 169/167/62 171/169/64 170/168/63
f 171/169/64 173/171/65 172/170/65
f 173/171/65 175/173/107 174/172/66
f 175/173/107 178/176/68 176/174/68
f 177/175/69 180/178/72 176/174/68
f 179/177/71 182/180/71 180/178/72
f 179/177/71 183/181/69 181/179/69
f 183/181/69 186/184/68 184/182/108
f 185/183/109 188/186/76 184/182/108
f 187/185/110 190/188/112 188/186/76
f 187/333/110 335/333/3 189/333/111
f 191/334/193 194/190/113 192/192/113
f 194/190/113 196/193/115 195/191/114
f 196/193/115 199/196/118 197/194/116
f 198/195/117 201/198/117 197/194/116
f 200/197/119 203/200/121 201/198/117
f 202/199/120 205/202/120 203/200/121
f 204/201/122 207/204/124 205/202/120
f 206/203/123 209/206/123 207/204/124
f 206/203/123 210/207/126 208/205/125
f 210/207/126 212/209/128 211/208/127
f 212/209/128 214/211/130 213/210/129
f 214/211/130 216/213/132 215/212/131
f 216/213/132 218/215/134 217/214/133
f 218/215/134 221/218/137 219/216/135
f 220/217/136 223/220/139 219/216/135
f 222/219/138 225/222/141 223/220/139
f 224/221/140 227/224/143 225/222/141
f 226/223/142 229/226/145 227/224/143
f 228/225/144 231/228/147 229/226/145
f 230/227/146 233/230/149 231/228/147
f 232/229/148 235/232/151 233/230/149
f 232/229/148 236/233/152 234/231/150
f 236/233/152 238/235/154 237/234/153
f 238/235/154 240/237/156 239/236/155
f 240/237/156 242/239/158 241/238/157
f 242/239/158 245/242/161 243/240/159
f 244/241/160 247/244/163 243/240/159
f 246/243/162 249/246/165 247/244/163
f 248/335/3 336/335/3 249/335/3
f 250/247/166 254/251/166 251/248/167
f 250/247/166 255/252/166 253/250/168
f 255/252/166 257/254/170 256/253/169
f 257/254/170 259/256/172 258/255/171
f 259/256/172 261/258/174 260/257/173
f 261/258/174 337/336/194 262/259/175
f 263/260/176 266/263/178 264/261/177
f 266/263/178 269/266/179 267/264/179
f 268/265/180 271/268/182 267/264/179
f 270/267/181 273/270/181 271/268/182
f 272/269/183 275/272/185 273/270/181
f 272/269/183 338/337/184 274/271/184
f 276/273/186 280/277/186 277/274/181
f 279/276/183 282/279/180 277/274/181
f 281/278/179 284/281/188 282/279/180
f 281/278/179 285/282/189 283/280/187
f 285/282/189 288/285/192 286/283/190
f 287/284/191 339/338/191 286/283/190
f 289/289/3 293/288/3 290/339/3
f 292/287/3 295/291/3 293/288/3
f 294/290/3 297/293/3 295/291/3
f 296/292/3 299/295/3 297/293/3
f 298/294/3 301/297/3 299/295/3
f 300/296/3 303/299/3 301/297/3
f 302/298/3 305/301/3 303/299/3
f 304/300/3 307/303/3 305/301/3
f 306/302/3 309/305/3 307/303/3
f 308/304/3 311/307/3 309/305/3
f 310/306/3 313/309/3 311/307/3
f 312/308/3 315/311/3 313/309/3
f 314/310/3 317/313/3 315/311/3
f 316/312/3 319/315/3 317/313/3
f 318/314/3 321/317/3 319/315/3
f 320/316/3 323/319/3 321/317/3
f 322/318/3 325/321/3 323/319/3
f 324/320/3 327/323/3 325/321/3
f 326/322/3 329/325/3 327/323/3
f 328/324/3 331/327/3 329/325/3
f 330/326/3 333/329/3 331/327/3
f 332/340/3 340/340/3 333/340/3
