# JIB VI - the shifter parts, as a standalone mesh.
#
# One file per material rather than one library addressed with `#group`:
# selecting a group recentres it on its own bounding box, which takes a
# model apart when the library IS one model. A whole-file import keeps
# the authored coordinates. See loom_asset/src/mesh.rs:268.
v 2.515000 4.000000 -1.177000
v 2.401033 4.295344 -1.168500
v 2.415000 4.300000 -1.177000
v 2.501033 3.995344 -1.151500
v 2.501033 3.995344 -1.168500
v 2.515000 4.000000 -1.143000
v 2.401033 4.295344 -1.151500
v 2.528967 4.004656 -1.151500
v 2.415000 4.300000 -1.143000
v 2.528967 4.004656 -1.168500
v 2.428967 4.304656 -1.151500
v 2.428967 4.304656 -1.168500
v 2.444698 4.285302 -1.125000
v 2.457000 4.315000 -1.195000
v 2.457000 4.315000 -1.125000
v 2.415000 4.273000 -1.125000
v 2.444698 4.285302 -1.195000
v 2.385302 4.285302 -1.125000
v 2.415000 4.273000 -1.195000
v 2.373000 4.315000 -1.125000
v 2.385302 4.285302 -1.195000
v 2.385302 4.344698 -1.125000
v 2.373000 4.315000 -1.195000
v 2.415000 4.357000 -1.125000
v 2.385302 4.344698 -1.195000
v 2.444698 4.344698 -1.125000
v 2.415000 4.357000 -1.195000
v 2.444698 4.344698 -1.195000
vt 0.285425 0.662169
vt 0.285399 0.661640
vt 0.285425 0.661640
vt 0.669591 0.595644
vt 0.669619 0.595147
vt 0.669619 0.595644
vt 0.256462 0.662168
vt 0.256486 0.661641
vt 0.256486 0.662169
vt 0.256437 0.662169
vt 0.256462 0.661640
vt 0.669591 0.495656
vt 0.669618 0.495156
vt 0.669618 0.495658
vt 0.285447 0.662169
vt 0.285447 0.661640
vt 0.922782 0.159547
vt 0.922806 0.159532
vt 0.922830 0.159545
vt 0.922782 0.149885
vt 0.922806 0.149872
vt 0.922830 0.149887
vt 0.816167 0.539548
vt 0.816217 0.539438
vt 0.816217 0.539552
vt 0.825925 0.277083
vt 0.825975 0.276966
vt 0.825975 0.277083
vt 0.825876 0.277083
vt 0.825925 0.276966
vt 0.402841 0.820469
vt 0.402890 0.820352
vt 0.402890 0.820469
vt 0.402791 0.820469
vt 0.402841 0.820351
vt 0.825925 0.267243
vt 0.825876 0.267361
vt 0.825876 0.267243
vt 0.825975 0.267243
vt 0.825925 0.267361
vt 0.816266 0.539433
vt 0.816266 0.539548
vt 0.777354 0.112160
vt 0.777392 0.112252
vt 0.777300 0.112290
vt 0.777353 0.170855
vt 0.777391 0.170893
vt 0.777262 0.170947
vt 0.285399 0.662169
vt 0.669591 0.595147
vt 0.256437 0.661641
vt 0.669591 0.495154
vt 0.922830 0.159572
vt 0.922806 0.159587
vt 0.922782 0.159574
vt 0.922830 0.149914
vt 0.922806 0.149927
vt 0.922782 0.149912
vt 0.816167 0.539433
vt 0.825876 0.276966
vt 0.402791 0.820352
vt 0.825975 0.267361
vt 0.777262 0.112198
vt 0.777300 0.112160
vt 0.777392 0.112199
vt 0.777354 0.112290
vt 0.777262 0.112252
vt 0.777391 0.170947
vt 0.777353 0.170985
vt 0.777300 0.170985
vt 0.777262 0.170894
vt 0.777300 0.170855
vn -0.4743 -0.1581 -0.8660
vn -0.9487 -0.3162 -0.0000
vn -0.4743 -0.1581 0.8660
vn 0.4743 0.1581 0.8660
vn 0.9487 0.3162 -0.0000
vn 0.4743 0.1581 -0.8660
vn 0.3162 -0.9487 -0.0000
vn 0.3163 -0.9487 -0.0000
vn -0.3162 0.9487 -0.0000
vn -0.3163 0.9487 -0.0000
vn 0.7071 -0.7071 -0.0000
vn 0.9239 -0.3827 -0.0000
vn 0.3827 -0.9239 -0.0000
vn -0.7071 -0.7071 -0.0000
vn -0.3827 -0.9239 -0.0000
vn -0.9239 -0.3827 -0.0000
vn -0.7071 0.7071 -0.0000
vn -0.9239 0.3827 -0.0000
vn -0.3827 0.9239 -0.0000
vn 0.7071 0.7071 -0.0000
vn 0.3827 0.9239 -0.0000
vn 0.9239 0.3827 -0.0000
vn -0.0000 -0.0000 1.0000
vn -0.0000 -0.0000 -1.0000
f 1/1/1 2/2/1 3/3/1
f 4/4/2 2/5/2 5/6/2
f 6/7/3 7/8/3 4/9/3
f 8/10/4 9/11/4 6/7/4
f 10/12/5 11/13/5 8/14/5
f 10/15/6 3/3/6 12/16/6
f 4/17/7 5/18/8 1/19/8
f 9/20/9 11/21/10 12/22/10
f 13/23/11 14/24/12 15/25/12
f 16/26/13 17/27/11 13/28/11
f 18/29/14 19/30/15 16/26/15
f 20/31/16 21/32/14 18/33/14
f 22/34/17 23/35/18 20/31/18
f 24/36/19 25/37/17 22/38/17
f 26/39/20 27/40/21 24/36/21
f 15/25/22 28/41/20 26/42/20
f 24/43/23 20/44/23 16/45/23
f 27/46/24 28/47/24 21/48/24
f 1/1/1 5/49/1 2/2/1
f 4/4/2 7/50/2 2/5/2
f 6/7/3 9/11/3 7/8/3
f 8/10/4 11/51/4 9/11/4
f 10/12/5 12/52/5 11/13/5
f 10/15/6 1/1/6 3/3/6
f 1/19/8 10/53/8 8/54/8
f 8/54/8 6/55/7 1/19/8
f 6/55/7 4/17/7 1/19/8
f 12/22/10 3/56/9 9/20/9
f 3/56/9 2/57/9 9/20/9
f 2/57/9 7/58/9 9/20/9
f 13/23/11 17/59/11 14/24/12
f 16/26/13 19/30/13 17/27/11
f 18/29/14 21/60/14 19/30/15
f 20/31/16 23/35/16 21/32/14
f 22/34/17 25/61/17 23/35/18
f 24/36/19 27/40/19 25/37/17
f 26/39/20 28/62/20 27/40/21
f 15/25/22 14/24/22 28/41/20
f 15/63/23 26/64/23 24/43/23
f 24/43/23 22/65/23 20/44/23
f 20/44/23 18/66/23 16/45/23
f 16/45/23 13/67/23 15/63/23
f 15/63/23 24/43/23 16/45/23
f 28/47/24 14/68/24 17/69/24
f 17/69/24 19/70/24 28/47/24
f 19/70/24 21/48/24 28/47/24
f 21/48/24 23/71/24 25/72/24
f 25/72/24 27/46/24 21/48/24
