# JIB VI - the wash parts, as a standalone mesh.
#
# One file per material rather than one library addressed with `#group`:
# selecting a group recentres it on its own bounding box, which takes a
# model apart when the library IS one model. A whole-file import keeps
# the authored coordinates. See loom_asset/src/mesh.rs:268.
v -8.848647 0.655934 -2.701757
v -8.759000 0.428516 -2.594976
v -8.871000 0.655925 -2.700415
v -8.826294 0.655942 -2.703124
v -8.749824 0.404389 -2.582294
v -8.803942 0.655951 -2.704515
v -8.740647 0.383450 -2.571077
v -8.781589 0.655960 -2.705931
v -8.731471 0.366438 -2.561890
v -8.759235 0.655968 -2.707370
v -8.722294 0.354605 -2.555611
v -8.736882 0.655977 -2.708834
v -8.713118 0.348648 -2.552780
v -8.694765 0.350570 -2.555399
v -8.703941 0.347966 -2.553105
v -8.714530 0.655986 -2.710322
v -8.685589 0.353615 -2.557951
v -8.692177 0.655995 -2.711833
v -8.676412 0.354312 -2.559107
v -8.647470 0.656012 -2.714926
v -8.669824 0.656003 -2.713368
v -8.625118 0.656021 -2.716507
v -8.667235 0.351458 -2.558159
v -8.602765 0.656029 -2.718112
v -8.658059 0.346002 -2.555658
v -8.639706 0.338447 -2.552647
v -8.648883 0.340475 -2.553102
v -8.580412 0.656038 -2.719739
v -8.630529 0.343498 -2.556446
v -8.558059 0.656046 -2.721390
v -8.621353 0.358064 -2.565845
v -8.535706 0.656054 -2.723062
v -8.612177 0.382661 -2.580832
v -8.513353 0.656062 -2.724695
v -8.603000 0.415879 -2.600120
v -8.759000 0.428516 2.594976
v -8.848647 0.655934 2.701757
v -8.871000 0.655925 2.700415
v -8.749824 0.404389 2.582294
v -8.826294 0.655942 2.703124
v -8.740647 0.383450 2.571077
v -8.803942 0.655951 2.704515
v -8.731471 0.366438 2.561890
v -8.781589 0.655960 2.705931
v -8.722294 0.354605 2.555611
v -8.759235 0.655968 2.707370
v -8.713118 0.348648 2.552780
v -8.736882 0.655977 2.708834
v -8.694765 0.350570 2.555399
v -8.703941 0.347966 2.553105
v -8.685589 0.353615 2.557951
v -8.714530 0.655986 2.710322
v -8.676412 0.354312 2.559107
v -8.692177 0.655995 2.711833
v -8.647470 0.656012 2.714926
v -8.669824 0.656003 2.713368
v -8.667235 0.351458 2.558159
v -8.625118 0.656021 2.716507
v -8.658059 0.346002 2.555658
v -8.602765 0.656029 2.718112
v -8.639706 0.338447 2.552647
v -8.648883 0.340475 2.553102
v -8.630529 0.343498 2.556446
v -8.580412 0.656038 2.719739
v -8.621353 0.358064 2.565845
v -8.558059 0.656046 2.721390
v -8.612177 0.382661 2.580832
v -8.535706 0.656054 2.723062
v -8.603000 0.415879 2.600120
v -8.513353 0.656062 2.724695
v -5.576647 0.612622 -2.850986
v -5.487000 0.393748 -2.754529
v -5.599000 0.612620 -2.849948
v -5.554294 0.612624 -2.852023
v -5.477824 0.377196 -2.746760
v -5.531941 0.612626 -2.853056
v -5.468647 0.365196 -2.741163
v -5.509588 0.612627 -2.854087
v -5.459471 0.355161 -2.736501
v -5.487236 0.612629 -2.855116
v -5.450294 0.345842 -2.732156
v -5.464882 0.612631 -2.856141
v -5.441118 0.337443 -2.728247
v -5.442530 0.612632 -2.857164
v -5.431942 0.331082 -2.725370
v -5.420177 0.612634 -2.858184
v -5.422765 0.327889 -2.724138
v -5.404412 0.331084 -2.726693
v -5.413589 0.328183 -2.724734
v -5.397824 0.612635 -2.859201
v -5.395236 0.335252 -2.729306
v -5.375471 0.612636 -2.860215
v -5.386059 0.339399 -2.731898
v -5.353118 0.612638 -2.861226
v -5.376883 0.342446 -2.733911
v -5.330765 0.612639 -2.862233
v -5.367706 0.344325 -2.735316
v -5.308412 0.612640 -2.863237
v -5.358530 0.346456 -2.736848
v -5.286059 0.612641 -2.864238
v -5.349353 0.351608 -2.739923
v -5.263706 0.612642 -2.865236
v -5.340177 0.363108 -2.746203
v -5.241353 0.612643 -2.866229
v -5.331000 0.383714 -2.756940
v -5.487000 0.393748 2.754529
v -5.576647 0.612622 2.850986
v -5.599000 0.612620 2.849948
v -5.477824 0.377196 2.746760
v -5.554294 0.612624 2.852023
v -5.468647 0.365196 2.741163
v -5.531941 0.612626 2.853056
v -5.459471 0.355161 2.736501
v -5.509588 0.612627 2.854087
v -5.450294 0.345842 2.732156
v -5.487236 0.612629 2.855116
v -5.441118 0.337443 2.728247
v -5.464882 0.612631 2.856141
v -5.431942 0.331082 2.725370
v -5.442530 0.612632 2.857164
v -5.422765 0.327889 2.724138
v -5.420177 0.612634 2.858184
v -5.404412 0.331084 2.726693
v -5.413589 0.328183 2.724734
v -5.395236 0.335252 2.729306
v -5.397824 0.612635 2.859201
v -5.386059 0.339399 2.731898
v -5.375471 0.612636 2.860215
v -5.376883 0.342446 2.733911
v -5.353118 0.612638 2.861226
v -5.367706 0.344325 2.735316
v -5.330765 0.612639 2.862233
v -5.358530 0.346456 2.736848
v -5.308412 0.612640 2.863237
v -5.349353 0.351608 2.739923
v -5.286059 0.612641 2.864238
v -5.340177 0.363108 2.746203
v -5.263706 0.612642 2.865236
v -5.331000 0.383714 2.756940
v -5.241353 0.612643 2.866229
v -4.344647 0.605461 -2.900628
v -4.255000 0.399222 -2.809674
v -4.367000 0.605463 -2.899713
v -4.322294 0.605459 -2.901542
v -4.245824 0.378478 -2.799923
v -4.299942 0.605457 -2.902456
v -4.236647 0.366361 -2.794286
v -4.277588 0.605456 -2.903369
v -4.227471 0.360975 -2.791961
v -4.255236 0.605454 -2.904281
v -4.218294 0.359473 -2.791574
v -4.232882 0.605451 -2.905192
v -4.209118 0.359064 -2.791733
v -4.210529 0.605449 -2.906101
v -4.199941 0.357881 -2.791504
v -4.188177 0.605447 -2.907008
v -4.190765 0.355381 -2.790611
v -4.165823 0.605445 -2.907914
v -4.181588 0.352157 -2.789349
v -4.163236 0.348455 -2.788201
v -4.172412 0.349346 -2.788290
v -4.143471 0.605443 -2.908817
v -4.154059 0.350763 -2.789731
v -4.121118 0.605440 -2.909718
v -4.144883 0.356445 -2.792958
v -4.098765 0.605438 -2.910615
v -4.135706 0.364701 -2.797456
v -4.076412 0.605435 -2.911510
v -4.126530 0.374374 -2.802622
v -4.054059 0.605433 -2.912402
v -4.117353 0.384801 -2.808114
v -4.031706 0.605430 -2.913290
v -4.108177 0.396511 -2.814178
v -4.009353 0.605428 -2.914175
v -4.099000 0.411404 -2.821702
v -4.255000 0.399222 2.809674
v -4.344647 0.605461 2.900628
v -4.367000 0.605463 2.899713
v -4.245824 0.378478 2.799923
v -4.322294 0.605459 2.901542
v -4.236647 0.366361 2.794286
v -4.299942 0.605457 2.902456
v -4.227471 0.360975 2.791961
v -4.277588 0.605456 2.903369
v -4.218294 0.359473 2.791574
v -4.255236 0.605454 2.904281
v -4.209118 0.359064 2.791733
v -4.232882 0.605451 2.905192
v -4.199941 0.357881 2.791504
v -4.210529 0.605449 2.906101
v -4.190765 0.355381 2.790611
v -4.188177 0.605447 2.907008
v -4.181588 0.352157 2.789349
v -4.165823 0.605445 2.907914
v -4.163236 0.348455 2.788201
v -4.172412 0.349346 2.788290
v -4.154059 0.350763 2.789731
v -4.143471 0.605443 2.908817
v -4.144883 0.356445 2.792958
v -4.121118 0.605440 2.909718
v -4.135706 0.364701 2.797456
v -4.098765 0.605438 2.910615
v -4.126530 0.374374 2.802622
v -4.076412 0.605435 2.911510
v -4.117353 0.384801 2.808114
v -4.054059 0.605433 2.912402
v -4.108177 0.396511 2.814178
v -4.031706 0.605430 2.913290
v -4.099000 0.411404 2.821702
v -4.009353 0.605428 2.914175
v 0.463353 0.651001 -2.878819
v 0.553000 0.432818 -2.745618
v 0.441000 0.651017 -2.880863
v 0.485706 0.650984 -2.876738
v 0.562176 0.416291 -2.734811
v 0.508059 0.650966 -2.874620
v 0.571353 0.404307 -2.726608
v 0.530412 0.650949 -2.872465
v 0.580529 0.394286 -2.719518
v 0.552765 0.650931 -2.870272
v 0.589706 0.384978 -2.712808
v 0.575117 0.650913 -2.868041
v 0.598882 0.376590 -2.706609
v 0.597470 0.650895 -2.865771
v 0.608059 0.370235 -2.701619
v 0.619823 0.650877 -2.863461
v 0.617235 0.367043 -2.698550
v 0.635588 0.370220 -2.698270
v 0.626412 0.367331 -2.697612
v 0.642176 0.650859 -2.861111
v 0.644765 0.374374 -2.699698
v 0.664529 0.650840 -2.858720
v 0.653941 0.378507 -2.701104
v 0.686882 0.650821 -2.856287
v 0.663117 0.381542 -2.701827
v 0.709235 0.650802 -2.853812
v 0.672294 0.383411 -2.701828
v 0.731588 0.650783 -2.851295
v 0.681470 0.385533 -2.701976
v 0.753941 0.650764 -2.848735
v 0.690647 0.390669 -2.703962
v 0.776294 0.650744 -2.846131
v 0.699823 0.402141 -2.709795
v 0.798647 0.650724 -2.843482
v 0.709000 0.422701 -2.721063
v 0.553000 0.432818 2.745618
v 0.463353 0.651001 2.878819
v 0.441000 0.651017 2.880863
v 0.562176 0.416291 2.734811
v 0.485706 0.650984 2.876738
v 0.571353 0.404307 2.726608
v 0.508059 0.650966 2.874620
v 0.580529 0.394286 2.719518
v 0.530412 0.650949 2.872465
v 0.589706 0.384978 2.712808
v 0.552765 0.650931 2.870272
v 0.598882 0.376590 2.706609
v 0.575117 0.650913 2.868041
v 0.608059 0.370235 2.701619
v 0.597470 0.650895 2.865771
v 0.617235 0.367043 2.698550
v 0.619823 0.650877 2.863461
v 0.635588 0.370220 2.698270
v 0.626412 0.367331 2.697612
v 0.644765 0.374374 2.699698
v 0.642176 0.650859 2.861111
v 0.653941 0.378507 2.701104
v 0.664529 0.650840 2.858720
v 0.663117 0.381542 2.701827
v 0.686882 0.650821 2.856287
v 0.672294 0.383411 2.701828
v 0.709235 0.650802 2.853812
v 0.681470 0.385533 2.701976
v 0.731588 0.650783 2.851295
v 0.690647 0.390669 2.703962
v 0.753941 0.650764 2.848735
v 0.699823 0.402141 2.709795
v 0.776294 0.650744 2.846131
v 0.709000 0.422701 2.721063
v 0.798647 0.650724 2.843482
v 2.381353 0.682013 -2.586057
v 2.471000 0.456204 -2.396889
v 2.359000 0.682040 -2.591514
v 2.403706 0.681986 -2.580539
v 2.480176 0.432175 -2.376312
v 2.426059 0.681960 -2.574960
v 2.489353 0.411320 -2.357938
v 2.448412 0.681933 -2.569317
v 2.498529 0.394375 -2.342390
v 2.470765 0.681906 -2.563611
v 2.507706 0.382586 -2.330688
v 2.493118 0.681880 -2.557840
v 2.516882 0.376645 -2.323425
v 2.515471 0.681854 -2.552004
v 2.526059 0.375955 -2.320185
v 2.537823 0.681827 -2.546103
v 2.535235 0.378537 -2.319457
v 2.560176 0.681801 -2.540136
v 2.544412 0.381557 -2.319060
v 2.582529 0.681775 -2.534101
v 2.553588 0.382241 -2.316850
v 2.604882 0.681749 -2.527999
v 2.562765 0.379390 -2.311898
v 2.627235 0.681723 -2.521828
v 2.571941 0.373948 -2.304918
v 2.649588 0.681697 -2.515588
v 2.581117 0.368436 -2.297856
v 2.599470 0.371424 -2.294588
v 2.590294 0.366407 -2.293482
v 2.671941 0.681672 -2.509279
v 2.608647 0.385912 -2.303047
v 2.694294 0.681646 -2.502898
v 2.617823 0.410385 -2.319177
v 2.716647 0.681620 -2.496447
v 2.627000 0.443442 -2.341750
v 2.471000 0.456204 2.396889
v 2.381353 0.682013 2.586057
v 2.359000 0.682040 2.591514
v 2.480176 0.432175 2.376312
v 2.403706 0.681986 2.580539
v 2.489353 0.411320 2.357938
v 2.426059 0.681960 2.574960
v 2.498529 0.394375 2.342390
v 2.448412 0.681933 2.569317
v 2.507706 0.382586 2.330688
v 2.470765 0.681906 2.563611
v 2.516882 0.376645 2.323425
v 2.493118 0.681880 2.557840
v 2.526059 0.375955 2.320185
v 2.515471 0.681854 2.552004
v 2.535235 0.378537 2.319457
v 2.537823 0.681827 2.546103
v 2.544412 0.381557 2.319060
v 2.560176 0.681801 2.540136
v 2.553588 0.382241 2.316850
v 2.582529 0.681775 2.534101
v 2.562765 0.379390 2.311898
v 2.604882 0.681749 2.527999
v 2.571941 0.373948 2.304918
v 2.627235 0.681723 2.521828
v 2.581117 0.368436 2.297856
v 2.649588 0.681697 2.515588
v 2.599470 0.371424 2.294588
v 2.590294 0.366407 2.293482
v 2.608647 0.385912 2.303047
v 2.671941 0.681672 2.509279
v 2.617823 0.410385 2.319177
v 2.694294 0.681646 2.502898
v 2.627000 0.443442 2.341750
v 2.716647 0.681620 2.496447
v -9.470000 0.520000 -1.994000
v -9.470000 -0.009016 -1.930000
v -9.470000 -0.034908 -1.994000
v -9.470000 0.039680 -2.058000
v -9.470000 0.130764 -2.122000
v -9.470000 0.520000 -2.058000
v -9.470000 0.169925 -2.186000
v -9.470000 0.520000 -2.122000
v -9.470000 0.219528 -2.250000
v -9.470000 0.520000 -2.186000
v -9.470000 0.520000 1.994000
v -9.470000 -0.009016 1.930000
v -9.470000 -0.034908 1.994000
v -9.470000 0.039680 2.058000
v -9.470000 0.130764 2.122000
v -9.470000 0.520000 2.058000
v -9.470000 0.169925 2.186000
v -9.470000 0.520000 2.122000
v -9.470000 0.219528 2.250000
v -9.470000 0.520000 2.186000
v -6.292368 3.084000 -1.120000
v -6.515000 3.084000 -1.050000
v -6.515000 3.084000 -1.050000
v -6.069737 3.084000 -1.120000
v -6.292368 3.084000 -1.205560
v -5.847106 3.084000 -1.120000
v -6.069737 3.084000 -1.396022
v -5.624474 3.084000 -1.370461
v -5.847106 3.084000 -1.425123
v -5.624474 3.084000 -1.120000
v -5.401842 3.084000 -1.333842
v -5.401842 3.084000 -1.120000
v -5.179211 3.084000 -1.267508
v -5.179211 3.084000 -1.120000
v -4.956579 3.084000 -0.432114
v -4.956579 3.084000 -0.160009
v -4.733948 3.084000 -0.170000
v -4.511316 3.084000 -1.120000
v -4.733948 3.084000 0.021476
v -4.288684 3.084000 1.120000
v -4.511316 3.084000 -1.314085
v -4.288684 3.084000 1.296595
v -4.066053 3.084000 1.120000
v -3.843421 3.084000 1.290066
v -4.066053 3.084000 1.309222
v -3.620790 3.084000 1.120000
v -3.843421 3.084000 1.120000
v -3.620790 3.084000 1.298987
v -3.398158 3.084000 1.120000
v -3.398158 3.084000 1.388940
v -3.175526 3.084000 1.120000
v -2.952895 3.084000 0.993721
v -3.175526 3.084000 1.440839
v -2.730263 3.084000 0.476250
v -2.952895 3.084000 0.352857
v -2.507632 3.084000 0.823391
v -2.730263 3.084000 1.003750
v -2.285000 3.084000 0.740000
v -2.507632 3.084000 0.656609
v -8.491000 0.656067 -2.725555
v -8.491000 0.656067 2.725555
v -5.219000 0.612644 -2.867220
v -5.219000 0.612644 2.867220
v -3.987000 0.605425 -2.915055
v -3.987000 0.605425 2.915055
v 0.821000 0.650704 -2.840788
v 0.821000 0.650704 2.840788
v 2.739000 0.681595 -2.489923
v 2.739000 0.681595 2.489923
v -9.470000 0.520000 -1.930000
v -9.470000 0.520000 -2.250000
v -9.470000 0.520000 1.930000
v -9.470000 0.520000 2.250000
v -2.285000 3.084000 0.740000
vt 0.689350 0.024824
vt 0.689315 0.025232
vt 0.689315 0.024810
vt 0.344303 0.567987
vt 0.343871 0.568085
vt 0.344303 0.567950
vt 0.344303 0.568025
vt 0.343835 0.568098
vt 0.344303 0.568062
vt 0.343806 0.568111
vt 0.344303 0.568099
vt 0.343785 0.568125
vt 0.344303 0.568137
vt 0.343775 0.568139
vt 0.343778 0.568170
vt 0.343774 0.568155
vt 0.344303 0.568174
vt 0.343783 0.568186
vt 0.344303 0.568212
vt 0.343785 0.568202
vt 0.344303 0.568287
vt 0.344303 0.568249
vt 0.344303 0.568324
vt 0.343780 0.568217
vt 0.344303 0.568361
vt 0.343770 0.568231
vt 0.343757 0.568261
vt 0.343761 0.568246
vt 0.344303 0.568399
vt 0.343766 0.568277
vt 0.344303 0.568436
vt 0.343791 0.568294
vt 0.344303 0.568474
vt 0.343834 0.568313
vt 0.033925 0.681959
vt 0.033929 0.682382
vt 0.033925 0.682438
vt 0.248288 0.682396
vt 0.248255 0.681975
vt 0.248288 0.681958
vt 0.531903 0.568383
vt 0.532041 0.567950
vt 0.532079 0.567950
vt 0.531887 0.568419
vt 0.532004 0.567950
vt 0.531871 0.568449
vt 0.531967 0.567950
vt 0.531855 0.568469
vt 0.531930 0.567950
vt 0.531839 0.568479
vt 0.531893 0.567950
vt 0.531809 0.568476
vt 0.531824 0.568481
vt 0.531794 0.568471
vt 0.531855 0.567950
vt 0.531778 0.568470
vt 0.531818 0.567950
vt 0.531744 0.567950
vt 0.531781 0.567950
vt 0.531763 0.568475
vt 0.531707 0.567950
vt 0.531747 0.568484
vt 0.531669 0.567950
vt 0.531717 0.568497
vt 0.531732 0.568494
vt 0.531702 0.568488
vt 0.531632 0.567950
vt 0.531687 0.568463
vt 0.531595 0.567950
vt 0.479635 0.662161
vt 0.479638 0.661640
vt 0.479638 0.662210
vt 0.595519 0.682366
vt 0.595524 0.681958
vt 0.595524 0.682420
vt 0.166420 0.567987
vt 0.166045 0.568114
vt 0.166420 0.567950
vt 0.166420 0.568025
vt 0.166016 0.568127
vt 0.166420 0.568062
vt 0.165996 0.568141
vt 0.166420 0.568099
vt 0.165978 0.568155
vt 0.166420 0.568136
vt 0.165962 0.568169
vt 0.166420 0.568174
vt 0.165948 0.568184
vt 0.166420 0.568211
vt 0.165937 0.568198
vt 0.166420 0.568248
vt 0.165932 0.568213
vt 0.165937 0.568244
vt 0.165932 0.568228
vt 0.166420 0.568286
vt 0.165944 0.568260
vt 0.166420 0.568323
vt 0.165951 0.568276
vt 0.166420 0.568360
vt 0.165957 0.568291
vt 0.166420 0.568397
vt 0.165960 0.568307
vt 0.166420 0.568435
vt 0.165963 0.568322
vt 0.166420 0.568472
vt 0.165972 0.568338
vt 0.166420 0.568509
vt 0.165992 0.568355
vt 0.166420 0.568547
vt 0.166027 0.568373
vt 0.155951 0.568387
vt 0.156327 0.568546
vt 0.156327 0.568583
vt 0.155922 0.568371
vt 0.156327 0.568509
vt 0.155902 0.568355
vt 0.156327 0.568471
vt 0.155884 0.568340
vt 0.156327 0.568434
vt 0.155868 0.568324
vt 0.156327 0.568397
vt 0.155854 0.568308
vt 0.156327 0.568360
vt 0.155843 0.568293
vt 0.156327 0.568322
vt 0.155837 0.568277
vt 0.156327 0.568285
vt 0.155843 0.568247
vt 0.155838 0.568262
vt 0.155850 0.568232
vt 0.156327 0.568248
vt 0.155857 0.568217
vt 0.156327 0.568211
vt 0.155862 0.568201
vt 0.156327 0.568173
vt 0.155866 0.568186
vt 0.156327 0.568136
vt 0.155869 0.568171
vt 0.156327 0.568099
vt 0.155878 0.568156
vt 0.156327 0.568062
vt 0.155898 0.568141
vt 0.156327 0.568024
vt 0.155933 0.568127
vt 0.156327 0.567987
vt 0.306614 0.692059
vt 0.306580 0.692433
vt 0.306580 0.692043
vt 0.570507 0.349350
vt 0.570118 0.349454
vt 0.570507 0.349313
vt 0.570507 0.349388
vt 0.570097 0.349468
vt 0.570507 0.349425
vt 0.570088 0.349482
vt 0.570507 0.349462
vt 0.570086 0.349497
vt 0.570507 0.349499
vt 0.570085 0.349513
vt 0.570507 0.349537
vt 0.570083 0.349528
vt 0.570507 0.349574
vt 0.570079 0.349543
vt 0.570507 0.349611
vt 0.570073 0.349558
vt 0.570067 0.349588
vt 0.570068 0.349573
vt 0.570507 0.349648
vt 0.570071 0.349604
vt 0.570507 0.349686
vt 0.570080 0.349620
vt 0.570507 0.349723
vt 0.570095 0.349636
vt 0.570507 0.349760
vt 0.570111 0.349652
vt 0.570507 0.349797
vt 0.570129 0.349669
vt 0.570507 0.349835
vt 0.570149 0.349685
vt 0.570507 0.349872
vt 0.570175 0.349702
vt 0.141998 0.692448
vt 0.141965 0.692061
vt 0.141998 0.692043
vt 0.570118 0.246823
vt 0.570508 0.246960
vt 0.570508 0.246997
vt 0.570098 0.246807
vt 0.570508 0.246923
vt 0.570088 0.246791
vt 0.570508 0.246885
vt 0.570086 0.246776
vt 0.570508 0.246848
vt 0.570085 0.246761
vt 0.570508 0.246811
vt 0.570083 0.246745
vt 0.570508 0.246774
vt 0.570079 0.246730
vt 0.570508 0.246736
vt 0.570073 0.246714
vt 0.570508 0.246699
vt 0.570067 0.246684
vt 0.570068 0.246699
vt 0.570071 0.246668
vt 0.570508 0.246662
vt 0.570080 0.246653
vt 0.570508 0.246625
vt 0.570095 0.246638
vt 0.570508 0.246587
vt 0.570111 0.246624
vt 0.570508 0.246550
vt 0.570129 0.246609
vt 0.570508 0.246513
vt 0.570149 0.246594
vt 0.570508 0.246476
vt 0.570175 0.246579
vt 0.570508 0.246438
vt 0.284933 0.567986
vt 0.284557 0.568107
vt 0.284933 0.567950
vt 0.284933 0.568023
vt 0.284528 0.568120
vt 0.284933 0.568059
vt 0.284508 0.568133
vt 0.284933 0.568096
vt 0.284490 0.568147
vt 0.284933 0.568132
vt 0.284474 0.568161
vt 0.284933 0.568169
vt 0.284460 0.568174
vt 0.284933 0.568205
vt 0.284449 0.568189
vt 0.284933 0.568242
vt 0.284443 0.568203
vt 0.284449 0.568233
vt 0.284444 0.568218
vt 0.284933 0.568278
vt 0.284456 0.568249
vt 0.284933 0.568315
vt 0.284463 0.568264
vt 0.284933 0.568351
vt 0.284468 0.568280
vt 0.284933 0.568388
vt 0.284471 0.568295
vt 0.284933 0.568424
vt 0.284475 0.568310
vt 0.284933 0.568460
vt 0.284484 0.568326
vt 0.284933 0.568497
vt 0.284504 0.568342
vt 0.284933 0.568533
vt 0.284539 0.568359
vt 0.115953 0.568154
vt 0.115576 0.567988
vt 0.115576 0.567950
vt 0.115981 0.568171
vt 0.115576 0.568025
vt 0.116002 0.568187
vt 0.115576 0.568063
vt 0.116019 0.568203
vt 0.115576 0.568100
vt 0.116035 0.568219
vt 0.115576 0.568138
vt 0.116050 0.568235
vt 0.115576 0.568176
vt 0.116061 0.568251
vt 0.115576 0.568213
vt 0.116067 0.568267
vt 0.115576 0.568251
vt 0.116061 0.568298
vt 0.116066 0.568283
vt 0.116054 0.568313
vt 0.115576 0.568288
vt 0.116047 0.568328
vt 0.115576 0.568326
vt 0.116041 0.568343
vt 0.115576 0.568364
vt 0.116038 0.568359
vt 0.115576 0.568401
vt 0.116035 0.568374
vt 0.115576 0.568439
vt 0.116026 0.568389
vt 0.115576 0.568477
vt 0.116006 0.568404
vt 0.115576 0.568514
vt 0.115970 0.568418
vt 0.115576 0.568552
vt 0.689349 0.203711
vt 0.689315 0.204117
vt 0.689315 0.203698
vt 0.481332 0.567950
vt 0.481418 0.568385
vt 0.481296 0.567950
vt 0.481368 0.567950
vt 0.481429 0.568421
vt 0.481403 0.567950
vt 0.481441 0.568450
vt 0.481439 0.567950
vt 0.481454 0.568471
vt 0.481475 0.567950
vt 0.481468 0.568481
vt 0.481510 0.567950
vt 0.481482 0.568483
vt 0.481546 0.567950
vt 0.481497 0.568478
vt 0.481581 0.567950
vt 0.481512 0.568473
vt 0.481617 0.567950
vt 0.481527 0.568472
vt 0.481652 0.567950
vt 0.481541 0.568477
vt 0.481688 0.567950
vt 0.481555 0.568486
vt 0.481723 0.567950
vt 0.481568 0.568496
vt 0.481598 0.568491
vt 0.481582 0.568499
vt 0.481759 0.567950
vt 0.481614 0.568465
vt 0.481794 0.567950
vt 0.481633 0.568423
vt 0.180234 0.681959
vt 0.180238 0.682378
vt 0.180234 0.682434
vt 0.082719 0.682407
vt 0.082686 0.681977
vt 0.082719 0.681959
vt 0.176460 0.568145
vt 0.176025 0.567988
vt 0.176025 0.567950
vt 0.176496 0.568163
vt 0.176025 0.568026
vt 0.176526 0.568181
vt 0.176025 0.568064
vt 0.176546 0.568198
vt 0.176025 0.568102
vt 0.176557 0.568214
vt 0.176025 0.568140
vt 0.176558 0.568230
vt 0.176024 0.568178
vt 0.176553 0.568245
vt 0.176024 0.568216
vt 0.176548 0.568260
vt 0.176024 0.568254
vt 0.176547 0.568276
vt 0.176024 0.568292
vt 0.176552 0.568292
vt 0.176024 0.568330
vt 0.176561 0.568308
vt 0.176024 0.568368
vt 0.176571 0.568325
vt 0.176024 0.568407
vt 0.176566 0.568356
vt 0.176575 0.568340
vt 0.176541 0.568370
vt 0.176024 0.568445
vt 0.176498 0.568382
vt 0.176024 0.568483
vt 0.689315 0.015151
vt 0.689320 0.014752
vt 0.689320 0.015205
vt 0.443072 0.124580
vt 0.443177 0.125467
vt 0.443072 0.125510
vt 0.442967 0.125385
vt 0.442863 0.125232
vt 0.442967 0.124580
vt 0.442758 0.125166
vt 0.442863 0.124580
vt 0.442654 0.125083
vt 0.442758 0.124579
vt 0.443082 0.070997
vt 0.443189 0.071883
vt 0.443082 0.071926
vt 0.442975 0.071801
vt 0.442868 0.071649
vt 0.442975 0.070997
vt 0.442761 0.071583
vt 0.442868 0.070997
vt 0.442654 0.071500
vt 0.442761 0.070997
vt 0.417963 0.995189
vt 0.160582 0.202273
vt 0.160434 0.202645
vt 0.160329 0.202547
vt 0.160835 0.201999
vt 0.160921 0.202587
vt 0.161396 0.202009
vt 0.161210 0.202346
vt 0.161087 0.201725
vt 0.161604 0.201694
vt 0.161340 0.201451
vt 0.161775 0.201344
vt 0.161593 0.201177
vt 0.160999 0.200121
vt 0.160664 0.199812
vt 0.160929 0.199549
vt 0.162352 0.200354
vt 0.160694 0.199331
vt 0.159847 0.197535
vt 0.162591 0.200575
vt 0.159629 0.197334
vt 0.160100 0.197261
vt 0.160143 0.196793
vt 0.159867 0.197046
vt 0.160606 0.196712
vt 0.160353 0.196987
vt 0.160385 0.196509
vt 0.160859 0.196438
vt 0.160527 0.196133
vt 0.161111 0.196164
vt 0.161520 0.196033
vt 0.160716 0.195800
vt 0.162410 0.196347
vt 0.162309 0.196762
vt 0.162236 0.195679
vt 0.161760 0.195748
vt 0.162591 0.195499
vt 0.162441 0.195868
vt 0.170629 0.681959
vt 0.170629 0.682439
vt 0.170627 0.682392
vt 0.344303 0.568511
vt 0.453466 0.671853
vt 0.453499 0.671836
vt 0.453499 0.672301
vt 0.689317 0.304023
vt 0.689315 0.304067
vt 0.689315 0.303618
vt 0.531558 0.567950
vt 0.669591 0.505758
vt 0.669591 0.505263
vt 0.669626 0.505275
vt 0.004802 0.682408
vt 0.004802 0.681959
vt 0.004837 0.681973
vt 0.166420 0.568584
vt 0.156327 0.567950
vt 0.219424 0.692044
vt 0.219424 0.692473
vt 0.219423 0.692433
vt 0.570507 0.349909
vt 0.699141 0.578479
vt 0.699140 0.578516
vt 0.699140 0.578116
vt 0.570508 0.246401
vt 0.284933 0.568569
vt 0.115576 0.568590
vt 0.597472 0.702466
vt 0.597472 0.702078
vt 0.597473 0.702115
vt 0.481830 0.567950
vt 0.463104 0.671852
vt 0.463136 0.671836
vt 0.463136 0.672302
vt 0.169720 0.672303
vt 0.169720 0.672354
vt 0.169720 0.671836
vt 0.176024 0.568521
vt 0.024284 0.682406
vt 0.024284 0.681959
vt 0.024320 0.681973
vt 0.443177 0.124580
vt 0.442654 0.124579
vt 0.443189 0.070997
vt 0.442654 0.070997
vt 0.159989 0.202742
vt 0.600456 0.995189
vn -0.0536 -0.4417 -0.8956
vn -0.0537 -0.4471 -0.8929
vn 0.3527 -0.3156 -0.8809
vn -0.0545 -0.4458 -0.8935
vn -0.0547 -0.4507 -0.8910
vn 0.1504 -0.4053 -0.9017
vn -0.0559 -0.4534 -0.8896
vn 0.0545 -0.4363 -0.8982
vn -0.0572 -0.4550 -0.8886
vn -0.0085 -0.4496 -0.8932
vn -0.0588 -0.4551 -0.8885
vn -0.0501 -0.4544 -0.8894
vn -0.0923 -0.4564 -0.8850
vn -0.0779 -0.4565 -0.8863
vn -0.0597 -0.4542 -0.8889
vn -0.0869 -0.4545 -0.8865
vn -0.0606 -0.4536 -0.8892
vn -0.0628 -0.4540 -0.8888
vn -0.0622 -0.4535 -0.8891
vn -0.0614 -0.4534 -0.8892
vn -0.0629 -0.4540 -0.8888
vn -0.0382 -0.4565 -0.8889
vn -0.0637 -0.4549 -0.8883
vn -0.0305 -0.4590 -0.8879
vn -0.0801 -0.4521 -0.8884
vn -0.0459 -0.4576 -0.8880
vn -0.0654 -0.4544 -0.8884
vn -0.1371 -0.4401 -0.8874
vn -0.0671 -0.4517 -0.8896
vn -0.2681 -0.3995 -0.8767
vn -0.0672 -0.4476 -0.8917
vn -0.6689 -0.1870 -0.7194
vn -0.4540 0.5379 0.7103
vn -0.0536 -0.4417 0.8956
vn 0.3527 -0.3156 0.8809
vn -0.0537 -0.4471 0.8929
vn -0.0545 -0.4458 0.8935
vn 0.1504 -0.4053 0.9017
vn -0.0547 -0.4507 0.8910
vn 0.0545 -0.4363 0.8982
vn -0.0559 -0.4534 0.8896
vn -0.0085 -0.4496 0.8932
vn -0.0572 -0.4550 0.8886
vn -0.0501 -0.4544 0.8894
vn -0.0588 -0.4551 0.8885
vn -0.0923 -0.4564 0.8850
vn -0.0779 -0.4565 0.8863
vn -0.0869 -0.4545 0.8865
vn -0.0598 -0.4542 0.8889
vn -0.0628 -0.4540 0.8888
vn -0.0606 -0.4536 0.8892
vn -0.0622 -0.4535 0.8891
vn -0.0614 -0.4534 0.8892
vn -0.0382 -0.4565 0.8889
vn -0.0629 -0.4540 0.8888
vn -0.0305 -0.4590 0.8879
vn -0.0637 -0.4549 0.8883
vn -0.0801 -0.4521 0.8884
vn -0.0459 -0.4576 0.8880
vn -0.1371 -0.4401 0.8874
vn -0.0654 -0.4543 0.8884
vn -0.2681 -0.3995 0.8766
vn -0.0671 -0.4517 0.8896
vn -0.6690 -0.1870 0.7194
vn -0.0672 -0.4476 0.8917
vn -0.4540 0.5378 -0.7104
vn -0.0415 -0.4178 -0.9076
vn 0.1776 -0.3351 -0.9253
vn -0.0421 -0.4173 -0.9078
vn -0.0415 -0.4196 -0.9068
vn 0.0429 -0.3956 -0.9174
vn -0.0414 -0.4210 -0.9061
vn 0.0180 -0.4075 -0.9130
vn -0.0413 -0.4223 -0.9055
vn 0.0105 -0.4131 -0.9106
vn -0.0412 -0.4234 -0.9050
vn 0.0043 -0.4174 -0.9087
vn -0.0411 -0.4244 -0.9045
vn -0.0065 -0.4213 -0.9069
vn -0.0412 -0.4251 -0.9042
vn -0.0215 -0.4239 -0.9055
vn -0.0414 -0.4250 -0.9043
vn -0.0370 -0.4249 -0.9045
vn -0.0603 -0.4246 -0.9034
vn -0.0509 -0.4252 -0.9037
vn -0.0413 -0.4244 -0.9046
vn -0.0642 -0.4232 -0.9038
vn -0.0412 -0.4237 -0.9049
vn -0.0621 -0.4219 -0.9045
vn -0.0410 -0.4232 -0.9051
vn -0.0560 -0.4213 -0.9052
vn -0.0408 -0.4228 -0.9053
vn -0.0526 -0.4208 -0.9056
vn -0.0407 -0.4224 -0.9055
vn -0.0580 -0.4187 -0.9063
vn -0.0407 -0.4219 -0.9057
vn -0.0771 -0.4127 -0.9076
vn -0.0408 -0.4206 -0.9063
vn -0.1336 -0.3923 -0.9101
vn -0.0410 -0.4183 -0.9074
vn -0.6151 -0.1301 -0.7776
vn 0.1776 -0.3350 0.9253
vn -0.0415 -0.4178 0.9076
vn -0.0421 -0.4173 0.9078
vn 0.0429 -0.3956 0.9174
vn -0.0415 -0.4196 0.9068
vn 0.0180 -0.4075 0.9130
vn -0.0414 -0.4210 0.9061
vn 0.0105 -0.4131 0.9106
vn -0.0413 -0.4222 0.9055
vn 0.0043 -0.4174 0.9087
vn -0.0412 -0.4234 0.9050
vn -0.0065 -0.4213 0.9069
vn -0.0411 -0.4244 0.9045
vn -0.0215 -0.4239 0.9054
vn -0.0412 -0.4251 0.9042
vn -0.0370 -0.4250 0.9045
vn -0.0414 -0.4250 0.9043
vn -0.0603 -0.4246 0.9034
vn -0.0509 -0.4252 0.9037
vn -0.0642 -0.4232 0.9038
vn -0.0413 -0.4244 0.9046
vn -0.0621 -0.4219 0.9045
vn -0.0412 -0.4237 0.9049
vn -0.0560 -0.4212 0.9052
vn -0.0410 -0.4232 0.9051
vn -0.0526 -0.4208 0.9056
vn -0.0408 -0.4228 0.9053
vn -0.0580 -0.4187 0.9063
vn -0.0407 -0.4225 0.9055
vn -0.0771 -0.4127 0.9076
vn -0.0407 -0.4219 0.9057
vn -0.1336 -0.3923 0.9101
vn -0.0408 -0.4206 0.9063
vn -0.6153 -0.1302 0.7775
vn -0.0410 -0.4183 0.9074
vn -0.0372 -0.4167 -0.9083
vn -0.0367 -0.4192 -0.9072
vn 0.0360 -0.3982 -0.9166
vn -0.0372 -0.4187 -0.9073
vn -0.0369 -0.4203 -0.9067
vn -0.0085 -0.4135 -0.9105
vn -0.0370 -0.4207 -0.9064
vn -0.0259 -0.4184 -0.9079
vn -0.0370 -0.4209 -0.9064
vn -0.0330 -0.4202 -0.9068
vn -0.0369 -0.4210 -0.9063
vn -0.0329 -0.4206 -0.9067
vn -0.0368 -0.4212 -0.9062
vn -0.0287 -0.4207 -0.9067
vn -0.0366 -0.4216 -0.9060
vn -0.0249 -0.4213 -0.9066
vn -0.0365 -0.4221 -0.9058
vn -0.0247 -0.4222 -0.9062
vn -0.0379 -0.4220 -0.9058
vn -0.0290 -0.4224 -0.9059
vn -0.0367 -0.4222 -0.9058
vn -0.0489 -0.4209 -0.9058
vn -0.0367 -0.4217 -0.9060
vn -0.0608 -0.4185 -0.9062
vn -0.0367 -0.4209 -0.9064
vn -0.0709 -0.4149 -0.9071
vn -0.0366 -0.4199 -0.9068
vn -0.0775 -0.4107 -0.9085
vn -0.0365 -0.4189 -0.9073
vn -0.0827 -0.4059 -0.9102
vn -0.0364 -0.4179 -0.9078
vn -0.0958 -0.3974 -0.9126
vn -0.0362 -0.4167 -0.9083
vn -0.1666 -0.3603 -0.9178
vn -0.0372 -0.4167 0.9083
vn 0.0360 -0.3982 0.9166
vn -0.0367 -0.4192 0.9072
vn -0.0372 -0.4187 0.9074
vn -0.0085 -0.4134 0.9105
vn -0.0369 -0.4203 0.9067
vn -0.0259 -0.4184 0.9079
vn -0.0370 -0.4207 0.9064
vn -0.0330 -0.4202 0.9068
vn -0.0370 -0.4209 0.9064
vn -0.0329 -0.4206 0.9067
vn -0.0369 -0.4210 0.9063
vn -0.0287 -0.4207 0.9067
vn -0.0368 -0.4212 0.9062
vn -0.0249 -0.4213 0.9066
vn -0.0366 -0.4216 0.9060
vn -0.0247 -0.4222 0.9062
vn -0.0365 -0.4221 0.9058
vn -0.0379 -0.4220 0.9058
vn -0.0290 -0.4224 0.9059
vn -0.0489 -0.4209 0.9058
vn -0.0367 -0.4222 0.9058
vn -0.0608 -0.4185 0.9062
vn -0.0367 -0.4217 0.9060
vn -0.0710 -0.4149 0.9071
vn -0.0367 -0.4209 0.9064
vn -0.0775 -0.4107 0.9085
vn -0.0366 -0.4199 0.9068
vn -0.0827 -0.4059 0.9102
vn -0.0365 -0.4189 0.9073
vn -0.0958 -0.3974 0.9126
vn -0.0364 -0.4179 0.9078
vn -0.1666 -0.3604 0.9178
vn -0.0362 -0.4167 0.9083
vn 0.0797 -0.4959 -0.8647
vn 0.2568 -0.4245 -0.8682
vn 0.0787 -0.4957 -0.8649
vn 0.0810 -0.4968 -0.8641
vn 0.1587 -0.4721 -0.8671
vn 0.0824 -0.4976 -0.8635
vn 0.1410 -0.4821 -0.8647
vn 0.0838 -0.4984 -0.8629
vn 0.1358 -0.4870 -0.8628
vn 0.0852 -0.4993 -0.8622
vn 0.1319 -0.4909 -0.8612
vn 0.0866 -0.5001 -0.8616
vn 0.1253 -0.4945 -0.8601
vn 0.0880 -0.5007 -0.8611
vn 0.1163 -0.4976 -0.8596
vn 0.0895 -0.5012 -0.8607
vn 0.1073 -0.4996 -0.8596
vn 0.0948 -0.5011 -0.8602
vn 0.1001 -0.5006 -0.8599
vn 0.0908 -0.5014 -0.8604
vn 0.0934 -0.5014 -0.8602
vn 0.0924 -0.5014 -0.8602
vn 0.0955 -0.5015 -0.8599
vn 0.0940 -0.5015 -0.8600
vn 0.0997 -0.5019 -0.8592
vn 0.0957 -0.5018 -0.8597
vn 0.1021 -0.5023 -0.8586
vn 0.0973 -0.5021 -0.8593
vn 0.1000 -0.5023 -0.8589
vn 0.0989 -0.5023 -0.8590
vn 0.0918 -0.5010 -0.8606
vn 0.1004 -0.5022 -0.8589
vn 0.0677 -0.4954 -0.8660
vn 0.1020 -0.5018 -0.8590
vn -0.1813 -0.4089 -0.8944
vn 0.2568 -0.4245 0.8683
vn 0.0797 -0.4959 0.8647
vn 0.0787 -0.4957 0.8649
vn 0.1587 -0.4721 0.8671
vn 0.0810 -0.4968 0.8641
vn 0.1410 -0.4821 0.8647
vn 0.0824 -0.4976 0.8635
vn 0.1358 -0.4870 0.8628
vn 0.0838 -0.4984 0.8629
vn 0.1319 -0.4909 0.8612
vn 0.0852 -0.4993 0.8622
vn 0.1253 -0.4945 0.8601
vn 0.0866 -0.5001 0.8616
vn 0.1163 -0.4976 0.8596
vn 0.0880 -0.5007 0.8611
vn 0.1073 -0.4996 0.8596
vn 0.0895 -0.5012 0.8607
vn 0.0948 -0.5011 0.8602
vn 0.1001 -0.5006 0.8599
vn 0.0934 -0.5014 0.8602
vn 0.0908 -0.5014 0.8604
vn 0.0955 -0.5015 0.8599
vn 0.0924 -0.5014 0.8602
vn 0.0997 -0.5019 0.8592
vn 0.0940 -0.5015 0.8600
vn 0.1021 -0.5023 0.8586
vn 0.0957 -0.5018 0.8597
vn 0.1000 -0.5023 0.8589
vn 0.0973 -0.5021 0.8593
vn 0.0918 -0.5010 0.8606
vn 0.0989 -0.5023 0.8590
vn 0.0677 -0.4954 0.8660
vn 0.1004 -0.5022 0.8589
vn -0.1813 -0.4088 0.8944
vn 0.1020 -0.5018 0.8590
vn 0.1918 -0.5844 -0.7885
vn 0.1949 -0.5848 -0.7874
vn 0.3628 -0.5207 -0.7728
vn 0.1938 -0.5847 -0.7878
vn 0.1969 -0.5853 -0.7865
vn 0.2928 -0.5553 -0.7784
vn 0.1989 -0.5859 -0.7856
vn 0.2632 -0.5687 -0.7793
vn 0.2009 -0.5864 -0.7847
vn 0.2453 -0.5760 -0.7798
vn 0.2029 -0.5867 -0.7840
vn 0.2342 -0.5801 -0.7802
vn 0.2050 -0.5868 -0.7833
vn 0.2281 -0.5824 -0.7802
vn 0.2071 -0.5869 -0.7827
vn 0.2257 -0.5839 -0.7799
vn 0.2093 -0.5871 -0.7820
vn 0.2280 -0.5846 -0.7786
vn 0.2115 -0.5874 -0.7812
vn 0.2337 -0.5851 -0.7765
vn 0.2137 -0.5878 -0.7802
vn 0.2388 -0.5860 -0.7743
vn 0.2159 -0.5884 -0.7792
vn 0.2406 -0.5873 -0.7728
vn 0.2180 -0.5890 -0.7782
vn 0.2387 -0.5884 -0.7725
vn 0.2262 -0.5890 -0.7758
vn 0.2340 -0.5889 -0.7736
vn 0.2200 -0.5893 -0.7774
vn 0.2099 -0.5890 -0.7804
vn 0.2222 -0.5891 -0.7769
vn 0.1576 -0.5838 -0.7965
vn -0.2578 0.5927 0.7631
vn 0.1918 -0.5844 0.7885
vn 0.3628 -0.5207 0.7728
vn 0.1949 -0.5848 0.7874
vn 0.1938 -0.5847 0.7878
vn 0.2928 -0.5553 0.7784
vn 0.1969 -0.5853 0.7865
vn 0.2632 -0.5687 0.7793
vn 0.1989 -0.5859 0.7856
vn 0.2453 -0.5760 0.7798
vn 0.2009 -0.5864 0.7847
vn 0.2342 -0.5801 0.7802
vn 0.2029 -0.5867 0.7840
vn 0.2281 -0.5824 0.7802
vn 0.2050 -0.5868 0.7833
vn 0.2257 -0.5839 0.7799
vn 0.2071 -0.5869 0.7827
vn 0.2280 -0.5846 0.7787
vn 0.2093 -0.5871 0.7820
vn 0.2337 -0.5851 0.7765
vn 0.2115 -0.5874 0.7812
vn 0.2388 -0.5860 0.7743
vn 0.2137 -0.5878 0.7802
vn 0.2406 -0.5873 0.7728
vn 0.2159 -0.5884 0.7792
vn 0.2387 -0.5885 0.7725
vn 0.2180 -0.5890 0.7782
vn 0.2262 -0.5890 0.7758
vn 0.2340 -0.5889 0.7736
vn 0.2099 -0.5890 0.7804
vn 0.2200 -0.5893 0.7774
vn 0.1576 -0.5838 0.7965
vn 0.2222 -0.5891 0.7769
vn -0.2578 0.5926 -0.7631
vn 1.0000 -0.0000 -0.0000
vn -1.0000 -0.0000 -0.0000
vn -0.0000 1.0000 -0.0000
vn 0.8701 0.4439 0.2141
vn -0.0650 -0.4461 -0.8926
vn -0.0342 -0.4500 -0.8924
vn 0.8701 0.4439 -0.2143
vn -0.0650 -0.4462 0.8926
vn -0.0342 -0.4500 0.8924
vn -0.0402 -0.4176 -0.9077
vn -0.0402 -0.4176 0.9077
vn 0.9241 0.2936 -0.2447
vn -0.0358 -0.4164 -0.9085
vn 0.9240 0.2938 0.2446
vn -0.0358 -0.4164 0.9085
vn 0.1031 -0.5016 -0.8589
vn 0.1031 -0.5016 0.8589
vn 0.5959 0.6414 0.4832
vn 0.2235 -0.5890 -0.7766
vn 0.2258 -0.5890 -0.7760
vn 0.5959 0.6412 -0.4835
vn 0.2235 -0.5890 0.7766
vn 0.2258 -0.5890 0.7760
f 1/1/1 2/2/1 3/3/1
f 4/4/2 5/5/3 1/6/4
f 6/7/5 7/8/6 4/4/2
f 8/9/7 9/10/8 6/7/5
f 10/11/9 11/12/10 8/9/7
f 12/13/11 13/14/12 10/11/9
f 12/13/11 14/15/13 15/16/14
f 16/17/15 17/18/16 14/15/13
f 18/19/17 19/20/18 17/18/16
f 20/21/19 19/20/18 21/22/20
f 22/23/21 23/24/22 20/21/19
f 24/25/23 25/26/24 22/23/21
f 24/25/23 26/27/25 27/28/26
f 28/29/27 29/30/28 26/27/25
f 30/31/29 31/32/30 29/30/28
f 32/33/31 33/34/32 31/32/30
f 34/35/33 35/36/33 33/37/33
f 36/38/34 37/39/34 38/40/34
f 39/41/35 40/42/36 37/43/37
f 41/44/38 42/45/39 40/42/36
f 43/46/40 44/47/41 42/45/39
f 45/48/42 46/49/43 44/47/41
f 47/50/44 48/51/45 46/49/43
f 49/52/46 48/51/45 50/53/47
f 51/54/48 52/55/49 49/52/46
f 53/56/50 54/57/51 51/54/48
f 53/56/50 55/58/52 56/59/53
f 57/60/54 58/61/55 55/58/52
f 59/62/56 60/63/57 58/61/55
f 61/64/58 60/63/57 62/65/59
f 63/66/60 64/67/61 61/64/58
f 65/68/62 66/69/63 63/66/60
f 67/70/64 68/71/65 65/72/62
f 69/73/66 70/74/66 67/75/66
f 71/76/67 72/77/68 73/78/69
f 74/79/70 75/80/71 71/76/67
f 76/81/72 77/82/73 74/79/70
f 78/83/74 79/84/75 76/81/72
f 80/85/76 81/86/77 78/83/74
f 82/87/78 83/88/79 80/85/76
f 84/89/80 85/90/81 82/87/78
f 86/91/82 87/92/83 84/89/80
f 86/91/82 88/93/84 89/94/85
f 90/95/86 91/96/87 88/93/84
f 92/97/88 93/98/89 91/96/87
f 94/99/90 95/100/91 93/98/89
f 96/101/92 97/102/93 95/100/91
f 98/103/94 99/104/95 97/102/93
f 100/105/96 101/106/97 99/104/95
f 102/107/98 103/108/99 101/106/97
f 104/109/100 105/110/101 103/108/99
f 106/111/102 107/112/103 108/113/104
f 109/114/105 110/115/106 107/112/103
f 111/116/107 112/117/108 110/115/106
f 113/118/109 114/119/110 112/117/108
f 115/120/111 116/121/112 114/119/110
f 117/122/113 118/123/114 116/121/112
f 119/124/115 120/125/116 118/123/114
f 121/126/117 122/127/118 120/125/116
f 123/128/119 122/127/118 124/129/120
f 125/130/121 126/131/122 123/128/119
f 127/132/123 128/133/124 125/130/121
f 129/134/125 130/135/126 127/132/123
f 131/136/127 132/137/128 129/134/125
f 133/138/129 134/139/130 131/136/127
f 135/140/131 136/141/132 133/138/129
f 137/142/133 138/143/134 135/140/131
f 139/144/135 140/145/136 137/142/133
f 141/146/137 142/147/137 143/148/137
f 144/149/138 145/150/139 141/151/140
f 146/152/141 147/153/142 144/149/138
f 148/154/143 149/155/144 146/152/141
f 150/156/145 151/157/146 148/154/143
f 152/158/147 153/159/148 150/156/145
f 154/160/149 155/161/150 152/158/147
f 156/162/151 157/163/152 154/160/149
f 158/164/153 159/165/154 156/162/151
f 158/164/153 160/166/155 161/167/156
f 162/168/157 163/169/158 160/166/155
f 164/170/159 165/171/160 163/169/158
f 166/172/161 167/173/162 165/171/160
f 168/174/163 169/175/164 167/173/162
f 170/176/165 171/177/166 169/175/164
f 172/178/167 173/179/168 171/177/166
f 174/180/169 175/181/170 173/179/168
f 176/182/171 177/183/171 178/184/171
f 179/185/172 180/186/173 177/187/174
f 181/188/175 182/189/176 180/186/173
f 183/190/177 184/191/178 182/189/176
f 185/192/179 186/193/180 184/191/178
f 187/194/181 188/195/182 186/193/180
f 189/196/183 190/197/184 188/195/182
f 191/198/185 192/199/186 190/197/184
f 193/200/187 194/201/188 192/199/186
f 195/202/189 194/201/188 196/203/190
f 197/204/191 198/205/192 195/202/189
f 199/206/193 200/207/194 197/204/191
f 201/208/195 202/209/196 199/206/193
f 203/210/197 204/211/198 201/208/195
f 205/212/199 206/213/200 203/210/197
f 207/214/201 208/215/202 205/212/199
f 209/216/203 210/217/204 207/214/201
f 211/218/205 212/219/206 213/220/207
f 214/221/208 215/222/209 211/218/205
f 216/223/210 217/224/211 214/221/208
f 218/225/212 219/226/213 216/223/210
f 220/227/214 221/228/215 218/225/212
f 222/229/216 223/230/217 220/227/214
f 224/231/218 225/232/219 222/229/216
f 226/233/220 227/234/221 224/231/218
f 226/233/220 228/235/222 229/236/223
f 230/237/224 231/238/225 228/235/222
f 232/239/226 233/240/227 231/238/225
f 234/241/228 235/242/229 233/240/227
f 236/243/230 237/244/231 235/242/229
f 238/245/232 239/246/233 237/244/231
f 240/247/234 241/248/235 239/246/233
f 242/249/236 243/250/237 241/248/235
f 244/251/238 245/252/239 243/250/237
f 246/253/240 247/254/241 248/255/242
f 249/256/243 250/257/244 247/254/241
f 251/258/245 252/259/246 250/257/244
f 253/260/247 254/261/248 252/259/246
f 255/262/249 256/263/250 254/261/248
f 257/264/251 258/265/252 256/263/250
f 259/266/253 260/267/254 258/265/252
f 261/268/255 262/269/256 260/267/254
f 263/270/257 262/269/256 264/271/258
f 265/272/259 266/273/260 263/270/257
f 267/274/261 268/275/262 265/272/259
f 269/276/263 270/277/264 267/274/261
f 271/278/265 272/279/266 269/276/263
f 273/280/267 274/281/268 271/278/265
f 275/282/269 276/283/270 273/280/267
f 277/284/271 278/285/272 275/282/269
f 279/286/273 280/287/274 277/284/271
f 281/288/275 282/289/275 283/290/275
f 284/291/276 285/292/277 281/293/278
f 286/294/279 287/295/280 284/291/276
f 288/296/281 289/297/282 286/294/279
f 290/298/283 291/299/284 288/296/281
f 292/300/285 293/301/286 290/298/283
f 294/302/287 295/303/288 292/300/285
f 296/304/289 297/305/290 294/302/287
f 298/306/291 299/307/292 296/304/289
f 300/308/293 301/309/294 298/306/291
f 302/310/295 303/311/296 300/308/293
f 304/312/297 305/313/298 302/310/295
f 306/314/299 307/315/300 304/312/297
f 306/314/299 308/316/301 309/317/302
f 310/318/303 311/319/304 308/316/301
f 312/320/305 313/321/306 311/319/304
f 314/322/307 315/323/307 313/324/307
f 316/325/308 317/326/308 318/327/308
f 319/328/309 320/329/310 317/330/311
f 321/331/312 322/332/313 320/329/310
f 323/333/314 324/334/315 322/332/313
f 325/335/316 326/336/317 324/334/315
f 327/337/318 328/338/319 326/336/317
f 329/339/320 330/340/321 328/338/319
f 331/341/322 332/342/323 330/340/321
f 333/343/324 334/344/325 332/342/323
f 335/345/326 336/346/327 334/344/325
f 337/347/328 338/348/329 336/346/327
f 339/349/330 340/350/331 338/348/329
f 341/351/332 342/352/333 340/350/331
f 343/353/334 342/352/333 344/354/335
f 345/355/336 346/356/337 343/353/334
f 347/357/338 348/358/339 345/355/336
f 349/359/340 350/360/340 347/361/340
f 351/362/341 352/363/341 353/364/341
f 354/365/341 351/362/341 353/364/341
f 355/366/341 356/367/341 354/365/341
f 357/368/341 358/369/341 355/366/341
f 359/370/341 360/371/341 357/368/341
f 361/372/342 362/373/342 363/374/342
f 364/375/342 361/372/342 363/374/342
f 365/376/342 366/377/342 364/375/342
f 367/378/342 368/379/342 365/376/342
f 369/380/342 370/381/342 367/378/342
f 371/382/343 372/382/343 373/382/343
f 374/383/343 375/384/343 371/385/343
f 376/386/343 377/387/343 374/383/343
f 376/386/343 378/388/343 379/389/343
f 380/390/343 381/391/343 378/388/343
f 382/392/343 383/393/343 381/391/343
f 384/394/343 385/395/343 383/393/343
f 386/396/343 387/397/343 385/395/343
f 388/398/343 387/397/343 389/399/343
f 388/398/343 390/400/343 391/401/343
f 392/402/343 393/403/343 390/400/343
f 394/404/343 393/403/343 395/405/343
f 394/404/343 396/406/343 397/407/343
f 398/408/343 399/409/343 396/406/343
f 400/410/343 401/411/343 399/409/343
f 402/412/343 401/411/343 403/413/343
f 402/412/343 404/414/343 405/415/343
f 406/416/343 404/414/343 407/417/343
f 408/418/343 409/419/343 406/416/343
f 1/420/344 5/421/344 2/422/344
f 4/4/2 7/8/6 5/5/3
f 6/7/5 9/10/8 7/8/6
f 8/9/7 11/12/10 9/10/8
f 10/11/9 13/14/12 11/12/10
f 12/13/11 15/16/14 13/14/12
f 12/13/11 16/17/15 14/15/13
f 16/17/15 18/19/17 17/18/16
f 18/19/17 21/22/20 19/20/18
f 20/21/19 23/24/22 19/20/18
f 22/23/21 25/26/24 23/24/22
f 24/25/23 27/28/26 25/26/24
f 24/25/23 28/29/27 26/27/25
f 28/29/27 30/31/29 29/30/28
f 30/31/29 32/33/31 31/32/30
f 32/33/31 34/423/345 33/34/32
f 34/424/346 410/425/346 35/426/346
f 36/427/347 39/428/347 37/429/347
f 39/41/35 41/44/38 40/42/36
f 41/44/38 43/46/40 42/45/39
f 43/46/40 45/48/42 44/47/41
f 45/48/42 47/50/44 46/49/43
f 47/50/44 50/53/47 48/51/45
f 49/52/46 52/55/49 48/51/45
f 51/54/48 54/57/51 52/55/49
f 53/56/50 56/59/53 54/57/51
f 53/56/50 57/60/54 55/58/52
f 57/60/54 59/62/56 58/61/55
f 59/62/56 62/65/59 60/63/57
f 61/64/58 64/67/61 60/63/57
f 63/66/60 66/69/63 64/67/61
f 65/68/62 68/430/65 66/69/63
f 67/431/64 70/432/348 68/433/65
f 69/434/349 411/435/349 70/436/349
f 71/76/67 75/80/71 72/77/68
f 74/79/70 77/82/73 75/80/71
f 76/81/72 79/84/75 77/82/73
f 78/83/74 81/86/77 79/84/75
f 80/85/76 83/88/79 81/86/77
f 82/87/78 85/90/81 83/88/79
f 84/89/80 87/92/83 85/90/81
f 86/91/82 89/94/85 87/92/83
f 86/91/82 90/95/86 88/93/84
f 90/95/86 92/97/88 91/96/87
f 92/97/88 94/99/90 93/98/89
f 94/99/90 96/101/92 95/100/91
f 96/101/92 98/103/94 97/102/93
f 98/103/94 100/105/96 99/104/95
f 100/105/96 102/107/98 101/106/97
f 102/107/98 104/109/100 103/108/99
f 104/109/100 412/437/350 105/110/101
f 106/111/102 109/114/105 107/112/103
f 109/114/105 111/116/107 110/115/106
f 111/116/107 113/118/109 112/117/108
f 113/118/109 115/120/111 114/119/110
f 115/120/111 117/122/113 116/121/112
f 117/122/113 119/124/115 118/123/114
f 119/124/115 121/126/117 120/125/116
f 121/126/117 124/129/120 122/127/118
f 123/128/119 126/131/122 122/127/118
f 125/130/121 128/133/124 126/131/122
f 127/132/123 130/135/126 128/133/124
f 129/134/125 132/137/128 130/135/126
f 131/136/127 134/139/130 132/137/128
f 133/138/129 136/141/132 134/139/130
f 135/140/131 138/143/134 136/141/132
f 137/142/133 140/145/136 138/143/134
f 139/144/135 413/438/351 140/145/136
f 141/439/352 145/440/352 142/441/352
f 144/149/138 147/153/142 145/150/139
f 146/152/141 149/155/144 147/153/142
f 148/154/143 151/157/146 149/155/144
f 150/156/145 153/159/148 151/157/146
f 152/158/147 155/161/150 153/159/148
f 154/160/149 157/163/152 155/161/150
f 156/162/151 159/165/154 157/163/152
f 158/164/153 161/167/156 159/165/154
f 158/164/153 162/168/157 160/166/155
f 162/168/157 164/170/159 163/169/158
f 164/170/159 166/172/161 165/171/160
f 166/172/161 168/174/163 167/173/162
f 168/174/163 170/176/165 169/175/164
f 170/176/165 172/178/167 171/177/166
f 172/178/167 174/180/169 173/179/168
f 174/180/169 414/442/353 175/181/170
f 176/443/354 179/444/354 177/445/354
f 179/185/172 181/188/175 180/186/173
f 181/188/175 183/190/177 182/189/176
f 183/190/177 185/192/179 184/191/178
f 185/192/179 187/194/181 186/193/180
f 187/194/181 189/196/183 188/195/182
f 189/196/183 191/198/185 190/197/184
f 191/198/185 193/200/187 192/199/186
f 193/200/187 196/203/190 194/201/188
f 195/202/189 198/205/192 194/201/188
f 197/204/191 200/207/194 198/205/192
f 199/206/193 202/209/196 200/207/194
f 201/208/195 204/211/198 202/209/196
f 203/210/197 206/213/200 204/211/198
f 205/212/199 208/215/202 206/213/200
f 207/214/201 210/217/204 208/215/202
f 209/216/203 415/446/355 210/217/204
f 211/218/205 215/222/209 212/219/206
f 214/221/208 217/224/211 215/222/209
f 216/223/210 219/226/213 217/224/211
f 218/225/212 221/228/215 219/226/213
f 220/227/214 223/230/217 221/228/215
f 222/229/216 225/232/219 223/230/217
f 224/231/218 227/234/221 225/232/219
f 226/233/220 229/236/223 227/234/221
f 226/233/220 230/237/224 228/235/222
f 230/237/224 232/239/226 231/238/225
f 232/239/226 234/241/228 233/240/227
f 234/241/228 236/243/230 235/242/229
f 236/243/230 238/245/232 237/244/231
f 238/245/232 240/247/234 239/246/233
f 240/247/234 242/249/236 241/248/235
f 242/249/236 244/251/238 243/250/237
f 244/251/238 416/447/356 245/252/239
f 246/253/240 249/256/243 247/254/241
f 249/256/243 251/258/245 250/257/244
f 251/258/245 253/260/247 252/259/246
f 253/260/247 255/262/249 254/261/248
f 255/262/249 257/264/251 256/263/250
f 257/264/251 259/266/253 258/265/252
f 259/266/253 261/268/255 260/267/254
f 261/268/255 264/271/258 262/269/256
f 263/270/257 266/273/260 262/269/256
f 265/272/259 268/275/262 266/273/260
f 267/274/261 270/277/264 268/275/262
f 269/276/263 272/279/266 270/277/264
f 271/278/265 274/281/268 272/279/266
f 273/280/267 276/283/270 274/281/268
f 275/282/269 278/285/272 276/283/270
f 277/284/271 280/287/274 278/285/272
f 279/286/273 417/448/357 280/287/274
f 281/449/358 285/450/358 282/451/358
f 284/291/276 287/295/280 285/292/277
f 286/294/279 289/297/282 287/295/280
f 288/296/281 291/299/284 289/297/282
f 290/298/283 293/301/286 291/299/284
f 292/300/285 295/303/288 293/301/286
f 294/302/287 297/305/290 295/303/288
f 296/304/289 299/307/292 297/305/290
f 298/306/291 301/309/294 299/307/292
f 300/308/293 303/311/296 301/309/294
f 302/310/295 305/313/298 303/311/296
f 304/312/297 307/315/300 305/313/298
f 306/314/299 309/317/302 307/315/300
f 306/314/299 310/318/303 308/316/301
f 310/318/303 312/320/305 311/319/304
f 312/320/305 314/452/359 313/321/306
f 314/453/360 418/454/360 315/455/360
f 316/456/361 319/457/361 317/458/361
f 319/328/309 321/331/312 320/329/310
f 321/331/312 323/333/314 322/332/313
f 323/333/314 325/335/316 324/334/315
f 325/335/316 327/337/318 326/336/317
f 327/337/318 329/339/320 328/338/319
f 329/339/320 331/341/322 330/340/321
f 331/341/322 333/343/324 332/342/323
f 333/343/324 335/345/326 334/344/325
f 335/345/326 337/347/328 336/346/327
f 337/347/328 339/349/330 338/348/329
f 339/349/330 341/351/332 340/350/331
f 341/351/332 344/354/335 342/352/333
f 343/353/334 346/356/337 342/352/333
f 345/355/336 348/358/339 346/356/337
f 347/357/338 350/459/362 348/358/339
f 349/460/363 419/461/363 350/462/363
f 351/362/341 420/463/341 352/363/341
f 354/365/341 356/367/341 351/362/341
f 355/366/341 358/369/341 356/367/341
f 357/368/341 360/371/341 358/369/341
f 359/370/341 421/464/341 360/371/341
f 361/372/342 422/465/342 362/373/342
f 364/375/342 366/377/342 361/372/342
f 365/376/342 368/379/342 366/377/342
f 367/378/342 370/381/342 368/379/342
f 369/380/342 423/466/342 370/381/342
f 371/385/343 375/384/343 372/467/343
f 374/383/343 377/387/343 375/384/343
f 376/386/343 379/389/343 377/387/343
f 376/386/343 380/390/343 378/388/343
f 380/390/343 382/392/343 381/391/343
f 382/392/343 384/394/343 383/393/343
f 384/394/343 386/396/343 385/395/343
f 386/396/343 389/399/343 387/397/343
f 388/398/343 391/401/343 387/397/343
f 388/398/343 392/402/343 390/400/343
f 392/402/343 395/405/343 393/403/343
f 394/404/343 397/407/343 393/403/343
f 394/404/343 398/408/343 396/406/343
f 398/408/343 400/410/343 399/409/343
f 400/410/343 403/413/343 401/411/343
f 402/412/343 405/415/343 401/411/343
f 402/412/343 407/417/343 404/414/343
f 406/416/343 409/419/343 404/414/343
f 408/468/343 424/468/343 409/468/343
