# rig: one pile, r0.35, 16 sides, centred on its own origin. Six nodes place it.
# Loom axes -- metres, Y up, forward -Z. V flipped on export.
# Generated by tools/mesh/rig; never edit this file.
# Blender 5.2.0 LTS
# www.blender.org
v 0.000000 -1.200000 0.350000
v 0.133939 -1.200000 0.323358
v 0.247487 -1.200000 0.247487
v 0.323358 -1.200000 0.133939
v 0.350000 -1.200000 0.000000
v 0.323358 -1.200000 -0.133939
v 0.247487 -1.200000 -0.247487
v 0.133939 -1.200000 -0.323358
v 0.000000 -1.200000 -0.350000
v -0.133939 -1.200000 -0.323358
v -0.247487 -1.200000 -0.247487
v -0.323358 -1.200000 -0.133939
v -0.350000 -1.200000 -0.000000
v -0.323358 -1.200000 0.133939
v -0.247487 -1.200000 0.247487
v -0.133939 -1.200000 0.323358
v 0.000000 1.200000 0.350000
v 0.133939 1.200000 0.323358
v 0.247487 1.200000 0.247487
v 0.323358 1.200000 0.133939
v 0.350000 1.200000 0.000000
v 0.323358 1.200000 -0.133939
v 0.247487 1.200000 -0.247487
v 0.133939 1.200000 -0.323358
v 0.000000 1.200000 -0.350000
v -0.133939 1.200000 -0.323358
v -0.247487 1.200000 -0.247487
v -0.323358 1.200000 -0.133939
v -0.350000 1.200000 -0.000000
v -0.323358 1.200000 0.133939
v -0.247487 1.200000 0.247487
v -0.133939 1.200000 0.323358
vn 0.1951 -0.0000 0.9808
vn 0.5556 -0.0000 0.8315
vn 0.8315 -0.0000 0.5556
vn 0.9808 -0.0000 0.1951
vn 0.9808 -0.0000 -0.1951
vn 0.8315 -0.0000 -0.5556
vn 0.5556 -0.0000 -0.8315
vn 0.1951 -0.0000 -0.9808
vn -0.1951 -0.0000 -0.9808
vn -0.5556 -0.0000 -0.8315
vn -0.8315 -0.0000 -0.5556
vn -0.9808 -0.0000 -0.1951
vn -0.9808 -0.0000 0.1951
vn -0.8315 -0.0000 0.5556
vn -0.5556 -0.0000 0.8315
vn -0.1951 -0.0000 0.9808
vn -0.0000 -1.0000 -0.0000
vn -0.0000 1.0000 -0.0000
vt 0.062500 1.000000
vt 0.000000 -1.400000
vt 0.000000 1.000000
vt 0.125000 1.000000
vt 0.062500 -1.400000
vt 0.187500 1.000000
vt 0.125000 -1.400000
vt 0.250000 1.000000
vt 0.187500 -1.400000
vt 0.312500 1.000000
vt 0.250000 -1.400000
vt 0.375000 1.000000
vt 0.312500 -1.400000
vt 0.437500 1.000000
vt 0.375000 -1.400000
vt 0.500000 1.000000
vt 0.437500 -1.400000
vt 0.562500 1.000000
vt 0.500000 -1.400000
vt 0.625000 1.000000
vt 0.562500 -1.400000
vt 0.687500 1.000000
vt 0.625000 -1.400000
vt 0.750000 1.000000
vt 0.687500 -1.400000
vt 0.812500 1.000000
vt 0.750000 -1.400000
vt 0.875000 1.000000
vt 0.812500 -1.400000
vt 0.937500 1.000000
vt 0.875000 -1.400000
vt 1.000000 1.000000
vt 0.937500 -1.400000
vt -0.350000 1.000000
vt 0.000000 0.650000
vt 0.350000 1.000000
vt -0.323358 -1.533939
vt -0.133939 -1.076642
vt 0.323358 -1.266061
vt 1.000000 -1.400000
vt 0.323358 1.133939
vt 0.247487 1.247487
vt 0.133939 1.323358
vt -0.000000 1.350000
vt -0.133939 1.323358
vt -0.247487 1.247487
vt -0.323358 1.133939
vt -0.323358 0.866061
vt -0.247487 0.752513
vt -0.133939 0.676642
vt 0.133939 0.676642
vt 0.247487 0.752513
vt 0.323358 0.866061
vt 0.350000 -1.400000
vt 0.323358 -1.533939
vt 0.247487 -1.647487
vt 0.133939 -1.723358
vt 0.000000 -1.750000
vt -0.133939 -1.723358
vt -0.247487 -1.647487
vt -0.350000 -1.400000
vt -0.323358 -1.266061
vt -0.247487 -1.152513
vt -0.000000 -1.050000
vt 0.133939 -1.076642
vt 0.247487 -1.152513
f 2/1/1 17/2/1 1/3/1
f 3/4/2 18/5/2 2/1/2
f 4/6/3 19/7/3 3/4/3
f 5/8/4 20/9/4 4/6/4
f 6/10/5 21/11/5 5/8/5
f 7/12/6 22/13/6 6/10/6
f 8/14/7 23/15/7 7/12/7
f 9/16/8 24/17/8 8/14/8
f 10/18/9 25/19/9 9/16/9
f 11/20/10 26/21/10 10/18/10
f 12/22/11 27/23/11 11/20/11
f 13/24/12 28/25/12 12/22/12
f 14/26/13 29/27/13 13/24/13
f 15/28/14 30/29/14 14/26/14
f 16/30/15 31/31/15 15/28/15
f 1/32/16 32/33/16 16/30/16
f 9/34/17 5/35/17 1/36/17
f 24/37/18 28/38/18 32/39/18
f 2/1/1 18/5/1 17/2/1
f 3/4/2 19/7/2 18/5/2
f 4/6/3 20/9/3 19/7/3
f 5/8/4 21/11/4 20/9/4
f 6/10/5 22/13/5 21/11/5
f 7/12/6 23/15/6 22/13/6
f 8/14/7 24/17/7 23/15/7
f 9/16/8 25/19/8 24/17/8
f 10/18/9 26/21/9 25/19/9
f 11/20/10 27/23/10 26/21/10
f 12/22/11 28/25/11 27/23/11
f 13/24/12 29/27/12 28/25/12
f 14/26/13 30/29/13 29/27/13
f 15/28/14 31/31/14 30/29/14
f 16/30/15 32/33/15 31/31/15
f 1/32/16 17/40/16 32/33/16
f 1/36/17 16/41/17 15/42/17
f 15/42/17 14/43/17 13/44/17
f 13/44/17 12/45/17 11/46/17
f 11/46/17 10/47/17 9/34/17
f 9/34/17 8/48/17 7/49/17
f 7/49/17 6/50/17 5/35/17
f 5/35/17 4/51/17 3/52/17
f 3/52/17 2/53/17 1/36/17
f 1/36/17 15/42/17 13/44/17
f 13/44/17 11/46/17 9/34/17
f 9/34/17 7/49/17 5/35/17
f 5/35/17 3/52/17 1/36/17
f 1/36/17 13/44/17 9/34/17
f 32/39/18 17/54/18 18/55/18
f 18/55/18 19/56/18 20/57/18
f 20/57/18 21/58/18 22/59/18
f 22/59/18 23/60/18 24/37/18
f 24/37/18 25/61/18 26/62/18
f 26/62/18 27/63/18 28/38/18
f 28/38/18 29/64/18 30/65/18
f 30/65/18 31/66/18 32/39/18
f 32/39/18 18/55/18 20/57/18
f 20/57/18 22/59/18 24/37/18
f 24/37/18 26/62/18 28/38/18
f 28/38/18 30/65/18 32/39/18
f 32/39/18 20/57/18 24/37/18
