# rig: cap South. World x -12.000..12.000 y 2.680..2.920 z 6.840..6.960, centred on its own origin. One box. Node pos=(0.000, 2.800, 6.900) half_extents=(12.000, 0.120, 0.060).
# Loom axes -- metres, Y up, forward -Z. V flipped on export.
# Generated by tools/mesh/rig; never edit this file.
# Blender 5.2.0 LTS
# www.blender.org
v -12.000000 -0.120000 -0.060000
v 12.000000 -0.120000 -0.060000
v 12.000000 -0.120000 0.060000
v -12.000000 -0.120000 0.060000
v -12.000000 0.120000 -0.060000
v 12.000000 0.120000 -0.060000
v 12.000000 0.120000 0.060000
v -12.000000 0.120000 0.060000
vn -0.0000 -1.0000 -0.0000
vn -0.0000 1.0000 -0.0000
vn -0.0000 -0.0000 -1.0000
vn 1.0000 -0.0000 -0.0000
vn -0.0000 -0.0000 1.0000
vn -1.0000 -0.0000 -0.0000
f 2//1 4//1 1//1
f 8//2 6//2 5//2
f 5//3 2//3 1//3
f 6//4 3//4 2//4
f 7//5 4//5 3//5
f 8//6 1//6 4//6
f 2//1 3//1 4//1
f 8//2 7//2 6//2
f 5//3 6//3 2//3
f 6//4 7//4 3//4
f 7//5 8//5 4//5
f 8//6 5//6 1//6
