# rig: rail West. World x -12.000..-11.800 y 1.400..2.400 z -7.000..7.000, centred on its own origin. Node pos=(-11.900, 1.900, 0.000) half_extents=(0.100, 0.500, 7.000).
# Loom axes -- metres, Y up, forward -Z. V flipped on export.
# Generated by tools/mesh/rig; never edit this file.
# Blender 5.2.0 LTS
# www.blender.org
v -0.100000 -0.500000 -7.000000
v 0.100000 -0.500000 -7.000000
v 0.100000 -0.500000 7.000000
v -0.100000 -0.500000 7.000000
v -0.100000 0.500000 -7.000000
v 0.100000 0.500000 -7.000000
v 0.100000 0.500000 7.000000
v -0.100000 0.500000 7.000000
vn -0.0000 -1.0000 -0.0000
vn -0.0000 1.0000 -0.0000
vn -0.0000 -0.0000 -1.0000
vn 1.0000 -0.0000 -0.0000
vn -0.0000 -0.0000 1.0000
vn -1.0000 -0.0000 -0.0000
vt 3.500000 1.000000
vt -3.500000 1.000000
vt -3.500000 0.000000
vt 3.500000 0.000000
f 2/1/1 4/2/1 1/1/1
f 8/3/2 6/4/2 5/4/2
f 5/4/3 2/1/3 1/1/3
f 6/4/4 3/2/4 2/1/4
f 7/3/5 4/2/5 3/2/5
f 8/3/6 1/1/6 4/2/6
f 2/1/1 3/2/1 4/2/1
f 8/3/2 7/3/2 6/4/2
f 5/4/3 6/4/3 2/1/3
f 6/4/4 7/3/4 3/2/4
f 7/3/5 8/3/5 4/2/5
f 8/3/6 5/4/6 1/1/6
