# rig: shed bearers -- 5 timbers 180 mm wide under the shed, bare timber, NOT painted. Centred on its own origin. Node pos=(-4.000, 1.475, 4.600) relative to the shed's own centre (0, -1.125, 0). No collider: the Shed node's already covers this.
# Loom axes -- metres, Y up, forward -Z. V flipped on export.
# Generated by tools/mesh/rig; never edit this file.
# Blender 5.2.0 LTS
# www.blender.org
v -4.500000 -0.075000 -2.000000
v -4.320000 -0.075000 -2.000000
v -4.320000 -0.075000 2.000000
v -4.500000 -0.075000 2.000000
v -4.500000 0.075000 -2.000000
v -4.320000 0.075000 -2.000000
v -4.320000 0.075000 2.000000
v -4.500000 0.075000 2.000000
v -2.295000 -0.075000 -2.000000
v -2.115000 -0.075000 -2.000000
v -2.115000 -0.075000 2.000000
v -2.295000 -0.075000 2.000000
v -2.295000 0.075000 -2.000000
v -2.115000 0.075000 -2.000000
v -2.115000 0.075000 2.000000
v -2.295000 0.075000 2.000000
v -0.090000 -0.075000 -2.000000
v 0.090000 -0.075000 -2.000000
v 0.090000 -0.075000 2.000000
v -0.090000 -0.075000 2.000000
v -0.090000 0.075000 -2.000000
v 0.090000 0.075000 -2.000000
v 0.090000 0.075000 2.000000
v -0.090000 0.075000 2.000000
v 2.115000 -0.075000 -2.000000
v 2.295000 -0.075000 -2.000000
v 2.295000 -0.075000 2.000000
v 2.115000 -0.075000 2.000000
v 2.115000 0.075000 -2.000000
v 2.295000 0.075000 -2.000000
v 2.295000 0.075000 2.000000
v 2.115000 0.075000 2.000000
v 4.320000 -0.075000 -2.000000
v 4.500000 -0.075000 -2.000000
v 4.500000 -0.075000 2.000000
v 4.320000 -0.075000 2.000000
v 4.320000 0.075000 -2.000000
v 4.500000 0.075000 -2.000000
v 4.500000 0.075000 2.000000
v 4.320000 0.075000 2.000000
vn -0.0000 -1.0000 -0.0000
vn -0.0000 1.0000 -0.0000
vn -0.0000 -0.0000 -1.0000
vn 1.0000 -0.0000 -0.0000
vn -0.0000 -0.0000 1.0000
vn -1.0000 -0.0000 -0.0000
vt -1.628181 1.037500
vt 2.371819 1.037500
vt 2.371819 0.962500
vt -1.628181 0.962500
vt -1.487021 1.037500
vt 2.512979 1.037500
vt 2.512979 0.962500
vt -1.487021 0.962500
vt -1.726811 1.037500
vt 2.273189 1.037500
vt 2.273189 0.962500
vt -1.726811 0.962500
vt -1.733102 1.037500
vt 2.266898 1.037500
vt 2.266898 0.962500
vt -1.733102 0.962500
vt -1.690824 1.037500
vt 2.309176 1.037500
vt 2.309176 0.962500
vt -1.690824 0.962500
f 2/1/1 4/2/1 1/1/1
f 8/3/2 6/4/2 5/4/2
f 5/4/3 2/1/3 1/1/3
f 6/4/4 3/2/4 2/1/4
f 7/3/5 4/2/5 3/2/5
f 8/3/6 1/1/6 4/2/6
f 10/5/1 12/6/1 9/5/1
f 16/7/2 14/8/2 13/8/2
f 13/8/3 10/5/3 9/5/3
f 14/8/4 11/6/4 10/5/4
f 15/7/5 12/6/5 11/6/5
f 16/7/6 9/5/6 12/6/6
f 18/9/1 20/10/1 17/9/1
f 24/11/2 22/12/2 21/12/2
f 21/12/3 18/9/3 17/9/3
f 22/12/4 19/10/4 18/9/4
f 23/11/5 20/10/5 19/10/5
f 24/11/6 17/9/6 20/10/6
f 26/13/1 28/14/1 25/13/1
f 32/15/2 30/16/2 29/16/2
f 29/16/3 26/13/3 25/13/3
f 30/16/4 27/14/4 26/13/4
f 31/15/5 28/14/5 27/14/5
f 32/15/6 25/13/6 28/14/6
f 34/17/1 36/18/1 33/17/1
f 40/19/2 38/20/2 37/20/2
f 37/20/3 34/17/3 33/17/3
f 38/20/4 35/18/4 34/17/4
f 39/19/5 36/18/5 35/18/5
f 40/19/6 33/17/6 36/18/6
f 2/1/1 3/2/1 4/2/1
f 8/3/2 7/3/2 6/4/2
f 5/4/3 6/4/3 2/1/3
f 6/4/4 7/3/4 3/2/4
f 7/3/5 8/3/5 4/2/5
f 8/3/6 5/4/6 1/1/6
f 10/5/1 11/6/1 12/6/1
f 16/7/2 15/7/2 14/8/2
f 13/8/3 14/8/3 10/5/3
f 14/8/4 15/7/4 11/6/4
f 15/7/5 16/7/5 12/6/5
f 16/7/6 13/8/6 9/5/6
f 18/9/1 19/10/1 20/10/1
f 24/11/2 23/11/2 22/12/2
f 21/12/3 22/12/3 18/9/3
f 22/12/4 23/11/4 19/10/4
f 23/11/5 24/11/5 20/10/5
f 24/11/6 21/12/6 17/9/6
f 26/13/1 27/14/1 28/14/1
f 32/15/2 31/15/2 30/16/2
f 29/16/3 30/16/3 26/13/3
f 30/16/4 31/15/4 27/14/4
f 31/15/5 32/15/5 28/14/5
f 32/15/6 29/16/6 25/13/6
f 34/17/1 35/18/1 36/18/1
f 40/19/2 39/19/2 38/20/2
f 37/20/3 38/20/3 34/17/3
f 38/20/4 39/19/4 35/18/4
f 39/19/5 40/19/5 36/18/5
f 40/19/6 37/20/6 33/17/6
