# rig: cap West. World x -11.960..-11.840 y 2.680..2.920 z -7.000..7.000, centred on its own origin. One box. Node pos=(-11.900, 2.800, 0.000) half_extents=(0.060, 0.120, 7.000).
# Loom axes -- metres, Y up, forward -Z. V flipped on export.
# Generated by tools/mesh/rig; never edit this file.
# Blender 5.2.0 LTS
# www.blender.org
v -0.060000 -0.120000 -7.000000
v 0.060000 -0.120000 -7.000000
v 0.060000 -0.120000 7.000000
v -0.060000 -0.120000 7.000000
v -0.060000 0.120000 -7.000000
v 0.060000 0.120000 -7.000000
v 0.060000 0.120000 7.000000
v -0.060000 0.120000 7.000000
vn -0.0000 -1.0000 -0.0000
vn -0.0000 1.0000 -0.0000
vn -0.0000 -0.0000 -1.0000
vn 1.0000 -0.0000 -0.0000
vn -0.0000 -0.0000 1.0000
vn -1.0000 -0.0000 -0.0000
f 2//1 4//1 1//1
f 8//2 6//2 5//2
f 5//3 2//3 1//3
f 6//4 3//4 2//4
f 7//5 4//5 3//5
f 8//6 1//6 4//6
f 2//1 3//1 4//1
f 8//2 7//2 6//2
f 5//3 6//3 2//3
f 6//4 7//4 3//4
f 7//5 8//5 4//5
f 8//6 5//6 1//6
