# rig: rail EastSouth. World x 11.800..12.000 y 1.400..2.400 z 4.800..7.000, centred on its own origin. 4 boards, 0.2410 m each, 12.0 mm gaps. Node pos=(11.900, 1.900, 5.900) half_extents=(0.100, 0.500, 1.100).
# Loom axes -- metres, Y up, forward -Z. V flipped on export.
# Generated by tools/mesh/rig; never edit this file.
# Blender 5.2.0 LTS
# www.blender.org
v -0.100000 -0.500000 -1.100000
v 0.100000 -0.500000 -1.100000
v 0.100000 -0.500000 1.100000
v -0.100000 -0.500000 1.100000
v -0.100000 -0.259000 -1.100000
v 0.100000 -0.259000 -1.100000
v 0.100000 -0.259000 1.100000
v -0.100000 -0.259000 1.100000
v -0.100000 -0.247000 -1.100000
v 0.100000 -0.247000 -1.100000
v 0.100000 -0.247000 1.100000
v -0.100000 -0.247000 1.100000
v -0.100000 -0.006000 -1.100000
v 0.100000 -0.006000 -1.100000
v 0.100000 -0.006000 1.100000
v -0.100000 -0.006000 1.100000
v -0.100000 0.006000 -1.100000
v 0.100000 0.006000 -1.100000
v 0.100000 0.006000 1.100000
v -0.100000 0.006000 1.100000
v -0.100000 0.247000 -1.100000
v 0.100000 0.247000 -1.100000
v 0.100000 0.247000 1.100000
v -0.100000 0.247000 1.100000
v -0.100000 0.259000 -1.100000
v 0.100000 0.259000 -1.100000
v 0.100000 0.259000 1.100000
v -0.100000 0.259000 1.100000
v -0.100000 0.500000 -1.100000
v 0.100000 0.500000 -1.100000
v 0.100000 0.500000 1.100000
v -0.100000 0.500000 1.100000
vn -0.0000 -1.0000 -0.0000
vn -0.0000 1.0000 -0.0000
vn -0.0000 -0.0000 -1.0000
vn 1.0000 -0.0000 -0.0000
vn -0.0000 -0.0000 1.0000
vn -1.0000 -0.0000 -0.0000
vt 0.550000 1.000000
vt -0.550000 1.000000
vt -0.550000 0.759000
vt 0.550000 0.759000
vt 0.550000 0.747000
vt -0.550000 0.747000
vt -0.550000 0.506000
vt 0.550000 0.506000
vt 0.550000 0.494000
vt -0.550000 0.494000
vt -0.550000 0.253000
vt 0.550000 0.253000
vt 0.550000 0.241000
vt -0.550000 0.241000
vt -0.550000 0.000000
vt 0.550000 0.000000
f 2/1/1 4/2/1 1/1/1
f 8/3/2 6/4/2 5/4/2
f 5/4/3 2/1/3 1/1/3
f 6/4/4 3/2/4 2/1/4
f 7/3/5 4/2/5 3/2/5
f 8/3/6 1/1/6 4/2/6
f 10/5/1 12/6/1 9/5/1
f 16/7/2 14/8/2 13/8/2
f 13/8/3 10/5/3 9/5/3
f 14/8/4 11/6/4 10/5/4
f 15/7/5 12/6/5 11/6/5
f 16/7/6 9/5/6 12/6/6
f 18/9/1 20/10/1 17/9/1
f 24/11/2 22/12/2 21/12/2
f 21/12/3 18/9/3 17/9/3
f 22/12/4 19/10/4 18/9/4
f 23/11/5 20/10/5 19/10/5
f 24/11/6 17/9/6 20/10/6
f 26/13/1 28/14/1 25/13/1
f 32/15/2 30/16/2 29/16/2
f 29/16/3 26/13/3 25/13/3
f 30/16/4 27/14/4 26/13/4
f 31/15/5 28/14/5 27/14/5
f 32/15/6 25/13/6 28/14/6
f 2/1/1 3/2/1 4/2/1
f 8/3/2 7/3/2 6/4/2
f 5/4/3 6/4/3 2/1/3
f 6/4/4 7/3/4 3/2/4
f 7/3/5 8/3/5 4/2/5
f 8/3/6 5/4/6 1/1/6
f 10/5/1 11/6/1 12/6/1
f 16/7/2 15/7/2 14/8/2
f 13/8/3 14/8/3 10/5/3
f 14/8/4 15/7/4 11/6/4
f 15/7/5 16/7/5 12/6/5
f 16/7/6 13/8/6 9/5/6
f 18/9/1 19/10/1 20/10/1
f 24/11/2 23/11/2 22/12/2
f 21/12/3 22/12/3 18/9/3
f 22/12/4 23/11/4 19/10/4
f 23/11/5 24/11/5 20/10/5
f 24/11/6 21/12/6 17/9/6
f 26/13/1 27/14/1 28/14/1
f 32/15/2 31/15/2 30/16/2
f 29/16/3 30/16/3 26/13/3
f 30/16/4 31/15/4 27/14/4
f 31/15/5 32/15/5 28/14/5
f 32/15/6 29/16/6 25/13/6
