# rig: rail South. World x -12.000..12.000 y 1.400..2.400 z 6.800..7.000, centred on its own origin. Node pos=(0.000, 1.900, 6.900) half_extents=(12.000, 0.500, 0.100).
# Loom axes -- metres, Y up, forward -Z. V flipped on export.
# Generated by tools/mesh/rig; never edit this file.
# Blender 5.2.0 LTS
# www.blender.org
v -12.000000 -0.500000 -0.100000
v 12.000000 -0.500000 -0.100000
v 12.000000 -0.500000 0.100000
v -12.000000 -0.500000 0.100000
v -12.000000 0.500000 -0.100000
v 12.000000 0.500000 -0.100000
v 12.000000 0.500000 0.100000
v -12.000000 0.500000 0.100000
vn -0.0000 -1.0000 -0.0000
vn -0.0000 1.0000 -0.0000
vn -0.0000 -0.0000 -1.0000
vn 1.0000 -0.0000 -0.0000
vn -0.0000 -0.0000 1.0000
vn -1.0000 -0.0000 -0.0000
vt 6.000000 1.000000
vt -6.000000 1.000000
vt -6.000000 0.000000
vt 6.000000 0.000000
f 2/1/1 4/2/1 1/2/1
f 8/3/2 6/4/2 5/3/2
f 5/3/3 2/1/3 1/2/3
f 6/4/4 3/1/4 2/1/4
f 7/4/5 4/2/5 3/1/5
f 8/3/6 1/2/6 4/2/6
f 2/1/1 3/1/1 4/2/1
f 8/3/2 7/4/2 6/4/2
f 5/3/3 6/4/3 2/1/3
f 6/4/4 7/4/4 3/1/4
f 7/4/5 8/3/5 4/2/5
f 8/3/6 5/3/6 1/2/6
