# rig: rail NorthEast. World x -3.100..12.000 y 1.400..2.400 z -7.000..-6.800, centred on its own origin. 4 boards, 0.2410 m each, 12.0 mm gaps. Node pos=(4.450, 1.900, -6.900) half_extents=(7.550, 0.500, 0.100).
# Loom axes -- metres, Y up, forward -Z. V flipped on export.
# Generated by tools/mesh/rig; never edit this file.
# Blender 5.2.0 LTS
# www.blender.org
v -7.550000 -0.500000 -0.100000
v 7.550000 -0.500000 -0.100000
v 7.550000 -0.500000 0.100000
v -7.550000 -0.500000 0.100000
v -7.550000 -0.259000 -0.100000
v 7.550000 -0.259000 -0.100000
v 7.550000 -0.259000 0.100000
v -7.550000 -0.259000 0.100000
v -7.550000 -0.247000 -0.100000
v 7.550000 -0.247000 -0.100000
v 7.550000 -0.247000 0.100000
v -7.550000 -0.247000 0.100000
v -7.550000 -0.006000 -0.100000
v 7.550000 -0.006000 -0.100000
v 7.550000 -0.006000 0.100000
v -7.550000 -0.006000 0.100000
v -7.550000 0.006000 -0.100000
v 7.550000 0.006000 -0.100000
v 7.550000 0.006000 0.100000
v -7.550000 0.006000 0.100000
v -7.550000 0.247000 -0.100000
v 7.550000 0.247000 -0.100000
v 7.550000 0.247000 0.100000
v -7.550000 0.247000 0.100000
v -7.550000 0.259000 -0.100000
v 7.550000 0.259000 -0.100000
v 7.550000 0.259000 0.100000
v -7.550000 0.259000 0.100000
v -7.550000 0.500000 -0.100000
v 7.550000 0.500000 -0.100000
v 7.550000 0.500000 0.100000
v -7.550000 0.500000 0.100000
vn -0.0000 -1.0000 -0.0000
vn -0.0000 1.0000 -0.0000
vn -0.0000 -0.0000 -1.0000
vn 1.0000 -0.0000 -0.0000
vn -0.0000 -0.0000 1.0000
vn -1.0000 -0.0000 -0.0000
vt 3.775000 1.000000
vt -3.775000 1.000000
vt -3.775000 0.759000
vt 3.775000 0.759000
vt 3.775000 0.747000
vt -3.775000 0.747000
vt -3.775000 0.506000
vt 3.775000 0.506000
vt 3.775000 0.494000
vt -3.775000 0.494000
vt -3.775000 0.253000
vt 3.775000 0.253000
vt 3.775000 0.241000
vt -3.775000 0.241000
vt -3.775000 0.000000
vt 3.775000 0.000000
f 2/1/1 4/2/1 1/2/1
f 8/3/2 6/4/2 5/3/2
f 5/3/3 2/1/3 1/2/3
f 6/4/4 3/1/4 2/1/4
f 7/4/5 4/2/5 3/1/5
f 8/3/6 1/2/6 4/2/6
f 10/5/1 12/6/1 9/6/1
f 16/7/2 14/8/2 13/7/2
f 13/7/3 10/5/3 9/6/3
f 14/8/4 11/5/4 10/5/4
f 15/8/5 12/6/5 11/5/5
f 16/7/6 9/6/6 12/6/6
f 18/9/1 20/10/1 17/10/1
f 24/11/2 22/12/2 21/11/2
f 21/11/3 18/9/3 17/10/3
f 22/12/4 19/9/4 18/9/4
f 23/12/5 20/10/5 19/9/5
f 24/11/6 17/10/6 20/10/6
f 26/13/1 28/14/1 25/14/1
f 32/15/2 30/16/2 29/15/2
f 29/15/3 26/13/3 25/14/3
f 30/16/4 27/13/4 26/13/4
f 31/16/5 28/14/5 27/13/5
f 32/15/6 25/14/6 28/14/6
f 2/1/1 3/1/1 4/2/1
f 8/3/2 7/4/2 6/4/2
f 5/3/3 6/4/3 2/1/3
f 6/4/4 7/4/4 3/1/4
f 7/4/5 8/3/5 4/2/5
f 8/3/6 5/3/6 1/2/6
f 10/5/1 11/5/1 12/6/1
f 16/7/2 15/8/2 14/8/2
f 13/7/3 14/8/3 10/5/3
f 14/8/4 15/8/4 11/5/4
f 15/8/5 16/7/5 12/6/5
f 16/7/6 13/7/6 9/6/6
f 18/9/1 19/9/1 20/10/1
f 24/11/2 23/12/2 22/12/2
f 21/11/3 22/12/3 18/9/3
f 22/12/4 23/12/4 19/9/4
f 23/12/5 24/11/5 20/10/5
f 24/11/6 21/11/6 17/10/6
f 26/13/1 27/13/1 28/14/1
f 32/15/2 31/16/2 30/16/2
f 29/15/3 30/16/3 26/13/3
f 30/16/4 31/16/4 27/13/4
f 31/16/5 32/15/5 28/14/5
f 32/15/6 29/15/6 25/14/6
