# rig: cross-bracing, r0.075 at world y 0.550. No collider: new geometry, no primitive behind it.
# IN NO SCENE. It is built and it is not wired: a BoxCollider cannot express an open lattice of eight thin rods (its true AABB is a 21 x 11 m slab) and omitting one gives a 2x2x2 m cube at the rig origin, so rig_structure.loom leaves it out. Nothing renders it and no gate covers it, which is why its UVs ran along the tube instead of around it -- measured median face U span 0.4968 on an 8-sided tube where 0.125 is correct -- from the first build until 2026-08-26. It is correct now by MEASUREMENT, not by anyone having looked at it. A collider is not the only thing this mesh is waiting for; it is waiting to be seen.
# Loom axes -- metres, Y up, forward -Z. V flipped on export.
# Generated by tools/mesh/rig; never edit this file.
# Blender 5.2.0 LTS
# www.blender.org
v -10.500000 0.750000 -5.575000
v -10.500000 0.803033 -5.553033
v -10.500000 0.825000 -5.500000
v -10.500000 0.803033 -5.446967
v -10.500000 0.750000 -5.425000
v -10.500000 0.696967 -5.446967
v -10.500000 0.675000 -5.500000
v -10.500000 0.696967 -5.553033
v 0.000000 0.750000 -5.575000
v 0.000000 0.803033 -5.553033
v 0.000000 0.825000 -5.500000
v 0.000000 0.803033 -5.446967
v 0.000000 0.750000 -5.425000
v 0.000000 0.696967 -5.446967
v 0.000000 0.675000 -5.500000
v 0.000000 0.696967 -5.553033
v 0.000000 0.750000 -5.575000
v 0.000000 0.803033 -5.553033
v 0.000000 0.825000 -5.500000
v 0.000000 0.803033 -5.446967
v 0.000000 0.750000 -5.425000
v 0.000000 0.696967 -5.446967
v 0.000000 0.675000 -5.500000
v 0.000000 0.696967 -5.553033
v 10.500000 0.750000 -5.575000
v 10.500000 0.803033 -5.553033
v 10.500000 0.825000 -5.500000
v 10.500000 0.803033 -5.446967
v 10.500000 0.750000 -5.425000
v 10.500000 0.696967 -5.446967
v 10.500000 0.675000 -5.500000
v 10.500000 0.696967 -5.553033
v -10.500000 0.750000 5.425000
v -10.500000 0.803033 5.446967
v -10.500000 0.825000 5.500000
v -10.500000 0.803033 5.553033
v -10.500000 0.750000 5.575000
v -10.500000 0.696967 5.553033
v -10.500000 0.675000 5.500000
v -10.500000 0.696967 5.446967
v 0.000000 0.750000 5.425000
v 0.000000 0.803033 5.446967
v 0.000000 0.825000 5.500000
v 0.000000 0.803033 5.553033
v 0.000000 0.750000 5.575000
v 0.000000 0.696967 5.553033
v 0.000000 0.675000 5.500000
v 0.000000 0.696967 5.446967
v 0.000000 0.750000 5.425000
v 0.000000 0.803033 5.446967
v 0.000000 0.825000 5.500000
v 0.000000 0.803033 5.553033
v 0.000000 0.750000 5.575000
v 0.000000 0.696967 5.553033
v 0.000000 0.675000 5.500000
v 0.000000 0.696967 5.446967
v 10.500000 0.750000 5.425000
v 10.500000 0.803033 5.446967
v 10.500000 0.825000 5.500000
v 10.500000 0.803033 5.553033
v 10.500000 0.750000 5.575000
v 10.500000 0.696967 5.553033
v 10.500000 0.675000 5.500000
v 10.500000 0.696967 5.446967
v -10.425000 0.750000 -5.500000
v -10.446967 0.803033 -5.500000
v -10.500000 0.825000 -5.500000
v -10.553033 0.803033 -5.500000
v -10.575000 0.750000 -5.500000
v -10.553033 0.696967 -5.500000
v -10.500000 0.675000 -5.500000
v -10.446967 0.696967 -5.500000
v -10.425000 0.750000 5.500000
v -10.446967 0.803033 5.500000
v -10.500000 0.825000 5.500000
v -10.553033 0.803033 5.500000
v -10.575000 0.750000 5.500000
v -10.553033 0.696967 5.500000
v -10.500000 0.675000 5.500000
v -10.446967 0.696967 5.500000
v 0.075000 0.750000 -5.500000
v 0.053033 0.803033 -5.500000
v 0.000000 0.825000 -5.500000
v -0.053033 0.803033 -5.500000
v -0.075000 0.750000 -5.500000
v -0.053033 0.696967 -5.500000
v -0.000000 0.675000 -5.500000
v 0.053033 0.696967 -5.500000
v 0.075000 0.750000 5.500000
v 0.053033 0.803033 5.500000
v 0.000000 0.825000 5.500000
v -0.053033 0.803033 5.500000
v -0.075000 0.750000 5.500000
v -0.053033 0.696967 5.500000
v -0.000000 0.675000 5.500000
v 0.053033 0.696967 5.500000
v 10.575000 0.750000 -5.500000
v 10.553033 0.803033 -5.500000
v 10.500000 0.825000 -5.500000
v 10.446967 0.803033 -5.500000
v 10.425000 0.750000 -5.500000
v 10.446967 0.696967 -5.500000
v 10.500000 0.675000 -5.500000
v 10.553033 0.696967 -5.500000
v 10.575000 0.750000 5.500000
v 10.553033 0.803033 5.500000
v 10.500000 0.825000 5.500000
v 10.446967 0.803033 5.500000
v 10.425000 0.750000 5.500000
v 10.446967 0.696967 5.500000
v 10.500000 0.675000 5.500000
v 10.553033 0.696967 5.500000
vn -0.0000 0.3827 -0.9239
vn -0.0000 0.9239 -0.3827
vn -0.0000 0.9239 0.3827
vn -0.0000 0.3827 0.9239
vn -0.0000 -0.3827 0.9239
vn -0.0000 -0.9239 0.3827
vn -0.0000 -0.9239 -0.3827
vn -0.0000 -0.3827 -0.9239
vn -1.0000 -0.0000 -0.0000
vn 1.0000 -0.0000 -0.0000
vn 0.9239 0.3827 -0.0000
vn 0.3827 0.9239 -0.0000
vn -0.3827 0.9239 -0.0000
vn -0.9239 0.3827 -0.0000
vn -0.9239 -0.3827 -0.0000
vn -0.3827 -0.9239 -0.0000
vn 0.3827 -0.9239 -0.0000
vn 0.9239 -0.3827 -0.0000
vn -0.0000 -0.0000 -1.0000
vn -0.0000 -0.0000 1.0000
vn -1.0000 -0.0000 0.0001
vn -1.0000 -0.0000 -0.0001
vt 0.235000 1.000000
vt 0.110000 -9.500000
vt 0.110000 1.000000
vt 0.360000 1.000000
vt 0.235000 -9.500000
vt 0.485000 1.000000
vt 0.360000 -9.500000
vt 0.610000 1.000000
vt 0.485000 -9.500000
vt 0.735000 1.000000
vt 0.610000 -9.500000
vt 0.860000 1.000000
vt 0.735000 -9.500000
vt 0.985000 1.000000
vt 0.860000 -9.500000
vt 1.110000 1.000000
vt 0.985000 -9.500000
vt 0.035000 1.000000
vt 0.110000 0.925000
vt 0.185000 1.000000
vt 0.056967 -9.553033
vt 0.056967 -9.446967
vt 0.163033 -9.446967
vt 0.415000 1.000000
vt 0.290000 -10.000000
vt 0.290000 1.000000
vt 0.540000 1.000000
vt 0.415000 -10.000000
vt 0.665000 1.000000
vt 0.540000 -10.000000
vt 0.790000 1.000000
vt 0.665000 -10.000000
vt 0.915000 1.000000
vt 0.790000 -10.000000
vt 1.040000 1.000000
vt 0.915000 -10.000000
vt 1.165000 1.000000
vt 1.040000 -10.000000
vt 1.290000 1.000000
vt 1.165000 -10.000000
vt 0.215000 1.000000
vt 0.290000 0.925000
vt 0.365000 1.000000
vt 0.236967 -10.053033
vt 0.236967 -9.946967
vt 0.343033 -9.946967
vt 0.215000 1.000000
vt 0.365000 1.000000
vt 0.236967 -10.053033
vt 0.236967 -9.946967
vt 0.343033 -9.946967
vt 1.110000 -9.500000
vt 0.163033 1.053033
vt 0.110000 1.075000
vt 0.056967 1.053033
vt 0.056967 0.946967
vt 0.163033 0.946967
vt 0.185000 -9.500000
vt 0.163033 -9.553033
vt 0.110000 -9.575000
vt 0.035000 -9.500000
vt 0.110000 -9.425000
vt 1.290000 -10.000000
vt 0.343033 1.053033
vt 0.290000 1.075000
vt 0.236967 1.053033
vt 0.236967 0.946967
vt 0.343033 0.946967
vt 0.365000 -10.000000
vt 0.343033 -10.053033
vt 0.290000 -10.075000
vt 0.215000 -10.000000
vt 0.290000 -9.925000
vt 0.343033 1.053033
vt 0.236967 1.053033
vt 0.236967 0.946967
vt 0.343033 0.946967
vt 0.365000 -10.000000
vt 0.343033 -10.053033
vt 0.215000 -10.000000
f 2/1/1 9/2/1 1/3/1
f 3/4/2 10/5/2 2/1/2
f 4/6/3 11/7/3 3/4/3
f 5/8/4 12/9/4 4/6/4
f 6/10/5 13/11/5 5/8/5
f 7/12/6 14/13/6 6/10/6
f 8/14/7 15/15/7 7/12/7
f 1/16/8 16/17/8 8/14/8
f 5/18/9 3/19/9 1/20/9
f 12/21/10 14/22/10 16/23/10
f 18/1/1 25/2/1 17/3/1
f 19/4/2 26/5/2 18/1/2
f 20/6/3 27/7/3 19/4/3
f 21/8/4 28/9/4 20/6/4
f 22/10/5 29/11/5 21/8/5
f 23/12/6 30/13/6 22/10/6
f 24/14/7 31/15/7 23/12/7
f 17/16/8 32/17/8 24/14/8
f 21/18/9 19/19/9 17/20/9
f 28/21/10 30/22/10 32/23/10
f 34/1/1 41/2/1 33/3/1
f 35/4/2 42/5/2 34/1/2
f 36/6/3 43/7/3 35/4/3
f 37/8/4 44/9/4 36/6/4
f 38/10/5 45/11/5 37/8/5
f 39/12/6 46/13/6 38/10/6
f 40/14/7 47/15/7 39/12/7
f 33/16/8 48/17/8 40/14/8
f 37/18/9 35/19/9 33/20/9
f 44/21/10 46/22/10 48/23/10
f 50/1/1 57/2/1 49/3/1
f 51/4/2 58/5/2 50/1/2
f 52/6/3 59/7/3 51/4/3
f 53/8/4 60/9/4 52/6/4
f 54/10/5 61/11/5 53/8/5
f 55/12/6 62/13/6 54/10/6
f 56/14/7 63/15/7 55/12/7
f 49/16/8 64/17/8 56/14/8
f 53/18/9 51/19/9 49/20/9
f 60/21/10 62/22/10 64/23/10
f 66/24/11 73/25/11 65/26/11
f 67/27/12 74/28/12 66/24/12
f 68/29/13 75/30/13 67/27/13
f 69/31/14 76/32/14 68/29/14
f 70/33/15 77/34/15 69/31/15
f 71/35/16 78/36/16 70/33/16
f 72/37/17 79/38/17 71/35/17
f 65/39/18 80/40/18 72/37/18
f 69/41/19 67/42/19 65/43/19
f 76/44/20 78/45/20 80/46/20
f 82/24/11 89/25/11 81/26/11
f 83/27/12 90/28/12 82/24/12
f 84/29/13 91/30/13 83/27/13
f 85/31/14 92/32/14 84/29/14
f 86/33/15 93/34/15 85/31/15
f 87/35/16 94/36/16 86/33/16
f 88/37/17 95/38/17 87/35/17
f 81/39/18 96/40/18 88/37/18
f 85/47/19 83/42/19 81/48/19
f 92/49/20 94/50/20 96/51/20
f 98/24/11 105/25/11 97/26/11
f 99/27/12 106/28/12 98/24/12
f 100/29/13 107/30/13 99/27/13
f 101/31/14 108/32/14 100/29/14
f 102/33/15 109/34/15 101/31/15
f 103/35/16 110/36/16 102/33/16
f 104/37/17 111/38/17 103/35/17
f 97/39/18 112/40/18 104/37/18
f 101/41/19 99/42/19 97/43/19
f 108/44/20 110/45/20 112/46/20
f 2/1/1 10/5/1 9/2/1
f 3/4/2 11/7/2 10/5/2
f 4/6/3 12/9/3 11/7/3
f 5/8/4 13/11/4 12/9/4
f 6/10/5 14/13/5 13/11/5
f 7/12/6 15/15/6 14/13/6
f 8/14/7 16/17/7 15/15/7
f 1/16/8 9/52/8 16/17/8
f 1/20/9 8/53/9 7/54/9
f 7/54/21 6/55/21 5/18/21
f 5/18/9 4/56/9 3/19/9
f 3/19/22 2/57/22 1/20/22
f 1/20/9 7/54/9 5/18/9
f 16/23/10 9/58/10 10/59/10
f 10/59/10 11/60/10 12/21/10
f 12/21/10 13/61/10 14/22/10
f 14/22/10 15/62/10 16/23/10
f 16/23/10 10/59/10 12/21/10
f 18/1/1 26/5/1 25/2/1
f 19/4/2 27/7/2 26/5/2
f 20/6/3 28/9/3 27/7/3
f 21/8/4 29/11/4 28/9/4
f 22/10/5 30/13/5 29/11/5
f 23/12/6 31/15/6 30/13/6
f 24/14/7 32/17/7 31/15/7
f 17/16/8 25/52/8 32/17/8
f 17/20/9 24/53/9 23/54/9
f 23/54/9 22/55/9 21/18/9
f 21/18/9 20/56/9 19/19/9
f 19/19/9 18/57/9 17/20/9
f 17/20/9 23/54/9 21/18/9
f 32/23/10 25/58/10 26/59/10
f 26/59/10 27/60/10 28/21/10
f 28/21/10 29/61/10 30/22/10
f 30/22/10 31/62/10 32/23/10
f 32/23/10 26/59/10 28/21/10
f 34/1/1 42/5/1 41/2/1
f 35/4/2 43/7/2 42/5/2
f 36/6/3 44/9/3 43/7/3
f 37/8/4 45/11/4 44/9/4
f 38/10/5 46/13/5 45/11/5
f 39/12/6 47/15/6 46/13/6
f 40/14/7 48/17/7 47/15/7
f 33/16/8 41/52/8 48/17/8
f 33/20/9 40/53/9 39/54/9
f 39/54/21 38/55/21 37/18/21
f 37/18/9 36/56/9 35/19/9
f 35/19/22 34/57/22 33/20/22
f 33/20/9 39/54/9 37/18/9
f 48/23/10 41/58/10 42/59/10
f 42/59/10 43/60/10 44/21/10
f 44/21/10 45/61/10 46/22/10
f 46/22/10 47/62/10 48/23/10
f 48/23/10 42/59/10 44/21/10
f 50/1/1 58/5/1 57/2/1
f 51/4/2 59/7/2 58/5/2
f 52/6/3 60/9/3 59/7/3
f 53/8/4 61/11/4 60/9/4
f 54/10/5 62/13/5 61/11/5
f 55/12/6 63/15/6 62/13/6
f 56/14/7 64/17/7 63/15/7
f 49/16/8 57/52/8 64/17/8
f 49/20/9 56/53/9 55/54/9
f 55/54/9 54/55/9 53/18/9
f 53/18/9 52/56/9 51/19/9
f 51/19/9 50/57/9 49/20/9
f 49/20/9 55/54/9 53/18/9
f 64/23/10 57/58/10 58/59/10
f 58/59/10 59/60/10 60/21/10
f 60/21/10 61/61/10 62/22/10
f 62/22/10 63/62/10 64/23/10
f 64/23/10 58/59/10 60/21/10
f 66/24/11 74/28/11 73/25/11
f 67/27/12 75/30/12 74/28/12
f 68/29/13 76/32/13 75/30/13
f 69/31/14 77/34/14 76/32/14
f 70/33/15 78/36/15 77/34/15
f 71/35/16 79/38/16 78/36/16
f 72/37/17 80/40/17 79/38/17
f 65/39/18 73/63/18 80/40/18
f 65/43/19 72/64/19 71/65/19
f 71/65/19 70/66/19 69/41/19
f 69/41/19 68/67/19 67/42/19
f 67/42/19 66/68/19 65/43/19
f 65/43/19 71/65/19 69/41/19
f 80/46/20 73/69/20 74/70/20
f 74/70/20 75/71/20 76/44/20
f 76/44/20 77/72/20 78/45/20
f 78/45/20 79/73/20 80/46/20
f 80/46/20 74/70/20 76/44/20
f 82/24/11 90/28/11 89/25/11
f 83/27/12 91/30/12 90/28/12
f 84/29/13 92/32/13 91/30/13
f 85/31/14 93/34/14 92/32/14
f 86/33/15 94/36/15 93/34/15
f 87/35/16 95/38/16 94/36/16
f 88/37/17 96/40/17 95/38/17
f 81/39/18 89/63/18 96/40/18
f 81/48/19 88/74/19 87/65/19
f 87/65/19 86/75/19 85/47/19
f 85/47/19 84/76/19 83/42/19
f 83/42/19 82/77/19 81/48/19
f 81/48/19 87/65/19 85/47/19
f 96/51/20 89/78/20 90/79/20
f 90/79/20 91/71/20 92/49/20
f 92/49/20 93/80/20 94/50/20
f 94/50/20 95/73/20 96/51/20
f 96/51/20 90/79/20 92/49/20
f 98/24/11 106/28/11 105/25/11
f 99/27/12 107/30/12 106/28/12
f 100/29/13 108/32/13 107/30/13
f 101/31/14 109/34/14 108/32/14
f 102/33/15 110/36/15 109/34/15
f 103/35/16 111/38/16 110/36/16
f 104/37/17 112/40/17 111/38/17
f 97/39/18 105/63/18 112/40/18
f 97/43/19 104/64/19 103/65/19
f 103/65/19 102/66/19 101/41/19
f 101/41/19 100/67/19 99/42/19
f 99/42/19 98/68/19 97/43/19
f 97/43/19 103/65/19 101/41/19
f 112/46/20 105/69/20 106/70/20
f 106/70/20 107/71/20 108/44/20
f 108/44/20 109/72/20 110/45/20
f 110/45/20 111/73/20 112/46/20
f 112/46/20 106/70/20 108/44/20
