# rig: steel frame. 6 piles r0.35, 16 sides; bracing r0.075 at world y 0.550.
# Loom axes -- metres, Y up, forward -Z. V flipped on export.
# Generated by tools/mesh/rig; never edit this file.
# Blender 5.2.0 LTS
# www.blender.org
v -10.500000 -1.200000 -5.150000
v -10.366061 -1.200000 -5.176642
v -10.252513 -1.200000 -5.252512
v -10.176642 -1.200000 -5.366061
v -10.150000 -1.200000 -5.500000
v -10.176642 -1.200000 -5.633939
v -10.252513 -1.200000 -5.747488
v -10.366061 -1.200000 -5.823358
v -10.500000 -1.200000 -5.850000
v -10.633939 -1.200000 -5.823358
v -10.747487 -1.200000 -5.747488
v -10.823358 -1.200000 -5.633939
v -10.850000 -1.200000 -5.500000
v -10.823358 -1.200000 -5.366061
v -10.747487 -1.200000 -5.252512
v -10.633939 -1.200000 -5.176642
v -10.500000 1.200000 -5.150000
v -10.366061 1.200000 -5.176642
v -10.252513 1.200000 -5.252512
v -10.176642 1.200000 -5.366061
v -10.150000 1.200000 -5.500000
v -10.176642 1.200000 -5.633939
v -10.252513 1.200000 -5.747488
v -10.366061 1.200000 -5.823358
v -10.500000 1.200000 -5.850000
v -10.633939 1.200000 -5.823358
v -10.747487 1.200000 -5.747488
v -10.823358 1.200000 -5.633939
v -10.850000 1.200000 -5.500000
v -10.823358 1.200000 -5.366061
v -10.747487 1.200000 -5.252512
v -10.633939 1.200000 -5.176642
v -10.500000 -1.200000 5.850000
v -10.366061 -1.200000 5.823358
v -10.252513 -1.200000 5.747488
v -10.176642 -1.200000 5.633939
v -10.150000 -1.200000 5.500000
v -10.176642 -1.200000 5.366061
v -10.252513 -1.200000 5.252512
v -10.366061 -1.200000 5.176642
v -10.500000 -1.200000 5.150000
v -10.633939 -1.200000 5.176642
v -10.747487 -1.200000 5.252512
v -10.823358 -1.200000 5.366061
v -10.850000 -1.200000 5.500000
v -10.823358 -1.200000 5.633939
v -10.747487 -1.200000 5.747488
v -10.633939 -1.200000 5.823358
v -10.500000 1.200000 5.850000
v -10.366061 1.200000 5.823358
v -10.252513 1.200000 5.747488
v -10.176642 1.200000 5.633939
v -10.150000 1.200000 5.500000
v -10.176642 1.200000 5.366061
v -10.252513 1.200000 5.252512
v -10.366061 1.200000 5.176642
v -10.500000 1.200000 5.150000
v -10.633939 1.200000 5.176642
v -10.747487 1.200000 5.252512
v -10.823358 1.200000 5.366061
v -10.850000 1.200000 5.500000
v -10.823358 1.200000 5.633939
v -10.747487 1.200000 5.747488
v -10.633939 1.200000 5.823358
v 0.000000 -1.200000 -5.150000
v 0.133939 -1.200000 -5.176642
v 0.247487 -1.200000 -5.252512
v 0.323358 -1.200000 -5.366061
v 0.350000 -1.200000 -5.500000
v 0.323358 -1.200000 -5.633939
v 0.247487 -1.200000 -5.747488
v 0.133939 -1.200000 -5.823358
v 0.000000 -1.200000 -5.850000
v -0.133939 -1.200000 -5.823358
v -0.247487 -1.200000 -5.747488
v -0.323358 -1.200000 -5.633939
v -0.350000 -1.200000 -5.500000
v -0.323358 -1.200000 -5.366061
v -0.247487 -1.200000 -5.252512
v -0.133939 -1.200000 -5.176642
v 0.000000 1.200000 -5.150000
v 0.133939 1.200000 -5.176642
v 0.247487 1.200000 -5.252512
v 0.323358 1.200000 -5.366061
v 0.350000 1.200000 -5.500000
v 0.323358 1.200000 -5.633939
v 0.247487 1.200000 -5.747488
v 0.133939 1.200000 -5.823358
v 0.000000 1.200000 -5.850000
v -0.133939 1.200000 -5.823358
v -0.247487 1.200000 -5.747488
v -0.323358 1.200000 -5.633939
v -0.350000 1.200000 -5.500000
v -0.323358 1.200000 -5.366061
v -0.247487 1.200000 -5.252512
v -0.133939 1.200000 -5.176642
v 0.000000 -1.200000 5.850000
v 0.133939 -1.200000 5.823358
v 0.247487 -1.200000 5.747488
v 0.323358 -1.200000 5.633939
v 0.350000 -1.200000 5.500000
v 0.323358 -1.200000 5.366061
v 0.247487 -1.200000 5.252512
v 0.133939 -1.200000 5.176642
v 0.000000 -1.200000 5.150000
v -0.133939 -1.200000 5.176642
v -0.247487 -1.200000 5.252512
v -0.323358 -1.200000 5.366061
v -0.350000 -1.200000 5.500000
v -0.323358 -1.200000 5.633939
v -0.247487 -1.200000 5.747488
v -0.133939 -1.200000 5.823358
v 0.000000 1.200000 5.850000
v 0.133939 1.200000 5.823358
v 0.247487 1.200000 5.747488
v 0.323358 1.200000 5.633939
v 0.350000 1.200000 5.500000
v 0.323358 1.200000 5.366061
v 0.247487 1.200000 5.252512
v 0.133939 1.200000 5.176642
v 0.000000 1.200000 5.150000
v -0.133939 1.200000 5.176642
v -0.247487 1.200000 5.252512
v -0.323358 1.200000 5.366061
v -0.350000 1.200000 5.500000
v -0.323358 1.200000 5.633939
v -0.247487 1.200000 5.747488
v -0.133939 1.200000 5.823358
v 10.500000 -1.200000 -5.150000
v 10.633939 -1.200000 -5.176642
v 10.747487 -1.200000 -5.252512
v 10.823358 -1.200000 -5.366061
v 10.850000 -1.200000 -5.500000
v 10.823358 -1.200000 -5.633939
v 10.747487 -1.200000 -5.747488
v 10.633939 -1.200000 -5.823358
v 10.500000 -1.200000 -5.850000
v 10.366061 -1.200000 -5.823358
v 10.252513 -1.200000 -5.747488
v 10.176642 -1.200000 -5.633939
v 10.150000 -1.200000 -5.500000
v 10.176642 -1.200000 -5.366061
v 10.252513 -1.200000 -5.252512
v 10.366061 -1.200000 -5.176642
v 10.500000 1.200000 -5.150000
v 10.633939 1.200000 -5.176642
v 10.747487 1.200000 -5.252512
v 10.823358 1.200000 -5.366061
v 10.850000 1.200000 -5.500000
v 10.823358 1.200000 -5.633939
v 10.747487 1.200000 -5.747488
v 10.633939 1.200000 -5.823358
v 10.500000 1.200000 -5.850000
v 10.366061 1.200000 -5.823358
v 10.252513 1.200000 -5.747488
v 10.176642 1.200000 -5.633939
v 10.150000 1.200000 -5.500000
v 10.176642 1.200000 -5.366061
v 10.252513 1.200000 -5.252512
v 10.366061 1.200000 -5.176642
v 10.500000 -1.200000 5.850000
v 10.633939 -1.200000 5.823358
v 10.747487 -1.200000 5.747488
v 10.823358 -1.200000 5.633939
v 10.850000 -1.200000 5.500000
v 10.823358 -1.200000 5.366061
v 10.747487 -1.200000 5.252512
v 10.633939 -1.200000 5.176642
v 10.500000 -1.200000 5.150000
v 10.366061 -1.200000 5.176642
v 10.252513 -1.200000 5.252512
v 10.176642 -1.200000 5.366061
v 10.150000 -1.200000 5.500000
v 10.176642 -1.200000 5.633939
v 10.252513 -1.200000 5.747488
v 10.366061 -1.200000 5.823358
v 10.500000 1.200000 5.850000
v 10.633939 1.200000 5.823358
v 10.747487 1.200000 5.747488
v 10.823358 1.200000 5.633939
v 10.850000 1.200000 5.500000
v 10.823358 1.200000 5.366061
v 10.747487 1.200000 5.252512
v 10.633939 1.200000 5.176642
v 10.500000 1.200000 5.150000
v 10.366061 1.200000 5.176642
v 10.252513 1.200000 5.252512
v 10.176642 1.200000 5.366061
v 10.150000 1.200000 5.500000
v 10.176642 1.200000 5.633939
v 10.252513 1.200000 5.747488
v 10.366061 1.200000 5.823358
v -10.500000 0.750000 -5.575000
v -10.500000 0.803033 -5.553033
v -10.500000 0.825000 -5.500000
v -10.500000 0.803033 -5.446967
v -10.500000 0.750000 -5.425000
v -10.500000 0.696967 -5.446967
v -10.500000 0.675000 -5.500000
v -10.500000 0.696967 -5.553033
v 0.000000 0.750000 -5.575000
v 0.000000 0.803033 -5.553033
v 0.000000 0.825000 -5.500000
v 0.000000 0.803033 -5.446967
v 0.000000 0.750000 -5.425000
v 0.000000 0.696967 -5.446967
v 0.000000 0.675000 -5.500000
v 0.000000 0.696967 -5.553033
v 0.000000 0.750000 -5.575000
v 0.000000 0.803033 -5.553033
v 0.000000 0.825000 -5.500000
v 0.000000 0.803033 -5.446967
v 0.000000 0.750000 -5.425000
v 0.000000 0.696967 -5.446967
v 0.000000 0.675000 -5.500000
v 0.000000 0.696967 -5.553033
v 10.500000 0.750000 -5.575000
v 10.500000 0.803033 -5.553033
v 10.500000 0.825000 -5.500000
v 10.500000 0.803033 -5.446967
v 10.500000 0.750000 -5.425000
v 10.500000 0.696967 -5.446967
v 10.500000 0.675000 -5.500000
v 10.500000 0.696967 -5.553033
v -10.500000 0.750000 5.425000
v -10.500000 0.803033 5.446967
v -10.500000 0.825000 5.500000
v -10.500000 0.803033 5.553033
v -10.500000 0.750000 5.575000
v -10.500000 0.696967 5.553033
v -10.500000 0.675000 5.500000
v -10.500000 0.696967 5.446967
v 0.000000 0.750000 5.425000
v 0.000000 0.803033 5.446967
v 0.000000 0.825000 5.500000
v 0.000000 0.803033 5.553033
v 0.000000 0.750000 5.575000
v 0.000000 0.696967 5.553033
v 0.000000 0.675000 5.500000
v 0.000000 0.696967 5.446967
v 0.000000 0.750000 5.425000
v 0.000000 0.803033 5.446967
v 0.000000 0.825000 5.500000
v 0.000000 0.803033 5.553033
v 0.000000 0.750000 5.575000
v 0.000000 0.696967 5.553033
v 0.000000 0.675000 5.500000
v 0.000000 0.696967 5.446967
v 10.500000 0.750000 5.425000
v 10.500000 0.803033 5.446967
v 10.500000 0.825000 5.500000
v 10.500000 0.803033 5.553033
v 10.500000 0.750000 5.575000
v 10.500000 0.696967 5.553033
v 10.500000 0.675000 5.500000
v 10.500000 0.696967 5.446967
v -10.425000 0.750000 -5.500000
v -10.446967 0.803033 -5.500000
v -10.500000 0.825000 -5.500000
v -10.553033 0.803033 -5.500000
v -10.575000 0.750000 -5.500000
v -10.553033 0.696967 -5.500000
v -10.500000 0.675000 -5.500000
v -10.446967 0.696967 -5.500000
v -10.425000 0.750000 5.500000
v -10.446967 0.803033 5.500000
v -10.500000 0.825000 5.500000
v -10.553033 0.803033 5.500000
v -10.575000 0.750000 5.500000
v -10.553033 0.696967 5.500000
v -10.500000 0.675000 5.500000
v -10.446967 0.696967 5.500000
v 0.075000 0.750000 -5.500000
v 0.053033 0.803033 -5.500000
v 0.000000 0.825000 -5.500000
v -0.053033 0.803033 -5.500000
v -0.075000 0.750000 -5.500000
v -0.053033 0.696967 -5.500000
v -0.000000 0.675000 -5.500000
v 0.053033 0.696967 -5.500000
v 0.075000 0.750000 5.500000
v 0.053033 0.803033 5.500000
v 0.000000 0.825000 5.500000
v -0.053033 0.803033 5.500000
v -0.075000 0.750000 5.500000
v -0.053033 0.696967 5.500000
v -0.000000 0.675000 5.500000
v 0.053033 0.696967 5.500000
v 10.575000 0.750000 -5.500000
v 10.553033 0.803033 -5.500000
v 10.500000 0.825000 -5.500000
v 10.446967 0.803033 -5.500000
v 10.425000 0.750000 -5.500000
v 10.446967 0.696967 -5.500000
v 10.500000 0.675000 -5.500000
v 10.553033 0.696967 -5.500000
v 10.575000 0.750000 5.500000
v 10.553033 0.803033 5.500000
v 10.500000 0.825000 5.500000
v 10.446967 0.803033 5.500000
v 10.425000 0.750000 5.500000
v 10.446967 0.696967 5.500000
v 10.500000 0.675000 5.500000
v 10.553033 0.696967 5.500000
vn 0.1951 -0.0000 0.9808
vn 0.5556 -0.0000 0.8315
vn 0.8315 -0.0000 0.5556
vn 0.9808 -0.0000 0.1951
vn 0.9808 -0.0000 -0.1951
vn 0.8315 -0.0000 -0.5556
vn 0.5556 -0.0000 -0.8315
vn 0.1951 -0.0000 -0.9808
vn -0.1951 -0.0000 -0.9808
vn -0.5556 -0.0000 -0.8315
vn -0.8315 -0.0000 -0.5556
vn -0.9808 -0.0000 -0.1951
vn -0.9808 -0.0000 0.1951
vn -0.8315 -0.0000 0.5556
vn -0.5556 -0.0000 0.8315
vn -0.1951 -0.0000 0.9808
vn -0.0000 -1.0000 -0.0000
vn -0.0000 1.0000 -0.0000
vn -0.0000 0.3827 -0.9239
vn -0.0000 0.9239 -0.3827
vn -0.0000 0.9239 0.3827
vn -0.0000 0.3827 0.9239
vn -0.0000 -0.3827 0.9239
vn -0.0000 -0.9239 0.3827
vn -0.0000 -0.9239 -0.3827
vn -0.0000 -0.3827 -0.9239
vn -1.0000 -0.0000 -0.0000
vn 1.0000 -0.0000 -0.0000
vn 0.9239 0.3827 -0.0000
vn 0.3827 0.9239 -0.0000
vn -0.3827 0.9239 -0.0000
vn -0.9239 0.3827 -0.0000
vn -0.9239 -0.3827 -0.0000
vn -0.3827 -0.9239 -0.0000
vn 0.3827 -0.9239 -0.0000
vn 0.9239 -0.3827 -0.0000
vn -0.0000 -0.0000 -1.0000
vn -0.0000 -0.0000 1.0000
vn -1.0000 -0.0000 0.0001
vn -1.0000 -0.0000 -0.0001
vt -0.187500 1.000000
vt -0.250000 -1.400000
vt -0.250000 1.000000
vt -0.125000 1.000000
vt -0.187500 -1.400000
vt -0.062500 1.000000
vt -0.125000 -1.400000
vt 0.000000 1.000000
vt -0.062500 -1.400000
vt 0.062500 1.000000
vt 0.000000 -1.400000
vt 0.125000 1.000000
vt 0.062500 -1.400000
vt 0.187500 1.000000
vt 0.125000 -1.400000
vt 0.250000 1.000000
vt 0.187500 -1.400000
vt 0.312500 1.000000
vt 0.250000 -1.400000
vt 0.375000 1.000000
vt 0.312500 -1.400000
vt 0.437500 1.000000
vt 0.375000 -1.400000
vt 0.500000 1.000000
vt 0.437500 -1.400000
vt -0.437500 1.000000
vt 0.500000 -1.400000
vt -0.375000 1.000000
vt -0.437500 -1.400000
vt -0.312500 1.000000
vt -0.375000 -1.400000
vt -0.312500 -1.400000
vt 0.182500 1.000000
vt 0.120000 -1.400000
vt 0.120000 1.000000
vt 0.245000 1.000000
vt 0.182500 -1.400000
vt 0.307500 1.000000
vt 0.245000 -1.400000
vt 0.370000 1.000000
vt 0.307500 -1.400000
vt 0.432500 1.000000
vt 0.370000 -1.400000
vt 0.495000 1.000000
vt 0.432500 -1.400000
vt 0.557500 1.000000
vt 0.495000 -1.400000
vt 0.620000 1.000000
vt 0.557500 -1.400000
vt 0.682500 1.000000
vt 0.620000 -1.400000
vt 0.745000 1.000000
vt 0.682500 -1.400000
vt 0.807500 1.000000
vt 0.745000 -1.400000
vt 0.870000 1.000000
vt 0.807500 -1.400000
vt -0.067500 1.000000
vt 0.870000 -1.400000
vt -0.005000 1.000000
vt -0.067500 -1.400000
vt 0.057500 1.000000
vt -0.005000 -1.400000
vt 0.057500 -1.400000
vt 0.552500 1.000000
vt 0.490000 -1.400000
vt 0.490000 1.000000
vt 0.615000 1.000000
vt 0.552500 -1.400000
vt 0.677500 1.000000
vt 0.615000 -1.400000
vt 0.740000 1.000000
vt 0.677500 -1.400000
vt 0.802500 1.000000
vt 0.740000 -1.400000
vt 0.865000 1.000000
vt 0.802500 -1.400000
vt 0.927500 1.000000
vt 0.865000 -1.400000
vt 0.990000 1.000000
vt 0.927500 -1.400000
vt 1.052500 1.000000
vt 0.990000 -1.400000
vt 1.115000 1.000000
vt 1.052500 -1.400000
vt 1.177500 1.000000
vt 1.115000 -1.400000
vt 1.240000 1.000000
vt 1.177500 -1.400000
vt 0.302500 1.000000
vt 1.240000 -1.400000
vt 0.365000 1.000000
vt 0.302500 -1.400000
vt 0.427500 1.000000
vt 0.365000 -1.400000
vt 0.427500 -1.400000
vt 0.922500 1.000000
vt 0.860000 -1.400000
vt 0.860000 1.000000
vt 0.985000 1.000000
vt 0.922500 -1.400000
vt 1.047500 1.000000
vt 0.985000 -1.400000
vt 1.110000 1.000000
vt 1.047500 -1.400000
vt 1.172500 1.000000
vt 1.110000 -1.400000
vt 1.235000 1.000000
vt 1.172500 -1.400000
vt 1.297500 1.000000
vt 1.235000 -1.400000
vt 1.360000 1.000000
vt 1.297500 -1.400000
vt 1.422500 1.000000
vt 1.360000 -1.400000
vt 1.485000 1.000000
vt 1.422500 -1.400000
vt 1.547500 1.000000
vt 1.485000 -1.400000
vt 1.610000 1.000000
vt 1.547500 -1.400000
vt 0.672500 1.000000
vt 1.610000 -1.400000
vt 0.735000 1.000000
vt 0.672500 -1.400000
vt 0.797500 1.000000
vt 0.735000 -1.400000
vt 0.797500 -1.400000
vt 1.292500 1.000000
vt 1.230000 -1.400000
vt 1.230000 1.000000
vt 1.355000 1.000000
vt 1.292500 -1.400000
vt 1.417500 1.000000
vt 1.355000 -1.400000
vt 1.480000 1.000000
vt 1.417500 -1.400000
vt 1.542500 1.000000
vt 1.480000 -1.400000
vt 1.605000 1.000000
vt 1.542500 -1.400000
vt 1.667500 1.000000
vt 1.605000 -1.400000
vt 1.730000 1.000000
vt 1.667500 -1.400000
vt 1.792500 1.000000
vt 1.730000 -1.400000
vt 1.855000 1.000000
vt 1.792500 -1.400000
vt 1.917500 1.000000
vt 1.855000 -1.400000
vt 1.980000 1.000000
vt 1.917500 -1.400000
vt 1.042500 1.000000
vt 1.980000 -1.400000
vt 1.105000 1.000000
vt 1.042500 -1.400000
vt 1.167500 1.000000
vt 1.105000 -1.400000
vt 1.167500 -1.400000
vt 1.662500 1.000000
vt 1.600000 -1.400000
vt 1.600000 1.000000
vt 1.725000 1.000000
vt 1.662500 -1.400000
vt 1.787500 1.000000
vt 1.725000 -1.400000
vt 1.850000 1.000000
vt 1.787500 -1.400000
vt 1.912500 1.000000
vt 1.850000 -1.400000
vt 1.975000 1.000000
vt 1.912500 -1.400000
vt 2.037500 1.000000
vt 1.975000 -1.400000
vt 2.100000 1.000000
vt 2.037500 -1.400000
vt 2.162500 1.000000
vt 2.100000 -1.400000
vt 2.225000 1.000000
vt 2.162500 -1.400000
vt 2.287500 1.000000
vt 2.225000 -1.400000
vt 2.350000 1.000000
vt 2.287500 -1.400000
vt 1.412500 1.000000
vt 2.350000 -1.400000
vt 1.475000 1.000000
vt 1.412500 -1.400000
vt 1.537500 1.000000
vt 1.475000 -1.400000
vt 1.537500 -1.400000
vt 0.608392 1.000000
vt 0.112273 -9.500000
vt 0.607727 1.000000
vt 0.610000 1.000000
vt 0.111608 -9.500000
vt -0.388392 1.000000
vt 0.110000 -9.500000
vt -0.387727 1.000000
vt 0.108392 -9.500000
vt 0.107727 -9.500000
vt 0.538465 1.000000
vt 0.042170 -10.000000
vt 0.537830 1.000000
vt 0.540000 1.000000
vt 0.041535 -10.000000
vt 0.541535 1.000000
vt 0.040000 -10.000000
vt 0.542170 1.000000
vt 0.038465 -10.000000
vt 0.037830 -10.000000
vt 0.042170 -10.000000
vt 0.041535 -10.000000
vt 0.038465 -10.000000
vt 0.037830 -10.000000
f 2/1/1 17/2/1 1/3/1
f 3/4/2 18/5/2 2/1/2
f 4/6/3 19/7/3 3/4/3
f 5/8/4 20/9/4 4/6/4
f 6/10/5 21/11/5 5/8/5
f 7/12/6 22/13/6 6/10/6
f 8/14/7 23/15/7 7/12/7
f 9/16/8 24/17/8 8/14/8
f 10/18/9 25/19/9 9/16/9
f 11/20/10 26/21/10 10/18/10
f 12/22/11 27/23/11 11/20/11
f 13/24/12 28/25/12 12/22/12
f 14/26/13 29/27/13 13/24/13
f 15/28/14 30/29/14 14/26/14
f 16/30/15 31/31/15 15/28/15
f 1/3/16 32/32/16 16/30/16
f 9/16/17 5/8/17 1/3/17
f 24/17/18 28/25/18 32/32/18
f 34/33/1 49/34/1 33/35/1
f 35/36/2 50/37/2 34/33/2
f 36/38/3 51/39/3 35/36/3
f 37/40/4 52/41/4 36/38/4
f 38/42/5 53/43/5 37/40/5
f 39/44/6 54/45/6 38/42/6
f 40/46/7 55/47/7 39/44/7
f 41/48/8 56/49/8 40/46/8
f 42/50/9 57/51/9 41/48/9
f 43/52/10 58/53/10 42/50/10
f 44/54/11 59/55/11 43/52/11
f 45/56/12 60/57/12 44/54/12
f 46/58/13 61/59/13 45/56/13
f 47/60/14 62/61/14 46/58/14
f 48/62/15 63/63/15 47/60/15
f 33/35/16 64/64/16 48/62/16
f 41/48/17 37/40/17 33/35/17
f 56/49/18 60/57/18 64/64/18
f 66/65/1 81/66/1 65/67/1
f 67/68/2 82/69/2 66/65/2
f 68/70/3 83/71/3 67/68/3
f 69/72/4 84/73/4 68/70/4
f 70/74/5 85/75/5 69/72/5
f 71/76/6 86/77/6 70/74/6
f 72/78/7 87/79/7 71/76/7
f 73/80/8 88/81/8 72/78/8
f 74/82/9 89/83/9 73/80/9
f 75/84/10 90/85/10 74/82/10
f 76/86/11 91/87/11 75/84/11
f 77/88/12 92/89/12 76/86/12
f 78/90/13 93/91/13 77/88/13
f 79/92/14 94/93/14 78/90/14
f 80/94/15 95/95/15 79/92/15
f 65/67/16 96/96/16 80/94/16
f 73/80/17 69/72/17 65/67/17
f 88/81/18 92/89/18 96/96/18
f 98/97/1 113/98/1 97/99/1
f 99/100/2 114/101/2 98/97/2
f 100/102/3 115/103/3 99/100/3
f 101/104/4 116/105/4 100/102/4
f 102/106/5 117/107/5 101/104/5
f 103/108/6 118/109/6 102/106/6
f 104/110/7 119/111/7 103/108/7
f 105/112/8 120/113/8 104/110/8
f 106/114/9 121/115/9 105/112/9
f 107/116/10 122/117/10 106/114/10
f 108/118/11 123/119/11 107/116/11
f 109/120/12 124/121/12 108/118/12
f 110/122/13 125/123/13 109/120/13
f 111/124/14 126/125/14 110/122/14
f 112/126/15 127/127/15 111/124/15
f 97/99/16 128/128/16 112/126/16
f 105/112/17 101/104/17 97/99/17
f 120/113/18 124/121/18 128/128/18
f 130/129/1 145/130/1 129/131/1
f 131/132/2 146/133/2 130/129/2
f 132/134/3 147/135/3 131/132/3
f 133/136/4 148/137/4 132/134/4
f 134/138/5 149/139/5 133/136/5
f 135/140/6 150/141/6 134/138/6
f 136/142/7 151/143/7 135/140/7
f 137/144/8 152/145/8 136/142/8
f 138/146/9 153/147/9 137/144/9
f 139/148/10 154/149/10 138/146/10
f 140/150/11 155/151/11 139/148/11
f 141/152/12 156/153/12 140/150/12
f 142/154/13 157/155/13 141/152/13
f 143/156/14 158/157/14 142/154/14
f 144/158/15 159/159/15 143/156/15
f 129/131/16 160/160/16 144/158/16
f 137/144/17 133/136/17 129/131/17
f 152/145/18 156/153/18 160/160/18
f 162/161/1 177/162/1 161/163/1
f 163/164/2 178/165/2 162/161/2
f 164/166/3 179/167/3 163/164/3
f 165/168/4 180/169/4 164/166/4
f 166/170/5 181/171/5 165/168/5
f 167/172/6 182/173/6 166/170/6
f 168/174/7 183/175/7 167/172/7
f 169/176/8 184/177/8 168/174/8
f 170/178/9 185/179/9 169/176/9
f 171/180/10 186/181/10 170/178/10
f 172/182/11 187/183/11 171/180/11
f 173/184/12 188/185/12 172/182/12
f 174/186/13 189/187/13 173/184/13
f 175/188/14 190/189/14 174/186/14
f 176/190/15 191/191/15 175/188/15
f 161/163/16 192/192/16 176/190/16
f 169/176/17 165/168/17 161/163/17
f 184/177/18 188/185/18 192/192/18
f 194/193/19 201/194/19 193/195/19
f 195/196/20 202/197/20 194/193/20
f 196/198/21 203/199/21 195/196/21
f 197/200/22 204/201/22 196/198/22
f 198/198/23 205/202/23 197/200/23
f 199/196/24 206/201/24 198/198/24
f 200/193/25 207/199/25 199/196/25
f 193/195/26 208/197/26 200/193/26
f 197/200/27 195/196/27 193/195/27
f 204/201/28 206/201/28 208/197/28
f 210/193/19 217/194/19 209/195/19
f 211/196/20 218/197/20 210/193/20
f 212/198/21 219/199/21 211/196/21
f 213/200/22 220/201/22 212/198/22
f 214/198/23 221/202/23 213/200/23
f 215/196/24 222/201/24 214/198/24
f 216/193/25 223/199/25 215/196/25
f 209/195/26 224/197/26 216/193/26
f 213/200/27 211/196/27 209/195/27
f 220/201/28 222/201/28 224/197/28
f 226/193/19 233/194/19 225/195/19
f 227/196/20 234/197/20 226/193/20
f 228/198/21 235/199/21 227/196/21
f 229/200/22 236/201/22 228/198/22
f 230/198/23 237/202/23 229/200/23
f 231/196/24 238/201/24 230/198/24
f 232/193/25 239/199/25 231/196/25
f 225/195/26 240/197/26 232/193/26
f 229/200/27 227/196/27 225/195/27
f 236/201/28 238/201/28 240/197/28
f 242/193/19 249/194/19 241/195/19
f 243/196/20 250/197/20 242/193/20
f 244/198/21 251/199/21 243/196/21
f 245/200/22 252/201/22 244/198/22
f 246/198/23 253/202/23 245/200/23
f 247/196/24 254/201/24 246/198/24
f 248/193/25 255/199/25 247/196/25
f 241/195/26 256/197/26 248/193/26
f 245/200/27 243/196/27 241/195/27
f 252/201/28 254/201/28 256/197/28
f 258/203/29 265/204/29 257/205/29
f 259/206/30 266/207/30 258/203/30
f 260/208/31 267/209/31 259/206/31
f 261/210/32 268/211/32 260/208/32
f 262/208/33 269/212/33 261/210/33
f 263/206/34 270/211/34 262/208/34
f 264/203/35 271/209/35 263/206/35
f 257/205/36 272/207/36 264/203/36
f 261/210/37 259/206/37 257/205/37
f 268/211/38 270/211/38 272/207/38
f 274/203/29 281/213/29 273/205/29
f 275/206/30 282/214/30 274/203/30
f 276/208/31 283/209/31 275/206/31
f 277/210/32 284/215/32 276/208/32
f 278/208/33 285/216/33 277/210/33
f 279/206/34 286/215/34 278/208/34
f 280/203/35 287/209/35 279/206/35
f 273/205/36 288/214/36 280/203/36
f 277/210/37 275/206/37 273/205/37
f 284/215/38 286/215/38 288/214/38
f 290/203/29 297/204/29 289/205/29
f 291/206/30 298/207/30 290/203/30
f 292/208/31 299/209/31 291/206/31
f 293/210/32 300/211/32 292/208/32
f 294/208/33 301/212/33 293/210/33
f 295/206/34 302/211/34 294/208/34
f 296/203/35 303/209/35 295/206/35
f 289/205/36 304/207/36 296/203/36
f 293/210/37 291/206/37 289/205/37
f 300/211/38 302/211/38 304/207/38
f 2/1/1 18/5/1 17/2/1
f 3/4/2 19/7/2 18/5/2
f 4/6/3 20/9/3 19/7/3
f 5/8/4 21/11/4 20/9/4
f 6/10/5 22/13/5 21/11/5
f 7/12/6 23/15/6 22/13/6
f 8/14/7 24/17/7 23/15/7
f 9/16/8 25/19/8 24/17/8
f 10/18/9 26/21/9 25/19/9
f 11/20/10 27/23/10 26/21/10
f 12/22/11 28/25/11 27/23/11
f 13/24/12 29/27/12 28/25/12
f 14/26/13 30/29/13 29/27/13
f 15/28/14 31/31/14 30/29/14
f 16/30/15 32/32/15 31/31/15
f 1/3/16 17/2/16 32/32/16
f 1/3/17 16/30/17 15/28/17
f 15/28/17 14/26/17 13/24/17
f 13/24/17 12/22/17 11/20/17
f 11/20/17 10/18/17 9/16/17
f 9/16/17 8/14/17 7/12/17
f 7/12/17 6/10/17 5/8/17
f 5/8/17 4/6/17 3/4/17
f 3/4/17 2/1/17 1/3/17
f 1/3/17 15/28/17 13/24/17
f 13/24/17 11/20/17 9/16/17
f 9/16/17 7/12/17 5/8/17
f 5/8/17 3/4/17 1/3/17
f 1/3/17 13/24/17 9/16/17
f 32/32/18 17/2/18 18/5/18
f 18/5/18 19/7/18 20/9/18
f 20/9/18 21/11/18 22/13/18
f 22/13/18 23/15/18 24/17/18
f 24/17/18 25/19/18 26/21/18
f 26/21/18 27/23/18 28/25/18
f 28/25/18 29/27/18 30/29/18
f 30/29/18 31/31/18 32/32/18
f 32/32/18 18/5/18 20/9/18
f 20/9/18 22/13/18 24/17/18
f 24/17/18 26/21/18 28/25/18
f 28/25/18 30/29/18 32/32/18
f 32/32/18 20/9/18 24/17/18
f 34/33/1 50/37/1 49/34/1
f 35/36/2 51/39/2 50/37/2
f 36/38/3 52/41/3 51/39/3
f 37/40/4 53/43/4 52/41/4
f 38/42/5 54/45/5 53/43/5
f 39/44/6 55/47/6 54/45/6
f 40/46/7 56/49/7 55/47/7
f 41/48/8 57/51/8 56/49/8
f 42/50/9 58/53/9 57/51/9
f 43/52/10 59/55/10 58/53/10
f 44/54/11 60/57/11 59/55/11
f 45/56/12 61/59/12 60/57/12
f 46/58/13 62/61/13 61/59/13
f 47/60/14 63/63/14 62/61/14
f 48/62/15 64/64/15 63/63/15
f 33/35/16 49/34/16 64/64/16
f 33/35/17 48/62/17 47/60/17
f 47/60/17 46/58/17 45/56/17
f 45/56/17 44/54/17 43/52/17
f 43/52/17 42/50/17 41/48/17
f 41/48/17 40/46/17 39/44/17
f 39/44/17 38/42/17 37/40/17
f 37/40/17 36/38/17 35/36/17
f 35/36/17 34/33/17 33/35/17
f 33/35/17 47/60/17 45/56/17
f 45/56/17 43/52/17 41/48/17
f 41/48/17 39/44/17 37/40/17
f 37/40/17 35/36/17 33/35/17
f 33/35/17 45/56/17 41/48/17
f 64/64/18 49/34/18 50/37/18
f 50/37/18 51/39/18 52/41/18
f 52/41/18 53/43/18 54/45/18
f 54/45/18 55/47/18 56/49/18
f 56/49/18 57/51/18 58/53/18
f 58/53/18 59/55/18 60/57/18
f 60/57/18 61/59/18 62/61/18
f 62/61/18 63/63/18 64/64/18
f 64/64/18 50/37/18 52/41/18
f 52/41/18 54/45/18 56/49/18
f 56/49/18 58/53/18 60/57/18
f 60/57/18 62/61/18 64/64/18
f 64/64/18 52/41/18 56/49/18
f 66/65/1 82/69/1 81/66/1
f 67/68/2 83/71/2 82/69/2
f 68/70/3 84/73/3 83/71/3
f 69/72/4 85/75/4 84/73/4
f 70/74/5 86/77/5 85/75/5
f 71/76/6 87/79/6 86/77/6
f 72/78/7 88/81/7 87/79/7
f 73/80/8 89/83/8 88/81/8
f 74/82/9 90/85/9 89/83/9
f 75/84/10 91/87/10 90/85/10
f 76/86/11 92/89/11 91/87/11
f 77/88/12 93/91/12 92/89/12
f 78/90/13 94/93/13 93/91/13
f 79/92/14 95/95/14 94/93/14
f 80/94/15 96/96/15 95/95/15
f 65/67/16 81/66/16 96/96/16
f 65/67/17 80/94/17 79/92/17
f 79/92/17 78/90/17 77/88/17
f 77/88/17 76/86/17 75/84/17
f 75/84/17 74/82/17 73/80/17
f 73/80/17 72/78/17 71/76/17
f 71/76/17 70/74/17 69/72/17
f 69/72/17 68/70/17 67/68/17
f 67/68/17 66/65/17 65/67/17
f 65/67/17 79/92/17 77/88/17
f 77/88/17 75/84/17 73/80/17
f 73/80/17 71/76/17 69/72/17
f 69/72/17 67/68/17 65/67/17
f 65/67/17 77/88/17 73/80/17
f 96/96/18 81/66/18 82/69/18
f 82/69/18 83/71/18 84/73/18
f 84/73/18 85/75/18 86/77/18
f 86/77/18 87/79/18 88/81/18
f 88/81/18 89/83/18 90/85/18
f 90/85/18 91/87/18 92/89/18
f 92/89/18 93/91/18 94/93/18
f 94/93/18 95/95/18 96/96/18
f 96/96/18 82/69/18 84/73/18
f 84/73/18 86/77/18 88/81/18
f 88/81/18 90/85/18 92/89/18
f 92/89/18 94/93/18 96/96/18
f 96/96/18 84/73/18 88/81/18
f 98/97/1 114/101/1 113/98/1
f 99/100/2 115/103/2 114/101/2
f 100/102/3 116/105/3 115/103/3
f 101/104/4 117/107/4 116/105/4
f 102/106/5 118/109/5 117/107/5
f 103/108/6 119/111/6 118/109/6
f 104/110/7 120/113/7 119/111/7
f 105/112/8 121/115/8 120/113/8
f 106/114/9 122/117/9 121/115/9
f 107/116/10 123/119/10 122/117/10
f 108/118/11 124/121/11 123/119/11
f 109/120/12 125/123/12 124/121/12
f 110/122/13 126/125/13 125/123/13
f 111/124/14 127/127/14 126/125/14
f 112/126/15 128/128/15 127/127/15
f 97/99/16 113/98/16 128/128/16
f 97/99/17 112/126/17 111/124/17
f 111/124/17 110/122/17 109/120/17
f 109/120/17 108/118/17 107/116/17
f 107/116/17 106/114/17 105/112/17
f 105/112/17 104/110/17 103/108/17
f 103/108/17 102/106/17 101/104/17
f 101/104/17 100/102/17 99/100/17
f 99/100/17 98/97/17 97/99/17
f 97/99/17 111/124/17 109/120/17
f 109/120/17 107/116/17 105/112/17
f 105/112/17 103/108/17 101/104/17
f 101/104/17 99/100/17 97/99/17
f 97/99/17 109/120/17 105/112/17
f 128/128/18 113/98/18 114/101/18
f 114/101/18 115/103/18 116/105/18
f 116/105/18 117/107/18 118/109/18
f 118/109/18 119/111/18 120/113/18
f 120/113/18 121/115/18 122/117/18
f 122/117/18 123/119/18 124/121/18
f 124/121/18 125/123/18 126/125/18
f 126/125/18 127/127/18 128/128/18
f 128/128/18 114/101/18 116/105/18
f 116/105/18 118/109/18 120/113/18
f 120/113/18 122/117/18 124/121/18
f 124/121/18 126/125/18 128/128/18
f 128/128/18 116/105/18 120/113/18
f 130/129/1 146/133/1 145/130/1
f 131/132/2 147/135/2 146/133/2
f 132/134/3 148/137/3 147/135/3
f 133/136/4 149/139/4 148/137/4
f 134/138/5 150/141/5 149/139/5
f 135/140/6 151/143/6 150/141/6
f 136/142/7 152/145/7 151/143/7
f 137/144/8 153/147/8 152/145/8
f 138/146/9 154/149/9 153/147/9
f 139/148/10 155/151/10 154/149/10
f 140/150/11 156/153/11 155/151/11
f 141/152/12 157/155/12 156/153/12
f 142/154/13 158/157/13 157/155/13
f 143/156/14 159/159/14 158/157/14
f 144/158/15 160/160/15 159/159/15
f 129/131/16 145/130/16 160/160/16
f 129/131/17 144/158/17 143/156/17
f 143/156/17 142/154/17 141/152/17
f 141/152/17 140/150/17 139/148/17
f 139/148/17 138/146/17 137/144/17
f 137/144/17 136/142/17 135/140/17
f 135/140/17 134/138/17 133/136/17
f 133/136/17 132/134/17 131/132/17
f 131/132/17 130/129/17 129/131/17
f 129/131/17 143/156/17 141/152/17
f 141/152/17 139/148/17 137/144/17
f 137/144/17 135/140/17 133/136/17
f 133/136/17 131/132/17 129/131/17
f 129/131/17 141/152/17 137/144/17
f 160/160/18 145/130/18 146/133/18
f 146/133/18 147/135/18 148/137/18
f 148/137/18 149/139/18 150/141/18
f 150/141/18 151/143/18 152/145/18
f 152/145/18 153/147/18 154/149/18
f 154/149/18 155/151/18 156/153/18
f 156/153/18 157/155/18 158/157/18
f 158/157/18 159/159/18 160/160/18
f 160/160/18 146/133/18 148/137/18
f 148/137/18 150/141/18 152/145/18
f 152/145/18 154/149/18 156/153/18
f 156/153/18 158/157/18 160/160/18
f 160/160/18 148/137/18 152/145/18
f 162/161/1 178/165/1 177/162/1
f 163/164/2 179/167/2 178/165/2
f 164/166/3 180/169/3 179/167/3
f 165/168/4 181/171/4 180/169/4
f 166/170/5 182/173/5 181/171/5
f 167/172/6 183/175/6 182/173/6
f 168/174/7 184/177/7 183/175/7
f 169/176/8 185/179/8 184/177/8
f 170/178/9 186/181/9 185/179/9
f 171/180/10 187/183/10 186/181/10
f 172/182/11 188/185/11 187/183/11
f 173/184/12 189/187/12 188/185/12
f 174/186/13 190/189/13 189/187/13
f 175/188/14 191/191/14 190/189/14
f 176/190/15 192/192/15 191/191/15
f 161/163/16 177/162/16 192/192/16
f 161/163/17 176/190/17 175/188/17
f 175/188/17 174/186/17 173/184/17
f 173/184/17 172/182/17 171/180/17
f 171/180/17 170/178/17 169/176/17
f 169/176/17 168/174/17 167/172/17
f 167/172/17 166/170/17 165/168/17
f 165/168/17 164/166/17 163/164/17
f 163/164/17 162/161/17 161/163/17
f 161/163/17 175/188/17 173/184/17
f 173/184/17 171/180/17 169/176/17
f 169/176/17 167/172/17 165/168/17
f 165/168/17 163/164/17 161/163/17
f 161/163/17 173/184/17 169/176/17
f 192/192/18 177/162/18 178/165/18
f 178/165/18 179/167/18 180/169/18
f 180/169/18 181/171/18 182/173/18
f 182/173/18 183/175/18 184/177/18
f 184/177/18 185/179/18 186/181/18
f 186/181/18 187/183/18 188/185/18
f 188/185/18 189/187/18 190/189/18
f 190/189/18 191/191/18 192/192/18
f 192/192/18 178/165/18 180/169/18
f 180/169/18 182/173/18 184/177/18
f 184/177/18 186/181/18 188/185/18
f 188/185/18 190/189/18 192/192/18
f 192/192/18 180/169/18 184/177/18
f 194/193/19 202/197/19 201/194/19
f 195/196/20 203/199/20 202/197/20
f 196/198/21 204/201/21 203/199/21
f 197/200/22 205/202/22 204/201/22
f 198/198/23 206/201/23 205/202/23
f 199/196/24 207/199/24 206/201/24
f 200/193/25 208/197/25 207/199/25
f 193/195/26 201/194/26 208/197/26
f 193/195/27 200/193/27 199/196/27
f 199/196/39 198/198/39 197/200/39
f 197/200/27 196/198/27 195/196/27
f 195/196/40 194/193/40 193/195/40
f 193/195/27 199/196/27 197/200/27
f 208/197/28 201/194/28 202/197/28
f 202/197/28 203/199/28 204/201/28
f 204/201/28 205/202/28 206/201/28
f 206/201/28 207/199/28 208/197/28
f 208/197/28 202/197/28 204/201/28
f 210/193/19 218/197/19 217/194/19
f 211/196/20 219/199/20 218/197/20
f 212/198/21 220/201/21 219/199/21
f 213/200/22 221/202/22 220/201/22
f 214/198/23 222/201/23 221/202/23
f 215/196/24 223/199/24 222/201/24
f 216/193/25 224/197/25 223/199/25
f 209/195/26 217/194/26 224/197/26
f 209/195/27 216/193/27 215/196/27
f 215/196/27 214/198/27 213/200/27
f 213/200/27 212/198/27 211/196/27
f 211/196/27 210/193/27 209/195/27
f 209/195/27 215/196/27 213/200/27
f 224/197/28 217/194/28 218/197/28
f 218/197/28 219/199/28 220/201/28
f 220/201/28 221/202/28 222/201/28
f 222/201/28 223/199/28 224/197/28
f 224/197/28 218/197/28 220/201/28
f 226/193/19 234/197/19 233/194/19
f 227/196/20 235/199/20 234/197/20
f 228/198/21 236/201/21 235/199/21
f 229/200/22 237/202/22 236/201/22
f 230/198/23 238/201/23 237/202/23
f 231/196/24 239/199/24 238/201/24
f 232/193/25 240/197/25 239/199/25
f 225/195/26 233/194/26 240/197/26
f 225/195/27 232/193/27 231/196/27
f 231/196/39 230/198/39 229/200/39
f 229/200/27 228/198/27 227/196/27
f 227/196/40 226/193/40 225/195/40
f 225/195/27 231/196/27 229/200/27
f 240/197/28 233/194/28 234/197/28
f 234/197/28 235/199/28 236/201/28
f 236/201/28 237/202/28 238/201/28
f 238/201/28 239/199/28 240/197/28
f 240/197/28 234/197/28 236/201/28
f 242/193/19 250/197/19 249/194/19
f 243/196/20 251/199/20 250/197/20
f 244/198/21 252/201/21 251/199/21
f 245/200/22 253/202/22 252/201/22
f 246/198/23 254/201/23 253/202/23
f 247/196/24 255/199/24 254/201/24
f 248/193/25 256/197/25 255/199/25
f 241/195/26 249/194/26 256/197/26
f 241/195/27 248/193/27 247/196/27
f 247/196/27 246/198/27 245/200/27
f 245/200/27 244/198/27 243/196/27
f 243/196/27 242/193/27 241/195/27
f 241/195/27 247/196/27 245/200/27
f 256/197/28 249/194/28 250/197/28
f 250/197/28 251/199/28 252/201/28
f 252/201/28 253/202/28 254/201/28
f 254/201/28 255/199/28 256/197/28
f 256/197/28 250/197/28 252/201/28
f 258/203/29 266/207/29 265/204/29
f 259/206/30 267/209/30 266/207/30
f 260/208/31 268/211/31 267/209/31
f 261/210/32 269/212/32 268/211/32
f 262/208/33 270/211/33 269/212/33
f 263/206/34 271/209/34 270/211/34
f 264/203/35 272/207/35 271/209/35
f 257/205/36 265/204/36 272/207/36
f 257/205/37 264/203/37 263/206/37
f 263/206/37 262/208/37 261/210/37
f 261/210/37 260/208/37 259/206/37
f 259/206/37 258/203/37 257/205/37
f 257/205/37 263/206/37 261/210/37
f 272/207/38 265/204/38 266/207/38
f 266/207/38 267/209/38 268/211/38
f 268/211/38 269/212/38 270/211/38
f 270/211/38 271/209/38 272/207/38
f 272/207/38 266/207/38 268/211/38
f 274/203/29 282/214/29 281/213/29
f 275/206/30 283/209/30 282/214/30
f 276/208/31 284/215/31 283/209/31
f 277/210/32 285/216/32 284/215/32
f 278/208/33 286/215/33 285/216/33
f 279/206/34 287/209/34 286/215/34
f 280/203/35 288/214/35 287/209/35
f 273/205/36 281/213/36 288/214/36
f 273/205/37 280/203/37 279/206/37
f 279/206/37 278/208/37 277/210/37
f 277/210/37 276/208/37 275/206/37
f 275/206/37 274/203/37 273/205/37
f 273/205/37 279/206/37 277/210/37
f 288/214/38 281/213/38 282/214/38
f 282/214/38 283/209/38 284/215/38
f 284/215/38 285/216/38 286/215/38
f 286/215/38 287/209/38 288/214/38
f 288/214/38 282/214/38 284/215/38
f 290/203/29 298/207/29 297/204/29
f 291/206/30 299/209/30 298/207/30
f 292/208/31 300/211/31 299/209/31
f 293/210/32 301/212/32 300/211/32
f 294/208/33 302/211/33 301/212/33
f 295/206/34 303/209/34 302/211/34
f 296/203/35 304/207/35 303/209/35
f 289/205/36 297/204/36 304/207/36
f 289/205/37 296/203/37 295/206/37
f 295/206/37 294/208/37 293/210/37
f 293/210/37 292/208/37 291/206/37
f 291/206/37 290/203/37 289/205/37
f 289/205/37 295/206/37 293/210/37
f 304/207/38 297/204/38 298/207/38
f 298/207/38 299/209/38 300/211/38
f 300/211/38 301/212/38 302/211/38
f 302/211/38 303/209/38 304/207/38
f 304/207/38 298/207/38 300/211/38
