# rig: the tide seam, centred on its own origin. World y -0.650..0.450, 4 mm proud of the pile. Six nodes place it at world y -0.100 (SEAM_NODE_Y).
# Loom axes -- metres, Y up, forward -Z. V flipped on export.
# Generated by tools/mesh/rig; never edit this file.
# Blender 5.2.0 LTS
# www.blender.org
v 0.000000 -0.550000 0.354000
v 0.135470 -0.550000 0.327053
v 0.250316 -0.550000 0.250316
v 0.327053 -0.550000 0.135470
v 0.354000 -0.550000 0.000000
v 0.327053 -0.550000 -0.135470
v 0.250316 -0.550000 -0.250316
v 0.135470 -0.550000 -0.327053
v 0.000000 -0.550000 -0.354000
v -0.135470 -0.550000 -0.327053
v -0.250316 -0.550000 -0.250316
v -0.327053 -0.550000 -0.135470
v -0.354000 -0.550000 -0.000000
v -0.327053 -0.550000 0.135470
v -0.250316 -0.550000 0.250316
v -0.135470 -0.550000 0.327053
v 0.000000 0.550000 0.354000
v 0.135470 0.550000 0.327053
v 0.250316 0.550000 0.250316
v 0.327053 0.550000 0.135470
v 0.354000 0.550000 0.000000
v 0.327053 0.550000 -0.135470
v 0.250316 0.550000 -0.250316
v 0.135470 0.550000 -0.327053
v 0.000000 0.550000 -0.354000
v -0.135470 0.550000 -0.327053
v -0.250316 0.550000 -0.250316
v -0.327053 0.550000 -0.135470
v -0.354000 0.550000 -0.000000
v -0.327053 0.550000 0.135470
v -0.250316 0.550000 0.250316
v -0.135470 0.550000 0.327053
vn 0.1951 -0.0000 0.9808
vn 0.5556 -0.0000 0.8315
vn 0.8315 -0.0000 0.5556
vn 0.9808 -0.0000 0.1951
vn 0.9808 -0.0000 -0.1951
vn 0.8315 -0.0000 -0.5556
vn 0.5556 -0.0000 -0.8315
vn 0.1951 -0.0000 -0.9808
vn -0.1951 -0.0000 -0.9808
vn -0.5556 -0.0000 -0.8315
vn -0.8315 -0.0000 -0.5556
vn -0.9808 -0.0000 -0.1951
vn -0.9808 -0.0000 0.1951
vn -0.8315 -0.0000 0.5556
vn -0.5556 -0.0000 0.8315
vn -0.1951 -0.0000 0.9808
vn -0.0000 -1.0000 -0.0000
vn -0.0000 1.0000 -0.0000
vt -0.187500 1.000000
vt -0.250000 -0.100000
vt -0.250000 1.000000
vt -0.125000 1.000000
vt -0.187500 -0.100000
vt -0.062500 1.000000
vt -0.125000 -0.100000
vt -0.000000 1.000000
vt -0.062500 -0.100000
vt 0.062500 1.000000
vt -0.000000 -0.100000
vt 0.125000 1.000000
vt 0.062500 -0.100000
vt 0.187500 1.000000
vt 0.125000 -0.100000
vt 0.250000 1.000000
vt 0.187500 -0.100000
vt 0.312500 1.000000
vt 0.250000 -0.100000
vt 0.375000 1.000000
vt 0.312500 -0.100000
vt 0.437500 1.000000
vt 0.375000 -0.100000
vt 0.500000 1.000000
vt 0.437500 -0.100000
vt -0.437500 1.000000
vt 0.500000 -0.100000
vt -0.375000 1.000000
vt -0.437500 -0.100000
vt -0.312500 1.000000
vt -0.375000 -0.100000
vt -0.312500 -0.100000
f 2/1/1 17/2/1 1/3/1
f 3/4/2 18/5/2 2/1/2
f 4/6/3 19/7/3 3/4/3
f 5/8/4 20/9/4 4/6/4
f 6/10/5 21/11/5 5/8/5
f 7/12/6 22/13/6 6/10/6
f 8/14/7 23/15/7 7/12/7
f 9/16/8 24/17/8 8/14/8
f 10/18/9 25/19/9 9/16/9
f 11/20/10 26/21/10 10/18/10
f 12/22/11 27/23/11 11/20/11
f 13/24/12 28/25/12 12/22/12
f 14/26/13 29/27/13 13/24/13
f 15/28/14 30/29/14 14/26/14
f 16/30/15 31/31/15 15/28/15
f 1/3/16 32/32/16 16/30/16
f 9/16/17 5/8/17 1/3/17
f 24/17/18 28/25/18 32/32/18
f 2/1/1 18/5/1 17/2/1
f 3/4/2 19/7/2 18/5/2
f 4/6/3 20/9/3 19/7/3
f 5/8/4 21/11/4 20/9/4
f 6/10/5 22/13/5 21/11/5
f 7/12/6 23/15/6 22/13/6
f 8/14/7 24/17/7 23/15/7
f 9/16/8 25/19/8 24/17/8
f 10/18/9 26/21/9 25/19/9
f 11/20/10 27/23/10 26/21/10
f 12/22/11 28/25/11 27/23/11
f 13/24/12 29/27/12 28/25/12
f 14/26/13 30/29/13 29/27/13
f 15/28/14 31/31/14 30/29/14
f 16/30/15 32/32/15 31/31/15
f 1/3/16 17/2/16 32/32/16
f 1/3/17 16/30/17 15/28/17
f 15/28/17 14/26/17 13/24/17
f 13/24/17 12/22/17 11/20/17
f 11/20/17 10/18/17 9/16/17
f 9/16/17 8/14/17 7/12/17
f 7/12/17 6/10/17 5/8/17
f 5/8/17 4/6/17 3/4/17
f 3/4/17 2/1/17 1/3/17
f 1/3/17 15/28/17 13/24/17
f 13/24/17 11/20/17 9/16/17
f 9/16/17 7/12/17 5/8/17
f 5/8/17 3/4/17 1/3/17
f 1/3/17 13/24/17 9/16/17
f 32/32/18 17/2/18 18/5/18
f 18/5/18 19/7/18 20/9/18
f 20/9/18 21/11/18 22/13/18
f 22/13/18 23/15/18 24/17/18
f 24/17/18 25/19/18 26/21/18
f 26/21/18 27/23/18 28/25/18
f 28/25/18 29/27/18 30/29/18
f 30/29/18 31/31/18 32/32/18
f 32/32/18 18/5/18 20/9/18
f 20/9/18 22/13/18 24/17/18
f 24/17/18 26/21/18 28/25/18
f 28/25/18 30/29/18 32/32/18
f 32/32/18 20/9/18 24/17/18
