# Axes: Loom's -- metres, +Y up along the rod from this part's own
# origin, guides and reel toward +Z. No o/g tags: see mesh.rs:266.
# Blender 5.2.0 LTS
# www.blender.org
v -0.000000 0.000000 -0.003611
v -0.001805 0.000000 -0.003127
v -0.003127 0.000000 -0.001805
v -0.003611 0.000000 -0.000000
v -0.003127 0.000000 0.001805
v -0.001805 0.000000 0.003127
v -0.000000 0.000000 0.003611
v 0.001805 0.000000 0.003127
v 0.003127 0.000000 0.001805
v 0.003611 0.000000 0.000000
v 0.003127 0.000000 -0.001805
v 0.001805 0.000000 -0.003127
v -0.000000 0.096500 -0.003420
v -0.001710 0.096500 -0.002962
v -0.002962 0.096500 -0.001710
v -0.003420 0.096500 -0.000000
v -0.002962 0.096500 0.001710
v -0.001710 0.096500 0.002962
v -0.000000 0.096500 0.003420
v 0.001710 0.096500 0.002962
v 0.002962 0.096500 0.001710
v 0.003420 0.096500 0.000000
v 0.002962 0.096500 -0.001710
v 0.001710 0.096500 -0.002962
v -0.000000 0.000000 -0.000000
v -0.000000 0.096500 -0.000000
vn -0.258800 0.001900 -0.965900
vn -0.707100 0.001900 -0.707100
vn -0.965900 0.001900 -0.258800
vn -0.965900 0.001900 0.258800
vn -0.707100 0.001900 0.707100
vn -0.258800 0.001900 0.965900
vn 0.258800 0.001900 0.965900
vn 0.707100 0.001900 0.707100
vn 0.965900 0.001900 0.258800
vn 0.965900 0.001900 -0.258800
vn 0.707100 0.001900 -0.707100
vn 0.258800 0.001900 -0.965900
vn 0.000000 -1.000000 0.000000
vn 0.000000 -1.000000 -0.000100
vn 0.000000 -1.000000 0.000100
vn 0.000000 1.000000 0.000000
f 1//1 14//1 13//1
f 3//2 14//2 2//2
f 4//3 15//3 3//3
f 4//4 17//4 16//4
f 6//5 17//5 5//5
f 7//6 18//6 6//6
f 7//7 20//7 19//7
f 9//8 20//8 8//8
f 10//9 21//9 9//9
f 10//10 23//10 22//10
f 12//11 23//11 11//11
f 1//12 24//12 12//12
f 25//13 2//13 1//13
f 25//14 3//14 2//14
f 25//15 4//15 3//15
f 25//14 5//14 4//14
f 25//15 6//15 5//15
f 25//13 7//13 6//13
f 25//13 8//13 7//13
f 25//15 9//15 8//15
f 25//14 10//14 9//14
f 25//15 11//15 10//15
f 25//14 12//14 11//14
f 25//13 1//13 12//13
f 26//16 13//16 14//16
f 26//16 14//16 15//16
f 26//16 15//16 16//16
f 26//16 16//16 17//16
f 26//16 17//16 18//16
f 26//16 18//16 19//16
f 26//16 19//16 20//16
f 26//16 20//16 21//16
f 26//16 21//16 22//16
f 26//16 22//16 23//16
f 26//16 23//16 24//16
f 26//16 24//16 13//16
f 1//1 2//1 14//1
f 3//2 15//2 14//2
f 4//3 16//3 15//3
f 4//4 5//4 17//4
f 6//5 18//5 17//5
f 7//6 19//6 18//6
f 7//7 8//7 20//7
f 9//8 21//8 20//8
f 10//9 22//9 21//9
f 10//10 11//10 23//10
f 12//11 24//11 23//11
f 1//12 13//12 24//12
v -0.000077 0.024547 0.013977
v -0.000366 0.023923 0.012933
v -0.000290 0.022676 0.012909
v 0.000077 0.022052 0.013929
v 0.000366 0.022676 0.014972
v 0.000290 0.023923 0.014997
v -0.003812 0.024292 0.015189
v -0.004368 0.023650 0.014271
v -0.004229 0.022410 0.014203
v -0.003535 0.021811 0.015052
v -0.002979 0.022452 0.015970
v -0.003118 0.023693 0.016038
v -0.006127 0.023622 0.018376
v -0.007053 0.022918 0.017919
v -0.006870 0.021697 0.017720
v -0.005761 0.021181 0.017978
v -0.004835 0.021885 0.018436
v -0.005018 0.023106 0.018635
v -0.006093 0.022801 0.022261
v -0.007040 0.021999 0.022405
v -0.006891 0.020796 0.022100
v -0.005796 0.020395 0.021650
v -0.004848 0.021198 0.021506
v -0.004997 0.022401 0.021811
v -0.003748 0.022144 0.025371
v -0.004344 0.021258 0.026021
v -0.004269 0.020063 0.025662
v -0.003599 0.019754 0.024653
v -0.003003 0.020639 0.024003
v -0.003078 0.021835 0.024362
v -0.000000 0.021898 0.026539
v -0.000000 0.020988 0.027396
v 0.000000 0.019791 0.027037
v 0.000000 0.019503 0.025820
v 0.000000 0.020413 0.024963
v -0.000000 0.021610 0.025323
v 0.003723 0.022155 0.025337
v 0.004333 0.021299 0.026015
v 0.004284 0.020094 0.025689
v 0.003625 0.019743 0.024687
v 0.003014 0.020598 0.024010
v 0.003063 0.021804 0.024335
v 0.006008 0.022815 0.022235
v 0.007004 0.022080 0.022410
v 0.006940 0.020864 0.022130
v 0.005880 0.020382 0.021676
v 0.004884 0.021116 0.021501
v 0.004948 0.022333 0.021781
v 0.005996 0.023626 0.018420
v 0.006999 0.023037 0.017962
v 0.006947 0.021812 0.017719
v 0.005892 0.021176 0.017934
v 0.004890 0.021766 0.018392
v 0.004941 0.022991 0.018636
v 0.003716 0.024279 0.015350
v 0.004570 0.023754 0.014604
v 0.004528 0.022526 0.014374
v 0.003632 0.021823 0.014891
v 0.002778 0.022349 0.015637
v 0.002820 0.023577 0.015867
vn -0.207700 0.864000 -0.458700
vn -0.318000 0.016800 -0.947900
vn -0.110300 -0.852300 -0.511200
vn 0.204700 -0.856300 0.474200
vn 0.285800 -0.001200 0.958300
vn 0.092900 0.863900 0.495000
vn -0.525100 0.825300 -0.207900
vn -0.802900 -0.023200 -0.595700
vn -0.306700 -0.861400 -0.404900
vn 0.520300 -0.825700 0.218100
vn 0.796600 0.020800 0.604200
vn 0.302600 0.857900 0.415200
vn -0.622500 0.764600 0.167000
vn -0.992900 -0.117100 -0.021100
vn -0.403600 -0.895700 -0.186400
vn 0.624300 -0.765000 -0.157900
vn 0.992900 0.114900 0.029900
vn 0.406200 0.892700 0.195300
vn -0.486300 0.705500 0.515600
vn -0.803500 -0.216500 0.554600
vn -0.342900 -0.937500 0.059600
vn 0.491800 -0.705400 -0.510500
vn 0.807800 0.215000 -0.548800
vn 0.349000 0.935500 -0.054900
vn -0.178900 0.674700 0.716100
vn -0.305700 -0.273700 0.911900
vn -0.134800 -0.964300 0.228100
vn 0.185000 -0.673900 -0.715300
vn 0.311500 0.273200 -0.910100
vn 0.141200 0.963400 -0.227700
vn 0.180100 0.686500 0.704500
vn 0.310300 -0.259100 0.914600
vn 0.143800 -0.959700 0.241300
vn -0.175700 -0.685200 -0.706800
vn -0.305600 0.259300 -0.916100
vn -0.139400 0.959600 -0.244300
vn 0.458100 0.738700 0.494500
vn 0.809000 -0.171900 0.562200
vn 0.381500 -0.920400 0.085700
vn -0.456400 -0.737200 -0.498200
vn -0.806600 0.172500 -0.565300
vn -0.380000 0.920700 -0.089500
vn 0.556100 0.813300 0.171300
vn 0.999100 -0.040300 -0.009900
vn 0.479800 -0.857900 -0.183800
vn -0.556800 -0.812100 -0.174200
vn -0.999100 0.040900 0.006700
vn -0.480700 0.858200 0.180300
vn 0.433200 0.891500 -0.132200
vn 0.815700 0.079300 -0.573100
vn 0.390600 -0.801200 -0.453400
vn -0.450200 -0.880700 0.147200
vn -0.799400 -0.084100 0.594900
vn -0.371400 0.808800 0.455900
vn 0.206100 0.895300 -0.395000
vn 0.321600 0.038200 -0.946100
vn 0.180800 -0.721800 -0.668000
vn -0.172700 -0.887400 0.427500
vn -0.282800 -0.167200 0.944500
vn -0.145000 0.699400 0.699900
vn -0.215000 0.856900 -0.468500
vn -0.312000 -0.000600 -0.950100
vn -0.096000 -0.864100 -0.494100
vn 0.195600 -0.864700 0.462600
vn 0.293500 -0.019900 0.955800
vn 0.108000 0.851900 0.512400
vn -0.541200 0.807000 -0.236200
vn -0.793100 -0.055200 -0.606600
vn -0.272300 -0.877000 -0.395800
vn 0.549400 -0.803600 0.228900
vn 0.799500 0.056400 0.598000
vn 0.281400 0.877300 0.388800
vn -0.645400 0.747900 0.155000
vn -0.989200 -0.142500 -0.034200
vn -0.375600 -0.905600 -0.197200
vn 0.647200 -0.744500 -0.163800
vn 0.989300 0.144000 0.025300
vn 0.378200 0.906400 0.188100
vn -0.505700 0.689700 0.518200
vn -0.805100 -0.237200 0.543700
vn -0.328800 -0.943600 0.038600
vn 0.502400 -0.687100 -0.524800
vn 0.800800 0.238100 -0.549600
vn 0.326100 0.944200 -0.045900
vn -0.189000 0.660400 0.726700
vn -0.310000 -0.291000 0.905100
vn -0.134600 -0.969000 0.207300
vn 0.183500 -0.658700 -0.729700
vn 0.304300 0.291200 -0.907000
vn 0.129400 0.968900 -0.210800
vn 0.179800 0.674500 0.716000
vn 0.306100 -0.273700 0.911800
vn 0.134900 -0.964300 0.227700
vn -0.184900 -0.673900 -0.715300
vn -0.310800 0.273200 -0.910400
vn -0.140000 0.963700 -0.227500
vn 0.464500 0.729300 0.502400
vn 0.806400 -0.184200 0.561900
vn 0.370000 -0.925500 0.080600
vn -0.467700 -0.729300 -0.499400
vn -0.808700 0.183400 -0.558800
vn -0.373200 0.924500 -0.078200
vn 0.564800 0.806900 0.172900
vn 0.998700 -0.050400 -0.009300
vn 0.470400 -0.863500 -0.181900
vn -0.565600 -0.807100 -0.169500
vn -0.998700 0.049700 0.012500
vn -0.471200 0.862400 0.185000
vn 0.453200 0.880300 -0.140100
vn 0.815700 0.079400 -0.573000
vn 0.375200 -0.810000 -0.450800
vn -0.428100 -0.892900 0.139100
vn -0.799400 -0.084300 0.594900
vn -0.388500 0.799300 0.458500
vn 0.212000 0.811800 -0.544000
vn 0.291700 0.166400 -0.941900
vn 0.093500 -0.834000 -0.543800
vn -0.258600 -0.796000 0.547300
vn -0.329600 -0.038600 0.943300
vn -0.142400 0.820700 0.553300
f 28//17 33//17 27//17
f 28//18 35//18 34//18
f 29//19 36//19 35//19
f 30//20 37//20 36//20
f 32//21 37//21 31//21
f 27//22 38//22 32//22
f 33//23 40//23 39//23
f 34//24 41//24 40//24
f 35//25 42//25 41//25
f 36//26 43//26 42//26
f 37//27 44//27 43//27
f 38//28 39//28 44//28
f 39//29 46//29 45//29
f 40//30 47//30 46//30
f 41//31 48//31 47//31
f 42//32 49//32 48//32
f 43//33 50//33 49//33
f 44//34 45//34 50//34
f 45//35 52//35 51//35
f 46//36 53//36 52//36
f 47//37 54//37 53//37
f 48//38 55//38 54//38
f 49//39 56//39 55//39
f 50//40 51//40 56//40
f 51//41 58//41 57//41
f 52//42 59//42 58//42
f 53//43 60//43 59//43
f 54//44 61//44 60//44
f 55//45 62//45 61//45
f 56//46 57//46 62//46
f 57//47 64//47 63//47
f 58//48 65//48 64//48
f 59//49 66//49 65//49
f 60//50 67//50 66//50
f 61//51 68//51 67//51
f 62//52 63//52 68//52
f 63//53 70//53 69//53
f 64//54 71//54 70//54
f 65//55 72//55 71//55
f 66//56 73//56 72//56
f 67//57 74//57 73//57
f 68//58 69//58 74//58
f 69//59 76//59 75//59
f 70//60 77//60 76//60
f 71//61 78//61 77//61
f 72//62 79//62 78//62
f 73//63 80//63 79//63
f 74//64 75//64 80//64
f 75//65 82//65 81//65
f 77//66 82//66 76//66
f 78//67 83//67 77//67
f 79//68 84//68 78//68
f 79//69 86//69 85//69
f 80//70 81//70 86//70
f 82//71 27//71 81//71
f 82//72 29//72 28//72
f 84//73 29//73 83//73
f 85//74 30//74 84//74
f 86//75 31//75 85//75
f 81//76 32//76 86//76
f 28//77 34//77 33//77
f 28//78 29//78 35//78
f 29//79 30//79 36//79
f 30//80 31//80 37//80
f 32//81 38//81 37//81
f 27//82 33//82 38//82
f 33//83 34//83 40//83
f 34//84 35//84 41//84
f 35//85 36//85 42//85
f 36//86 37//86 43//86
f 37//87 38//87 44//87
f 38//88 33//88 39//88
f 39//89 40//89 46//89
f 40//90 41//90 47//90
f 41//91 42//91 48//91
f 42//92 43//92 49//92
f 43//93 44//93 50//93
f 44//94 39//94 45//94
f 45//95 46//95 52//95
f 46//96 47//96 53//96
f 47//97 48//97 54//97
f 48//98 49//98 55//98
f 49//99 50//99 56//99
f 50//100 45//100 51//100
f 51//101 52//101 58//101
f 52//102 53//102 59//102
f 53//103 54//103 60//103
f 54//104 55//104 61//104
f 55//105 56//105 62//105
f 56//106 51//106 57//106
f 57//107 58//107 64//107
f 58//108 59//108 65//108
f 59//109 60//109 66//109
f 60//110 61//110 67//110
f 61//111 62//111 68//111
f 62//112 57//112 63//112
f 63//113 64//113 70//113
f 64//114 65//114 71//114
f 65//115 66//115 72//115
f 66//116 67//116 73//116
f 67//117 68//117 74//117
f 68//118 63//118 69//118
f 69//119 70//119 76//119
f 70//120 71//120 77//120
f 71//121 72//121 78//121
f 72//122 73//122 79//122
f 73//123 74//123 80//123
f 74//124 69//124 75//124
f 75//125 76//125 82//125
f 77//126 83//126 82//126
f 78//127 84//127 83//127
f 79//128 85//128 84//128
f 79//129 80//129 86//129
f 80//130 75//130 81//130
f 82//131 28//131 27//131
f 82//132 83//132 29//132
f 84//133 30//133 29//133
f 85//134 31//134 30//134
f 86//135 32//135 31//135
f 81//136 27//136 32//136
v -0.003500 0.017312 0.002151
v 0.003500 0.017312 0.002151
v 0.003500 0.014688 0.003982
v -0.003500 0.014688 0.003982
v -0.001250 0.024484 0.013130
v 0.001250 0.024484 0.013130
v 0.001250 0.022516 0.014503
v -0.001250 0.022516 0.014503
vn 0.000000 -0.572200 -0.820100
vn 0.000000 0.572200 0.820100
vn 0.000000 0.837200 -0.546900
vn 0.985600 0.096800 0.138800
vn 0.000000 -0.802300 0.596900
vn -0.985600 0.096800 0.138800
f 88//137 90//137 87//137
f 93//138 91//138 94//138
f 87//139 92//139 88//139
f 88//140 93//140 89//140
f 93//141 90//141 89//141
f 94//142 87//142 90//142
f 88//137 89//137 90//137
f 93//138 92//138 91//138
f 87//139 91//139 92//139
f 88//140 92//140 93//140
f 93//141 94//141 90//141
f 94//142 91//142 87//142
v 0.002000 0.002018 0.004266
v -0.002000 0.002018 0.004266
v -0.002000 0.001982 0.003467
v 0.002000 0.001982 0.003467
v 0.003000 0.027048 0.003865
v -0.003000 0.027048 0.003865
v -0.003000 0.026952 0.001667
v 0.003000 0.026952 0.001667
vn 0.000000 -0.999000 0.044200
vn 0.000000 0.999000 -0.044000
vn 0.000000 0.016000 0.999900
vn -0.999200 -0.039900 0.001800
vn 0.000000 -0.071900 -0.997400
vn 0.999200 -0.039900 0.001800
vn 0.000000 -0.999000 0.043900
f 96//143 98//143 95//143
f 101//144 99//144 102//144
f 99//145 96//145 95//145
f 96//146 101//146 97//146
f 101//147 98//147 97//147
f 102//148 95//148 98//148
f 96//149 97//149 98//149
f 101//144 100//144 99//144
f 99//145 100//145 96//145
f 96//146 100//146 101//146
f 101//147 102//147 98//147
f 102//148 99//148 95//148
