# Axes: Loom's -- metres, +Y up along the rod from this part's own
# origin, guides and reel toward +Z. No o/g tags: see mesh.rs:266.
# Blender 5.2.0 LTS
# www.blender.org
v -0.002475 0.208000 0.008800
v 0.002475 0.208000 0.008800
v 0.002475 0.208000 0.012800
v -0.002475 0.208000 0.012800
v -0.002475 0.264000 0.008800
v 0.002475 0.264000 0.008800
v 0.002475 0.264000 0.012800
v -0.002475 0.264000 0.012800
vn 0.000000 -1.000000 0.000000
vn 0.000000 1.000000 0.000000
vn 0.000000 -0.000000 -1.000000
vn 1.000000 -0.000000 0.000000
vn 0.000000 -0.000000 1.000000
vn -1.000000 -0.000000 0.000000
f 2//1 4//1 1//1
f 7//2 5//2 8//2
f 5//3 2//3 1//3
f 6//4 3//4 2//4
f 7//5 4//5 3//5
f 8//6 1//6 4//6
f 2//1 3//1 4//1
f 7//2 6//2 5//2
f 5//3 6//3 2//3
f 6//4 7//4 3//4
f 7//5 8//5 4//5
f 8//6 5//6 1//6
v -0.004500 0.220000 0.008800
v 0.004500 0.220000 0.008800
v 0.004500 0.220000 0.012800
v -0.004500 0.220000 0.012800
v -0.004500 0.252000 0.008800
v 0.004500 0.252000 0.008800
v 0.004500 0.252000 0.012800
v -0.004500 0.252000 0.012800
vn 0.000000 -1.000000 0.000000
vn 0.000000 1.000000 0.000000
vn 0.000000 -0.000000 -1.000000
vn 1.000000 -0.000000 0.000000
vn 0.000000 -0.000000 1.000000
vn -1.000000 -0.000000 0.000000
f 10//7 12//7 9//7
f 15//8 13//8 16//8
f 13//9 10//9 9//9
f 14//10 11//10 10//10
f 15//11 12//11 11//11
f 16//12 9//12 12//12
f 10//7 11//7 12//7
f 15//8 14//8 13//8
f 13//9 14//9 10//9
f 14//10 15//10 11//10
f 15//11 16//11 12//11
f 16//12 13//12 9//12
v -0.004800 0.241465 0.013744
v 0.004800 0.241465 0.013744
v 0.004800 0.230535 0.009856
v -0.004800 0.230535 0.009856
v -0.007200 0.228747 0.059042
v 0.007200 0.228747 0.059042
v 0.007200 0.211788 0.053009
v -0.007200 0.211788 0.053009
vn 0.000000 0.335200 -0.942200
vn 0.000000 -0.335200 0.942200
vn 0.000000 0.962800 0.270300
vn 0.998700 0.017100 -0.048100
vn 0.000000 -0.917200 -0.398500
vn -0.998700 0.017100 -0.048100
f 18//13 20//13 17//13
f 23//14 21//14 24//14
f 21//15 18//15 17//15
f 18//16 23//16 19//16
f 19//17 24//17 20//17
f 24//18 17//18 20//18
f 18//13 19//13 20//13
f 23//14 22//14 21//14
f 21//15 22//15 18//15
f 18//16 22//16 23//16
f 19//17 23//17 24//17
f 24//18 21//18 17//18
v -0.000000 0.193000 0.054550
v -0.007889 0.193000 0.055345
v -0.010671 0.193000 0.057862
v -0.011550 0.193000 0.065000
v -0.010671 0.193000 0.072138
v -0.007889 0.193000 0.074655
v -0.000000 0.193000 0.075450
v 0.007889 0.193000 0.074655
v 0.010671 0.193000 0.072138
v 0.011550 0.193000 0.065000
v 0.010671 0.193000 0.057862
v 0.007889 0.193000 0.055345
v -0.000000 0.203333 0.048660
v -0.012335 0.203333 0.049903
v -0.016686 0.203333 0.053839
v -0.018060 0.203333 0.065000
v -0.016686 0.203333 0.076161
v -0.012335 0.203333 0.080097
v -0.000000 0.203333 0.081340
v 0.012335 0.203333 0.080097
v 0.016686 0.203333 0.076161
v 0.018060 0.203333 0.065000
v 0.016686 0.203333 0.053839
v 0.012335 0.203333 0.049903
v -0.000000 0.216250 0.046000
v -0.014343 0.216250 0.047445
v -0.019403 0.216250 0.052023
v -0.021000 0.216250 0.065000
v -0.019403 0.216250 0.077977
v -0.014343 0.216250 0.082555
v -0.000000 0.216250 0.084000
v 0.014343 0.216250 0.082555
v 0.019403 0.216250 0.077977
v 0.021000 0.216250 0.065000
v 0.019403 0.216250 0.052023
v 0.014343 0.216250 0.047445
v -0.000000 0.239500 0.046380
v -0.014057 0.239500 0.047796
v -0.019015 0.239500 0.052282
v -0.020580 0.239500 0.065000
v -0.019015 0.239500 0.077718
v -0.014057 0.239500 0.082204
v -0.000000 0.239500 0.083620
v 0.014057 0.239500 0.082204
v 0.019015 0.239500 0.077718
v 0.020580 0.239500 0.065000
v 0.019015 0.239500 0.052282
v 0.014057 0.239500 0.047796
v -0.000000 0.255000 0.050940
v -0.010614 0.255000 0.052009
v -0.014358 0.255000 0.055397
v -0.015540 0.255000 0.065000
v -0.014358 0.255000 0.074603
v -0.010614 0.255000 0.077991
v -0.000000 0.255000 0.079060
v 0.010614 0.255000 0.077991
v 0.014358 0.255000 0.074603
v 0.015540 0.255000 0.065000
v 0.014358 0.255000 0.055397
v 0.010614 0.255000 0.052009
vn -0.087200 -0.493300 -0.865500
vn -0.555000 -0.561900 -0.613400
vn -0.841500 -0.530200 -0.103600
vn -0.841500 -0.530200 0.103600
vn -0.555000 -0.561900 0.613400
vn -0.087200 -0.493300 0.865500
vn 0.087200 -0.493300 0.865500
vn 0.555000 -0.561900 0.613400
vn 0.841500 -0.530200 0.103600
vn 0.841500 -0.530200 -0.103600
vn 0.555000 -0.561900 -0.613400
vn 0.087200 -0.493300 -0.865500
vn -0.098200 -0.200700 -0.974700
vn -0.651600 -0.238300 -0.720200
vn -0.968100 -0.220400 -0.119200
vn -0.968100 -0.220400 0.119200
vn -0.651600 -0.238300 0.720200
vn -0.098200 -0.200700 0.974700
vn 0.098200 -0.200700 0.974700
vn 0.651600 -0.238300 0.720200
vn 0.968100 -0.220400 0.119200
vn 0.968100 -0.220400 -0.119200
vn 0.651600 -0.238300 -0.720200
vn 0.098200 -0.200700 -0.974700
vn -0.100200 0.016300 -0.994800
vn -0.670800 0.019500 -0.741400
vn -0.992400 0.017900 -0.122100
vn -0.992400 0.017900 0.122100
vn -0.670800 0.019500 0.741400
vn -0.100200 0.016300 0.994800
vn 0.100200 0.016300 0.994800
vn 0.670800 0.019500 0.741400
vn 0.992400 0.017900 0.122100
vn 0.992400 0.017900 -0.122100
vn 0.670800 0.019500 -0.741400
vn 0.100200 0.016300 -0.994800
vn -0.096200 0.280900 -0.954900
vn -0.633100 0.330800 -0.699800
vn -0.944500 0.307100 -0.116300
vn -0.944500 0.307100 0.116300
vn -0.633100 0.330800 0.699800
vn -0.096200 0.280900 0.954900
vn 0.096200 0.280900 0.954900
vn 0.633100 0.330800 0.699800
vn 0.944500 0.307100 0.116300
vn 0.944500 0.307100 -0.116300
vn 0.633100 0.330800 -0.699800
vn 0.096200 0.280900 -0.954900
vn 0.000000 -1.000000 0.000000
vn 0.000000 1.000000 0.000000
f 26//19 37//19 25//19
f 27//20 38//20 26//20
f 27//21 40//21 39//21
f 29//22 40//22 28//22
f 29//23 42//23 41//23
f 30//24 43//24 42//24
f 32//25 43//25 31//25
f 33//26 44//26 32//26
f 33//27 46//27 45//27
f 35//28 46//28 34//28
f 35//29 48//29 47//29
f 36//30 37//30 48//30
f 38//31 49//31 37//31
f 39//32 50//32 38//32
f 39//33 52//33 51//33
f 41//34 52//34 40//34
f 41//35 54//35 53//35
f 42//36 55//36 54//36
f 44//37 55//37 43//37
f 45//38 56//38 44//38
f 45//39 58//39 57//39
f 47//40 58//40 46//40
f 47//41 60//41 59//41
f 48//42 49//42 60//42
f 49//43 62//43 61//43
f 50//44 63//44 62//44
f 52//45 63//45 51//45
f 52//46 65//46 64//46
f 54//47 65//47 53//47
f 55//48 66//48 54//48
f 55//49 68//49 67//49
f 56//50 69//50 68//50
f 58//51 69//51 57//51
f 58//52 71//52 70//52
f 60//53 71//53 59//53
f 49//54 72//54 60//54
f 61//55 74//55 73//55
f 62//56 75//56 74//56
f 64//57 75//57 63//57
f 64//58 77//58 76//58
f 66//59 77//59 65//59
f 67//60 78//60 66//60
f 67//61 80//61 79//61
f 68//62 81//62 80//62
f 70//63 81//63 69//63
f 70//64 83//64 82//64
f 72//65 83//65 71//65
f 61//66 84//66 72//66
f 25//67 27//67 26//67
f 25//67 28//67 27//67
f 25//67 29//67 28//67
f 25//67 30//67 29//67
f 25//67 31//67 30//67
f 25//67 32//67 31//67
f 25//67 33//67 32//67
f 25//67 34//67 33//67
f 25//67 35//67 34//67
f 25//67 36//67 35//67
f 73//68 74//68 75//68
f 73//68 75//68 76//68
f 73//68 76//68 77//68
f 73//68 77//68 78//68
f 73//68 78//68 79//68
f 73//68 79//68 80//68
f 73//68 80//68 81//68
f 73//68 81//68 82//68
f 73//68 82//68 83//68
f 73//68 83//68 84//68
f 26//19 38//19 37//19
f 27//20 39//20 38//20
f 27//21 28//21 40//21
f 29//22 41//22 40//22
f 29//23 30//23 42//23
f 30//24 31//24 43//24
f 32//25 44//25 43//25
f 33//26 45//26 44//26
f 33//27 34//27 46//27
f 35//28 47//28 46//28
f 35//29 36//29 48//29
f 36//30 25//30 37//30
f 38//31 50//31 49//31
f 39//32 51//32 50//32
f 39//33 40//33 52//33
f 41//34 53//34 52//34
f 41//35 42//35 54//35
f 42//36 43//36 55//36
f 44//37 56//37 55//37
f 45//38 57//38 56//38
f 45//39 46//39 58//39
f 47//40 59//40 58//40
f 47//41 48//41 60//41
f 48//42 37//42 49//42
f 49//43 50//43 62//43
f 50//44 51//44 63//44
f 52//45 64//45 63//45
f 52//46 53//46 65//46
f 54//47 66//47 65//47
f 55//48 67//48 66//48
f 55//49 56//49 68//49
f 56//50 57//50 69//50
f 58//51 70//51 69//51
f 58//52 59//52 71//52
f 60//53 72//53 71//53
f 49//54 61//54 72//54
f 61//55 62//55 74//55
f 62//56 63//56 75//56
f 64//57 76//57 75//57
f 64//58 65//58 77//58
f 66//59 78//59 77//59
f 67//60 79//60 78//60
f 67//61 68//61 80//61
f 68//62 69//62 81//62
f 70//63 82//63 81//63
f 70//64 71//64 83//64
f 72//65 84//65 83//65
f 61//66 73//66 84//66
v -0.011550 0.220304 0.065000
v -0.011550 0.219520 0.061057
v -0.011550 0.217286 0.057714
v -0.011550 0.213943 0.055480
v -0.011550 0.210000 0.054696
v -0.011550 0.206057 0.055480
v -0.011550 0.202714 0.057714
v -0.011550 0.200480 0.061057
v -0.011550 0.199696 0.065000
v -0.011550 0.200480 0.068943
v -0.011550 0.202714 0.072286
v -0.011550 0.206057 0.074520
v -0.011550 0.210000 0.075304
v -0.011550 0.213943 0.074520
v -0.011550 0.217286 0.072286
v -0.011550 0.219520 0.068943
v -0.022000 0.221200 0.065000
v -0.022000 0.220347 0.060714
v -0.022000 0.217920 0.057080
v -0.022000 0.214286 0.054653
v -0.022000 0.210000 0.053800
v -0.022000 0.205714 0.054653
v -0.022000 0.202080 0.057080
v -0.022000 0.199653 0.060714
v -0.022000 0.198800 0.065000
v -0.022000 0.199653 0.069286
v -0.022000 0.202080 0.072920
v -0.022000 0.205714 0.075347
v -0.022000 0.210000 0.076200
v -0.022000 0.214286 0.075347
v -0.022000 0.217920 0.072920
v -0.022000 0.220347 0.069286
v -0.024300 0.220528 0.065000
v -0.024300 0.219727 0.060971
v -0.024300 0.217444 0.057556
v -0.024300 0.214029 0.055273
v -0.024300 0.210000 0.054472
v -0.024300 0.205971 0.055273
v -0.024300 0.202556 0.057556
v -0.024300 0.200273 0.060971
v -0.024300 0.199472 0.065000
v -0.024300 0.200273 0.069029
v -0.024300 0.202556 0.072444
v -0.024300 0.205971 0.074727
v -0.024300 0.210000 0.075528
v -0.024300 0.214029 0.074727
v -0.024300 0.217444 0.072444
v -0.024300 0.219727 0.069029
v -0.025500 0.216160 0.065000
v -0.025500 0.215691 0.062643
v -0.025500 0.214356 0.060644
v -0.025500 0.212357 0.059309
v -0.025500 0.210000 0.058840
v -0.025500 0.207643 0.059309
v -0.025500 0.205644 0.060644
v -0.025500 0.204309 0.062643
v -0.025500 0.203840 0.065000
v -0.025500 0.204309 0.067357
v -0.025500 0.205644 0.069356
v -0.025500 0.207643 0.070691
v -0.025500 0.210000 0.071160
v -0.025500 0.212357 0.070691
v -0.025500 0.214356 0.069356
v -0.025500 0.215691 0.067357
v -0.011550 0.210000 0.065000
v -0.025500 0.210000 0.065000
vn 0.083800 0.977300 -0.194400
vn 0.083800 0.828500 -0.553600
vn 0.083800 0.553600 -0.828500
vn 0.083800 0.194400 -0.977300
vn 0.083800 -0.194400 -0.977300
vn 0.083800 -0.553600 -0.828500
vn 0.083800 -0.828500 -0.553600
vn 0.083800 -0.977300 -0.194400
vn 0.083800 -0.977300 0.194400
vn 0.083800 -0.828500 0.553600
vn 0.083800 -0.553600 0.828500
vn 0.083800 -0.194400 0.977300
vn 0.083800 0.194400 0.977300
vn 0.083800 0.553600 0.828500
vn 0.083800 0.828500 0.553600
vn 0.083800 0.977300 0.194400
vn -0.275500 0.942800 -0.187500
vn -0.275500 0.799300 -0.534100
vn -0.275500 0.534100 -0.799300
vn -0.275500 0.187500 -0.942800
vn -0.275500 -0.187500 -0.942800
vn -0.275500 -0.534100 -0.799300
vn -0.275500 -0.799300 -0.534100
vn -0.275500 -0.942800 -0.187500
vn -0.275500 -0.942800 0.187500
vn -0.275500 -0.799300 0.534100
vn -0.275500 -0.534100 0.799300
vn -0.275500 -0.187500 0.942800
vn -0.275500 0.187500 0.942800
vn -0.275500 0.534100 0.799300
vn -0.275500 0.799300 0.534100
vn -0.275500 0.942800 0.187500
vn -0.962900 0.264500 -0.052600
vn -0.962900 0.224300 -0.149900
vn -0.962900 0.149900 -0.224300
vn -0.962900 0.052600 -0.264500
vn -0.962900 -0.052600 -0.264500
vn -0.962900 -0.149900 -0.224300
vn -0.962900 -0.224300 -0.149800
vn -0.962900 -0.264500 -0.052600
vn -0.962900 -0.264500 0.052600
vn -0.962900 -0.224300 0.149800
vn -0.962900 -0.149900 0.224300
vn -0.962900 -0.052600 0.264500
vn -0.962900 0.052600 0.264500
vn -0.962900 0.149900 0.224300
vn -0.962900 0.224300 0.149800
vn -0.962900 0.264500 0.052600
vn 1.000000 -0.000000 0.000000
vn -1.000000 -0.000000 0.000000
vn -0.962900 0.224300 -0.149800
vn -0.962900 -0.224300 -0.149900
vn -0.962900 -0.224300 0.149900
vn -0.962900 0.224300 0.149900
f 86//69 101//69 85//69
f 86//70 103//70 102//70
f 88//71 103//71 87//71
f 89//72 104//72 88//72
f 89//73 106//73 105//73
f 90//74 107//74 106//74
f 92//75 107//75 91//75
f 92//76 109//76 108//76
f 94//77 109//77 93//77
f 94//78 111//78 110//78
f 96//79 111//79 95//79
f 97//80 112//80 96//80
f 98//81 113//81 97//81
f 99//82 114//82 98//82
f 100//83 115//83 99//83
f 85//84 116//84 100//84
f 102//85 117//85 101//85
f 102//86 119//86 118//86
f 104//87 119//87 103//87
f 105//88 120//88 104//88
f 106//89 121//89 105//89
f 106//90 123//90 122//90
f 108//91 123//91 107//91
f 109//92 124//92 108//92
f 110//93 125//93 109//93
f 110//94 127//94 126//94
f 111//95 128//95 127//95
f 113//96 128//96 112//96
f 113//97 130//97 129//97
f 115//98 130//98 114//98
f 116//99 131//99 115//99
f 116//100 117//100 132//100
f 118//101 133//101 117//101
f 118//102 135//102 134//102
f 119//103 136//103 135//103
f 120//104 137//104 136//104
f 122//105 137//105 121//105
f 122//106 139//106 138//106
f 123//107 140//107 139//107
f 124//108 141//108 140//108
f 126//109 141//109 125//109
f 126//110 143//110 142//110
f 128//111 143//111 127//111
f 128//112 145//112 144//112
f 130//113 145//113 129//113
f 130//114 147//114 146//114
f 132//115 147//115 131//115
f 132//116 133//116 148//116
f 149//117 86//117 85//117
f 149//117 87//117 86//117
f 149//117 88//117 87//117
f 149//117 89//117 88//117
f 149//117 90//117 89//117
f 149//117 91//117 90//117
f 149//117 92//117 91//117
f 149//117 93//117 92//117
f 149//117 94//117 93//117
f 149//117 95//117 94//117
f 149//117 96//117 95//117
f 149//117 97//117 96//117
f 149//117 98//117 97//117
f 149//117 99//117 98//117
f 149//117 100//117 99//117
f 149//117 85//117 100//117
f 150//118 133//118 134//118
f 150//118 134//118 135//118
f 150//118 135//118 136//118
f 150//118 136//118 137//118
f 150//118 137//118 138//118
f 150//118 138//118 139//118
f 150//118 139//118 140//118
f 150//118 140//118 141//118
f 150//118 141//118 142//118
f 150//118 142//118 143//118
f 150//118 143//118 144//118
f 150//118 144//118 145//118
f 150//118 145//118 146//118
f 150//118 146//118 147//118
f 150//118 147//118 148//118
f 150//118 148//118 133//118
f 86//69 102//69 101//69
f 86//70 87//70 103//70
f 88//71 104//71 103//71
f 89//72 105//72 104//72
f 89//73 90//73 106//73
f 90//74 91//74 107//74
f 92//75 108//75 107//75
f 92//76 93//76 109//76
f 94//77 110//77 109//77
f 94//78 95//78 111//78
f 96//79 112//79 111//79
f 97//80 113//80 112//80
f 98//81 114//81 113//81
f 99//82 115//82 114//82
f 100//83 116//83 115//83
f 85//84 101//84 116//84
f 102//85 118//85 117//85
f 102//86 103//86 119//86
f 104//87 120//87 119//87
f 105//88 121//88 120//88
f 106//89 122//89 121//89
f 106//90 107//90 123//90
f 108//91 124//91 123//91
f 109//92 125//92 124//92
f 110//93 126//93 125//93
f 110//94 111//94 127//94
f 111//95 112//95 128//95
f 113//96 129//96 128//96
f 113//97 114//97 130//97
f 115//98 131//98 130//98
f 116//99 132//99 131//99
f 116//100 101//100 117//100
f 118//101 134//101 133//101
f 118//119 119//119 135//119
f 119//103 120//103 136//103
f 120//104 121//104 137//104
f 122//105 138//105 137//105
f 122//106 123//106 139//106
f 123//120 124//120 140//120
f 124//108 125//108 141//108
f 126//109 142//109 141//109
f 126//121 127//121 143//121
f 128//111 144//111 143//111
f 128//112 129//112 145//112
f 130//113 146//113 145//113
f 130//114 131//114 147//114
f 132//122 148//122 147//122
f 132//116 117//116 133//116
v 0.011550 0.218243 0.065000
v 0.011550 0.217616 0.068155
v 0.011550 0.215829 0.070829
v 0.011550 0.213155 0.072616
v 0.011550 0.210000 0.073243
v 0.011550 0.206845 0.072616
v 0.011550 0.204171 0.070829
v 0.011550 0.202384 0.068155
v 0.011550 0.201757 0.065000
v 0.011550 0.202384 0.061845
v 0.011550 0.204171 0.059171
v 0.011550 0.206845 0.057384
v 0.011550 0.210000 0.056757
v 0.011550 0.213155 0.057384
v 0.011550 0.215829 0.059171
v 0.011550 0.217616 0.061845
v 0.019525 0.218960 0.065000
v 0.019525 0.218278 0.068429
v 0.019525 0.216336 0.071336
v 0.019525 0.213429 0.073278
v 0.019525 0.210000 0.073960
v 0.019525 0.206571 0.073278
v 0.019525 0.203664 0.071336
v 0.019525 0.201722 0.068429
v 0.019525 0.201040 0.065000
v 0.019525 0.201722 0.061571
v 0.019525 0.203664 0.058664
v 0.019525 0.206571 0.056722
v 0.019525 0.210000 0.056040
v 0.019525 0.213429 0.056722
v 0.019525 0.216336 0.058664
v 0.019525 0.218278 0.061571
v 0.021825 0.218422 0.065000
v 0.021825 0.217781 0.068223
v 0.021825 0.215956 0.070956
v 0.021825 0.213223 0.072781
v 0.021825 0.210000 0.073422
v 0.021825 0.206777 0.072781
v 0.021825 0.204044 0.070956
v 0.021825 0.202219 0.068223
v 0.021825 0.201578 0.065000
v 0.021825 0.202219 0.061777
v 0.021825 0.204044 0.059044
v 0.021825 0.206777 0.057219
v 0.021825 0.210000 0.056578
v 0.021825 0.213223 0.057219
v 0.021825 0.215956 0.059044
v 0.021825 0.217781 0.061777
v 0.023025 0.214928 0.065000
v 0.023025 0.214553 0.066886
v 0.023025 0.213485 0.068485
v 0.023025 0.211886 0.069553
v 0.023025 0.210000 0.069928
v 0.023025 0.208114 0.069553
v 0.023025 0.206515 0.068485
v 0.023025 0.205447 0.066886
v 0.023025 0.205072 0.065000
v 0.023025 0.205447 0.063114
v 0.023025 0.206515 0.061515
v 0.023025 0.208114 0.060447
v 0.023025 0.210000 0.060072
v 0.023025 0.211886 0.060447
v 0.023025 0.213485 0.061515
v 0.023025 0.214553 0.063114
v 0.011550 0.210000 0.065000
v 0.023025 0.210000 0.065000
vn -0.087800 0.977000 0.194300
vn -0.087800 0.828300 0.553400
vn -0.087800 0.553400 0.828300
vn -0.087800 0.194300 0.977000
vn -0.087800 -0.194300 0.977000
vn -0.087800 -0.553400 0.828300
vn -0.087800 -0.828300 0.553400
vn -0.087800 -0.977000 0.194300
vn -0.087800 -0.977000 -0.194300
vn -0.087800 -0.828300 -0.553400
vn -0.087800 -0.553400 -0.828300
vn -0.087800 -0.194300 -0.977000
vn -0.087800 0.194300 -0.977000
vn -0.087800 0.553400 -0.828300
vn -0.087800 0.828300 -0.553400
vn -0.087800 0.977000 -0.194300
vn 0.223400 0.956000 0.190200
vn 0.223500 0.810400 0.541500
vn 0.223400 0.541500 0.810500
vn 0.223500 0.190200 0.956000
vn 0.223400 -0.190200 0.956000
vn 0.223500 -0.541500 0.810400
vn 0.223500 -0.810400 0.541500
vn 0.223500 -0.956000 0.190200
vn 0.223400 -0.956000 -0.190200
vn 0.223500 -0.810400 -0.541500
vn 0.223500 -0.541500 -0.810500
vn 0.223400 -0.190200 -0.956000
vn 0.223500 0.190200 -0.956000
vn 0.223500 0.541500 -0.810400
vn 0.223500 0.810400 -0.541500
vn 0.223500 0.956000 -0.190200
vn 0.943800 0.324100 0.064500
vn 0.943800 0.274800 0.183600
vn 0.943800 0.183600 0.274800
vn 0.943800 0.064500 0.324100
vn 0.943800 -0.064500 0.324100
vn 0.943800 -0.183600 0.274800
vn 0.943800 -0.274800 0.183600
vn 0.943800 -0.324100 0.064500
vn 0.943800 -0.324100 -0.064500
vn 0.943800 -0.274800 -0.183600
vn 0.943800 -0.183600 -0.274800
vn 0.943800 -0.064500 -0.324100
vn 0.943800 0.064500 -0.324100
vn 0.943800 0.183600 -0.274800
vn 0.943800 0.274800 -0.183600
vn 0.943800 0.324100 -0.064500
vn -1.000000 -0.000000 0.000000
vn 1.000000 -0.000000 0.000000
vn 0.223500 0.956000 0.190200
vn 0.223500 0.541500 0.810400
vn 0.223400 0.190200 0.956000
vn 0.223500 -0.190200 0.956000
vn 0.223400 -0.541500 0.810500
vn 0.223400 -0.956000 0.190200
vn 0.223500 -0.956000 -0.190200
vn 0.223500 -0.541500 -0.810400
vn 0.223500 -0.190200 -0.956000
vn 0.223400 0.190200 -0.956000
vn 0.223400 0.541500 -0.810500
vn 0.223400 0.956000 -0.190200
f 152//123 167//123 151//123
f 152//124 169//124 168//124
f 154//125 169//125 153//125
f 154//126 171//126 170//126
f 156//127 171//127 155//127
f 156//128 173//128 172//128
f 157//129 174//129 173//129
f 158//130 175//130 174//130
f 159//131 176//131 175//131
f 161//132 176//132 160//132
f 161//133 178//133 177//133
f 163//134 178//134 162//134
f 164//135 179//135 163//135
f 165//136 180//136 164//136
f 166//137 181//137 165//137
f 151//138 182//138 166//138
f 167//139 184//139 183//139
f 169//140 184//140 168//140
f 170//141 185//141 169//141
f 170//142 187//142 186//142
f 172//143 187//143 171//143
f 172//144 189//144 188//144
f 173//145 190//145 189//145
f 175//146 190//146 174//146
f 176//147 191//147 175//147
f 177//148 192//148 176//148
f 177//149 194//149 193//149
f 179//150 194//150 178//150
f 179//151 196//151 195//151
f 180//152 197//152 196//152
f 181//153 198//153 197//153
f 182//154 183//154 198//154
f 183//155 200//155 199//155
f 185//156 200//156 184//156
f 185//157 202//157 201//157
f 187//158 202//158 186//158
f 187//159 204//159 203//159
f 189//160 204//160 188//160
f 190//161 205//161 189//161
f 191//162 206//162 190//162
f 191//163 208//163 207//163
f 193//164 208//164 192//164
f 193//165 210//165 209//165
f 194//166 211//166 210//166
f 196//167 211//167 195//167
f 196//168 213//168 212//168
f 197//169 214//169 213//169
f 183//170 214//170 198//170
f 215//171 152//171 151//171
f 215//171 153//171 152//171
f 215//171 154//171 153//171
f 215//171 155//171 154//171
f 215//171 156//171 155//171
f 215//171 157//171 156//171
f 215//171 158//171 157//171
f 215//171 159//171 158//171
f 215//171 160//171 159//171
f 215//171 161//171 160//171
f 215//171 162//171 161//171
f 215//171 163//171 162//171
f 215//171 164//171 163//171
f 215//171 165//171 164//171
f 215//171 166//171 165//171
f 215//171 151//171 166//171
f 216//172 199//172 200//172
f 216//172 200//172 201//172
f 216//172 201//172 202//172
f 216//172 202//172 203//172
f 216//172 203//172 204//172
f 216//172 204//172 205//172
f 216//172 205//172 206//172
f 216//172 206//172 207//172
f 216//172 207//172 208//172
f 216//172 208//172 209//172
f 216//172 209//172 210//172
f 216//172 210//172 211//172
f 216//172 211//172 212//172
f 216//172 212//172 213//172
f 216//172 213//172 214//172
f 216//172 214//172 199//172
f 152//123 168//123 167//123
f 152//124 153//124 169//124
f 154//125 170//125 169//125
f 154//126 155//126 171//126
f 156//127 172//127 171//127
f 156//128 157//128 173//128
f 157//129 158//129 174//129
f 158//130 159//130 175//130
f 159//131 160//131 176//131
f 161//132 177//132 176//132
f 161//133 162//133 178//133
f 163//134 179//134 178//134
f 164//135 180//135 179//135
f 165//136 181//136 180//136
f 166//137 182//137 181//137
f 151//138 167//138 182//138
f 167//173 168//173 184//173
f 169//140 185//140 184//140
f 170//174 186//174 185//174
f 170//175 171//175 187//175
f 172//176 188//176 187//176
f 172//177 173//177 189//177
f 173//145 174//145 190//145
f 175//178 191//178 190//178
f 176//179 192//179 191//179
f 177//148 193//148 192//148
f 177//180 178//180 194//180
f 179//181 195//181 194//181
f 179//182 180//182 196//182
f 180//183 181//183 197//183
f 181//153 182//153 198//153
f 182//184 167//184 183//184
f 183//155 184//155 200//155
f 185//156 201//156 200//156
f 185//157 186//157 202//157
f 187//158 203//158 202//158
f 187//159 188//159 204//159
f 189//160 205//160 204//160
f 190//161 206//161 205//161
f 191//162 207//162 206//162
f 191//163 192//163 208//163
f 193//164 209//164 208//164
f 193//165 194//165 210//165
f 194//166 195//166 211//166
f 196//167 212//167 211//167
f 196//168 197//168 213//168
f 197//169 198//169 214//169
f 183//170 199//170 214//170
