# Axes: Loom's -- metres, +Y up along the rod from this part's own
# origin, guides and reel toward +Z. No o/g tags: see mesh.rs:266.
# Blender 5.2.0 LTS
# www.blender.org
v -0.000000 0.000000 -0.004760
v -0.002380 0.000000 -0.004122
v -0.004122 0.000000 -0.002380
v -0.004760 0.000000 -0.000000
v -0.004122 0.000000 0.002380
v -0.002380 0.000000 0.004122
v -0.000000 0.000000 0.004760
v 0.002380 0.000000 0.004122
v 0.004122 0.000000 0.002380
v 0.004760 0.000000 0.000000
v 0.004122 0.000000 -0.002380
v 0.002380 0.000000 -0.004122
v -0.000000 0.061750 -0.004615
v -0.002308 0.061750 -0.003997
v -0.003997 0.061750 -0.002308
v -0.004615 0.061750 -0.000000
v -0.003997 0.061750 0.002308
v -0.002308 0.061750 0.003997
v -0.000000 0.061750 0.004615
v 0.002308 0.061750 0.003997
v 0.003997 0.061750 0.002308
v 0.004615 0.061750 0.000000
v 0.003997 0.061750 -0.002308
v 0.002308 0.061750 -0.003997
v -0.000000 0.123500 -0.004473
v -0.002236 0.123500 -0.003874
v -0.003874 0.123500 -0.002236
v -0.004473 0.123500 -0.000000
v -0.003874 0.123500 0.002236
v -0.002236 0.123500 0.003874
v -0.000000 0.123500 0.004473
v 0.002236 0.123500 0.003874
v 0.003874 0.123500 0.002236
v 0.004473 0.123500 0.000000
v 0.003874 0.123500 -0.002236
v 0.002236 0.123500 -0.003874
v -0.000000 0.185250 -0.004333
v -0.002166 0.185250 -0.003752
v -0.003752 0.185250 -0.002166
v -0.004333 0.185250 -0.000000
v -0.003752 0.185250 0.002166
v -0.002166 0.185250 0.003752
v -0.000000 0.185250 0.004333
v 0.002166 0.185250 0.003752
v 0.003752 0.185250 0.002166
v 0.004333 0.185250 0.000000
v 0.003752 0.185250 -0.002166
v 0.002166 0.185250 -0.003752
v -0.000000 0.247000 -0.004195
v -0.002097 0.247000 -0.003633
v -0.003633 0.247000 -0.002097
v -0.004195 0.247000 -0.000000
v -0.003633 0.247000 0.002097
v -0.002097 0.247000 0.003633
v -0.000000 0.247000 0.004195
v 0.002097 0.247000 0.003633
v 0.003633 0.247000 0.002097
v 0.004195 0.247000 0.000000
v 0.003633 0.247000 -0.002097
v 0.002097 0.247000 -0.003633
v -0.000000 0.000000 -0.000000
v -0.000000 0.247000 -0.000000
vn -0.258800 0.002300 -0.965900
vn -0.707100 0.002300 -0.707100
vn -0.965900 0.002300 -0.258800
vn -0.965900 0.002300 0.258800
vn -0.707100 0.002300 0.707100
vn -0.258800 0.002300 0.965900
vn 0.258800 0.002300 0.965900
vn 0.707100 0.002300 0.707100
vn 0.965900 0.002300 0.258800
vn 0.965900 0.002300 -0.258800
vn 0.707100 0.002300 -0.707100
vn 0.258800 0.002300 -0.965900
vn -0.258800 0.002200 -0.965900
vn -0.707100 0.002200 -0.707100
vn -0.965900 0.002200 -0.258800
vn -0.965900 0.002200 0.258800
vn -0.707100 0.002200 0.707100
vn -0.258800 0.002200 0.965900
vn 0.258800 0.002200 0.965900
vn 0.707100 0.002200 0.707100
vn 0.965900 0.002200 0.258800
vn 0.965900 0.002200 -0.258800
vn 0.707100 0.002200 -0.707100
vn 0.258800 0.002200 -0.965900
vn 0.000000 -1.000000 0.000000
vn 0.000000 1.000000 0.000000
f 2//1 13//1 1//1
f 3//2 14//2 2//2
f 4//3 15//3 3//3
f 5//4 16//4 4//4
f 6//5 17//5 5//5
f 7//6 18//6 6//6
f 8//7 19//7 7//7
f 9//8 20//8 8//8
f 10//9 21//9 9//9
f 11//10 22//10 10//10
f 12//11 23//11 11//11
f 1//12 24//12 12//12
f 14//13 25//13 13//13
f 15//14 26//14 14//14
f 16//15 27//15 15//15
f 17//16 28//16 16//16
f 18//17 29//17 17//17
f 19//18 30//18 18//18
f 20//19 31//19 19//19
f 21//20 32//20 20//20
f 22//21 33//21 21//21
f 23//22 34//22 22//22
f 24//23 35//23 23//23
f 13//24 36//24 24//24
f 26//13 37//13 25//13
f 27//14 38//14 26//14
f 28//15 39//15 27//15
f 29//16 40//16 28//16
f 30//17 41//17 29//17
f 31//18 42//18 30//18
f 32//19 43//19 31//19
f 33//20 44//20 32//20
f 34//21 45//21 33//21
f 35//22 46//22 34//22
f 36//23 47//23 35//23
f 25//24 48//24 36//24
f 38//13 49//13 37//13
f 39//14 50//14 38//14
f 40//15 51//15 39//15
f 41//16 52//16 40//16
f 42//17 53//17 41//17
f 43//18 54//18 42//18
f 44//19 55//19 43//19
f 45//20 56//20 44//20
f 46//21 57//21 45//21
f 47//22 58//22 46//22
f 48//23 59//23 47//23
f 37//24 60//24 48//24
f 61//25 2//25 1//25
f 61//25 3//25 2//25
f 61//25 4//25 3//25
f 61//25 5//25 4//25
f 61//25 6//25 5//25
f 61//25 7//25 6//25
f 61//25 8//25 7//25
f 61//25 9//25 8//25
f 61//25 10//25 9//25
f 61//25 11//25 10//25
f 61//25 12//25 11//25
f 61//25 1//25 12//25
f 62//26 49//26 50//26
f 62//26 50//26 51//26
f 62//26 51//26 52//26
f 62//26 52//26 53//26
f 62//26 53//26 54//26
f 62//26 54//26 55//26
f 62//26 55//26 56//26
f 62//26 56//26 57//26
f 62//26 57//26 58//26
f 62//26 58//26 59//26
f 62//26 59//26 60//26
f 62//26 60//26 49//26
f 2//1 14//1 13//1
f 3//2 15//2 14//2
f 4//3 16//3 15//3
f 5//4 17//4 16//4
f 6//5 18//5 17//5
f 7//6 19//6 18//6
f 8//7 20//7 19//7
f 9//8 21//8 20//8
f 10//9 22//9 21//9
f 11//10 23//10 22//10
f 12//11 24//11 23//11
f 1//12 13//12 24//12
f 14//13 26//13 25//13
f 15//14 27//14 26//14
f 16//15 28//15 27//15
f 17//16 29//16 28//16
f 18//17 30//17 29//17
f 19//18 31//18 30//18
f 20//19 32//19 31//19
f 21//20 33//20 32//20
f 22//21 34//21 33//21
f 23//22 35//22 34//22
f 24//23 36//23 35//23
f 13//24 25//24 36//24
f 26//13 38//13 37//13
f 27//14 39//14 38//14
f 28//15 40//15 39//15
f 29//16 41//16 40//16
f 30//17 42//17 41//17
f 31//18 43//18 42//18
f 32//19 44//19 43//19
f 33//20 45//20 44//20
f 34//21 46//21 45//21
f 35//22 47//22 46//22
f 36//23 48//23 47//23
f 25//24 37//24 48//24
f 38//13 50//13 49//13
f 39//14 51//14 50//14
f 40//15 52//15 51//15
f 41//16 53//16 52//16
f 42//17 54//17 53//17
f 43//18 55//18 54//18
f 44//19 56//19 55//19
f 45//20 57//20 56//20
f 46//21 58//21 57//21
f 47//22 59//22 58//22
f 48//23 60//23 59//23
f 37//24 49//24 60//24
v -0.000107 0.108229 0.029670
v -0.000513 0.107356 0.028209
v -0.000405 0.105609 0.028175
v 0.000107 0.104736 0.029602
v 0.000513 0.105609 0.031063
v 0.000405 0.107356 0.031097
v -0.010040 0.107554 0.032861
v -0.010817 0.106656 0.031576
v -0.010623 0.104920 0.031480
v -0.009651 0.104081 0.032669
v -0.008874 0.104979 0.033954
v -0.009068 0.106715 0.034050
v -0.016186 0.105785 0.041235
v -0.017482 0.104799 0.040595
v -0.017227 0.103090 0.040317
v -0.015674 0.102367 0.040679
v -0.014378 0.103353 0.041319
v -0.014634 0.105062 0.041597
v -0.016138 0.103608 0.051510
v -0.017464 0.102484 0.051711
v -0.017256 0.100800 0.051284
v -0.015722 0.100240 0.050656
v -0.014396 0.101363 0.050454
v -0.014604 0.103048 0.050881
v -0.009950 0.101856 0.059777
v -0.010784 0.100615 0.060687
v -0.010680 0.098942 0.060185
v -0.009741 0.098509 0.058773
v -0.008907 0.099750 0.057862
v -0.009011 0.101423 0.058365
v -0.000000 0.101194 0.062907
v -0.000000 0.099920 0.064107
v -0.000000 0.098244 0.063604
v -0.000000 0.097841 0.061901
v -0.000000 0.099115 0.060701
v -0.000000 0.100791 0.061204
v 0.009914 0.101871 0.059730
v 0.010768 0.100674 0.060678
v 0.010700 0.098985 0.060223
v 0.009777 0.098494 0.058820
v 0.008922 0.099691 0.057872
v 0.008991 0.101380 0.058327
v 0.016020 0.103627 0.051475
v 0.017414 0.102598 0.051719
v 0.017325 0.100895 0.051327
v 0.015841 0.100221 0.050691
v 0.014446 0.101249 0.050446
v 0.014536 0.102952 0.050838
v 0.016003 0.105791 0.041297
v 0.017406 0.104966 0.040656
v 0.017334 0.103251 0.040315
v 0.015858 0.102361 0.040616
v 0.014454 0.103186 0.041258
v 0.014526 0.104901 0.041599
v 0.009904 0.107537 0.033087
v 0.011100 0.106801 0.032042
v 0.011041 0.105081 0.031720
v 0.009787 0.104098 0.032443
v 0.008591 0.104834 0.033488
v 0.008650 0.106553 0.033810
vn -0.206200 0.864100 -0.459100
vn -0.311600 0.017600 -0.950000
vn -0.108200 -0.851900 -0.512400
vn 0.206300 -0.856400 0.473300
vn 0.294400 -0.000600 0.955700
vn 0.095600 0.864000 0.494300
vn -0.524000 0.825400 -0.210200
vn -0.797400 -0.056000 -0.600800
vn -0.305900 -0.860800 -0.406800
vn 0.521500 -0.825600 0.215500
vn 0.798500 0.021600 0.601600
vn 0.303800 0.858900 0.412200
vn -0.622900 0.764700 0.164900
vn -0.989200 -0.143500 -0.028300
vn -0.404100 -0.895200 -0.188000
vn 0.623900 -0.764900 -0.160100
vn 0.992900 0.115600 0.027200
vn 0.405400 0.893600 0.192600
vn -0.487600 0.705400 0.514500
vn -0.802300 -0.237800 0.547600
vn -0.344000 -0.937100 0.058600
vn 0.490500 -0.705300 -0.511800
vn 0.806400 0.215500 -0.550700
vn 0.347200 0.936100 -0.056300
vn -0.180300 0.674500 0.715900
vn -0.306200 -0.291100 0.906300
vn -0.136000 -0.964200 0.227800
vn 0.183500 -0.674000 -0.715500
vn 0.309700 0.273400 -0.910700
vn 0.139300 0.963700 -0.227700
vn 0.179000 0.686200 0.705000
vn 0.309200 -0.273400 0.910900
vn 0.143000 -0.959700 0.242000
vn -0.176800 -0.685500 -0.706200
vn -0.307100 0.259300 -0.915700
vn -0.140700 0.959700 -0.243400
vn 0.457600 0.738300 0.495500
vn 0.808000 -0.183700 0.559900
vn 0.381300 -0.920400 0.086400
vn -0.456800 -0.737600 -0.497300
vn -0.807300 0.172300 -0.564400
vn -0.380500 0.920500 -0.088400
vn 0.556300 0.813000 0.171900
vn 0.998700 -0.049900 -0.011400
vn 0.480000 -0.858000 -0.183200
vn -0.556700 -0.812400 -0.173500
vn -0.999100 0.040700 0.007700
vn -0.480400 0.858100 0.181400
vn 0.433200 0.891500 -0.132200
vn 0.812300 0.080300 -0.577700
vn 0.389600 -0.800400 -0.455700
vn -0.450200 -0.880700 0.147200
vn -0.803900 -0.082800 0.589000
vn -0.373300 0.809400 0.453300
vn 0.241900 0.801900 -0.546300
vn 0.314900 0.037800 -0.948400
vn 0.132900 -0.823500 -0.551500
vn -0.181600 -0.889700 0.418900
vn -0.298100 -0.165800 0.940000
vn -0.157800 0.707600 0.688800
vn -0.211800 0.856700 -0.470300
vn -0.307800 -0.000300 -0.951500
vn -0.097200 -0.864200 -0.493700
vn 0.200100 -0.864500 0.461100
vn 0.298700 -0.019300 0.954100
vn 0.107000 0.851600 0.513100
vn -0.542700 0.806400 -0.235000
vn -0.798700 -0.021700 -0.601300
vn -0.274600 -0.877100 -0.394100
vn 0.546900 -0.804600 0.231200
vn 0.797600 0.056100 0.600500
vn 0.279300 0.877200 0.390400
vn -0.645700 0.747300 0.156700
vn -0.992900 -0.115700 -0.026900
vn -0.376300 -0.905800 -0.195000
vn 0.646600 -0.745600 -0.161100
vn 0.989300 0.143500 0.028000
vn 0.377600 0.906200 0.190200
vn -0.505100 0.689200 0.519500
vn -0.806300 -0.215500 0.550800
vn -0.328100 -0.943800 0.040700
vn 0.503400 -0.687900 -0.522800
vn 0.802100 0.237900 -0.547800
vn 0.326700 0.944100 -0.044400
vn -0.188100 0.660100 0.727300
vn -0.309500 -0.273400 0.910800
vn -0.133400 -0.968900 0.208300
vn 0.185200 -0.659300 -0.728700
vn 0.306000 0.291100 -0.906400
vn 0.130600 0.968900 -0.210100
vn 0.180700 0.674400 0.715900
vn 0.307300 -0.259300 0.915600
vn 0.136200 -0.964100 0.227800
vn -0.183400 -0.674100 -0.715600
vn -0.309300 0.273400 -0.910800
vn -0.138800 0.963800 -0.227600
vn 0.465100 0.729400 0.501700
vn 0.807400 -0.172300 0.564300
vn 0.370800 -0.925300 0.080000
vn -0.466700 -0.729400 -0.500200
vn -0.808000 0.183600 -0.559800
vn -0.372400 0.924700 -0.078800
vn 0.565000 0.806900 0.172300
vn 0.999100 -0.040700 -0.007900
vn 0.470700 -0.863200 -0.182600
vn -0.565300 -0.807000 -0.170600
vn -0.998700 0.049900 0.011500
vn -0.471100 0.862600 0.184200
vn 0.451900 0.880500 -0.143300
vn 0.812300 0.080400 -0.577600
vn 0.375100 -0.810000 -0.450800
vn -0.430700 -0.892300 0.135700
vn -0.803900 -0.082900 0.589000
vn -0.388500 0.799300 0.458400
vn 0.181000 0.889500 -0.419500
vn 0.298800 0.165800 -0.939800
vn 0.156100 -0.706500 -0.690300
vn -0.240900 -0.802200 0.546300
vn -0.315600 -0.037800 0.948100
vn -0.131100 0.824000 0.551100
f 64//27 69//27 63//27
f 64//28 71//28 70//28
f 65//29 72//29 71//29
f 66//30 73//30 72//30
f 68//31 73//31 67//31
f 63//32 74//32 68//32
f 69//33 76//33 75//33
f 71//34 76//34 70//34
f 71//35 78//35 77//35
f 72//36 79//36 78//36
f 73//37 80//37 79//37
f 74//38 75//38 80//38
f 75//39 82//39 81//39
f 77//40 82//40 76//40
f 77//41 84//41 83//41
f 78//42 85//42 84//42
f 79//43 86//43 85//43
f 80//44 81//44 86//44
f 81//45 88//45 87//45
f 83//46 88//46 82//46
f 83//47 90//47 89//47
f 84//48 91//48 90//48
f 85//49 92//49 91//49
f 86//50 87//50 92//50
f 87//51 94//51 93//51
f 89//52 94//52 88//52
f 89//53 96//53 95//53
f 90//54 97//54 96//54
f 91//55 98//55 97//55
f 92//56 93//56 98//56
f 93//57 100//57 99//57
f 95//58 100//58 94//58
f 95//59 102//59 101//59
f 96//60 103//60 102//60
f 97//61 104//61 103//61
f 98//62 99//62 104//62
f 99//63 106//63 105//63
f 101//64 106//64 100//64
f 101//65 108//65 107//65
f 102//66 109//66 108//66
f 103//67 110//67 109//67
f 104//68 105//68 110//68
f 105//69 112//69 111//69
f 107//70 112//70 106//70
f 107//71 114//71 113//71
f 108//72 115//72 114//72
f 109//73 116//73 115//73
f 110//74 111//74 116//74
f 111//75 118//75 117//75
f 113//76 118//76 112//76
f 114//77 119//77 113//77
f 115//78 120//78 114//78
f 115//79 122//79 121//79
f 116//80 117//80 122//80
f 117//81 64//81 63//81
f 118//82 65//82 64//82
f 119//83 66//83 65//83
f 121//84 66//84 120//84
f 122//85 67//85 121//85
f 117//86 68//86 122//86
f 64//87 70//87 69//87
f 64//88 65//88 71//88
f 65//89 66//89 72//89
f 66//90 67//90 73//90
f 68//91 74//91 73//91
f 63//92 69//92 74//92
f 69//93 70//93 76//93
f 71//94 77//94 76//94
f 71//95 72//95 78//95
f 72//96 73//96 79//96
f 73//97 74//97 80//97
f 74//98 69//98 75//98
f 75//99 76//99 82//99
f 77//100 83//100 82//100
f 77//101 78//101 84//101
f 78//102 79//102 85//102
f 79//103 80//103 86//103
f 80//104 75//104 81//104
f 81//105 82//105 88//105
f 83//106 89//106 88//106
f 83//107 84//107 90//107
f 84//108 85//108 91//108
f 85//109 86//109 92//109
f 86//110 81//110 87//110
f 87//111 88//111 94//111
f 89//112 95//112 94//112
f 89//113 90//113 96//113
f 90//114 91//114 97//114
f 91//115 92//115 98//115
f 92//116 87//116 93//116
f 93//117 94//117 100//117
f 95//118 101//118 100//118
f 95//119 96//119 102//119
f 96//120 97//120 103//120
f 97//121 98//121 104//121
f 98//122 93//122 99//122
f 99//123 100//123 106//123
f 101//124 107//124 106//124
f 101//125 102//125 108//125
f 102//126 103//126 109//126
f 103//127 104//127 110//127
f 104//128 99//128 105//128
f 105//129 106//129 112//129
f 107//130 113//130 112//130
f 107//131 108//131 114//131
f 108//132 109//132 115//132
f 109//133 110//133 116//133
f 110//134 105//134 111//134
f 111//135 112//135 118//135
f 113//136 119//136 118//136
f 114//137 120//137 119//137
f 115//138 121//138 120//138
f 115//139 116//139 122//139
f 116//140 111//140 117//140
f 117//141 118//141 64//141
f 118//142 119//142 65//142
f 119//143 120//143 66//143
f 121//144 67//144 66//144
f 122//145 68//145 67//145
f 117//146 63//146 68//146
v -0.003500 0.098534 0.003564
v 0.003500 0.098534 0.003564
v 0.003500 0.095466 0.004475
v -0.003500 0.095466 0.004475
v -0.001750 0.105650 0.028928
v 0.001750 0.105650 0.028928
v 0.001750 0.103350 0.029612
v -0.001750 0.103350 0.029612
vn 0.000000 -0.284700 -0.958600
vn 0.000000 0.284800 0.958600
vn 0.000000 0.962800 -0.270100
vn 0.997800 0.018900 0.063500
vn 0.000000 -0.954200 0.299300
vn -0.997800 0.018900 0.063500
vn 0.000000 0.284700 0.958600
f 124//147 126//147 123//147
f 129//148 127//148 130//148
f 127//149 124//149 123//149
f 128//150 125//150 124//150
f 129//151 126//151 125//151
f 126//152 127//152 123//152
f 124//147 125//147 126//147
f 129//153 128//153 127//153
f 127//149 128//149 124//149
f 128//150 129//150 125//150
f 129//151 130//151 126//151
f 126//152 130//152 127//152
v 0.002000 0.083018 0.005219
v -0.002000 0.083018 0.005219
v -0.002000 0.082982 0.004420
v 0.002000 0.082982 0.004420
v 0.003000 0.108048 0.004819
v -0.003000 0.108048 0.004819
v -0.003000 0.107952 0.002621
v 0.003000 0.107952 0.002621
vn 0.000000 -0.999000 0.043900
vn 0.000000 0.999000 -0.044000
vn 0.000000 0.016000 0.999900
vn -0.999200 -0.039900 0.001800
vn 0.000000 -0.071900 -0.997400
vn 0.999200 -0.039900 0.001800
f 132//154 134//154 131//154
f 137//155 135//155 138//155
f 135//156 132//156 131//156
f 132//157 137//157 133//157
f 137//158 134//158 133//158
f 138//159 131//159 134//159
f 132//154 133//154 134//154
f 137//155 136//155 135//155
f 135//156 136//156 132//156
f 132//157 136//157 137//157
f 137//158 138//158 134//158
f 138//159 135//159 131//159
