# Axes: Loom's -- metres, +Y up along the rod from this part's own
# origin, guides and reel toward +Z. No o/g tags: see mesh.rs:266.
# Blender 5.2.0 LTS
# www.blender.org
v -0.000000 0.006000 -0.005999
v -0.002999 0.006000 -0.005195
v -0.005195 0.006000 -0.002999
v -0.005999 0.006000 -0.000000
v -0.005195 0.006000 0.002999
v -0.002999 0.006000 0.005195
v -0.000000 0.006000 0.005999
v 0.002999 0.006000 0.005195
v 0.005195 0.006000 0.002999
v 0.005999 0.006000 0.000000
v 0.005195 0.006000 -0.002999
v 0.002999 0.006000 -0.005195
v -0.000000 0.078800 -0.005999
v -0.002999 0.078800 -0.005195
v -0.005195 0.078800 -0.002999
v -0.005999 0.078800 -0.000000
v -0.005195 0.078800 0.002999
v -0.002999 0.078800 0.005195
v -0.000000 0.078800 0.005999
v 0.002999 0.078800 0.005195
v 0.005195 0.078800 0.002999
v 0.005999 0.078800 0.000000
v 0.005195 0.078800 -0.002999
v 0.002999 0.078800 -0.005195
v -0.000000 0.151600 -0.005999
v -0.002999 0.151600 -0.005195
v -0.005195 0.151600 -0.002999
v -0.005999 0.151600 -0.000000
v -0.005195 0.151600 0.002999
v -0.002999 0.151600 0.005195
v -0.000000 0.151600 0.005999
v 0.002999 0.151600 0.005195
v 0.005195 0.151600 0.002999
v 0.005999 0.151600 0.000000
v 0.005195 0.151600 -0.002999
v 0.002999 0.151600 -0.005195
v -0.000000 0.224400 -0.005999
v -0.002999 0.224400 -0.005195
v -0.005195 0.224400 -0.002999
v -0.005999 0.224400 -0.000000
v -0.005195 0.224400 0.002999
v -0.002999 0.224400 0.005195
v -0.000000 0.224400 0.005999
v 0.002999 0.224400 0.005195
v 0.005195 0.224400 0.002999
v 0.005999 0.224400 0.000000
v 0.005195 0.224400 -0.002999
v 0.002999 0.224400 -0.005195
v -0.000000 0.297200 -0.005999
v -0.002999 0.297200 -0.005195
v -0.005195 0.297200 -0.002999
v -0.005999 0.297200 -0.000000
v -0.005195 0.297200 0.002999
v -0.002999 0.297200 0.005195
v -0.000000 0.297200 0.005999
v 0.002999 0.297200 0.005195
v 0.005195 0.297200 0.002999
v 0.005999 0.297200 0.000000
v 0.005195 0.297200 -0.002999
v 0.002999 0.297200 -0.005195
v -0.000000 0.370000 -0.005999
v -0.002999 0.370000 -0.005195
v -0.005195 0.370000 -0.002999
v -0.005999 0.370000 -0.000000
v -0.005195 0.370000 0.002999
v -0.002999 0.370000 0.005195
v -0.000000 0.370000 0.005999
v 0.002999 0.370000 0.005195
v 0.005195 0.370000 0.002999
v 0.005999 0.370000 0.000000
v 0.005195 0.370000 -0.002999
v 0.002999 0.370000 -0.005195
v -0.000000 0.006000 -0.000000
v -0.000000 0.370000 -0.000000
vn -0.258800 -0.000000 -0.965900
vn -0.707100 -0.000000 -0.707100
vn -0.965900 -0.000000 -0.258800
vn -0.965900 -0.000000 0.258800
vn -0.707100 -0.000000 0.707100
vn -0.258800 -0.000000 0.965900
vn 0.258800 -0.000000 0.965900
vn 0.707100 -0.000000 0.707100
vn 0.965900 -0.000000 0.258800
vn 0.965900 -0.000000 -0.258800
vn 0.707100 -0.000000 -0.707100
vn 0.258800 -0.000000 -0.965900
vn 0.000000 -1.000000 0.000000
vn 0.000000 1.000000 0.000000
f 2//1 13//1 1//1
f 3//2 14//2 2//2
f 4//3 15//3 3//3
f 5//4 16//4 4//4
f 6//5 17//5 5//5
f 7//6 18//6 6//6
f 8//7 19//7 7//7
f 9//8 20//8 8//8
f 10//9 21//9 9//9
f 11//10 22//10 10//10
f 12//11 23//11 11//11
f 1//12 24//12 12//12
f 14//1 25//1 13//1
f 15//2 26//2 14//2
f 16//3 27//3 15//3
f 17//4 28//4 16//4
f 18//5 29//5 17//5
f 19//6 30//6 18//6
f 20//7 31//7 19//7
f 21//8 32//8 20//8
f 22//9 33//9 21//9
f 23//10 34//10 22//10
f 24//11 35//11 23//11
f 13//12 36//12 24//12
f 26//1 37//1 25//1
f 27//2 38//2 26//2
f 28//3 39//3 27//3
f 29//4 40//4 28//4
f 30//5 41//5 29//5
f 31//6 42//6 30//6
f 32//7 43//7 31//7
f 33//8 44//8 32//8
f 34//9 45//9 33//9
f 35//10 46//10 34//10
f 36//11 47//11 35//11
f 25//12 48//12 36//12
f 38//1 49//1 37//1
f 39//2 50//2 38//2
f 40//3 51//3 39//3
f 41//4 52//4 40//4
f 42//5 53//5 41//5
f 43//6 54//6 42//6
f 44//7 55//7 43//7
f 45//8 56//8 44//8
f 46//9 57//9 45//9
f 47//10 58//10 46//10
f 48//11 59//11 47//11
f 37//12 60//12 48//12
f 50//1 61//1 49//1
f 51//2 62//2 50//2
f 52//3 63//3 51//3
f 53//4 64//4 52//4
f 54//5 65//5 53//5
f 55//6 66//6 54//6
f 56//7 67//7 55//7
f 57//8 68//8 56//8
f 58//9 69//9 57//9
f 59//10 70//10 58//10
f 60//11 71//11 59//11
f 49//12 72//12 60//12
f 73//13 2//13 1//13
f 73//13 3//13 2//13
f 73//13 4//13 3//13
f 73//13 5//13 4//13
f 73//13 6//13 5//13
f 73//13 7//13 6//13
f 73//13 8//13 7//13
f 73//13 9//13 8//13
f 73//13 10//13 9//13
f 73//13 11//13 10//13
f 73//13 12//13 11//13
f 73//13 1//13 12//13
f 74//14 61//14 62//14
f 74//14 62//14 63//14
f 74//14 63//14 64//14
f 74//14 64//14 65//14
f 74//14 65//14 66//14
f 74//14 66//14 67//14
f 74//14 67//14 68//14
f 74//14 68//14 69//14
f 74//14 69//14 70//14
f 74//14 70//14 71//14
f 74//14 71//14 72//14
f 74//14 72//14 61//14
f 2//1 14//1 13//1
f 3//2 15//2 14//2
f 4//3 16//3 15//3
f 5//4 17//4 16//4
f 6//5 18//5 17//5
f 7//6 19//6 18//6
f 8//7 20//7 19//7
f 9//8 21//8 20//8
f 10//9 22//9 21//9
f 11//10 23//10 22//10
f 12//11 24//11 23//11
f 1//12 13//12 24//12
f 14//1 26//1 25//1
f 15//2 27//2 26//2
f 16//3 28//3 27//3
f 17//4 29//4 28//4
f 18//5 30//5 29//5
f 19//6 31//6 30//6
f 20//7 32//7 31//7
f 21//8 33//8 32//8
f 22//9 34//9 33//9
f 23//10 35//10 34//10
f 24//11 36//11 35//11
f 13//12 25//12 36//12
f 26//1 38//1 37//1
f 27//2 39//2 38//2
f 28//3 40//3 39//3
f 29//4 41//4 40//4
f 30//5 42//5 41//5
f 31//6 43//6 42//6
f 32//7 44//7 43//7
f 33//8 45//8 44//8
f 34//9 46//9 45//9
f 35//10 47//10 46//10
f 36//11 48//11 47//11
f 25//12 37//12 48//12
f 38//1 50//1 49//1
f 39//2 51//2 50//2
f 40//3 52//3 51//3
f 41//4 53//4 52//4
f 42//5 54//5 53//5
f 43//6 55//6 54//6
f 44//7 56//7 55//7
f 45//8 57//8 56//8
f 46//9 58//9 57//9
f 47//10 59//10 58//10
f 48//11 60//11 59//11
f 37//12 49//12 60//12
f 50//1 62//1 61//1
f 51//2 63//2 62//2
f 52//3 64//3 63//3
f 53//4 65//4 64//4
f 54//5 66//5 65//5
f 55//6 67//6 66//6
f 56//7 68//7 67//7
f 57//8 69//8 68//8
f 58//9 70//9 69//9
f 59//10 71//10 70//10
f 60//11 72//11 71//11
f 49//12 61//12 72//12
