# Axes: Loom's -- metres, +Y up along the rod from this part's own
# origin, guides and reel toward +Z. No o/g tags: see mesh.rs:266.
# Blender 5.2.0 LTS
# www.blender.org
v -0.000000 0.000000 -0.000000
v -0.000000 0.000000 -0.021500
v -0.010750 0.000000 -0.018620
v -0.018620 0.000000 -0.010750
v -0.021500 0.000000 -0.000000
v -0.018620 0.000000 0.010750
v -0.010750 0.000000 0.018620
v -0.000000 0.000000 0.021500
v 0.010750 0.000000 0.018620
v 0.018620 0.000000 0.010750
v 0.021500 0.000000 -0.000000
v 0.018620 0.000000 -0.010750
v 0.010750 0.000000 -0.018620
v -0.000000 0.003600 -0.028340
v -0.014170 0.003600 -0.024543
v -0.024543 0.003600 -0.014170
v -0.028340 0.003600 -0.000000
v -0.024543 0.003600 0.014170
v -0.014170 0.003600 0.024543
v -0.000000 0.003600 0.028340
v 0.014170 0.003600 0.024543
v 0.024543 0.003600 0.014170
v 0.028340 0.003600 -0.000000
v 0.024543 0.003600 -0.014170
v 0.014170 0.003600 -0.024543
v -0.000000 0.008000 -0.029800
v -0.014900 0.008000 -0.025808
v -0.025808 0.008000 -0.014900
v -0.029800 0.008000 -0.000000
v -0.025808 0.008000 0.014900
v -0.014900 0.008000 0.025808
v -0.000000 0.008000 0.029800
v 0.014900 0.008000 0.025808
v 0.025808 0.008000 0.014900
v 0.029800 0.008000 -0.000000
v 0.025808 0.008000 -0.014900
v 0.014900 0.008000 -0.025808
v -0.000000 0.034000 -0.030400
v -0.015200 0.034000 -0.026327
v -0.026327 0.034000 -0.015200
v -0.030400 0.034000 -0.000000
v -0.026327 0.034000 0.015200
v -0.015200 0.034000 0.026327
v -0.000000 0.034000 0.030400
v 0.015200 0.034000 0.026327
v 0.026327 0.034000 0.015200
v 0.030400 0.034000 -0.000000
v 0.026327 0.034000 -0.015200
v 0.015200 0.034000 -0.026327
v -0.000000 0.042000 -0.031000
v -0.015500 0.042000 -0.026847
v -0.026847 0.042000 -0.015500
v -0.031000 0.042000 -0.000000
v -0.026847 0.042000 0.015500
v -0.015500 0.042000 0.026847
v -0.000000 0.042000 0.031000
v 0.015500 0.042000 0.026847
v 0.026847 0.042000 0.015500
v 0.031000 0.042000 -0.000000
v 0.026847 0.042000 -0.015500
v 0.015500 0.042000 -0.026847
v -0.000000 0.044000 -0.030000
v -0.015000 0.044000 -0.025981
v -0.025981 0.044000 -0.015000
v -0.030000 0.044000 -0.000000
v -0.025981 0.044000 0.015000
v -0.015000 0.044000 0.025981
v -0.000000 0.044000 0.030000
v 0.015000 0.044000 0.025981
v 0.025981 0.044000 0.015000
v 0.030000 0.044000 -0.000000
v 0.025981 0.044000 -0.015000
v 0.015000 0.044000 -0.025981
v -0.000000 0.042000 -0.028500
v -0.014250 0.042000 -0.024682
v -0.024682 0.042000 -0.014250
v -0.028500 0.042000 -0.000000
v -0.024682 0.042000 0.014250
v -0.014250 0.042000 0.024682
v -0.000000 0.042000 0.028500
v 0.014250 0.042000 0.024682
v 0.024682 0.042000 0.014250
v 0.028500 0.042000 -0.000000
v 0.024682 0.042000 -0.014250
v 0.014250 0.042000 -0.024682
v -0.000000 0.014000 -0.027500
v -0.013750 0.014000 -0.023816
v -0.023816 0.014000 -0.013750
v -0.027500 0.014000 -0.000000
v -0.023816 0.014000 0.013750
v -0.013750 0.014000 0.023816
v -0.000000 0.014000 0.027500
v 0.013750 0.014000 0.023816
v 0.023816 0.014000 0.013750
v 0.027500 0.014000 -0.000000
v 0.023816 0.014000 -0.013750
v 0.013750 0.014000 -0.023816
v -0.000000 0.014000 -0.000000
vn 0.000000 -1.000000 0.000000
vn -0.123800 -0.878100 -0.462200
vn -0.338300 -0.878100 -0.338300
vn -0.462200 -0.878100 -0.123800
vn -0.462200 -0.878100 0.123800
vn -0.338300 -0.878100 0.338300
vn -0.123800 -0.878100 0.462200
vn 0.123800 -0.878100 0.462200
vn 0.338300 -0.878100 0.338300
vn 0.462200 -0.878100 0.123800
vn 0.462200 -0.878100 -0.123800
vn 0.338300 -0.878100 -0.338300
vn 0.123800 -0.878100 -0.462200
vn -0.246500 -0.305200 -0.919800
vn -0.673400 -0.305200 -0.673400
vn -0.919800 -0.305200 -0.246500
vn -0.919800 -0.305200 0.246500
vn -0.673400 -0.305200 0.673400
vn -0.246500 -0.305200 0.919800
vn 0.246500 -0.305200 0.919800
vn 0.673400 -0.305200 0.673400
vn 0.919800 -0.305200 0.246500
vn 0.919800 -0.305200 -0.246500
vn 0.673400 -0.305200 -0.673400
vn 0.246500 -0.305200 -0.919800
vn -0.258800 -0.022300 -0.965700
vn -0.706900 -0.022300 -0.706900
vn -0.965700 -0.022300 -0.258800
vn -0.965700 -0.022300 0.258800
vn -0.706900 -0.022300 0.706900
vn -0.258800 -0.022300 0.965700
vn 0.258800 -0.022300 0.965700
vn 0.706900 -0.022300 0.706900
vn 0.965700 -0.022300 0.258800
vn 0.965700 -0.022300 -0.258800
vn 0.706900 -0.022300 -0.706900
vn 0.258800 -0.022300 -0.965700
vn -0.258100 -0.072300 -0.963400
vn -0.705300 -0.072300 -0.705300
vn -0.963400 -0.072300 -0.258100
vn -0.963400 -0.072300 0.258100
vn -0.705300 -0.072300 0.705300
vn -0.258100 -0.072300 0.963400
vn 0.258100 -0.072300 0.963400
vn 0.705300 -0.072300 0.705300
vn 0.963400 -0.072300 0.258100
vn 0.963400 -0.072300 -0.258100
vn 0.705300 -0.072300 -0.705300
vn 0.258100 -0.072300 -0.963400
vn -0.233100 0.434900 -0.869800
vn -0.636700 0.434900 -0.636700
vn -0.869800 0.434900 -0.233100
vn -0.869800 0.434900 0.233100
vn -0.636700 0.434900 0.636700
vn -0.233100 0.434900 0.869800
vn 0.233100 0.434900 0.869800
vn 0.636700 0.434900 0.636700
vn 0.869800 0.434900 0.233100
vn 0.869800 0.434900 -0.233100
vn 0.636700 0.434900 -0.636700
vn 0.233100 0.434900 -0.869800
vn 0.209600 0.586700 0.782200
vn 0.572600 0.586700 0.572600
vn 0.782200 0.586700 0.209600
vn 0.782200 0.586700 -0.209600
vn 0.572600 0.586700 -0.572600
vn 0.209600 0.586700 -0.782200
vn -0.209600 0.586700 -0.782200
vn -0.572600 0.586700 -0.572600
vn -0.782200 0.586700 -0.209600
vn -0.782200 0.586700 0.209600
vn -0.572600 0.586700 0.572600
vn -0.209600 0.586700 0.782200
vn 0.258700 0.034500 0.965400
vn 0.706700 0.034500 0.706700
vn 0.965400 0.034500 0.258700
vn 0.965400 0.034500 -0.258700
vn 0.706700 0.034500 -0.706700
vn 0.258700 0.034500 -0.965400
vn -0.258700 0.034500 -0.965400
vn -0.706700 0.034500 -0.706700
vn -0.965400 0.034500 -0.258700
vn -0.965400 0.034500 0.258700
vn -0.706700 0.034500 0.706700
vn -0.258700 0.034500 0.965400
vn 0.000000 1.000000 0.000000
f 1//1 3//1 2//1
f 1//1 4//1 3//1
f 1//1 5//1 4//1
f 1//1 6//1 5//1
f 1//1 7//1 6//1
f 1//1 8//1 7//1
f 1//1 9//1 8//1
f 1//1 10//1 9//1
f 1//1 11//1 10//1
f 1//1 12//1 11//1
f 1//1 13//1 12//1
f 1//1 2//1 13//1
f 3//2 14//2 2//2
f 4//3 15//3 3//3
f 5//4 16//4 4//4
f 6//5 17//5 5//5
f 6//6 19//6 18//6
f 8//7 19//7 7//7
f 8//8 21//8 20//8
f 9//9 22//9 21//9
f 11//10 22//10 10//10
f 12//11 23//11 11//11
f 13//12 24//12 12//12
f 13//13 14//13 25//13
f 15//14 26//14 14//14
f 16//15 27//15 15//15
f 17//16 28//16 16//16
f 18//17 29//17 17//17
f 18//18 31//18 30//18
f 20//19 31//19 19//19
f 21//20 32//20 20//20
f 22//21 33//21 21//21
f 22//22 35//22 34//22
f 24//23 35//23 23//23
f 25//24 36//24 24//24
f 14//25 37//25 25//25
f 27//26 38//26 26//26
f 28//27 39//27 27//27
f 28//28 41//28 40//28
f 30//29 41//29 29//29
f 31//30 42//30 30//30
f 32//31 43//31 31//31
f 33//32 44//32 32//32
f 34//33 45//33 33//33
f 35//34 46//34 34//34
f 36//35 47//35 35//35
f 37//36 48//36 36//36
f 26//37 49//37 37//37
f 39//38 50//38 38//38
f 40//39 51//39 39//39
f 41//40 52//40 40//40
f 42//41 53//41 41//41
f 43//42 54//42 42//42
f 44//43 55//43 43//43
f 45//44 56//44 44//44
f 46//45 57//45 45//45
f 47//46 58//46 46//46
f 48//47 59//47 47//47
f 48//48 61//48 60//48
f 38//49 61//49 49//49
f 51//50 62//50 50//50
f 52//51 63//51 51//51
f 53//52 64//52 52//52
f 54//53 65//53 53//53
f 54//54 67//54 66//54
f 56//55 67//55 55//55
f 57//56 68//56 56//56
f 58//57 69//57 57//57
f 59//58 70//58 58//58
f 59//59 72//59 71//59
f 61//60 72//60 60//60
f 50//61 73//61 61//61
f 63//62 74//62 62//62
f 64//63 75//63 63//63
f 65//64 76//64 64//64
f 66//65 77//65 65//65
f 66//66 79//66 78//66
f 67//67 80//67 79//67
f 69//68 80//68 68//68
f 70//69 81//69 69//69
f 71//70 82//70 70//70
f 72//71 83//71 71//71
f 73//72 84//72 72//72
f 62//73 85//73 73//73
f 75//74 86//74 74//74
f 76//75 87//75 75//75
f 77//76 88//76 76//76
f 77//77 90//77 89//77
f 79//78 90//78 78//78
f 79//79 92//79 91//79
f 81//80 92//80 80//80
f 81//81 94//81 93//81
f 83//82 94//82 82//82
f 84//83 95//83 83//83
f 85//84 96//84 84//84
f 74//85 97//85 85//85
f 98//86 86//86 87//86
f 98//86 87//86 88//86
f 98//86 88//86 89//86
f 98//86 89//86 90//86
f 98//86 90//86 91//86
f 98//86 91//86 92//86
f 98//86 92//86 93//86
f 98//86 93//86 94//86
f 98//86 94//86 95//86
f 98//86 95//86 96//86
f 98//86 96//86 97//86
f 98//86 97//86 86//86
f 3//2 15//2 14//2
f 4//3 16//3 15//3
f 5//4 17//4 16//4
f 6//5 18//5 17//5
f 6//6 7//6 19//6
f 8//7 20//7 19//7
f 8//8 9//8 21//8
f 9//9 10//9 22//9
f 11//10 23//10 22//10
f 12//11 24//11 23//11
f 13//12 25//12 24//12
f 13//13 2//13 14//13
f 15//14 27//14 26//14
f 16//15 28//15 27//15
f 17//16 29//16 28//16
f 18//17 30//17 29//17
f 18//18 19//18 31//18
f 20//19 32//19 31//19
f 21//20 33//20 32//20
f 22//21 34//21 33//21
f 22//22 23//22 35//22
f 24//23 36//23 35//23
f 25//24 37//24 36//24
f 14//25 26//25 37//25
f 27//26 39//26 38//26
f 28//27 40//27 39//27
f 28//28 29//28 41//28
f 30//29 42//29 41//29
f 31//30 43//30 42//30
f 32//31 44//31 43//31
f 33//32 45//32 44//32
f 34//33 46//33 45//33
f 35//34 47//34 46//34
f 36//35 48//35 47//35
f 37//36 49//36 48//36
f 26//37 38//37 49//37
f 39//38 51//38 50//38
f 40//39 52//39 51//39
f 41//40 53//40 52//40
f 42//41 54//41 53//41
f 43//42 55//42 54//42
f 44//43 56//43 55//43
f 45//44 57//44 56//44
f 46//45 58//45 57//45
f 47//46 59//46 58//46
f 48//47 60//47 59//47
f 48//48 49//48 61//48
f 38//49 50//49 61//49
f 51//50 63//50 62//50
f 52//51 64//51 63//51
f 53//52 65//52 64//52
f 54//53 66//53 65//53
f 54//54 55//54 67//54
f 56//55 68//55 67//55
f 57//56 69//56 68//56
f 58//57 70//57 69//57
f 59//58 71//58 70//58
f 59//59 60//59 72//59
f 61//60 73//60 72//60
f 50//61 62//61 73//61
f 63//62 75//62 74//62
f 64//63 76//63 75//63
f 65//64 77//64 76//64
f 66//65 78//65 77//65
f 66//66 67//66 79//66
f 67//67 68//67 80//67
f 69//68 81//68 80//68
f 70//69 82//69 81//69
f 71//70 83//70 82//70
f 72//71 84//71 83//71
f 73//72 85//72 84//72
f 62//73 74//73 85//73
f 75//74 87//74 86//74
f 76//75 88//75 87//75
f 77//76 89//76 88//76
f 77//77 78//77 90//77
f 79//78 91//78 90//78
f 79//79 80//79 92//79
f 81//80 93//80 92//80
f 81//81 82//81 94//81
f 83//82 95//82 94//82
f 84//83 96//83 95//83
f 85//84 97//84 96//84
f 74//85 86//85 97//85
v -0.030323 0.024000 0.006445
v -0.027621 0.024000 0.014074
v -0.023037 0.024000 0.020743
v -0.016884 0.024000 0.025999
v -0.009580 0.024000 0.029483
v -0.007664 0.024000 0.023586
v -0.013507 0.024000 0.020799
v -0.018430 0.024000 0.016594
v -0.022097 0.024000 0.011259
v -0.024258 0.024000 0.005156
v -0.032991 0.034168 0.004970
v -0.031130 0.034168 0.012002
v -0.027789 0.034168 0.018463
v -0.023127 0.034168 0.024047
v -0.017366 0.034168 0.028487
v -0.014139 0.034168 0.023193
v -0.018829 0.034168 0.019578
v -0.022625 0.034168 0.015032
v -0.025345 0.034168 0.009771
v -0.026860 0.034168 0.004046
v -0.034974 0.041101 0.002352
v -0.033933 0.041101 0.008791
v -0.031717 0.041101 0.014925
v -0.028403 0.041101 0.020542
v -0.024106 0.041101 0.025449
v -0.019842 0.041101 0.020947
v -0.023379 0.041101 0.016909
v -0.026107 0.041101 0.012285
v -0.027931 0.041101 0.007236
v -0.028788 0.041101 0.001936
v -0.035645 0.047179 -0.000770
v -0.035325 0.047179 0.004827
v -0.034131 0.047179 0.010305
v -0.032094 0.047179 0.015528
v -0.029263 0.047179 0.020367
v -0.024174 0.047179 0.016825
v -0.026513 0.047179 0.012828
v -0.028196 0.047179 0.008513
v -0.029182 0.047179 0.003988
v -0.029446 0.047179 -0.000636
v -0.034934 0.052761 -0.004007
v -0.035159 0.052761 0.000570
v -0.034786 0.052761 0.005137
v -0.033823 0.052761 0.009616
v -0.032285 0.052761 0.013933
v -0.026593 0.052761 0.011476
v -0.027859 0.052761 0.007921
v -0.028653 0.052761 0.004231
v -0.028960 0.052761 0.000469
v -0.028775 0.052761 -0.003300
v -0.033257 0.058000 -0.007069
v -0.033814 0.058000 -0.003554
v -0.034000 0.058000 -0.000000
v -0.033814 0.058000 0.003554
v -0.033257 0.058000 0.007069
v -0.027193 0.058000 0.005780
v -0.027648 0.058000 0.002906
v -0.027800 0.058000 -0.000000
v -0.027648 0.058000 -0.002906
v -0.027193 0.058000 -0.005780
vn -0.944800 -0.211700 0.250100
vn -0.868800 -0.208300 0.449200
vn -0.750500 -0.210200 0.626600
vn -0.595900 -0.217500 0.773100
vn 0.697900 0.576100 0.425500
vn 0.418700 0.232700 -0.877800
vn 0.630300 0.241300 -0.737900
vn 0.799000 0.245200 -0.549100
vn 0.914000 0.244600 -0.323700
vn -0.205300 -0.158000 -0.965900
vn -0.963700 -0.216800 0.155800
vn -0.918000 -0.217600 0.331600
vn -0.839600 -0.222900 0.495300
vn -0.731600 -0.232800 0.640800
vn 0.511500 0.709600 0.484500
vn 0.592900 0.238500 -0.769200
vn 0.743500 0.249000 -0.620700
vn 0.858800 0.255400 -0.444100
vn 0.934000 0.258000 -0.247200
vn -0.140900 -0.323900 -0.935500
vn -0.995100 -0.080600 0.056900
vn -0.973600 -0.084600 0.212100
vn -0.927600 -0.093400 0.361800
vn -0.858200 -0.107000 0.502100
vn 0.371000 0.760400 0.533000
vn 0.749300 0.089000 -0.656300
vn 0.856800 0.102300 -0.505400
vn 0.934600 0.111700 -0.337600
vn 0.980400 0.117000 -0.158500
vn -0.061700 -0.394700 -0.916700
vn -0.994000 0.098300 -0.048700
vn -0.992500 0.091300 0.081000
vn -0.974500 0.079700 0.209600
vn -0.940100 0.063500 0.334900
vn 0.355900 0.782200 0.511400
vn 0.858000 -0.109300 -0.501900
vn 0.927500 -0.094400 -0.361800
vn 0.973700 -0.083100 -0.212100
vn 0.995500 -0.075500 -0.056900
vn 0.102400 -0.438400 -0.892900
vn -0.963600 0.219300 -0.152600
vn -0.976300 0.210300 -0.051200
vn -0.979000 0.197200 0.051300
vn -0.971600 0.179700 0.153900
vn 0.244400 0.787200 0.566300
vn 0.912400 -0.248900 -0.325000
vn 0.950500 -0.234000 -0.204400
vn 0.971800 -0.222200 -0.079300
vn 0.975800 -0.213500 0.047800
vn 0.184000 -0.465300 -0.865800
vn 0.000000 -1.000000 0.000000
vn 0.000000 1.000000 0.000000
vn -0.912900 -0.249100 0.323300
vn -0.798000 -0.249900 0.548400
vn -0.629600 -0.245100 0.737200
vn -0.418500 -0.234600 0.877400
vn 0.809200 0.525500 0.262900
vn 0.595700 0.219000 -0.772800
vn 0.750000 0.213200 -0.626200
vn 0.868200 0.211600 -0.448900
vn 0.944200 0.214400 -0.249900
vn -0.146500 -0.179600 -0.972800
vn -0.932700 -0.262800 0.246900
vn -0.857800 -0.259700 0.443500
vn -0.742900 -0.251800 0.620200
vn -0.592800 -0.239200 0.769000
vn 0.643800 0.656800 0.392500
vn 0.731500 0.233400 -0.640700
vn 0.839100 0.225300 -0.495000
vn 0.917300 0.221000 -0.331400
vn 0.962900 0.220400 -0.155700
vn -0.062400 -0.368100 -0.927700
vn -0.979900 -0.121100 0.158500
vn -0.934300 -0.114600 0.337500
vn -0.856700 -0.103300 0.505400
vn -0.749400 -0.087100 0.656400
vn 0.517500 0.701300 0.490200
vn 0.858300 0.105400 -0.502200
vn 0.927500 0.094200 -0.361800
vn 0.973400 0.087000 -0.212100
vn 0.994900 0.083700 -0.056900
vn 0.019200 -0.455300 -0.890100
vn -0.995700 0.073000 0.056900
vn -0.973800 0.082200 0.212100
vn -0.927300 0.095900 0.361700
vn -0.857500 0.114000 0.501700
vn 0.273000 0.724700 0.632700
vn 0.939900 -0.067600 -0.334800
vn 0.974400 -0.081000 -0.209500
vn 0.992600 -0.090600 -0.081000
vn 0.994200 -0.096400 0.048700
vn 0.018700 -0.503300 -0.863900
vn -0.975900 0.212900 -0.047800
vn -0.971500 0.223500 0.079300
vn -0.949600 0.237900 0.204200
vn -0.910600 0.256100 0.324400
vn 0.140700 0.736000 0.662200
vn 0.970400 -0.186300 -0.153700
vn 0.978300 -0.200600 -0.051300
vn 0.976100 -0.211400 0.051200
vn 0.963800 -0.218800 0.152600
vn 0.097000 -0.525200 -0.845400
f 99//87 110//87 109//87
f 100//88 111//88 110//88
f 101//89 112//89 111//89
f 102//90 113//90 112//90
f 103//91 114//91 113//91
f 105//92 114//92 104//92
f 106//93 115//93 105//93
f 107//94 116//94 106//94
f 108//95 117//95 107//95
f 99//96 118//96 108//96
f 109//97 120//97 119//97
f 110//98 121//98 120//98
f 111//99 122//99 121//99
f 112//100 123//100 122//100
f 113//101 124//101 123//101
f 115//102 124//102 114//102
f 116//103 125//103 115//103
f 117//104 126//104 116//104
f 118//105 127//105 117//105
f 109//106 128//106 118//106
f 119//107 130//107 129//107
f 120//108 131//108 130//108
f 121//109 132//109 131//109
f 122//110 133//110 132//110
f 123//111 134//111 133//111
f 125//112 134//112 124//112
f 126//113 135//113 125//113
f 127//114 136//114 126//114
f 128//115 137//115 127//115
f 119//116 138//116 128//116
f 129//117 140//117 139//117
f 130//118 141//118 140//118
f 131//119 142//119 141//119
f 132//120 143//120 142//120
f 134//121 143//121 133//121
f 135//122 144//122 134//122
f 136//123 145//123 135//123
f 137//124 146//124 136//124
f 138//125 147//125 137//125
f 138//126 139//126 148//126
f 139//127 150//127 149//127
f 140//128 151//128 150//128
f 141//129 152//129 151//129
f 142//130 153//130 152//130
f 144//131 153//131 143//131
f 145//132 154//132 144//132
f 146//133 155//133 145//133
f 147//134 156//134 146//134
f 148//135 157//135 147//135
f 148//136 149//136 158//136
f 107//137 101//137 100//137
f 105//137 101//137 106//137
f 105//137 103//137 102//137
f 107//137 99//137 108//137
f 151//138 157//138 150//138
f 151//138 155//138 156//138
f 153//138 155//138 152//138
f 149//138 157//138 158//138
f 99//139 100//139 110//139
f 100//140 101//140 111//140
f 101//141 102//141 112//141
f 102//142 103//142 113//142
f 103//143 104//143 114//143
f 105//144 115//144 114//144
f 106//145 116//145 115//145
f 107//146 117//146 116//146
f 108//147 118//147 117//147
f 99//148 109//148 118//148
f 109//149 110//149 120//149
f 110//150 111//150 121//150
f 111//151 112//151 122//151
f 112//152 113//152 123//152
f 113//153 114//153 124//153
f 115//154 125//154 124//154
f 116//155 126//155 125//155
f 117//156 127//156 126//156
f 118//157 128//157 127//157
f 109//158 119//158 128//158
f 119//159 120//159 130//159
f 120//160 121//160 131//160
f 121//161 122//161 132//161
f 122//162 123//162 133//162
f 123//163 124//163 134//163
f 125//164 135//164 134//164
f 126//165 136//165 135//165
f 127//166 137//166 136//166
f 128//167 138//167 137//167
f 119//168 129//168 138//168
f 129//169 130//169 140//169
f 130//170 131//170 141//170
f 131//171 132//171 142//171
f 132//172 133//172 143//172
f 134//173 144//173 143//173
f 135//174 145//174 144//174
f 136//175 146//175 145//175
f 137//176 147//176 146//176
f 138//177 148//177 147//177
f 138//178 129//178 139//178
f 139//179 140//179 150//179
f 140//180 141//180 151//180
f 141//181 142//181 152//181
f 142//182 143//182 153//182
f 144//183 154//183 153//183
f 145//184 155//184 154//184
f 146//185 156//185 155//185
f 147//186 157//186 156//186
f 148//187 158//187 157//187
f 148//188 139//188 149//188
f 107//137 106//137 101//137
f 105//137 102//137 101//137
f 105//137 104//137 103//137
f 107//137 100//137 99//137
f 151//138 156//138 157//138
f 151//138 152//138 155//138
f 153//138 154//138 155//138
f 149//138 150//138 157//138
v -0.030000 0.063580 -0.000000
v -0.030000 0.063155 -0.002135
v -0.030000 0.061946 -0.003946
v -0.030000 0.060135 -0.005155
v -0.030000 0.058000 -0.005580
v -0.030000 0.055865 -0.005155
v -0.030000 0.054054 -0.003946
v -0.030000 0.052845 -0.002135
v -0.030000 0.052420 -0.000000
v -0.030000 0.052845 0.002135
v -0.030000 0.054054 0.003946
v -0.030000 0.055865 0.005155
v -0.030000 0.058000 0.005580
v -0.030000 0.060135 0.005155
v -0.030000 0.061946 0.003946
v -0.030000 0.063155 0.002135
v -0.033200 0.067000 -0.000000
v -0.033200 0.066315 -0.003444
v -0.033200 0.064364 -0.006364
v -0.033200 0.061444 -0.008315
v -0.033200 0.058000 -0.009000
v -0.033200 0.054556 -0.008315
v -0.033200 0.051636 -0.006364
v -0.033200 0.049685 -0.003444
v -0.033200 0.049000 -0.000000
v -0.033200 0.049685 0.003444
v -0.033200 0.051636 0.006364
v -0.033200 0.054556 0.008315
v -0.033200 0.058000 0.009000
v -0.033200 0.061444 0.008315
v -0.033200 0.064364 0.006364
v -0.033200 0.066315 0.003444
v -0.037600 0.067000 -0.000000
v -0.037600 0.066315 -0.003444
v -0.037600 0.064364 -0.006364
v -0.037600 0.061444 -0.008315
v -0.037600 0.058000 -0.009000
v -0.037600 0.054556 -0.008315
v -0.037600 0.051636 -0.006364
v -0.037600 0.049685 -0.003444
v -0.037600 0.049000 -0.000000
v -0.037600 0.049685 0.003444
v -0.037600 0.051636 0.006364
v -0.037600 0.054556 0.008315
v -0.037600 0.058000 0.009000
v -0.037600 0.061444 0.008315
v -0.037600 0.064364 0.006364
v -0.037600 0.066315 0.003444
v -0.040000 0.062500 -0.000000
v -0.040000 0.062157 -0.001722
v -0.040000 0.061182 -0.003182
v -0.040000 0.059722 -0.004157
v -0.040000 0.058000 -0.004500
v -0.040000 0.056278 -0.004157
v -0.040000 0.054818 -0.003182
v -0.040000 0.053843 -0.001722
v -0.040000 0.053500 -0.000000
v -0.040000 0.053843 0.001722
v -0.040000 0.054818 0.003182
v -0.040000 0.056278 0.004157
v -0.040000 0.058000 0.004500
v -0.040000 0.059722 0.004157
v -0.040000 0.061182 0.003182
v -0.040000 0.062157 0.001722
v -0.030000 0.058000 -0.000000
v -0.040000 0.058000 -0.000000
vn 0.723600 0.677000 -0.134700
vn 0.723600 0.573900 -0.383500
vn 0.723600 0.383500 -0.573900
vn 0.723600 0.134700 -0.677000
vn 0.723500 -0.134700 -0.677000
vn 0.723600 -0.383500 -0.573900
vn 0.723600 -0.573900 -0.383500
vn 0.723600 -0.677000 -0.134700
vn 0.723600 -0.677000 0.134700
vn 0.723500 -0.573900 0.383500
vn 0.723600 -0.383500 0.573900
vn 0.723600 -0.134700 0.677000
vn 0.723600 0.134700 0.677000
vn 0.723600 0.383500 0.573900
vn 0.723500 0.573900 0.383500
vn 0.723600 0.677000 0.134700
vn 0.000000 0.980800 -0.195100
vn 0.000000 0.831500 -0.555600
vn 0.000000 0.555600 -0.831500
vn 0.000000 0.195100 -0.980800
vn 0.000000 -0.195100 -0.980800
vn 0.000000 -0.555600 -0.831500
vn 0.000000 -0.831500 -0.555600
vn 0.000000 -0.980800 -0.195100
vn 0.000000 -0.980800 0.195100
vn 0.000000 -0.831500 0.555600
vn 0.000000 -0.555600 0.831500
vn 0.000000 -0.195100 0.980800
vn 0.000000 0.195100 0.980800
vn 0.000000 0.555600 0.831500
vn 0.000000 0.831500 0.555600
vn 0.000000 0.980800 0.195100
vn -0.878500 0.468500 -0.093200
vn -0.878500 0.397200 -0.265400
vn -0.878500 0.265400 -0.397200
vn -0.878500 0.093200 -0.468500
vn -0.878500 -0.093200 -0.468500
vn -0.878500 -0.265400 -0.397200
vn -0.878500 -0.397200 -0.265400
vn -0.878500 -0.468500 -0.093200
vn -0.878500 -0.468500 0.093200
vn -0.878500 -0.397200 0.265400
vn -0.878500 -0.265400 0.397200
vn -0.878500 -0.093200 0.468500
vn -0.878500 0.093200 0.468600
vn -0.878500 0.265400 0.397200
vn -0.878500 0.397200 0.265400
vn -0.878500 0.468500 0.093200
vn 1.000000 -0.000000 0.000000
vn -1.000000 -0.000000 0.000000
vn 0.723500 0.573900 -0.383500
vn 0.723500 0.134700 -0.677000
vn 0.723600 -0.134700 -0.677000
vn 0.723500 -0.573900 -0.383500
vn 0.723500 -0.134700 0.677000
vn -0.878500 0.093200 0.468500
f 159//189 176//189 175//189
f 160//190 177//190 176//190
f 162//191 177//191 161//191
f 162//192 179//192 178//192
f 164//193 179//193 163//193
f 165//194 180//194 164//194
f 165//195 182//195 181//195
f 167//196 182//196 166//196
f 167//197 184//197 183//197
f 168//198 185//198 184//198
f 169//199 186//199 185//199
f 170//200 187//200 186//200
f 172//201 187//201 171//201
f 172//202 189//202 188//202
f 174//203 189//203 173//203
f 159//204 190//204 174//204
f 176//205 191//205 175//205
f 177//206 192//206 176//206
f 178//207 193//207 177//207
f 179//208 194//208 178//208
f 180//209 195//209 179//209
f 181//210 196//210 180//210
f 182//211 197//211 181//211
f 183//212 198//212 182//212
f 184//213 199//213 183//213
f 185//214 200//214 184//214
f 186//215 201//215 185//215
f 187//216 202//216 186//216
f 188//217 203//217 187//217
f 189//218 204//218 188//218
f 190//219 205//219 189//219
f 175//220 206//220 190//220
f 192//221 207//221 191//221
f 192//222 209//222 208//222
f 194//223 209//223 193//223
f 194//224 211//224 210//224
f 196//225 211//225 195//225
f 196//226 213//226 212//226
f 198//227 213//227 197//227
f 199//228 214//228 198//228
f 200//229 215//229 199//229
f 200//230 217//230 216//230
f 202//231 217//231 201//231
f 203//232 218//232 202//232
f 203//233 220//233 219//233
f 204//234 221//234 220//234
f 205//235 222//235 221//235
f 206//236 207//236 222//236
f 223//237 160//237 159//237
f 223//237 161//237 160//237
f 223//237 162//237 161//237
f 223//237 163//237 162//237
f 223//237 164//237 163//237
f 223//237 165//237 164//237
f 223//237 166//237 165//237
f 223//237 167//237 166//237
f 223//237 168//237 167//237
f 223//237 169//237 168//237
f 223//237 170//237 169//237
f 223//237 171//237 170//237
f 223//237 172//237 171//237
f 223//237 173//237 172//237
f 223//237 174//237 173//237
f 223//237 159//237 174//237
f 224//238 207//238 208//238
f 224//238 208//238 209//238
f 224//238 209//238 210//238
f 224//238 210//238 211//238
f 224//238 211//238 212//238
f 224//238 212//238 213//238
f 224//238 213//238 214//238
f 224//238 214//238 215//238
f 224//238 215//238 216//238
f 224//238 216//238 217//238
f 224//238 217//238 218//238
f 224//238 218//238 219//238
f 224//238 219//238 220//238
f 224//238 220//238 221//238
f 224//238 221//238 222//238
f 224//238 222//238 207//238
f 159//189 160//189 176//189
f 160//239 161//239 177//239
f 162//191 178//191 177//191
f 162//240 163//240 179//240
f 164//241 180//241 179//241
f 165//194 181//194 180//194
f 165//242 166//242 182//242
f 167//196 183//196 182//196
f 167//197 168//197 184//197
f 168//198 169//198 185//198
f 169//199 170//199 186//199
f 170//243 171//243 187//243
f 172//201 188//201 187//201
f 172//202 173//202 189//202
f 174//203 190//203 189//203
f 159//204 175//204 190//204
f 176//205 192//205 191//205
f 177//206 193//206 192//206
f 178//207 194//207 193//207
f 179//208 195//208 194//208
f 180//209 196//209 195//209
f 181//210 197//210 196//210
f 182//211 198//211 197//211
f 183//212 199//212 198//212
f 184//213 200//213 199//213
f 185//214 201//214 200//214
f 186//215 202//215 201//215
f 187//216 203//216 202//216
f 188//217 204//217 203//217
f 189//218 205//218 204//218
f 190//219 206//219 205//219
f 175//220 191//220 206//220
f 192//221 208//221 207//221
f 192//222 193//222 209//222
f 194//223 210//223 209//223
f 194//224 195//224 211//224
f 196//225 212//225 211//225
f 196//226 197//226 213//226
f 198//227 214//227 213//227
f 199//228 215//228 214//228
f 200//229 216//229 215//229
f 200//230 201//230 217//230
f 202//231 218//231 217//231
f 203//232 219//232 218//232
f 203//244 204//244 220//244
f 204//234 205//234 221//234
f 205//235 206//235 222//235
f 206//236 191//236 207//236
v 0.009580 0.024000 0.029483
v 0.016884 0.024000 0.025999
v 0.023037 0.024000 0.020743
v 0.027621 0.024000 0.014074
v 0.030323 0.024000 0.006445
v 0.024258 0.024000 0.005156
v 0.022097 0.024000 0.011259
v 0.018430 0.024000 0.016594
v 0.013507 0.024000 0.020799
v 0.007664 0.024000 0.023586
v 0.017366 0.034168 0.028487
v 0.023127 0.034168 0.024047
v 0.027789 0.034168 0.018463
v 0.031130 0.034168 0.012002
v 0.032991 0.034168 0.004970
v 0.026860 0.034168 0.004046
v 0.025345 0.034168 0.009771
v 0.022625 0.034168 0.015032
v 0.018829 0.034168 0.019578
v 0.014139 0.034168 0.023193
v 0.024106 0.041101 0.025449
v 0.028403 0.041101 0.020542
v 0.031717 0.041101 0.014925
v 0.033933 0.041101 0.008791
v 0.034974 0.041101 0.002352
v 0.028788 0.041101 0.001936
v 0.027931 0.041101 0.007236
v 0.026107 0.041101 0.012285
v 0.023379 0.041101 0.016909
v 0.019842 0.041101 0.020947
v 0.029263 0.047179 0.020367
v 0.032094 0.047179 0.015528
v 0.034131 0.047179 0.010305
v 0.035325 0.047179 0.004827
v 0.035645 0.047179 -0.000770
v 0.029446 0.047179 -0.000636
v 0.029182 0.047179 0.003988
v 0.028196 0.047179 0.008513
v 0.026513 0.047179 0.012828
v 0.024174 0.047179 0.016825
v 0.032285 0.052761 0.013933
v 0.033823 0.052761 0.009616
v 0.034786 0.052761 0.005137
v 0.035159 0.052761 0.000570
v 0.034934 0.052761 -0.004007
v 0.028775 0.052761 -0.003300
v 0.028960 0.052761 0.000469
v 0.028653 0.052761 0.004231
v 0.027859 0.052761 0.007921
v 0.026593 0.052761 0.011476
v 0.033257 0.058000 0.007069
v 0.033814 0.058000 0.003554
v 0.034000 0.058000 -0.000000
v 0.033814 0.058000 -0.003554
v 0.033257 0.058000 -0.007069
v 0.027193 0.058000 -0.005780
v 0.027648 0.058000 -0.002906
v 0.027800 0.058000 -0.000000
v 0.027648 0.058000 0.002906
v 0.027193 0.058000 0.005780
vn 0.418500 -0.234600 0.877400
vn 0.629600 -0.245100 0.737200
vn 0.798000 -0.249900 0.548400
vn 0.912900 -0.249100 0.323300
vn 0.146500 -0.179600 -0.972800
vn -0.944200 0.214400 -0.249900
vn -0.868200 0.211600 -0.448900
vn -0.750000 0.213200 -0.626200
vn -0.595700 0.219000 -0.772800
vn -0.809200 0.525500 0.262900
vn 0.592800 -0.239200 0.769000
vn 0.742900 -0.251800 0.620200
vn 0.857800 -0.259700 0.443500
vn 0.932700 -0.262800 0.246900
vn 0.062400 -0.368100 -0.927700
vn -0.962900 0.220400 -0.155700
vn -0.917300 0.221000 -0.331400
vn -0.839100 0.225300 -0.495000
vn -0.731500 0.233400 -0.640700
vn -0.643800 0.656800 0.392500
vn 0.749400 -0.087100 0.656400
vn 0.856700 -0.103300 0.505400
vn 0.934300 -0.114600 0.337500
vn 0.979900 -0.121100 0.158500
vn -0.019200 -0.455300 -0.890100
vn -0.994900 0.083700 -0.056900
vn -0.973400 0.087000 -0.212100
vn -0.927500 0.094200 -0.361800
vn -0.858300 0.105400 -0.502200
vn -0.517500 0.701300 0.490200
vn 0.857500 0.114000 0.501700
vn 0.927300 0.095900 0.361700
vn 0.973800 0.082200 0.212100
vn 0.995700 0.073000 0.056900
vn -0.018700 -0.503300 -0.863900
vn -0.994200 -0.096400 0.048700
vn -0.992600 -0.090600 -0.081000
vn -0.974400 -0.081000 -0.209500
vn -0.939900 -0.067600 -0.334800
vn -0.273000 0.724700 0.632700
vn 0.910600 0.256100 0.324400
vn 0.949600 0.237900 0.204200
vn 0.971500 0.223500 0.079300
vn 0.975900 0.212900 -0.047800
vn -0.097000 -0.525200 -0.845400
vn -0.963800 -0.218800 0.152600
vn -0.976100 -0.211400 0.051200
vn -0.978300 -0.200600 -0.051300
vn -0.970400 -0.186300 -0.153700
vn -0.140700 0.736000 0.662200
vn 0.000000 -1.000000 0.000000
vn 0.000000 1.000000 0.000000
vn 0.595900 -0.217500 0.773100
vn 0.750500 -0.210200 0.626600
vn 0.868800 -0.208300 0.449200
vn 0.944800 -0.211700 0.250100
vn 0.205300 -0.158000 -0.965900
vn -0.914000 0.244600 -0.323700
vn -0.799000 0.245200 -0.549100
vn -0.630300 0.241300 -0.737900
vn -0.418700 0.232700 -0.877800
vn -0.697900 0.576100 0.425500
vn 0.731600 -0.232800 0.640800
vn 0.839600 -0.222900 0.495300
vn 0.918000 -0.217600 0.331600
vn 0.963700 -0.216800 0.155800
vn 0.140900 -0.323900 -0.935500
vn -0.934000 0.258000 -0.247200
vn -0.858800 0.255400 -0.444100
vn -0.743500 0.249000 -0.620700
vn -0.592900 0.238500 -0.769200
vn -0.511500 0.709600 0.484500
vn 0.858200 -0.107000 0.502100
vn 0.927600 -0.093400 0.361800
vn 0.973600 -0.084600 0.212100
vn 0.995100 -0.080600 0.056900
vn 0.061700 -0.394700 -0.916700
vn -0.980400 0.117000 -0.158500
vn -0.934600 0.111700 -0.337600
vn -0.856800 0.102300 -0.505400
vn -0.749300 0.089000 -0.656300
vn -0.371000 0.760400 0.533000
vn 0.940100 0.063500 0.334900
vn 0.974500 0.079700 0.209600
vn 0.992500 0.091300 0.081000
vn 0.994000 0.098300 -0.048700
vn -0.102400 -0.438400 -0.892900
vn -0.995500 -0.075500 -0.056900
vn -0.973700 -0.083100 -0.212100
vn -0.927500 -0.094400 -0.361800
vn -0.858000 -0.109300 -0.501900
vn -0.355900 0.782200 0.511400
vn 0.971600 0.179700 0.153900
vn 0.979000 0.197200 0.051300
vn 0.976300 0.210300 -0.051200
vn 0.963600 0.219300 -0.152600
vn -0.184000 -0.465300 -0.865800
vn -0.975800 -0.213500 0.047800
vn -0.971800 -0.222200 -0.079300
vn -0.950500 -0.234000 -0.204400
vn -0.912400 -0.248900 -0.325000
vn -0.244400 0.787200 0.566300
f 226//245 235//245 225//245
f 227//246 236//246 226//246
f 228//247 237//247 227//247
f 229//248 238//248 228//248
f 229//249 240//249 239//249
f 230//250 241//250 240//250
f 231//251 242//251 241//251
f 232//252 243//252 242//252
f 233//253 244//253 243//253
f 225//254 244//254 234//254
f 236//255 245//255 235//255
f 237//256 246//256 236//256
f 238//257 247//257 237//257
f 239//258 248//258 238//258
f 239//259 250//259 249//259
f 240//260 251//260 250//260
f 241//261 252//261 251//261
f 242//262 253//262 252//262
f 243//263 254//263 253//263
f 235//264 254//264 244//264
f 246//265 255//265 245//265
f 247//266 256//266 246//266
f 248//267 257//267 247//267
f 249//268 258//268 248//268
f 249//269 260//269 259//269
f 250//270 261//270 260//270
f 251//271 262//271 261//271
f 252//272 263//272 262//272
f 253//273 264//273 263//273
f 245//274 264//274 254//274
f 256//275 265//275 255//275
f 257//276 266//276 256//276
f 258//277 267//277 257//277
f 259//278 268//278 258//278
f 260//279 269//279 259//279
f 260//280 271//280 270//280
f 261//281 272//281 271//281
f 262//282 273//282 272//282
f 263//283 274//283 273//283
f 264//284 265//284 274//284
f 266//285 275//285 265//285
f 267//286 276//286 266//286
f 268//287 277//287 267//287
f 269//288 278//288 268//288
f 270//289 279//289 269//289
f 270//290 281//290 280//290
f 271//291 282//291 281//291
f 272//292 283//292 282//292
f 273//293 284//293 283//293
f 274//294 275//294 284//294
f 233//295 227//295 226//295
f 231//295 227//295 232//295
f 230//295 228//295 231//295
f 233//295 225//295 234//295
f 277//296 283//296 276//296
f 278//296 282//296 277//296
f 279//296 281//296 278//296
f 276//296 284//296 275//296
f 226//297 236//297 235//297
f 227//298 237//298 236//298
f 228//299 238//299 237//299
f 229//300 239//300 238//300
f 229//301 230//301 240//301
f 230//302 231//302 241//302
f 231//303 232//303 242//303
f 232//304 233//304 243//304
f 233//305 234//305 244//305
f 225//306 235//306 244//306
f 236//307 246//307 245//307
f 237//308 247//308 246//308
f 238//309 248//309 247//309
f 239//310 249//310 248//310
f 239//311 240//311 250//311
f 240//312 241//312 251//312
f 241//313 242//313 252//313
f 242//314 243//314 253//314
f 243//315 244//315 254//315
f 235//316 245//316 254//316
f 246//317 256//317 255//317
f 247//318 257//318 256//318
f 248//319 258//319 257//319
f 249//320 259//320 258//320
f 249//321 250//321 260//321
f 250//322 251//322 261//322
f 251//323 252//323 262//323
f 252//324 253//324 263//324
f 253//325 254//325 264//325
f 245//326 255//326 264//326
f 256//327 266//327 265//327
f 257//328 267//328 266//328
f 258//329 268//329 267//329
f 259//330 269//330 268//330
f 260//331 270//331 269//331
f 260//332 261//332 271//332
f 261//333 262//333 272//333
f 262//334 263//334 273//334
f 263//335 264//335 274//335
f 264//336 255//336 265//336
f 266//337 276//337 275//337
f 267//338 277//338 276//338
f 268//339 278//339 277//339
f 269//340 279//340 278//340
f 270//341 280//341 279//341
f 270//342 271//342 281//342
f 271//343 272//343 282//343
f 272//344 273//344 283//344
f 273//345 274//345 284//345
f 274//346 265//346 275//346
f 233//295 232//295 227//295
f 231//295 228//295 227//295
f 230//295 229//295 228//295
f 233//295 226//295 225//295
f 277//296 282//296 283//296
f 278//296 281//296 282//296
f 279//296 280//296 281//296
f 276//296 283//296 284//296
v 0.030000 0.063580 -0.000000
v 0.030000 0.063155 0.002135
v 0.030000 0.061946 0.003946
v 0.030000 0.060135 0.005155
v 0.030000 0.058000 0.005580
v 0.030000 0.055865 0.005155
v 0.030000 0.054054 0.003946
v 0.030000 0.052845 0.002135
v 0.030000 0.052420 -0.000000
v 0.030000 0.052845 -0.002135
v 0.030000 0.054054 -0.003946
v 0.030000 0.055865 -0.005155
v 0.030000 0.058000 -0.005580
v 0.030000 0.060135 -0.005155
v 0.030000 0.061946 -0.003946
v 0.030000 0.063155 -0.002135
v 0.033200 0.067000 -0.000000
v 0.033200 0.066315 0.003444
v 0.033200 0.064364 0.006364
v 0.033200 0.061444 0.008315
v 0.033200 0.058000 0.009000
v 0.033200 0.054556 0.008315
v 0.033200 0.051636 0.006364
v 0.033200 0.049685 0.003444
v 0.033200 0.049000 -0.000000
v 0.033200 0.049685 -0.003444
v 0.033200 0.051636 -0.006364
v 0.033200 0.054556 -0.008315
v 0.033200 0.058000 -0.009000
v 0.033200 0.061444 -0.008315
v 0.033200 0.064364 -0.006364
v 0.033200 0.066315 -0.003444
v 0.037600 0.067000 -0.000000
v 0.037600 0.066315 0.003444
v 0.037600 0.064364 0.006364
v 0.037600 0.061444 0.008315
v 0.037600 0.058000 0.009000
v 0.037600 0.054556 0.008315
v 0.037600 0.051636 0.006364
v 0.037600 0.049685 0.003444
v 0.037600 0.049000 -0.000000
v 0.037600 0.049685 -0.003444
v 0.037600 0.051636 -0.006364
v 0.037600 0.054556 -0.008315
v 0.037600 0.058000 -0.009000
v 0.037600 0.061444 -0.008315
v 0.037600 0.064364 -0.006364
v 0.037600 0.066315 -0.003444
v 0.040000 0.062500 -0.000000
v 0.040000 0.062157 0.001722
v 0.040000 0.061182 0.003182
v 0.040000 0.059722 0.004157
v 0.040000 0.058000 0.004500
v 0.040000 0.056278 0.004157
v 0.040000 0.054818 0.003182
v 0.040000 0.053843 0.001722
v 0.040000 0.053500 -0.000000
v 0.040000 0.053843 -0.001722
v 0.040000 0.054818 -0.003182
v 0.040000 0.056278 -0.004157
v 0.040000 0.058000 -0.004500
v 0.040000 0.059722 -0.004157
v 0.040000 0.061182 -0.003182
v 0.040000 0.062157 -0.001722
v 0.030000 0.058000 -0.000000
v 0.040000 0.058000 -0.000000
vn -0.723600 0.677000 0.134700
vn -0.723500 0.573900 0.383500
vn -0.723600 0.383500 0.573900
vn -0.723600 0.134700 0.677000
vn -0.723500 -0.134700 0.677000
vn -0.723600 -0.383500 0.573900
vn -0.723500 -0.573900 0.383500
vn -0.723600 -0.677000 0.134700
vn -0.723600 -0.677000 -0.134700
vn -0.723500 -0.573900 -0.383500
vn -0.723600 -0.383500 -0.573900
vn -0.723600 -0.134700 -0.677000
vn -0.723500 0.134700 -0.677000
vn -0.723600 0.383500 -0.573900
vn -0.723500 0.573900 -0.383500
vn -0.723600 0.677000 -0.134700
vn 0.000000 0.980800 0.195100
vn 0.000000 0.831500 0.555600
vn 0.000000 0.555600 0.831500
vn 0.000000 0.195100 0.980800
vn 0.000000 -0.195100 0.980800
vn 0.000000 -0.555600 0.831500
vn 0.000000 -0.831500 0.555600
vn 0.000000 -0.980800 0.195100
vn 0.000000 -0.980800 -0.195100
vn 0.000000 -0.831500 -0.555600
vn 0.000000 -0.555600 -0.831500
vn 0.000000 -0.195100 -0.980800
vn 0.000000 0.195100 -0.980800
vn 0.000000 0.555600 -0.831500
vn 0.000000 0.831500 -0.555600
vn 0.000000 0.980800 -0.195100
vn 0.878500 0.468500 0.093200
vn 0.878500 0.397200 0.265400
vn 0.878500 0.265400 0.397200
vn 0.878500 0.093200 0.468500
vn 0.878500 -0.093200 0.468500
vn 0.878500 -0.265400 0.397200
vn 0.878500 -0.397200 0.265400
vn 0.878500 -0.468500 0.093200
vn 0.878500 -0.468500 -0.093200
vn 0.878500 -0.397200 -0.265400
vn 0.878500 -0.265400 -0.397200
vn 0.878500 -0.093200 -0.468500
vn 0.878500 0.093200 -0.468500
vn 0.878500 0.265400 -0.397200
vn 0.878500 0.397200 -0.265400
vn 0.878500 0.468500 -0.093200
vn -1.000000 -0.000000 0.000000
vn 1.000000 -0.000000 0.000000
vn -0.723600 -0.134700 0.677000
vn -0.723600 -0.573900 -0.383500
vn -0.723500 -0.134700 -0.677000
vn -0.723600 0.134700 -0.677000
vn -0.723600 0.573900 -0.383500
vn 0.878500 0.093200 0.468600
f 285//347 302//347 301//347
f 286//348 303//348 302//348
f 288//349 303//349 287//349
f 288//350 305//350 304//350
f 290//351 305//351 289//351
f 291//352 306//352 290//352
f 292//353 307//353 291//353
f 293//354 308//354 292//354
f 293//355 310//355 309//355
f 295//356 310//356 294//356
f 295//357 312//357 311//357
f 296//358 313//358 312//358
f 298//359 313//359 297//359
f 299//360 314//360 298//360
f 300//361 315//361 299//361
f 285//362 316//362 300//362
f 302//363 317//363 301//363
f 303//364 318//364 302//364
f 304//365 319//365 303//365
f 305//366 320//366 304//366
f 306//367 321//367 305//367
f 307//368 322//368 306//368
f 308//369 323//369 307//369
f 309//370 324//370 308//370
f 310//371 325//371 309//371
f 311//372 326//372 310//372
f 312//373 327//373 311//373
f 313//374 328//374 312//374
f 314//375 329//375 313//375
f 315//376 330//376 314//376
f 316//377 331//377 315//377
f 301//378 332//378 316//378
f 318//379 333//379 317//379
f 319//380 334//380 318//380
f 320//381 335//381 319//381
f 321//382 336//382 320//382
f 321//383 338//383 337//383
f 322//384 339//384 338//384
f 324//385 339//385 323//385
f 325//386 340//386 324//386
f 325//387 342//387 341//387
f 326//388 343//388 342//388
f 328//389 343//389 327//389
f 328//390 345//390 344//390
f 330//391 345//391 329//391
f 330//392 347//392 346//392
f 332//393 347//393 331//393
f 332//394 333//394 348//394
f 349//395 286//395 285//395
f 349//395 287//395 286//395
f 349//395 288//395 287//395
f 349//395 289//395 288//395
f 349//395 290//395 289//395
f 349//395 291//395 290//395
f 349//395 292//395 291//395
f 349//395 293//395 292//395
f 349//395 294//395 293//395
f 349//395 295//395 294//395
f 349//395 296//395 295//395
f 349//395 297//395 296//395
f 349//395 298//395 297//395
f 349//395 299//395 298//395
f 349//395 300//395 299//395
f 349//395 285//395 300//395
f 350//396 333//396 334//396
f 350//396 334//396 335//396
f 350//396 335//396 336//396
f 350//396 336//396 337//396
f 350//396 337//396 338//396
f 350//396 338//396 339//396
f 350//396 339//396 340//396
f 350//396 340//396 341//396
f 350//396 341//396 342//396
f 350//396 342//396 343//396
f 350//396 343//396 344//396
f 350//396 344//396 345//396
f 350//396 345//396 346//396
f 350//396 346//396 347//396
f 350//396 347//396 348//396
f 350//396 348//396 333//396
f 285//347 286//347 302//347
f 286//348 287//348 303//348
f 288//349 304//349 303//349
f 288//350 289//350 305//350
f 290//397 306//397 305//397
f 291//352 307//352 306//352
f 292//353 308//353 307//353
f 293//354 309//354 308//354
f 293//355 294//355 310//355
f 295//398 311//398 310//398
f 295//357 296//357 312//357
f 296//399 297//399 313//399
f 298//400 314//400 313//400
f 299//360 315//360 314//360
f 300//401 316//401 315//401
f 285//362 301//362 316//362
f 302//363 318//363 317//363
f 303//364 319//364 318//364
f 304//365 320//365 319//365
f 305//366 321//366 320//366
f 306//367 322//367 321//367
f 307//368 323//368 322//368
f 308//369 324//369 323//369
f 309//370 325//370 324//370
f 310//371 326//371 325//371
f 311//372 327//372 326//372
f 312//373 328//373 327//373
f 313//374 329//374 328//374
f 314//375 330//375 329//375
f 315//376 331//376 330//376
f 316//377 332//377 331//377
f 301//378 317//378 332//378
f 318//379 334//379 333//379
f 319//380 335//380 334//380
f 320//381 336//381 335//381
f 321//402 337//402 336//402
f 321//383 322//383 338//383
f 322//384 323//384 339//384
f 324//385 340//385 339//385
f 325//386 341//386 340//386
f 325//387 326//387 342//387
f 326//388 327//388 343//388
f 328//389 344//389 343//389
f 328//390 329//390 345//390
f 330//391 346//391 345//391
f 330//392 331//392 347//392
f 332//393 348//393 347//393
f 332//394 317//394 333//394
