# Axes: Loom's -- metres, +Y up along the rod from this part's own
# origin, guides and reel toward +Z. No o/g tags: see mesh.rs:266.
# Blender 5.2.0 LTS
# www.blender.org
v -0.000000 0.000000 -0.002609
v -0.001305 0.000000 -0.002260
v -0.002260 0.000000 -0.001305
v -0.002609 0.000000 -0.000000
v -0.002260 0.000000 0.001305
v -0.001305 0.000000 0.002260
v -0.000000 0.000000 0.002609
v 0.001305 0.000000 0.002260
v 0.002260 0.000000 0.001305
v 0.002609 0.000000 0.000000
v 0.002260 0.000000 -0.001305
v 0.001305 0.000000 -0.002260
v -0.000000 0.030900 -0.002566
v -0.001283 0.030900 -0.002222
v -0.002222 0.030900 -0.001283
v -0.002566 0.030900 -0.000000
v -0.002222 0.030900 0.001283
v -0.001283 0.030900 0.002222
v -0.000000 0.030900 0.002566
v 0.001283 0.030900 0.002222
v 0.002222 0.030900 0.001283
v 0.002566 0.030900 0.000000
v 0.002222 0.030900 -0.001283
v 0.001283 0.030900 -0.002222
v -0.000000 0.000000 -0.000000
v -0.000000 0.030900 -0.000000
vn -0.258800 0.001400 -0.965900
vn -0.707100 0.001400 -0.707100
vn -0.965900 0.001400 -0.258800
vn -0.965900 0.001400 0.258800
vn -0.707100 0.001400 0.707100
vn -0.258800 0.001400 0.965900
vn 0.258800 0.001400 0.965900
vn 0.707100 0.001400 0.707100
vn 0.965900 0.001400 0.258800
vn 0.965900 0.001400 -0.258800
vn 0.707100 0.001400 -0.707100
vn 0.258800 0.001400 -0.965900
vn 0.000000 -1.000000 0.000000
vn 0.000000 -1.000000 -0.000100
vn 0.000000 -1.000000 0.000100
vn 0.000000 1.000000 0.000000
vn 0.000000 1.000000 -0.000100
vn 0.000000 1.000000 0.000100
f 1//1 14//1 13//1
f 3//2 14//2 2//2
f 4//3 15//3 3//3
f 4//4 17//4 16//4
f 6//5 17//5 5//5
f 7//6 18//6 6//6
f 7//7 20//7 19//7
f 9//8 20//8 8//8
f 10//9 21//9 9//9
f 10//10 23//10 22//10
f 12//11 23//11 11//11
f 1//12 24//12 12//12
f 25//13 2//13 1//13
f 25//14 3//14 2//14
f 25//15 4//15 3//15
f 25//14 5//14 4//14
f 25//15 6//15 5//15
f 25//13 7//13 6//13
f 25//13 8//13 7//13
f 25//15 9//15 8//15
f 25//14 10//14 9//14
f 25//15 11//15 10//15
f 25//14 12//14 11//14
f 25//13 1//13 12//13
f 26//16 13//16 14//16
f 26//16 14//16 15//16
f 26//17 15//17 16//17
f 26//18 16//18 17//18
f 26//16 17//16 18//16
f 26//16 18//16 19//16
f 26//16 19//16 20//16
f 26//16 20//16 21//16
f 26//18 21//18 22//18
f 26//17 22//17 23//17
f 26//16 23//16 24//16
f 26//16 24//16 13//16
f 1//1 2//1 14//1
f 3//2 15//2 14//2
f 4//3 16//3 15//3
f 4//4 5//4 17//4
f 6//5 18//5 17//5
f 7//6 19//6 18//6
f 7//7 8//7 20//7
f 9//8 21//8 20//8
f 10//9 22//9 21//9
f 10//10 11//10 23//10
f 12//11 24//11 23//11
f 1//12 13//12 24//12
