# Axes: Loom's -- metres, +Y up along the rod from this part's own
# origin, guides and reel toward +Z. No o/g tags: see mesh.rs:266.
# Blender 5.2.0 LTS
# www.blender.org
v -0.030322 0.016479 0.034479
v -0.031536 0.015546 0.036251
v -0.031269 0.013448 0.037261
v -0.029721 0.011766 0.036747
v -0.028058 0.011766 0.035097
v -0.027532 0.013448 0.033553
v -0.028540 0.015546 0.033278
v -0.027178 0.018404 0.037644
v -0.028332 0.017506 0.039474
v -0.028074 0.015404 0.040477
v -0.026598 0.013680 0.039896
v -0.025015 0.013633 0.038169
v -0.024517 0.015297 0.036597
v -0.025480 0.017421 0.036364
v -0.023637 0.020169 0.040495
v -0.024658 0.019343 0.042435
v -0.024417 0.017234 0.043428
v -0.023096 0.015432 0.042727
v -0.021688 0.015292 0.040859
v -0.021255 0.016920 0.039231
v -0.022122 0.019091 0.039069
v -0.019778 0.021754 0.042958
v -0.020646 0.020995 0.044998
v -0.020414 0.018885 0.045989
v -0.019258 0.017012 0.045185
v -0.018049 0.016787 0.043191
v -0.017696 0.018380 0.041509
v -0.018465 0.020590 0.041405
v -0.015650 0.023161 0.044996
v -0.016344 0.022464 0.047123
v -0.016114 0.020355 0.048117
v -0.015132 0.018421 0.047229
v -0.014139 0.018119 0.045129
v -0.013881 0.019676 0.043397
v -0.014554 0.021920 0.043338
v -0.011303 0.024389 0.046581
v -0.011807 0.023749 0.048778
v -0.011570 0.021643 0.049777
v -0.010769 0.019657 0.048826
v -0.010008 0.019287 0.046642
v -0.009860 0.020810 0.044868
v -0.010436 0.023081 0.044841
v -0.006792 0.025440 0.047689
v -0.007093 0.024851 0.049936
v -0.006839 0.022750 0.050941
v -0.006223 0.020719 0.049948
v -0.005707 0.020289 0.047703
v -0.005681 0.021782 0.045898
v -0.006164 0.024075 0.045891
v -0.002174 0.026316 0.048303
v -0.002260 0.025769 0.050579
v -0.001983 0.023673 0.051589
v -0.001553 0.021607 0.050573
v -0.001292 0.021126 0.048294
v -0.001398 0.022592 0.046470
v -0.001791 0.024902 0.046474
v 0.002494 0.027016 0.048414
v 0.002630 0.026504 0.050696
v 0.002935 0.024413 0.051708
v 0.003180 0.022318 0.050689
v 0.003180 0.021796 0.048404
v 0.002935 0.023241 0.046576
v 0.002629 0.025564 0.046580
v 0.007152 0.027541 0.048019
v 0.007513 0.027056 0.050282
v 0.007852 0.024970 0.051293
v 0.007913 0.022853 0.050290
v 0.007650 0.022300 0.048029
v 0.007262 0.023727 0.046212
v 0.007040 0.026060 0.046207
v 0.011743 0.027892 0.047123
v 0.012329 0.027426 0.049342
v 0.012703 0.025343 0.050348
v 0.012584 0.023212 0.049381
v 0.012061 0.022637 0.047171
v 0.011528 0.024052 0.045381
v 0.011386 0.026391 0.045359
v 0.016208 0.028069 0.045736
v 0.017015 0.027612 0.047888
v 0.017426 0.025531 0.048883
v 0.017133 0.023393 0.047971
v 0.016355 0.022807 0.045840
v 0.015679 0.024216 0.044094
v 0.015613 0.026557 0.044048
v 0.020492 0.028072 0.043877
v 0.021512 0.027617 0.045937
v 0.021959 0.025536 0.046917
v 0.021498 0.023397 0.046080
v 0.020475 0.022810 0.044055
v 0.019661 0.024217 0.042368
v 0.019668 0.026559 0.042289
v 0.024542 0.027901 0.041571
v 0.025763 0.027438 0.043516
v 0.026245 0.025357 0.044478
v 0.025624 0.023224 0.043733
v 0.024369 0.022646 0.041841
v 0.023424 0.024057 0.040227
v 0.023501 0.026396 0.040107
v 0.028308 0.027555 0.038847
v 0.029715 0.027077 0.040658
v 0.030227 0.024994 0.041600
v 0.029458 0.022874 0.040963
v 0.027987 0.022314 0.039228
v 0.026922 0.023736 0.037700
v 0.027064 0.026068 0.037530
v 0.031743 0.027036 0.035742
v 0.033319 0.026533 0.037401
v 0.033857 0.024447 0.038321
v 0.032951 0.022348 0.037810
v 0.031283 0.021816 0.036253
v 0.030110 0.023253 0.034821
v 0.030314 0.025576 0.034594
v 0.034806 0.026341 0.032297
v 0.036532 0.025807 0.033789
v 0.037090 0.023716 0.034689
v 0.036060 0.021645 0.034320
v 0.034218 0.021151 0.032959
v 0.032950 0.022608 0.031631
v 0.033212 0.024917 0.031337
v 0.037462 0.025471 0.028560
v 0.039315 0.024897 0.029873
v 0.039888 0.022803 0.030755
v 0.038749 0.020766 0.030541
v 0.036757 0.020320 0.029393
v 0.035410 0.021801 0.028174
v 0.035724 0.024093 0.027803
v 0.039678 0.024424 0.024579
v 0.041636 0.023803 0.025707
v 0.042219 0.021707 0.026575
v 0.040989 0.019713 0.026530
v 0.038871 0.019324 0.025605
v 0.037461 0.020832 0.024498
v 0.037821 0.023102 0.024041
v 0.041432 0.023201 0.020409
v 0.043470 0.022527 0.021348
v 0.044059 0.020429 0.022209
v 0.042756 0.018487 0.022344
v 0.040541 0.018163 0.021651
v 0.039083 0.019701 0.020652
v 0.039479 0.021943 0.020100
v 0.042705 0.021799 0.016107
v 0.044800 0.021066 0.016857
v 0.045392 0.018970 0.017718
v 0.044035 0.017087 0.018042
v 0.041751 0.016837 0.017585
v 0.040259 0.018407 0.016691
v 0.040684 0.020616 0.016033
v 0.043486 0.020218 0.011731
v 0.045616 0.019422 0.012296
v 0.046210 0.017330 0.013166
v 0.044821 0.015516 0.013686
v 0.042494 0.015348 0.013465
v 0.040982 0.016951 0.012669
v 0.041424 0.019118 0.011897
v 0.043771 0.018458 0.007340
v 0.045915 0.017595 0.007728
v 0.046512 0.015511 0.008617
v 0.045112 0.013775 0.009338
v 0.042771 0.013695 0.009347
v 0.041250 0.015330 0.008639
v 0.041695 0.017450 0.007745
v 0.043566 0.016516 0.002994
v 0.045703 0.015583 0.003216
v 0.046306 0.013513 0.004134
v 0.044919 0.011865 0.005057
v 0.042588 0.011880 0.005289
v 0.041067 0.013546 0.004656
v 0.041502 0.015609 0.003635
v 0.041748 0.013425 -0.001922
v 0.043686 0.012292 -0.002595
v 0.045107 0.010940 -0.001314
v 0.044941 0.010385 0.000956
v 0.043314 0.011047 0.002507
v 0.041450 0.012426 0.002169
v 0.040753 0.013484 0.000199
v 0.032499 0.001125 -0.001942
v 0.034279 -0.000209 -0.002677
v 0.035849 -0.001386 -0.001397
v 0.036026 -0.001520 0.000936
v 0.034678 -0.000508 0.002564
v 0.032819 0.000886 0.002261
v 0.031850 0.001613 0.000256
v -0.029568 0.014000 0.035238
v 0.034000 0.000000 -0.000000
vn -0.559200 0.827400 0.052400
vn -0.753700 0.205200 0.624400
vn -0.381400 -0.571500 0.726600
vn 0.279100 -0.918100 0.281300
vn 0.729400 -0.572200 -0.374900
vn 0.630500 0.204600 -0.748700
vn 0.056700 0.827300 -0.558900
vn -0.507100 0.856100 0.099700
vn -0.679700 0.246000 0.691000
vn -0.342000 -0.547800 0.763500
vn 0.254300 -0.931100 0.261300
vn 0.658800 -0.612300 -0.437200
vn 0.567800 0.166700 -0.806100
vn 0.049500 0.821300 -0.568400
vn -0.450600 0.881900 0.138300
vn -0.596600 0.285200 0.750200
vn -0.294600 -0.524700 0.798700
vn 0.230300 -0.941500 0.246000
vn 0.581400 -0.648300 -0.491700
vn 0.495300 0.132200 -0.858600
vn 0.036500 0.814100 -0.579600
vn -0.391900 0.904200 0.169800
vn -0.505300 0.320800 0.801100
vn -0.239300 -0.502600 0.830700
vn 0.207900 -0.949500 0.234900
vn 0.498200 -0.680300 -0.537600
vn 0.413900 0.100200 -0.904800
vn 0.018200 0.806200 -0.591300
vn -0.331300 0.923600 0.193000
vn -0.407200 0.352600 0.842500
vn -0.176800 -0.482100 0.858100
vn 0.187400 -0.955600 0.227400
vn 0.410400 -0.708300 -0.574300
vn 0.324800 0.071200 -0.943100
vn -0.005200 0.798100 -0.602500
vn -0.270600 0.939400 0.210400
vn -0.303500 0.380300 0.873600
vn -0.108100 -0.463400 0.879500
vn 0.169300 -0.960000 0.223000
vn 0.319100 -0.732500 -0.601300
vn 0.229000 0.045500 -0.972400
vn -0.033300 0.790100 -0.612000
vn -0.209900 0.952400 0.221000
vn -0.195700 0.404000 0.893600
vn -0.034300 -0.447000 0.893900
vn 0.153400 -0.963200 0.220900
vn 0.225500 -0.752800 -0.618400
vn 0.128100 0.023400 -0.991500
vn -0.065600 0.782700 -0.618900
vn -0.149700 0.962800 0.224900
vn -0.085200 0.423500 0.901900
vn 0.043400 -0.433100 0.900300
vn 0.139700 -0.965300 0.220500
vn 0.130800 -0.769400 -0.625300
vn 0.023700 0.004900 -0.999700
vn -0.101200 0.776200 -0.622300
vn -0.090600 0.970700 0.222400
vn 0.026400 0.438800 0.898200
vn 0.123600 -0.422000 0.898100
vn 0.127900 -0.966700 0.221500
vn 0.035900 -0.782200 -0.621900
vn -0.082800 -0.009800 -0.996500
vn -0.139300 0.770800 -0.621700
vn -0.032900 0.976300 0.213900
vn 0.137600 0.450400 0.882100
vn 0.204700 -0.413800 0.887100
vn 0.117700 -0.967600 0.223500
vn -0.057900 -0.791500 -0.608400
vn -0.189600 -0.020500 -0.981600
vn -0.178700 0.766600 -0.616700
vn 0.023100 0.979700 0.199200
vn 0.247000 0.457300 0.854400
vn 0.285300 -0.408600 0.867000
vn 0.108700 -0.968000 0.226300
vn -0.149700 -0.797200 -0.584900
vn -0.295000 -0.027200 -0.955100
vn -0.218500 0.764000 -0.607100
vn 0.076900 0.980900 0.178700
vn 0.353000 0.459900 0.814800
vn 0.363800 -0.406500 0.838100
vn 0.100500 -0.968000 0.229800
vn -0.238400 -0.799300 -0.551600
vn -0.397400 -0.029800 -0.917100
vn -0.257500 0.762900 -0.593100
vn 0.128200 0.980000 0.152400
vn 0.454200 0.458300 0.763900
vn 0.438800 -0.407600 0.800900
vn 0.092700 -0.967700 0.234300
vn -0.323100 -0.797900 -0.508800
vn -0.495200 -0.028400 -0.868300
vn -0.294900 0.763300 -0.574900
vn 0.176800 0.976800 0.120600
vn 0.549400 0.452600 0.702400
vn 0.508900 -0.411700 0.756000
vn 0.085000 -0.967100 0.239900
vn -0.402800 -0.793000 -0.457000
vn -0.586900 -0.022900 -0.809300
vn -0.329600 0.765200 -0.553100
vn 0.222100 0.971500 0.083100
vn 0.637100 0.442600 0.631100
vn 0.573100 -0.418800 0.704400
vn 0.077200 -0.966000 0.246900
vn -0.476900 -0.784100 -0.397100
vn -0.671200 -0.012800 -0.741200
vn -0.360900 0.768500 -0.528400
vn 0.263700 0.963800 0.040200
vn 0.716200 0.428400 0.550900
vn 0.630200 -0.428800 0.647200
vn 0.069300 -0.964200 0.255800
vn -0.544000 -0.771900 -0.328900
vn -0.746800 0.000700 -0.665100
vn -0.388200 0.773100 -0.501600
vn 0.301100 0.953500 -0.008100
vn 0.785700 0.410100 0.463100
vn 0.679600 -0.441500 0.585900
vn 0.061200 -0.961700 0.267100
vn -0.603400 -0.756100 -0.253400
vn -0.812700 0.017900 -0.582400
vn -0.411100 0.778700 -0.473900
vn 0.333700 0.940700 -0.061400
vn 0.844700 0.387800 0.368900
vn 0.720700 -0.456600 0.521700
vn 0.053300 -0.958100 0.281300
vn -0.654400 -0.736400 -0.171700
vn -0.868200 0.038800 -0.494700
vn -0.429600 0.785100 -0.446200
vn 0.360900 0.924900 -0.119600
vn 0.892600 0.361300 0.269800
vn 0.753200 -0.473900 0.456200
vn 0.046000 -0.953200 0.298700
vn -0.696100 -0.712900 -0.084500
vn -0.912800 0.063200 -0.403500
vn -0.443600 0.792000 -0.419600
vn 0.382000 0.906000 -0.182200
vn 0.928700 0.331000 0.167400
vn 0.777200 -0.493000 0.390900
vn 0.039700 -0.946700 0.319800
vn -0.728000 -0.685600 0.006900
vn -0.946200 0.090800 -0.310700
vn -0.453500 0.798900 -0.395100
vn 0.396200 0.883900 -0.248500
vn 0.952800 0.296800 0.063400
vn 0.793100 -0.513600 0.327400
vn 0.035200 -0.938100 0.344700
vn -0.749500 -0.654200 0.101300
vn -0.968400 0.121200 -0.217900
vn -0.459800 0.805500 -0.373800
vn 0.403100 0.858200 -0.317900
vn 0.965000 0.259100 -0.040500
vn 0.801400 -0.535100 0.267200
vn 0.033300 -0.927100 0.373400
vn -0.760300 -0.618900 0.197300
vn -0.979800 0.154200 -0.127100
vn -0.463400 0.811300 -0.356400
vn 0.402100 0.828700 -0.389400
vn 0.965500 0.217900 -0.142400
vn 0.803000 -0.557200 0.211400
vn 0.034700 -0.913300 0.405900
vn -0.760200 -0.579600 0.293500
vn -0.981100 0.189400 -0.039800
vn -0.465200 0.815900 -0.343500
vn 0.373900 0.716600 -0.588800
vn 0.791400 0.371800 -0.485300
vn 0.925300 -0.378400 -0.024900
vn -0.059200 -0.939100 0.338600
vn -0.602300 -0.794200 0.080600
vn -0.974300 0.107300 -0.198300
vn -0.469100 0.793200 -0.388300
vn -0.250100 0.189600 -0.949500
vn 0.441800 -0.326900 -0.835400
vn 0.796800 -0.597900 -0.087800
vn 0.539000 -0.404900 0.738600
vn -0.113000 0.089300 0.989600
vn -0.683400 0.515200 0.517200
vn -0.751200 0.561700 -0.346600
vn -0.646700 -0.396200 -0.651800
vn -0.600000 -0.800000 0.000000
vn -0.559300 0.827300 0.052700
vn -0.753800 0.204500 0.624500
vn -0.381000 -0.572500 0.726000
vn 0.630600 0.203400 -0.748900
vn 0.056900 0.826900 -0.559400
vn -0.506900 0.856500 0.097800
vn -0.680500 0.247200 0.689800
vn -0.341600 -0.549500 0.762500
vn 0.254800 -0.931500 0.259400
vn 0.658500 -0.611400 -0.438800
vn 0.566500 0.168000 -0.806700
vn 0.047600 0.821800 -0.567900
vn -0.450600 0.882200 0.136600
vn -0.597300 0.286400 0.749200
vn -0.294300 -0.526200 0.797800
vn 0.230600 -0.941900 0.244200
vn 0.581000 -0.647500 -0.493100
vn 0.494100 0.133300 -0.859100
vn 0.034800 0.814600 -0.578900
vn -0.392000 0.904500 0.168200
vn -0.506000 0.321800 0.800300
vn -0.239200 -0.503900 0.830000
vn 0.207900 -0.949900 0.233300
vn 0.497800 -0.679600 -0.538800
vn 0.412900 0.101300 -0.905100
vn 0.016800 0.806700 -0.590700
vn -0.332200 0.923100 0.193900
vn -0.407800 0.353500 0.841900
vn -0.176900 -0.483200 0.857400
vn 0.187300 -0.955900 0.226100
vn 0.410000 -0.707700 -0.575400
vn 0.323900 0.072200 -0.943300
vn -0.006300 0.798600 -0.601800
vn -0.271300 0.939000 0.211200
vn -0.304000 0.381100 0.873100
vn -0.108300 -0.464400 0.879000
vn 0.169100 -0.960300 0.221800
vn 0.318700 -0.732000 -0.602200
vn 0.228300 0.046400 -0.972500
vn -0.034200 0.790600 -0.611300
vn -0.210400 0.952100 0.221700
vn -0.196200 0.404700 0.893200
vn -0.034500 -0.447900 0.893400
vn 0.153100 -0.963400 0.219900
vn 0.225100 -0.752300 -0.619100
vn 0.127500 0.024100 -0.991500
vn -0.066300 0.783200 -0.618200
vn -0.150100 0.962600 0.225600
vn -0.085600 0.424100 0.901600
vn 0.043200 -0.433900 0.899900
vn 0.139400 -0.965500 0.219800
vn 0.130300 -0.769000 -0.625900
vn 0.023200 0.005500 -0.999700
vn -0.101700 0.776600 -0.621700
vn -0.090900 0.970500 0.223200
vn 0.026100 0.439400 0.897900
vn 0.123300 -0.422600 0.897900
vn 0.127600 -0.966900 0.220900
vn 0.035500 -0.781900 -0.622400
vn -0.083200 -0.009200 -0.996500
vn -0.139600 0.771100 -0.621200
vn -0.033000 0.976200 0.214400
vn 0.137400 0.449900 0.882400
vn 0.204400 -0.414300 0.886900
vn 0.117300 -0.967700 0.223000
vn -0.058300 -0.791200 -0.608800
vn -0.189900 -0.019900 -0.981600
vn -0.178900 0.767000 -0.616200
vn 0.023000 0.979600 0.199800
vn 0.246800 0.456800 0.854600
vn 0.285000 -0.409100 0.866900
vn 0.108300 -0.968100 0.225900
vn -0.150100 -0.796900 -0.585200
vn -0.295300 -0.026600 -0.955000
vn -0.218600 0.764300 -0.606600
vn 0.076800 0.980800 0.179300
vn 0.352900 0.459500 0.815100
vn 0.363500 -0.407000 0.838000
vn 0.100100 -0.968100 0.229500
vn -0.238800 -0.799000 -0.551900
vn -0.397700 -0.029300 -0.917100
vn -0.257600 0.763200 -0.592600
vn 0.128300 0.979900 0.153000
vn 0.454100 0.457900 0.764300
vn 0.438400 -0.408000 0.800800
vn 0.092200 -0.967900 0.234000
vn -0.323500 -0.797600 -0.509100
vn -0.495500 -0.027800 -0.868200
vn -0.294900 0.763600 -0.574400
vn 0.176900 0.976700 0.121100
vn 0.549300 0.452100 0.702800
vn 0.508600 -0.412200 0.756000
vn 0.084500 -0.967200 0.239600
vn -0.403300 -0.792600 -0.457200
vn -0.587200 -0.022300 -0.809200
vn -0.329500 0.765600 -0.552600
vn 0.222300 0.971400 0.083800
vn 0.637000 0.442000 0.631500
vn 0.572600 -0.419300 0.704400
vn 0.076600 -0.966100 0.246700
vn -0.476900 -0.784500 -0.396500
vn -0.671500 -0.013400 -0.740900
vn -0.360700 0.768900 -0.527900
vn 0.264000 0.963700 0.040900
vn 0.716100 0.427800 0.551500
vn 0.629700 -0.429400 0.647400
vn 0.068500 -0.964300 0.255700
vn -0.543900 -0.772300 -0.328200
vn -0.747100 -0.000000 -0.664700
vn -0.388000 0.773600 -0.501100
vn 0.301500 0.953400 -0.007300
vn 0.785700 0.409400 0.463700
vn 0.679000 -0.442100 0.586100
vn 0.060300 -0.961800 0.267000
vn -0.603200 -0.756500 -0.252700
vn -0.813100 0.017200 -0.581900
vn -0.410800 0.779300 -0.473300
vn 0.334300 0.940500 -0.060500
vn 0.844800 0.387000 0.369700
vn 0.720000 -0.457300 0.522000
vn 0.052300 -0.958200 0.281300
vn -0.654000 -0.736900 -0.170700
vn -0.868600 0.038000 -0.494000
vn -0.429100 0.785800 -0.445500
vn 0.361700 0.924700 -0.118700
vn 0.892600 0.360400 0.270700
vn 0.752400 -0.474700 0.456700
vn 0.044800 -0.953300 0.298800
vn -0.695600 -0.713500 -0.083500
vn -0.913200 0.062200 -0.402700
vn -0.442900 0.792700 -0.418900
vn 0.382900 0.905800 -0.181100
vn 0.928800 0.330000 0.168500
vn 0.776300 -0.493900 0.391600
vn 0.038300 -0.946600 0.320100
vn -0.727300 -0.686200 0.008100
vn -0.946600 0.089700 -0.309700
vn -0.452600 0.799700 -0.394500
vn 0.397500 0.883600 -0.247400
vn 0.953100 0.295700 0.064700
vn 0.792100 -0.514500 0.328400
vn 0.033700 -0.937900 0.345100
vn -0.748600 -0.655000 0.102600
vn -0.968800 0.120100 -0.216700
vn -0.458700 0.806500 -0.373100
vn 0.404600 0.857900 -0.316800
vn 0.965400 0.257800 -0.039000
vn 0.800400 -0.536100 0.268400
vn 0.031600 -0.926800 0.374100
vn -0.759200 -0.619800 0.198800
vn -0.980200 0.153000 -0.125600
vn -0.462000 0.812400 -0.355800
vn 0.403800 0.828300 -0.388300
vn 0.966100 0.216500 -0.140800
vn 0.802000 -0.558200 0.212900
vn 0.033000 -0.912900 0.406800
vn -0.758900 -0.580600 0.295000
vn -0.981400 0.188100 -0.038100
vn -0.463500 0.817000 -0.343100
vn 0.274400 0.792800 -0.544200
vn 0.947900 0.151700 -0.280200
vn 0.802600 -0.559700 0.206300
vn 0.023100 -0.956100 0.292200
vn -0.759000 -0.629400 0.166600
vn -0.954300 -0.112000 0.277200
vn -0.558200 0.779600 -0.283900
vn -0.228400 0.178200 -0.957100
vn 0.439800 -0.324700 -0.837300
vn 0.796900 -0.596600 -0.094700
vn 0.558200 -0.413600 0.719300
vn -0.099700 0.082400 0.991600
vn -0.683100 0.514800 0.517900
vn -0.743900 0.560000 -0.364800
f 2//1 8//1 1//1
f 2//2 10//2 9//2
f 3//3 11//3 10//3
f 4//4 12//4 11//4
f 5//5 13//5 12//5
f 7//6 13//6 6//6
f 1//7 14//7 7//7
f 9//8 15//8 8//8
f 10//9 16//9 9//9
f 10//10 18//10 17//10
f 11//11 19//11 18//11
f 12//12 20//12 19//12
f 13//13 21//13 20//13
f 14//14 15//14 21//14
f 16//15 22//15 15//15
f 17//16 23//16 16//16
f 17//17 25//17 24//17
f 18//18 26//18 25//18
f 19//19 27//19 26//19
f 20//20 28//20 27//20
f 21//21 22//21 28//21
f 23//22 29//22 22//22
f 24//23 30//23 23//23
f 24//24 32//24 31//24
f 25//25 33//25 32//25
f 26//26 34//26 33//26
f 27//27 35//27 34//27
f 28//28 29//28 35//28
f 29//29 37//29 36//29
f 31//30 37//30 30//30
f 31//31 39//31 38//31
f 32//32 40//32 39//32
f 33//33 41//33 40//33
f 34//34 42//34 41//34
f 35//35 36//35 42//35
f 36//36 44//36 43//36
f 38//37 44//37 37//37
f 38//38 46//38 45//38
f 39//39 47//39 46//39
f 40//40 48//40 47//40
f 41//41 49//41 48//41
f 42//42 43//42 49//42
f 43//43 51//43 50//43
f 45//44 51//44 44//44
f 45//45 53//45 52//45
f 46//46 54//46 53//46
f 47//47 55//47 54//47
f 48//48 56//48 55//48
f 49//49 50//49 56//49
f 50//50 58//50 57//50
f 52//51 58//51 51//51
f 52//52 60//52 59//52
f 53//53 61//53 60//53
f 54//54 62//54 61//54
f 55//55 63//55 62//55
f 56//56 57//56 63//56
f 57//57 65//57 64//57
f 59//58 65//58 58//58
f 59//59 67//59 66//59
f 60//60 68//60 67//60
f 61//61 69//61 68//61
f 62//62 70//62 69//62
f 63//63 64//63 70//63
f 64//64 72//64 71//64
f 65//65 73//65 72//65
f 66//66 74//66 73//66
f 67//67 75//67 74//67
f 68//68 76//68 75//68
f 69//69 77//69 76//69
f 70//70 71//70 77//70
f 71//71 79//71 78//71
f 72//72 80//72 79//72
f 73//73 81//73 80//73
f 74//74 82//74 81//74
f 75//75 83//75 82//75
f 76//76 84//76 83//76
f 77//77 78//77 84//77
f 78//78 86//78 85//78
f 79//79 87//79 86//79
f 80//80 88//80 87//80
f 81//81 89//81 88//81
f 82//82 90//82 89//82
f 83//83 91//83 90//83
f 84//84 85//84 91//84
f 85//85 93//85 92//85
f 86//86 94//86 93//86
f 87//87 95//87 94//87
f 88//88 96//88 95//88
f 89//89 97//89 96//89
f 90//90 98//90 97//90
f 91//91 92//91 98//91
f 92//92 100//92 99//92
f 93//93 101//93 100//93
f 94//94 102//94 101//94
f 95//95 103//95 102//95
f 96//96 104//96 103//96
f 97//97 105//97 104//97
f 98//98 99//98 105//98
f 99//99 107//99 106//99
f 100//100 108//100 107//100
f 101//101 109//101 108//101
f 102//102 110//102 109//102
f 104//103 110//103 103//103
f 105//104 111//104 104//104
f 105//105 106//105 112//105
f 106//106 114//106 113//106
f 107//107 115//107 114//107
f 108//108 116//108 115//108
f 109//109 117//109 116//109
f 111//110 117//110 110//110
f 112//111 118//111 111//111
f 112//112 113//112 119//112
f 113//113 121//113 120//113
f 114//114 122//114 121//114
f 115//115 123//115 122//115
f 116//116 124//116 123//116
f 118//117 124//117 117//117
f 119//118 125//118 118//118
f 119//119 120//119 126//119
f 120//120 128//120 127//120
f 121//121 129//121 128//121
f 122//122 130//122 129//122
f 123//123 131//123 130//123
f 125//124 131//124 124//124
f 126//125 132//125 125//125
f 126//126 127//126 133//126
f 127//127 135//127 134//127
f 128//128 136//128 135//128
f 129//129 137//129 136//129
f 130//130 138//130 137//130
f 132//131 138//131 131//131
f 133//132 139//132 132//132
f 133//133 134//133 140//133
f 134//134 142//134 141//134
f 135//135 143//135 142//135
f 136//136 144//136 143//136
f 137//137 145//137 144//137
f 139//138 145//138 138//138
f 140//139 146//139 139//139
f 140//140 141//140 147//140
f 141//141 149//141 148//141
f 142//142 150//142 149//142
f 143//143 151//143 150//143
f 144//144 152//144 151//144
f 146//145 152//145 145//145
f 147//146 153//146 146//146
f 147//147 148//147 154//147
f 148//148 156//148 155//148
f 149//149 157//149 156//149
f 150//150 158//150 157//150
f 151//151 159//151 158//151
f 153//152 159//152 152//152
f 154//153 160//153 153//153
f 154//154 155//154 161//154
f 155//155 163//155 162//155
f 156//156 164//156 163//156
f 157//157 165//157 164//157
f 158//158 166//158 165//158
f 160//159 166//159 159//159
f 161//160 167//160 160//160
f 161//161 162//161 168//161
f 163//162 169//162 162//162
f 163//163 171//163 170//163
f 164//164 172//164 171//164
f 165//165 173//165 172//165
f 166//166 174//166 173//166
f 168//167 174//167 167//167
f 162//168 175//168 168//168
f 169//169 177//169 176//169
f 171//170 177//170 170//170
f 172//171 178//171 171//171
f 173//172 179//172 172//172
f 174//173 180//173 173//173
f 174//174 182//174 181//174
f 175//175 176//175 182//175
f 183//176 2//176 1//176
f 183//176 3//176 2//176
f 183//176 4//176 3//176
f 183//176 5//176 4//176
f 183//176 6//176 5//176
f 183//176 7//176 6//176
f 183//176 1//176 7//176
f 184//177 176//177 177//177
f 184//177 177//177 178//177
f 184//177 178//177 179//177
f 184//177 179//177 180//177
f 184//177 180//177 181//177
f 184//177 181//177 182//177
f 184//177 182//177 176//177
f 2//178 9//178 8//178
f 2//179 3//179 10//179
f 3//180 4//180 11//180
f 4//4 5//4 12//4
f 5//5 6//5 13//5
f 7//181 14//181 13//181
f 1//182 8//182 14//182
f 9//183 16//183 15//183
f 10//184 17//184 16//184
f 10//185 11//185 18//185
f 11//186 12//186 19//186
f 12//187 13//187 20//187
f 13//188 14//188 21//188
f 14//189 8//189 15//189
f 16//190 23//190 22//190
f 17//191 24//191 23//191
f 17//192 18//192 25//192
f 18//193 19//193 26//193
f 19//194 20//194 27//194
f 20//195 21//195 28//195
f 21//196 15//196 22//196
f 23//197 30//197 29//197
f 24//198 31//198 30//198
f 24//199 25//199 32//199
f 25//200 26//200 33//200
f 26//201 27//201 34//201
f 27//202 28//202 35//202
f 28//203 22//203 29//203
f 29//204 30//204 37//204
f 31//205 38//205 37//205
f 31//206 32//206 39//206
f 32//207 33//207 40//207
f 33//208 34//208 41//208
f 34//209 35//209 42//209
f 35//210 29//210 36//210
f 36//211 37//211 44//211
f 38//212 45//212 44//212
f 38//213 39//213 46//213
f 39//214 40//214 47//214
f 40//215 41//215 48//215
f 41//216 42//216 49//216
f 42//217 36//217 43//217
f 43//218 44//218 51//218
f 45//219 52//219 51//219
f 45//220 46//220 53//220
f 46//221 47//221 54//221
f 47//222 48//222 55//222
f 48//223 49//223 56//223
f 49//224 43//224 50//224
f 50//225 51//225 58//225
f 52//226 59//226 58//226
f 52//227 53//227 60//227
f 53//228 54//228 61//228
f 54//229 55//229 62//229
f 55//230 56//230 63//230
f 56//231 50//231 57//231
f 57//232 58//232 65//232
f 59//233 66//233 65//233
f 59//234 60//234 67//234
f 60//235 61//235 68//235
f 61//236 62//236 69//236
f 62//237 63//237 70//237
f 63//238 57//238 64//238
f 64//239 65//239 72//239
f 65//240 66//240 73//240
f 66//241 67//241 74//241
f 67//242 68//242 75//242
f 68//243 69//243 76//243
f 69//244 70//244 77//244
f 70//245 64//245 71//245
f 71//246 72//246 79//246
f 72//247 73//247 80//247
f 73//248 74//248 81//248
f 74//249 75//249 82//249
f 75//250 76//250 83//250
f 76//251 77//251 84//251
f 77//252 71//252 78//252
f 78//253 79//253 86//253
f 79//254 80//254 87//254
f 80//255 81//255 88//255
f 81//256 82//256 89//256
f 82//257 83//257 90//257
f 83//258 84//258 91//258
f 84//259 78//259 85//259
f 85//260 86//260 93//260
f 86//261 87//261 94//261
f 87//262 88//262 95//262
f 88//263 89//263 96//263
f 89//264 90//264 97//264
f 90//265 91//265 98//265
f 91//266 85//266 92//266
f 92//267 93//267 100//267
f 93//268 94//268 101//268
f 94//269 95//269 102//269
f 95//270 96//270 103//270
f 96//271 97//271 104//271
f 97//272 98//272 105//272
f 98//273 92//273 99//273
f 99//274 100//274 107//274
f 100//275 101//275 108//275
f 101//276 102//276 109//276
f 102//277 103//277 110//277
f 104//278 111//278 110//278
f 105//279 112//279 111//279
f 105//280 99//280 106//280
f 106//281 107//281 114//281
f 107//282 108//282 115//282
f 108//283 109//283 116//283
f 109//284 110//284 117//284
f 111//285 118//285 117//285
f 112//286 119//286 118//286
f 112//287 106//287 113//287
f 113//288 114//288 121//288
f 114//289 115//289 122//289
f 115//290 116//290 123//290
f 116//291 117//291 124//291
f 118//292 125//292 124//292
f 119//293 126//293 125//293
f 119//294 113//294 120//294
f 120//295 121//295 128//295
f 121//296 122//296 129//296
f 122//297 123//297 130//297
f 123//298 124//298 131//298
f 125//299 132//299 131//299
f 126//300 133//300 132//300
f 126//301 120//301 127//301
f 127//302 128//302 135//302
f 128//303 129//303 136//303
f 129//304 130//304 137//304
f 130//305 131//305 138//305
f 132//306 139//306 138//306
f 133//307 140//307 139//307
f 133//308 127//308 134//308
f 134//309 135//309 142//309
f 135//310 136//310 143//310
f 136//311 137//311 144//311
f 137//312 138//312 145//312
f 139//313 146//313 145//313
f 140//314 147//314 146//314
f 140//315 134//315 141//315
f 141//316 142//316 149//316
f 142//317 143//317 150//317
f 143//318 144//318 151//318
f 144//319 145//319 152//319
f 146//320 153//320 152//320
f 147//321 154//321 153//321
f 147//322 141//322 148//322
f 148//323 149//323 156//323
f 149//324 150//324 157//324
f 150//325 151//325 158//325
f 151//326 152//326 159//326
f 153//327 160//327 159//327
f 154//328 161//328 160//328
f 154//329 148//329 155//329
f 155//330 156//330 163//330
f 156//331 157//331 164//331
f 157//332 158//332 165//332
f 158//333 159//333 166//333
f 160//334 167//334 166//334
f 161//335 168//335 167//335
f 161//336 155//336 162//336
f 163//337 170//337 169//337
f 163//338 164//338 171//338
f 164//339 165//339 172//339
f 165//340 166//340 173//340
f 166//341 167//341 174//341
f 168//342 175//342 174//342
f 162//343 169//343 175//343
f 169//344 170//344 177//344
f 171//345 178//345 177//345
f 172//346 179//346 178//346
f 173//347 180//347 179//347
f 174//348 181//348 180//348
f 174//349 175//349 182//349
f 175//350 169//350 176//350
v -0.033252 0.006909 -0.002821
v -0.038087 0.005292 -0.003397
v -0.041010 0.001200 -0.002383
v -0.040652 -0.003454 -0.000254
v -0.037182 -0.006492 0.001994
v -0.032223 -0.006492 0.003308
v -0.028096 -0.003454 0.003075
v -0.026731 0.001200 0.001403
v -0.028767 0.005292 -0.000926
v -0.035427 0.010005 0.005407
v -0.040059 0.008689 0.005335
v -0.042850 0.004945 0.006514
v -0.042492 0.000525 0.008392
v -0.039155 -0.002503 0.010090
v -0.034399 -0.002723 0.010815
v -0.030449 -0.000030 0.010226
v -0.029155 0.004314 0.008600
v -0.031121 0.008278 0.006696
v -0.035629 0.012815 0.014596
v -0.039775 0.011978 0.015376
v -0.042273 0.008812 0.016872
v -0.041953 0.004799 0.018383
v -0.038966 0.001815 0.019203
v -0.034709 0.001257 0.018947
v -0.031174 0.003387 0.017735
v -0.030016 0.007207 0.016135
v -0.031775 0.010930 0.014895
v -0.033617 0.015424 0.024115
v -0.036979 0.014982 0.025510
v -0.039001 0.012443 0.027217
v -0.038737 0.008995 0.028437
v -0.036309 0.006251 0.028599
v -0.032855 0.005496 0.027628
v -0.029989 0.007082 0.025978
v -0.029054 0.010267 0.024421
v -0.030487 0.013562 0.023685
v -0.029195 0.017930 0.033533
v -0.031774 0.017678 0.034924
v -0.033321 0.015705 0.036462
v -0.033112 0.012934 0.037428
v -0.031245 0.010662 0.037368
v -0.028593 0.009952 0.036312
v -0.026398 0.011136 0.034754
v -0.025686 0.013660 0.033422
v -0.026790 0.016343 0.032939
v -0.034000 0.000000 -0.000000
v -0.029568 0.014000 0.035238
vn -0.247900 0.883300 -0.397900
vn -0.797700 0.478900 -0.366500
vn -0.979700 -0.140200 -0.143600
vn -0.707600 -0.687000 0.165600
vn -0.105300 -0.902000 0.418700
vn 0.538000 -0.680400 0.497600
vn 0.919800 -0.136300 0.368000
vn 0.871900 0.482200 0.085000
vn 0.411500 0.884600 -0.219400
vn -0.257600 0.922400 -0.287700
vn -0.815000 0.557100 -0.159400
vn -0.996100 -0.049100 0.073800
vn -0.713300 -0.629600 0.307800
vn -0.092100 -0.899100 0.428000
vn 0.569400 -0.729600 0.378800
vn 0.958900 -0.211700 0.188900
vn 0.909700 0.411800 -0.054200
vn 0.423800 0.871100 -0.248000
vn -0.231400 0.949600 -0.211300
vn -0.778100 0.627400 0.028700
vn -0.956200 0.033300 0.290700
vn -0.688500 -0.564100 0.455800
vn -0.071300 -0.894100 0.442300
vn 0.576700 -0.775900 0.255600
vn 0.958200 -0.285900 -0.009600
vn 0.909900 0.343700 -0.232500
vn 0.436400 0.842400 -0.316100
vn -0.186300 0.967700 -0.170000
vn -0.696900 0.692300 0.187100
vn -0.863600 0.108000 0.492500
vn -0.613400 -0.506800 0.605700
vn -0.058400 -0.877900 0.475300
vn 0.545300 -0.823700 0.155100
vn 0.908300 -0.365800 -0.202800
vn 0.860700 0.277700 -0.426800
vn 0.428500 0.803800 -0.412700
vn 0.236000 -0.389200 -0.890400
vn 0.423900 0.326300 0.844900
vn -0.244800 0.883600 -0.399100
vn -0.797600 0.479000 -0.366600
vn -0.979500 -0.140900 -0.143600
vn -0.708100 -0.686400 0.165600
vn -0.111300 -0.900600 0.420000
vn 0.530900 -0.682900 0.501800
vn 0.919300 -0.137000 0.369000
vn 0.875900 0.475000 0.084400
vn 0.419300 0.880600 -0.220600
vn -0.242100 0.924000 -0.295800
vn -0.810700 0.561800 -0.164600
vn -0.995800 -0.050900 0.075500
vn -0.720500 -0.620700 0.309100
vn -0.107300 -0.894600 0.433700
vn 0.558000 -0.733700 0.387700
vn 0.957900 -0.213800 0.191500
vn 0.905800 0.418900 -0.063300
vn 0.440700 0.861100 -0.253600
vn -0.216900 0.950600 -0.221900
vn -0.774400 0.632200 0.023000
vn -0.955600 0.030400 0.293100
vn -0.677700 -0.572200 0.461800
vn -0.089100 -0.887400 0.452300
vn 0.563000 -0.781300 0.269300
vn 0.956600 -0.291500 -0.003300
vn 0.906500 0.349300 -0.237400
vn 0.450600 0.832100 -0.323300
vn -0.196600 0.966000 -0.167900
vn -0.702200 0.686400 0.189200
vn -0.863300 0.106700 0.493300
vn -0.605500 -0.513500 0.608000
vn -0.046600 -0.879200 0.474100
vn 0.551200 -0.820200 0.153400
vn 0.909100 -0.363700 -0.203200
vn 0.860100 0.278600 -0.427300
vn 0.423000 0.806400 -0.413200
f 186//351 194//351 185//351
f 187//352 195//352 186//352
f 187//353 197//353 196//353
f 188//354 198//354 197//354
f 189//355 199//355 198//355
f 190//356 200//356 199//356
f 191//357 201//357 200//357
f 193//358 201//358 192//358
f 185//359 202//359 193//359
f 195//360 203//360 194//360
f 196//361 204//361 195//361
f 197//362 205//362 196//362
f 197//363 207//363 206//363
f 198//364 208//364 207//364
f 199//365 209//365 208//365
f 200//366 210//366 209//366
f 201//367 211//367 210//367
f 194//368 211//368 202//368
f 204//369 212//369 203//369
f 205//370 213//370 204//370
f 206//371 214//371 205//371
f 207//372 215//372 206//372
f 207//373 217//373 216//373
f 208//374 218//374 217//374
f 209//375 219//375 218//375
f 210//376 220//376 219//376
f 203//377 220//377 211//377
f 212//378 222//378 221//378
f 213//379 223//379 222//379
f 215//380 223//380 214//380
f 216//381 224//381 215//381
f 217//382 225//382 216//382
f 218//383 226//383 217//383
f 219//384 227//384 218//384
f 219//385 229//385 228//385
f 220//386 221//386 229//386
f 230//387 186//387 185//387
f 230//387 187//387 186//387
f 230//387 188//387 187//387
f 230//387 189//387 188//387
f 230//387 190//387 189//387
f 230//387 191//387 190//387
f 230//387 192//387 191//387
f 230//387 193//387 192//387
f 230//387 185//387 193//387
f 231//388 221//388 222//388
f 231//388 222//388 223//388
f 231//388 223//388 224//388
f 231//388 224//388 225//388
f 231//388 225//388 226//388
f 231//388 226//388 227//388
f 231//388 227//388 228//388
f 231//388 228//388 229//388
f 231//388 229//388 221//388
f 186//389 195//389 194//389
f 187//390 196//390 195//390
f 187//391 188//391 197//391
f 188//392 189//392 198//392
f 189//393 190//393 199//393
f 190//394 191//394 200//394
f 191//395 192//395 201//395
f 193//396 202//396 201//396
f 185//397 194//397 202//397
f 195//398 204//398 203//398
f 196//399 205//399 204//399
f 197//400 206//400 205//400
f 197//401 198//401 207//401
f 198//402 199//402 208//402
f 199//403 200//403 209//403
f 200//404 201//404 210//404
f 201//405 202//405 211//405
f 194//406 203//406 211//406
f 204//407 213//407 212//407
f 205//408 214//408 213//408
f 206//409 215//409 214//409
f 207//410 216//410 215//410
f 207//411 208//411 217//411
f 208//412 209//412 218//412
f 209//413 210//413 219//413
f 210//414 211//414 220//414
f 203//415 212//415 220//415
f 212//416 213//416 222//416
f 213//417 214//417 223//417
f 215//418 224//418 223//418
f 216//419 225//419 224//419
f 217//420 226//420 225//420
f 218//421 227//421 226//421
f 219//422 228//422 227//422
f 219//423 220//423 229//423
f 220//424 212//424 221//424
v -0.033081 0.019281 0.032047
v -0.035219 0.018046 0.034886
v -0.035829 0.014917 0.036884
v -0.034626 0.011359 0.037107
v -0.032173 0.009037 0.035450
v -0.029618 0.009037 0.032689
v -0.028156 0.011359 0.030115
v -0.028471 0.014917 0.028933
v -0.030416 0.018046 0.029696
v -0.028729 0.018600 0.036074
v -0.029968 0.017883 0.037721
v -0.030322 0.016068 0.038880
v -0.029625 0.014005 0.039009
v -0.028202 0.012658 0.038048
v -0.026720 0.012658 0.036447
v -0.025872 0.014005 0.034954
v -0.026055 0.016068 0.034268
v -0.027183 0.017883 0.034711
v -0.025323 0.022354 0.039226
v -0.027460 0.021118 0.042065
v -0.028070 0.017990 0.044063
v -0.026868 0.014432 0.044286
v -0.024415 0.012110 0.042629
v -0.021859 0.012110 0.039868
v -0.020398 0.014432 0.037294
v -0.020713 0.017990 0.036112
v -0.022658 0.021118 0.036875
v -0.031954 0.014000 0.033090
v -0.024196 0.017073 0.040269
vn -0.136600 0.941800 0.307100
vn -0.383900 0.549000 0.742400
vn -0.330600 -0.052700 0.942300
vn -0.001500 -0.581900 0.813300
vn 0.449200 -0.790900 0.415600
vn 0.810700 -0.581900 -0.064500
vn 0.913900 -0.052700 -0.402500
vn 0.710500 0.549100 -0.440200
vn 0.295600 0.941800 -0.160000
vn -0.653800 0.737000 -0.171500
vn -0.901000 0.344200 0.263800
vn -0.847700 -0.257500 0.463800
vn -0.518700 -0.786700 0.334700
vn -0.068000 -0.995700 -0.062900
vn 0.293600 -0.786700 -0.543000
vn 0.396700 -0.257500 -0.881100
vn 0.193300 0.344200 -0.918800
vn -0.221600 0.737000 -0.638500
vn -0.704800 -0.279100 -0.652200
vn 0.704800 0.279100 0.652200
vn -0.383900 0.549100 0.742400
vn -0.001600 -0.581900 0.813300
vn 0.293500 -0.786700 -0.543100
f 233//425 241//425 232//425
f 234//426 242//426 233//426
f 235//427 243//427 234//427
f 235//428 245//428 244//428
f 237//429 245//429 236//429
f 237//430 247//430 246//430
f 238//431 248//431 247//431
f 239//432 249//432 248//432
f 232//433 249//433 240//433
f 241//434 251//434 250//434
f 242//435 252//435 251//435
f 244//436 252//436 243//436
f 244//437 254//437 253//437
f 246//438 254//438 245//438
f 246//439 256//439 255//439
f 248//440 256//440 247//440
f 249//441 257//441 248//441
f 249//442 250//442 258//442
f 259//443 233//443 232//443
f 259//443 234//443 233//443
f 259//443 235//443 234//443
f 259//443 236//443 235//443
f 259//443 237//443 236//443
f 259//443 238//443 237//443
f 259//443 239//443 238//443
f 259//443 240//443 239//443
f 259//443 232//443 240//443
f 260//444 250//444 251//444
f 260//444 251//444 252//444
f 260//444 252//444 253//444
f 260//444 253//444 254//444
f 260//444 254//444 255//444
f 260//444 255//444 256//444
f 260//444 256//444 257//444
f 260//444 257//444 258//444
f 260//444 258//444 250//444
f 233//425 242//425 241//425
f 234//445 243//445 242//445
f 235//427 244//427 243//427
f 235//446 236//446 245//446
f 237//429 246//429 245//429
f 237//430 238//430 247//430
f 238//431 239//431 248//431
f 239//432 240//432 249//432
f 232//433 241//433 249//433
f 241//434 242//434 251//434
f 242//435 243//435 252//435
f 244//436 253//436 252//436
f 244//437 245//437 254//437
f 246//438 255//438 254//438
f 246//447 247//447 256//447
f 248//440 257//440 256//440
f 249//441 258//441 257//441
f 249//442 241//442 250//442
v 0.032487 -0.004293 0.000345
v 0.032487 0.003350 0.002707
v 0.035513 0.004293 -0.000345
v 0.035513 -0.003350 -0.002707
v 0.047196 -0.007018 0.013224
v 0.047196 -0.001668 0.014878
v 0.049397 -0.000982 0.012658
v 0.049397 -0.006332 0.011004
vn -0.725900 0.203100 -0.657100
vn 0.725900 -0.203100 0.657100
vn -0.665400 -0.220500 0.713200
vn 0.044200 0.941300 0.334700
vn 0.709600 0.208100 -0.673200
vn 0.044200 -0.966000 -0.254800
f 261//448 263//448 264//448
f 267//449 265//449 268//449
f 261//450 266//450 262//450
f 266//451 263//451 262//451
f 263//452 268//452 264//452
f 264//453 265//453 261//453
f 261//448 262//448 263//448
f 267//449 266//449 265//449
f 261//450 265//450 266//450
f 266//451 267//451 263//451
f 263//452 267//452 268//452
f 264//453 268//453 265//453
