# Axes: Loom's -- metres, +Y up along the rod from this part's own
# origin, guides and reel toward +Z. No o/g tags: see mesh.rs:266.
# Blender 5.2.0 LTS
# www.blender.org
v -0.000000 0.000000 -0.002378
v -0.001189 0.000000 -0.002060
v -0.002060 0.000000 -0.001189
v -0.002378 0.000000 -0.000000
v -0.002060 0.000000 0.001189
v -0.001189 0.000000 0.002060
v -0.000000 0.000000 0.002378
v 0.001189 0.000000 0.002060
v 0.002060 0.000000 0.001189
v 0.002378 0.000000 0.000000
v 0.002060 0.000000 -0.001189
v 0.001189 0.000000 -0.002060
v -0.000000 0.042600 -0.002334
v -0.001167 0.042600 -0.002021
v -0.002021 0.042600 -0.001167
v -0.002334 0.042600 -0.000000
v -0.002021 0.042600 0.001167
v -0.001167 0.042600 0.002021
v -0.000000 0.042600 0.002334
v 0.001167 0.042600 0.002021
v 0.002021 0.042600 0.001167
v 0.002334 0.042600 0.000000
v 0.002021 0.042600 -0.001167
v 0.001167 0.042600 -0.002021
v -0.000000 0.000000 -0.000000
v -0.000000 0.042600 -0.000000
vn -0.258800 0.001000 -0.965900
vn -0.707100 0.001000 -0.707100
vn -0.965900 0.001000 -0.258800
vn -0.965900 0.001000 0.258800
vn -0.707100 0.001000 0.707100
vn -0.258800 0.001000 0.965900
vn 0.258800 0.001000 0.965900
vn 0.707100 0.001000 0.707100
vn 0.965900 0.001000 0.258800
vn 0.965900 0.001000 -0.258800
vn 0.707100 0.001000 -0.707100
vn 0.258800 0.001000 -0.965900
vn 0.000000 -1.000000 0.000000
vn 0.000000 -1.000000 0.000100
vn 0.000000 -1.000000 -0.000100
vn 0.000000 1.000000 0.000000
f 2//1 13//1 1//1
f 3//2 14//2 2//2
f 4//3 15//3 3//3
f 5//4 16//4 4//4
f 6//5 17//5 5//5
f 7//6 18//6 6//6
f 8//7 19//7 7//7
f 9//8 20//8 8//8
f 10//9 21//9 9//9
f 11//10 22//10 10//10
f 12//11 23//11 11//11
f 1//12 24//12 12//12
f 25//13 2//13 1//13
f 25//14 3//14 2//14
f 25//15 4//15 3//15
f 25//14 5//14 4//14
f 25//15 6//15 5//15
f 25//13 7//13 6//13
f 25//13 8//13 7//13
f 25//15 9//15 8//15
f 25//14 10//14 9//14
f 25//15 11//15 10//15
f 25//14 12//14 11//14
f 25//13 1//13 12//13
f 26//16 13//16 14//16
f 26//16 14//16 15//16
f 26//16 15//16 16//16
f 26//16 16//16 17//16
f 26//16 17//16 18//16
f 26//16 18//16 19//16
f 26//16 19//16 20//16
f 26//16 20//16 21//16
f 26//16 21//16 22//16
f 26//16 22//16 23//16
f 26//16 23//16 24//16
f 26//16 24//16 13//16
f 2//1 14//1 13//1
f 3//2 15//2 14//2
f 4//3 16//3 15//3
f 5//4 17//4 16//4
f 6//5 18//5 17//5
f 7//6 19//6 18//6
f 8//7 20//7 19//7
f 9//8 21//8 20//8
f 10//9 22//9 21//9
f 11//10 23//10 22//10
f 12//11 24//11 23//11
f 1//12 13//12 24//12
v -0.000070 0.036310 0.009005
v -0.000337 0.035737 0.008045
v -0.000266 0.034589 0.008023
v 0.000070 0.034015 0.008960
v 0.000337 0.034589 0.009921
v 0.000266 0.035737 0.009943
v -0.002567 0.036139 0.009821
v -0.003078 0.035549 0.008977
v -0.002950 0.034408 0.008914
v -0.002312 0.033857 0.009695
v -0.001801 0.034447 0.010540
v -0.001928 0.035588 0.010603
v -0.004115 0.035690 0.011971
v -0.004967 0.035042 0.011550
v -0.004799 0.033919 0.011367
v -0.003779 0.033444 0.011605
v -0.002927 0.034092 0.012026
v -0.003095 0.035215 0.012208
v -0.004083 0.035140 0.014577
v -0.004955 0.034402 0.014710
v -0.004818 0.033295 0.014429
v -0.003810 0.032927 0.014016
v -0.002939 0.033665 0.013883
v -0.003075 0.034772 0.014164
v -0.002508 0.034702 0.016656
v -0.003056 0.033886 0.017254
v -0.002987 0.032787 0.016924
v -0.002371 0.032502 0.015996
v -0.001823 0.033318 0.015398
v -0.001891 0.034417 0.015728
v -0.000000 0.034539 0.017432
v -0.000000 0.033702 0.018221
v -0.000000 0.032600 0.017890
v -0.000000 0.032336 0.016771
v -0.000000 0.033173 0.015982
v -0.000000 0.034274 0.016313
v 0.002484 0.034712 0.016625
v 0.003046 0.033925 0.017248
v 0.003001 0.032815 0.016949
v 0.002394 0.032492 0.016027
v 0.001833 0.033279 0.015404
v 0.001878 0.034389 0.015703
v 0.004006 0.035153 0.014554
v 0.004922 0.034477 0.014715
v 0.004863 0.033357 0.014457
v 0.003888 0.032914 0.014039
v 0.002972 0.033590 0.013878
v 0.003031 0.034709 0.014136
v 0.003995 0.035694 0.012011
v 0.004917 0.035152 0.011590
v 0.004869 0.034024 0.011366
v 0.003899 0.033440 0.011564
v 0.002977 0.033982 0.011986
v 0.003024 0.035109 0.012209
v 0.002478 0.036128 0.009970
v 0.003264 0.035644 0.009283
v 0.003225 0.034514 0.009072
v 0.002401 0.033868 0.009547
v 0.001615 0.034352 0.010233
v 0.001654 0.035481 0.010445
vn -0.208900 0.864000 -0.458200
vn -0.322700 0.016100 -0.946400
vn -0.111900 -0.852900 -0.509900
vn 0.203400 -0.856200 0.474900
vn 0.278300 -0.001700 0.960500
vn 0.090400 0.863700 0.495900
vn -0.525900 0.825300 -0.205800
vn -0.803800 -0.023500 -0.594400
vn -0.307200 -0.861900 -0.403400
vn 0.519300 -0.825700 0.220500
vn 0.794400 0.020100 0.607100
vn 0.301500 0.857000 0.417900
vn -0.622100 0.764500 0.168800
vn -0.992900 -0.117400 -0.020000
vn -0.403300 -0.896100 -0.185200
vn 0.624600 -0.765200 -0.155900
vn 0.992900 0.114200 0.032600
vn 0.407000 0.891700 0.198000
vn -0.485300 0.705300 0.516700
vn -0.802900 -0.216700 0.555300
vn -0.342100 -0.937700 0.059900
vn 0.493100 -0.705400 -0.509200
vn 0.809100 0.214600 -0.547100
vn 0.350700 0.935000 -0.053700
vn -0.177800 0.674800 0.716300
vn -0.305000 -0.273800 0.912100
vn -0.133900 -0.964400 0.228100
vn 0.186300 -0.673500 -0.715300
vn 0.313300 0.273100 -0.909500
vn 0.143100 0.963200 -0.227600
vn 0.180900 0.686800 0.704000
vn 0.310900 -0.259000 0.914500
vn 0.144300 -0.959700 0.241000
vn -0.174900 -0.684900 -0.707300
vn -0.304200 0.259300 -0.916600
vn -0.138100 0.959600 -0.245100
vn 0.458400 0.738700 0.494200
vn 0.809200 -0.171800 0.561900
vn 0.381900 -0.920200 0.085300
vn -0.456200 -0.736900 -0.498900
vn -0.805900 0.172700 -0.566400
vn -0.379600 0.920700 -0.091000
vn 0.555900 0.813500 0.170700
vn 0.999100 -0.040200 -0.010300
vn 0.479600 -0.857900 -0.184300
vn -0.556900 -0.811900 -0.175100
vn -0.999100 0.041100 0.005800
vn -0.480800 0.858300 0.179500
vn 0.433100 0.891600 -0.132100
vn 0.818100 0.078500 -0.569700
vn 0.391200 -0.801800 -0.451800
vn -0.450100 -0.880700 0.147300
vn -0.795300 -0.085200 0.600200
vn -0.369800 0.808400 0.457900
vn 0.211600 0.896500 -0.389300
vn 0.325900 0.038400 -0.944600
vn 0.184400 -0.723900 -0.664800
vn -0.165100 -0.885300 0.434600
vn -0.263300 -0.168800 0.949800
vn -0.130500 0.690200 0.711700
vn -0.217400 0.857200 -0.466900
vn -0.315000 -0.000800 -0.949100
vn -0.095000 -0.864000 -0.494400
vn 0.191700 -0.865100 0.463600
vn 0.288900 -0.020500 0.957100
vn 0.108900 0.852000 0.512000
vn -0.540000 0.807400 -0.237500
vn -0.792000 -0.055000 -0.608000
vn -0.270400 -0.876800 -0.397600
vn 0.551900 -0.802600 0.226400
vn 0.801500 0.056800 0.595300
vn 0.283100 0.877200 0.387700
vn -0.645300 0.748300 0.154000
vn -0.989200 -0.142300 -0.035300
vn -0.375100 -0.905400 -0.199000
vn 0.647800 -0.743400 -0.166600
vn 0.989300 0.144400 0.022800
vn 0.378600 0.906600 0.186500
vn -0.506000 0.690100 0.517400
vn -0.805600 -0.237000 0.543000
vn -0.329400 -0.943500 0.037000
vn 0.501300 -0.686200 -0.527200
vn 0.799600 0.238400 -0.551200
vn 0.325600 0.944300 -0.047900
vn -0.189800 0.660800 0.726200
vn -0.310700 -0.290900 0.904900
vn -0.135700 -0.968800 0.207200
vn 0.181800 -0.658200 -0.730600
vn 0.302500 0.291100 -0.907600
vn 0.128400 0.969000 -0.211300
vn 0.179200 0.674600 0.716100
vn 0.305500 -0.273700 0.912000
vn 0.133900 -0.964500 0.227600
vn -0.186500 -0.673700 -0.715000
vn -0.312200 0.273200 -0.909900
vn -0.141000 0.963400 -0.227800
vn 0.464200 0.729300 0.502600
vn 0.806100 -0.184200 0.562400
vn 0.369300 -0.925800 0.081100
vn -0.468700 -0.729300 -0.498400
vn -0.809400 0.183100 -0.557900
vn -0.373700 0.924300 -0.077800
vn 0.564900 0.806800 0.173300
vn 0.998700 -0.050500 -0.008900
vn 0.470400 -0.863600 -0.181300
vn -0.565900 -0.807000 -0.168600
vn -0.998700 0.049400 0.013400
vn -0.471600 0.862100 0.185500
vn 0.454200 0.880200 -0.137700
vn 0.818300 0.078700 -0.569300
vn 0.375200 -0.810000 -0.450800
vn -0.425800 -0.893600 0.142000
vn -0.795600 -0.085400 0.599800
vn -0.388400 0.799300 0.458500
vn 0.207800 0.813200 -0.543600
vn 0.287100 0.166800 -0.943300
vn 0.083500 -0.836500 -0.541600
vn -0.280100 -0.788100 0.548200
vn -0.346000 -0.039500 0.937400
vn -0.151300 0.818100 0.554900
f 28//17 33//17 27//17
f 28//18 35//18 34//18
f 29//19 36//19 35//19
f 30//20 37//20 36//20
f 32//21 37//21 31//21
f 27//22 38//22 32//22
f 33//23 40//23 39//23
f 34//24 41//24 40//24
f 35//25 42//25 41//25
f 36//26 43//26 42//26
f 37//27 44//27 43//27
f 38//28 39//28 44//28
f 39//29 46//29 45//29
f 40//30 47//30 46//30
f 41//31 48//31 47//31
f 42//32 49//32 48//32
f 43//33 50//33 49//33
f 44//34 45//34 50//34
f 45//35 52//35 51//35
f 46//36 53//36 52//36
f 47//37 54//37 53//37
f 48//38 55//38 54//38
f 49//39 56//39 55//39
f 50//40 51//40 56//40
f 51//41 58//41 57//41
f 52//42 59//42 58//42
f 53//43 60//43 59//43
f 54//44 61//44 60//44
f 55//45 62//45 61//45
f 56//46 57//46 62//46
f 57//47 64//47 63//47
f 58//48 65//48 64//48
f 59//49 66//49 65//49
f 60//50 67//50 66//50
f 61//51 68//51 67//51
f 62//52 63//52 68//52
f 63//53 70//53 69//53
f 64//54 71//54 70//54
f 65//55 72//55 71//55
f 66//56 73//56 72//56
f 67//57 74//57 73//57
f 68//58 69//58 74//58
f 69//59 76//59 75//59
f 70//60 77//60 76//60
f 71//61 78//61 77//61
f 72//62 79//62 78//62
f 73//63 80//63 79//63
f 74//64 75//64 80//64
f 75//65 82//65 81//65
f 77//66 82//66 76//66
f 78//67 83//67 77//67
f 79//68 84//68 78//68
f 79//69 86//69 85//69
f 80//70 81//70 86//70
f 82//71 27//71 81//71
f 82//72 29//72 28//72
f 84//73 29//73 83//73
f 85//74 30//74 84//74
f 86//75 31//75 85//75
f 81//76 32//76 86//76
f 28//77 34//77 33//77
f 28//78 29//78 35//78
f 29//79 30//79 36//79
f 30//80 31//80 37//80
f 32//81 38//81 37//81
f 27//82 33//82 38//82
f 33//83 34//83 40//83
f 34//84 35//84 41//84
f 35//85 36//85 42//85
f 36//86 37//86 43//86
f 37//87 38//87 44//87
f 38//88 33//88 39//88
f 39//89 40//89 46//89
f 40//90 41//90 47//90
f 41//91 42//91 48//91
f 42//92 43//92 49//92
f 43//93 44//93 50//93
f 44//94 39//94 45//94
f 45//95 46//95 52//95
f 46//96 47//96 53//96
f 47//97 48//97 54//97
f 48//98 49//98 55//98
f 49//99 50//99 56//99
f 50//100 45//100 51//100
f 51//101 52//101 58//101
f 52//102 53//102 59//102
f 53//103 54//103 60//103
f 54//104 55//104 61//104
f 55//105 56//105 62//105
f 56//106 51//106 57//106
f 57//107 58//107 64//107
f 58//108 59//108 65//108
f 59//109 60//109 66//109
f 60//110 61//110 67//110
f 61//111 62//111 68//111
f 62//112 57//112 63//112
f 63//113 64//113 70//113
f 64//114 65//114 71//114
f 65//115 66//115 72//115
f 66//116 67//116 73//116
f 67//117 68//117 74//117
f 68//118 63//118 69//118
f 69//119 70//119 76//119
f 70//120 71//120 77//120
f 71//121 72//121 78//121
f 72//122 73//122 79//122
f 73//123 74//123 80//123
f 74//124 69//124 75//124
f 75//125 76//125 82//125
f 77//126 83//126 82//126
f 78//127 84//127 83//127
f 79//128 85//128 84//128
f 79//129 80//129 86//129
f 80//130 75//130 81//130
f 82//131 28//131 27//131
f 82//132 83//132 29//132
f 84//133 30//133 29//133
f 85//134 31//134 30//134
f 86//135 32//135 31//135
f 81//136 27//136 32//136
v -0.003500 0.029396 0.000676
v 0.003500 0.029396 0.000676
v 0.003500 0.027204 0.003008
v -0.003500 0.027204 0.003008
v -0.001200 0.036622 0.008018
v 0.001200 0.036622 0.008018
v 0.001200 0.034978 0.009766
v -0.001200 0.034978 0.009766
vn 0.000000 -0.728700 -0.684900
vn 0.000000 0.728600 0.684900
vn 0.000000 0.712700 -0.701500
vn 0.975900 0.158900 0.149300
vn 0.000000 -0.656100 0.754700
vn -0.975900 0.158900 0.149300
f 88//137 90//137 87//137
f 93//138 91//138 94//138
f 91//139 88//139 87//139
f 92//140 89//140 88//140
f 93//141 90//141 89//141
f 90//142 91//142 87//142
f 88//137 89//137 90//137
f 93//138 92//138 91//138
f 91//139 92//139 88//139
f 92//140 93//140 89//140
f 93//141 94//141 90//141
f 90//142 94//142 91//142
v 0.002000 0.014318 0.003042
v -0.002000 0.014318 0.003042
v -0.002000 0.014282 0.002243
v 0.002000 0.014282 0.002243
v 0.003000 0.039348 0.002641
v -0.003000 0.039348 0.002641
v -0.003000 0.039252 0.000443
v 0.003000 0.039252 0.000443
vn 0.000000 -0.999000 0.043700
vn 0.000000 0.999000 -0.044000
vn 0.000000 0.016000 0.999900
vn -0.999200 -0.039900 0.001700
vn 0.000000 -0.071900 -0.997400
vn 0.999200 -0.039900 0.001700
vn 0.000000 -0.999000 0.044200
f 96//143 98//143 95//143
f 101//144 99//144 102//144
f 99//145 96//145 95//145
f 96//146 101//146 97//146
f 101//147 98//147 97//147
f 102//148 95//148 98//148
f 96//149 97//149 98//149
f 101//144 100//144 99//144
f 99//145 100//145 96//145
f 96//146 100//146 101//146
f 101//147 102//147 98//147
f 102//148 99//148 95//148
