# Axes: Loom's -- metres, +Y up along the rod from this part's own
# origin, guides and reel toward +Z. No o/g tags: see mesh.rs:266.
# Blender 5.2.0 LTS
# www.blender.org
v -0.000000 0.000000 -0.005999
v -0.002999 0.000000 -0.005195
v -0.005195 0.000000 -0.002999
v -0.005999 0.000000 -0.000000
v -0.005195 0.000000 0.002999
v -0.002999 0.000000 0.005195
v -0.000000 0.000000 0.005999
v 0.002999 0.000000 0.005195
v 0.005195 0.000000 0.002999
v 0.005999 0.000000 0.000000
v 0.005195 0.000000 -0.002999
v 0.002999 0.000000 -0.005195
v -0.000000 0.062000 -0.005837
v -0.002918 0.062000 -0.005055
v -0.005055 0.062000 -0.002918
v -0.005837 0.062000 -0.000000
v -0.005055 0.062000 0.002918
v -0.002918 0.062000 0.005055
v -0.000000 0.062000 0.005837
v 0.002918 0.062000 0.005055
v 0.005055 0.062000 0.002918
v 0.005837 0.062000 0.000000
v 0.005055 0.062000 -0.002918
v 0.002918 0.062000 -0.005055
v -0.000000 0.124000 -0.005677
v -0.002839 0.124000 -0.004917
v -0.004917 0.124000 -0.002839
v -0.005677 0.124000 -0.000000
v -0.004917 0.124000 0.002839
v -0.002839 0.124000 0.004917
v -0.000000 0.124000 0.005677
v 0.002839 0.124000 0.004917
v 0.004917 0.124000 0.002839
v 0.005677 0.124000 0.000000
v 0.004917 0.124000 -0.002839
v 0.002839 0.124000 -0.004917
v -0.000000 0.186000 -0.005519
v -0.002760 0.186000 -0.004780
v -0.004780 0.186000 -0.002760
v -0.005519 0.186000 -0.000000
v -0.004780 0.186000 0.002760
v -0.002760 0.186000 0.004780
v -0.000000 0.186000 0.005519
v 0.002760 0.186000 0.004780
v 0.004780 0.186000 0.002760
v 0.005519 0.186000 0.000000
v 0.004780 0.186000 -0.002760
v 0.002760 0.186000 -0.004780
v -0.000000 0.248000 -0.005363
v -0.002682 0.248000 -0.004645
v -0.004645 0.248000 -0.002682
v -0.005363 0.248000 -0.000000
v -0.004645 0.248000 0.002682
v -0.002682 0.248000 0.004645
v -0.000000 0.248000 0.005363
v 0.002682 0.248000 0.004645
v 0.004645 0.248000 0.002682
v 0.005363 0.248000 0.000000
v 0.004645 0.248000 -0.002682
v 0.002682 0.248000 -0.004645
v -0.000000 0.310000 -0.005209
v -0.002605 0.310000 -0.004511
v -0.004511 0.310000 -0.002605
v -0.005209 0.310000 -0.000000
v -0.004511 0.310000 0.002605
v -0.002605 0.310000 0.004511
v -0.000000 0.310000 0.005209
v 0.002605 0.310000 0.004511
v 0.004511 0.310000 0.002605
v 0.005209 0.310000 0.000000
v 0.004511 0.310000 -0.002605
v 0.002605 0.310000 -0.004511
v -0.000000 0.372000 -0.005058
v -0.002529 0.372000 -0.004380
v -0.004380 0.372000 -0.002529
v -0.005058 0.372000 -0.000000
v -0.004380 0.372000 0.002529
v -0.002529 0.372000 0.004380
v -0.000000 0.372000 0.005058
v 0.002529 0.372000 0.004380
v 0.004380 0.372000 0.002529
v 0.005058 0.372000 0.000000
v 0.004380 0.372000 -0.002529
v 0.002529 0.372000 -0.004380
v -0.000000 0.434000 -0.004908
v -0.002454 0.434000 -0.004250
v -0.004250 0.434000 -0.002454
v -0.004908 0.434000 -0.000000
v -0.004250 0.434000 0.002454
v -0.002454 0.434000 0.004250
v -0.000000 0.434000 0.004908
v 0.002454 0.434000 0.004250
v 0.004250 0.434000 0.002454
v 0.004908 0.434000 0.000000
v 0.004250 0.434000 -0.002454
v 0.002454 0.434000 -0.004250
v -0.000000 0.496000 -0.004760
v -0.002380 0.496000 -0.004122
v -0.004122 0.496000 -0.002380
v -0.004760 0.496000 -0.000000
v -0.004122 0.496000 0.002380
v -0.002380 0.496000 0.004122
v -0.000000 0.496000 0.004760
v 0.002380 0.496000 0.004122
v 0.004122 0.496000 0.002380
v 0.004760 0.496000 0.000000
v 0.004122 0.496000 -0.002380
v 0.002380 0.496000 -0.004122
v -0.000000 0.000000 -0.000000
v -0.000000 0.496000 -0.000000
vn -0.258800 0.002500 -0.965900
vn -0.707100 0.002500 -0.707100
vn -0.965900 0.002500 -0.258800
vn -0.965900 0.002500 0.258800
vn -0.707100 0.002500 0.707100
vn -0.258800 0.002500 0.965900
vn 0.258800 0.002500 0.965900
vn 0.707100 0.002500 0.707100
vn 0.965900 0.002500 0.258800
vn 0.965900 0.002500 -0.258800
vn 0.707100 0.002500 -0.707100
vn 0.258800 0.002500 -0.965900
vn -0.258800 0.002400 -0.965900
vn -0.707100 0.002400 -0.707100
vn -0.965900 0.002400 -0.258800
vn -0.965900 0.002400 0.258800
vn -0.707100 0.002400 0.707100
vn -0.258800 0.002400 0.965900
vn 0.258800 0.002400 0.965900
vn 0.707100 0.002400 0.707100
vn 0.965900 0.002400 0.258800
vn 0.965900 0.002400 -0.258800
vn 0.707100 0.002400 -0.707100
vn 0.258800 0.002400 -0.965900
vn -0.258800 0.002300 -0.965900
vn -0.707100 0.002300 -0.707100
vn -0.965900 0.002300 -0.258800
vn -0.965900 0.002300 0.258800
vn -0.707100 0.002300 0.707100
vn -0.258800 0.002300 0.965900
vn 0.258800 0.002300 0.965900
vn 0.707100 0.002300 0.707100
vn 0.965900 0.002300 0.258800
vn 0.965900 0.002300 -0.258800
vn 0.707100 0.002300 -0.707100
vn 0.258800 0.002300 -0.965900
vn 0.000000 -1.000000 0.000000
vn 0.000000 1.000000 0.000000
f 2//1 13//1 1//1
f 2//2 15//2 14//2
f 4//3 15//3 3//3
f 5//4 16//4 4//4
f 5//5 18//5 17//5
f 7//6 18//6 6//6
f 8//7 19//7 7//7
f 8//8 21//8 20//8
f 10//9 21//9 9//9
f 11//10 22//10 10//10
f 11//11 24//11 23//11
f 1//12 24//12 12//12
f 14//1 25//1 13//1
f 15//2 26//2 14//2
f 16//3 27//3 15//3
f 17//4 28//4 16//4
f 18//5 29//5 17//5
f 19//6 30//6 18//6
f 20//7 31//7 19//7
f 21//8 32//8 20//8
f 22//9 33//9 21//9
f 23//10 34//10 22//10
f 24//11 35//11 23//11
f 13//12 36//12 24//12
f 26//1 37//1 25//1
f 27//2 38//2 26//2
f 28//3 39//3 27//3
f 29//4 40//4 28//4
f 30//5 41//5 29//5
f 31//6 42//6 30//6
f 32//7 43//7 31//7
f 33//8 44//8 32//8
f 34//9 45//9 33//9
f 35//10 46//10 34//10
f 36//11 47//11 35//11
f 25//12 48//12 36//12
f 38//13 49//13 37//13
f 39//14 50//14 38//14
f 40//15 51//15 39//15
f 41//16 52//16 40//16
f 42//17 53//17 41//17
f 43//18 54//18 42//18
f 44//19 55//19 43//19
f 45//20 56//20 44//20
f 46//21 57//21 45//21
f 47//22 58//22 46//22
f 48//23 59//23 47//23
f 37//24 60//24 48//24
f 50//13 61//13 49//13
f 51//14 62//14 50//14
f 52//15 63//15 51//15
f 53//16 64//16 52//16
f 54//17 65//17 53//17
f 55//18 66//18 54//18
f 56//19 67//19 55//19
f 57//20 68//20 56//20
f 58//21 69//21 57//21
f 59//22 70//22 58//22
f 60//23 71//23 59//23
f 49//24 72//24 60//24
f 62//13 73//13 61//13
f 63//14 74//14 62//14
f 64//15 75//15 63//15
f 65//16 76//16 64//16
f 66//17 77//17 65//17
f 67//18 78//18 66//18
f 68//19 79//19 67//19
f 69//20 80//20 68//20
f 70//21 81//21 69//21
f 71//22 82//22 70//22
f 72//23 83//23 71//23
f 61//24 84//24 72//24
f 73//25 86//25 85//25
f 75//26 86//26 74//26
f 75//27 88//27 87//27
f 76//28 89//28 88//28
f 78//29 89//29 77//29
f 78//30 91//30 90//30
f 79//31 92//31 91//31
f 81//32 92//32 80//32
f 81//33 94//33 93//33
f 82//34 95//34 94//34
f 84//35 95//35 83//35
f 84//36 85//36 96//36
f 86//25 97//25 85//25
f 87//26 98//26 86//26
f 88//27 99//27 87//27
f 89//28 100//28 88//28
f 90//29 101//29 89//29
f 91//30 102//30 90//30
f 92//31 103//31 91//31
f 93//32 104//32 92//32
f 94//33 105//33 93//33
f 95//34 106//34 94//34
f 96//35 107//35 95//35
f 85//36 108//36 96//36
f 109//37 2//37 1//37
f 109//37 3//37 2//37
f 109//37 4//37 3//37
f 109//37 5//37 4//37
f 109//37 6//37 5//37
f 109//37 7//37 6//37
f 109//37 8//37 7//37
f 109//37 9//37 8//37
f 109//37 10//37 9//37
f 109//37 11//37 10//37
f 109//37 12//37 11//37
f 109//37 1//37 12//37
f 110//38 97//38 98//38
f 110//38 98//38 99//38
f 110//38 99//38 100//38
f 110//38 100//38 101//38
f 110//38 101//38 102//38
f 110//38 102//38 103//38
f 110//38 103//38 104//38
f 110//38 104//38 105//38
f 110//38 105//38 106//38
f 110//38 106//38 107//38
f 110//38 107//38 108//38
f 110//38 108//38 97//38
f 2//1 14//1 13//1
f 2//2 3//2 15//2
f 4//3 16//3 15//3
f 5//4 17//4 16//4
f 5//5 6//5 18//5
f 7//6 19//6 18//6
f 8//7 20//7 19//7
f 8//8 9//8 21//8
f 10//9 22//9 21//9
f 11//10 23//10 22//10
f 11//11 12//11 24//11
f 1//12 13//12 24//12
f 14//1 26//1 25//1
f 15//2 27//2 26//2
f 16//3 28//3 27//3
f 17//4 29//4 28//4
f 18//5 30//5 29//5
f 19//6 31//6 30//6
f 20//7 32//7 31//7
f 21//8 33//8 32//8
f 22//9 34//9 33//9
f 23//10 35//10 34//10
f 24//11 36//11 35//11
f 13//12 25//12 36//12
f 26//1 38//1 37//1
f 27//2 39//2 38//2
f 28//3 40//3 39//3
f 29//4 41//4 40//4
f 30//5 42//5 41//5
f 31//6 43//6 42//6
f 32//7 44//7 43//7
f 33//8 45//8 44//8
f 34//9 46//9 45//9
f 35//10 47//10 46//10
f 36//11 48//11 47//11
f 25//12 37//12 48//12
f 38//13 50//13 49//13
f 39//14 51//14 50//14
f 40//15 52//15 51//15
f 41//16 53//16 52//16
f 42//17 54//17 53//17
f 43//18 55//18 54//18
f 44//19 56//19 55//19
f 45//20 57//20 56//20
f 46//21 58//21 57//21
f 47//22 59//22 58//22
f 48//23 60//23 59//23
f 37//24 49//24 60//24
f 50//13 62//13 61//13
f 51//14 63//14 62//14
f 52//15 64//15 63//15
f 53//16 65//16 64//16
f 54//17 66//17 65//17
f 55//18 67//18 66//18
f 56//19 68//19 67//19
f 57//20 69//20 68//20
f 58//21 70//21 69//21
f 59//22 71//22 70//22
f 60//23 72//23 71//23
f 49//24 61//24 72//24
f 62//13 74//13 73//13
f 63//14 75//14 74//14
f 64//15 76//15 75//15
f 65//16 77//16 76//16
f 66//17 78//17 77//17
f 67//18 79//18 78//18
f 68//19 80//19 79//19
f 69//20 81//20 80//20
f 70//21 82//21 81//21
f 71//22 83//22 82//22
f 72//23 84//23 83//23
f 61//24 73//24 84//24
f 73//25 74//25 86//25
f 75//26 87//26 86//26
f 75//27 76//27 88//27
f 76//28 77//28 89//28
f 78//29 90//29 89//29
f 78//30 79//30 91//30
f 79//31 80//31 92//31
f 81//32 93//32 92//32
f 81//33 82//33 94//33
f 82//34 83//34 95//34
f 84//35 96//35 95//35
f 84//36 73//36 85//36
f 86//25 98//25 97//25
f 87//26 99//26 98//26
f 88//27 100//27 99//27
f 89//28 101//28 100//28
f 90//29 102//29 101//29
f 91//30 103//30 102//30
f 92//31 104//31 103//31
f 93//32 105//32 104//32
f 94//33 106//33 105//33
f 95//34 107//34 106//34
f 96//35 108//35 107//35
f 85//36 97//36 108//36
