# Axes: Loom's -- metres, +Y up along the rod from this part's own
# origin, guides and reel toward +Z. No o/g tags: see mesh.rs:266.
# Blender 5.2.0 LTS
# www.blender.org
v -0.000000 0.000000 -0.002822
v -0.001411 0.000000 -0.002444
v -0.002444 0.000000 -0.001411
v -0.002822 0.000000 -0.000000
v -0.002444 0.000000 0.001411
v -0.001411 0.000000 0.002444
v -0.000000 0.000000 0.002822
v 0.001411 0.000000 0.002444
v 0.002444 0.000000 0.001411
v 0.002822 0.000000 0.000000
v 0.002444 0.000000 -0.001411
v 0.001411 0.000000 -0.002444
v -0.000000 0.037600 -0.002762
v -0.001381 0.037600 -0.002392
v -0.002392 0.037600 -0.001381
v -0.002762 0.037600 -0.000000
v -0.002392 0.037600 0.001381
v -0.001381 0.037600 0.002392
v -0.000000 0.037600 0.002762
v 0.001381 0.037600 0.002392
v 0.002392 0.037600 0.001381
v 0.002762 0.037600 0.000000
v 0.002392 0.037600 -0.001381
v 0.001381 0.037600 -0.002392
v -0.000000 0.000000 -0.000000
v -0.000000 0.037600 -0.000000
vn -0.258800 0.001500 -0.965900
vn -0.707100 0.001500 -0.707100
vn -0.965900 0.001500 -0.258800
vn -0.965900 0.001500 0.258800
vn -0.707100 0.001500 0.707100
vn -0.258800 0.001500 0.965900
vn 0.258800 0.001500 0.965900
vn 0.707100 0.001500 0.707100
vn 0.965900 0.001500 0.258800
vn 0.965900 0.001500 -0.258800
vn 0.707100 0.001500 -0.707100
vn 0.258800 0.001500 -0.965900
vn 0.000000 -1.000000 0.000000
vn 0.000000 -1.000000 0.000100
vn 0.000000 -1.000000 -0.000100
vn 0.000000 1.000000 0.000000
f 2//1 13//1 1//1
f 3//2 14//2 2//2
f 4//3 15//3 3//3
f 5//4 16//4 4//4
f 6//5 17//5 5//5
f 7//6 18//6 6//6
f 8//7 19//7 7//7
f 9//8 20//8 8//8
f 10//9 21//9 9//9
f 11//10 22//10 10//10
f 12//11 23//11 11//11
f 1//12 24//12 12//12
f 25//13 2//13 1//13
f 25//14 3//14 2//14
f 25//15 4//15 3//15
f 25//14 5//14 4//14
f 25//15 6//15 5//15
f 25//13 7//13 6//13
f 25//13 8//13 7//13
f 25//15 9//15 8//15
f 25//14 10//14 9//14
f 25//15 11//15 10//15
f 25//14 12//14 11//14
f 25//13 1//13 12//13
f 26//16 13//16 14//16
f 26//16 14//16 15//16
f 26//16 15//16 16//16
f 26//16 16//16 17//16
f 26//16 17//16 18//16
f 26//16 18//16 19//16
f 26//16 19//16 20//16
f 26//16 20//16 21//16
f 26//16 21//16 22//16
f 26//16 22//16 23//16
f 26//16 23//16 24//16
f 26//16 24//16 13//16
f 2//1 14//1 13//1
f 3//2 15//2 14//2
f 4//3 16//3 15//3
f 5//4 17//4 16//4
f 6//5 18//5 17//5
f 7//6 19//6 18//6
f 8//7 20//7 19//7
f 9//8 21//8 20//8
f 10//9 22//9 21//9
f 11//10 23//10 22//10
f 12//11 24//11 23//11
f 1//12 13//12 24//12
