# Axes: Loom's -- metres, +Y up along the rod from this part's own
# origin, guides and reel toward +Z. No o/g tags: see mesh.rs:266.
# Blender 5.2.0 LTS
# www.blender.org
v -0.000000 0.000000 -0.000000
v -0.000000 0.002500 -0.010150
v -0.005075 0.002500 -0.008790
v -0.008790 0.002500 -0.005075
v -0.010150 0.002500 -0.000000
v -0.008790 0.002500 0.005075
v -0.005075 0.002500 0.008790
v -0.000000 0.002500 0.010150
v 0.005075 0.002500 0.008790
v 0.008790 0.002500 0.005075
v 0.010150 0.002500 0.000000
v 0.008790 0.002500 -0.005075
v 0.005075 0.002500 -0.008790
v -0.000000 0.006000 -0.014500
v -0.007250 0.006000 -0.012557
v -0.012557 0.006000 -0.007250
v -0.014500 0.006000 -0.000000
v -0.012557 0.006000 0.007250
v -0.007250 0.006000 0.012557
v -0.000000 0.006000 0.014500
v 0.007250 0.006000 0.012557
v 0.012557 0.006000 0.007250
v 0.014500 0.006000 0.000000
v 0.012557 0.006000 -0.007250
v 0.007250 0.006000 -0.012557
v -0.000000 0.013000 -0.014500
v -0.007250 0.013000 -0.012557
v -0.012557 0.013000 -0.007250
v -0.014500 0.013000 -0.000000
v -0.012557 0.013000 0.007250
v -0.007250 0.013000 0.012557
v -0.000000 0.013000 0.014500
v 0.007250 0.013000 0.012557
v 0.012557 0.013000 0.007250
v 0.014500 0.013000 0.000000
v 0.012557 0.013000 -0.007250
v 0.007250 0.013000 -0.012557
v -0.000000 0.015000 -0.011600
v -0.005800 0.015000 -0.010046
v -0.010046 0.015000 -0.005800
v -0.011600 0.015000 -0.000000
v -0.010046 0.015000 0.005800
v -0.005800 0.015000 0.010046
v -0.000000 0.015000 0.011600
v 0.005800 0.015000 0.010046
v 0.010046 0.015000 0.005800
v 0.011600 0.015000 0.000000
v 0.010046 0.015000 -0.005800
v 0.005800 0.015000 -0.010046
v -0.000000 0.015000 -0.000000
vn -0.064000 -0.969000 -0.238700
vn -0.174700 -0.969000 -0.174700
vn -0.238700 -0.969000 -0.064000
vn -0.238700 -0.969000 0.064000
vn -0.174700 -0.969000 0.174700
vn -0.064000 -0.969000 0.238700
vn 0.064000 -0.969000 0.238700
vn 0.174700 -0.969000 0.174700
vn 0.238700 -0.969000 0.064000
vn 0.238700 -0.969000 -0.064000
vn 0.174700 -0.969000 -0.174700
vn 0.064000 -0.969000 -0.238700
vn -0.165700 -0.768400 -0.618200
vn -0.452600 -0.768400 -0.452600
vn -0.618200 -0.768400 -0.165700
vn -0.618200 -0.768400 0.165700
vn -0.452600 -0.768400 0.452600
vn -0.165700 -0.768400 0.618200
vn 0.165700 -0.768400 0.618200
vn 0.452600 -0.768400 0.452600
vn 0.618200 -0.768400 0.165700
vn 0.618200 -0.768400 -0.165700
vn 0.452600 -0.768400 -0.452600
vn 0.165700 -0.768400 -0.618200
vn -0.258800 -0.000000 -0.965900
vn -0.707100 -0.000000 -0.707100
vn -0.965900 -0.000000 -0.258800
vn -0.965900 -0.000000 0.258800
vn -0.707100 -0.000000 0.707100
vn -0.258800 -0.000000 0.965900
vn 0.258800 -0.000000 0.965900
vn 0.707100 -0.000000 0.707100
vn 0.965900 -0.000000 0.258800
vn 0.965900 -0.000000 -0.258800
vn 0.707100 -0.000000 -0.707100
vn 0.258800 -0.000000 -0.965900
vn -0.150400 0.813800 -0.561300
vn -0.410900 0.813900 -0.410900
vn -0.561300 0.813900 -0.150400
vn -0.561300 0.813800 0.150400
vn -0.410900 0.813900 0.410900
vn -0.150400 0.813800 0.561300
vn 0.150400 0.813800 0.561300
vn 0.410900 0.813900 0.410900
vn 0.561300 0.813900 0.150400
vn 0.561300 0.813800 -0.150400
vn 0.410900 0.813900 -0.410900
vn 0.150400 0.813800 -0.561300
vn 0.000000 1.000000 0.000000
vn -0.150400 0.813900 -0.561300
vn -0.410900 0.813800 -0.410900
vn -0.561300 0.813800 -0.150400
vn -0.410900 0.813800 0.410900
vn 0.150400 0.813900 0.561300
vn 0.410900 0.813800 0.410900
vn 0.561300 0.813800 0.150400
vn 0.410900 0.813800 -0.410900
f 1//1 3//1 2//1
f 1//2 4//2 3//2
f 1//3 5//3 4//3
f 1//4 6//4 5//4
f 1//5 7//5 6//5
f 1//6 8//6 7//6
f 1//7 9//7 8//7
f 1//8 10//8 9//8
f 1//9 11//9 10//9
f 1//10 12//10 11//10
f 1//11 13//11 12//11
f 1//12 2//12 13//12
f 3//13 14//13 2//13
f 4//14 15//14 3//14
f 5//15 16//15 4//15
f 6//16 17//16 5//16
f 7//17 18//17 6//17
f 8//18 19//18 7//18
f 9//19 20//19 8//19
f 10//20 21//20 9//20
f 11//21 22//21 10//21
f 12//22 23//22 11//22
f 13//23 24//23 12//23
f 2//24 25//24 13//24
f 15//25 26//25 14//25
f 16//26 27//26 15//26
f 17//27 28//27 16//27
f 18//28 29//28 17//28
f 19//29 30//29 18//29
f 20//30 31//30 19//30
f 21//31 32//31 20//31
f 22//32 33//32 21//32
f 23//33 34//33 22//33
f 24//34 35//34 23//34
f 25//35 36//35 24//35
f 14//36 37//36 25//36
f 27//37 38//37 26//37
f 27//38 40//38 39//38
f 29//39 40//39 28//39
f 30//40 41//40 29//40
f 30//41 43//41 42//41
f 32//42 43//42 31//42
f 33//43 44//43 32//43
f 33//44 46//44 45//44
f 35//45 46//45 34//45
f 36//46 47//46 35//46
f 36//47 49//47 48//47
f 26//48 49//48 37//48
f 50//49 38//49 39//49
f 50//49 39//49 40//49
f 50//49 40//49 41//49
f 50//49 41//49 42//49
f 50//49 42//49 43//49
f 50//49 43//49 44//49
f 50//49 44//49 45//49
f 50//49 45//49 46//49
f 50//49 46//49 47//49
f 50//49 47//49 48//49
f 50//49 48//49 49//49
f 50//49 49//49 38//49
f 3//13 15//13 14//13
f 4//14 16//14 15//14
f 5//15 17//15 16//15
f 6//16 18//16 17//16
f 7//17 19//17 18//17
f 8//18 20//18 19//18
f 9//19 21//19 20//19
f 10//20 22//20 21//20
f 11//21 23//21 22//21
f 12//22 24//22 23//22
f 13//23 25//23 24//23
f 2//24 14//24 25//24
f 15//25 27//25 26//25
f 16//26 28//26 27//26
f 17//27 29//27 28//27
f 18//28 30//28 29//28
f 19//29 31//29 30//29
f 20//30 32//30 31//30
f 21//31 33//31 32//31
f 22//32 34//32 33//32
f 23//33 35//33 34//33
f 24//34 36//34 35//34
f 25//35 37//35 36//35
f 14//36 26//36 37//36
f 27//50 39//50 38//50
f 27//51 28//51 40//51
f 29//52 41//52 40//52
f 30//40 42//40 41//40
f 30//53 31//53 43//53
f 32//42 44//42 43//42
f 33//54 45//54 44//54
f 33//55 34//55 46//55
f 35//56 47//56 46//56
f 36//46 48//46 47//46
f 36//57 37//57 49//57
f 26//48 38//48 49//48
v -0.000000 0.015000 -0.010750
v -0.005375 0.015000 -0.009310
v -0.009310 0.015000 -0.005375
v -0.010750 0.015000 -0.000000
v -0.009310 0.015000 0.005375
v -0.005375 0.015000 0.009310
v -0.000000 0.015000 0.010750
v 0.005375 0.015000 0.009310
v 0.009310 0.015000 0.005375
v 0.010750 0.015000 0.000000
v 0.009310 0.015000 -0.005375
v 0.005375 0.015000 -0.009310
v -0.000000 0.023000 -0.012375
v -0.006187 0.023000 -0.010717
v -0.010717 0.023000 -0.006187
v -0.012375 0.023000 -0.000000
v -0.010717 0.023000 0.006187
v -0.006187 0.023000 0.010717
v -0.000000 0.023000 0.012375
v 0.006187 0.023000 0.010717
v 0.010717 0.023000 0.006187
v 0.012375 0.023000 0.000000
v 0.010717 0.023000 -0.006187
v 0.006187 0.023000 -0.010717
v -0.000000 0.038800 -0.012500
v -0.006250 0.038800 -0.010825
v -0.010825 0.038800 -0.006250
v -0.012500 0.038800 -0.000000
v -0.010825 0.038800 0.006250
v -0.006250 0.038800 0.010825
v -0.000000 0.038800 0.012500
v 0.006250 0.038800 0.010825
v 0.010825 0.038800 0.006250
v 0.012500 0.038800 0.000000
v 0.010825 0.038800 -0.006250
v 0.006250 0.038800 -0.010825
v -0.000000 0.071000 -0.011625
v -0.005813 0.071000 -0.010068
v -0.010068 0.071000 -0.005813
v -0.011625 0.071000 -0.000000
v -0.010068 0.071000 0.005813
v -0.005813 0.071000 0.010068
v -0.000000 0.071000 0.011625
v 0.005813 0.071000 0.010068
v 0.010068 0.071000 0.005813
v 0.011625 0.071000 0.000000
v 0.010068 0.071000 -0.005813
v 0.005813 0.071000 -0.010068
v -0.000000 0.083000 -0.010500
v -0.005250 0.083000 -0.009093
v -0.009093 0.083000 -0.005250
v -0.010500 0.083000 -0.000000
v -0.009093 0.083000 0.005250
v -0.005250 0.083000 0.009093
v -0.000000 0.083000 0.010500
v 0.005250 0.083000 0.009093
v 0.009093 0.083000 0.005250
v 0.010500 0.083000 0.000000
v 0.009093 0.083000 -0.005250
v 0.005250 0.083000 -0.009093
v -0.000000 0.015000 -0.000000
v -0.000000 0.083000 -0.000000
vn -0.254000 -0.192500 -0.947900
vn -0.693900 -0.192500 -0.693900
vn -0.947900 -0.192500 -0.254000
vn -0.947900 -0.192500 0.254000
vn -0.693900 -0.192500 0.693900
vn -0.254000 -0.192500 0.947900
vn 0.254000 -0.192500 0.947900
vn 0.693900 -0.192500 0.693900
vn 0.947900 -0.192500 0.254000
vn 0.947900 -0.192500 -0.254000
vn 0.693900 -0.192500 -0.693900
vn 0.254000 -0.192500 -0.947900
vn -0.258800 -0.007600 -0.965900
vn -0.707100 -0.007600 -0.707100
vn -0.965900 -0.007600 -0.258800
vn -0.965900 -0.007600 0.258800
vn -0.707100 -0.007600 0.707100
vn -0.258800 -0.007600 0.965900
vn 0.258800 -0.007600 0.965900
vn 0.707100 -0.007600 0.707100
vn 0.965900 -0.007600 0.258800
vn 0.965900 -0.007600 -0.258800
vn 0.707100 -0.007600 -0.707100
vn 0.258800 -0.007600 -0.965900
vn -0.258700 0.026200 -0.965600
vn -0.706900 0.026200 -0.706900
vn -0.965600 0.026200 -0.258700
vn -0.965600 0.026200 0.258700
vn -0.706900 0.026200 0.706900
vn -0.258700 0.026200 0.965600
vn 0.258700 0.026200 0.965600
vn 0.706900 0.026200 0.706900
vn 0.965600 0.026200 0.258700
vn 0.965600 0.026200 -0.258700
vn 0.706900 0.026200 -0.706900
vn 0.258700 0.026200 -0.965600
vn -0.257800 0.090200 -0.962000
vn -0.704200 0.090200 -0.704200
vn -0.962000 0.090200 -0.257800
vn -0.962000 0.090200 0.257800
vn -0.704200 0.090200 0.704200
vn -0.257800 0.090200 0.962000
vn 0.257800 0.090200 0.962000
vn 0.704200 0.090200 0.704200
vn 0.962000 0.090200 0.257800
vn 0.962000 0.090200 -0.257800
vn 0.704200 0.090200 -0.704200
vn 0.257800 0.090200 -0.962000
vn 0.000000 -1.000000 0.000000
vn 0.000000 1.000000 0.000000
f 52//58 63//58 51//58
f 53//59 64//59 52//59
f 53//60 66//60 65//60
f 55//61 66//61 54//61
f 56//62 67//62 55//62
f 56//63 69//63 68//63
f 58//64 69//64 57//64
f 59//65 70//65 58//65
f 59//66 72//66 71//66
f 61//67 72//67 60//67
f 62//68 73//68 61//68
f 62//69 63//69 74//69
f 64//70 75//70 63//70
f 65//71 76//71 64//71
f 66//72 77//72 65//72
f 67//73 78//73 66//73
f 68//74 79//74 67//74
f 69//75 80//75 68//75
f 70//76 81//76 69//76
f 71//77 82//77 70//77
f 72//78 83//78 71//78
f 73//79 84//79 72//79
f 74//80 85//80 73//80
f 63//81 86//81 74//81
f 76//82 87//82 75//82
f 77//83 88//83 76//83
f 78//84 89//84 77//84
f 79//85 90//85 78//85
f 80//86 91//86 79//86
f 81//87 92//87 80//87
f 82//88 93//88 81//88
f 83//89 94//89 82//89
f 84//90 95//90 83//90
f 85//91 96//91 84//91
f 86//92 97//92 85//92
f 75//93 98//93 86//93
f 88//94 99//94 87//94
f 89//95 100//95 88//95
f 90//96 101//96 89//96
f 91//97 102//97 90//97
f 92//98 103//98 91//98
f 93//99 104//99 92//99
f 94//100 105//100 93//100
f 95//101 106//101 94//101
f 96//102 107//102 95//102
f 97//103 108//103 96//103
f 98//104 109//104 97//104
f 87//105 110//105 98//105
f 111//106 52//106 51//106
f 111//106 53//106 52//106
f 111//106 54//106 53//106
f 111//106 55//106 54//106
f 111//106 56//106 55//106
f 111//106 57//106 56//106
f 111//106 58//106 57//106
f 111//106 59//106 58//106
f 111//106 60//106 59//106
f 111//106 61//106 60//106
f 111//106 62//106 61//106
f 111//106 51//106 62//106
f 112//107 99//107 100//107
f 112//107 100//107 101//107
f 112//107 101//107 102//107
f 112//107 102//107 103//107
f 112//107 103//107 104//107
f 112//107 104//107 105//107
f 112//107 105//107 106//107
f 112//107 106//107 107//107
f 112//107 107//107 108//107
f 112//107 108//107 109//107
f 112//107 109//107 110//107
f 112//107 110//107 99//107
f 52//58 64//58 63//58
f 53//59 65//59 64//59
f 53//60 54//60 66//60
f 55//61 67//61 66//61
f 56//62 68//62 67//62
f 56//63 57//63 69//63
f 58//64 70//64 69//64
f 59//65 71//65 70//65
f 59//66 60//66 72//66
f 61//67 73//67 72//67
f 62//68 74//68 73//68
f 62//69 51//69 63//69
f 64//70 76//70 75//70
f 65//71 77//71 76//71
f 66//72 78//72 77//72
f 67//73 79//73 78//73
f 68//74 80//74 79//74
f 69//75 81//75 80//75
f 70//76 82//76 81//76
f 71//77 83//77 82//77
f 72//78 84//78 83//78
f 73//79 85//79 84//79
f 74//80 86//80 85//80
f 63//81 75//81 86//81
f 76//82 88//82 87//82
f 77//83 89//83 88//83
f 78//84 90//84 89//84
f 79//85 91//85 90//85
f 80//86 92//86 91//86
f 81//87 93//87 92//87
f 82//88 94//88 93//88
f 83//89 95//89 94//89
f 84//90 96//90 95//90
f 85//91 97//91 96//91
f 86//92 98//92 97//92
f 75//93 87//93 98//93
f 88//94 100//94 99//94
f 89//95 101//95 100//95
f 90//96 102//96 101//96
f 91//97 103//97 102//97
f 92//98 104//98 103//98
f 93//99 105//99 104//99
f 94//100 106//100 105//100
f 95//101 107//101 106//101
f 96//102 108//102 107//102
f 97//103 109//103 108//103
f 98//104 110//104 109//104
f 87//105 99//105 110//105
v -0.000000 0.311000 -0.010580
v -0.005290 0.311000 -0.009163
v -0.009163 0.311000 -0.005290
v -0.010580 0.311000 -0.000000
v -0.009163 0.311000 0.005290
v -0.005290 0.311000 0.009163
v -0.000000 0.311000 0.010580
v 0.005290 0.311000 0.009163
v 0.009163 0.311000 0.005290
v 0.010580 0.311000 0.000000
v 0.009163 0.311000 -0.005290
v 0.005290 0.311000 -0.009163
v -0.000000 0.321000 -0.011500
v -0.005750 0.321000 -0.009959
v -0.009959 0.321000 -0.005750
v -0.011500 0.321000 -0.000000
v -0.009959 0.321000 0.005750
v -0.005750 0.321000 0.009959
v -0.000000 0.321000 0.011500
v 0.005750 0.321000 0.009959
v 0.009959 0.321000 0.005750
v 0.011500 0.321000 0.000000
v 0.009959 0.321000 -0.005750
v 0.005750 0.321000 -0.009959
v -0.000000 0.353000 -0.011155
v -0.005577 0.353000 -0.009661
v -0.009661 0.353000 -0.005577
v -0.011155 0.353000 -0.000000
v -0.009661 0.353000 0.005577
v -0.005577 0.353000 0.009661
v -0.000000 0.353000 0.011155
v 0.005577 0.353000 0.009661
v 0.009661 0.353000 0.005577
v 0.011155 0.353000 0.000000
v 0.009661 0.353000 -0.005577
v 0.005577 0.353000 -0.009661
v -0.000000 0.367000 -0.008740
v -0.004370 0.367000 -0.007569
v -0.007569 0.367000 -0.004370
v -0.008740 0.367000 -0.000000
v -0.007569 0.367000 0.004370
v -0.004370 0.367000 0.007569
v -0.000000 0.367000 0.008740
v 0.004370 0.367000 0.007569
v 0.007569 0.367000 0.004370
v 0.008740 0.367000 0.000000
v 0.007569 0.367000 -0.004370
v 0.004370 0.367000 -0.007569
v -0.000000 0.311000 -0.000000
v -0.000000 0.367000 -0.000000
vn -0.257800 -0.088500 -0.962100
vn -0.704300 -0.088500 -0.704300
vn -0.962100 -0.088500 -0.257800
vn -0.962100 -0.088500 0.257800
vn -0.704300 -0.088500 0.704300
vn -0.257800 -0.088500 0.962100
vn 0.257800 -0.088500 0.962100
vn 0.704300 -0.088500 0.704300
vn 0.962100 -0.088500 0.257800
vn 0.962100 -0.088500 -0.257800
vn 0.704300 -0.088500 -0.704300
vn 0.257800 -0.088500 -0.962100
vn -0.258800 0.010400 -0.965900
vn -0.707100 0.010400 -0.707100
vn -0.965900 0.010400 -0.258800
vn -0.965900 0.010400 0.258800
vn -0.707100 0.010400 0.707100
vn -0.258800 0.010400 0.965900
vn 0.258800 0.010400 0.965900
vn 0.707100 0.010400 0.707100
vn 0.965900 0.010400 0.258800
vn 0.965900 0.010400 -0.258800
vn 0.707100 0.010400 -0.707100
vn 0.258800 0.010400 -0.965900
vn -0.255300 0.164400 -0.952800
vn -0.697500 0.164400 -0.697500
vn -0.952800 0.164400 -0.255300
vn -0.952800 0.164400 0.255300
vn -0.697500 0.164400 0.697500
vn -0.255300 0.164400 0.952800
vn 0.255300 0.164400 0.952800
vn 0.697500 0.164400 0.697500
vn 0.952800 0.164400 0.255300
vn 0.952800 0.164400 -0.255300
vn 0.697500 0.164400 -0.697500
vn 0.255300 0.164400 -0.952800
vn 0.000000 -1.000000 0.000000
vn 0.000000 1.000000 0.000000
f 114//108 125//108 113//108
f 115//109 126//109 114//109
f 116//110 127//110 115//110
f 117//111 128//111 116//111
f 118//112 129//112 117//112
f 119//113 130//113 118//113
f 120//114 131//114 119//114
f 121//115 132//115 120//115
f 122//116 133//116 121//116
f 123//117 134//117 122//117
f 124//118 135//118 123//118
f 113//119 136//119 124//119
f 126//120 137//120 125//120
f 127//121 138//121 126//121
f 127//122 140//122 139//122
f 129//123 140//123 128//123
f 130//124 141//124 129//124
f 130//125 143//125 142//125
f 132//126 143//126 131//126
f 133//127 144//127 132//127
f 133//128 146//128 145//128
f 135//129 146//129 134//129
f 136//130 147//130 135//130
f 136//131 137//131 148//131
f 138//132 149//132 137//132
f 139//133 150//133 138//133
f 140//134 151//134 139//134
f 141//135 152//135 140//135
f 142//136 153//136 141//136
f 143//137 154//137 142//137
f 144//138 155//138 143//138
f 145//139 156//139 144//139
f 146//140 157//140 145//140
f 147//141 158//141 146//141
f 148//142 159//142 147//142
f 137//143 160//143 148//143
f 161//144 114//144 113//144
f 161//144 115//144 114//144
f 161//144 116//144 115//144
f 161//144 117//144 116//144
f 161//144 118//144 117//144
f 161//144 119//144 118//144
f 161//144 120//144 119//144
f 161//144 121//144 120//144
f 161//144 122//144 121//144
f 161//144 123//144 122//144
f 161//144 124//144 123//144
f 161//144 113//144 124//144
f 162//145 149//145 150//145
f 162//145 150//145 151//145
f 162//145 151//145 152//145
f 162//145 152//145 153//145
f 162//145 153//145 154//145
f 162//145 154//145 155//145
f 162//145 155//145 156//145
f 162//145 156//145 157//145
f 162//145 157//145 158//145
f 162//145 158//145 159//145
f 162//145 159//145 160//145
f 162//145 160//145 149//145
f 114//108 126//108 125//108
f 115//109 127//109 126//109
f 116//110 128//110 127//110
f 117//111 129//111 128//111
f 118//112 130//112 129//112
f 119//113 131//113 130//113
f 120//114 132//114 131//114
f 121//115 133//115 132//115
f 122//116 134//116 133//116
f 123//117 135//117 134//117
f 124//118 136//118 135//118
f 113//119 125//119 136//119
f 126//120 138//120 137//120
f 127//121 139//121 138//121
f 127//122 128//122 140//122
f 129//123 141//123 140//123
f 130//124 142//124 141//124
f 130//125 131//125 143//125
f 132//126 144//126 143//126
f 133//127 145//127 144//127
f 133//128 134//128 146//128
f 135//129 147//129 146//129
f 136//130 148//130 147//130
f 136//131 125//131 137//131
f 138//132 150//132 149//132
f 139//133 151//133 150//133
f 140//134 152//134 151//134
f 141//135 153//135 152//135
f 142//136 154//136 153//136
f 143//137 155//137 154//137
f 144//138 156//138 155//138
f 145//139 157//139 156//139
f 146//140 158//140 157//140
f 147//141 159//141 158//141
f 148//142 160//142 159//142
f 137//143 149//143 160//143
