# Axes: Loom's -- metres, +Y up along the rod from this part's own
# origin, guides and reel toward +Z. No o/g tags: see mesh.rs:266.
# Blender 5.2.0 LTS
# www.blender.org
v -0.000000 0.192000 -0.010200
v -0.005100 0.192000 -0.008833
v -0.008833 0.192000 -0.005100
v -0.010200 0.192000 -0.000000
v -0.008833 0.192000 0.005100
v -0.005100 0.192000 0.008833
v -0.000000 0.192000 0.010200
v 0.005100 0.192000 0.008833
v 0.008833 0.192000 0.005100
v 0.010200 0.192000 0.000000
v 0.008833 0.192000 -0.005100
v 0.005100 0.192000 -0.008833
v -0.000000 0.214000 -0.010500
v -0.005250 0.214000 -0.009093
v -0.009093 0.214000 -0.005250
v -0.010500 0.214000 -0.000000
v -0.009093 0.214000 0.005250
v -0.005250 0.214000 0.009093
v -0.000000 0.214000 0.010500
v 0.005250 0.214000 0.009093
v 0.009093 0.214000 0.005250
v 0.010500 0.214000 0.000000
v 0.009093 0.214000 -0.005250
v 0.005250 0.214000 -0.009093
v -0.000000 0.192000 -0.000000
v -0.000000 0.214000 -0.000000
vn -0.258800 -0.013200 -0.965800
vn -0.707000 -0.013200 -0.707000
vn -0.965800 -0.013200 -0.258800
vn -0.965800 -0.013200 0.258800
vn -0.707000 -0.013200 0.707000
vn -0.258800 -0.013200 0.965800
vn 0.258800 -0.013200 0.965800
vn 0.707000 -0.013200 0.707000
vn 0.965800 -0.013200 0.258800
vn 0.965800 -0.013200 -0.258800
vn 0.707000 -0.013200 -0.707000
vn 0.258800 -0.013200 -0.965800
vn 0.000000 -1.000000 0.000000
vn 0.000000 1.000000 0.000000
f 2//1 13//1 1//1
f 2//2 15//2 14//2
f 4//3 15//3 3//3
f 5//4 16//4 4//4
f 5//5 18//5 17//5
f 7//6 18//6 6//6
f 8//7 19//7 7//7
f 8//8 21//8 20//8
f 10//9 21//9 9//9
f 11//10 22//10 10//10
f 11//11 24//11 23//11
f 1//12 24//12 12//12
f 25//13 2//13 1//13
f 25//13 3//13 2//13
f 25//13 4//13 3//13
f 25//13 5//13 4//13
f 25//13 6//13 5//13
f 25//13 7//13 6//13
f 25//13 8//13 7//13
f 25//13 9//13 8//13
f 25//13 10//13 9//13
f 25//13 11//13 10//13
f 25//13 12//13 11//13
f 25//13 1//13 12//13
f 26//14 13//14 14//14
f 26//14 14//14 15//14
f 26//14 15//14 16//14
f 26//14 16//14 17//14
f 26//14 17//14 18//14
f 26//14 18//14 19//14
f 26//14 19//14 20//14
f 26//14 20//14 21//14
f 26//14 21//14 22//14
f 26//14 22//14 23//14
f 26//14 23//14 24//14
f 26//14 24//14 13//14
f 2//1 14//1 13//1
f 2//2 3//2 15//2
f 4//3 16//3 15//3
f 5//4 17//4 16//4
f 5//5 6//5 18//5
f 7//6 19//6 18//6
f 8//7 20//7 19//7
f 8//8 9//8 21//8
f 10//9 22//9 21//9
f 11//10 23//10 22//10
f 11//11 12//11 24//11
f 1//12 13//12 24//12
v -0.000000 0.258000 -0.010200
v -0.005100 0.258000 -0.008833
v -0.008833 0.258000 -0.005100
v -0.010200 0.258000 -0.000000
v -0.008833 0.258000 0.005100
v -0.005100 0.258000 0.008833
v -0.000000 0.258000 0.010200
v 0.005100 0.258000 0.008833
v 0.008833 0.258000 0.005100
v 0.010200 0.258000 0.000000
v 0.008833 0.258000 -0.005100
v 0.005100 0.258000 -0.008833
v -0.000000 0.280000 -0.010500
v -0.005250 0.280000 -0.009093
v -0.009093 0.280000 -0.005250
v -0.010500 0.280000 -0.000000
v -0.009093 0.280000 0.005250
v -0.005250 0.280000 0.009093
v -0.000000 0.280000 0.010500
v 0.005250 0.280000 0.009093
v 0.009093 0.280000 0.005250
v 0.010500 0.280000 0.000000
v 0.009093 0.280000 -0.005250
v 0.005250 0.280000 -0.009093
v -0.000000 0.258000 -0.000000
v -0.000000 0.280000 -0.000000
vn -0.258800 -0.013200 -0.965800
vn -0.707000 -0.013200 -0.707000
vn -0.965800 -0.013200 -0.258800
vn -0.965800 -0.013200 0.258800
vn -0.707000 -0.013200 0.707000
vn -0.258800 -0.013200 0.965800
vn 0.258800 -0.013200 0.965800
vn 0.707000 -0.013200 0.707000
vn 0.965800 -0.013200 0.258800
vn 0.965800 -0.013200 -0.258800
vn 0.707000 -0.013200 -0.707000
vn 0.258800 -0.013200 -0.965800
vn 0.000000 -1.000000 0.000000
vn 0.000000 1.000000 0.000000
f 28//15 39//15 27//15
f 29//16 40//16 28//16
f 30//17 41//17 29//17
f 31//18 42//18 30//18
f 32//19 43//19 31//19
f 33//20 44//20 32//20
f 34//21 45//21 33//21
f 35//22 46//22 34//22
f 36//23 47//23 35//23
f 37//24 48//24 36//24
f 38//25 49//25 37//25
f 27//26 50//26 38//26
f 51//27 28//27 27//27
f 51//27 29//27 28//27
f 51//27 30//27 29//27
f 51//27 31//27 30//27
f 51//27 32//27 31//27
f 51//27 33//27 32//27
f 51//27 34//27 33//27
f 51//27 35//27 34//27
f 51//27 36//27 35//27
f 51//27 37//27 36//27
f 51//27 38//27 37//27
f 51//27 27//27 38//27
f 52//28 39//28 40//28
f 52//28 40//28 41//28
f 52//28 41//28 42//28
f 52//28 42//28 43//28
f 52//28 43//28 44//28
f 52//28 44//28 45//28
f 52//28 45//28 46//28
f 52//28 46//28 47//28
f 52//28 47//28 48//28
f 52//28 48//28 49//28
f 52//28 49//28 50//28
f 52//28 50//28 39//28
f 28//15 40//15 39//15
f 29//16 41//16 40//16
f 30//17 42//17 41//17
f 31//18 43//18 42//18
f 32//19 44//19 43//19
f 33//20 45//20 44//20
f 34//21 46//21 45//21
f 35//22 47//22 46//22
f 36//23 48//23 47//23
f 37//24 49//24 48//24
f 38//25 50//25 49//25
f 27//26 39//26 50//26
v -0.000000 0.280000 -0.013000
v -0.003183 0.280000 -0.011881
v -0.006500 0.280000 -0.011258
v -0.008697 0.280000 -0.008697
v -0.011258 0.280000 -0.006500
v -0.011881 0.280000 -0.003183
v -0.013000 0.280000 -0.000000
v -0.011881 0.280000 0.003183
v -0.011258 0.280000 0.006500
v -0.008697 0.280000 0.008697
v -0.006500 0.280000 0.011258
v -0.003183 0.280000 0.011881
v -0.000000 0.280000 0.013000
v 0.003183 0.280000 0.011881
v 0.006500 0.280000 0.011258
v 0.008697 0.280000 0.008697
v 0.011258 0.280000 0.006500
v 0.011881 0.280000 0.003183
v 0.013000 0.280000 0.000000
v 0.011881 0.280000 -0.003183
v 0.011258 0.280000 -0.006500
v 0.008697 0.280000 -0.008697
v 0.006500 0.280000 -0.011258
v 0.003183 0.280000 -0.011881
v -0.000000 0.298000 -0.013000
v -0.003183 0.298000 -0.011881
v -0.006500 0.298000 -0.011258
v -0.008697 0.298000 -0.008697
v -0.011258 0.298000 -0.006500
v -0.011881 0.298000 -0.003183
v -0.013000 0.298000 -0.000000
v -0.011881 0.298000 0.003183
v -0.011258 0.298000 0.006500
v -0.008697 0.298000 0.008697
v -0.006500 0.298000 0.011258
v -0.003183 0.298000 0.011881
v -0.000000 0.298000 0.013000
v 0.003183 0.298000 0.011881
v 0.006500 0.298000 0.011258
v 0.008697 0.298000 0.008697
v 0.011258 0.298000 0.006500
v 0.011881 0.298000 0.003183
v 0.013000 0.298000 0.000000
v 0.011881 0.298000 -0.003183
v 0.011258 0.298000 -0.006500
v 0.008697 0.298000 -0.008697
v 0.006500 0.298000 -0.011258
v 0.003183 0.298000 -0.011881
v -0.000000 0.280000 -0.000000
v -0.000000 0.298000 -0.000000
vn -0.331600 -0.000000 -0.943400
vn -0.184500 -0.000000 -0.982800
vn -0.758900 -0.000000 -0.651200
vn -0.651200 -0.000000 -0.758900
vn -0.982800 -0.000000 -0.184500
vn -0.943400 -0.000000 -0.331600
vn -0.943400 -0.000000 0.331600
vn -0.982800 -0.000000 0.184500
vn -0.651200 -0.000000 0.758900
vn -0.758900 -0.000000 0.651200
vn -0.184500 -0.000000 0.982800
vn -0.331600 -0.000000 0.943400
vn 0.331600 -0.000000 0.943400
vn 0.184500 -0.000000 0.982800
vn 0.758900 -0.000000 0.651200
vn 0.651200 -0.000000 0.758900
vn 0.982800 -0.000000 0.184500
vn 0.943400 -0.000000 0.331600
vn 0.943400 -0.000000 -0.331600
vn 0.982800 -0.000000 -0.184500
vn 0.651200 -0.000000 -0.758900
vn 0.758900 -0.000000 -0.651200
vn 0.184500 -0.000000 -0.982800
vn 0.331600 -0.000000 -0.943400
vn 0.000000 -1.000000 0.000000
vn 0.000000 1.000000 0.000000
f 54//29 77//29 53//29
f 55//30 78//30 54//30
f 56//31 79//31 55//31
f 57//32 80//32 56//32
f 58//33 81//33 57//33
f 59//34 82//34 58//34
f 60//35 83//35 59//35
f 61//36 84//36 60//36
f 62//37 85//37 61//37
f 63//38 86//38 62//38
f 64//39 87//39 63//39
f 65//40 88//40 64//40
f 66//41 89//41 65//41
f 67//42 90//42 66//42
f 68//43 91//43 67//43
f 69//44 92//44 68//44
f 70//45 93//45 69//45
f 71//46 94//46 70//46
f 72//47 95//47 71//47
f 73//48 96//48 72//48
f 74//49 97//49 73//49
f 75//50 98//50 74//50
f 76//51 99//51 75//51
f 53//52 100//52 76//52
f 101//53 54//53 53//53
f 101//53 55//53 54//53
f 101//53 56//53 55//53
f 101//53 57//53 56//53
f 101//53 58//53 57//53
f 101//53 59//53 58//53
f 101//53 60//53 59//53
f 101//53 61//53 60//53
f 101//53 62//53 61//53
f 101//53 63//53 62//53
f 101//53 64//53 63//53
f 101//53 65//53 64//53
f 101//53 66//53 65//53
f 101//53 67//53 66//53
f 101//53 68//53 67//53
f 101//53 69//53 68//53
f 101//53 70//53 69//53
f 101//53 71//53 70//53
f 101//53 72//53 71//53
f 101//53 73//53 72//53
f 101//53 74//53 73//53
f 101//53 75//53 74//53
f 101//53 76//53 75//53
f 101//53 53//53 76//53
f 102//54 77//54 78//54
f 102//54 78//54 79//54
f 102//54 79//54 80//54
f 102//54 80//54 81//54
f 102//54 81//54 82//54
f 102//54 82//54 83//54
f 102//54 83//54 84//54
f 102//54 84//54 85//54
f 102//54 85//54 86//54
f 102//54 86//54 87//54
f 102//54 87//54 88//54
f 102//54 88//54 89//54
f 102//54 89//54 90//54
f 102//54 90//54 91//54
f 102//54 91//54 92//54
f 102//54 92//54 93//54
f 102//54 93//54 94//54
f 102//54 94//54 95//54
f 102//54 95//54 96//54
f 102//54 96//54 97//54
f 102//54 97//54 98//54
f 102//54 98//54 99//54
f 102//54 99//54 100//54
f 102//54 100//54 77//54
f 54//29 78//29 77//29
f 55//30 79//30 78//30
f 56//31 80//31 79//31
f 57//32 81//32 80//32
f 58//33 82//33 81//33
f 59//34 83//34 82//34
f 60//35 84//35 83//35
f 61//36 85//36 84//36
f 62//37 86//37 85//37
f 63//38 87//38 86//38
f 64//39 88//39 87//39
f 65//40 89//40 88//40
f 66//41 90//41 89//41
f 67//42 91//42 90//42
f 68//43 92//43 91//43
f 69//44 93//44 92//44
f 70//45 94//45 93//45
f 71//46 95//46 94//46
f 72//47 96//47 95//47
f 73//48 97//48 96//48
f 74//49 98//49 97//49
f 75//50 99//50 98//50
f 76//51 100//51 99//51
f 53//52 77//52 100//52
v -0.000000 0.367000 -0.011500
v -0.005750 0.367000 -0.009959
v -0.009959 0.367000 -0.005750
v -0.011500 0.367000 -0.000000
v -0.009959 0.367000 0.005750
v -0.005750 0.367000 0.009959
v -0.000000 0.367000 0.011500
v 0.005750 0.367000 0.009959
v 0.009959 0.367000 0.005750
v 0.011500 0.367000 0.000000
v 0.009959 0.367000 -0.005750
v 0.005750 0.367000 -0.009959
v -0.000000 0.370000 -0.006899
v -0.003449 0.370000 -0.005974
v -0.005974 0.370000 -0.003449
v -0.006899 0.370000 -0.000000
v -0.005974 0.370000 0.003449
v -0.003449 0.370000 0.005974
v -0.000000 0.370000 0.006899
v 0.003449 0.370000 0.005974
v 0.005974 0.370000 0.003449
v 0.006899 0.370000 0.000000
v 0.005974 0.370000 -0.003449
v 0.003449 0.370000 -0.005974
v -0.000000 0.367000 -0.000000
v -0.000000 0.370000 -0.000000
vn -0.144800 0.828900 -0.540400
vn -0.395600 0.828900 -0.395600
vn -0.540400 0.828900 -0.144800
vn -0.540400 0.828900 0.144800
vn -0.395600 0.828900 0.395600
vn -0.144800 0.828900 0.540400
vn 0.144800 0.828900 0.540400
vn 0.395600 0.828900 0.395600
vn 0.540400 0.828900 0.144800
vn 0.540400 0.828900 -0.144800
vn 0.395600 0.828900 -0.395600
vn 0.144800 0.828900 -0.540400
vn 0.000000 -1.000000 0.000000
vn 0.000000 1.000000 0.000000
f 104//55 115//55 103//55
f 105//56 116//56 104//56
f 106//57 117//57 105//57
f 107//58 118//58 106//58
f 108//59 119//59 107//59
f 109//60 120//60 108//60
f 110//61 121//61 109//61
f 111//62 122//62 110//62
f 112//63 123//63 111//63
f 113//64 124//64 112//64
f 114//65 125//65 113//65
f 103//66 126//66 114//66
f 127//67 104//67 103//67
f 127//67 105//67 104//67
f 127//67 106//67 105//67
f 127//67 107//67 106//67
f 127//67 108//67 107//67
f 127//67 109//67 108//67
f 127//67 110//67 109//67
f 127//67 111//67 110//67
f 127//67 112//67 111//67
f 127//67 113//67 112//67
f 127//67 114//67 113//67
f 127//67 103//67 114//67
f 128//68 115//68 116//68
f 128//68 116//68 117//68
f 128//68 117//68 118//68
f 128//68 118//68 119//68
f 128//68 119//68 120//68
f 128//68 120//68 121//68
f 128//68 121//68 122//68
f 128//68 122//68 123//68
f 128//68 123//68 124//68
f 128//68 124//68 125//68
f 128//68 125//68 126//68
f 128//68 126//68 115//68
f 104//55 116//55 115//55
f 105//56 117//56 116//56
f 106//57 118//57 117//57
f 107//58 119//58 118//58
f 108//59 120//59 119//59
f 109//60 121//60 120//60
f 110//61 122//61 121//61
f 111//62 123//62 122//62
f 112//63 124//63 123//63
f 113//64 125//64 124//64
f 114//65 126//65 125//65
f 103//66 115//66 126//66
