# Axes: Loom's -- metres, +Y up along the rod from this part's own
# origin, guides and reel toward +Z. No o/g tags: see mesh.rs:266.
# Blender 5.2.0 LTS
# www.blender.org
v -0.014000 0.007500 -0.000000
v -0.014000 0.005303 -0.005303
v -0.014000 0.000000 -0.007500
v -0.014000 -0.005303 -0.005303
v -0.014000 -0.007500 -0.000000
v -0.014000 -0.005303 0.005303
v -0.014000 0.000000 0.007500
v -0.014000 0.005303 0.005303
v -0.027317 0.003635 0.004247
v -0.029968 0.002571 0.000174
v -0.029123 0.000000 -0.004001
v -0.025277 -0.002571 -0.005832
v -0.020683 -0.003635 -0.004247
v -0.018032 -0.002571 -0.000174
v -0.018877 0.000000 0.004001
v -0.022723 0.002571 0.005832
v -0.027648 -0.024118 0.017602
v -0.029814 -0.025271 0.014665
v -0.029161 -0.027136 0.011389
v -0.026070 -0.028622 0.009691
v -0.022352 -0.028859 0.010567
v -0.020186 -0.027706 0.013503
v -0.020839 -0.025841 0.016780
v -0.023930 -0.024355 0.018477
v -0.036301 -0.050581 0.031204
v -0.038204 -0.051397 0.028452
v -0.037645 -0.053139 0.025534
v -0.034951 -0.054786 0.024159
v -0.031699 -0.055373 0.025132
v -0.029796 -0.054556 0.027884
v -0.030355 -0.052815 0.030802
v -0.033049 -0.051168 0.032178
v -0.014000 0.000000 -0.000000
v -0.034000 -0.052977 0.028168
vn -0.363500 0.860700 -0.356500
vn -0.319200 0.776800 -0.542900
vn -0.212300 0.336000 -0.917600
vn -0.236900 -0.970900 0.034300
vn -0.651700 -0.513400 0.558400
vn -0.743500 -0.626100 0.235000
vn -0.552500 0.319000 0.770100
vn -0.257300 0.892800 0.369800
vn -0.823200 0.254100 0.507800
vn -0.985400 -0.082700 -0.148500
vn -0.596700 -0.395200 -0.698400
vn 0.173400 -0.508000 -0.843700
vn 0.829700 -0.322500 -0.455700
vn 0.982400 0.017100 0.186100
vn 0.571200 0.328600 0.752200
vn -0.181900 0.424700 0.886900
vn -0.789900 0.464300 0.400700
vn -0.947900 0.158600 -0.276300
vn -0.556800 -0.249400 -0.792300
vn 0.158000 -0.518400 -0.840400
vn 0.778100 -0.490100 -0.392800
vn 0.939700 -0.180800 0.290300
vn 0.549800 0.224300 0.804600
vn -0.169600 0.493500 0.853000
vn 1.000000 -0.000000 0.000000
vn -0.287300 -0.845700 0.449700
vn -0.287400 -0.845700 0.449700
vn -0.207000 0.971100 -0.119100
vn -0.209000 0.374200 -0.903500
vn -0.049400 -0.382200 -0.922800
vn -0.279500 -0.887100 -0.367400
vn -0.753400 -0.607500 0.251600
vn -0.552500 -0.319000 0.770100
vn 0.175200 -0.383700 0.906700
vn -0.031000 0.785800 0.617700
vn -0.840400 0.246600 0.482600
vn -0.985300 -0.083200 -0.149100
vn -0.581900 -0.403200 -0.706300
vn 0.166900 -0.507500 -0.845300
vn 0.817000 -0.328000 -0.474200
vn 0.982100 0.018200 0.187500
vn 0.575300 0.326500 0.750000
vn -0.205200 0.426400 0.881000
vn -0.786200 0.466400 0.405500
vn -0.947400 0.157600 -0.278600
vn -0.555700 -0.249900 -0.792900
vn 0.164600 -0.518900 -0.838900
vn 0.783000 -0.487300 -0.386600
vn 0.940100 -0.181600 0.288500
vn 0.548500 0.224900 0.805300
vn -0.166500 0.493300 0.853800
f 2//1 9//1 1//1
f 2//2 11//2 10//2
f 3//3 12//3 11//3
f 4//4 13//4 12//4
f 5//5 14//5 13//5
f 6//6 15//6 14//6
f 8//7 15//7 7//7
f 1//8 16//8 8//8
f 9//9 18//9 17//9
f 11//10 18//10 10//10
f 12//11 19//11 11//11
f 13//12 20//12 12//12
f 14//13 21//13 13//13
f 14//14 23//14 22//14
f 15//15 24//15 23//15
f 16//16 17//16 24//16
f 18//17 25//17 17//17
f 18//18 27//18 26//18
f 19//19 28//19 27//19
f 20//20 29//20 28//20
f 21//21 30//21 29//21
f 23//22 30//22 22//22
f 24//23 31//23 23//23
f 17//24 32//24 24//24
f 33//25 2//25 1//25
f 33//25 3//25 2//25
f 33//25 4//25 3//25
f 33//25 5//25 4//25
f 33//25 6//25 5//25
f 33//25 7//25 6//25
f 33//25 8//25 7//25
f 33//25 1//25 8//25
f 34//26 25//26 26//26
f 34//26 26//26 27//26
f 34//26 27//26 28//26
f 34//26 28//26 29//26
f 34//26 29//26 30//26
f 34//26 30//26 31//26
f 34//26 31//26 32//26
f 34//27 32//27 25//27
f 2//28 10//28 9//28
f 2//29 3//29 11//29
f 3//30 4//30 12//30
f 4//31 5//31 13//31
f 5//32 6//32 14//32
f 6//33 7//33 15//33
f 8//34 16//34 15//34
f 1//35 9//35 16//35
f 9//36 10//36 18//36
f 11//37 19//37 18//37
f 12//38 20//38 19//38
f 13//39 21//39 20//39
f 14//40 22//40 21//40
f 14//41 15//41 23//41
f 15//42 16//42 24//42
f 16//43 9//43 17//43
f 18//44 26//44 25//44
f 18//45 19//45 27//45
f 19//46 20//46 28//46
f 20//47 21//47 29//47
f 21//48 22//48 30//48
f 23//49 31//49 30//49
f 24//50 32//50 31//50
f 17//51 25//51 32//51
