# Axes: Loom's -- metres, +Y up along the rod from this part's own
# origin, guides and reel toward +Z. No o/g tags: see mesh.rs:266.
# Blender 5.2.0 LTS
# www.blender.org
v -0.000000 0.000000 -0.003120
v -0.000000 0.001560 -0.002702
v -0.000000 0.002702 -0.001560
v -0.000000 0.003120 -0.000000
v -0.000000 0.002702 0.001560
v -0.000000 0.001560 0.002702
v -0.000000 0.000000 0.003120
v -0.000000 -0.001560 0.002702
v -0.000000 -0.002702 0.001560
v -0.000000 -0.003120 -0.000000
v -0.000000 -0.002702 -0.001560
v -0.000000 -0.001560 -0.002702
v -0.005000 0.000000 -0.009840
v -0.005000 0.004920 -0.008522
v -0.005000 0.008522 -0.004920
v -0.005000 0.009840 -0.000000
v -0.005000 0.008522 0.004920
v -0.005000 0.004920 0.008522
v -0.005000 0.000000 0.009840
v -0.005000 -0.004920 0.008522
v -0.005000 -0.008522 0.004920
v -0.005000 -0.009840 -0.000000
v -0.005000 -0.008522 -0.004920
v -0.005000 -0.004920 -0.008522
v -0.016000 0.000000 -0.012000
v -0.016000 0.006000 -0.010392
v -0.016000 0.010392 -0.006000
v -0.016000 0.012000 -0.000000
v -0.016000 0.010392 0.006000
v -0.016000 0.006000 0.010392
v -0.016000 0.000000 0.012000
v -0.016000 -0.006000 0.010392
v -0.016000 -0.010392 0.006000
v -0.016000 -0.012000 -0.000000
v -0.016000 -0.010392 -0.006000
v -0.016000 -0.006000 -0.010392
v -0.030000 0.000000 -0.010800
v -0.030000 0.005400 -0.009353
v -0.030000 0.009353 -0.005400
v -0.030000 0.010800 -0.000000
v -0.030000 0.009353 0.005400
v -0.030000 0.005400 0.009353
v -0.030000 0.000000 0.010800
v -0.030000 -0.005400 0.009353
v -0.030000 -0.009353 0.005400
v -0.030000 -0.010800 -0.000000
v -0.030000 -0.009353 -0.005400
v -0.030000 -0.005400 -0.009353
v -0.040000 0.000000 -0.006240
v -0.040000 0.003120 -0.005404
v -0.040000 0.005404 -0.003120
v -0.040000 0.006240 -0.000000
v -0.040000 0.005404 0.003120
v -0.040000 0.003120 0.005404
v -0.040000 0.000000 0.006240
v -0.040000 -0.003120 0.005404
v -0.040000 -0.005404 0.003120
v -0.040000 -0.006240 -0.000000
v -0.040000 -0.005404 -0.003120
v -0.040000 -0.003120 -0.005404
v -0.000000 0.000000 -0.000000
v -0.040000 0.000000 -0.000000
vn 0.792200 0.157900 -0.589500
vn 0.792200 0.431500 -0.431500
vn 0.792200 0.589400 -0.157900
vn 0.792200 0.589400 0.157900
vn 0.792200 0.431500 0.431500
vn 0.792200 0.157900 0.589400
vn 0.792200 -0.157900 0.589400
vn 0.792200 -0.431500 0.431500
vn 0.792200 -0.589400 0.157900
vn 0.792200 -0.589400 -0.157900
vn 0.792200 -0.431500 -0.431500
vn 0.792200 -0.157900 -0.589400
vn 0.186300 0.254300 -0.949000
vn 0.186400 0.694700 -0.694700
vn 0.186400 0.949000 -0.254300
vn 0.186300 0.949000 0.254300
vn 0.186300 0.694700 0.694700
vn 0.186300 0.254300 0.949000
vn 0.186400 -0.254300 0.949000
vn 0.186300 -0.694700 0.694700
vn 0.186400 -0.949000 0.254300
vn 0.186400 -0.949000 -0.254300
vn 0.186400 -0.694700 -0.694700
vn 0.186300 -0.254300 -0.949000
vn -0.082500 0.257900 -0.962600
vn -0.082500 0.704700 -0.704700
vn -0.082500 0.962600 -0.257900
vn -0.082500 0.962600 0.257900
vn -0.082500 0.704700 0.704700
vn -0.082500 0.257900 0.962600
vn -0.082500 -0.257900 0.962600
vn -0.082500 -0.704700 0.704700
vn -0.082500 -0.962600 0.257900
vn -0.082500 -0.962600 -0.257900
vn -0.082500 -0.704700 -0.704700
vn -0.082500 -0.257900 -0.962600
vn -0.403100 0.236900 -0.884000
vn -0.403100 0.647100 -0.647100
vn -0.403100 0.884000 -0.236900
vn -0.403100 0.884000 0.236900
vn -0.403100 0.647100 0.647100
vn -0.403100 0.236900 0.884000
vn -0.403100 -0.236900 0.884000
vn -0.403100 -0.647100 0.647100
vn -0.403100 -0.884000 0.236900
vn -0.403100 -0.884000 -0.236900
vn -0.403100 -0.647100 -0.647100
vn -0.403100 -0.236900 -0.884000
vn 1.000000 -0.000000 0.000000
vn -1.000000 -0.000000 0.000000
vn 0.792200 0.157900 -0.589400
vn 0.186400 0.254300 -0.949000
vn 0.186300 0.694700 -0.694700
vn 0.186300 0.949000 -0.254300
vn 0.186400 0.949000 0.254300
vn 0.186400 0.694700 0.694700
vn 0.186400 0.254300 0.949000
vn 0.186300 -0.254300 0.949000
vn 0.186300 -0.694700 -0.694700
vn 0.186400 -0.254300 -0.949000
f 1//1 14//1 2//1
f 2//2 15//2 3//2
f 3//3 16//3 4//3
f 16//4 5//4 4//4
f 17//5 6//5 5//5
f 6//6 19//6 7//6
f 19//7 8//7 7//7
f 8//8 21//8 9//8
f 21//9 10//9 9//9
f 10//10 23//10 11//10
f 11//11 24//11 12//11
f 24//12 1//12 12//12
f 13//13 26//13 14//13
f 26//14 15//14 14//14
f 27//15 16//15 15//15
f 28//16 17//16 16//16
f 29//17 18//17 17//17
f 18//18 31//18 19//18
f 31//19 20//19 19//19
f 20//20 33//20 21//20
f 33//21 22//21 21//21
f 34//22 23//22 22//22
f 35//23 24//23 23//23
f 36//24 13//24 24//24
f 25//25 38//25 26//25
f 26//26 39//26 27//26
f 39//27 28//27 27//27
f 40//28 29//28 28//28
f 29//29 42//29 30//29
f 42//30 31//30 30//30
f 43//31 32//31 31//31
f 32//32 45//32 33//32
f 45//33 34//33 33//33
f 46//34 35//34 34//34
f 47//35 36//35 35//35
f 48//36 25//36 36//36
f 49//37 38//37 37//37
f 38//38 51//38 39//38
f 51//39 40//39 39//39
f 52//40 41//40 40//40
f 53//41 42//41 41//41
f 54//42 43//42 42//42
f 43//43 56//43 44//43
f 56//44 45//44 44//44
f 45//45 58//45 46//45
f 58//46 47//46 46//46
f 59//47 48//47 47//47
f 48//48 49//48 37//48
f 61//49 1//49 2//49
f 61//49 2//49 3//49
f 61//49 3//49 4//49
f 61//49 4//49 5//49
f 61//49 5//49 6//49
f 61//49 6//49 7//49
f 61//49 7//49 8//49
f 61//49 8//49 9//49
f 61//49 9//49 10//49
f 61//49 10//49 11//49
f 61//49 11//49 12//49
f 61//49 12//49 1//49
f 62//50 50//50 49//50
f 62//50 51//50 50//50
f 62//50 52//50 51//50
f 62//50 53//50 52//50
f 62//50 54//50 53//50
f 62//50 55//50 54//50
f 62//50 56//50 55//50
f 62//50 57//50 56//50
f 62//50 58//50 57//50
f 62//50 59//50 58//50
f 62//50 60//50 59//50
f 62//50 49//50 60//50
f 1//51 13//51 14//51
f 2//2 14//2 15//2
f 3//3 15//3 16//3
f 16//4 17//4 5//4
f 17//5 18//5 6//5
f 6//6 18//6 19//6
f 19//7 20//7 8//7
f 8//8 20//8 21//8
f 21//9 22//9 10//9
f 10//10 22//10 23//10
f 11//11 23//11 24//11
f 24//12 13//12 1//12
f 13//52 25//52 26//52
f 26//53 27//53 15//53
f 27//54 28//54 16//54
f 28//55 29//55 17//55
f 29//56 30//56 18//56
f 18//57 30//57 31//57
f 31//58 32//58 20//58
f 20//20 32//20 33//20
f 33//21 34//21 22//21
f 34//22 35//22 23//22
f 35//59 36//59 24//59
f 36//60 25//60 13//60
f 25//25 37//25 38//25
f 26//26 38//26 39//26
f 39//27 40//27 28//27
f 40//28 41//28 29//28
f 29//29 41//29 42//29
f 42//30 43//30 31//30
f 43//31 44//31 32//31
f 32//32 44//32 45//32
f 45//33 46//33 34//33
f 46//34 47//34 35//34
f 47//35 48//35 36//35
f 48//36 37//36 25//36
f 49//37 50//37 38//37
f 38//38 50//38 51//38
f 51//39 52//39 40//39
f 52//40 53//40 41//40
f 53//41 54//41 42//41
f 54//42 55//42 43//42
f 43//43 55//43 56//43
f 56//44 57//44 45//44
f 45//45 57//45 58//45
f 58//46 59//46 47//46
f 59//47 60//47 48//47
f 48//48 60//48 49//48
