# Axes: Loom's -- metres, +Y up along the rod from this part's own
# origin, guides and reel toward +Z. No o/g tags: see mesh.rs:266.
# Blender 5.2.0 LTS
# www.blender.org
v -0.000000 0.000000 -0.012000
v -0.006000 0.000000 -0.010392
v -0.010392 0.000000 -0.006000
v -0.012000 0.000000 -0.000000
v -0.010392 0.000000 0.006000
v -0.006000 0.000000 0.010392
v -0.000000 0.000000 0.012000
v 0.006000 0.000000 0.010392
v 0.010392 0.000000 0.006000
v 0.012000 0.000000 -0.000000
v 0.010392 0.000000 -0.006000
v 0.006000 0.000000 -0.010392
v -0.000000 0.000000 -0.024000
v -0.012000 0.000000 -0.020785
v -0.020785 0.000000 -0.012000
v -0.024000 0.000000 -0.000000
v -0.020785 0.000000 0.012000
v -0.012000 0.000000 0.020785
v -0.000000 0.000000 0.024000
v 0.012000 0.000000 0.020785
v 0.020785 0.000000 0.012000
v 0.024000 0.000000 -0.000000
v 0.020785 0.000000 -0.012000
v 0.012000 0.000000 -0.020785
v -0.000000 0.002000 -0.026000
v -0.013000 0.002000 -0.022517
v -0.022517 0.002000 -0.013000
v -0.026000 0.002000 -0.000000
v -0.022517 0.002000 0.013000
v -0.013000 0.002000 0.022517
v -0.000000 0.002000 0.026000
v 0.013000 0.002000 0.022517
v 0.022517 0.002000 0.013000
v 0.026000 0.002000 -0.000000
v 0.022517 0.002000 -0.013000
v 0.013000 0.002000 -0.022517
v -0.000000 0.007000 -0.025400
v -0.012700 0.007000 -0.021997
v -0.021997 0.007000 -0.012700
v -0.025400 0.007000 -0.000000
v -0.021997 0.007000 0.012700
v -0.012700 0.007000 0.021997
v -0.000000 0.007000 0.025400
v 0.012700 0.007000 0.021997
v 0.021997 0.007000 0.012700
v 0.025400 0.007000 -0.000000
v 0.021997 0.007000 -0.012700
v 0.012700 0.007000 -0.021997
v -0.000000 0.009000 -0.009000
v -0.004500 0.009000 -0.007794
v -0.007794 0.009000 -0.004500
v -0.009000 0.009000 -0.000000
v -0.007794 0.009000 0.004500
v -0.004500 0.009000 0.007794
v -0.000000 0.009000 0.009000
v 0.004500 0.009000 0.007794
v 0.007794 0.009000 0.004500
v 0.009000 0.009000 -0.000000
v 0.007794 0.009000 -0.004500
v 0.004500 0.009000 -0.007794
v -0.000000 0.037000 -0.009000
v -0.004500 0.037000 -0.007794
v -0.007794 0.037000 -0.004500
v -0.009000 0.037000 -0.000000
v -0.007794 0.037000 0.004500
v -0.004500 0.037000 0.007794
v -0.000000 0.037000 0.009000
v 0.004500 0.037000 0.007794
v 0.007794 0.037000 0.004500
v 0.009000 0.037000 -0.000000
v 0.007794 0.037000 -0.004500
v 0.004500 0.037000 -0.007794
v -0.000000 0.039000 -0.025400
v -0.012700 0.039000 -0.021997
v -0.021997 0.039000 -0.012700
v -0.025400 0.039000 -0.000000
v -0.021997 0.039000 0.012700
v -0.012700 0.039000 0.021997
v -0.000000 0.039000 0.025400
v 0.012700 0.039000 0.021997
v 0.021997 0.039000 0.012700
v 0.025400 0.039000 -0.000000
v 0.021997 0.039000 -0.012700
v 0.012700 0.039000 -0.021997
v -0.000000 0.044000 -0.026000
v -0.013000 0.044000 -0.022517
v -0.022517 0.044000 -0.013000
v -0.026000 0.044000 -0.000000
v -0.022517 0.044000 0.013000
v -0.013000 0.044000 0.022517
v -0.000000 0.044000 0.026000
v 0.013000 0.044000 0.022517
v 0.022517 0.044000 0.013000
v 0.026000 0.044000 -0.000000
v 0.022517 0.044000 -0.013000
v 0.013000 0.044000 -0.022517
v -0.000000 0.046000 -0.022500
v -0.011250 0.046000 -0.019486
v -0.019486 0.046000 -0.011250
v -0.022500 0.046000 -0.000000
v -0.019486 0.046000 0.011250
v -0.011250 0.046000 0.019486
v -0.000000 0.046000 0.022500
v 0.011250 0.046000 0.019486
v 0.019486 0.046000 0.011250
v 0.022500 0.046000 -0.000000
v 0.019486 0.046000 -0.011250
v 0.011250 0.046000 -0.019486
v -0.000000 0.046000 -0.011000
v -0.005500 0.046000 -0.009526
v -0.009526 0.046000 -0.005500
v -0.011000 0.046000 -0.000000
v -0.009526 0.046000 0.005500
v -0.005500 0.046000 0.009526
v -0.000000 0.046000 0.011000
v 0.005500 0.046000 0.009526
v 0.009526 0.046000 0.005500
v 0.011000 0.046000 -0.000000
v 0.009526 0.046000 -0.005500
v 0.005500 0.046000 -0.009526
v -0.000000 0.000000 -0.000000
v -0.000000 0.046000 -0.000000
vn 0.000000 -1.000000 0.000000
vn -0.186200 -0.694800 -0.694700
vn -0.508600 -0.694700 -0.508600
vn -0.694700 -0.694700 -0.186200
vn -0.694700 -0.694700 0.186200
vn -0.508600 -0.694700 0.508600
vn -0.186200 -0.694700 0.694800
vn 0.186200 -0.694700 0.694700
vn 0.508600 -0.694700 0.508600
vn 0.694700 -0.694700 0.186200
vn 0.694700 -0.694700 -0.186200
vn 0.508600 -0.694700 -0.508600
vn 0.186200 -0.694700 -0.694800
vn -0.257100 0.115100 -0.959500
vn -0.702400 0.115100 -0.702400
vn -0.959500 0.115100 -0.257100
vn -0.959500 0.115100 0.257100
vn -0.702400 0.115100 0.702400
vn -0.257100 0.115100 0.959500
vn 0.257100 0.115100 0.959500
vn 0.702400 0.115100 0.702400
vn 0.959500 0.115100 0.257100
vn 0.959500 0.115100 -0.257100
vn 0.702400 0.115100 -0.702400
vn 0.257100 0.115100 -0.959500
vn -0.032400 0.992100 -0.121000
vn -0.088600 0.992100 -0.088600
vn -0.121000 0.992100 -0.032400
vn -0.121000 0.992100 0.032400
vn -0.088600 0.992100 0.088600
vn -0.032400 0.992100 0.121000
vn 0.032400 0.992100 0.121000
vn 0.088600 0.992100 0.088600
vn 0.121000 0.992100 0.032400
vn 0.121000 0.992100 -0.032400
vn 0.088600 0.992100 -0.088600
vn 0.032400 0.992100 -0.121000
vn -0.258800 -0.000000 -0.965900
vn -0.707100 -0.000000 -0.707100
vn -0.965900 -0.000000 -0.258800
vn -0.965900 -0.000000 0.258800
vn -0.707100 -0.000000 0.707100
vn -0.258800 -0.000000 0.965900
vn 0.258800 -0.000000 0.965900
vn 0.707100 -0.000000 0.707100
vn 0.965900 -0.000000 0.258800
vn 0.965900 -0.000000 -0.258800
vn 0.707100 -0.000000 -0.707100
vn 0.258800 -0.000000 -0.965900
vn -0.032400 -0.992100 -0.121000
vn -0.088600 -0.992100 -0.088600
vn -0.121000 -0.992100 -0.032400
vn -0.121000 -0.992100 0.032400
vn -0.088600 -0.992100 0.088600
vn -0.032400 -0.992100 0.121000
vn 0.032400 -0.992100 0.121000
vn 0.088600 -0.992100 0.088600
vn 0.121000 -0.992100 0.032400
vn 0.121000 -0.992100 -0.032400
vn 0.088600 -0.992100 -0.088600
vn 0.032400 -0.992100 -0.121000
vn -0.257100 -0.115100 -0.959500
vn -0.702400 -0.115100 -0.702400
vn -0.959500 -0.115100 -0.257100
vn -0.959500 -0.115100 0.257100
vn -0.702400 -0.115100 0.702400
vn -0.257100 -0.115100 0.959500
vn 0.257100 -0.115100 0.959500
vn 0.702400 -0.115100 0.702400
vn 0.959500 -0.115100 0.257100
vn 0.959500 -0.115100 -0.257100
vn 0.702400 -0.115100 -0.702400
vn 0.257100 -0.115100 -0.959500
vn -0.131800 0.860700 -0.491800
vn -0.360000 0.860700 -0.360000
vn -0.491800 0.860700 -0.131800
vn -0.491800 0.860700 0.131800
vn -0.360000 0.860700 0.360000
vn -0.131800 0.860700 0.491800
vn 0.131800 0.860700 0.491800
vn 0.360000 0.860700 0.360000
vn 0.491800 0.860700 0.131800
vn 0.491800 0.860700 -0.131800
vn 0.360000 0.860700 -0.360000
vn 0.131800 0.860700 -0.491800
vn 0.000000 1.000000 0.000000
vn -0.186200 -0.694700 -0.694800
vn -0.186200 -0.694700 0.694700
vn 0.186200 -0.694700 0.694800
vn 0.186200 -0.694800 -0.694700
f 1//1 14//1 13//1
f 3//1 14//1 2//1
f 4//1 15//1 3//1
f 4//1 17//1 16//1
f 5//1 18//1 17//1
f 7//1 18//1 6//1
f 8//1 19//1 7//1
f 9//1 20//1 8//1
f 10//1 21//1 9//1
f 10//1 23//1 22//1
f 12//1 23//1 11//1
f 1//1 24//1 12//1
f 14//2 25//2 13//2
f 15//3 26//3 14//3
f 15//4 28//4 27//4
f 17//5 28//5 16//5
f 18//6 29//6 17//6
f 18//7 31//7 30//7
f 20//8 31//8 19//8
f 21//9 32//9 20//9
f 22//10 33//10 21//10
f 23//11 34//11 22//11
f 23//12 36//12 35//12
f 24//13 25//13 36//13
f 26//14 37//14 25//14
f 26//15 39//15 38//15
f 27//16 40//16 39//16
f 28//17 41//17 40//17
f 30//18 41//18 29//18
f 31//19 42//19 30//19
f 31//20 44//20 43//20
f 32//21 45//21 44//21
f 34//22 45//22 33//22
f 35//23 46//23 34//23
f 36//24 47//24 35//24
f 25//25 48//25 36//25
f 38//26 49//26 37//26
f 39//27 50//27 38//27
f 39//28 52//28 51//28
f 41//29 52//29 40//29
f 42//30 53//30 41//30
f 43//31 54//31 42//31
f 44//32 55//32 43//32
f 44//33 57//33 56//33
f 46//34 57//34 45//34
f 47//35 58//35 46//35
f 47//36 60//36 59//36
f 37//37 60//37 48//37
f 50//38 61//38 49//38
f 51//39 62//39 50//39
f 52//40 63//40 51//40
f 53//41 64//41 52//41
f 54//42 65//42 53//42
f 55//43 66//43 54//43
f 56//44 67//44 55//44
f 57//45 68//45 56//45
f 58//46 69//46 57//46
f 59//47 70//47 58//47
f 60//48 71//48 59//48
f 49//49 72//49 60//49
f 62//50 73//50 61//50
f 62//51 75//51 74//51
f 63//52 76//52 75//52
f 65//53 76//53 64//53
f 66//54 77//54 65//54
f 67//55 78//55 66//55
f 67//56 80//56 79//56
f 69//57 80//57 68//57
f 70//58 81//58 69//58
f 70//59 83//59 82//59
f 72//60 83//60 71//60
f 72//61 73//61 84//61
f 74//62 85//62 73//62
f 75//63 86//63 74//63
f 76//64 87//64 75//64
f 77//65 88//65 76//65
f 77//66 90//66 89//66
f 78//67 91//67 90//67
f 80//68 91//68 79//68
f 81//69 92//69 80//69
f 81//70 94//70 93//70
f 82//71 95//71 94//71
f 83//72 96//72 95//72
f 73//73 96//73 84//73
f 85//74 98//74 97//74
f 87//75 98//75 86//75
f 88//76 99//76 87//76
f 88//77 101//77 100//77
f 90//78 101//78 89//78
f 90//79 103//79 102//79
f 92//80 103//80 91//80
f 93//81 104//81 92//81
f 94//82 105//82 93//82
f 95//83 106//83 94//83
f 96//84 107//84 95//84
f 85//85 108//85 96//85
f 97//86 110//86 109//86
f 99//86 110//86 98//86
f 100//86 111//86 99//86
f 100//86 113//86 112//86
f 102//86 113//86 101//86
f 103//86 114//86 102//86
f 103//86 116//86 115//86
f 104//86 117//86 116//86
f 106//86 117//86 105//86
f 106//86 119//86 118//86
f 107//86 120//86 119//86
f 97//86 120//86 108//86
f 121//1 2//1 1//1
f 121//1 3//1 2//1
f 121//1 4//1 3//1
f 121//1 5//1 4//1
f 121//1 6//1 5//1
f 121//1 7//1 6//1
f 121//1 8//1 7//1
f 121//1 9//1 8//1
f 121//1 10//1 9//1
f 121//1 11//1 10//1
f 121//1 12//1 11//1
f 121//1 1//1 12//1
f 122//86 109//86 110//86
f 122//86 110//86 111//86
f 122//86 111//86 112//86
f 122//86 112//86 113//86
f 122//86 113//86 114//86
f 122//86 114//86 115//86
f 122//86 115//86 116//86
f 122//86 116//86 117//86
f 122//86 117//86 118//86
f 122//86 118//86 119//86
f 122//86 119//86 120//86
f 122//86 120//86 109//86
f 1//1 2//1 14//1
f 3//1 15//1 14//1
f 4//1 16//1 15//1
f 4//1 5//1 17//1
f 5//1 6//1 18//1
f 7//1 19//1 18//1
f 8//1 20//1 19//1
f 9//1 21//1 20//1
f 10//1 22//1 21//1
f 10//1 11//1 23//1
f 12//1 24//1 23//1
f 1//1 13//1 24//1
f 14//87 26//87 25//87
f 15//3 27//3 26//3
f 15//4 16//4 28//4
f 17//5 29//5 28//5
f 18//6 30//6 29//6
f 18//88 19//88 31//88
f 20//89 32//89 31//89
f 21//9 33//9 32//9
f 22//10 34//10 33//10
f 23//11 35//11 34//11
f 23//12 24//12 36//12
f 24//90 13//90 25//90
f 26//14 38//14 37//14
f 26//15 27//15 39//15
f 27//16 28//16 40//16
f 28//17 29//17 41//17
f 30//18 42//18 41//18
f 31//19 43//19 42//19
f 31//20 32//20 44//20
f 32//21 33//21 45//21
f 34//22 46//22 45//22
f 35//23 47//23 46//23
f 36//24 48//24 47//24
f 25//25 37//25 48//25
f 38//26 50//26 49//26
f 39//27 51//27 50//27
f 39//28 40//28 52//28
f 41//29 53//29 52//29
f 42//30 54//30 53//30
f 43//31 55//31 54//31
f 44//32 56//32 55//32
f 44//33 45//33 57//33
f 46//34 58//34 57//34
f 47//35 59//35 58//35
f 47//36 48//36 60//36
f 37//37 49//37 60//37
f 50//38 62//38 61//38
f 51//39 63//39 62//39
f 52//40 64//40 63//40
f 53//41 65//41 64//41
f 54//42 66//42 65//42
f 55//43 67//43 66//43
f 56//44 68//44 67//44
f 57//45 69//45 68//45
f 58//46 70//46 69//46
f 59//47 71//47 70//47
f 60//48 72//48 71//48
f 49//49 61//49 72//49
f 62//50 74//50 73//50
f 62//51 63//51 75//51
f 63//52 64//52 76//52
f 65//53 77//53 76//53
f 66//54 78//54 77//54
f 67//55 79//55 78//55
f 67//56 68//56 80//56
f 69//57 81//57 80//57
f 70//58 82//58 81//58
f 70//59 71//59 83//59
f 72//60 84//60 83//60
f 72//61 61//61 73//61
f 74//62 86//62 85//62
f 75//63 87//63 86//63
f 76//64 88//64 87//64
f 77//65 89//65 88//65
f 77//66 78//66 90//66
f 78//67 79//67 91//67
f 80//68 92//68 91//68
f 81//69 93//69 92//69
f 81//70 82//70 94//70
f 82//71 83//71 95//71
f 83//72 84//72 96//72
f 73//73 85//73 96//73
f 85//74 86//74 98//74
f 87//75 99//75 98//75
f 88//76 100//76 99//76
f 88//77 89//77 101//77
f 90//78 102//78 101//78
f 90//79 91//79 103//79
f 92//80 104//80 103//80
f 93//81 105//81 104//81
f 94//82 106//82 105//82
f 95//83 107//83 106//83
f 96//84 108//84 107//84
f 85//85 97//85 108//85
f 97//86 98//86 110//86
f 99//86 111//86 110//86
f 100//86 112//86 111//86
f 100//86 101//86 113//86
f 102//86 114//86 113//86
f 103//86 115//86 114//86
f 103//86 104//86 116//86
f 104//86 105//86 117//86
f 106//86 118//86 117//86
f 106//86 107//86 119//86
f 107//86 108//86 120//86
f 97//86 109//86 120//86
v -0.000000 0.046500 -0.012900
v -0.003801 0.046500 -0.011698
v -0.007582 0.046500 -0.010436
v -0.009951 0.046500 -0.007230
v -0.012269 0.046500 -0.003986
v -0.012300 0.046500 -0.000000
v -0.012269 0.046500 0.003986
v -0.009951 0.046500 0.007230
v -0.007582 0.046500 0.010436
v -0.003801 0.046500 0.011698
v -0.000000 0.046500 0.012900
v 0.003801 0.046500 0.011698
v 0.007582 0.046500 0.010436
v 0.009951 0.046500 0.007230
v 0.012269 0.046500 0.003986
v 0.012300 0.046500 -0.000000
v 0.012269 0.046500 -0.003986
v 0.009951 0.046500 -0.007230
v 0.007582 0.046500 -0.010436
v 0.003801 0.046500 -0.011698
v -0.000000 0.048000 -0.015000
v -0.004450 0.048000 -0.013695
v -0.008817 0.048000 -0.012135
v -0.011650 0.048000 -0.008464
v -0.014266 0.048000 -0.004635
v -0.014400 0.048000 -0.000000
v -0.014266 0.048000 0.004635
v -0.011650 0.048000 0.008464
v -0.008817 0.048000 0.012135
v -0.004450 0.048000 0.013695
v -0.000000 0.048000 0.015000
v 0.004450 0.048000 0.013695
v 0.008817 0.048000 0.012135
v 0.011650 0.048000 0.008464
v 0.014266 0.048000 0.004635
v 0.014400 0.048000 -0.000000
v 0.014266 0.048000 -0.004635
v 0.011650 0.048000 -0.008464
v 0.008817 0.048000 -0.012135
v 0.004450 0.048000 -0.013695
v -0.000000 0.054900 -0.015000
v -0.004450 0.054900 -0.013695
v -0.008817 0.054900 -0.012135
v -0.011650 0.054900 -0.008464
v -0.014266 0.054900 -0.004635
v -0.014400 0.054900 -0.000000
v -0.014266 0.054900 0.004635
v -0.011650 0.054900 0.008464
v -0.008817 0.054900 0.012135
v -0.004450 0.054900 0.013695
v -0.000000 0.054900 0.015000
v 0.004450 0.054900 0.013695
v 0.008817 0.054900 0.012135
v 0.011650 0.054900 0.008464
v 0.014266 0.054900 0.004635
v 0.014400 0.054900 -0.000000
v 0.014266 0.054900 -0.004635
v 0.011650 0.054900 -0.008464
v 0.008817 0.054900 -0.012135
v 0.004450 0.054900 -0.013695
v -0.000000 0.058540 -0.013950
v -0.004125 0.058540 -0.012697
v -0.008200 0.058540 -0.011286
v -0.010800 0.058540 -0.007847
v -0.013267 0.058540 -0.004311
v -0.013350 0.058540 -0.000000
v -0.013267 0.058540 0.004311
v -0.010800 0.058540 0.007847
v -0.008200 0.058540 0.011286
v -0.004125 0.058540 0.012697
v -0.000000 0.058540 0.013950
v 0.004125 0.058540 0.012697
v 0.008200 0.058540 0.011286
v 0.010800 0.058540 0.007847
v 0.013267 0.058540 0.004311
v 0.013350 0.058540 -0.000000
v 0.013267 0.058540 -0.004311
v 0.010800 0.058540 -0.007847
v 0.008200 0.058540 -0.011286
v 0.004125 0.058540 -0.012697
v -0.000000 0.060500 -0.009900
v -0.002874 0.060500 -0.008845
v -0.005819 0.060500 -0.008009
v -0.007524 0.060500 -0.005466
v -0.009415 0.060500 -0.003059
v -0.009300 0.060500 -0.000000
v -0.009415 0.060500 0.003059
v -0.007524 0.060500 0.005466
v -0.005819 0.060500 0.008009
v -0.002874 0.060500 0.008845
v -0.000000 0.060500 0.009900
v 0.002874 0.060500 0.008845
v 0.005819 0.060500 0.008009
v 0.007524 0.060500 0.005466
v 0.009415 0.060500 0.003059
v 0.009300 0.060500 -0.000000
v 0.009415 0.060500 -0.003059
v 0.007524 0.060500 -0.005466
v 0.005819 0.060500 -0.008009
v 0.002874 0.060500 -0.008845
v -0.000000 0.046500 -0.000000
v -0.000000 0.060500 -0.000000
vn -0.168000 -0.802200 -0.573000
vn -0.184000 -0.813700 -0.551400
vn -0.472700 -0.802200 -0.364800
vn -0.472900 -0.813700 -0.337900
vn -0.596900 -0.802200 -0.017300
vn -0.581200 -0.813700 0.004600
vn -0.493000 -0.802200 0.336900
vn -0.467500 -0.813700 0.345300
vn -0.200900 -0.802200 0.562300
vn -0.175300 -0.813700 0.554200
vn 0.168000 -0.802200 0.573000
vn 0.184000 -0.813700 0.551400
vn 0.472700 -0.802200 0.364800
vn 0.472900 -0.813700 0.337900
vn 0.596900 -0.802200 0.017300
vn 0.581200 -0.813700 -0.004600
vn 0.493000 -0.802200 -0.336900
vn 0.467500 -0.813700 -0.345300
vn 0.200900 -0.802200 -0.562300
vn 0.175300 -0.813700 -0.554200
vn -0.281400 -0.000000 -0.959600
vn -0.336400 -0.000000 -0.941700
vn -0.791700 -0.000000 -0.610900
vn -0.825700 -0.000000 -0.564100
vn -0.999600 -0.000000 -0.028900
vn -0.999600 -0.000000 0.028900
vn -0.825700 -0.000000 0.564100
vn -0.791700 -0.000000 0.610900
vn -0.336400 -0.000000 0.941700
vn -0.281400 -0.000000 0.959600
vn 0.281400 -0.000000 0.959600
vn 0.336400 -0.000000 0.941700
vn 0.791700 -0.000000 0.610900
vn 0.825700 -0.000000 0.564100
vn 0.999600 -0.000000 0.028900
vn 0.999600 -0.000000 -0.028900
vn 0.825700 -0.000000 -0.564100
vn 0.791700 -0.000000 -0.610900
vn 0.336400 -0.000000 -0.941700
vn 0.281400 -0.000000 -0.959600
vn -0.271200 0.266800 -0.924800
vn -0.314400 0.277100 -0.907900
vn -0.763000 0.266800 -0.588800
vn -0.788000 0.277100 -0.549700
vn -0.963400 0.266800 -0.027900
vn -0.960700 0.277100 0.018400
vn -0.795800 0.266800 0.543700
vn -0.766300 0.277100 0.579600
vn -0.324200 0.266800 0.907600
vn -0.279300 0.277100 0.919300
vn 0.271200 0.266800 0.924800
vn 0.314400 0.277100 0.907900
vn 0.763000 0.266800 0.588800
vn 0.788000 0.277100 0.549700
vn 0.963400 0.266800 0.027900
vn 0.960700 0.277100 -0.018400
vn 0.795800 0.266800 -0.543700
vn 0.766300 0.277100 -0.579600
vn 0.324200 0.266800 -0.907600
vn 0.279300 0.277100 -0.919300
vn -0.131200 0.892300 -0.431900
vn -0.119000 0.900000 -0.419300
vn -0.360000 0.892300 -0.272300
vn -0.342700 0.900000 -0.269300
vn -0.451300 0.892300 -0.008700
vn -0.435600 0.900000 -0.016400
vn -0.370200 0.892300 0.258200
vn -0.362000 0.900000 0.242700
vn -0.147700 0.892300 0.426500
vn -0.150200 0.900000 0.409200
vn 0.131200 0.892300 0.431900
vn 0.119000 0.900000 0.419300
vn 0.360000 0.892300 0.272300
vn 0.342700 0.900000 0.269300
vn 0.451300 0.892300 0.008700
vn 0.435600 0.900000 0.016400
vn 0.370200 0.892300 -0.258200
vn 0.362000 0.900000 -0.242700
vn 0.147700 0.892300 -0.426500
vn 0.150200 0.900000 -0.409200
vn 0.000000 -1.000000 0.000000
vn 0.000000 1.000000 0.000000
vn -0.175300 -0.813700 -0.554200
vn -0.200900 -0.802200 -0.562300
vn -0.467500 -0.813700 -0.345300
vn -0.493000 -0.802200 -0.336900
vn -0.581200 -0.813700 -0.004600
vn -0.596900 -0.802200 0.017300
vn -0.472900 -0.813700 0.337900
vn -0.472700 -0.802200 0.364800
vn -0.184000 -0.813700 0.551400
vn -0.168000 -0.802200 0.573000
vn 0.175300 -0.813700 0.554200
vn 0.200900 -0.802200 0.562300
vn 0.467500 -0.813700 0.345300
vn 0.493000 -0.802200 0.336900
vn 0.581200 -0.813700 0.004600
vn 0.596900 -0.802200 -0.017300
vn 0.472900 -0.813700 -0.337900
vn 0.472700 -0.802200 -0.364800
vn 0.184000 -0.813700 -0.551400
vn 0.168000 -0.802200 -0.573000
vn -0.279300 0.277100 -0.919300
vn -0.324200 0.266800 -0.907600
vn -0.766300 0.277100 -0.579600
vn -0.795800 0.266800 -0.543700
vn -0.960700 0.277100 -0.018400
vn -0.963400 0.266800 0.027900
vn -0.788000 0.277100 0.549700
vn -0.763000 0.266800 0.588800
vn -0.314400 0.277100 0.907900
vn -0.271200 0.266800 0.924800
vn 0.279300 0.277100 0.919300
vn 0.324200 0.266800 0.907600
vn 0.766300 0.277100 0.579600
vn 0.795800 0.266800 0.543700
vn 0.960700 0.277100 0.018400
vn 0.963400 0.266800 -0.027900
vn 0.788000 0.277100 -0.549700
vn 0.763000 0.266800 -0.588800
vn 0.314400 0.277100 -0.907900
vn 0.271200 0.266800 -0.924800
vn -0.150200 0.900000 -0.409200
vn -0.147700 0.892300 -0.426500
vn -0.362000 0.900000 -0.242700
vn -0.370200 0.892300 -0.258200
vn -0.435600 0.900000 0.016400
vn -0.451300 0.892300 0.008700
vn -0.342700 0.900000 0.269300
vn -0.360000 0.892300 0.272300
vn -0.119000 0.900000 0.419300
vn -0.131200 0.892300 0.431900
vn 0.150200 0.900000 0.409200
vn 0.147700 0.892300 0.426500
vn 0.362000 0.900000 0.242700
vn 0.370200 0.892300 0.258200
vn 0.435600 0.900000 -0.016400
vn 0.451300 0.892300 -0.008700
vn 0.342700 0.900000 -0.269300
vn 0.360000 0.892300 -0.272300
vn 0.119000 0.900000 -0.419300
vn 0.131200 0.892300 -0.431900
f 123//91 144//91 143//91
f 125//92 144//92 124//92
f 125//93 146//93 145//93
f 127//94 146//94 126//94
f 127//95 148//95 147//95
f 129//96 148//96 128//96
f 129//97 150//97 149//97
f 131//98 150//98 130//98
f 131//99 152//99 151//99
f 133//100 152//100 132//100
f 133//101 154//101 153//101
f 135//102 154//102 134//102
f 135//103 156//103 155//103
f 137//104 156//104 136//104
f 137//105 158//105 157//105
f 139//106 158//106 138//106
f 139//107 160//107 159//107
f 141//108 160//108 140//108
f 141//109 162//109 161//109
f 123//110 162//110 142//110
f 144//111 163//111 143//111
f 145//112 164//112 144//112
f 146//113 165//113 145//113
f 147//114 166//114 146//114
f 148//115 167//115 147//115
f 149//116 168//116 148//116
f 150//117 169//117 149//117
f 151//118 170//118 150//118
f 152//119 171//119 151//119
f 153//120 172//120 152//120
f 154//121 173//121 153//121
f 155//122 174//122 154//122
f 156//123 175//123 155//123
f 157//124 176//124 156//124
f 158//125 177//125 157//125
f 159//126 178//126 158//126
f 160//127 179//127 159//127
f 161//128 180//128 160//128
f 162//129 181//129 161//129
f 143//130 182//130 162//130
f 164//131 183//131 163//131
f 164//132 185//132 184//132
f 166//133 185//133 165//133
f 166//134 187//134 186//134
f 168//135 187//135 167//135
f 168//136 189//136 188//136
f 170//137 189//137 169//137
f 170//138 191//138 190//138
f 172//139 191//139 171//139
f 172//140 193//140 192//140
f 174//141 193//141 173//141
f 174//142 195//142 194//142
f 176//143 195//143 175//143
f 176//144 197//144 196//144
f 178//145 197//145 177//145
f 178//146 199//146 198//146
f 180//147 199//147 179//147
f 180//148 201//148 200//148
f 182//149 201//149 181//149
f 182//150 183//150 202//150
f 184//151 203//151 183//151
f 184//152 205//152 204//152
f 186//153 205//153 185//153
f 186//154 207//154 206//154
f 188//155 207//155 187//155
f 188//156 209//156 208//156
f 190//157 209//157 189//157
f 190//158 211//158 210//158
f 192//159 211//159 191//159
f 192//160 213//160 212//160
f 194//161 213//161 193//161
f 194//162 215//162 214//162
f 196//163 215//163 195//163
f 196//164 217//164 216//164
f 198//165 217//165 197//165
f 198//166 219//166 218//166
f 200//167 219//167 199//167
f 200//168 221//168 220//168
f 202//169 221//169 201//169
f 202//170 203//170 222//170
f 223//171 124//171 123//171
f 223//171 125//171 124//171
f 223//171 126//171 125//171
f 223//171 127//171 126//171
f 223//171 128//171 127//171
f 223//171 129//171 128//171
f 223//171 130//171 129//171
f 223//171 131//171 130//171
f 223//171 132//171 131//171
f 223//171 133//171 132//171
f 223//171 134//171 133//171
f 223//171 135//171 134//171
f 223//171 136//171 135//171
f 223//171 137//171 136//171
f 223//171 138//171 137//171
f 223//171 139//171 138//171
f 223//171 140//171 139//171
f 223//171 141//171 140//171
f 223//171 142//171 141//171
f 223//171 123//171 142//171
f 224//172 203//172 204//172
f 224//172 204//172 205//172
f 224//172 205//172 206//172
f 224//172 206//172 207//172
f 224//172 207//172 208//172
f 224//172 208//172 209//172
f 224//172 209//172 210//172
f 224//172 210//172 211//172
f 224//172 211//172 212//172
f 224//172 212//172 213//172
f 224//172 213//172 214//172
f 224//172 214//172 215//172
f 224//172 215//172 216//172
f 224//172 216//172 217//172
f 224//172 217//172 218//172
f 224//172 218//172 219//172
f 224//172 219//172 220//172
f 224//172 220//172 221//172
f 224//172 221//172 222//172
f 224//172 222//172 203//172
f 123//173 124//173 144//173
f 125//174 145//174 144//174
f 125//175 126//175 146//175
f 127//176 147//176 146//176
f 127//177 128//177 148//177
f 129//178 149//178 148//178
f 129//179 130//179 150//179
f 131//180 151//180 150//180
f 131//181 132//181 152//181
f 133//182 153//182 152//182
f 133//183 134//183 154//183
f 135//184 155//184 154//184
f 135//185 136//185 156//185
f 137//186 157//186 156//186
f 137//187 138//187 158//187
f 139//188 159//188 158//188
f 139//189 140//189 160//189
f 141//190 161//190 160//190
f 141//191 142//191 162//191
f 123//192 143//192 162//192
f 144//111 164//111 163//111
f 145//112 165//112 164//112
f 146//113 166//113 165//113
f 147//114 167//114 166//114
f 148//115 168//115 167//115
f 149//116 169//116 168//116
f 150//117 170//117 169//117
f 151//118 171//118 170//118
f 152//119 172//119 171//119
f 153//120 173//120 172//120
f 154//121 174//121 173//121
f 155//122 175//122 174//122
f 156//123 176//123 175//123
f 157//124 177//124 176//124
f 158//125 178//125 177//125
f 159//126 179//126 178//126
f 160//127 180//127 179//127
f 161//128 181//128 180//128
f 162//129 182//129 181//129
f 143//130 163//130 182//130
f 164//193 184//193 183//193
f 164//194 165//194 185//194
f 166//195 186//195 185//195
f 166//196 167//196 187//196
f 168//197 188//197 187//197
f 168//198 169//198 189//198
f 170//199 190//199 189//199
f 170//200 171//200 191//200
f 172//201 192//201 191//201
f 172//202 173//202 193//202
f 174//203 194//203 193//203
f 174//204 175//204 195//204
f 176//205 196//205 195//205
f 176//206 177//206 197//206
f 178//207 198//207 197//207
f 178//208 179//208 199//208
f 180//209 200//209 199//209
f 180//210 181//210 201//210
f 182//211 202//211 201//211
f 182//212 163//212 183//212
f 184//213 204//213 203//213
f 184//214 185//214 205//214
f 186//215 206//215 205//215
f 186//216 187//216 207//216
f 188//217 208//217 207//217
f 188//218 189//218 209//218
f 190//219 210//219 209//219
f 190//220 191//220 211//220
f 192//221 212//221 211//221
f 192//222 193//222 213//222
f 194//223 214//223 213//223
f 194//224 195//224 215//224
f 196//225 216//225 215//225
f 196//226 197//226 217//226
f 198//227 218//227 217//227
f 198//228 199//228 219//228
f 200//229 220//229 219//229
f 200//230 201//230 221//230
f 202//231 222//231 221//231
f 202//232 183//232 203//232
