# Axes: Loom's -- metres, +Y up along the rod from this part's own
# origin, guides and reel toward +Z. No o/g tags: see mesh.rs:266.
# Blender 5.2.0 LTS
# www.blender.org
v -0.000000 0.000000 -0.003420
v -0.001710 0.000000 -0.002962
v -0.002962 0.000000 -0.001710
v -0.003420 0.000000 -0.000000
v -0.002962 0.000000 0.001710
v -0.001710 0.000000 0.002962
v -0.000000 0.000000 0.003420
v 0.001710 0.000000 0.002962
v 0.002962 0.000000 0.001710
v 0.003420 0.000000 0.000000
v 0.002962 0.000000 -0.001710
v 0.001710 0.000000 -0.002962
v -0.000000 0.076300 -0.003274
v -0.001637 0.076300 -0.002836
v -0.002836 0.076300 -0.001637
v -0.003274 0.076300 -0.000000
v -0.002836 0.076300 0.001637
v -0.001637 0.076300 0.002836
v -0.000000 0.076300 0.003274
v 0.001637 0.076300 0.002836
v 0.002836 0.076300 0.001637
v 0.003274 0.076300 0.000000
v 0.002836 0.076300 -0.001637
v 0.001637 0.076300 -0.002836
v -0.000000 0.000000 -0.000000
v -0.000000 0.076300 -0.000000
vn -0.258800 0.001800 -0.965900
vn -0.707100 0.001800 -0.707100
vn -0.965900 0.001800 -0.258800
vn -0.965900 0.001800 0.258800
vn -0.707100 0.001800 0.707100
vn -0.258800 0.001800 0.965900
vn 0.258800 0.001800 0.965900
vn 0.707100 0.001800 0.707100
vn 0.965900 0.001800 0.258800
vn 0.965900 0.001800 -0.258800
vn 0.707100 0.001800 -0.707100
vn 0.258800 0.001800 -0.965900
vn 0.000000 -1.000000 0.000000
vn 0.000000 1.000000 0.000000
f 2//1 13//1 1//1
f 3//2 14//2 2//2
f 4//3 15//3 3//3
f 5//4 16//4 4//4
f 6//5 17//5 5//5
f 7//6 18//6 6//6
f 8//7 19//7 7//7
f 9//8 20//8 8//8
f 10//9 21//9 9//9
f 11//10 22//10 10//10
f 12//11 23//11 11//11
f 1//12 24//12 12//12
f 25//13 2//13 1//13
f 25//13 3//13 2//13
f 25//13 4//13 3//13
f 25//13 5//13 4//13
f 25//13 6//13 5//13
f 25//13 7//13 6//13
f 25//13 8//13 7//13
f 25//13 9//13 8//13
f 25//13 10//13 9//13
f 25//13 11//13 10//13
f 25//13 12//13 11//13
f 25//13 1//13 12//13
f 26//14 13//14 14//14
f 26//14 14//14 15//14
f 26//14 15//14 16//14
f 26//14 16//14 17//14
f 26//14 17//14 18//14
f 26//14 18//14 19//14
f 26//14 19//14 20//14
f 26//14 20//14 21//14
f 26//14 21//14 22//14
f 26//14 22//14 23//14
f 26//14 23//14 24//14
f 26//14 24//14 13//14
f 2//1 14//1 13//1
f 3//2 15//2 14//2
f 4//3 16//3 15//3
f 5//4 17//4 16//4
f 6//5 18//5 17//5
f 7//6 19//6 18//6
f 8//7 20//7 19//7
f 9//8 21//8 20//8
f 10//9 22//9 21//9
f 11//10 23//10 22//10
f 12//11 24//11 23//11
f 1//12 13//12 24//12
