# Axes: Loom's -- metres, +Y up along the rod from this part's own
# origin, guides and reel toward +Z. No o/g tags: see mesh.rs:266.
# Blender 5.2.0 LTS
# www.blender.org
v -0.000000 0.000000 -0.002525
v -0.001263 0.000000 -0.002187
v -0.002187 0.000000 -0.001263
v -0.002525 0.000000 -0.000000
v -0.002187 0.000000 0.001263
v -0.001263 0.000000 0.002187
v -0.000000 0.000000 0.002525
v 0.001263 0.000000 0.002187
v 0.002187 0.000000 0.001263
v 0.002525 0.000000 0.000000
v 0.002187 0.000000 -0.001263
v 0.001263 0.000000 -0.002187
v -0.000000 0.034200 -0.002481
v -0.001240 0.034200 -0.002148
v -0.002148 0.034200 -0.001240
v -0.002481 0.034200 -0.000000
v -0.002148 0.034200 0.001240
v -0.001240 0.034200 0.002148
v -0.000000 0.034200 0.002481
v 0.001240 0.034200 0.002148
v 0.002148 0.034200 0.001240
v 0.002481 0.034200 0.000000
v 0.002148 0.034200 -0.001240
v 0.001240 0.034200 -0.002148
v -0.000000 0.000000 -0.000000
v -0.000000 0.034200 -0.000000
vn -0.258800 0.001300 -0.965900
vn -0.707100 0.001300 -0.707100
vn -0.965900 0.001300 -0.258800
vn -0.965900 0.001300 0.258800
vn -0.707100 0.001300 0.707100
vn -0.258800 0.001300 0.965900
vn 0.258800 0.001300 0.965900
vn 0.707100 0.001300 0.707100
vn 0.965900 0.001300 0.258800
vn 0.965900 0.001300 -0.258800
vn 0.707100 0.001300 -0.707100
vn 0.258800 0.001300 -0.965900
vn 0.000000 -1.000000 0.000000
vn 0.000000 1.000000 0.000000
vn 0.000000 1.000000 0.000200
vn 0.000000 1.000000 -0.000200
f 2//1 13//1 1//1
f 2//2 15//2 14//2
f 4//3 15//3 3//3
f 5//4 16//4 4//4
f 5//5 18//5 17//5
f 7//6 18//6 6//6
f 8//7 19//7 7//7
f 8//8 21//8 20//8
f 10//9 21//9 9//9
f 11//10 22//10 10//10
f 11//11 24//11 23//11
f 1//12 24//12 12//12
f 25//13 2//13 1//13
f 25//13 3//13 2//13
f 25//13 4//13 3//13
f 25//13 5//13 4//13
f 25//13 6//13 5//13
f 25//13 7//13 6//13
f 25//13 8//13 7//13
f 25//13 9//13 8//13
f 25//13 10//13 9//13
f 25//13 11//13 10//13
f 25//13 12//13 11//13
f 25//13 1//13 12//13
f 26//14 13//14 14//14
f 26//15 14//15 15//15
f 26//16 15//16 16//16
f 26//15 16//15 17//15
f 26//16 17//16 18//16
f 26//14 18//14 19//14
f 26//14 19//14 20//14
f 26//16 20//16 21//16
f 26//15 21//15 22//15
f 26//16 22//16 23//16
f 26//15 23//15 24//15
f 26//14 24//14 13//14
f 2//1 14//1 13//1
f 2//2 3//2 15//2
f 4//3 16//3 15//3
f 5//4 17//4 16//4
f 5//5 6//5 18//5
f 7//6 19//6 18//6
f 8//7 20//7 19//7
f 8//8 9//8 21//8
f 10//9 22//9 21//9
f 11//10 23//10 22//10
f 11//11 12//11 24//11
f 1//12 13//12 24//12
v -0.000070 0.027910 0.009154
v -0.000337 0.027337 0.008194
v -0.000266 0.026189 0.008172
v 0.000070 0.025615 0.009110
v 0.000337 0.026189 0.010070
v 0.000266 0.027337 0.010092
v -0.002567 0.027739 0.009970
v -0.003078 0.027149 0.009126
v -0.002950 0.026008 0.009063
v -0.002312 0.025457 0.009844
v -0.001801 0.026047 0.010689
v -0.001928 0.027188 0.010752
v -0.004115 0.027290 0.012120
v -0.004967 0.026642 0.011699
v -0.004799 0.025519 0.011516
v -0.003779 0.025044 0.011754
v -0.002927 0.025692 0.012175
v -0.003095 0.026815 0.012358
v -0.004083 0.026740 0.014726
v -0.004955 0.026002 0.014859
v -0.004818 0.024895 0.014578
v -0.003810 0.024527 0.014165
v -0.002939 0.025265 0.014033
v -0.003075 0.026372 0.014313
v -0.002508 0.026301 0.016805
v -0.003056 0.025486 0.017403
v -0.002987 0.024387 0.017073
v -0.002371 0.024102 0.016145
v -0.001823 0.024917 0.015547
v -0.001891 0.026017 0.015877
v -0.000000 0.026139 0.017581
v -0.000000 0.025301 0.018370
v -0.000000 0.024200 0.018039
v -0.000000 0.023936 0.016920
v -0.000000 0.024773 0.016131
v -0.000000 0.025874 0.016462
v 0.002484 0.026311 0.016774
v 0.003046 0.025525 0.017398
v 0.003001 0.024415 0.017098
v 0.002394 0.024092 0.016176
v 0.001833 0.024879 0.015553
v 0.001878 0.025989 0.015852
v 0.004006 0.026752 0.014703
v 0.004922 0.026077 0.014864
v 0.004863 0.024957 0.014606
v 0.003888 0.024514 0.014188
v 0.002972 0.025190 0.014028
v 0.003030 0.026309 0.014285
v 0.003995 0.027294 0.012161
v 0.004917 0.026752 0.011739
v 0.004869 0.025625 0.011515
v 0.003899 0.025040 0.011713
v 0.002977 0.025582 0.012135
v 0.003024 0.026709 0.012359
v 0.002478 0.027728 0.010119
v 0.003264 0.027244 0.009432
v 0.003225 0.026114 0.009221
v 0.002401 0.025468 0.009696
v 0.001615 0.025952 0.010382
v 0.001654 0.027081 0.010594
vn -0.208900 0.864000 -0.458200
vn -0.322800 0.016100 -0.946300
vn -0.111900 -0.852800 -0.510100
vn 0.203400 -0.856100 0.475000
vn 0.278200 -0.001700 0.960500
vn 0.090400 0.863800 0.495600
vn -0.525900 0.825200 -0.206400
vn -0.803500 -0.023500 -0.594800
vn -0.307200 -0.861900 -0.403500
vn 0.519300 -0.825700 0.220100
vn 0.794600 0.020100 0.606800
vn 0.301500 0.856800 0.418300
vn -0.622100 0.764600 0.168600
vn -0.992900 -0.117400 -0.020000
vn -0.403300 -0.896100 -0.185300
vn 0.624600 -0.765200 -0.156000
vn 0.992900 0.114200 0.032600
vn 0.407000 0.891800 0.197600
vn -0.485300 0.705400 0.516700
vn -0.802900 -0.216700 0.555300
vn -0.342200 -0.937700 0.060100
vn 0.492900 -0.705200 -0.509700
vn 0.809200 0.214600 -0.547000
vn 0.350700 0.934900 -0.053600
vn -0.177800 0.674900 0.716100
vn -0.304900 -0.273800 0.912200
vn -0.133900 -0.964400 0.228100
vn 0.186300 -0.673500 -0.715300
vn 0.313200 0.273100 -0.909600
vn 0.143100 0.963200 -0.227400
vn 0.180900 0.686800 0.704000
vn 0.310900 -0.259100 0.914500
vn 0.144300 -0.959700 0.241200
vn -0.174900 -0.684900 -0.707300
vn -0.304200 0.259400 -0.916600
vn -0.138100 0.959600 -0.245000
vn 0.458400 0.739000 0.493800
vn 0.809100 -0.171800 0.562000
vn 0.381800 -0.920300 0.084900
vn -0.456000 -0.736900 -0.499000
vn -0.805800 0.172700 -0.566500
vn -0.379500 0.920700 -0.091100
vn 0.555900 0.813500 0.170900
vn 0.999100 -0.040200 -0.010300
vn 0.479600 -0.857900 -0.184200
vn -0.556900 -0.811900 -0.174900
vn -0.999100 0.041100 0.005800
vn -0.480800 0.858200 0.179700
vn 0.433100 0.891600 -0.132200
vn 0.818100 0.078500 -0.569700
vn 0.391300 -0.801900 -0.451500
vn -0.450100 -0.880800 0.147100
vn -0.795500 -0.085200 0.599900
vn -0.369800 0.808400 0.458000
vn 0.211600 0.896600 -0.389000
vn 0.325800 0.038400 -0.944700
vn 0.184400 -0.723900 -0.664800
vn -0.165100 -0.885300 0.434600
vn -0.263400 -0.168800 0.949800
vn -0.130400 0.689600 0.712300
vn -0.217300 0.857000 -0.467300
vn -0.315100 -0.000800 -0.949100
vn -0.095000 -0.864000 -0.494400
vn 0.191700 -0.865200 0.463300
vn 0.288900 -0.020500 0.957100
vn 0.108900 0.852000 0.512200
vn -0.540100 0.807500 -0.237000
vn -0.792300 -0.055100 -0.607600
vn -0.270400 -0.876900 -0.397400
vn 0.551900 -0.802500 0.226800
vn 0.801300 0.056700 0.595500
vn 0.283200 0.877300 0.387400
vn -0.645200 0.748300 0.154000
vn -0.989200 -0.142300 -0.035300
vn -0.375100 -0.905300 -0.199100
vn 0.647800 -0.743400 -0.166600
vn 0.989300 0.144400 0.022800
vn 0.378600 0.906500 0.186600
vn -0.506000 0.690100 0.517400
vn -0.805600 -0.237000 0.542900
vn -0.329500 -0.943400 0.037300
vn 0.501400 -0.686400 -0.526700
vn 0.799500 0.238400 -0.551300
vn 0.325600 0.944300 -0.047400
vn -0.189800 0.660600 0.726300
vn -0.310700 -0.291000 0.904900
vn -0.135700 -0.968800 0.207200
vn 0.181800 -0.658200 -0.730600
vn 0.302600 0.291200 -0.907500
vn 0.128400 0.969000 -0.211300
vn 0.179200 0.674600 0.716200
vn 0.305500 -0.273800 0.912000
vn 0.133900 -0.964500 0.227600
vn -0.186500 -0.673700 -0.715100
vn -0.312200 0.273200 -0.909900
vn -0.141000 0.963400 -0.227800
vn 0.464100 0.729300 0.502600
vn 0.806200 -0.184200 0.562200
vn 0.369400 -0.925700 0.081100
vn -0.468600 -0.729300 -0.498600
vn -0.809600 0.183200 -0.557600
vn -0.373700 0.924300 -0.077700
vn 0.564700 0.806900 0.173400
vn 0.998700 -0.050500 -0.008900
vn 0.470300 -0.863700 -0.181200
vn -0.565800 -0.807200 -0.168300
vn -0.998700 0.049400 0.013400
vn -0.471400 0.862100 0.185700
vn 0.454200 0.880200 -0.137700
vn 0.818100 0.078700 -0.569700
vn 0.375200 -0.810000 -0.450800
vn -0.425800 -0.893600 0.142100
vn -0.795600 -0.085500 0.599800
vn -0.388500 0.799500 0.458100
vn 0.207800 0.813400 -0.543400
vn 0.287000 0.166800 -0.943300
vn 0.083500 -0.836500 -0.541600
vn -0.280100 -0.787900 0.548400
vn -0.346100 -0.039500 0.937400
vn -0.151300 0.818400 0.554400
f 28//17 33//17 27//17
f 28//18 35//18 34//18
f 29//19 36//19 35//19
f 30//20 37//20 36//20
f 32//21 37//21 31//21
f 27//22 38//22 32//22
f 33//23 40//23 39//23
f 34//24 41//24 40//24
f 35//25 42//25 41//25
f 36//26 43//26 42//26
f 37//27 44//27 43//27
f 38//28 39//28 44//28
f 39//29 46//29 45//29
f 40//30 47//30 46//30
f 41//31 48//31 47//31
f 42//32 49//32 48//32
f 43//33 50//33 49//33
f 44//34 45//34 50//34
f 45//35 52//35 51//35
f 46//36 53//36 52//36
f 47//37 54//37 53//37
f 48//38 55//38 54//38
f 49//39 56//39 55//39
f 50//40 51//40 56//40
f 51//41 58//41 57//41
f 52//42 59//42 58//42
f 53//43 60//43 59//43
f 54//44 61//44 60//44
f 55//45 62//45 61//45
f 56//46 57//46 62//46
f 57//47 64//47 63//47
f 58//48 65//48 64//48
f 59//49 66//49 65//49
f 60//50 67//50 66//50
f 61//51 68//51 67//51
f 62//52 63//52 68//52
f 63//53 70//53 69//53
f 64//54 71//54 70//54
f 65//55 72//55 71//55
f 66//56 73//56 72//56
f 67//57 74//57 73//57
f 68//58 69//58 74//58
f 69//59 76//59 75//59
f 70//60 77//60 76//60
f 71//61 78//61 77//61
f 72//62 79//62 78//62
f 73//63 80//63 79//63
f 74//64 75//64 80//64
f 75//65 82//65 81//65
f 77//66 82//66 76//66
f 78//67 83//67 77//67
f 79//68 84//68 78//68
f 79//69 86//69 85//69
f 80//70 81//70 86//70
f 82//71 27//71 81//71
f 82//72 29//72 28//72
f 84//73 29//73 83//73
f 85//74 30//74 84//74
f 86//75 31//75 85//75
f 81//76 32//76 86//76
f 28//77 34//77 33//77
f 28//78 29//78 35//78
f 29//79 30//79 36//79
f 30//80 31//80 37//80
f 32//81 38//81 37//81
f 27//82 33//82 38//82
f 33//83 34//83 40//83
f 34//84 35//84 41//84
f 35//85 36//85 42//85
f 36//86 37//86 43//86
f 37//87 38//87 44//87
f 38//88 33//88 39//88
f 39//89 40//89 46//89
f 40//90 41//90 47//90
f 41//91 42//91 48//91
f 42//92 43//92 49//92
f 43//93 44//93 50//93
f 44//94 39//94 45//94
f 45//95 46//95 52//95
f 46//96 47//96 53//96
f 47//97 48//97 54//97
f 48//98 49//98 55//98
f 49//99 50//99 56//99
f 50//100 45//100 51//100
f 51//101 52//101 58//101
f 52//102 53//102 59//102
f 53//103 54//103 60//103
f 54//104 55//104 61//104
f 55//105 56//105 62//105
f 56//106 51//106 57//106
f 57//107 58//107 64//107
f 58//108 59//108 65//108
f 59//109 60//109 66//109
f 60//110 61//110 67//110
f 61//111 62//111 68//111
f 62//112 57//112 63//112
f 63//113 64//113 70//113
f 64//114 65//114 71//114
f 65//115 66//115 72//115
f 66//116 67//116 73//116
f 67//117 68//117 74//117
f 68//118 63//118 69//118
f 69//119 70//119 76//119
f 70//120 71//120 77//120
f 71//121 72//121 78//121
f 72//122 73//122 79//122
f 73//123 74//123 80//123
f 74//124 69//124 75//124
f 75//125 76//125 82//125
f 77//126 83//126 82//126
f 78//127 84//127 83//127
f 79//128 85//128 84//128
f 79//129 80//129 86//129
f 80//130 75//130 81//130
f 82//131 28//131 27//131
f 82//132 83//132 29//132
f 84//133 30//133 29//133
f 85//134 31//134 30//134
f 86//135 32//135 31//135
f 81//136 27//136 32//136
v -0.003500 0.020996 0.000825
v 0.003500 0.020996 0.000825
v 0.003500 0.018804 0.003157
v -0.003500 0.018804 0.003157
v -0.001200 0.028222 0.008167
v 0.001200 0.028222 0.008167
v 0.001200 0.026578 0.009916
v -0.001200 0.026578 0.009916
vn 0.000000 -0.728700 -0.684900
vn 0.000000 0.728700 0.684800
vn 0.000000 0.712700 -0.701500
vn 0.975900 0.158900 0.149400
vn 0.000000 -0.656100 0.754700
vn -0.975900 0.158900 0.149400
vn 0.000000 0.728600 0.684900
vn 0.975900 0.158900 0.149300
vn -0.975900 0.158900 0.149300
f 88//137 90//137 87//137
f 93//138 91//138 94//138
f 87//139 92//139 88//139
f 92//140 89//140 88//140
f 93//141 90//141 89//141
f 90//142 91//142 87//142
f 88//137 89//137 90//137
f 93//143 92//143 91//143
f 87//139 91//139 92//139
f 92//144 93//144 89//144
f 93//141 94//141 90//141
f 90//145 94//145 91//145
v 0.002000 0.005918 0.003191
v -0.002000 0.005918 0.003191
v -0.002000 0.005882 0.002392
v 0.002000 0.005882 0.002392
v 0.003000 0.030948 0.002790
v -0.003000 0.030948 0.002790
v -0.003000 0.030852 0.000592
v 0.003000 0.030852 0.000592
vn 0.000000 -0.999000 0.044200
vn 0.000000 0.999000 -0.044000
vn 0.000000 0.016000 0.999900
vn -0.999200 -0.039900 0.001800
vn 0.000000 -0.071900 -0.997400
vn 0.999200 -0.039900 0.001800
f 96//146 98//146 95//146
f 101//147 99//147 102//147
f 99//148 96//148 95//148
f 96//149 101//149 97//149
f 101//150 98//150 97//150
f 102//151 95//151 98//151
f 96//146 97//146 98//146
f 101//147 100//147 99//147
f 99//148 100//148 96//148
f 96//149 100//149 101//149
f 101//150 102//150 98//150
f 102//151 99//151 95//151
