# Axes: Loom's -- metres, +Y up along the rod from this part's own
# origin, guides and reel toward +Z. No o/g tags: see mesh.rs:266.
# Blender 5.2.0 LTS
# www.blender.org
v -0.000000 0.009500 -0.009000
v -0.004500 0.009500 -0.007794
v -0.007794 0.009500 -0.004500
v -0.009000 0.009500 -0.000000
v -0.007794 0.009500 0.004500
v -0.004500 0.009500 0.007794
v -0.000000 0.009500 0.009000
v 0.004500 0.009500 0.007794
v 0.007794 0.009500 0.004500
v 0.009000 0.009500 -0.000000
v 0.007794 0.009500 -0.004500
v 0.004500 0.009500 -0.007794
v -0.000000 0.011000 -0.023500
v -0.011750 0.011000 -0.020352
v -0.020352 0.011000 -0.011750
v -0.023500 0.011000 -0.000000
v -0.020352 0.011000 0.011750
v -0.011750 0.011000 0.020352
v -0.000000 0.011000 0.023500
v 0.011750 0.011000 0.020352
v 0.020352 0.011000 0.011750
v 0.023500 0.011000 -0.000000
v 0.020352 0.011000 -0.011750
v 0.011750 0.011000 -0.020352
v -0.000000 0.035000 -0.023500
v -0.011750 0.035000 -0.020352
v -0.020352 0.035000 -0.011750
v -0.023500 0.035000 -0.000000
v -0.020352 0.035000 0.011750
v -0.011750 0.035000 0.020352
v -0.000000 0.035000 0.023500
v 0.011750 0.035000 0.020352
v 0.020352 0.035000 0.011750
v 0.023500 0.035000 -0.000000
v 0.020352 0.035000 -0.011750
v 0.011750 0.035000 -0.020352
v -0.000000 0.036500 -0.009000
v -0.004500 0.036500 -0.007794
v -0.007794 0.036500 -0.004500
v -0.009000 0.036500 -0.000000
v -0.007794 0.036500 0.004500
v -0.004500 0.036500 0.007794
v -0.000000 0.036500 0.009000
v 0.004500 0.036500 0.007794
v 0.007794 0.036500 0.004500
v 0.009000 0.036500 -0.000000
v 0.007794 0.036500 -0.004500
v 0.004500 0.036500 -0.007794
v -0.000000 0.009500 -0.000000
v -0.000000 0.036500 -0.000000
vn -0.027600 -0.994300 -0.102900
vn -0.075300 -0.994300 -0.075300
vn -0.102900 -0.994300 -0.027600
vn -0.102900 -0.994300 0.027600
vn -0.075300 -0.994300 0.075300
vn -0.027600 -0.994300 0.102900
vn 0.027600 -0.994300 0.102900
vn 0.075300 -0.994300 0.075300
vn 0.102900 -0.994300 0.027600
vn 0.102900 -0.994300 -0.027600
vn 0.075300 -0.994300 -0.075300
vn 0.027600 -0.994300 -0.102900
vn -0.258800 -0.000000 -0.965900
vn -0.707100 -0.000000 -0.707100
vn -0.965900 -0.000000 -0.258800
vn -0.965900 -0.000000 0.258800
vn -0.707100 -0.000000 0.707100
vn -0.258800 -0.000000 0.965900
vn 0.258800 -0.000000 0.965900
vn 0.707100 -0.000000 0.707100
vn 0.965900 -0.000000 0.258800
vn 0.965900 -0.000000 -0.258800
vn 0.707100 -0.000000 -0.707100
vn 0.258800 -0.000000 -0.965900
vn -0.027600 0.994300 -0.102900
vn -0.075300 0.994300 -0.075300
vn -0.102900 0.994300 -0.027600
vn -0.102900 0.994300 0.027600
vn -0.075300 0.994300 0.075300
vn -0.027600 0.994300 0.102900
vn 0.027600 0.994300 0.102900
vn 0.075300 0.994300 0.075300
vn 0.102900 0.994300 0.027600
vn 0.102900 0.994300 -0.027600
vn 0.075300 0.994300 -0.075300
vn 0.027600 0.994300 -0.102900
vn 0.000000 -1.000000 0.000000
vn 0.000000 1.000000 0.000000
f 2//1 13//1 1//1
f 2//2 15//2 14//2
f 4//3 15//3 3//3
f 5//4 16//4 4//4
f 6//5 17//5 5//5
f 7//6 18//6 6//6
f 7//7 20//7 19//7
f 9//8 20//8 8//8
f 10//9 21//9 9//9
f 10//10 23//10 22//10
f 12//11 23//11 11//11
f 1//12 24//12 12//12
f 14//13 25//13 13//13
f 15//14 26//14 14//14
f 16//15 27//15 15//15
f 17//16 28//16 16//16
f 18//17 29//17 17//17
f 19//18 30//18 18//18
f 20//19 31//19 19//19
f 21//20 32//20 20//20
f 22//21 33//21 21//21
f 23//22 34//22 22//22
f 24//23 35//23 23//23
f 13//24 36//24 24//24
f 26//25 37//25 25//25
f 27//26 38//26 26//26
f 28//27 39//27 27//27
f 29//28 40//28 28//28
f 30//29 41//29 29//29
f 30//30 43//30 42//30
f 32//31 43//31 31//31
f 32//32 45//32 44//32
f 34//33 45//33 33//33
f 35//34 46//34 34//34
f 35//35 48//35 47//35
f 25//36 48//36 36//36
f 49//37 2//37 1//37
f 49//37 3//37 2//37
f 49//37 4//37 3//37
f 49//37 5//37 4//37
f 49//37 6//37 5//37
f 49//37 7//37 6//37
f 49//37 8//37 7//37
f 49//37 9//37 8//37
f 49//37 10//37 9//37
f 49//37 11//37 10//37
f 49//37 12//37 11//37
f 49//37 1//37 12//37
f 50//38 37//38 38//38
f 50//38 38//38 39//38
f 50//38 39//38 40//38
f 50//38 40//38 41//38
f 50//38 41//38 42//38
f 50//38 42//38 43//38
f 50//38 43//38 44//38
f 50//38 44//38 45//38
f 50//38 45//38 46//38
f 50//38 46//38 47//38
f 50//38 47//38 48//38
f 50//38 48//38 37//38
f 2//1 14//1 13//1
f 2//2 3//2 15//2
f 4//3 16//3 15//3
f 5//4 17//4 16//4
f 6//5 18//5 17//5
f 7//6 19//6 18//6
f 7//7 8//7 20//7
f 9//8 21//8 20//8
f 10//9 22//9 21//9
f 10//10 11//10 23//10
f 12//11 24//11 23//11
f 1//12 13//12 24//12
f 14//13 26//13 25//13
f 15//14 27//14 26//14
f 16//15 28//15 27//15
f 17//16 29//16 28//16
f 18//17 30//17 29//17
f 19//18 31//18 30//18
f 20//19 32//19 31//19
f 21//20 33//20 32//20
f 22//21 34//21 33//21
f 23//22 35//22 34//22
f 24//23 36//23 35//23
f 13//24 25//24 36//24
f 26//25 38//25 37//25
f 27//26 39//26 38//26
f 28//27 40//27 39//27
f 29//28 41//28 40//28
f 30//29 42//29 41//29
f 30//30 31//30 43//30
f 32//31 44//31 43//31
f 32//32 33//32 45//32
f 34//33 46//33 45//33
f 35//34 47//34 46//34
f 35//35 36//35 48//35
f 25//36 37//36 48//36
