# Axes: Loom's -- metres, +Y up along the rod from this part's own
# origin, guides and reel toward +Z. No o/g tags: see mesh.rs:266.
# Blender 5.2.0 LTS
# www.blender.org
v -0.000000 0.000000 -0.004195
v -0.002097 0.000000 -0.003633
v -0.003633 0.000000 -0.002097
v -0.004195 0.000000 -0.000000
v -0.003633 0.000000 0.002097
v -0.002097 0.000000 0.003633
v -0.000000 0.000000 0.004195
v 0.002097 0.000000 0.003633
v 0.003633 0.000000 0.002097
v 0.004195 0.000000 0.000000
v 0.003633 0.000000 -0.002097
v 0.002097 0.000000 -0.003633
v -0.000000 0.080600 -0.004019
v -0.002009 0.080600 -0.003480
v -0.003480 0.080600 -0.002009
v -0.004019 0.080600 -0.000000
v -0.003480 0.080600 0.002009
v -0.002009 0.080600 0.003480
v -0.000000 0.080600 0.004019
v 0.002009 0.080600 0.003480
v 0.003480 0.080600 0.002009
v 0.004019 0.080600 0.000000
v 0.003480 0.080600 -0.002009
v 0.002009 0.080600 -0.003480
v -0.000000 0.161200 -0.003847
v -0.001923 0.161200 -0.003332
v -0.003332 0.161200 -0.001923
v -0.003847 0.161200 -0.000000
v -0.003332 0.161200 0.001923
v -0.001923 0.161200 0.003332
v -0.000000 0.161200 0.003847
v 0.001923 0.161200 0.003332
v 0.003332 0.161200 0.001923
v 0.003847 0.161200 0.000000
v 0.003332 0.161200 -0.001923
v 0.001923 0.161200 -0.003332
v -0.000000 0.000000 -0.000000
v -0.000000 0.161200 -0.000000
vn -0.258800 0.002100 -0.965900
vn -0.707100 0.002100 -0.707100
vn -0.965900 0.002100 -0.258800
vn -0.965900 0.002100 0.258800
vn -0.707100 0.002100 0.707100
vn -0.258800 0.002100 0.965900
vn 0.258800 0.002100 0.965900
vn 0.707100 0.002100 0.707100
vn 0.965900 0.002100 0.258800
vn 0.965900 0.002100 -0.258800
vn 0.707100 0.002100 -0.707100
vn 0.258800 0.002100 -0.965900
vn 0.000000 -1.000000 0.000000
vn 0.000000 1.000000 0.000000
f 2//1 13//1 1//1
f 3//2 14//2 2//2
f 4//3 15//3 3//3
f 5//4 16//4 4//4
f 6//5 17//5 5//5
f 7//6 18//6 6//6
f 8//7 19//7 7//7
f 9//8 20//8 8//8
f 10//9 21//9 9//9
f 11//10 22//10 10//10
f 12//11 23//11 11//11
f 1//12 24//12 12//12
f 14//1 25//1 13//1
f 14//2 27//2 26//2
f 16//3 27//3 15//3
f 17//4 28//4 16//4
f 17//5 30//5 29//5
f 19//6 30//6 18//6
f 20//7 31//7 19//7
f 20//8 33//8 32//8
f 22//9 33//9 21//9
f 23//10 34//10 22//10
f 23//11 36//11 35//11
f 13//12 36//12 24//12
f 37//13 2//13 1//13
f 37//13 3//13 2//13
f 37//13 4//13 3//13
f 37//13 5//13 4//13
f 37//13 6//13 5//13
f 37//13 7//13 6//13
f 37//13 8//13 7//13
f 37//13 9//13 8//13
f 37//13 10//13 9//13
f 37//13 11//13 10//13
f 37//13 12//13 11//13
f 37//13 1//13 12//13
f 38//14 25//14 26//14
f 38//14 26//14 27//14
f 38//14 27//14 28//14
f 38//14 28//14 29//14
f 38//14 29//14 30//14
f 38//14 30//14 31//14
f 38//14 31//14 32//14
f 38//14 32//14 33//14
f 38//14 33//14 34//14
f 38//14 34//14 35//14
f 38//14 35//14 36//14
f 38//14 36//14 25//14
f 2//1 14//1 13//1
f 3//2 15//2 14//2
f 4//3 16//3 15//3
f 5//4 17//4 16//4
f 6//5 18//5 17//5
f 7//6 19//6 18//6
f 8//7 20//7 19//7
f 9//8 21//8 20//8
f 10//9 22//9 21//9
f 11//10 23//10 22//10
f 12//11 24//11 23//11
f 1//12 13//12 24//12
f 14//1 26//1 25//1
f 14//2 15//2 27//2
f 16//3 28//3 27//3
f 17//4 29//4 28//4
f 17//5 18//5 30//5
f 19//6 31//6 30//6
f 20//7 32//7 31//7
f 20//8 21//8 33//8
f 22//9 34//9 33//9
f 23//10 35//10 34//10
f 23//11 24//11 36//11
f 13//12 25//12 36//12
v -0.000086 0.096352 0.020025
v -0.000410 0.095653 0.018855
v -0.000324 0.094256 0.018828
v 0.000086 0.093557 0.019970
v 0.000410 0.094256 0.021139
v 0.000324 0.095653 0.021166
v -0.005681 0.095970 0.021830
v -0.006303 0.095252 0.020802
v -0.006147 0.093863 0.020725
v -0.005370 0.093192 0.021677
v -0.004748 0.093910 0.022705
v -0.004903 0.095299 0.022781
v -0.009145 0.094971 0.026573
v -0.010182 0.094182 0.026061
v -0.009977 0.092815 0.025839
v -0.008735 0.092237 0.026128
v -0.007698 0.093026 0.026640
v -0.007903 0.094393 0.026863
v -0.009106 0.093743 0.032375
v -0.010167 0.092844 0.032536
v -0.010001 0.091497 0.032195
v -0.008774 0.091049 0.031692
v -0.007713 0.091948 0.031530
v -0.007879 0.093295 0.031872
v -0.005609 0.092757 0.037032
v -0.006276 0.091765 0.037760
v -0.006192 0.090427 0.037359
v -0.005442 0.090080 0.036229
v -0.004775 0.091073 0.035501
v -0.004858 0.092411 0.035902
v -0.000000 0.092386 0.038789
v -0.000000 0.091367 0.039749
v -0.000000 0.090027 0.039347
v -0.000000 0.089705 0.037984
v -0.000000 0.090724 0.037024
v -0.000000 0.092065 0.037427
v 0.005580 0.092770 0.036995
v 0.006264 0.091812 0.037753
v 0.006209 0.090461 0.037389
v 0.005470 0.090068 0.036266
v 0.004787 0.091026 0.035508
v 0.004841 0.092376 0.035872
v 0.009012 0.093759 0.032347
v 0.010127 0.092936 0.032542
v 0.010056 0.091573 0.032229
v 0.008868 0.091033 0.031720
v 0.007753 0.091856 0.031524
v 0.007824 0.093219 0.031838
v 0.008998 0.094976 0.026623
v 0.010121 0.094316 0.026110
v 0.010063 0.092944 0.025837
v 0.008882 0.092232 0.026078
v 0.007759 0.092892 0.026592
v 0.007817 0.094264 0.026864
v 0.005572 0.095956 0.022011
v 0.006529 0.095368 0.021175
v 0.006482 0.093992 0.020918
v 0.005478 0.093206 0.021496
v 0.004522 0.093795 0.022332
v 0.004569 0.095170 0.022589
vn -0.206900 0.864100 -0.458900
vn -0.314700 0.017200 -0.949100
vn -0.109200 -0.852200 -0.511700
vn 0.205600 -0.856300 0.473700
vn 0.290500 -0.000800 0.956900
vn 0.094400 0.864000 0.494600
vn -0.524500 0.825300 -0.209100
vn -0.802300 -0.023000 -0.596500
vn -0.306300 -0.861000 -0.405900
vn 0.520900 -0.825600 0.216700
vn 0.797600 0.021300 0.602900
vn 0.303300 0.858400 0.413800
vn -0.622700 0.764700 0.165900
vn -0.992900 -0.116900 -0.021900
vn -0.403900 -0.895400 -0.187300
vn 0.624000 -0.765000 -0.159100
vn 0.992900 0.115300 0.028400
vn 0.405700 0.893200 0.193700
vn -0.487000 0.705400 0.515100
vn -0.803800 -0.216400 0.554100
vn -0.343500 -0.937300 0.059000
vn 0.491100 -0.705300 -0.511200
vn 0.807100 0.215300 -0.549800
vn 0.348000 0.935900 -0.055500
vn -0.179700 0.674500 0.716000
vn -0.306200 -0.273700 0.911800
vn -0.135400 -0.964300 0.227800
vn 0.184200 -0.674000 -0.715400
vn 0.310500 0.273300 -0.910400
vn 0.140200 0.963600 -0.227600
vn 0.179500 0.686300 0.704800
vn 0.309900 -0.259200 0.914800
vn 0.143400 -0.959700 0.241800
vn -0.176300 -0.685400 -0.706500
vn -0.306400 0.259300 -0.915900
vn -0.140100 0.959600 -0.244000
vn 0.457800 0.738400 0.495100
vn 0.808700 -0.171900 0.562500
vn 0.381500 -0.920400 0.086000
vn -0.456600 -0.737400 -0.497800
vn -0.806900 0.172400 -0.564900
vn -0.380300 0.920600 -0.088900
vn 0.556200 0.813100 0.171600
vn 0.999100 -0.040300 -0.009600
vn 0.479800 -0.858000 -0.183400
vn -0.556700 -0.812300 -0.173900
vn -0.999100 0.040800 0.007300
vn -0.480500 0.858100 0.181000
vn 0.433200 0.891500 -0.132300
vn 0.813900 0.079800 -0.575500
vn 0.390000 -0.800700 -0.454600
vn -0.450200 -0.880700 0.147200
vn -0.801900 -0.083400 0.591600
vn -0.372400 0.809200 0.454500
vn 0.247800 0.799900 -0.546700
vn 0.318200 0.038000 -0.947300
vn 0.178000 -0.720000 -0.670800
vn -0.177600 -0.888600 0.422800
vn -0.291800 -0.166400 0.941900
vn -0.152300 0.704100 0.693500
vn -0.213300 0.856700 -0.469600
vn -0.309700 -0.000500 -0.950800
vn -0.096600 -0.864200 -0.493900
vn 0.198100 -0.864700 0.461700
vn 0.296400 -0.019600 0.954900
vn 0.107500 0.851700 0.513000
vn -0.542000 0.806700 -0.235500
vn -0.793700 -0.055300 -0.605800
vn -0.273600 -0.877000 -0.395000
vn 0.548000 -0.804200 0.230100
vn 0.798500 0.056200 0.599300
vn 0.280400 0.877300 0.389500
vn -0.645600 0.747600 0.155900
vn -0.989200 -0.142700 -0.033300
vn -0.376000 -0.905600 -0.196000
vn 0.646900 -0.745100 -0.162400
vn 0.989300 0.143800 0.026800
vn 0.377900 0.906300 0.189200
vn -0.505400 0.689500 0.518800
vn -0.804700 -0.237300 0.544200
vn -0.328400 -0.943700 0.040000
vn 0.502900 -0.687500 -0.523800
vn 0.801500 0.238000 -0.548600
vn 0.326400 0.944100 -0.045300
vn -0.188600 0.660300 0.727000
vn -0.309400 -0.291000 0.905300
vn -0.133900 -0.968900 0.207900
vn 0.184500 -0.659100 -0.729100
vn 0.305200 0.291200 -0.906700
vn 0.130000 0.968900 -0.210500
vn 0.180300 0.674500 0.715900
vn 0.306600 -0.273700 0.911700
vn 0.135600 -0.964200 0.227800
vn -0.184100 -0.674000 -0.715400
vn -0.310000 0.273400 -0.910600
vn -0.139400 0.963700 -0.227600
vn 0.464800 0.729300 0.502000
vn 0.806600 -0.184100 0.561700
vn 0.370500 -0.925400 0.080400
vn -0.467200 -0.729400 -0.499800
vn -0.808400 0.183500 -0.559300
vn -0.372800 0.924600 -0.078600
vn 0.564900 0.806900 0.172600
vn 0.998700 -0.050300 -0.009600
vn 0.470600 -0.863300 -0.182300
vn -0.565500 -0.807000 -0.170100
vn -0.998700 0.049800 0.011900
vn -0.471200 0.862500 0.184500
vn 0.452500 0.880400 -0.141800
vn 0.813900 0.080000 -0.575400
vn 0.375200 -0.809900 -0.450800
vn -0.429500 -0.892600 0.137300
vn -0.801900 -0.083500 0.591600
vn -0.388400 0.799300 0.458500
vn 0.177800 0.888800 -0.422500
vn 0.295200 0.166100 -0.940900
vn 0.100000 -0.832300 -0.545200
vn -0.248200 -0.799700 0.546700
vn -0.321400 -0.038200 0.946200
vn -0.136400 0.822400 0.552300
f 40//15 45//15 39//15
f 40//16 47//16 46//16
f 41//17 48//17 47//17
f 42//18 49//18 48//18
f 44//19 49//19 43//19
f 39//20 50//20 44//20
f 45//21 52//21 51//21
f 46//22 53//22 52//22
f 47//23 54//23 53//23
f 48//24 55//24 54//24
f 49//25 56//25 55//25
f 50//26 51//26 56//26
f 51//27 58//27 57//27
f 52//28 59//28 58//28
f 53//29 60//29 59//29
f 54//30 61//30 60//30
f 55//31 62//31 61//31
f 56//32 57//32 62//32
f 57//33 64//33 63//33
f 58//34 65//34 64//34
f 59//35 66//35 65//35
f 60//36 67//36 66//36
f 61//37 68//37 67//37
f 62//38 63//38 68//38
f 63//39 70//39 69//39
f 64//40 71//40 70//40
f 65//41 72//41 71//41
f 66//42 73//42 72//42
f 67//43 74//43 73//43
f 68//44 69//44 74//44
f 69//45 76//45 75//45
f 70//46 77//46 76//46
f 71//47 78//47 77//47
f 72//48 79//48 78//48
f 73//49 80//49 79//49
f 74//50 75//50 80//50
f 75//51 82//51 81//51
f 76//52 83//52 82//52
f 77//53 84//53 83//53
f 78//54 85//54 84//54
f 79//55 86//55 85//55
f 80//56 81//56 86//56
f 81//57 88//57 87//57
f 82//58 89//58 88//58
f 83//59 90//59 89//59
f 84//60 91//60 90//60
f 85//61 92//61 91//61
f 86//62 87//62 92//62
f 87//63 94//63 93//63
f 89//64 94//64 88//64
f 90//65 95//65 89//65
f 91//66 96//66 90//66
f 91//67 98//67 97//67
f 92//68 93//68 98//68
f 93//69 40//69 39//69
f 94//70 41//70 40//70
f 96//71 41//71 95//71
f 97//72 42//72 96//72
f 98//73 43//73 97//73
f 93//74 44//74 98//74
f 40//75 46//75 45//75
f 40//76 41//76 47//76
f 41//77 42//77 48//77
f 42//78 43//78 49//78
f 44//79 50//79 49//79
f 39//80 45//80 50//80
f 45//81 46//81 52//81
f 46//82 47//82 53//82
f 47//83 48//83 54//83
f 48//84 49//84 55//84
f 49//85 50//85 56//85
f 50//86 45//86 51//86
f 51//87 52//87 58//87
f 52//88 53//88 59//88
f 53//89 54//89 60//89
f 54//90 55//90 61//90
f 55//91 56//91 62//91
f 56//92 51//92 57//92
f 57//93 58//93 64//93
f 58//94 59//94 65//94
f 59//95 60//95 66//95
f 60//96 61//96 67//96
f 61//97 62//97 68//97
f 62//98 57//98 63//98
f 63//99 64//99 70//99
f 64//100 65//100 71//100
f 65//101 66//101 72//101
f 66//102 67//102 73//102
f 67//103 68//103 74//103
f 68//104 63//104 69//104
f 69//105 70//105 76//105
f 70//106 71//106 77//106
f 71//107 72//107 78//107
f 72//108 73//108 79//108
f 73//109 74//109 80//109
f 74//110 69//110 75//110
f 75//111 76//111 82//111
f 76//112 77//112 83//112
f 77//113 78//113 84//113
f 78//114 79//114 85//114
f 79//115 80//115 86//115
f 80//116 75//116 81//116
f 81//117 82//117 88//117
f 82//118 83//118 89//118
f 83//119 84//119 90//119
f 84//120 85//120 91//120
f 85//121 86//121 92//121
f 86//122 81//122 87//122
f 87//123 88//123 94//123
f 89//124 95//124 94//124
f 90//125 96//125 95//125
f 91//126 97//126 96//126
f 91//127 92//127 98//127
f 92//128 87//128 93//128
f 93//129 94//129 40//129
f 94//130 95//130 41//130
f 96//131 42//131 41//131
f 97//132 43//132 42//132
f 98//133 44//133 43//133
f 93//134 39//134 44//134
v -0.003500 0.088454 0.002823
v 0.003500 0.088454 0.002823
v 0.003500 0.085546 0.004161
v -0.003500 0.085546 0.004161
v -0.001400 0.095590 0.019290
v 0.001400 0.095590 0.019290
v 0.001400 0.093410 0.020294
v -0.001400 0.093410 0.020294
vn 0.000000 -0.418000 -0.908500
vn 0.000000 0.418000 0.908500
vn 0.000000 0.917500 -0.397600
vn 0.993200 0.048600 0.105600
vn 0.000000 -0.898900 0.438100
vn -0.993200 0.048600 0.105600
vn 0.000000 0.917500 -0.397700
f 100//135 102//135 99//135
f 105//136 103//136 106//136
f 103//137 100//137 99//137
f 100//138 105//138 101//138
f 105//139 102//139 101//139
f 106//140 99//140 102//140
f 100//135 101//135 102//135
f 105//136 104//136 103//136
f 103//141 104//141 100//141
f 100//138 104//138 105//138
f 105//139 106//139 102//139
f 106//140 103//140 99//140
v 0.002000 0.073018 0.004692
v -0.002000 0.073018 0.004692
v -0.002000 0.072982 0.003892
v 0.002000 0.072982 0.003892
v 0.003000 0.098048 0.004291
v -0.003000 0.098048 0.004291
v -0.003000 0.097952 0.002093
v 0.003000 0.097952 0.002093
vn 0.000000 -0.999000 0.043900
vn 0.000000 0.999000 -0.044000
vn 0.000000 0.016000 0.999900
vn -0.999200 -0.039900 0.001800
vn 0.000000 -0.071900 -0.997400
vn 0.999200 -0.039900 0.001800
vn 0.000000 -0.999000 0.044200
f 108//142 110//142 107//142
f 113//143 111//143 114//143
f 111//144 108//144 107//144
f 112//145 109//145 108//145
f 113//146 110//146 109//146
f 110//147 111//147 107//147
f 108//148 109//148 110//148
f 113//143 112//143 111//143
f 111//144 112//144 108//144
f 112//145 113//145 109//145
f 113//146 114//146 110//146
f 110//147 114//147 111//147
