# Axes: Loom's -- metres, +Y up along the rod from this part's own
# origin, guides and reel toward +Z. No o/g tags: see mesh.rs:266.
# Blender 5.2.0 LTS
# www.blender.org
v -0.000000 0.000000 -0.002966
v -0.001483 0.000000 -0.002569
v -0.002569 0.000000 -0.001483
v -0.002966 0.000000 -0.000000
v -0.002569 0.000000 0.001483
v -0.001483 0.000000 0.002569
v -0.000000 0.000000 0.002966
v 0.001483 0.000000 0.002569
v 0.002569 0.000000 0.001483
v 0.002966 0.000000 0.000000
v 0.002569 0.000000 -0.001483
v 0.001483 0.000000 -0.002569
v -0.000000 0.045400 -0.002890
v -0.001445 0.045400 -0.002503
v -0.002503 0.045400 -0.001445
v -0.002890 0.045400 -0.000000
v -0.002503 0.045400 0.001445
v -0.001445 0.045400 0.002503
v -0.000000 0.045400 0.002890
v 0.001445 0.045400 0.002503
v 0.002503 0.045400 0.001445
v 0.002890 0.045400 0.000000
v 0.002503 0.045400 -0.001445
v 0.001445 0.045400 -0.002503
v -0.000000 0.000000 -0.000000
v -0.000000 0.045400 -0.000000
vn -0.258800 0.001600 -0.965900
vn -0.707100 0.001600 -0.707100
vn -0.965900 0.001600 -0.258800
vn -0.965900 0.001600 0.258800
vn -0.707100 0.001600 0.707100
vn -0.258800 0.001600 0.965900
vn 0.258800 0.001600 0.965900
vn 0.707100 0.001600 0.707100
vn 0.965900 0.001600 0.258800
vn 0.965900 0.001600 -0.258800
vn 0.707100 0.001600 -0.707100
vn 0.258800 0.001600 -0.965900
vn 0.000000 -1.000000 0.000000
vn 0.000000 -1.000000 -0.000100
vn 0.000000 -1.000000 0.000100
vn 0.000000 1.000000 0.000000
f 2//1 13//1 1//1
f 3//2 14//2 2//2
f 4//3 15//3 3//3
f 5//4 16//4 4//4
f 6//5 17//5 5//5
f 7//6 18//6 6//6
f 8//7 19//7 7//7
f 9//8 20//8 8//8
f 10//9 21//9 9//9
f 11//10 22//10 10//10
f 12//11 23//11 11//11
f 1//12 24//12 12//12
f 25//13 2//13 1//13
f 25//13 3//13 2//13
f 25//14 4//14 3//14
f 25//15 5//15 4//15
f 25//13 6//13 5//13
f 25//13 7//13 6//13
f 25//13 8//13 7//13
f 25//13 9//13 8//13
f 25//15 10//15 9//15
f 25//14 11//14 10//14
f 25//13 12//13 11//13
f 25//13 1//13 12//13
f 26//16 13//16 14//16
f 26//16 14//16 15//16
f 26//16 15//16 16//16
f 26//16 16//16 17//16
f 26//16 17//16 18//16
f 26//16 18//16 19//16
f 26//16 19//16 20//16
f 26//16 20//16 21//16
f 26//16 21//16 22//16
f 26//16 22//16 23//16
f 26//16 23//16 24//16
f 26//16 24//16 13//16
f 2//1 14//1 13//1
f 3//2 15//2 14//2
f 4//3 16//3 15//3
f 5//4 17//4 16//4
f 6//5 18//5 17//5
f 7//6 19//6 18//6
f 8//7 20//7 19//7
f 9//8 21//8 20//8
f 10//9 22//9 21//9
f 11//10 23//10 22//10
f 12//11 24//11 23//11
f 1//12 13//12 24//12
v -0.000072 0.024644 0.010528
v -0.000344 0.024058 0.009547
v -0.000272 0.022886 0.009524
v 0.000072 0.022299 0.010483
v 0.000344 0.022886 0.011464
v 0.000272 0.024058 0.011487
v -0.002878 0.024452 0.011443
v -0.003400 0.023849 0.010580
v -0.003270 0.022684 0.010516
v -0.002618 0.022120 0.011314
v -0.002095 0.022723 0.012177
v -0.002226 0.023889 0.012242
v -0.004618 0.023948 0.013852
v -0.005488 0.023286 0.013422
v -0.005317 0.022138 0.013235
v -0.004274 0.021653 0.013478
v -0.003404 0.022315 0.013908
v -0.003576 0.023462 0.014095
v -0.004586 0.023331 0.016778
v -0.005476 0.022576 0.016914
v -0.005337 0.021445 0.016627
v -0.004307 0.021069 0.016205
v -0.003416 0.021823 0.016069
v -0.003556 0.022954 0.016356
v -0.002818 0.022837 0.019115
v -0.003378 0.022004 0.019726
v -0.003308 0.020881 0.019389
v -0.002678 0.020590 0.018441
v -0.002118 0.021423 0.017830
v -0.002188 0.022546 0.018167
v -0.000000 0.022653 0.019989
v -0.000000 0.021798 0.020795
v -0.000000 0.020673 0.020457
v -0.000000 0.020403 0.019313
v -0.000000 0.021258 0.018508
v -0.000000 0.022383 0.018845
v 0.002794 0.022847 0.019083
v 0.003368 0.022043 0.019720
v 0.003322 0.020910 0.019414
v 0.002702 0.020580 0.018472
v 0.002128 0.021384 0.017836
v 0.002174 0.022517 0.018141
v 0.004506 0.023343 0.016754
v 0.005443 0.022653 0.016919
v 0.005382 0.021509 0.016656
v 0.004386 0.021056 0.016228
v 0.003450 0.021747 0.016064
v 0.003510 0.022890 0.016327
v 0.004495 0.023952 0.013894
v 0.005437 0.023398 0.013463
v 0.005389 0.022246 0.013234
v 0.004398 0.021649 0.013437
v 0.003455 0.022203 0.013867
v 0.003504 0.023354 0.014096
v 0.002787 0.024441 0.011595
v 0.003590 0.023946 0.010894
v 0.003551 0.022792 0.010677
v 0.002708 0.022132 0.011163
v 0.001906 0.022626 0.011864
v 0.001945 0.023780 0.012080
vn -0.208600 0.864000 -0.458200
vn -0.321200 0.016300 -0.946900
vn -0.111400 -0.852700 -0.510400
vn 0.203900 -0.856200 0.474700
vn 0.280800 -0.001500 0.959800
vn 0.091300 0.864000 0.495100
vn -0.525600 0.825300 -0.206400
vn -0.803500 -0.023400 -0.594900
vn -0.307100 -0.861700 -0.403900
vn 0.519600 -0.825700 0.219600
vn 0.795200 0.020400 0.606000
vn 0.301900 0.857200 0.417300
vn -0.622400 0.764500 0.168100
vn -0.992900 -0.117300 -0.020400
vn -0.403400 -0.896000 -0.185500
vn 0.624600 -0.765000 -0.156700
vn 0.992900 0.114500 0.031600
vn 0.406700 0.892100 0.196900
vn -0.485600 0.705400 0.516300
vn -0.803100 -0.216600 0.555100
vn -0.342400 -0.937700 0.060000
vn 0.492600 -0.705400 -0.509700
vn 0.808700 0.214700 -0.547600
vn 0.350200 0.935100 -0.053800
vn -0.178200 0.674800 0.716100
vn -0.305200 -0.273800 0.912100
vn -0.134200 -0.964400 0.227700
vn 0.185900 -0.673800 -0.715200
vn 0.312600 0.273100 -0.909800
vn 0.142400 0.963300 -0.227700
vn 0.180600 0.686600 0.704200
vn 0.310700 -0.259100 0.914500
vn 0.144200 -0.959700 0.241200
vn -0.175200 -0.685100 -0.707000
vn -0.304800 0.259400 -0.916400
vn -0.138600 0.959600 -0.244800
vn 0.458200 0.738700 0.494300
vn 0.809100 -0.171800 0.561900
vn 0.381700 -0.920300 0.085200
vn -0.456100 -0.737000 -0.498700
vn -0.806100 0.172600 -0.566000
vn -0.379700 0.920700 -0.090500
vn 0.556100 0.813400 0.170800
vn 0.999100 -0.040200 -0.010200
vn 0.479800 -0.857900 -0.184100
vn -0.557000 -0.812000 -0.174600
vn -0.999100 0.041000 0.006100
vn -0.480800 0.858200 0.179700
vn 0.433300 0.891500 -0.132300
vn 0.817300 0.078700 -0.570700
vn 0.391100 -0.801600 -0.452200
vn -0.450200 -0.880700 0.147300
vn -0.796800 -0.084800 0.598300
vn -0.370300 0.808500 0.457300
vn 0.209800 0.896000 -0.391300
vn 0.324500 0.038300 -0.945100
vn 0.183200 -0.723200 -0.665900
vn -0.167800 -0.886000 0.432300
vn -0.270900 -0.168200 0.947800
vn -0.135900 0.693600 0.707400
vn -0.216600 0.857000 -0.467600
vn -0.314000 -0.000800 -0.949400
vn -0.095400 -0.864200 -0.494100
vn 0.193100 -0.864800 0.463400
vn 0.290500 -0.020300 0.956600
vn 0.108600 0.851900 0.512300
vn -0.540500 0.807300 -0.237100
vn -0.792400 -0.055100 -0.607500
vn -0.271100 -0.876800 -0.397100
vn 0.551100 -0.802800 0.227500
vn 0.800700 0.056600 0.596400
vn 0.282600 0.877300 0.387800
vn -0.645300 0.748200 0.154300
vn -0.989200 -0.142400 -0.034900
vn -0.375300 -0.905400 -0.198500
vn 0.647500 -0.743900 -0.165500
vn 0.989300 0.144200 0.023700
vn 0.378500 0.906500 0.187000
vn -0.506000 0.689900 0.517700
vn -0.805500 -0.237100 0.543100
vn -0.329200 -0.943500 0.037600
vn 0.501800 -0.686500 -0.526200
vn 0.799900 0.238300 -0.550800
vn 0.325800 0.944300 -0.047100
vn -0.189500 0.660500 0.726500
vn -0.310500 -0.291000 0.904900
vn -0.135300 -0.968900 0.207100
vn 0.182500 -0.658500 -0.730100
vn 0.303200 0.291200 -0.907300
vn 0.128700 0.968900 -0.211100
vn 0.179300 0.674500 0.716100
vn 0.305700 -0.273700 0.911900
vn 0.134200 -0.964500 0.227600
vn -0.186000 -0.673700 -0.715200
vn -0.311700 0.273200 -0.910100
vn -0.140700 0.963500 -0.227800
vn 0.464300 0.729400 0.502400
vn 0.806200 -0.184200 0.562200
vn 0.369600 -0.925700 0.080900
vn -0.468200 -0.729200 -0.499000
vn -0.809200 0.183200 -0.558200
vn -0.373600 0.924300 -0.077900
vn 0.564800 0.806900 0.173200
vn 0.998700 -0.050400 -0.009100
vn 0.470300 -0.863700 -0.181400
vn -0.565700 -0.807100 -0.168900
vn -0.998700 0.049500 0.013100
vn -0.471400 0.862200 0.185300
vn 0.453900 0.880200 -0.138500
vn 0.817400 0.078900 -0.570700
vn 0.375200 -0.810000 -0.450800
vn -0.426700 -0.893300 0.141100
vn -0.796900 -0.085000 0.598100
vn -0.388500 0.799300 0.458500
vn 0.209200 0.812800 -0.543700
vn 0.288500 0.166700 -0.942900
vn 0.086900 -0.835500 -0.542600
vn -0.271900 -0.790900 0.548200
vn -0.339900 -0.039200 0.939600
vn -0.148400 0.818800 0.554500
f 28//17 33//17 27//17
f 28//18 35//18 34//18
f 29//19 36//19 35//19
f 30//20 37//20 36//20
f 32//21 37//21 31//21
f 27//22 38//22 32//22
f 33//23 40//23 39//23
f 34//24 41//24 40//24
f 35//25 42//25 41//25
f 36//26 43//26 42//26
f 37//27 44//27 43//27
f 38//28 39//28 44//28
f 39//29 46//29 45//29
f 40//30 47//30 46//30
f 41//31 48//31 47//31
f 42//32 49//32 48//32
f 43//33 50//33 49//33
f 44//34 45//34 50//34
f 45//35 52//35 51//35
f 46//36 53//36 52//36
f 47//37 54//37 53//37
f 48//38 55//38 54//38
f 49//39 56//39 55//39
f 50//40 51//40 56//40
f 51//41 58//41 57//41
f 52//42 59//42 58//42
f 53//43 60//43 59//43
f 54//44 61//44 60//44
f 55//45 62//45 61//45
f 56//46 57//46 62//46
f 57//47 64//47 63//47
f 58//48 65//48 64//48
f 59//49 66//49 65//49
f 60//50 67//50 66//50
f 61//51 68//51 67//51
f 62//52 63//52 68//52
f 63//53 70//53 69//53
f 64//54 71//54 70//54
f 65//55 72//55 71//55
f 66//56 73//56 72//56
f 67//57 74//57 73//57
f 68//58 69//58 74//58
f 69//59 76//59 75//59
f 70//60 77//60 76//60
f 71//61 78//61 77//61
f 72//62 79//62 78//62
f 73//63 80//63 79//63
f 74//64 75//64 80//64
f 75//65 82//65 81//65
f 77//66 82//66 76//66
f 78//67 83//67 77//67
f 79//68 84//68 78//68
f 79//69 86//69 85//69
f 80//70 81//70 86//70
f 82//71 27//71 81//71
f 82//72 29//72 28//72
f 84//73 29//73 83//73
f 85//74 30//74 84//74
f 86//75 31//75 85//75
f 81//76 32//76 86//76
f 28//77 34//77 33//77
f 28//78 29//78 35//78
f 29//79 30//79 36//79
f 30//80 31//80 37//80
f 32//81 38//81 37//81
f 27//82 33//82 38//82
f 33//83 34//83 40//83
f 34//84 35//84 41//84
f 35//85 36//85 42//85
f 36//86 37//86 43//86
f 37//87 38//87 44//87
f 38//88 33//88 39//88
f 39//89 40//89 46//89
f 40//90 41//90 47//90
f 41//91 42//91 48//91
f 42//92 43//92 49//92
f 43//93 44//93 50//93
f 44//94 39//94 45//94
f 45//95 46//95 52//95
f 46//96 47//96 53//96
f 47//97 48//97 54//97
f 48//98 49//98 55//98
f 49//99 50//99 56//99
f 50//100 45//100 51//100
f 51//101 52//101 58//101
f 52//102 53//102 59//102
f 53//103 54//103 60//103
f 54//104 55//104 61//104
f 55//105 56//105 62//105
f 56//106 51//106 57//106
f 57//107 58//107 64//107
f 58//108 59//108 65//108
f 59//109 60//109 66//109
f 60//110 61//110 67//110
f 61//111 62//111 68//111
f 62//112 57//112 63//112
f 63//113 64//113 70//113
f 64//114 65//114 71//114
f 65//115 66//115 72//115
f 66//116 67//116 73//116
f 67//117 68//117 74//117
f 68//118 63//118 69//118
f 69//119 70//119 76//119
f 70//120 71//120 77//120
f 71//121 72//121 78//121
f 72//122 73//122 79//122
f 73//123 74//123 80//123
f 74//124 69//124 75//124
f 75//125 76//125 82//125
f 77//126 83//126 82//126
f 78//127 84//127 83//127
f 79//128 85//128 84//128
f 79//129 80//129 86//129
f 80//130 75//130 81//130
f 82//131 28//131 27//131
f 82//132 83//132 29//132
f 84//133 30//133 29//133
f 85//134 31//134 30//134
f 86//135 32//135 31//135
f 81//136 27//136 32//136
v -0.003500 0.017666 0.001332
v 0.003500 0.017666 0.001332
v 0.003500 0.015334 0.003524
v -0.003500 0.015334 0.003524
v -0.001200 0.024874 0.009581
v 0.001200 0.024874 0.009581
v 0.001200 0.023126 0.011225
v -0.001200 0.023126 0.011225
vn 0.000000 -0.685100 -0.728400
vn 0.000000 0.685000 0.728500
vn 0.000000 0.753000 -0.658000
vn 0.978600 0.140900 0.149800
vn 0.000000 -0.703000 0.711200
vn -0.978600 0.140900 0.149800
vn 0.000000 0.685100 0.728400
f 88//137 90//137 87//137
f 93//138 91//138 94//138
f 87//139 92//139 88//139
f 92//140 89//140 88//140
f 89//141 94//141 90//141
f 90//142 91//142 87//142
f 88//137 89//137 90//137
f 93//143 92//143 91//143
f 87//139 91//139 92//139
f 92//140 93//140 89//140
f 89//141 93//141 94//141
f 90//142 94//142 91//142
v 0.002000 0.002517 0.003628
v -0.002000 0.002517 0.003628
v -0.002000 0.002482 0.002829
v 0.002000 0.002482 0.002829
v 0.003000 0.027548 0.003227
v -0.003000 0.027548 0.003227
v -0.003000 0.027452 0.001029
v 0.003000 0.027452 0.001029
vn 0.000000 -0.999000 0.043900
vn 0.000000 0.999000 -0.044000
vn 0.000000 0.016000 0.999900
vn -0.999200 -0.039900 0.001800
vn 0.000000 -0.071900 -0.997400
vn 0.999200 -0.039900 0.001800
vn 0.000000 -0.999000 0.043700
f 96//144 98//144 95//144
f 101//145 99//145 102//145
f 99//146 96//146 95//146
f 100//147 97//147 96//147
f 101//148 98//148 97//148
f 98//149 99//149 95//149
f 96//150 97//150 98//150
f 101//145 100//145 99//145
f 99//146 100//146 96//146
f 100//147 101//147 97//147
f 101//148 102//148 98//148
f 98//149 102//149 99//149
