# Axes: Loom's -- metres, +Y up along the rod from this part's own
# origin, guides and reel toward +Z. No o/g tags: see mesh.rs:266.
# Blender 5.2.0 LTS
# www.blender.org
v -0.000000 0.000000 -0.002721
v -0.001360 0.000000 -0.002356
v -0.002356 0.000000 -0.001360
v -0.002721 0.000000 -0.000000
v -0.002356 0.000000 0.001360
v -0.001360 0.000000 0.002356
v -0.000000 0.000000 0.002721
v 0.001360 0.000000 0.002356
v 0.002356 0.000000 0.001360
v 0.002721 0.000000 0.000000
v 0.002356 0.000000 -0.001360
v 0.001360 0.000000 -0.002356
v -0.000000 0.042500 -0.002657
v -0.001328 0.042500 -0.002301
v -0.002301 0.042500 -0.001328
v -0.002657 0.042500 -0.000000
v -0.002301 0.042500 0.001328
v -0.001328 0.042500 0.002301
v -0.000000 0.042500 0.002657
v 0.001328 0.042500 0.002301
v 0.002301 0.042500 0.001328
v 0.002657 0.042500 0.000000
v 0.002301 0.042500 -0.001328
v 0.001328 0.042500 -0.002301
v -0.000000 0.000000 -0.000000
v -0.000000 0.042500 -0.000000
vn -0.258800 0.001500 -0.965900
vn -0.707100 0.001500 -0.707100
vn -0.965900 0.001500 -0.258800
vn -0.965900 0.001500 0.258800
vn -0.707100 0.001500 0.707100
vn -0.258800 0.001500 0.965900
vn 0.258800 0.001500 0.965900
vn 0.707100 0.001500 0.707100
vn 0.965900 0.001500 0.258800
vn 0.965900 0.001500 -0.258800
vn 0.707100 0.001500 -0.707100
vn 0.258800 0.001500 -0.965900
vn 0.000000 -1.000000 0.000000
vn 0.000000 -1.000000 0.000100
vn 0.000000 -1.000000 -0.000100
vn 0.000000 1.000000 0.000000
vn 0.000000 1.000000 -0.000100
vn 0.000000 1.000000 0.000100
f 2//1 13//1 1//1
f 3//2 14//2 2//2
f 4//3 15//3 3//3
f 5//4 16//4 4//4
f 6//5 17//5 5//5
f 7//6 18//6 6//6
f 8//7 19//7 7//7
f 9//8 20//8 8//8
f 10//9 21//9 9//9
f 11//10 22//10 10//10
f 12//11 23//11 11//11
f 1//12 24//12 12//12
f 25//13 2//13 1//13
f 25//14 3//14 2//14
f 25//15 4//15 3//15
f 25//14 5//14 4//14
f 25//15 6//15 5//15
f 25//13 7//13 6//13
f 25//13 8//13 7//13
f 25//15 9//15 8//15
f 25//14 10//14 9//14
f 25//15 11//15 10//15
f 25//14 12//14 11//14
f 25//13 1//13 12//13
f 26//16 13//16 14//16
f 26//17 14//17 15//17
f 26//18 15//18 16//18
f 26//17 16//17 17//17
f 26//18 17//18 18//18
f 26//16 18//16 19//16
f 26//16 19//16 20//16
f 26//18 20//18 21//18
f 26//17 21//17 22//17
f 26//18 22//18 23//18
f 26//17 23//17 24//17
f 26//16 24//16 13//16
f 2//1 14//1 13//1
f 3//2 15//2 14//2
f 4//3 16//3 15//3
f 5//4 17//4 16//4
f 6//5 18//5 17//5
f 7//6 19//6 18//6
f 8//7 20//7 19//7
f 9//8 21//8 20//8
f 10//9 22//9 21//9
f 11//10 23//10 22//10
f 12//11 24//11 23//11
f 1//12 13//12 24//12
v -0.000072 0.024145 0.010287
v -0.000344 0.023558 0.009306
v -0.000272 0.022386 0.009283
v 0.000072 0.021799 0.010242
v 0.000344 0.022386 0.011223
v 0.000272 0.023558 0.011246
v -0.002878 0.023952 0.011202
v -0.003400 0.023350 0.010339
v -0.003270 0.022184 0.010275
v -0.002618 0.021620 0.011073
v -0.002095 0.022223 0.011936
v -0.002226 0.023389 0.012001
v -0.004618 0.023448 0.013611
v -0.005488 0.022786 0.013181
v -0.005317 0.021638 0.012994
v -0.004274 0.021153 0.013237
v -0.003404 0.021815 0.013667
v -0.003576 0.022962 0.013854
v -0.004586 0.022831 0.016537
v -0.005476 0.022076 0.016673
v -0.005337 0.020945 0.016386
v -0.004307 0.020569 0.015964
v -0.003416 0.021323 0.015828
v -0.003556 0.022454 0.016115
v -0.002818 0.022337 0.018874
v -0.003378 0.021504 0.019485
v -0.003308 0.020381 0.019148
v -0.002678 0.020090 0.018200
v -0.002118 0.020923 0.017589
v -0.002188 0.022046 0.017926
v -0.000000 0.022153 0.019748
v -0.000000 0.021298 0.020554
v -0.000000 0.020173 0.020216
v -0.000000 0.019903 0.019072
v -0.000000 0.020758 0.018267
v -0.000000 0.021883 0.018604
v 0.002794 0.022347 0.018842
v 0.003368 0.021544 0.019479
v 0.003322 0.020410 0.019173
v 0.002702 0.020080 0.018231
v 0.002128 0.020884 0.017595
v 0.002174 0.022017 0.017900
v 0.004506 0.022843 0.016513
v 0.005443 0.022153 0.016678
v 0.005382 0.021009 0.016415
v 0.004386 0.020556 0.015987
v 0.003450 0.021247 0.015823
v 0.003510 0.022390 0.016086
v 0.004495 0.023452 0.013653
v 0.005437 0.022898 0.013222
v 0.005389 0.021747 0.012993
v 0.004398 0.021149 0.013196
v 0.003455 0.021703 0.013626
v 0.003504 0.022854 0.013855
v 0.002787 0.023941 0.011354
v 0.003590 0.023446 0.010653
v 0.003551 0.022292 0.010436
v 0.002708 0.021632 0.010922
v 0.001906 0.022126 0.011623
v 0.001945 0.023281 0.011839
vn -0.208600 0.864000 -0.458200
vn -0.321200 0.016300 -0.946900
vn -0.111400 -0.852600 -0.510600
vn 0.203900 -0.856300 0.474600
vn 0.280700 -0.001500 0.959800
vn 0.091300 0.863900 0.495400
vn -0.525600 0.825300 -0.206400
vn -0.803500 -0.023400 -0.594900
vn -0.307100 -0.861700 -0.403900
vn 0.519600 -0.825700 0.219700
vn 0.795200 0.020400 0.606000
vn 0.301800 0.857100 0.417400
vn -0.622400 0.764500 0.168000
vn -0.992900 -0.117300 -0.020400
vn -0.403400 -0.896000 -0.185600
vn 0.624600 -0.765000 -0.156700
vn 0.992900 0.114500 0.031600
vn 0.406700 0.892100 0.196900
vn -0.485600 0.705400 0.516300
vn -0.803000 -0.216600 0.555200
vn -0.342400 -0.937600 0.060100
vn 0.492600 -0.705300 -0.509700
vn 0.808700 0.214700 -0.547600
vn 0.350200 0.935100 -0.053900
vn -0.178200 0.674800 0.716100
vn -0.305200 -0.273800 0.912100
vn -0.134200 -0.964400 0.227700
vn 0.185900 -0.673700 -0.715300
vn 0.312600 0.273100 -0.909800
vn 0.142400 0.963300 -0.227700
vn 0.180600 0.686600 0.704300
vn 0.310700 -0.259100 0.914500
vn 0.144100 -0.959700 0.241300
vn -0.175200 -0.685000 -0.707200
vn -0.304700 0.259400 -0.916400
vn -0.138600 0.959700 -0.244500
vn 0.458200 0.738800 0.494300
vn 0.809100 -0.171800 0.562000
vn 0.381700 -0.920300 0.085300
vn -0.456100 -0.737000 -0.498800
vn -0.806000 0.172600 -0.566100
vn -0.379700 0.920700 -0.090400
vn 0.556100 0.813400 0.170900
vn 0.999100 -0.040200 -0.010200
vn 0.479800 -0.857900 -0.184100
vn -0.557000 -0.812000 -0.174700
vn -0.999100 0.041000 0.006100
vn -0.480800 0.858200 0.179900
vn 0.433300 0.891500 -0.132300
vn 0.817300 0.078700 -0.570700
vn 0.391100 -0.801600 -0.452200
vn -0.450200 -0.880700 0.147100
vn -0.796800 -0.084800 0.598300
vn -0.370300 0.808600 0.457300
vn 0.209800 0.896000 -0.391300
vn 0.324500 0.038300 -0.945100
vn 0.183200 -0.723400 -0.665700
vn -0.167700 -0.885800 0.432600
vn -0.270800 -0.168200 0.947800
vn -0.135900 0.693600 0.707400
vn -0.216600 0.857000 -0.467700
vn -0.314000 -0.000800 -0.949400
vn -0.095400 -0.864200 -0.494100
vn 0.193100 -0.865000 0.463200
vn 0.290600 -0.020300 0.956600
vn 0.108600 0.851800 0.512400
vn -0.540500 0.807200 -0.237300
vn -0.792400 -0.055100 -0.607500
vn -0.271100 -0.876800 -0.397100
vn 0.551100 -0.802900 0.227300
vn 0.800800 0.056600 0.596300
vn 0.282600 0.877300 0.387800
vn -0.645300 0.748200 0.154300
vn -0.989200 -0.142400 -0.034900
vn -0.375300 -0.905400 -0.198400
vn 0.647500 -0.743900 -0.165600
vn 0.989300 0.144200 0.023700
vn 0.378500 0.906500 0.187000
vn -0.506000 0.689900 0.517700
vn -0.805600 -0.237100 0.543000
vn -0.329200 -0.943500 0.037800
vn 0.501800 -0.686500 -0.526200
vn 0.799900 0.238300 -0.550800
vn 0.325800 0.944300 -0.047100
vn -0.189500 0.660500 0.726500
vn -0.310500 -0.291000 0.904900
vn -0.135300 -0.968900 0.207400
vn 0.182500 -0.658500 -0.730100
vn 0.303200 0.291200 -0.907300
vn 0.128700 0.968900 -0.211100
vn 0.179400 0.674700 0.716000
vn 0.305700 -0.273700 0.911900
vn 0.134200 -0.964500 0.227600
vn -0.186000 -0.673800 -0.715100
vn -0.311700 0.273200 -0.910100
vn -0.140700 0.963500 -0.227800
vn 0.464300 0.729400 0.502400
vn 0.806200 -0.184200 0.562200
vn 0.369600 -0.925700 0.081100
vn -0.468300 -0.729400 -0.498700
vn -0.809200 0.183200 -0.558200
vn -0.373600 0.924300 -0.077700
vn 0.564700 0.806900 0.173200
vn 0.998700 -0.050400 -0.009100
vn 0.470300 -0.863600 -0.181400
vn -0.565700 -0.807100 -0.168900
vn -0.998700 0.049500 0.013100
vn -0.471400 0.862300 0.185300
vn 0.453900 0.880200 -0.138500
vn 0.817300 0.078900 -0.570700
vn 0.375200 -0.810000 -0.450800
vn -0.426700 -0.893300 0.141100
vn -0.796900 -0.085000 0.598100
vn -0.388500 0.799300 0.458500
vn 0.209200 0.812800 -0.543800
vn 0.288500 0.166700 -0.942900
vn 0.086900 -0.835500 -0.542500
vn -0.271900 -0.791000 0.548000
vn -0.339900 -0.039200 0.939700
vn -0.148400 0.818900 0.554500
f 28//19 33//19 27//19
f 28//20 35//20 34//20
f 29//21 36//21 35//21
f 30//22 37//22 36//22
f 32//23 37//23 31//23
f 27//24 38//24 32//24
f 33//25 40//25 39//25
f 34//26 41//26 40//26
f 35//27 42//27 41//27
f 36//28 43//28 42//28
f 37//29 44//29 43//29
f 38//30 39//30 44//30
f 39//31 46//31 45//31
f 40//32 47//32 46//32
f 41//33 48//33 47//33
f 42//34 49//34 48//34
f 43//35 50//35 49//35
f 44//36 45//36 50//36
f 45//37 52//37 51//37
f 46//38 53//38 52//38
f 47//39 54//39 53//39
f 48//40 55//40 54//40
f 49//41 56//41 55//41
f 50//42 51//42 56//42
f 51//43 58//43 57//43
f 52//44 59//44 58//44
f 53//45 60//45 59//45
f 54//46 61//46 60//46
f 55//47 62//47 61//47
f 56//48 57//48 62//48
f 57//49 64//49 63//49
f 58//50 65//50 64//50
f 59//51 66//51 65//51
f 60//52 67//52 66//52
f 61//53 68//53 67//53
f 62//54 63//54 68//54
f 63//55 70//55 69//55
f 64//56 71//56 70//56
f 65//57 72//57 71//57
f 66//58 73//58 72//58
f 67//59 74//59 73//59
f 68//60 69//60 74//60
f 69//61 76//61 75//61
f 70//62 77//62 76//62
f 71//63 78//63 77//63
f 72//64 79//64 78//64
f 73//65 80//65 79//65
f 74//66 75//66 80//66
f 75//67 82//67 81//67
f 77//68 82//68 76//68
f 78//69 83//69 77//69
f 79//70 84//70 78//70
f 79//71 86//71 85//71
f 80//72 81//72 86//72
f 82//73 27//73 81//73
f 82//74 29//74 28//74
f 84//75 29//75 83//75
f 85//76 30//76 84//76
f 86//77 31//77 85//77
f 81//78 32//78 86//78
f 28//79 34//79 33//79
f 28//80 29//80 35//80
f 29//81 30//81 36//81
f 30//82 31//82 37//82
f 32//83 38//83 37//83
f 27//84 33//84 38//84
f 33//85 34//85 40//85
f 34//86 35//86 41//86
f 35//87 36//87 42//87
f 36//88 37//88 43//88
f 37//89 38//89 44//89
f 38//90 33//90 39//90
f 39//91 40//91 46//91
f 40//92 41//92 47//92
f 41//93 42//93 48//93
f 42//94 43//94 49//94
f 43//95 44//95 50//95
f 44//96 39//96 45//96
f 45//97 46//97 52//97
f 46//98 47//98 53//98
f 47//99 48//99 54//99
f 48//100 49//100 55//100
f 49//101 50//101 56//101
f 50//102 45//102 51//102
f 51//103 52//103 58//103
f 52//104 53//104 59//104
f 53//105 54//105 60//105
f 54//106 55//106 61//106
f 55//107 56//107 62//107
f 56//108 51//108 57//108
f 57//109 58//109 64//109
f 58//110 59//110 65//110
f 59//111 60//111 66//111
f 60//112 61//112 67//112
f 61//113 62//113 68//113
f 62//114 57//114 63//114
f 63//115 64//115 70//115
f 64//116 65//116 71//116
f 65//117 66//117 72//117
f 66//118 67//118 73//118
f 67//119 68//119 74//119
f 68//120 63//120 69//120
f 69//121 70//121 76//121
f 70//122 71//122 77//122
f 71//123 72//123 78//123
f 72//124 73//124 79//124
f 73//125 74//125 80//125
f 74//126 69//126 75//126
f 75//127 76//127 82//127
f 77//128 83//128 82//128
f 78//129 84//129 83//129
f 79//130 85//130 84//130
f 79//131 80//131 86//131
f 80//132 75//132 81//132
f 82//133 28//133 27//133
f 82//134 83//134 29//134
f 84//135 30//135 29//135
f 85//136 31//136 30//136
f 86//137 32//137 31//137
f 81//138 27//138 32//138
v -0.003500 0.017166 0.001091
v 0.003500 0.017166 0.001091
v 0.003500 0.014835 0.003283
v -0.003500 0.014835 0.003283
v -0.001200 0.024374 0.009340
v 0.001200 0.024374 0.009340
v 0.001200 0.022626 0.010984
v -0.001200 0.022626 0.010984
vn 0.000000 -0.685100 -0.728500
vn 0.000000 0.685100 0.728400
vn 0.000000 0.753000 -0.658000
vn 0.978600 0.140900 0.149800
vn 0.000000 -0.703000 0.711200
vn -0.978600 0.140900 0.149800
vn 0.000000 0.685000 0.728500
f 88//139 90//139 87//139
f 93//140 91//140 94//140
f 91//141 88//141 87//141
f 92//142 89//142 88//142
f 89//143 94//143 90//143
f 90//144 91//144 87//144
f 88//139 89//139 90//139
f 93//145 92//145 91//145
f 91//141 92//141 88//141
f 92//142 93//142 89//142
f 89//143 93//143 94//143
f 90//144 94//144 91//144
v 0.002000 0.002018 0.003387
v -0.002000 0.002018 0.003387
v -0.002000 0.001982 0.002588
v 0.002000 0.001982 0.002588
v 0.003000 0.027048 0.002986
v -0.003000 0.027048 0.002986
v -0.003000 0.026952 0.000788
v 0.003000 0.026952 0.000788
vn 0.000000 -0.999000 0.044200
vn 0.000000 0.999000 -0.044000
vn 0.000000 0.016000 0.999900
vn -0.999200 -0.039900 0.001800
vn 0.000000 -0.071900 -0.997400
vn 0.999200 -0.039900 0.001800
vn 0.000000 -0.999000 0.043900
f 96//146 98//146 95//146
f 101//147 99//147 102//147
f 99//148 96//148 95//148
f 96//149 101//149 97//149
f 101//150 98//150 97//150
f 102//151 95//151 98//151
f 96//152 97//152 98//152
f 101//147 100//147 99//147
f 99//148 100//148 96//148
f 96//149 100//149 101//149
f 101//150 102//150 98//150
f 102//151 99//151 95//151
