# Axes: Loom's -- metres, +Y up along the rod from this part's own
# origin, guides and reel toward +Z. No o/g tags: see mesh.rs:266.
# Blender 5.2.0 LTS
# www.blender.org
v -0.000000 0.000000 -0.003274
v -0.001637 0.000000 -0.002836
v -0.002836 0.000000 -0.001637
v -0.003274 0.000000 -0.000000
v -0.002836 0.000000 0.001637
v -0.001637 0.000000 0.002836
v -0.000000 0.000000 0.003274
v 0.001637 0.000000 0.002836
v 0.002836 0.000000 0.001637
v 0.003274 0.000000 0.000000
v 0.002836 0.000000 -0.001637
v 0.001637 0.000000 -0.002836
v -0.000000 0.065600 -0.003153
v -0.001577 0.065600 -0.002731
v -0.002731 0.065600 -0.001577
v -0.003153 0.065600 -0.000000
v -0.002731 0.065600 0.001577
v -0.001577 0.065600 0.002731
v -0.000000 0.065600 0.003153
v 0.001577 0.065600 0.002731
v 0.002731 0.065600 0.001577
v 0.003153 0.065600 0.000000
v 0.002731 0.065600 -0.001577
v 0.001577 0.065600 -0.002731
v -0.000000 0.000000 -0.000000
v -0.000000 0.065600 -0.000000
vn -0.258800 0.001800 -0.965900
vn -0.707100 0.001800 -0.707100
vn -0.965900 0.001800 -0.258800
vn -0.965900 0.001800 0.258800
vn -0.707100 0.001800 0.707100
vn -0.258800 0.001800 0.965900
vn 0.258800 0.001800 0.965900
vn 0.707100 0.001800 0.707100
vn 0.965900 0.001800 0.258800
vn 0.965900 0.001800 -0.258800
vn 0.707100 0.001800 -0.707100
vn 0.258800 0.001800 -0.965900
vn 0.000000 -1.000000 0.000000
vn 0.000000 1.000000 0.000000
vn 0.000000 1.000000 -0.000100
vn 0.000000 1.000000 0.000200
vn 0.000000 1.000000 -0.000200
vn 0.000000 1.000000 0.000100
f 2//1 13//1 1//1
f 3//2 14//2 2//2
f 4//3 15//3 3//3
f 5//4 16//4 4//4
f 6//5 17//5 5//5
f 7//6 18//6 6//6
f 8//7 19//7 7//7
f 9//8 20//8 8//8
f 10//9 21//9 9//9
f 11//10 22//10 10//10
f 12//11 23//11 11//11
f 1//12 24//12 12//12
f 25//13 2//13 1//13
f 25//13 3//13 2//13
f 25//13 4//13 3//13
f 25//13 5//13 4//13
f 25//13 6//13 5//13
f 25//13 7//13 6//13
f 25//13 8//13 7//13
f 25//13 9//13 8//13
f 25//13 10//13 9//13
f 25//13 11//13 10//13
f 25//13 12//13 11//13
f 25//13 1//13 12//13
f 26//14 13//14 14//14
f 26//15 14//15 15//15
f 26//16 15//16 16//16
f 26//17 16//17 17//17
f 26//18 17//18 18//18
f 26//14 18//14 19//14
f 26//14 19//14 20//14
f 26//18 20//18 21//18
f 26//17 21//17 22//17
f 26//16 22//16 23//16
f 26//15 23//15 24//15
f 26//14 24//14 13//14
f 2//1 14//1 13//1
f 3//2 15//2 14//2
f 4//3 16//3 15//3
f 5//4 17//4 16//4
f 6//5 18//5 17//5
f 7//6 19//6 18//6
f 8//7 20//7 19//7
f 9//8 21//8 20//8
f 10//9 22//9 21//9
f 11//10 23//10 22//10
f 12//11 24//11 23//11
f 1//12 13//12 24//12
v -0.000073 0.034479 0.011751
v -0.000352 0.033880 0.010749
v -0.000278 0.032682 0.010726
v 0.000073 0.032084 0.011705
v 0.000352 0.032682 0.012707
v 0.000278 0.033880 0.012730
v -0.003190 0.034265 0.012765
v -0.003723 0.033650 0.011884
v -0.003590 0.032459 0.011818
v -0.002923 0.031884 0.012634
v -0.002390 0.032500 0.013515
v -0.002523 0.033690 0.013581
v -0.005121 0.033706 0.015433
v -0.006010 0.033030 0.014994
v -0.005834 0.031858 0.014804
v -0.004770 0.031362 0.015052
v -0.003881 0.032039 0.015491
v -0.004057 0.033210 0.015682
v -0.005088 0.033021 0.018679
v -0.005997 0.032250 0.018817
v -0.005855 0.031095 0.018524
v -0.004803 0.030711 0.018093
v -0.003894 0.031482 0.017955
v -0.004036 0.032637 0.018248
v -0.003128 0.032473 0.021274
v -0.003700 0.031622 0.021898
v -0.003628 0.030475 0.021553
v -0.002985 0.030178 0.020585
v -0.002413 0.031029 0.019961
v -0.002484 0.032176 0.020305
v -0.000000 0.032268 0.022246
v -0.000000 0.031395 0.023069
v 0.000000 0.030245 0.022724
v 0.000000 0.029970 0.021556
v 0.000000 0.030843 0.020733
v -0.000000 0.031992 0.021078
v 0.003103 0.032483 0.021241
v 0.003689 0.031662 0.021892
v 0.003643 0.030504 0.021579
v 0.003010 0.030168 0.020617
v 0.002424 0.030988 0.019967
v 0.002470 0.032146 0.020279
v 0.005007 0.033034 0.018655
v 0.005963 0.032329 0.018823
v 0.005902 0.031161 0.018554
v 0.004884 0.030698 0.018117
v 0.003928 0.031403 0.017950
v 0.003989 0.032571 0.018218
v 0.004995 0.033710 0.015476
v 0.005958 0.033145 0.015036
v 0.005908 0.031968 0.014803
v 0.004896 0.031358 0.015009
v 0.003933 0.031924 0.015449
v 0.003983 0.033100 0.015683
v 0.003097 0.034253 0.012920
v 0.003917 0.033749 0.012204
v 0.003876 0.032570 0.011983
v 0.003016 0.031896 0.012479
v 0.002196 0.032400 0.013195
v 0.002237 0.033579 0.013416
vn -0.208300 0.863900 -0.458700
vn -0.319900 0.016500 -0.947300
vn -0.111000 -0.852700 -0.510600
vn 0.204200 -0.856100 0.474800
vn 0.282800 -0.001300 0.959200
vn 0.091900 0.863700 0.495500
vn -0.525400 0.825200 -0.207200
vn -0.803300 -0.023300 -0.595200
vn -0.307000 -0.861600 -0.404300
vn 0.519900 -0.825700 0.219000
vn 0.795700 0.020600 0.605300
vn 0.302200 0.857400 0.416500
vn -0.622400 0.764500 0.167600
vn -0.992900 -0.117200 -0.020700
vn -0.403600 -0.895900 -0.185900
vn 0.624500 -0.765100 -0.157100
vn 0.992900 0.114600 0.030900
vn 0.406500 0.892300 0.196200
vn -0.485800 0.705400 0.516100
vn -0.803200 -0.216600 0.554900
vn -0.342600 -0.937600 0.059700
vn 0.492300 -0.705400 -0.510000
vn 0.808300 0.214800 -0.548200
vn 0.349700 0.935300 -0.054300
vn -0.178500 0.674900 0.716000
vn -0.305400 -0.273800 0.912000
vn -0.134500 -0.964400 0.227800
vn 0.185600 -0.674000 -0.715000
vn 0.312200 0.273200 -0.909900
vn 0.141900 0.963400 -0.227600
vn 0.180400 0.686700 0.704200
vn 0.310600 -0.259100 0.914600
vn 0.144000 -0.959700 0.241500
vn -0.175400 -0.685300 -0.706800
vn -0.305100 0.259300 -0.916300
vn -0.138900 0.959500 -0.245000
vn 0.458100 0.738700 0.494400
vn 0.809000 -0.171800 0.562100
vn 0.381700 -0.920300 0.085300
vn -0.456200 -0.737100 -0.498500
vn -0.806300 0.172500 -0.565700
vn -0.379800 0.920700 -0.090100
vn 0.556000 0.813400 0.171000
vn 0.999100 -0.040200 -0.010100
vn 0.479700 -0.857900 -0.184000
vn -0.556900 -0.812000 -0.174600
vn -0.999100 0.041000 0.006400
vn -0.480700 0.858200 0.180100
vn 0.433200 0.891500 -0.132300
vn 0.816600 0.079000 -0.571700
vn 0.390900 -0.801500 -0.452600
vn -0.450200 -0.880700 0.147200
vn -0.797800 -0.084500 0.596900
vn -0.370800 0.808700 0.456700
vn 0.208400 0.895700 -0.392700
vn 0.323400 0.038300 -0.945500
vn 0.182200 -0.722500 -0.667000
vn -0.169800 -0.886500 0.430500
vn -0.276100 -0.167800 0.946400
vn -0.139700 0.696100 0.704200
vn -0.216000 0.857000 -0.467900
vn -0.313200 -0.000700 -0.949700
vn -0.095600 -0.863900 -0.494400
vn 0.194100 -0.864900 0.462900
vn 0.291800 -0.020200 0.956300
vn 0.108300 0.851800 0.512600
vn -0.540800 0.807200 -0.236700
vn -0.792700 -0.055100 -0.607100
vn -0.271600 -0.876900 -0.396500
vn 0.550500 -0.803100 0.227900
vn 0.800300 0.056500 0.597000
vn 0.282100 0.877300 0.388200
vn -0.645400 0.748100 0.154600
vn -0.989200 -0.142400 -0.034600
vn -0.375500 -0.905400 -0.198000
vn 0.647400 -0.744100 -0.165000
vn 0.989300 0.144100 0.024300
vn 0.378400 0.906500 0.187400
vn -0.505800 0.689800 0.518000
vn -0.805300 -0.237100 0.543400
vn -0.329100 -0.943500 0.038500
vn 0.502100 -0.686800 -0.525600
vn 0.800300 0.238200 -0.550300
vn 0.326000 0.944200 -0.046600
vn -0.189300 0.660400 0.726600
vn -0.310300 -0.291000 0.905000
vn -0.135100 -0.968900 0.207100
vn 0.182800 -0.658500 -0.730100
vn 0.303600 0.291200 -0.907200
vn 0.129000 0.968900 -0.211100
vn 0.179500 0.674600 0.716000
vn 0.305900 -0.273700 0.911900
vn 0.134500 -0.964500 0.227400
vn -0.185500 -0.673700 -0.715300
vn -0.311400 0.273300 -0.910200
vn -0.140400 0.963600 -0.227300
vn 0.464300 0.729400 0.502400
vn 0.806300 -0.184200 0.562100
vn 0.369800 -0.925600 0.080800
vn -0.468000 -0.729400 -0.499000
vn -0.809000 0.183300 -0.558500
vn -0.373400 0.924400 -0.077900
vn 0.564800 0.806900 0.173100
vn 0.998700 -0.050400 -0.009200
vn 0.470400 -0.863600 -0.181600
vn -0.565600 -0.807100 -0.169100
vn -0.998700 0.049600 0.012800
vn -0.471300 0.862300 0.185100
vn 0.453600 0.880300 -0.139100
vn 0.816700 0.079100 -0.571600
vn 0.375200 -0.810000 -0.450800
vn -0.427300 -0.893200 0.140300
vn -0.797900 -0.084700 0.596800
vn -0.388400 0.799400 0.458400
vn 0.210300 0.812500 -0.543700
vn 0.289700 0.166600 -0.942500
vn 0.089600 -0.835100 -0.542800
vn -0.266200 -0.793300 0.547600
vn -0.335400 -0.038900 0.941300
vn -0.146000 0.819700 0.553900
f 28//19 33//19 27//19
f 28//20 35//20 34//20
f 29//21 36//21 35//21
f 30//22 37//22 36//22
f 32//23 37//23 31//23
f 27//24 38//24 32//24
f 33//25 40//25 39//25
f 34//26 41//26 40//26
f 35//27 42//27 41//27
f 36//28 43//28 42//28
f 37//29 44//29 43//29
f 38//30 39//30 44//30
f 39//31 46//31 45//31
f 40//32 47//32 46//32
f 41//33 48//33 47//33
f 42//34 49//34 48//34
f 43//35 50//35 49//35
f 44//36 45//36 50//36
f 45//37 52//37 51//37
f 46//38 53//38 52//38
f 47//39 54//39 53//39
f 48//40 55//40 54//40
f 49//41 56//41 55//41
f 50//42 51//42 56//42
f 51//43 58//43 57//43
f 52//44 59//44 58//44
f 53//45 60//45 59//45
f 54//46 61//46 60//46
f 55//47 62//47 61//47
f 56//48 57//48 62//48
f 57//49 64//49 63//49
f 58//50 65//50 64//50
f 59//51 66//51 65//51
f 60//52 67//52 66//52
f 61//53 68//53 67//53
f 62//54 63//54 68//54
f 63//55 70//55 69//55
f 64//56 71//56 70//56
f 65//57 72//57 71//57
f 66//58 73//58 72//58
f 67//59 74//59 73//59
f 68//60 69//60 74//60
f 69//61 76//61 75//61
f 70//62 77//62 76//62
f 71//63 78//63 77//63
f 72//64 79//64 78//64
f 73//65 80//65 79//65
f 74//66 75//66 80//66
f 75//67 82//67 81//67
f 77//68 82//68 76//68
f 78//69 83//69 77//69
f 79//70 84//70 78//70
f 79//71 86//71 85//71
f 80//72 81//72 86//72
f 82//73 27//73 81//73
f 82//74 29//74 28//74
f 84//75 29//75 83//75
f 85//76 30//76 84//76
f 86//77 31//77 85//77
f 81//78 32//78 86//78
f 28//79 34//79 33//79
f 28//80 29//80 35//80
f 29//81 30//81 36//81
f 30//82 31//82 37//82
f 32//83 38//83 37//83
f 27//84 33//84 38//84
f 33//85 34//85 40//85
f 34//86 35//86 41//86
f 35//87 36//87 42//87
f 36//88 37//88 43//88
f 37//89 38//89 44//89
f 38//90 33//90 39//90
f 39//91 40//91 46//91
f 40//92 41//92 47//92
f 41//93 42//93 48//93
f 42//94 43//94 49//94
f 43//95 44//95 50//95
f 44//96 39//96 45//96
f 45//97 46//97 52//97
f 46//98 47//98 53//98
f 47//99 48//99 54//99
f 48//100 49//100 55//100
f 49//101 50//101 56//101
f 50//102 45//102 51//102
f 51//103 52//103 58//103
f 52//104 53//104 59//104
f 53//105 54//105 60//105
f 54//106 55//106 61//106
f 55//107 56//107 62//107
f 56//108 51//108 57//108
f 57//109 58//109 64//109
f 58//110 59//110 65//110
f 59//111 60//111 66//111
f 60//112 61//112 67//112
f 61//113 62//113 68//113
f 62//114 57//114 63//114
f 63//115 64//115 70//115
f 64//116 65//116 71//116
f 65//117 66//117 72//117
f 66//118 67//118 73//118
f 67//119 68//119 74//119
f 68//120 63//120 69//120
f 69//121 70//121 76//121
f 70//122 71//122 77//122
f 71//123 72//123 78//123
f 72//124 73//124 79//124
f 73//125 74//125 80//125
f 74//126 69//126 75//126
f 75//127 76//127 82//127
f 77//128 83//128 82//128
f 78//129 84//129 83//129
f 79//130 85//130 84//130
f 79//131 80//131 86//131
f 80//132 75//132 81//132
f 82//133 28//133 27//133
f 82//134 83//134 29//134
f 84//135 30//135 29//135
f 85//136 31//136 30//136
f 86//137 32//137 31//137
f 81//138 27//138 32//138
v -0.003500 0.027424 0.001683
v 0.003500 0.027424 0.001683
v 0.003500 0.024976 0.003745
v -0.003500 0.024976 0.003745
v -0.001200 0.034618 0.010841
v 0.001200 0.034618 0.010841
v 0.001200 0.032782 0.012388
v -0.001200 0.032782 0.012388
vn 0.000000 -0.644400 -0.764700
vn 0.000000 0.644400 0.764700
vn 0.000000 0.786400 -0.617800
vn 0.981000 0.124900 0.148300
vn 0.000000 -0.742100 0.670300
vn -0.981000 0.124900 0.148300
vn 0.000000 0.786400 -0.617700
vn 0.981000 0.124900 0.148200
vn -0.981000 0.124900 0.148200
f 88//139 90//139 87//139
f 93//140 91//140 94//140
f 87//141 92//141 88//141
f 88//142 93//142 89//142
f 89//143 94//143 90//143
f 94//144 87//144 90//144
f 88//139 89//139 90//139
f 93//140 92//140 91//140
f 87//145 91//145 92//145
f 88//146 92//146 93//146
f 89//143 93//143 94//143
f 94//147 91//147 87//147
v 0.002000 0.012218 0.003914
v -0.002000 0.012218 0.003914
v -0.002000 0.012182 0.003115
v 0.002000 0.012182 0.003115
v 0.003000 0.037248 0.003513
v -0.003000 0.037248 0.003513
v -0.003000 0.037152 0.001315
v 0.003000 0.037152 0.001315
vn 0.000000 -0.999000 0.044200
vn 0.000000 0.999000 -0.044000
vn 0.000000 0.016000 0.999900
vn -0.999200 -0.039900 0.001800
vn 0.000000 -0.071900 -0.997400
vn 0.999200 -0.039900 0.001800
vn 0.000000 -0.999000 0.043900
f 96//148 98//148 95//148
f 101//149 99//149 102//149
f 99//150 96//150 95//150
f 96//151 101//151 97//151
f 101//152 98//152 97//152
f 102//153 95//153 98//153
f 96//154 97//154 98//154
f 101//149 100//149 99//149
f 99//150 100//150 96//150
f 96//151 100//151 101//151
f 101//152 102//152 98//152
f 102//153 99//153 95//153
