# Axes: Loom's -- metres, +Y up along the rod from this part's own
# origin, guides and reel toward +Z. No o/g tags: see mesh.rs:266.
# Blender 5.2.0 LTS
# www.blender.org
v -0.000000 0.000000 -0.003153
v -0.001577 0.000000 -0.002731
v -0.002731 0.000000 -0.001577
v -0.003153 0.000000 -0.000000
v -0.002731 0.000000 0.001577
v -0.001577 0.000000 0.002731
v -0.000000 0.000000 0.003153
v 0.001577 0.000000 0.002731
v 0.002731 0.000000 0.001577
v 0.003153 0.000000 0.000000
v 0.002731 0.000000 -0.001577
v 0.001577 0.000000 -0.002731
v -0.000000 0.056000 -0.003053
v -0.001527 0.056000 -0.002644
v -0.002644 0.056000 -0.001527
v -0.003053 0.056000 -0.000000
v -0.002644 0.056000 0.001527
v -0.001527 0.056000 0.002644
v -0.000000 0.056000 0.003053
v 0.001527 0.056000 0.002644
v 0.002644 0.056000 0.001527
v 0.003053 0.056000 0.000000
v 0.002644 0.056000 -0.001527
v 0.001527 0.056000 -0.002644
v -0.000000 0.000000 -0.000000
v -0.000000 0.056000 -0.000000
vn -0.258800 0.001700 -0.965900
vn -0.707100 0.001700 -0.707100
vn -0.965900 0.001700 -0.258800
vn -0.965900 0.001700 0.258800
vn -0.707100 0.001700 0.707100
vn -0.258800 0.001700 0.965900
vn 0.258800 0.001700 0.965900
vn 0.707100 0.001700 0.707100
vn 0.965900 0.001700 0.258800
vn 0.965900 0.001700 -0.258800
vn 0.707100 0.001700 -0.707100
vn 0.258800 0.001700 -0.965900
vn 0.000000 -1.000000 0.000000
vn 0.000000 -1.000000 0.000100
vn 0.000000 -1.000000 -0.000200
vn 0.000000 -1.000000 0.000200
vn 0.000000 -1.000000 -0.000100
vn 0.000000 1.000000 0.000000
f 2//1 13//1 1//1
f 3//2 14//2 2//2
f 4//3 15//3 3//3
f 5//4 16//4 4//4
f 6//5 17//5 5//5
f 7//6 18//6 6//6
f 8//7 19//7 7//7
f 9//8 20//8 8//8
f 10//9 21//9 9//9
f 11//10 22//10 10//10
f 12//11 23//11 11//11
f 1//12 24//12 12//12
f 25//13 2//13 1//13
f 25//14 3//14 2//14
f 25//15 4//15 3//15
f 25//16 5//16 4//16
f 25//17 6//17 5//17
f 25//13 7//13 6//13
f 25//13 8//13 7//13
f 25//17 9//17 8//17
f 25//16 10//16 9//16
f 25//15 11//15 10//15
f 25//14 12//14 11//14
f 25//13 1//13 12//13
f 26//18 13//18 14//18
f 26//18 14//18 15//18
f 26//18 15//18 16//18
f 26//18 16//18 17//18
f 26//18 17//18 18//18
f 26//18 18//18 19//18
f 26//18 19//18 20//18
f 26//18 20//18 21//18
f 26//18 21//18 22//18
f 26//18 22//18 23//18
f 26//18 23//18 24//18
f 26//18 24//18 13//18
f 2//1 14//1 13//1
f 3//2 15//2 14//2
f 4//3 16//3 15//3
f 5//4 17//4 16//4
f 6//5 18//5 17//5
f 7//6 19//6 18//6
f 8//7 20//7 19//7
f 9//8 21//8 20//8
f 10//9 22//9 21//9
f 11//10 23//10 22//10
f 12//11 24//11 23//11
f 1//12 13//12 24//12
