# Axes: Loom's -- metres, +Y up along the rod from this part's own
# origin, guides and reel toward +Z. No o/g tags: see mesh.rs:266.
# Blender 5.2.0 LTS
# www.blender.org
v -0.000000 0.000000 -0.002305
v -0.001153 0.000000 -0.001996
v -0.001996 0.000000 -0.001153
v -0.002305 0.000000 -0.000000
v -0.001996 0.000000 0.001153
v -0.001153 0.000000 0.001996
v -0.000000 0.000000 0.002305
v 0.001153 0.000000 0.001996
v 0.001996 0.000000 0.001153
v 0.002305 0.000000 0.000000
v 0.001996 0.000000 -0.001153
v 0.001153 0.000000 -0.001996
v -0.000000 0.084900 -0.002250
v -0.001125 0.084900 -0.001949
v -0.001949 0.084900 -0.001125
v -0.002250 0.084900 -0.000000
v -0.001949 0.084900 0.001125
v -0.001125 0.084900 0.001949
v -0.000000 0.084900 0.002250
v 0.001125 0.084900 0.001949
v 0.001949 0.084900 0.001125
v 0.002250 0.084900 0.000000
v 0.001949 0.084900 -0.001125
v 0.001125 0.084900 -0.001949
v -0.000000 0.000000 -0.000000
v -0.000000 0.084900 -0.000000
vn -0.258800 0.000600 -0.965900
vn -0.707100 0.000600 -0.707100
vn -0.965900 0.000600 -0.258800
vn -0.965900 0.000600 0.258800
vn -0.707100 0.000600 0.707100
vn -0.258800 0.000600 0.965900
vn 0.258800 0.000600 0.965900
vn 0.707100 0.000600 0.707100
vn 0.965900 0.000600 0.258800
vn 0.965900 0.000600 -0.258800
vn 0.707100 0.000600 -0.707100
vn 0.258800 0.000600 -0.965900
vn 0.000000 -1.000000 0.000000
vn 0.000000 -1.000000 0.000100
vn 0.000000 -1.000000 -0.000100
vn 0.000000 1.000000 0.000000
vn 0.000000 1.000000 -0.000100
vn 0.000000 1.000000 0.000200
vn 0.000000 1.000000 -0.000200
vn 0.000000 1.000000 0.000100
f 2//1 13//1 1//1
f 3//2 14//2 2//2
f 4//3 15//3 3//3
f 5//4 16//4 4//4
f 6//5 17//5 5//5
f 7//6 18//6 6//6
f 8//7 19//7 7//7
f 9//8 20//8 8//8
f 10//9 21//9 9//9
f 11//10 22//10 10//10
f 12//11 23//11 11//11
f 1//12 24//12 12//12
f 25//13 2//13 1//13
f 25//14 3//14 2//14
f 25//15 4//15 3//15
f 25//14 5//14 4//14
f 25//15 6//15 5//15
f 25//13 7//13 6//13
f 25//13 8//13 7//13
f 25//15 9//15 8//15
f 25//14 10//14 9//14
f 25//15 11//15 10//15
f 25//14 12//14 11//14
f 25//13 1//13 12//13
f 26//16 13//16 14//16
f 26//17 14//17 15//17
f 26//18 15//18 16//18
f 26//19 16//19 17//19
f 26//20 17//20 18//20
f 26//16 18//16 19//16
f 26//16 19//16 20//16
f 26//20 20//20 21//20
f 26//19 21//19 22//19
f 26//18 22//18 23//18
f 26//17 23//17 24//17
f 26//16 24//16 13//16
f 2//1 14//1 13//1
f 3//2 15//2 14//2
f 4//3 16//3 15//3
f 5//4 17//4 16//4
f 6//5 18//5 17//5
f 7//6 19//6 18//6
f 8//7 20//7 19//7
f 9//8 21//8 20//8
f 10//9 22//9 21//9
f 11//10 23//10 22//10
f 12//11 24//11 23//11
f 1//12 13//12 24//12
v -0.000000 0.070900 -0.003555
v -0.001777 0.070900 -0.003079
v -0.003079 0.070900 -0.001777
v -0.003555 0.070900 -0.000000
v -0.003079 0.070900 0.001777
v -0.001777 0.070900 0.003079
v -0.000000 0.070900 0.003555
v 0.001777 0.070900 0.003079
v 0.003079 0.070900 0.001777
v 0.003555 0.070900 0.000000
v 0.003079 0.070900 -0.001777
v 0.001777 0.070900 -0.003079
v -0.000000 0.082900 -0.003555
v -0.001777 0.082900 -0.003079
v -0.003079 0.082900 -0.001777
v -0.003555 0.082900 -0.000000
v -0.003079 0.082900 0.001777
v -0.001777 0.082900 0.003079
v -0.000000 0.082900 0.003555
v 0.001777 0.082900 0.003079
v 0.003079 0.082900 0.001777
v 0.003555 0.082900 0.000000
v 0.003079 0.082900 -0.001777
v 0.001777 0.082900 -0.003079
v -0.000000 0.084900 -0.002666
v -0.001333 0.084900 -0.002309
v -0.002309 0.084900 -0.001333
v -0.002666 0.084900 -0.000000
v -0.002309 0.084900 0.001333
v -0.001333 0.084900 0.002309
v -0.000000 0.084900 0.002666
v 0.001333 0.084900 0.002309
v 0.002309 0.084900 0.001333
v 0.002666 0.084900 0.000000
v 0.002309 0.084900 -0.001333
v 0.001333 0.084900 -0.002309
v -0.000000 0.070900 -0.000000
v -0.000000 0.084900 -0.000000
vn -0.258800 -0.000000 -0.965900
vn -0.707100 -0.000000 -0.707100
vn -0.965900 -0.000000 -0.258800
vn -0.965900 -0.000000 0.258800
vn -0.707100 -0.000000 0.707100
vn -0.258800 -0.000000 0.965900
vn 0.258800 -0.000000 0.965900
vn 0.707100 -0.000000 0.707100
vn 0.965900 -0.000000 0.258800
vn 0.965900 -0.000000 -0.258800
vn 0.707100 -0.000000 -0.707100
vn 0.258800 -0.000000 -0.965900
vn -0.237800 0.394400 -0.887600
vn -0.649700 0.394400 -0.649800
vn -0.887600 0.394400 -0.237800
vn -0.887600 0.394400 0.237800
vn -0.649800 0.394400 0.649800
vn -0.237800 0.394500 0.887600
vn 0.237800 0.394400 0.887600
vn 0.649700 0.394400 0.649800
vn 0.887600 0.394400 0.237800
vn 0.887600 0.394400 -0.237800
vn 0.649800 0.394400 -0.649800
vn 0.237800 0.394500 -0.887600
vn 0.000000 -1.000000 0.000000
vn 0.000000 -1.000000 -0.000100
vn 0.000000 -1.000000 0.000100
vn 0.000000 1.000000 0.000000
vn -0.237900 0.394500 -0.887600
vn -0.649800 0.394500 -0.649700
vn -0.649800 0.394500 0.649700
vn -0.237800 0.394400 0.887600
vn 0.237900 0.394500 0.887600
vn 0.649800 0.394500 0.649700
vn 0.649800 0.394500 -0.649700
vn 0.237800 0.394400 -0.887600
f 28//21 39//21 27//21
f 29//22 40//22 28//22
f 30//23 41//23 29//23
f 31//24 42//24 30//24
f 32//25 43//25 31//25
f 33//26 44//26 32//26
f 34//27 45//27 33//27
f 35//28 46//28 34//28
f 36//29 47//29 35//29
f 37//30 48//30 36//30
f 38//31 49//31 37//31
f 27//32 50//32 38//32
f 40//33 51//33 39//33
f 41//34 52//34 40//34
f 42//35 53//35 41//35
f 43//36 54//36 42//36
f 44//37 55//37 43//37
f 45//38 56//38 44//38
f 46//39 57//39 45//39
f 47//40 58//40 46//40
f 48//41 59//41 47//41
f 49//42 60//42 48//42
f 50//43 61//43 49//43
f 39//44 62//44 50//44
f 63//45 28//45 27//45
f 63//46 29//46 28//46
f 63//47 30//47 29//47
f 63//46 31//46 30//46
f 63//47 32//47 31//47
f 63//45 33//45 32//45
f 63//45 34//45 33//45
f 63//47 35//47 34//47
f 63//46 36//46 35//46
f 63//47 37//47 36//47
f 63//46 38//46 37//46
f 63//45 27//45 38//45
f 64//48 51//48 52//48
f 64//48 52//48 53//48
f 64//48 53//48 54//48
f 64//48 54//48 55//48
f 64//48 55//48 56//48
f 64//48 56//48 57//48
f 64//48 57//48 58//48
f 64//48 58//48 59//48
f 64//48 59//48 60//48
f 64//48 60//48 61//48
f 64//48 61//48 62//48
f 64//48 62//48 51//48
f 28//21 40//21 39//21
f 29//22 41//22 40//22
f 30//23 42//23 41//23
f 31//24 43//24 42//24
f 32//25 44//25 43//25
f 33//26 45//26 44//26
f 34//27 46//27 45//27
f 35//28 47//28 46//28
f 36//29 48//29 47//29
f 37//30 49//30 48//30
f 38//31 50//31 49//31
f 27//32 39//32 50//32
f 40//49 52//49 51//49
f 41//50 53//50 52//50
f 42//35 54//35 53//35
f 43//36 55//36 54//36
f 44//51 56//51 55//51
f 45//52 57//52 56//52
f 46//53 58//53 57//53
f 47//54 59//54 58//54
f 48//41 60//41 59//41
f 49//42 61//42 60//42
f 50//55 62//55 61//55
f 39//56 51//56 62//56
v -0.000116 0.091463 0.005136
v -0.000349 0.090891 0.004166
v -0.000233 0.089748 0.004130
v 0.000116 0.089176 0.005065
v 0.000349 0.089748 0.006035
v 0.000233 0.090891 0.006071
v -0.002651 0.091174 0.005945
v -0.003101 0.090580 0.005069
v -0.002890 0.089454 0.004969
v -0.002228 0.088922 0.005745
v -0.001778 0.089516 0.006621
v -0.001989 0.090642 0.006721
v -0.004228 0.090414 0.008089
v -0.005003 0.089737 0.007575
v -0.004721 0.088661 0.007281
v -0.003665 0.088263 0.007501
v -0.002891 0.088940 0.008015
v -0.003172 0.090016 0.008309
v -0.004177 0.089492 0.010660
v -0.004988 0.088677 0.010643
v -0.004758 0.087646 0.010189
v -0.003716 0.087431 0.009750
v -0.002906 0.088246 0.009767
v -0.003136 0.089277 0.010222
v -0.002555 0.088762 0.012693
v -0.003074 0.087824 0.013111
v -0.002958 0.086814 0.012574
v -0.002323 0.086742 0.011617
v -0.001805 0.087679 0.011199
v -0.001921 0.088689 0.011736
v -0.000000 0.088496 0.013440
v -0.000000 0.087520 0.014049
v -0.000000 0.086505 0.013509
v -0.000000 0.086465 0.012359
v -0.000000 0.087441 0.011750
v -0.000000 0.088456 0.012291
v 0.002516 0.088789 0.012645
v 0.003059 0.087891 0.013114
v 0.002983 0.086853 0.012624
v 0.002363 0.086714 0.011665
v 0.001819 0.087613 0.011196
v 0.001896 0.088650 0.011686
v 0.004047 0.089526 0.010627
v 0.004940 0.088803 0.010673
v 0.004840 0.087738 0.010251
v 0.003846 0.087396 0.009783
v 0.002953 0.088120 0.009737
v 0.003054 0.089185 0.010160
v 0.004028 0.090425 0.008162
v 0.004932 0.089917 0.007665
v 0.004851 0.088830 0.007297
v 0.003865 0.088252 0.007428
v 0.002962 0.088760 0.007925
v 0.003043 0.089847 0.008292
v 0.002505 0.091143 0.006192
v 0.003276 0.090729 0.005446
v 0.003210 0.089635 0.005099
v 0.002373 0.088954 0.005498
v 0.001603 0.089368 0.006244
v 0.001669 0.090462 0.006592
vn -0.241300 0.860300 -0.449100
vn -0.314600 0.025400 -0.948900
vn -0.071200 -0.849700 -0.522400
vn 0.227300 -0.856200 0.464000
vn 0.265700 -0.002900 0.964100
vn 0.052000 0.860500 0.506800
vn -0.590500 0.792300 -0.153800
vn -0.789500 -0.039100 -0.612400
vn -0.224000 -0.853500 -0.470400
vn 0.579300 -0.796100 0.175200
vn 0.774900 0.030200 0.631300
vn 0.215300 0.842900 0.493100
vn -0.687800 0.678800 0.257200
vn -0.979500 -0.191800 -0.061500
vn -0.318000 -0.893900 -0.316000
vn 0.691200 -0.682700 -0.236900
vn 0.979700 0.183200 0.080900
vn 0.324200 0.884500 0.335500
vn -0.528200 0.572400 0.627200
vn -0.794200 -0.354100 0.493800
vn -0.284900 -0.951400 -0.116500
vn 0.540600 -0.573900 -0.615100
vn 0.804600 0.348400 -0.480800
vn 0.299400 0.945700 0.126700
vn -0.189600 0.519900 0.832900
vn -0.301200 -0.448100 0.841800
vn -0.114700 -0.992800 0.034300
vn 0.203600 -0.518300 -0.830600
vn 0.314900 0.446000 -0.837800
vn 0.129900 0.990900 -0.034300
vn 0.194700 0.543600 0.816500
vn 0.311400 -0.424400 0.850200
vn 0.132600 -0.989500 0.057500
vn -0.184500 -0.539800 -0.821300
vn -0.300100 0.425300 -0.853800
vn -0.122000 0.990400 -0.064800
vn 0.484600 0.636000 0.600500
vn 0.808200 -0.281600 0.517200
vn 0.354200 -0.932500 -0.070700
vn -0.480800 -0.631800 -0.608000
vn -0.802300 0.283900 -0.525100
vn -0.350500 0.934600 0.061500
vn 0.581600 0.765800 0.274400
vn 0.997500 -0.065600 -0.027000
vn 0.451200 -0.837600 -0.308100
vn -0.583200 -0.761900 -0.281600
vn -0.997500 0.068100 0.019600
vn -0.453300 0.839300 0.300200
vn 0.453200 0.891100 -0.025600
vn 0.816600 0.128900 -0.562600
vn 0.368100 -0.750300 -0.549200
vn -0.471100 -0.881000 0.043900
vn -0.794300 -0.139900 0.591200
vn -0.349200 0.754800 0.555200
vn 0.227400 0.932200 -0.281600
vn 0.334900 0.063200 -0.940100
vn 0.184500 -0.656100 -0.731800
vn -0.157800 -0.923700 0.349000
vn -0.240100 -0.280500 0.929300
vn -0.108800 0.598900 0.793400
vn -0.246000 0.856200 -0.454300
vn -0.301100 -0.001000 -0.953600
vn -0.053800 -0.860700 -0.506300
vn 0.219300 -0.862800 0.455500
vn 0.284100 -0.032000 0.958300
vn 0.070300 0.849600 0.522800
vn -0.610000 0.765300 -0.205600
vn -0.766000 -0.087100 -0.636900
vn -0.162200 -0.872800 -0.460400
vn 0.627900 -0.754900 0.189300
vn 0.780900 0.091600 0.617900
vn 0.182800 0.876500 0.445300
vn -0.722300 0.652600 0.229000
vn -0.969200 -0.228500 -0.091900
vn -0.269200 -0.901200 -0.339500
vn 0.725600 -0.641800 -0.248100
vn 0.969600 0.234000 0.072100
vn 0.275400 0.906600 0.319900
vn -0.560800 0.545100 0.623200
vn -0.796500 -0.384100 0.467000
vn -0.262400 -0.952300 -0.156000
vn 0.552600 -0.536800 -0.637500
vn 0.786500 0.387800 -0.480600
vn 0.256400 0.956500 0.139000
vn -0.209000 0.493000 0.844600
vn -0.310100 -0.474300 0.823900
vn -0.117400 -0.993100 -0.002400
vn 0.195700 -0.488200 -0.850500
vn 0.296700 0.475100 -0.828400
vn 0.105200 0.994400 -0.005700
vn 0.191700 0.519600 0.832600
vn 0.302000 -0.448000 0.841500
vn 0.114500 -0.992800 0.034700
vn -0.204000 -0.518300 -0.830500
vn -0.313000 0.446200 -0.838400
vn -0.126400 0.991400 -0.033800
vn 0.494000 0.617700 0.611900
vn 0.802000 -0.302300 0.515100
vn 0.332400 -0.939900 -0.078600
vn -0.501500 -0.618700 -0.604800
vn -0.807800 0.299400 -0.507800
vn -0.340100 0.936700 0.083900
vn 0.596200 0.753400 0.277500
vn 0.996200 -0.083300 -0.027100
vn 0.435000 -0.847500 -0.304300
vn -0.597900 -0.754900 -0.269600
vn -0.996200 0.080400 0.034300
vn -0.437000 0.843900 0.311200
vn 0.475700 0.879000 -0.033300
vn 0.817000 0.129300 -0.562000
vn 0.354000 -0.757100 -0.549200
vn -0.445000 -0.894800 0.036600
vn -0.794100 -0.140300 0.591300
vn -0.365600 0.747300 0.554800
vn 0.225100 0.814700 -0.534400
vn 0.268700 0.276800 -0.922600
vn 0.017400 -0.849700 -0.526900
vn -0.325500 -0.778400 0.536800
vn -0.357600 -0.065300 0.931600
vn -0.121000 0.826300 0.550100
f 66//57 71//57 65//57
f 66//58 73//58 72//58
f 67//59 74//59 73//59
f 68//60 75//60 74//60
f 70//61 75//61 69//61
f 65//62 76//62 70//62
f 71//63 78//63 77//63
f 72//64 79//64 78//64
f 73//65 80//65 79//65
f 74//66 81//66 80//66
f 75//67 82//67 81//67
f 76//68 77//68 82//68
f 77//69 84//69 83//69
f 78//70 85//70 84//70
f 79//71 86//71 85//71
f 80//72 87//72 86//72
f 81//73 88//73 87//73
f 82//74 83//74 88//74
f 83//75 90//75 89//75
f 84//76 91//76 90//76
f 85//77 92//77 91//77
f 86//78 93//78 92//78
f 87//79 94//79 93//79
f 88//80 89//80 94//80
f 89//81 96//81 95//81
f 90//82 97//82 96//82
f 91//83 98//83 97//83
f 92//84 99//84 98//84
f 93//85 100//85 99//85
f 94//86 95//86 100//86
f 95//87 102//87 101//87
f 96//88 103//88 102//88
f 97//89 104//89 103//89
f 98//90 105//90 104//90
f 99//91 106//91 105//91
f 100//92 101//92 106//92
f 101//93 108//93 107//93
f 102//94 109//94 108//94
f 103//95 110//95 109//95
f 104//96 111//96 110//96
f 105//97 112//97 111//97
f 106//98 107//98 112//98
f 107//99 114//99 113//99
f 108//100 115//100 114//100
f 109//101 116//101 115//101
f 110//102 117//102 116//102
f 111//103 118//103 117//103
f 112//104 113//104 118//104
f 113//105 120//105 119//105
f 115//106 120//106 114//106
f 116//107 121//107 115//107
f 117//108 122//108 116//108
f 117//109 124//109 123//109
f 118//110 119//110 124//110
f 120//111 65//111 119//111
f 120//112 67//112 66//112
f 122//113 67//113 121//113
f 123//114 68//114 122//114
f 124//115 69//115 123//115
f 119//116 70//116 124//116
f 66//117 72//117 71//117
f 66//118 67//118 73//118
f 67//119 68//119 74//119
f 68//120 69//120 75//120
f 70//121 76//121 75//121
f 65//122 71//122 76//122
f 71//123 72//123 78//123
f 72//124 73//124 79//124
f 73//125 74//125 80//125
f 74//126 75//126 81//126
f 75//127 76//127 82//127
f 76//128 71//128 77//128
f 77//129 78//129 84//129
f 78//130 79//130 85//130
f 79//131 80//131 86//131
f 80//132 81//132 87//132
f 81//133 82//133 88//133
f 82//134 77//134 83//134
f 83//135 84//135 90//135
f 84//136 85//136 91//136
f 85//137 86//137 92//137
f 86//138 87//138 93//138
f 87//139 88//139 94//139
f 88//140 83//140 89//140
f 89//141 90//141 96//141
f 90//142 91//142 97//142
f 91//143 92//143 98//143
f 92//144 93//144 99//144
f 93//145 94//145 100//145
f 94//146 89//146 95//146
f 95//147 96//147 102//147
f 96//148 97//148 103//148
f 97//149 98//149 104//149
f 98//150 99//150 105//150
f 99//151 100//151 106//151
f 100//152 95//152 101//152
f 101//153 102//153 108//153
f 102//154 103//154 109//154
f 103//155 104//155 110//155
f 104//156 105//156 111//156
f 105//157 106//157 112//157
f 106//158 101//158 107//158
f 107//159 108//159 114//159
f 108//160 109//160 115//160
f 109//161 110//161 116//161
f 110//162 111//162 117//162
f 111//163 112//163 118//163
f 112//164 107//164 113//164
f 113//165 114//165 120//165
f 115//166 121//166 120//166
f 116//167 122//167 121//167
f 117//168 123//168 122//168
f 117//169 118//169 124//169
f 118//170 113//170 119//170
f 120//171 66//171 65//171
f 120//172 121//172 67//172
f 122//173 68//173 67//173
f 123//174 69//174 68//174
f 124//175 70//175 69//175
f 119//176 65//176 70//176
v -0.002200 0.081597 -0.000476
v 0.002200 0.081597 -0.000476
v 0.002200 0.080203 0.001476
v -0.002200 0.080203 0.001476
v -0.001500 0.088481 0.004686
v 0.001500 0.088481 0.004686
v 0.001500 0.087319 0.006314
v -0.001500 0.087319 0.006314
vn 0.000000 -0.813800 -0.581200
vn 0.000000 0.813800 0.581200
vn 0.000000 0.600000 -0.800000
vn 0.996700 0.066000 0.047100
vn 0.000000 -0.562200 0.827000
vn -0.996700 0.066000 0.047100
vn 0.000000 -0.813800 -0.581100
vn 0.000000 0.813700 0.581300
vn 0.996700 0.066000 0.047200
vn -0.996700 0.066000 0.047200
f 126//177 128//177 125//177
f 131//178 129//178 132//178
f 129//179 126//179 125//179
f 126//180 131//180 127//180
f 131//181 128//181 127//181
f 132//182 125//182 128//182
f 126//183 127//183 128//183
f 131//184 130//184 129//184
f 129//179 130//179 126//179
f 126//185 130//185 131//185
f 131//181 132//181 128//181
f 132//186 129//186 125//186
